<svg width="36" height="36" viewBox="0 0 36 36" fill="none" xmlns="http://www.w3.org/2000/svg">
<path d="M1.00871e-09 18C7.8474e-05 6.75 3.21436 8.78424e-06 18 0C32.7856 -8.78422e-06 36 5.94643 36 18C36 30.8571 30.5358 36 18 36C6.91071 36 -9.64087e-05 31.8214 1.00871e-09 18Z" fill="#0075D7"/>
<path d="M22.2866 18.8699C22.1 18.4966 22.1 18.17 22.2866 17.7968L25.3659 11.9183C25.3892 11.8716 25.4125 11.8016 25.4592 11.7316H21.9601C21.9134 11.7316 21.8434 11.8016 21.8201 11.8483C21.6801 12.1515 21.5402 12.4548 21.3769 12.7581L19.8373 15.8373C19.7906 15.9073 19.7439 16.0006 19.6973 16.0706C19.674 16.0706 19.674 16.0706 19.6506 16.0472V11.7316H16.2681V24.865H19.6506V20.4328C19.7206 20.4795 19.7439 20.5261 19.7673 20.5728C20.5371 21.9724 21.3069 23.3487 22.0534 24.7484C22.1234 24.8883 22.1933 24.935 22.3566 24.935C22.5432 24.935 22.7065 24.9583 22.8932 24.9583H25.4359C25.3659 24.7717 25.2959 24.5618 25.1793 24.3985C24.2228 22.5323 23.2664 20.7127 22.2866 18.8699ZM30.1014 17.3536H27.4653C27.0688 17.3536 26.6722 17.3769 26.3456 17.6102C25.8557 17.9368 25.7391 18.45 25.7391 18.9865V24.935H28.6317V20.1995H30.2646V17.3769C30.1947 17.3769 30.148 17.3536 30.1014 17.3536ZM9.10661 11.7083H8.68671C7.77694 11.7316 6.86717 11.7316 5.9574 11.7316V12.7114H8.66339V14.5309H5.9574V15.534H8.66339V17.3769H6.00405V18.3333H9.12994C9.5265 18.3333 9.66647 18.1934 9.66647 17.7735V13.1779V12.3382C9.66647 11.9183 9.47985 11.755 9.10661 11.7083ZM14.4486 14.9042C14.4253 14.6942 14.2853 14.5776 14.0754 14.5543C13.8887 14.5309 13.7021 14.5309 13.4922 14.5309H11.626V12.6647H14.3086C14.2853 12.3382 14.262 12.0349 14.2387 11.755C14.2153 11.7316 14.192 11.7316 14.1687 11.7316H11.2061C10.8562 11.7316 10.6696 11.9183 10.6696 12.3148C10.6696 14.111 10.6462 15.9073 10.6462 17.7035C10.6462 18.17 10.8328 18.3333 11.2994 18.3333H13.8887C14.332 18.3333 14.5186 18.1467 14.5186 17.6802V15.3007C14.4953 15.1608 14.4719 15.0441 14.4486 14.9042ZM13.4222 17.3302H11.6493V15.5573H13.4222V17.3302Z" fill="white"/>
</svg>
