<svg width="36" height="36" viewBox="0 0 36 36" fill="none" xmlns="http://www.w3.org/2000/svg">
<mask id="path-1-inside-1_12_3283" fill="white">
<path d="M1.00871e-09 18C7.8474e-05 6.75 3.21436 8.78424e-06 18 0C32.7856 -8.78422e-06 36 5.94643 36 18C36 30.8571 30.5358 36 18 36C6.91071 36 -9.64087e-05 31.8214 1.00871e-09 18Z"/>
</mask>
<path d="M1.00871e-09 18C7.8474e-05 6.75 3.21436 8.78424e-06 18 0C32.7856 -8.78422e-06 36 5.94643 36 18C36 30.8571 30.5358 36 18 36C6.91071 36 -9.64087e-05 31.8214 1.00871e-09 18Z" fill="#AE1C59"/>
<path d="M1.00871e-09 18L1 18L1.00871e-09 18ZM1.00871e-09 18L1 18C1.00004 12.4188 1.81003 8.23746 4.21467 5.43204C6.5888 2.66223 10.7301 1 18 1V0V-1C10.4842 -0.999996 5.6256 0.712782 2.69616 4.13046C-0.202768 7.51254 -0.99996 12.3312 -1 18L1.00871e-09 18ZM18 0V1C25.3037 0.999996 29.4342 2.47694 31.7961 5.14302C34.1841 7.83854 35 12.0002 35 18H36H37C37 11.9462 36.2087 7.10788 33.2931 3.81679C30.3514 0.496269 25.4819 -1 18 -1V0ZM36 18H35C35 24.3159 33.6537 28.4908 30.9987 31.1095C28.3409 33.7309 24.1622 35 18 35V36V37C24.3736 37 29.1949 35.6977 32.4031 32.5334C35.6142 29.3663 37 24.5413 37 18H36ZM18 36V35C12.5482 35 8.34866 33.9666 5.50644 31.4362C2.68833 28.9271 0.999953 24.7587 1 18L1.00871e-09 18L-1 18C-1.00005 25.0627 0.766929 29.8943 4.17652 32.9299C7.562 35.9441 12.3625 37 18 37V36Z" fill="black" fill-opacity="0.08" mask="url(#path-1-inside-1_12_3283)"/>
<path d="M20.0132 21.168L25.0218 17.9381C26.4288 16.9381 27.4376 16.1063 26.8093 15.009C26.2695 14.0799 25.1192 14.2745 23.1635 14.894C21.3583 15.4692 18.969 16.3098 17.5001 16.8496C17.3231 16.9116 17.1992 16.6726 17.3585 16.5664C19.1283 15.3718 21.1548 13.9206 22.2078 12.9826C22.8892 12.3808 22.9777 11.6463 22.6149 11.2039C22.3051 10.8234 21.8981 10.434 19.969 11.0623C18.5797 11.5225 16.8099 12.2658 15.217 12.9118C15.0489 12.9826 14.9161 12.7613 15.0577 12.6463C15.4382 12.3277 16.1816 11.7614 16.5886 11.3278C17.2346 10.6464 17.2435 9.98272 16.916 9.54911C16.7479 9.31903 16.3674 8.93852 15.2967 9.02701C14.4117 9.09781 13.3853 9.28364 12.0048 9.66415C10.996 9.94732 11.1376 11.5136 12.5711 11.257C12.9339 11.195 13.456 11.0889 13.8366 11.0092C13.9958 10.9738 14.102 11.1862 13.9693 11.2835C13.0136 12.0269 11.8809 12.9383 11.3588 13.4073C10.6863 14.0091 10.4031 14.655 10.8544 15.2568C11.3234 15.8674 12.2437 15.6815 13.3499 15.363C14.0312 15.1683 15.0931 14.8055 15.8542 14.5489C16.0311 14.4869 16.1462 14.7347 15.9869 14.832C14.5887 15.7169 12.1995 17.1947 10.9783 18.0619C9.57129 19.0619 8.56249 19.8937 9.19078 20.991C9.73058 21.9202 10.881 21.7255 12.8366 21.106C14.6418 20.5308 17.0311 19.6902 18.5 19.1504C18.677 19.0884 18.8009 19.3274 18.6416 19.4336C16.8718 20.6282 14.8454 22.0794 13.7923 23.0174C13.1109 23.6192 13.0224 24.3537 13.3853 24.7961C13.695 25.1766 14.102 25.566 16.0311 24.9377C17.4204 24.4775 19.1903 23.7342 20.7831 23.0882C20.9512 23.0174 21.084 23.2387 20.9424 23.3537C20.5619 23.6723 19.8186 24.2386 19.4115 24.6722C18.7655 25.3536 18.7567 26.0173 19.0841 26.4509C19.2522 26.681 19.6327 27.0615 20.7035 26.973C21.5884 26.9022 22.6149 26.7164 23.9953 26.3359C25.0041 26.0527 24.8625 24.4864 23.429 24.743C23.0662 24.805 22.5441 24.9112 22.1636 24.9908C22.0043 25.0262 21.8981 24.8138 22.0308 24.7165C22.9865 23.9643 24.1104 23.0528 24.6325 22.5838C25.305 21.9821 25.5882 21.3361 25.1369 20.7344C24.6679 20.1238 23.7476 20.3096 22.6414 20.6282C21.96 20.8229 20.8981 21.1857 20.1371 21.4423C19.9778 21.5131 19.8539 21.2653 20.0132 21.168Z" fill="white"/>
</svg>
