<svg width="36" height="36" viewBox="0 0 36 36" fill="none" xmlns="http://www.w3.org/2000/svg">
<path d="M1.00871e-09 18C7.8474e-05 6.75 3.21436 8.78424e-06 18 0C32.7856 -8.78422e-06 36 5.94643 36 18C36 30.8571 30.5358 36 18 36C6.91071 36 -9.64087e-05 31.8214 1.00871e-09 18Z" fill="#D43B35"/>
<path d="M8.57388 16.9331H7.56463C7.5462 16.8025 7.50856 16.6865 7.45173 16.5851C7.39489 16.4822 7.32192 16.3947 7.23283 16.3225C7.14373 16.2503 7.04081 16.195 6.92406 16.1566C6.80885 16.1182 6.68365 16.0989 6.54847 16.0989C6.30422 16.0989 6.09147 16.1596 5.9102 16.281C5.72894 16.4008 5.58838 16.5759 5.48853 16.8063C5.38868 17.0352 5.33875 17.3133 5.33875 17.6405C5.33875 17.9769 5.38868 18.2595 5.48853 18.4884C5.58991 18.7173 5.73124 18.8901 5.91251 19.0069C6.09377 19.1236 6.30346 19.182 6.54156 19.182C6.6752 19.182 6.79886 19.1643 6.91254 19.129C7.02775 19.0937 7.1299 19.0422 7.219 18.9746C7.3081 18.9055 7.38183 18.8218 7.44021 18.7235C7.50012 18.6251 7.54159 18.513 7.56463 18.387L8.57388 18.3917C8.54777 18.6082 8.48248 18.8172 8.37803 19.0184C8.2751 19.2181 8.13608 19.3971 7.96096 19.5553C7.78738 19.712 7.58 19.8364 7.33882 19.9286C7.09918 20.0192 6.82805 20.0645 6.52543 20.0645C6.10452 20.0645 5.72817 19.9693 5.39636 19.7788C5.06609 19.5883 4.80494 19.3126 4.61292 18.9516C4.42244 18.5906 4.3272 18.1535 4.3272 17.6405C4.3272 17.1259 4.42398 16.6881 4.61753 16.3271C4.81109 15.9661 5.07377 15.6911 5.40558 15.5022C5.73738 15.3117 6.11067 15.2164 6.52543 15.2164C6.79886 15.2164 7.05233 15.2548 7.28582 15.3316C7.52085 15.4084 7.729 15.5206 7.91027 15.6681C8.09153 15.814 8.239 15.993 8.35268 16.2049C8.46789 16.4169 8.54163 16.6596 8.57388 16.9331ZM10.014 20H8.94486L10.574 15.2809H11.8597L13.4865 20H12.4173L11.2353 16.3593H11.1984L10.014 20ZM9.9472 18.1451H12.4726V18.9239H9.9472V18.1451ZM18.0016 15.2809V20H17.1398L15.0868 17.0299H15.0522V20H14.0545V15.2809H14.9301L16.967 18.2488H17.0085V15.2809H18.0016ZM19.6785 15.2809L20.8191 18.8663H20.8629L22.0058 15.2809H23.1118L21.485 20H20.1993L18.5702 15.2809H19.6785ZM23.8659 20H22.7967L24.4258 15.2809H25.7115L27.3383 20H26.2692L25.0871 16.3593H25.0502L23.8659 20ZM23.799 18.1451H26.3245V18.9239H23.799V18.1451ZM30.3586 16.6381C30.3402 16.4523 30.261 16.3079 30.1213 16.2049C29.9815 16.102 29.7918 16.0506 29.5521 16.0506C29.3893 16.0506 29.2518 16.0736 29.1397 16.1197C29.0275 16.1642 28.9415 16.2264 28.8816 16.3063C28.8232 16.3862 28.794 16.4768 28.794 16.5782C28.791 16.6627 28.8086 16.7365 28.847 16.7994C28.887 16.8624 28.9415 16.9169 29.0106 16.963C29.0797 17.0076 29.1596 17.0468 29.2503 17.0805C29.3409 17.1128 29.4377 17.1405 29.5406 17.1635L29.9646 17.2649C30.1704 17.311 30.3594 17.3724 30.5314 17.4492C30.7035 17.526 30.8525 17.6205 30.9784 17.7326C31.1044 17.8448 31.2019 17.9769 31.2711 18.129C31.3417 18.281 31.3778 18.4554 31.3794 18.652C31.3778 18.9408 31.3041 19.1912 31.1582 19.4032C31.0138 19.6137 30.8048 19.7773 30.5314 19.894C30.2595 20.0092 29.9315 20.0668 29.5475 20.0668C29.1665 20.0668 28.8347 20.0084 28.5521 19.8917C28.271 19.775 28.0513 19.6021 27.8931 19.3733C27.7364 19.1428 27.6542 18.8579 27.6465 18.5184H28.612C28.6227 18.6766 28.6681 18.8087 28.7479 18.9147C28.8294 19.0192 28.9377 19.0983 29.0728 19.152C29.2096 19.2043 29.3639 19.2304 29.536 19.2304C29.705 19.2304 29.8517 19.2058 29.9761 19.1567C30.1021 19.1075 30.1996 19.0391 30.2687 18.9516C30.3379 18.864 30.3724 18.7634 30.3724 18.6497C30.3724 18.5437 30.3409 18.4546 30.2779 18.3824C30.2165 18.3102 30.1259 18.2488 30.006 18.1981C29.8878 18.1474 29.7426 18.1013 29.5705 18.0598L29.0567 17.9308C28.6588 17.834 28.3447 17.6827 28.1143 17.4769C27.8839 17.271 27.7694 16.9938 27.7709 16.645C27.7694 16.3593 27.8455 16.1097 27.9991 15.8962C28.1542 15.6827 28.367 15.516 28.6373 15.3962C28.9077 15.2763 29.2149 15.2164 29.559 15.2164C29.9093 15.2164 30.215 15.2763 30.4761 15.3962C30.7388 15.516 30.9431 15.6827 31.089 15.8962C31.235 16.1097 31.3102 16.357 31.3148 16.6381H30.3586Z" fill="white"/>
</svg>
