<svg width="36" height="36" viewBox="0 0 36 36" fill="none" xmlns="http://www.w3.org/2000/svg">
<mask id="path-1-inside-1_1_180" fill="white">
<path d="M1.00871e-09 18C7.8474e-05 6.75 3.21436 8.78424e-06 18 0C32.7856 -8.78422e-06 36 5.94643 36 18C36 30.8571 30.5358 36 18 36C6.91071 36 -9.64087e-05 31.8214 1.00871e-09 18Z"/>
</mask>
<path d="M1.00871e-09 18C7.8474e-05 6.75 3.21436 8.78424e-06 18 0C32.7856 -8.78422e-06 36 5.94643 36 18C36 30.8571 30.5358 36 18 36C6.91071 36 -9.64087e-05 31.8214 1.00871e-09 18Z" fill="#232128"/>
<path d="M1.00871e-09 18L1 18L1.00871e-09 18ZM1.00871e-09 18L1 18C1.00004 12.4188 1.81003 8.23746 4.21467 5.43204C6.5888 2.66223 10.7301 1 18 1V0V-1C10.4842 -0.999996 5.6256 0.712782 2.69616 4.13046C-0.202768 7.51254 -0.99996 12.3312 -1 18L1.00871e-09 18ZM18 0V1C25.3037 0.999996 29.4342 2.47694 31.7961 5.14302C34.1841 7.83854 35 12.0002 35 18H36H37C37 11.9462 36.2087 7.10788 33.2931 3.81679C30.3514 0.496269 25.4819 -1 18 -1V0ZM36 18H35C35 24.3159 33.6537 28.4908 30.9987 31.1095C28.3409 33.7309 24.1622 35 18 35V36V37C24.3736 37 29.1949 35.6977 32.4031 32.5334C35.6142 29.3663 37 24.5413 37 18H36ZM18 36V35C12.5482 35 8.34866 33.9666 5.50644 31.4362C2.68833 28.9271 0.999953 24.7587 1 18L1.00871e-09 18L-1 18C-1.00005 25.0627 0.766929 29.8943 4.17652 32.9299C7.562 35.9441 12.3625 37 18 37V36Z" fill="white" fill-opacity="0.09" mask="url(#path-1-inside-1_1_180)"/>
<path d="M16.5479 8.89721C14.8385 9.09348 13.4468 10.1533 12.7617 11.7806L12.651 12.0446L12.2942 12.1481C10.7133 12.6156 9.54648 13.8503 9.12181 15.5025C8.9969 15.9914 8.96122 16.7765 9.04687 17.2867C9.17891 18.0897 9.52148 18.8676 10.0068 19.4635L10.1709 19.667L10.0782 20.0167C9.95682 20.4913 9.92472 21.3477 10.0104 21.858C10.2744 23.4174 11.3521 24.777 12.7867 25.3623C13.6145 25.7013 14.4995 25.8048 15.3239 25.662L15.5308 25.6263L15.8627 25.9404C16.4051 26.4507 17.051 26.8039 17.804 27.0109C18.2679 27.1358 19.2885 27.1715 19.7916 27.0752C20.7408 26.9003 21.5473 26.4721 22.2396 25.7762C22.7392 25.2731 23.1531 24.6272 23.3066 24.1062C23.3459 23.9812 23.3708 23.9527 23.4636 23.9313C23.692 23.8849 24.2237 23.6922 24.4664 23.5709C25.1087 23.2497 25.7653 22.693 26.1578 22.1328C26.5111 21.6296 26.8037 20.9552 26.95 20.295C26.9822 20.1558 27 19.8489 27 19.4207C27 18.8141 26.9893 18.7284 26.8965 18.368C26.7181 17.6757 26.4326 17.0833 26.0329 16.5802L25.8509 16.3518L25.9295 16.0378C26.4076 14.2036 25.6297 12.1624 24.0488 11.1025C23.4957 10.735 23.0104 10.5316 22.3431 10.3853C21.9434 10.2961 21.0763 10.2818 20.7016 10.3532C20.4803 10.396 20.4696 10.396 20.4197 10.3246C20.3376 10.1961 19.7988 9.76079 19.4776 9.55738C18.6354 9.02924 17.5363 8.78301 16.5479 8.89721ZM17.3579 10.1069C17.8075 10.1497 18.0787 10.2211 18.4534 10.396C18.7532 10.5352 19.2028 10.8135 19.2028 10.8599C19.2028 10.8742 18.3892 11.3559 17.3936 11.9269C16.3944 12.5014 15.5273 13.0117 15.463 13.0581C15.1989 13.2543 15.2061 13.208 15.2025 14.7995C15.1989 15.5846 15.1847 16.7693 15.174 17.4295L15.1526 18.6321L14.3925 18.1967L13.6324 17.7614L13.6431 15.3526C13.6574 12.5977 13.6467 12.7119 13.9928 12.0089C14.5245 10.9312 15.5415 10.2211 16.7049 10.1069C16.8512 10.0926 16.9796 10.0784 16.9904 10.0784C17.0011 10.0748 17.1652 10.0891 17.3579 10.1069ZM22.1575 11.5878C23.4672 11.8626 24.5163 12.9118 24.7875 14.2285C24.8518 14.5319 24.8696 15.3419 24.8161 15.4383C24.7947 15.4811 24.4093 15.2705 22.8784 14.3784C20.9978 13.2829 20.9657 13.2651 20.773 13.2651C20.5803 13.2651 20.5374 13.29 18.3107 14.5783L16.0447 15.8879L16.034 15.0065C16.0304 14.5212 16.0376 14.1144 16.0518 14.1001C16.1196 14.0358 19.7845 11.9376 20.0414 11.8162C20.6802 11.5165 21.4331 11.4344 22.1575 11.5878ZM12.5583 18.054C12.6154 18.136 13.2292 18.5072 14.8849 19.4635C16.1232 20.1737 17.1331 20.766 17.1331 20.7767C17.1331 20.7874 17.0332 20.8517 16.9083 20.9231C16.7869 20.9909 16.4444 21.1871 16.1482 21.3584L15.6093 21.6724L13.6859 20.5626C12.6296 19.9524 11.6412 19.3601 11.4949 19.2459C10.9703 18.8426 10.4885 18.1075 10.3137 17.4402C10.203 17.0084 10.1852 16.3554 10.2744 15.9236C10.41 15.2634 10.6919 14.7281 11.1523 14.25C11.4627 13.9288 11.7447 13.7254 12.1372 13.5327L12.4405 13.3864L12.4583 15.6631L12.4762 17.9398L12.5583 18.054ZM22.2432 15.4097C23.2495 15.9914 24.1773 16.5338 24.3058 16.6159C25.0801 17.1262 25.619 17.9683 25.7688 18.8997C25.8331 19.2851 25.7974 20.006 25.6975 20.345C25.5369 20.9052 25.2514 21.3977 24.8482 21.8188C24.5341 22.147 23.9882 22.5146 23.6741 22.611L23.5921 22.6359V20.4199C23.5921 17.9541 23.5992 18.0397 23.3494 17.8613C23.2709 17.8078 22.236 17.1975 21.0477 16.5124C19.8594 15.8237 18.8852 15.2563 18.8852 15.2456C18.8816 15.2313 20.3768 14.357 20.4054 14.3534C20.4125 14.3534 21.2368 14.8281 22.2432 15.4097ZM19.0065 16.3054L19.9879 16.8692V19.1531L19.003 19.7169L18.0181 20.2843L17.3186 19.881C16.9297 19.6598 16.4836 19.3993 16.3195 19.3065L16.0268 19.1317L16.034 18.0005L16.0447 16.8692L17.0082 16.309C17.5399 16.0021 17.9859 15.7487 18.0002 15.7487C18.0145 15.7452 18.4677 15.9985 19.0065 16.3054ZM21.6401 17.8327L22.3788 18.2574V20.5305C22.3788 23.0249 22.3716 23.1391 22.1646 23.7136C21.9577 24.281 21.5116 24.8805 21.012 25.2588C20.8907 25.3516 20.6302 25.505 20.4339 25.5978C19.5061 26.0438 18.4784 26.0546 17.5327 25.6299C17.3079 25.5264 16.8119 25.2124 16.8119 25.1696C16.8119 25.1589 17.6505 24.6664 18.6711 24.0776C19.6953 23.4888 20.5838 22.9571 20.648 22.8964C20.7158 22.8286 20.7801 22.718 20.8051 22.6216C20.8336 22.5075 20.8443 21.7117 20.8443 19.9203C20.8443 18.5215 20.8586 17.3867 20.8729 17.3938C20.8871 17.3974 21.2333 17.5972 21.6401 17.8327ZM19.9629 21.9222C19.8951 21.9865 16.2981 24.0491 16.0054 24.1882C15.5308 24.4166 15.149 24.4987 14.5816 24.4987C14.2283 24.4987 14.0428 24.4808 13.8037 24.4237C12.5797 24.1204 11.6519 23.2426 11.295 22.0364C11.1951 21.701 11.1416 21.0123 11.188 20.6947L11.2129 20.5305L12.1122 21.0515C15.2204 22.8429 15.0598 22.7573 15.2561 22.7573C15.4274 22.7537 15.5522 22.6895 17.704 21.4476L19.97 20.138L19.9808 21.0194C19.9843 21.5012 19.9772 21.908 19.9629 21.9222Z" fill="white"/>
</svg>
