<svg width="36" height="36" viewBox="0 0 36 36" fill="none" xmlns="http://www.w3.org/2000/svg">
<mask id="path-1-inside-1_10_2954" fill="white">
<path d="M1.00871e-09 18C7.8474e-05 6.75 3.21436 8.78424e-06 18 0C32.7856 -8.78422e-06 36 5.94643 36 18C36 30.8571 30.5358 36 18 36C6.91071 36 -9.64087e-05 31.8214 1.00871e-09 18Z"/>
</mask>
<path d="M1.00871e-09 18C7.8474e-05 6.75 3.21436 8.78424e-06 18 0C32.7856 -8.78422e-06 36 5.94643 36 18C36 30.8571 30.5358 36 18 36C6.91071 36 -9.64087e-05 31.8214 1.00871e-09 18Z" fill="white"/>
<path d="M1.00871e-09 18L1 18L1.00871e-09 18ZM1.00871e-09 18L1 18C1.00004 12.4188 1.81003 8.23746 4.21467 5.43204C6.5888 2.66223 10.7301 1 18 1V0V-1C10.4842 -0.999996 5.6256 0.712782 2.69616 4.13046C-0.202768 7.51254 -0.99996 12.3312 -1 18L1.00871e-09 18ZM18 0V1C25.3037 0.999996 29.4342 2.47694 31.7961 5.14302C34.1841 7.83854 35 12.0002 35 18H36H37C37 11.9462 36.2087 7.10788 33.2931 3.81679C30.3514 0.496269 25.4819 -1 18 -1V0ZM36 18H35C35 24.3159 33.6537 28.4908 30.9987 31.1095C28.3409 33.7309 24.1622 35 18 35V36V37C24.3736 37 29.1949 35.6977 32.4031 32.5334C35.6142 29.3663 37 24.5413 37 18H36ZM18 36V35C12.5482 35 8.34866 33.9666 5.50644 31.4362C2.68833 28.9271 0.999953 24.7587 1 18L1.00871e-09 18L-1 18C-1.00005 25.0627 0.766929 29.8943 4.17652 32.9299C7.562 35.9441 12.3625 37 18 37V36Z" fill="black" fill-opacity="0.08" mask="url(#path-1-inside-1_10_2954)"/>
<g clip-path="url(#clip0_10_2954)">
<path d="M10.4641 9.27759H16.3841C17.2021 9.46959 17.4301 9.77559 17.5201 10.6216C17.7121 12.3956 17.9001 14.1716 18.1141 15.9436C18.1701 16.4056 18.1781 16.8736 18.1901 17.3396C18.1961 17.5256 18.3281 17.7196 18.1581 17.8956C18.0261 17.9896 17.8761 17.9656 17.7301 17.9616C16.8901 17.8176 16.0381 17.8116 15.1941 17.7116C13.6901 17.5356 12.1861 17.3636 10.6801 17.1956C10.0001 17.1196 9.55411 16.7676 9.54811 15.9456C9.53411 14.0656 9.53211 12.1856 9.55011 10.3056C9.55611 9.62959 9.68811 9.51759 10.4641 9.27759Z" fill="#00A03B"/>
<path d="M18.1442 17.8296C18.1242 17.6896 18.1042 17.5476 18.0822 17.4076C18.2002 17.1956 18.1622 16.9576 18.1542 16.7396C18.1262 15.8016 18.3242 14.8856 18.4122 13.9596C18.5142 12.8616 18.6482 11.7636 18.7742 10.6676C18.7842 10.5876 18.7722 10.5056 18.7942 10.4296C18.9822 9.72963 19.0642 9.41963 19.9042 9.27563H25.8242C26.6642 9.53563 26.7442 9.64363 26.7442 10.5376V15.8096C26.8002 16.7876 26.1642 17.1436 25.4282 17.2196C23.8602 17.3836 22.2942 17.5696 20.7262 17.7516C20.0422 17.8316 19.3542 17.8896 18.6642 17.8896C18.4902 17.8716 18.2942 18.0376 18.1442 17.8296Z" fill="#77BD31"/>
<path d="M18.6362 17.7877C20.7502 17.5557 22.8622 17.3217 24.9762 17.0897C25.1482 17.0717 25.3202 17.0577 25.4922 17.0377C26.2262 16.9517 26.6002 16.5877 26.7182 15.8477C26.7382 15.7917 26.7602 15.7917 26.7842 15.8457C26.7842 19.3317 26.7802 22.8157 26.7902 26.3017C26.7902 26.5417 26.7422 26.5897 26.5042 26.5897C20.9302 26.5817 15.3582 26.5817 9.78417 26.5897C9.54617 26.5897 9.49817 26.5417 9.49817 26.3017C9.50617 20.7197 9.50617 15.1377 9.49817 9.55568C9.49817 9.31768 9.54417 9.24168 9.78617 9.26968C10.0102 9.29568 10.2382 9.27568 10.4662 9.27568C9.77817 9.59168 9.55817 10.1357 9.57417 10.8797C9.61017 12.4777 9.58417 14.0757 9.58617 15.6757C9.58817 16.4797 9.99417 16.9457 10.7922 17.0357C12.9962 17.2857 15.2022 17.5277 17.4082 17.7677C17.5302 17.7817 17.6402 17.8077 17.7462 17.8637C17.7662 17.9137 17.7562 17.9577 17.7182 17.9937C17.2642 18.2257 16.7582 18.1937 16.2782 18.2437C14.4802 18.4277 12.6882 18.6757 10.8862 18.8417C10.1562 18.9097 9.77417 19.3297 9.76817 20.0557C9.75417 21.7377 9.75217 23.4197 9.76817 25.1017C9.77417 25.8337 10.1842 26.2357 10.9222 26.2437C12.5882 26.2577 14.2542 26.2537 15.9202 26.2457C16.6562 26.2437 17.0742 25.8897 17.1522 25.1557C17.3182 23.6197 17.4962 22.0857 17.6602 20.5497C17.7362 19.8477 17.8222 19.1477 17.9082 18.4477C17.9182 18.3657 17.9522 18.2937 18.0062 18.2317C18.3342 18.0457 18.3582 18.2957 18.3922 18.5097C18.5002 19.1657 18.5522 19.8317 18.6282 20.4917C18.8042 22.0117 18.9742 23.5337 19.1342 25.0557C19.2222 25.8957 19.6102 26.2417 20.4442 26.2457C22.0562 26.2537 23.6682 26.2537 25.2782 26.2457C26.1642 26.2417 26.5222 25.8877 26.5262 25.0077C26.5342 23.3677 26.5342 21.7257 26.5262 20.0857C26.5222 19.3357 26.1502 18.9157 25.4022 18.8417C23.3662 18.6417 21.3362 18.3697 19.3002 18.1737C19.0762 18.1517 18.8522 18.1177 18.6322 18.0637C18.5442 18.0417 18.4482 17.9857 18.4682 17.8737C18.4822 17.7997 18.5762 17.8117 18.6362 17.7877Z" fill="#FEFEFE"/>
<path d="M19.9042 9.27759C19.2202 9.54359 19.0042 10.0796 18.9342 10.7756C18.7182 12.9596 18.4562 15.1416 18.2162 17.3236C18.2042 17.4236 18.1922 17.4816 18.0822 17.4096C17.8502 15.3036 17.6182 13.1956 17.3862 11.0896C17.3722 10.9696 17.3462 10.8516 17.3462 10.7316C17.3382 10.0376 17.0502 9.53359 16.3842 9.27759H19.9042Z" fill="#FEFEFE"/>
<path d="M26.7842 15.8477L26.7522 15.8497H26.7202C26.7162 14.1957 26.6842 12.5397 26.7202 10.8877C26.7362 10.1397 26.5182 9.5957 25.8262 9.2797C26.1442 9.2797 26.5802 9.1557 26.7462 9.3157C26.9062 9.4677 26.7842 9.9137 26.7842 10.2317V15.8477Z" fill="#F6FAF1"/>
<path d="M17.7322 17.9196C17.7362 17.9016 17.7402 17.8836 17.7442 17.8636C17.8782 17.8516 18.0102 17.8416 18.1442 17.8296C18.3102 17.8336 18.4662 17.7336 18.6362 17.7876C18.5802 17.8536 18.5142 17.9056 18.6762 17.9236C20.3962 18.1096 22.1142 18.3016 23.8342 18.4916C24.4022 18.5536 24.9742 18.5976 25.5402 18.6776C26.3342 18.7896 26.7042 19.2316 26.7062 20.0356C26.7082 21.7176 26.7082 23.3996 26.7062 25.0816C26.7042 25.9556 26.2442 26.4216 25.3802 26.4236C23.6882 26.4256 21.9942 26.4256 20.3022 26.4236C19.5602 26.4216 19.1042 26.0716 19.0062 25.3416C18.8302 24.0336 18.6962 22.7216 18.5482 21.4116C18.4342 20.4056 18.3282 19.3976 18.2182 18.3916C18.2102 18.3116 18.2102 18.2196 18.0822 18.2696C17.9102 18.2056 17.7942 18.0896 17.7322 17.9196Z" fill="#B7DA7C"/>
<path d="M11.8962 13.0597C11.8962 12.7537 11.8982 12.4457 11.8962 12.1397C11.8922 11.7817 12.0582 11.5917 12.4242 11.5917C13.0622 11.5917 13.7022 11.5937 14.3402 11.5917C14.6642 11.5897 14.8302 11.7557 14.8662 12.0677C14.9662 12.9277 15.0602 13.7877 15.1682 14.6457C15.1962 14.8677 15.1102 14.8857 14.9262 14.8637C14.0822 14.7597 13.2362 14.6617 12.3902 14.5697C12.0562 14.5317 11.8902 14.3617 11.8962 14.0197C11.9002 13.6997 11.8962 13.3797 11.8962 13.0597ZM24.3982 13.0997C24.3982 13.4057 24.3962 13.7117 24.3982 14.0177C24.4022 14.3537 24.2422 14.5317 23.9042 14.5697C23.0602 14.6617 22.2162 14.7617 21.3722 14.8637C21.1962 14.8857 21.1022 14.8717 21.1302 14.6437C21.2382 13.7857 21.3242 12.9257 21.4262 12.0677C21.4622 11.7617 21.6322 11.5917 21.9582 11.5937C22.5962 11.5977 23.2342 11.5937 23.8722 11.5937C24.2382 11.5937 24.4022 11.7857 24.3982 12.1417C24.3962 12.4617 24.3982 12.7817 24.3982 13.0997Z" fill="#FEFEFE"/>
<path d="M17.7321 17.9196C17.9801 17.9056 18.0881 18.0296 18.0801 18.2696C17.9021 19.9116 17.7261 21.5556 17.5481 23.1976C17.4801 23.8196 17.4001 24.4416 17.3441 25.0656C17.2601 26.0096 16.8221 26.4236 15.8781 26.4236C14.2261 26.4236 12.5741 26.4256 10.9221 26.4236C10.0641 26.4216 9.58809 25.9456 9.58609 25.0876C9.58409 23.4056 9.58409 21.7256 9.58609 20.0436C9.58609 19.2436 9.96409 18.7796 10.7481 18.6836C12.2661 18.4976 13.7901 18.3396 15.3101 18.1716C16.1161 18.0836 16.9241 18.0036 17.7321 17.9196Z" fill="#93C45E"/>
<path d="M13.3801 24.1136H12.4221C12.0821 24.1136 11.9001 23.9496 11.9001 23.6036C11.9001 22.9496 11.9001 22.2956 11.9021 21.6436C11.9021 21.3336 12.0781 21.1776 12.3641 21.1436C13.2221 21.0416 14.0821 20.9536 14.9401 20.8456C15.1701 20.8176 15.1821 20.9216 15.1621 21.0956C15.0621 21.9416 14.9641 22.7896 14.8661 23.6356C14.8301 23.9496 14.6621 24.1156 14.3401 24.1156C14.0201 24.1116 13.7001 24.1116 13.3801 24.1136Z" fill="#FEFEFE"/>
</g>
<defs>
<clipPath id="clip0_10_2954">
<rect width="18" height="18" fill="white" transform="translate(9.07812 8.93164)"/>
</clipPath>
</defs>
</svg>
