<svg width="36" height="36" viewBox="0 0 36 36" fill="none" xmlns="http://www.w3.org/2000/svg">
<mask id="path-1-inside-1_10_2414" fill="white">
<path d="M1.00871e-09 18C7.8474e-05 6.75 3.21436 8.78424e-06 18 0C32.7856 -8.78422e-06 36 5.94643 36 18C36 30.8571 30.5358 36 18 36C6.91071 36 -9.64087e-05 31.8214 1.00871e-09 18Z"/>
</mask>
<path d="M1.00871e-09 18C7.8474e-05 6.75 3.21436 8.78424e-06 18 0C32.7856 -8.78422e-06 36 5.94643 36 18C36 30.8571 30.5358 36 18 36C6.91071 36 -9.64087e-05 31.8214 1.00871e-09 18Z" fill="#232128"/>
<path d="M1.00871e-09 18L1 18L1.00871e-09 18ZM1.00871e-09 18L1 18C1.00004 12.4188 1.81003 8.23746 4.21467 5.43204C6.5888 2.66223 10.7301 1 18 1V0V-1C10.4842 -0.999996 5.6256 0.712782 2.69616 4.13046C-0.202768 7.51254 -0.99996 12.3312 -1 18L1.00871e-09 18ZM18 0V1C25.3037 0.999996 29.4342 2.47694 31.7961 5.14302C34.1841 7.83854 35 12.0002 35 18H36H37C37 11.9462 36.2087 7.10788 33.2931 3.81679C30.3514 0.496269 25.4819 -1 18 -1V0ZM36 18H35C35 24.3159 33.6537 28.4908 30.9987 31.1095C28.3409 33.7309 24.1622 35 18 35V36V37C24.3736 37 29.1949 35.6977 32.4031 32.5334C35.6142 29.3663 37 24.5413 37 18H36ZM18 36V35C12.5482 35 8.34866 33.9666 5.50644 31.4362C2.68833 28.9271 0.999953 24.7587 1 18L1.00871e-09 18L-1 18C-1.00005 25.0627 0.766929 29.8943 4.17652 32.9299C7.562 35.9441 12.3625 37 18 37V36Z" fill="white" fill-opacity="0.09" mask="url(#path-1-inside-1_10_2414)"/>
<g clip-path="url(#clip0_10_2414)">
<path d="M11.7195 21.5453C11.7211 20.1301 12.284 18.7733 13.2847 17.7725C14.2854 16.7718 15.6422 16.2089 17.0575 16.2073V19.41C16.4914 19.4106 15.9487 19.6358 15.5484 20.0361C15.1482 20.4363 14.923 20.979 14.9224 21.5451C14.9224 22.5942 15.4897 23.7229 16.7355 23.7229C16.8184 23.7229 18.7657 23.7038 18.7657 22.0475V9.9082H22.1786C22.1804 10.6736 22.4854 11.407 23.0269 11.948C23.5684 12.489 24.3021 12.7933 25.0675 12.7944L25.0646 15.9913C23.9749 15.9997 22.904 15.7075 21.9695 15.1469L21.9681 22.0475C21.9681 25.216 19.2719 26.9255 16.735 26.9255C13.8759 26.9262 11.7195 24.6129 11.7195 21.5453Z" fill="#FF4040"/>
<path d="M10.8655 20.6911C10.8671 19.2758 11.43 17.919 12.4307 16.9183C13.4314 15.9176 14.7882 15.3547 16.2035 15.3531V18.5557C15.6374 18.5564 15.0947 18.7815 14.6944 19.1818C14.2942 19.5821 14.069 20.1248 14.0684 20.6908C14.0684 21.74 14.6357 22.8686 15.8815 22.8686C15.9644 22.8686 17.9117 22.8495 17.9117 21.1933V9.05396H21.3246C21.3264 9.81933 21.6314 10.5528 22.1729 11.0938C22.7144 11.6347 23.4481 11.9391 24.2135 11.9402L24.2106 15.1371C23.1209 15.1454 22.0499 14.8532 21.1155 14.2926L21.1141 21.1933C21.1141 24.3617 18.4179 26.0713 15.881 26.0713C13.0219 26.072 10.8655 23.7586 10.8655 20.6911Z" fill="#00F5FF"/>
<path d="M16.2037 16.2715C12.757 16.7088 10.0308 21.1048 12.8592 25.0606C15.4721 27.1977 20.9688 25.9548 21.121 21.331L21.1172 14.2966C22.0573 14.8484 23.1281 15.1379 24.2181 15.1348V12.6613C23.5773 12.4448 23.0232 12.0276 22.6381 11.4715C22.0731 11.0998 21.6537 10.5443 21.451 9.89905H18.7672L18.7655 22.0826C18.763 23.7855 15.9232 24.3919 15.2024 22.7393C13.397 21.8762 13.8052 18.5959 16.2075 18.5602L16.2037 16.2715Z" fill="white"/>
</g>
<defs>
<clipPath id="clip0_10_2414">
<rect width="14.3333" height="18" fill="white" transform="translate(10.8333 9)"/>
</clipPath>
</defs>
</svg>
