<svg width="36" height="36" viewBox="0 0 36 36" fill="none" xmlns="http://www.w3.org/2000/svg">
<path d="M1.00871e-09 18C7.8474e-05 6.75 3.21436 8.78424e-06 18 0C32.7856 -8.78422e-06 36 5.94643 36 18C36 30.8571 30.5358 36 18 36C6.91071 36 -9.64087e-05 31.8214 1.00871e-09 18Z" fill="#2554E6"/>
<path d="M23.2258 21.1851C23.2891 19.7244 25.4161 19.64 25.4161 21.1148C25.2737 23.5758 24.0291 25.0312 22.5016 25.6342C22.5069 25.6359 22.5139 25.6359 22.5192 25.6377C22.1571 25.8451 21.6069 26.1035 21.0356 26.2037C14.7321 27.1107 12.1252 22.6054 11.7086 19.7033C11.3342 17.093 12.7124 15.14 12.7686 14.6865C12.4276 13.34 10.6135 14.7094 10.5784 14.4035C10.9932 11.9795 14.094 12.1553 14.8885 12.4945C19.675 7.68162 23.704 10.0125 23.4368 12.0709C24.6602 11.99 25.2122 12.542 25.1331 12.9902C24.8624 14.1293 23.7338 14.2594 22.9428 14.1205C22.3083 14.0097 21.9567 13.6933 21.9532 13.8375C21.9444 14.3297 23.1538 14.3666 23.0131 14.5441C22.5526 14.7463 20.6401 15.0539 20.4696 15.4635C20.0723 19.2357 17.1842 18.7453 17.4303 18.573C18.5729 17.6888 18.0403 16.483 17.1473 17.0894C12.7809 20.4574 15.3948 25.9295 19.7489 25.8627C17.2967 25.3652 15.2823 23.0484 16.7254 19.4888C16.8713 19.4097 16.8661 19.5592 16.8661 19.5592C16.3 21.9445 16.9364 23.4316 17.9911 24.1523C20.0178 24.4599 22.3733 22.7408 21.8776 20.1076C21.6913 18.6592 23.776 18.2109 24.0274 19.6646C24.045 19.8035 24.0573 19.9406 24.0661 20.0742C23.602 20.1726 23.1819 20.5488 23.1555 21.1851C23.1872 23.3965 21.417 24.6621 19.7067 24.6744C21.4399 24.6972 23.2592 23.4263 23.2258 21.1851ZM21.1059 13.2715C21.3625 13.2715 21.5928 13.1572 21.7493 12.9762C21.6491 13.0306 21.5383 13.0605 21.4241 13.0605C21.0532 13.0605 20.7526 12.7599 20.7526 12.389C20.7526 12.0181 21.0532 11.7176 21.4241 11.7176C21.4891 11.7176 21.5524 11.7281 21.6122 11.7439C21.4715 11.6385 21.2958 11.5752 21.1059 11.5752C20.6383 11.5752 20.2586 11.9549 20.2586 12.4224C20.2569 12.8918 20.6366 13.2715 21.1059 13.2715ZM21.5295 12.106C21.5313 12.0428 21.4979 11.983 21.4416 11.9513C21.3872 11.9197 21.3186 11.9197 21.2641 11.9513C21.2096 11.983 21.1762 12.0428 21.1762 12.106C21.178 12.2027 21.2571 12.2801 21.352 12.2801C21.4487 12.2801 21.5278 12.2027 21.5295 12.106Z" fill="white"/>
</svg>
