<svg width="36" height="36" viewBox="0 0 36 36" fill="none" xmlns="http://www.w3.org/2000/svg">
<mask id="path-1-inside-1_342_2249" fill="white">
<path d="M1.00871e-09 18C7.8474e-05 6.75 3.21436 8.78424e-06 18 0C32.7856 -8.78422e-06 36 5.94643 36 18C36 30.8571 30.5358 36 18 36C6.91071 36 -9.64087e-05 31.8214 1.00871e-09 18Z"/>
</mask>
<path d="M1.00871e-09 18C7.8474e-05 6.75 3.21436 8.78424e-06 18 0C32.7856 -8.78422e-06 36 5.94643 36 18C36 30.8571 30.5358 36 18 36C6.91071 36 -9.64087e-05 31.8214 1.00871e-09 18Z" fill="#4D6BFE"/>
<path d="M1.00871e-09 18L1 18L1.00871e-09 18ZM1.00871e-09 18L1 18C1.00004 12.4188 1.81003 8.23746 4.21467 5.43204C6.5888 2.66223 10.7301 1 18 1V0V-1C10.4842 -0.999996 5.6256 0.712782 2.69616 4.13046C-0.202768 7.51254 -0.99996 12.3312 -1 18L1.00871e-09 18ZM18 0V1C25.3037 0.999996 29.4342 2.47694 31.7961 5.14302C34.1841 7.83854 35 12.0002 35 18H36H37C37 11.9462 36.2087 7.10788 33.2931 3.81679C30.3514 0.496269 25.4819 -1 18 -1V0ZM36 18H35C35 24.3159 33.6537 28.4908 30.9987 31.1095C28.3409 33.7309 24.1622 35 18 35V36V37C24.3736 37 29.1949 35.6977 32.4031 32.5334C35.6142 29.3663 37 24.5413 37 18H36ZM18 36V35C12.5482 35 8.34866 33.9666 5.50644 31.4362C2.68833 28.9271 0.999953 24.7587 1 18L1.00871e-09 18L-1 18C-1.00005 25.0627 0.766929 29.8943 4.17652 32.9299C7.562 35.9441 12.3625 37 18 37V36Z" fill="black" fill-opacity="0.08" mask="url(#path-1-inside-1_342_2249)"/>
<path d="M28.5014 11.7791C28.2907 11.6737 28.1997 11.8746 28.0765 11.9767C28.0346 12.0096 27.9988 12.0525 27.9629 12.092C27.655 12.4279 27.2951 12.6486 26.8246 12.6222C26.137 12.5827 25.5499 12.8034 25.0312 13.3403C24.9208 12.6782 24.5544 12.283 23.9966 12.0294C23.7042 11.8977 23.4095 11.7659 23.2048 11.4793C23.0624 11.2751 23.0237 11.0479 22.9521 10.8239C22.9068 10.6889 22.8615 10.5506 22.7092 10.5275C22.5432 10.5011 22.4786 10.6428 22.4135 10.7613C22.1542 11.2455 22.0533 11.7791 22.0636 12.3192C22.0858 13.5346 22.5889 14.5029 23.5877 15.1913C23.7014 15.2703 23.7306 15.3494 23.6948 15.4647C23.6268 15.7018 23.5453 15.9324 23.4741 16.1695C23.4288 16.321 23.3609 16.354 23.2015 16.2881C22.6536 16.0542 22.1801 15.7084 21.7614 15.2901C21.0512 14.5886 20.4089 13.8145 19.6082 13.2085C19.4228 13.0687 19.2323 12.9358 19.0371 12.81C18.2199 11.9998 19.1442 11.3344 19.3583 11.2554C19.5818 11.173 19.4361 10.8898 18.7127 10.8931C17.9893 10.8964 17.3277 11.1434 16.4845 11.4728C16.3611 11.5222 16.2313 11.5584 16.0988 11.5881C15.333 11.4398 14.5384 11.4069 13.708 11.5024C12.1448 11.6803 10.896 12.4345 9.97795 13.7223C8.8754 15.2703 8.6156 17.0292 8.93385 18.8637C9.26734 20.7971 10.2344 22.3978 11.7199 23.6494C13.2605 24.9471 15.0345 25.5828 17.0585 25.4609C18.2878 25.3884 19.6563 25.2205 21.2002 23.8865C21.5897 24.0842 21.9985 24.1632 22.6762 24.2225C23.1987 24.2719 23.7014 24.1961 24.0904 24.1138C24.7002 23.9821 24.6577 23.4057 24.4375 23.3003C22.6503 22.4505 23.0426 22.7963 22.6861 22.5164C23.5943 21.4196 24.9628 20.28 25.4981 16.5878C25.5404 16.2947 25.5046 16.1102 25.4981 15.8731C25.4947 15.7282 25.5269 15.6722 25.6895 15.6557C26.137 15.603 26.5718 15.4778 26.9707 15.2539C28.1284 14.6083 28.5957 13.5478 28.7061 12.2764C28.7225 12.0821 28.7028 11.8812 28.5014 11.7791ZM18.4109 23.2212C16.6793 21.8313 15.839 21.3735 15.4919 21.3932C15.1675 21.413 15.226 21.7918 15.2972 22.0388C15.3717 22.2825 15.4693 22.4505 15.6055 22.6646C15.6994 22.8062 15.7645 23.017 15.5113 23.1751C14.9534 23.5275 13.9838 23.0565 13.9386 23.0335C12.8097 22.355 11.8656 21.4591 11.2007 20.2339C10.5585 19.0548 10.1859 17.79 10.1241 16.4396C10.1076 16.1135 10.2019 15.9982 10.5193 15.9389C10.9374 15.8575 11.3661 15.8464 11.7878 15.906C13.5557 16.1695 15.0609 16.9765 16.3223 18.2544C17.0424 18.9823 17.5871 19.8518 18.1487 20.7016C18.7452 21.604 19.3875 22.4637 20.2047 23.1685C20.4933 23.4155 20.7235 23.6033 20.9441 23.7416C20.2792 23.8174 19.1697 23.8338 18.4109 23.2212ZM19.2413 17.7702C19.2413 17.6253 19.355 17.51 19.4978 17.51C19.5302 17.5106 19.5593 17.5161 19.5851 17.5265C19.6343 17.5454 19.6765 17.5789 19.706 17.6224C19.7356 17.666 19.7512 17.7176 19.7506 17.7702C19.7511 17.8042 19.7448 17.8379 19.7321 17.8694C19.7194 17.9009 19.7007 17.9295 19.6768 17.9537C19.653 17.9779 19.6247 17.9972 19.5934 18.0103C19.5621 18.0235 19.5285 18.0303 19.4945 18.0304C19.4607 18.0303 19.4273 18.0235 19.3961 18.0103C19.365 17.9971 19.3368 17.9778 19.3132 17.9536C19.2896 17.9293 19.2711 17.9006 19.2588 17.8692C19.2464 17.8377 19.2405 17.804 19.2413 17.7702ZM21.8199 19.1206C21.6548 19.1898 21.4893 19.2491 21.3299 19.2557C21.0837 19.2689 20.8145 19.1668 20.6687 19.0416C20.4415 18.8472 20.2792 18.7386 20.2113 18.3993C20.1821 18.2544 20.1981 18.0304 20.2241 17.902C20.2825 17.6253 20.2175 17.4475 20.0265 17.2861C19.8708 17.1543 19.6728 17.1181 19.4554 17.1181C19.3743 17.1181 19.2998 17.0819 19.2446 17.0522C19.2178 17.0394 19.1939 17.0211 19.1744 16.9985C19.1549 16.976 19.1403 16.9497 19.1315 16.9212C19.1227 16.8928 19.1198 16.8628 19.1232 16.8332C19.1265 16.8036 19.1359 16.775 19.1508 16.7492C19.1734 16.7031 19.2837 16.5911 19.3097 16.5713C19.6049 16.4001 19.9453 16.4561 20.2599 16.5845C20.5518 16.7064 20.7721 16.9304 21.0903 17.2466C21.4147 17.6286 21.4732 17.734 21.6576 18.0206C21.8038 18.2445 21.9368 18.4751 22.0274 18.7386C22.0829 18.9033 22.0113 19.0383 21.8199 19.1206Z" fill="white"/>
</svg>
