<svg width="36" height="36" viewBox="0 0 36 36" fill="none" xmlns="http://www.w3.org/2000/svg">
<path d="M1.00871e-09 18C7.8474e-05 6.75 3.21436 8.78424e-06 18 0C32.7856 -8.78422e-06 36 5.94643 36 18C36 30.8571 30.5358 36 18 36C6.91071 36 -9.64087e-05 31.8214 1.00871e-09 18Z" fill="#1296DB"/>
<path d="M20.4053 23.8035L21.0768 23.6293L20.8224 23.7728C20.6697 23.8649 20.5681 24.0288 20.5681 24.213V24.4999L20.4053 23.8035Z" fill="#142C46"/>
<path d="M16.1539 9.82544L11.0769 26.1745H9L14.0592 9.82544H16.1539ZM18 9.82544V26.1745H16.1539V9.82544H18ZM25.1539 9.82544L20.0947 26.1745H18.0178L23.0769 9.82544H25.1539ZM27 9.82544V26.1745H25.1539V9.82544H27Z" fill="white"/>
</svg>
