<svg width="36" height="36" viewBox="0 0 36 36" fill="none" xmlns="http://www.w3.org/2000/svg">
<mask id="path-1-inside-1_10_2898" fill="white">
<path d="M1.00871e-09 18C7.8474e-05 6.75 3.21436 8.78424e-06 18 0C32.7856 -8.78422e-06 36 5.94643 36 18C36 30.8571 30.5358 36 18 36C6.91071 36 -9.64087e-05 31.8214 1.00871e-09 18Z"/>
</mask>
<path d="M1.00871e-09 18C7.8474e-05 6.75 3.21436 8.78424e-06 18 0C32.7856 -8.78422e-06 36 5.94643 36 18C36 30.8571 30.5358 36 18 36C6.91071 36 -9.64087e-05 31.8214 1.00871e-09 18Z" fill="white"/>
<path d="M1.00871e-09 18L1 18L1.00871e-09 18ZM1.00871e-09 18L1 18C1.00004 12.4188 1.81003 8.23746 4.21467 5.43204C6.5888 2.66223 10.7301 1 18 1V0V-1C10.4842 -0.999996 5.6256 0.712782 2.69616 4.13046C-0.202768 7.51254 -0.99996 12.3312 -1 18L1.00871e-09 18ZM18 0V1C25.3037 0.999996 29.4342 2.47694 31.7961 5.14302C34.1841 7.83854 35 12.0002 35 18H36H37C37 11.9462 36.2087 7.10788 33.2931 3.81679C30.3514 0.496269 25.4819 -1 18 -1V0ZM36 18H35C35 24.3159 33.6537 28.4908 30.9987 31.1095C28.3409 33.7309 24.1622 35 18 35V36V37C24.3736 37 29.1949 35.6977 32.4031 32.5334C35.6142 29.3663 37 24.5413 37 18H36ZM18 36V35C12.5482 35 8.34866 33.9666 5.50644 31.4362C2.68833 28.9271 0.999953 24.7587 1 18L1.00871e-09 18L-1 18C-1.00005 25.0627 0.766929 29.8943 4.17652 32.9299C7.562 35.9441 12.3625 37 18 37V36Z" fill="black" fill-opacity="0.08" mask="url(#path-1-inside-1_10_2898)"/>
<g clip-path="url(#clip0_10_2898)">
<path d="M23.5532 10.1338H12.0062C11.9291 10.1337 11.8544 10.1607 11.7952 10.21C11.736 10.2594 11.696 10.3279 11.6822 10.4038L9.00918 25.4878C9.00081 25.5352 9.00291 25.5838 9.01532 25.6303C9.02773 25.6768 9.05015 25.72 9.08102 25.7569C9.11189 25.7938 9.15045 25.8235 9.19401 25.8439C9.23757 25.8644 9.28506 25.875 9.33318 25.8752H15.7052L16.2092 25.7222H19.1702L19.5842 25.8752H24.4802C24.5573 25.8753 24.6319 25.8483 24.6912 25.7989C24.7504 25.7496 24.7904 25.681 24.8042 25.6052L27.0002 13.1938L23.5532 10.1338Z" fill="#0E73FF"/>
<path d="M23.3912 13.1851H27.0002L23.5442 10.1251L23.0672 12.7981C23.0402 13.0051 23.1932 13.1851 23.3912 13.1851Z" fill="#85B2F1"/>
<path d="M18.3782 10.7828L17.7302 14.4368L11.4302 14.4458L14.1662 17.3888H17.1992L15.6962 25.8578H19.5662L21.0692 17.3888H25.8122L18.3782 10.7828Z" fill="white"/>
</g>
<defs>
<clipPath id="clip0_10_2898">
<rect width="18" height="18" fill="white" transform="translate(9.00012 9.00012)"/>
</clipPath>
</defs>
</svg>
