<svg width="36" height="36" viewBox="0 0 36 36" fill="none" xmlns="http://www.w3.org/2000/svg">
<path d="M1.00871e-09 18C7.8474e-05 6.75 3.21436 8.78424e-06 18 0C32.7856 -8.78422e-06 36 5.94643 36 18C36 30.8571 30.5358 36 18 36C6.91071 36 -9.64087e-05 31.8214 1.00871e-09 18Z" fill="#E74E7F"/>
<g clip-path="url(#clip0_9_2149)">
<path d="M18 27C13.0376 27 9 22.9624 9 18C9 13.0376 13.0376 9 18 9C22.9629 9 27 13.0376 27 18C27 22.9624 22.9629 27 18 27ZM25.5904 19.2319C25.3271 19.1486 23.211 18.5175 20.8018 18.9034C21.8076 21.6664 22.2165 23.9169 22.2952 24.3844C24.0199 23.2183 25.2478 21.3711 25.5904 19.2319ZM21.0026 25.0881C20.8884 24.4136 20.4418 22.0629 19.3624 19.2583C19.3455 19.2639 19.3286 19.2696 19.3118 19.2752C14.976 20.7861 13.419 23.7932 13.2812 24.0756C14.5845 25.092 16.2225 25.6984 18 25.6984C19.0648 25.6984 20.0796 25.4807 21.0026 25.0875V25.0881ZM12.2889 23.1519C12.4633 22.8538 14.5727 19.3607 18.5377 18.0787C18.6379 18.0461 18.7391 18.0157 18.8409 17.9876C18.648 17.5511 18.4376 17.1135 18.2177 16.6832C14.3786 17.8324 10.6532 17.784 10.3168 17.7773C10.3146 17.8554 10.3129 17.9336 10.3129 18.0124C10.3129 19.9867 11.0616 21.7896 12.2889 23.1525V23.1519ZM10.4749 16.4374C10.8186 16.4419 13.986 16.4559 17.5815 15.5008C16.308 13.2368 14.9338 11.3327 14.7313 11.0548C12.5809 12.069 10.9732 14.0518 10.4749 16.4374ZM16.1983 10.5379C16.4109 10.8225 17.8071 12.7238 19.0665 15.0379C21.8003 14.0136 22.9573 12.4577 23.0957 12.2608C21.7384 11.0565 19.953 10.3236 18 10.3236C17.3796 10.3236 16.7766 10.3978 16.1983 10.5373V10.5379ZM23.9507 13.1501C23.7887 13.3695 22.5006 15.021 19.6582 16.1814C19.8371 16.5476 20.0087 16.92 20.1684 17.2946C20.2252 17.4274 20.2804 17.5596 20.3338 17.6912C22.8915 17.3694 25.4334 17.8852 25.6866 17.9387C25.6697 16.1241 25.0211 14.4579 23.9507 13.1501Z" fill="white"/>
</g>
<defs>
<clipPath id="clip0_9_2149">
<rect width="18" height="18" fill="white" transform="translate(9 9)"/>
</clipPath>
</defs>
</svg>
