<svg width="36" height="36" viewBox="0 0 36 36" fill="none" xmlns="http://www.w3.org/2000/svg">
<mask id="path-1-inside-1_11_3121" fill="white">
<path d="M1.00871e-09 18C7.8474e-05 6.75 3.21436 8.78424e-06 18 0C32.7856 -8.78422e-06 36 5.94643 36 18C36 30.8571 30.5358 36 18 36C6.91071 36 -9.64087e-05 31.8214 1.00871e-09 18Z"/>
</mask>
<path d="M1.00871e-09 18C7.8474e-05 6.75 3.21436 8.78424e-06 18 0C32.7856 -8.78422e-06 36 5.94643 36 18C36 30.8571 30.5358 36 18 36C6.91071 36 -9.64087e-05 31.8214 1.00871e-09 18Z" fill="#CC0000"/>
<path d="M1.00871e-09 18L1 18L1.00871e-09 18ZM1.00871e-09 18L1 18C1.00004 12.4188 1.81003 8.23746 4.21467 5.43204C6.5888 2.66223 10.7301 1 18 1V0V-1C10.4842 -0.999996 5.6256 0.712782 2.69616 4.13046C-0.202768 7.51254 -0.99996 12.3312 -1 18L1.00871e-09 18ZM18 0V1C25.3037 0.999996 29.4342 2.47694 31.7961 5.14302C34.1841 7.83854 35 12.0002 35 18H36H37C37 11.9462 36.2087 7.10788 33.2931 3.81679C30.3514 0.496269 25.4819 -1 18 -1V0ZM36 18H35C35 24.3159 33.6537 28.4908 30.9987 31.1095C28.3409 33.7309 24.1622 35 18 35V36V37C24.3736 37 29.1949 35.6977 32.4031 32.5334C35.6142 29.3663 37 24.5413 37 18H36ZM18 36V35C12.5482 35 8.34866 33.9666 5.50644 31.4362C2.68833 28.9271 0.999953 24.7587 1 18L1.00871e-09 18L-1 18C-1.00005 25.0627 0.766929 29.8943 4.17652 32.9299C7.562 35.9441 12.3625 37 18 37V36Z" fill="black" fill-opacity="0.08" mask="url(#path-1-inside-1_11_3121)"/>
<g clip-path="url(#clip0_11_3121)">
<path d="M16.3714 13.7773C15.6391 13.8294 15.0187 14.4454 15.0187 15.3139V19.4463C15.0187 19.5958 14.9079 19.7244 14.7461 19.7244H13.4555C10.6615 19.7277 10.9096 16.157 13.2882 16.1526H14.715V15.1145H13.2362C12.2889 15.1145 11.5864 15.468 11.1123 15.9953C10.6382 16.5227 10.4 17.2328 10.3989 17.9407C10.3978 18.6486 10.6326 19.3544 11.1179 19.8817C11.6031 20.4079 12.3366 20.7624 13.3413 20.7624H15.7754C15.936 20.7624 16.0689 20.6239 16.0689 20.4633V15.4236C16.0679 15.1644 16.2141 14.9628 16.4046 14.904C16.5952 14.8453 16.819 14.9196 16.9498 15.109L16.9553 15.1145C17.6476 16.2467 20.3962 20.6561 20.4007 20.6639C20.476 20.7714 20.5657 20.7902 20.6311 20.7692C20.6965 20.747 20.7629 20.6761 20.7618 20.5011V15.4236C20.7607 15.1644 20.9069 14.9628 21.0975 14.9039C21.2881 14.8453 21.5063 14.9196 21.6382 15.109V15.1145H21.6481C22.3405 16.2467 25.0892 20.6561 25.0936 20.6638C25.1678 20.7702 25.2553 20.7912 25.324 20.7691C25.3927 20.7469 25.4614 20.6804 25.4603 20.5065V13.804H24.4167V17.7158C24.4167 17.7158 23.7941 16.6523 22.7283 14.821C21.6836 13.0273 19.7127 13.7696 19.7127 15.314V17.7158C19.7127 17.7158 19.1011 16.6523 18.0342 14.821C17.5778 14.0365 16.9409 13.7363 16.3714 13.7772V13.7773ZM13.4189 13.804C7.61033 13.804 7.66692 22.0808 13.4976 22.0852H15.7787C16.7592 22.0852 17.3851 21.5047 17.384 20.4334V18.335C17.384 18.335 18.6647 20.4522 19.1677 21.2821C20.0207 22.6924 22.0836 22.4143 22.078 20.6527V18.3351C22.078 18.3351 23.3543 20.4522 23.8562 21.2821C24.7092 22.6924 26.7776 22.4143 26.7721 20.6527V13.8028H25.7284V20.5054C25.7296 20.7624 25.5945 20.953 25.4083 21.0139C25.2221 21.0749 25.0084 20.9984 24.8788 20.8145H24.8732V20.8045C24.8732 20.8045 22.1235 16.4074 21.4222 15.2607C21.42 15.2586 21.4188 15.2629 21.4166 15.2607C21.4155 15.2607 21.4178 15.2552 21.4166 15.2552C21.3446 15.1588 21.2515 15.1378 21.1751 15.161C21.0964 15.1854 21.0223 15.253 21.0233 15.4236V20.4998C21.0245 20.7558 20.8926 20.9573 20.7087 21.0195C20.5249 21.0815 20.3132 20.9995 20.1847 20.8145V20.809H20.1792C20.1792 20.809 17.4272 16.403 16.7281 15.2597C16.655 15.1555 16.5608 15.13 16.4822 15.1544C16.4036 15.1788 16.3293 15.2463 16.3304 15.417V20.4623C16.3304 20.7679 16.079 21.0239 15.7743 21.0239H13.3403C12.2723 21.0239 11.4624 20.6395 10.9274 20.0589C10.3922 19.4784 10.1285 18.7084 10.1296 17.9396C10.1307 17.1718 10.3944 16.3963 10.9162 15.8158C11.4381 15.2353 12.2213 14.8519 13.2339 14.8508H14.7129V13.8016H13.4178L13.4189 13.804Z" fill="white"/>
</g>
<defs>
<clipPath id="clip0_11_3121">
<rect width="18" height="18" fill="white" transform="translate(8.99988 8.99988)"/>
</clipPath>
</defs>
</svg>
