<svg width="36" height="36" viewBox="0 0 36 36" fill="none" xmlns="http://www.w3.org/2000/svg">
<path d="M1.00871e-09 18C7.8474e-05 6.75 3.21436 8.78424e-06 18 0C32.7856 -8.78422e-06 36 5.94643 36 18C36 30.8571 30.5358 36 18 36C6.91071 36 -9.64087e-05 31.8214 1.00871e-09 18Z" fill="#7982FF"/>
<path d="M20.4053 23.8035L21.0768 23.6293L20.8224 23.7728C20.6697 23.8649 20.5681 24.0288 20.5681 24.213V24.4999L20.4053 23.8035Z" fill="#142C46"/>
<path d="M26.9594 23.8362C26.9436 23.8218 26.9243 23.8117 26.9035 23.807C26.8826 23.8023 26.8609 23.803 26.8405 23.8092C25.8993 22.4193 24.7029 21.1008 23.5438 19.8279L23.3528 19.619C23.3517 19.5941 23.3421 19.5703 23.3258 19.5515C23.307 19.5276 23.28 19.5115 23.25 19.5065L23.2114 19.4659L23.1844 19.446C23.151 19.374 23.0655 19.32 22.971 19.3676C22.6167 19.5495 22.2979 19.8099 21.9835 20.0503C21.5631 20.3718 21.1523 20.7061 20.7659 21.0654C20.6054 21.209 20.4575 21.366 20.3236 21.5347C20.2606 21.6177 20.3082 21.6961 20.3847 21.7295C20.1102 21.9995 19.8344 22.2798 19.5579 22.5698C19.5456 22.583 19.5361 22.5986 19.5299 22.6156C19.5237 22.6326 19.521 22.6507 19.5219 22.6688C19.5232 22.6867 19.5282 22.7042 19.5368 22.7201C19.5453 22.7359 19.5571 22.7498 19.5714 22.7607L20.0568 23.131C20.0568 23.131 20.0587 23.1374 20.0632 23.14C20.7575 23.8247 21.9745 24.7748 23.2635 25.7809C23.4544 25.9314 23.6473 26.0818 23.8401 26.2322C23.9282 26.3377 24.0111 26.4431 24.0921 26.5472C24.1128 26.5741 24.1432 26.5918 24.1768 26.5964C24.2104 26.601 24.2444 26.5921 24.2715 26.5717C24.3004 26.5935 24.3294 26.6186 24.3589 26.6411C24.3858 26.6619 24.4199 26.6712 24.4536 26.667C24.4873 26.6628 24.518 26.6454 24.539 26.6186C24.5536 26.5983 24.5621 26.5742 24.5634 26.5492C24.5724 26.5492 24.5795 26.5556 24.5859 26.5556C24.6036 26.5557 24.6211 26.5521 24.6373 26.5452C24.6536 26.5382 24.6682 26.528 24.6804 26.5151L26.9665 24.0182C26.9779 24.0058 26.9867 23.9914 26.9924 23.9756C26.9982 23.9598 27.0007 23.943 26.9998 23.9263C26.999 23.9095 26.9948 23.8931 26.9875 23.8779C26.9803 23.8628 26.97 23.8493 26.9575 23.8382L26.9594 23.8362ZM20.3956 22.9716C20.411 22.9921 20.4271 23.0101 20.4425 23.0281C20.7035 23.248 20.9819 23.4859 21.2648 23.7289L20.1147 22.8507L19.9983 22.7697C19.9746 22.7525 19.9514 22.7345 19.9289 22.7157L19.8434 22.6437C19.8434 22.6437 19.8588 22.6283 19.8659 22.6193L19.9443 22.5402C20.33 22.15 20.9928 21.4987 21.3342 21.1799C20.9729 21.5437 20.2413 22.6103 20.3982 22.9716H20.3956ZM24.3319 26.0728L23.3843 25.3496C23.0054 24.9595 22.613 24.5828 22.2079 24.22C22.7196 24.6154 23.1574 24.9497 23.223 25.0082C23.7193 25.4511 23.6968 25.3701 24.0381 25.662L24.4489 25.9603C24.4084 25.9963 24.3679 26.0349 24.33 26.0709L24.3319 26.0728ZM24.5698 26.2547L24.5525 26.2419C24.5885 26.2123 24.6264 26.1853 24.6617 26.1557L24.5724 26.2547H24.5698ZM9.54125 11.5913L9.63126 12.0651C9.78555 12.8957 9.92955 13.644 10.2034 14.2124L10.3114 14.6431C10.3539 14.807 10.4143 15.0114 10.4709 15.0545C11.1105 15.6203 12.0922 16.4644 13.1407 17.2596C13.1635 17.2767 13.1914 17.2857 13.2199 17.2853C13.2484 17.2848 13.276 17.2749 13.2982 17.257C13.3002 17.2615 13.3047 17.2634 13.3072 17.266C13.3303 17.2875 13.3606 17.2994 13.3921 17.2995C13.41 17.2999 13.4278 17.2963 13.4441 17.2889C13.4605 17.2816 13.475 17.2707 13.4866 17.257C14.8296 15.7636 15.8286 14.5351 16.5403 13.5065C16.5842 13.4537 16.6075 13.3868 16.6058 13.3181C16.6508 13.2641 16.6978 13.2101 16.7408 13.1657C16.7538 13.1524 16.7636 13.1363 16.7695 13.1187C16.7755 13.1011 16.7775 13.0824 16.7753 13.064C16.7732 13.0455 16.767 13.0278 16.7571 13.012C16.7472 12.9963 16.734 12.9829 16.7183 12.9729C16.7157 12.9419 16.702 12.913 16.6798 12.8912C16.4231 12.6436 16.1642 12.3982 15.9032 12.1551C15.3112 11.6035 14.7293 11.0411 14.1578 10.4682L14.1423 10.4554C14.1286 10.4409 14.1117 10.4298 14.0928 10.4232C13.8434 10.3358 13.3317 10.2484 12.6875 10.1359C11.7393 9.9745 10.4419 9.75014 9.27382 9.4017H9.26482V9.39977C9.26482 9.39977 9.26032 9.39977 9.25839 9.40427H9.25582L9.26482 9.39977C9.26482 9.39977 9.19539 9.4017 9.18124 9.40877C9.16513 9.41687 9.1509 9.42826 9.13946 9.4422C9.12788 9.4557 9.11888 9.4692 9.03338 9.4872C8.94852 9.5052 9.05138 9.4872 9.05845 9.4872H9.03338V9.49363C9.04945 9.57077 9.04495 9.62413 9.06938 9.71221C9.06488 9.73407 9.11696 9.94107 9.12338 9.961L9.53483 11.5913H9.54125ZM16.4908 13.0597L16.4824 13.0712L16.3384 12.9118C16.3879 12.9587 16.4374 13.0063 16.4914 13.0597H16.4908ZM14.899 15.1683L14.8765 15.1953L14.872 15.1908C14.881 15.1844 14.89 15.1754 14.9009 15.169L14.899 15.1683ZM13.9893 10.6553C14.0684 10.7337 14.3802 11.0256 14.4522 11.0976C14.1263 10.9491 13.3156 10.5717 12.9389 10.4509C13.3092 10.5152 13.8209 10.5987 13.9893 10.6547V10.6553ZM9.68204 10.033C9.87105 10.3564 10.0196 11.4904 10.1674 12.5929C10.0838 12.2381 10.0131 11.8922 9.94498 11.5598C9.82862 10.9851 9.72062 10.4708 9.57018 10.015C9.60168 10.0169 9.63961 10.0214 9.68012 10.0259C9.68012 10.0285 9.68012 10.0304 9.68462 10.0324L9.68204 10.033ZM9.61776 9.76107C9.56568 9.75657 9.51875 9.75207 9.47825 9.75014C9.47375 9.74114 9.47182 9.73214 9.46925 9.72314L9.61711 9.76364L9.61776 9.76107ZM26.7556 9.59713C26.7646 9.5457 26.5087 9.31877 26.5891 9.31427C26.78 9.30527 26.782 9.01147 26.5891 9.01983C26.3358 9.03333 26.0793 9.09183 25.8324 9.1394C25.3882 9.22233 24.9452 9.31427 24.5029 9.4107C23.5161 9.61658 22.5351 9.8496 21.5611 10.1095C21.2558 10.1924 20.9189 10.2664 20.6386 10.4149C20.5441 10.4637 20.5486 10.5653 20.6 10.6277C20.5809 10.6388 20.5597 10.6458 20.5377 10.6482C20.4541 10.6637 20.3712 10.6772 20.2882 10.6907C20.2676 10.6941 20.2481 10.7025 20.2314 10.7152C20.2148 10.728 20.2016 10.7446 20.1929 10.7637C20.1843 10.7828 20.1805 10.8037 20.1819 10.8246C20.1832 10.8455 20.1897 10.8657 20.2008 10.8835C19.6801 11.5804 19.0867 12.33 18.4445 13.1182C17.7867 13.8731 17.1339 14.6323 16.4863 15.3959C14.3731 17.8793 11.9771 20.6951 9.32268 23.1747C9.29813 23.1977 9.28368 23.2295 9.28247 23.2631C9.28127 23.2967 9.29341 23.3294 9.31625 23.3541C9.32796 23.3669 9.34248 23.3768 9.35868 23.383C9.32324 23.4166 9.28723 23.4496 9.25067 23.482C9.23044 23.5009 9.21767 23.5265 9.21467 23.554L9.16324 23.6099C9.15184 23.6222 9.14295 23.6365 9.1371 23.6522C9.13125 23.6679 9.12855 23.6846 9.12915 23.7013C9.12974 23.718 9.13363 23.7344 9.14058 23.7496C9.14754 23.7649 9.15742 23.7786 9.16967 23.7899C9.19454 23.8127 9.22733 23.8247 9.26099 23.8235C9.29465 23.8223 9.32649 23.808 9.34968 23.7835L9.37668 23.7539C9.39428 23.7353 9.41551 23.7205 9.43906 23.7103C9.4626 23.7002 9.48797 23.6949 9.51361 23.6949C9.53925 23.6949 9.56462 23.7002 9.58817 23.7103C9.61171 23.7205 9.63294 23.7353 9.65054 23.7539L10.0883 24.2232L9.77848 23.9648C9.75247 23.9432 9.719 23.9327 9.68531 23.9356C9.65162 23.9385 9.62042 23.9545 9.59847 23.9802C9.57693 24.0063 9.56654 24.0398 9.56955 24.0735C9.57256 24.1072 9.58872 24.1384 9.61454 24.1602L12.9427 26.9516C12.9676 26.9717 12.999 26.9818 13.0309 26.9801C13.0628 26.9785 13.093 26.9651 13.1157 26.9426L13.1967 26.8616C13.2202 26.8721 13.2463 26.8751 13.2716 26.8703C13.2969 26.8655 13.3201 26.853 13.3381 26.8346C17.8492 22.303 21.4827 18.8784 25.6441 15.8176C25.662 15.8048 25.6762 15.7874 25.6852 15.7673C25.6942 15.7472 25.6978 15.7251 25.6955 15.7032C25.72 15.7005 25.7432 15.6908 25.7623 15.6753C25.7815 15.6598 25.7958 15.6391 25.8035 15.6158C26.5711 13.2667 26.7196 11.187 26.7646 10.1654C26.7648 10.16 26.7663 10.1547 26.7691 10.15C26.7736 10.1384 26.7755 10.1275 26.7781 10.1179L26.789 10.0761C26.8165 9.99754 26.8277 9.91424 26.8219 9.83124C26.8162 9.74824 26.7936 9.66728 26.7556 9.59328V9.59713ZM18.6888 13.2731C18.8906 13.0417 19.0906 12.8154 19.2886 12.5949C17.9951 14.2972 15.8524 16.9202 12.8193 20.0368C14.8849 17.7514 16.9665 15.3824 18.6888 13.2738V13.2731ZM11.3792 25.1323L11.3728 25.1258L11.4178 25.1348C11.4051 25.1325 11.392 25.1325 11.3792 25.1348V25.1323ZM12.9286 26.5742L12.9176 26.5652L12.9241 26.5588C12.9286 26.5588 12.9305 26.5627 12.9331 26.5627C12.9331 26.5672 12.9286 26.5691 12.9266 26.5742H12.9286ZM14.8058 24.9548L15.1156 24.6315C15.1186 24.6348 15.1208 24.6388 15.1221 24.643C15.0173 24.7459 14.9112 24.852 14.8039 24.9548H14.8058ZM15.3092 24.4585L15.5046 24.2297C15.5065 24.2277 15.5091 24.2232 15.5136 24.2207C16.2658 23.444 17.0276 22.6768 17.799 21.9192L17.8151 21.9057L18.4258 21.4383C17.3804 22.4391 16.3415 23.4468 15.3092 24.4611V24.4585ZM20.1706 11.9102C19.7527 12.4541 19.295 13.1587 18.9067 13.7231C17.6801 15.4988 13.7328 19.8485 13.6447 19.9314C13.0366 20.5203 11.2018 22.2805 10.0318 23.3836C10.0045 23.408 9.97896 23.4342 9.95527 23.4621C9.93883 23.4451 9.92594 23.425 9.91735 23.403C9.90876 23.3809 9.90464 23.3574 9.90524 23.3338C9.90584 23.3101 9.91114 23.2868 9.92083 23.2653C9.93053 23.2437 9.94442 23.2243 9.9617 23.2081C15.5354 17.9533 18.917 13.5765 20.2921 11.6704C20.2625 11.7443 20.2381 11.8247 20.1687 11.9147L20.1706 11.9102ZM23.8781 13.5045L23.8761 13.509C23.8761 13.5045 23.8716 13.4936 23.8781 13.5045ZM22.3512 14.4753C21.8434 14.1809 21.6055 13.7405 21.7424 13.2963L21.7855 13.1484C21.8035 13.1053 21.8241 13.0622 21.8485 13.0198C21.9809 12.7999 22.1828 12.6045 22.4142 12.4901C22.4252 12.4856 22.4367 12.4837 22.4477 12.4811C22.4359 12.4504 22.4327 12.417 22.4387 12.3847C22.4502 12.3146 22.4952 12.2541 22.5865 12.2541C22.7376 12.2541 23.2043 12.393 23.3818 12.546C23.4358 12.5884 23.4872 12.636 23.5348 12.6874C23.6023 12.7659 23.7006 12.8938 23.7501 12.9864C23.7797 12.9992 23.8016 13.1252 23.8356 13.1902C23.8671 13.2937 23.8806 13.3991 23.8761 13.5052C23.8761 13.509 23.8761 13.509 23.8781 13.5116C23.8716 13.527 23.8781 13.5952 23.8691 13.6016C23.8466 13.763 23.7881 13.9231 23.7006 14.0619C23.6916 14.0728 23.6852 14.0863 23.6762 14.0979C23.6762 14.0998 23.6717 14.1024 23.6698 14.1069C23.6043 14.205 23.522 14.2907 23.4268 14.3602C23.1439 14.5601 22.8141 14.6212 22.4837 14.5376C22.4399 14.5211 22.397 14.5025 22.3551 14.4817L22.3512 14.4753ZM26.0047 14.1088C25.8948 14.5691 25.7604 15.05 25.6003 15.5418C25.5939 15.5598 25.5939 15.5772 25.5939 15.5933C25.5719 15.5957 25.551 15.6041 25.5335 15.6177C24.5413 16.348 23.5691 17.1052 22.618 17.8883C23.4509 17.1346 24.2916 16.3897 25.14 15.6537C25.3898 15.4366 25.5571 15.1401 25.6138 14.8141L25.7398 14.0568L25.7463 14.0343C25.8028 13.8748 26.0471 13.9443 26.0092 14.1088H26.0047Z" fill="white"/>
</svg>
