<svg width="36" height="36" viewBox="0 0 36 36" fill="none" xmlns="http://www.w3.org/2000/svg">
<path d="M1.00871e-09 18C7.8474e-05 6.75 3.21436 8.78424e-06 18 0C32.7856 -8.78422e-06 36 5.94643 36 18C36 30.8571 30.5358 36 18 36C6.91071 36 -9.64087e-05 31.8214 1.00871e-09 18Z" fill="#2883EC"/>
<g clip-path="url(#clip0_10_2944)">
<path d="M19.7231 15.641L22.5525 12.0958C22.6449 11.98 22.7622 11.8865 22.8957 11.8222C23.0292 11.758 23.1754 11.7246 23.3235 11.7246H25.2328C26.2317 11.7246 27.0415 12.5344 27.0415 13.5333V22.2889C27.0415 23.2878 26.2317 24.0976 25.2328 24.0976H23.1861C23.0929 24.0976 23.0009 24.0778 22.9159 24.0395C22.831 24.0013 22.7552 23.9454 22.6935 23.8757L17.54 18.0499C17.4513 17.9503 17.4045 17.8203 17.4092 17.687C17.414 17.5536 17.4701 17.4273 17.5657 17.3343C17.6613 17.2413 17.7892 17.1887 17.9226 17.1876C18.056 17.1865 18.1846 17.2369 18.2818 17.3284L23.5586 22.2635C23.6043 22.3062 23.6645 22.33 23.727 22.33H24.7827C24.8472 22.33 24.9111 22.3173 24.9707 22.2927C25.0303 22.268 25.0845 22.2318 25.1301 22.1862C25.1757 22.1406 25.2119 22.0864 25.2366 22.0268C25.2613 21.9672 25.274 21.9033 25.2739 21.8388V14.0656C25.2739 13.9353 25.2221 13.8104 25.13 13.7183C25.0379 13.6262 24.913 13.5744 24.7827 13.5744H23.813C23.7743 13.5744 23.7367 13.5881 23.7071 13.613L20.455 16.3537C20.3576 16.4355 20.2332 16.4783 20.106 16.4736C19.9788 16.469 19.8579 16.4172 19.7667 16.3285C19.6755 16.2397 19.6205 16.1202 19.6125 15.9931C19.6044 15.8661 19.6438 15.7406 19.7231 15.641ZM16.4269 15.6948L13.5847 12.1365C13.4923 12.0208 13.375 11.9274 13.2415 11.8632C13.1081 11.799 12.9619 11.7657 12.8139 11.7657H10.8868C9.88792 11.7657 9.07812 12.5755 9.07812 13.5744V22.3711C9.07812 23.37 9.88792 24.1798 10.8868 24.1798H12.9319C13.0303 24.1798 13.1275 24.1577 13.2162 24.1151C13.305 24.0726 13.383 24.0107 13.4447 23.934L16.4111 20.2414C16.4958 20.1359 16.5379 20.0025 16.529 19.8675C16.5202 19.7325 16.4609 19.6057 16.363 19.5123C16.2651 19.4189 16.1358 19.3656 16.0005 19.363C15.8652 19.3605 15.7339 19.4088 15.6325 19.4984L12.4098 22.3445C12.3647 22.3844 12.3066 22.4063 12.2465 22.4064H11.3461C11.2154 22.4063 11.09 22.3543 10.9975 22.2619C10.9051 22.1694 10.8531 22.044 10.8531 21.9133V14.1147C10.8531 13.9839 10.905 13.8585 10.9975 13.7661C11.09 13.6736 11.2154 13.6217 11.3461 13.6217H12.3203C12.3591 13.6216 12.3966 13.6353 12.4263 13.6603L15.6926 16.4104C15.7904 16.4928 15.9153 16.5358 16.0431 16.5312C16.1709 16.5266 16.2924 16.4746 16.384 16.3853C16.4756 16.2961 16.5307 16.176 16.5386 16.0484C16.5466 15.9207 16.5068 15.7947 16.4269 15.6948Z" fill="white"/>
</g>
<defs>
<clipPath id="clip0_10_2944">
<rect width="18" height="18" fill="white" transform="translate(9.07812 8.93164)"/>
</clipPath>
</defs>
</svg>
