<svg width="36" height="36" viewBox="0 0 36 36" fill="none" xmlns="http://www.w3.org/2000/svg">
<path d="M1.00871e-09 18C7.8474e-05 6.75 3.21436 8.78424e-06 18 0C32.7856 -8.78422e-06 36 5.94643 36 18C36 30.8571 30.5358 36 18 36C6.91071 36 -9.64087e-05 31.8214 1.00871e-09 18Z" fill="#CD450F"/>
<g clip-path="url(#clip0_10_2620)">
<path d="M16.7369 17.7367C13.7861 17.8729 11.4105 19.4524 11.4105 21.4197C11.4105 23.3875 13.7963 24.8626 16.7369 24.7264C19.6881 24.5902 22.0739 22.7489 22.0739 20.7811C22.0739 18.8146 19.6881 17.6005 16.7369 17.7367ZM18.7463 22.6863C17.8463 23.8477 16.057 24.4233 14.32 23.4815C13.4932 23.0315 13.5247 22.1528 13.5247 22.1528C13.5247 22.1528 13.1794 19.3796 16.1515 19.0343C19.1231 18.689 19.6566 21.5249 18.7463 22.6863ZM16.7582 20.8237C16.5696 20.9595 16.5278 21.2213 16.6326 21.3886C16.7267 21.5555 16.9676 21.5768 17.1452 21.441C17.3338 21.2945 17.3959 21.0434 17.3018 20.876C17.2082 20.7087 16.9778 20.6666 16.7582 20.8237ZM15.3558 21.2107C14.8011 21.263 14.4034 21.7548 14.4034 22.2154C14.4034 22.6756 14.8538 23 15.3979 22.937C15.9523 22.8745 16.4023 22.4453 16.4023 21.9851C16.4023 21.5142 15.9944 21.1481 15.3558 21.2107ZM24.7109 22.0792C23.4971 24.6642 19.4893 25.9197 16.5176 25.6792C13.692 25.4591 10.0716 24.5178 9.6948 21.106C9.6948 21.106 9.49598 19.5571 10.992 17.5587C10.992 17.5587 13.1475 14.545 15.6589 13.6867C18.1703 12.8284 18.4633 14.2831 18.4633 15.1308C18.3274 15.8528 18.0763 16.2815 19.018 15.989C19.018 15.989 21.4877 14.8481 22.5026 15.8635C23.3188 16.6796 22.6388 17.8099 22.6388 17.8099C22.6388 17.8099 22.3042 18.1867 22.9948 18.3225C23.7168 18.4796 25.9247 19.4945 24.7109 22.0792ZM22.2731 14.9528C22.2098 14.9531 22.1471 14.9408 22.0886 14.9168C22.0301 14.8927 21.977 14.8573 21.9322 14.8125C21.8874 14.7678 21.852 14.7147 21.8278 14.6562C21.8037 14.5977 21.7914 14.535 21.7916 14.4717C21.7916 14.1993 22.0113 13.9796 22.2731 13.9796C22.2731 13.9796 25.2975 13.4249 24.9408 16.6796C24.9408 16.7005 24.9408 16.7111 24.931 16.732C24.9133 16.8446 24.8563 16.9474 24.7701 17.022C24.684 17.0967 24.5741 17.1384 24.4601 17.1398C24.1881 17.1398 23.9684 16.9197 23.9684 16.6583C23.968 16.6485 24.4495 14.4721 22.2731 14.9528ZM27.4003 17.5587C27.3168 18.113 27.0443 18.1552 26.7199 18.1552C26.3329 18.1552 26.0192 17.9146 26.0192 17.5166C26.0192 17.182 26.1554 16.8363 26.1554 16.8363C26.1971 16.6898 26.5215 15.8107 25.9353 14.4926C24.8573 12.6824 22.6916 12.6611 22.4298 12.7556C22.1684 12.8603 21.7916 12.9127 21.7916 12.9127C21.6987 12.9124 21.6068 12.8937 21.5212 12.8576C21.4356 12.8216 21.3579 12.769 21.2928 12.7028C21.2276 12.6367 21.1761 12.5582 21.1414 12.4721C21.1067 12.3859 21.0894 12.2937 21.0904 12.2009C21.0904 11.8765 21.3101 11.6044 21.603 11.521C21.603 11.521 21.6137 11.5103 21.6239 11.5103C21.6448 11.5103 21.666 11.489 21.6869 11.4784C21.9904 11.4162 23.068 11.2068 24.1148 11.458C25.977 11.8875 28.5514 13.6973 27.4003 17.5587Z" fill="white"/>
</g>
<defs>
<clipPath id="clip0_10_2620">
<rect width="18" height="18" fill="white" transform="translate(9.68567 9.36792)"/>
</clipPath>
</defs>
</svg>
