<svg width="36" height="36" viewBox="0 0 36 36" fill="none" xmlns="http://www.w3.org/2000/svg">
<path d="M1.00871e-09 18C7.8474e-05 6.75 3.21436 8.78424e-06 18 0C32.7856 -8.78422e-06 36 5.94643 36 18C36 30.8571 30.5358 36 18 36C6.91071 36 -9.64087e-05 31.8214 1.00871e-09 18Z" fill="#30CF79"/>
<path d="M22.9746 17.8232C22.9746 17.882 22.917 17.8818 22.8594 17.8818H17.917C18.245 18.5379 18.4316 19.2784 18.4316 20.0605C18.4316 22.7101 16.3035 24.8887 13.7158 24.8887L13.4746 24.8828C10.9969 24.7526 9 22.6273 9 20.0605C9.00007 17.4602 11.0497 15.3151 13.5723 15.2363V15.2324H24.585L22.9746 17.8232ZM13.7158 17.9414C12.5656 17.9414 11.5881 18.8828 11.5879 20.1191C11.5879 21.2968 12.5081 22.2979 13.7158 22.2979C14.9233 22.2978 15.8438 21.3556 15.8438 20.1191C15.786 18.8829 14.866 17.9416 13.7158 17.9414ZM25.3896 13.7021C25.3895 13.761 25.332 13.7607 25.2744 13.7607H16.4756L18.0869 11.1699C18.1443 11.1696 18.2014 11.1116 18.2588 11.1113H27L25.3896 13.7021Z" fill="white"/>
</svg>
