<svg width="36" height="36" viewBox="0 0 36 36" fill="none" xmlns="http://www.w3.org/2000/svg">
<path d="M1.00871e-09 18C7.8474e-05 6.75 3.21436 8.78424e-06 18 0C32.7856 -8.78422e-06 36 5.94643 36 18C36 30.8571 30.5358 36 18 36C6.91071 36 -9.64087e-05 31.8214 1.00871e-09 18Z" fill="#2554E6"/>
<g clip-path="url(#clip0_10_2860)">
<path d="M18 8C16.0222 8 14.0888 8.58649 12.4443 9.6853C10.7998 10.7841 9.51809 12.3459 8.76121 14.1732C8.00433 16.0004 7.8063 18.0111 8.19215 19.9509C8.578 21.8907 9.53041 23.6725 10.9289 25.0711C12.3275 26.4696 14.1093 27.422 16.0491 27.8079C17.9889 28.1937 19.9996 27.9957 21.8268 27.2388C23.6541 26.4819 25.2159 25.2002 26.3147 23.5557C27.4135 21.9112 28 19.9778 28 18C28 15.3478 26.9464 12.8043 25.0711 10.9289C23.1957 9.05357 20.6522 8 18 8ZM18 26C16.4178 26 14.871 25.5308 13.5554 24.6518C12.2398 23.7727 11.2145 22.5233 10.609 21.0615C10.0035 19.5997 9.84504 17.9911 10.1537 16.4393C10.4624 14.8874 11.2243 13.462 12.3432 12.3431C13.462 11.2243 14.8874 10.4624 16.4393 10.1537C17.9911 9.84504 19.5997 10.0035 21.0615 10.609C22.5233 11.2145 23.7727 12.2398 24.6518 13.5554C25.5308 14.871 26 16.4177 26 18C26 20.1217 25.1571 22.1566 23.6569 23.6569C22.1566 25.1571 20.1217 26 18 26Z" fill="white"/>
<path d="M18.7791 14.1842L21.749 17.1541C22.2204 17.6255 22.2204 18.0969 21.749 18.5683L18.7791 21.5382C18.3077 22.0096 17.8363 22.0096 17.3649 21.5382L14.3951 18.5683C13.9237 18.0969 13.9237 17.6255 14.3951 17.1541L17.3649 14.1842C17.8363 13.7128 18.3077 13.7128 18.7791 14.1842Z" fill="white"/>
</g>
<defs>
<clipPath id="clip0_10_2860">
<rect width="20" height="20" fill="white" transform="translate(8 8)"/>
</clipPath>
</defs>
</svg>
