<svg width="36" height="36" viewBox="0 0 36 36" fill="none" xmlns="http://www.w3.org/2000/svg">
<path d="M1.00871e-09 18C7.8474e-05 6.75 3.21436 8.78424e-06 18 0C32.7856 -8.78422e-06 36 5.94643 36 18C36 30.8571 30.5358 36 18 36C6.91071 36 -9.64087e-05 31.8214 1.00871e-09 18Z" fill="#F74F4F"/>
<path fill-rule="evenodd" clip-rule="evenodd" d="M25.9399 18.2669C25.9399 18.2669 26.5312 20.406 26.7309 22.4994C26.9362 24.6515 26.4333 27.6721 26.4282 27.7025C26.394 27.7048 18.7765 28.2164 13.7329 23.9437C15.242 23.9818 18.4307 23.8691 21.101 22.807C24.7706 21.3485 25.9399 18.2669 25.9399 18.2669ZM13.7329 23.9427C13.7046 23.9185 13.6752 23.8968 13.6469 23.8724C13.5201 23.7636 13.4393 23.6815 13.353 23.5892L13.7329 23.9427ZM13.353 23.5892L13.1508 23.4007C13.1502 23.3853 13.1508 23.3761 13.1508 23.3753C13.233 23.458 13.294 23.5262 13.353 23.5892ZM13.1508 23.3753C13.1508 23.3753 13.1397 23.3746 13.1215 23.3724L12.5835 22.8177C12.7648 23.0063 12.9925 23.217 13.1508 23.3753ZM15.9555 12.723C19.4898 9.20567 26.3621 10.0895 26.4272 10.098C26.4272 10.098 27.483 16.4109 23.5717 20.3031C19.6734 24.182 13.1174 23.178 13.0737 23.1712C13.0737 23.1712 12.4044 16.257 15.9555 12.723ZM8.82272 10.098C8.82272 10.098 11.5354 9.67034 13.5493 9.80308C16.0673 9.96944 18.0018 10.5878 18.0307 10.597C17.9871 10.6107 14.5753 11.6933 13.1508 15.9925C12.3293 18.4722 12.5453 21.3886 12.5835 22.807C12.5835 22.811 12.5844 22.8138 12.5844 22.8177C12.5299 22.7612 12.4778 22.7052 12.435 22.6546C8.11978 17.5844 8.82272 10.098 8.82272 10.098Z" fill="white"/>
</svg>
