<svg width="36" height="36" viewBox="0 0 36 36" fill="none" xmlns="http://www.w3.org/2000/svg">
<path d="M1.00871e-09 18C7.8474e-05 6.75 3.21436 8.78424e-06 18 0C32.7856 -8.78422e-06 36 5.94643 36 18C36 30.8571 30.5358 36 18 36C6.91071 36 -9.64087e-05 31.8214 1.00871e-09 18Z" fill="#3245DF"/>
<g clip-path="url(#clip0_9_2119)">
<path d="M12.2463 18.4704C14.2006 18.0507 13.9344 15.7152 13.8759 15.2048C13.7802 14.4178 12.8546 13.0423 11.5976 13.1511C10.016 13.293 9.78489 15.5778 9.78489 15.5778C9.57097 16.6339 10.297 18.8904 12.2463 18.4704ZM14.3217 22.5327C14.2644 22.6967 14.1368 23.1168 14.2473 23.4825C14.4653 24.3029 15.1774 24.3398 15.1774 24.3398H16.2007V21.8382H15.105C14.6125 21.985 14.3749 22.3683 14.3217 22.5327ZM15.8735 14.554C16.9529 14.554 17.8253 13.3119 17.8253 11.776C17.8253 10.2418 16.9529 9 15.8735 9C14.7957 9 13.9213 10.2418 13.9213 11.776C13.9213 13.3119 14.7962 14.554 15.8735 14.554ZM20.5224 14.7377C21.965 14.925 22.8926 13.3855 23.0771 12.2186C23.2653 11.0533 22.3343 9.69983 21.313 9.4671C20.2897 9.23232 19.0119 10.8717 18.8953 11.9404C18.7563 13.2468 19.0822 14.5524 20.5224 14.7377ZM24.0571 21.5969C24.0571 21.5969 21.8251 19.87 20.522 18.0037C18.7558 15.2518 16.2469 16.3717 15.4076 17.7714C14.572 19.1706 13.2697 20.0557 13.0848 20.2901C12.8971 20.5208 10.3886 21.875 10.9457 24.3483C11.5023 26.82 13.4583 26.773 13.4583 26.773C13.4583 26.773 14.8996 26.9149 16.5717 26.5407C18.2446 26.1697 19.6847 26.6331 19.6847 26.6331C19.6847 26.6331 23.5921 27.9416 24.6612 25.4228C25.7292 22.9033 24.0571 21.5969 24.0571 21.5969ZM17.3717 25.3455H14.8313C13.7343 25.1267 13.2975 24.3782 13.2423 24.2506C13.1883 24.1209 12.8766 23.5193 13.0415 22.4955C13.5155 20.9617 14.8673 20.8517 14.8673 20.8517H16.2195V19.1894L17.3713 19.207V25.3455H17.3717ZM22.1028 25.3279H19.1796C18.0466 25.0359 17.9938 24.231 17.9938 24.231V20.9985L19.1796 20.9793V23.8845C19.252 24.1946 19.6369 24.2506 19.6369 24.2506H20.8414V20.9985H22.1028V25.3279ZM26.2408 16.6973C26.2408 16.139 25.777 14.4579 24.0571 14.4579C22.3343 14.4579 22.1041 16.0445 22.1041 17.166C22.1041 18.2364 22.1944 19.7305 24.3344 19.6831C26.4752 19.6357 26.2408 17.2585 26.2408 16.6973Z" fill="white"/>
</g>
<defs>
<clipPath id="clip0_9_2119">
<rect width="18" height="18" fill="white" transform="translate(9 9)"/>
</clipPath>
</defs>
</svg>
