<svg width="36" height="36" viewBox="0 0 36 36" fill="none" xmlns="http://www.w3.org/2000/svg">
<path d="M1.00871e-09 18C7.8474e-05 6.75 3.21436 8.78424e-06 18 0C32.7856 -8.78422e-06 36 5.94643 36 18C36 30.8571 30.5358 36 18 36C6.91071 36 -9.64087e-05 31.8214 1.00871e-09 18Z" fill="url(#paint0_linear_1_105)"/>
<path d="M27.8334 16.2298C27.8314 16.3777 27.7951 16.5231 27.7274 16.6546C27.7143 16.6839 27.6962 16.7107 27.6739 16.7338C27.5947 16.8264 27.5022 16.9066 27.4219 16.9992C27.2368 17.172 27.0517 17.3314 26.8521 17.5032C26.7042 17.6257 26.5536 17.7451 26.4006 17.8612C25.7248 18.3785 25.0089 18.8424 24.2797 19.294C22.9963 20.087 21.6777 20.8214 20.3279 21.4951C18.4874 22.4308 16.592 23.2544 14.6522 23.9616C13.8705 24.2393 13.0878 24.5047 12.2917 24.7176C12.0139 24.7968 11.7352 24.8503 11.4565 24.9028C11.297 24.9295 11.1376 24.9696 10.9792 24.9953C10.9257 24.9953 10.8722 25.0221 10.8198 25.0221C10.6844 25.0426 10.5461 25.0278 10.4182 24.9791C10.2902 24.9305 10.177 24.8496 10.0895 24.7444C9.82514 24.4522 9.74594 24.0408 9.94446 23.6829C10.0003 23.5875 10.0719 23.5022 10.1563 23.4309C10.5019 23.1254 10.8331 22.8076 11.151 22.4764C11.7504 21.8492 12.2757 21.1552 12.7165 20.4079C13.2462 19.4925 13.6319 18.5112 13.8294 17.4765C13.9096 17.0928 13.9497 16.7081 13.9888 16.3234C14.0242 15.9 14.0332 15.4747 14.0155 15.0501C14.0155 14.6921 13.9754 14.3476 13.9487 14.003C13.8294 12.8098 13.565 11.6424 13.2194 10.5017C13.1269 10.1962 13.0209 9.87842 12.9283 9.57396C12.8882 9.45362 12.8749 9.3343 12.9283 9.22836C12.9942 9.02984 13.1269 8.89716 13.3264 8.85807C13.422 8.83518 13.522 8.83911 13.6154 8.86941C13.7089 8.89972 13.7922 8.95524 13.8561 9.02984C13.8962 9.06996 13.923 9.12242 13.9487 9.16253C14.4002 9.8383 14.8641 10.4894 15.3815 11.0983C15.9589 11.7992 16.5933 12.4511 17.2782 13.0474C17.9807 13.644 18.7233 14.1614 19.5451 14.5728C20.3269 14.9575 21.1497 15.2486 21.9983 15.408C22.3562 15.4749 22.7142 15.5273 23.0855 15.5674C23.643 15.6199 24.1994 15.6199 24.7435 15.5942C25.155 15.5808 25.5664 15.5407 25.9768 15.4749L26.7585 15.3556C27.3037 15.2486 27.7542 15.6199 27.8334 16.1506V16.27V16.2309V16.2298ZM24.2797 20.447C24.2797 20.447 24.2395 20.5005 24.2262 20.5396C23.8301 21.1424 23.4844 21.7767 23.1925 22.4362C22.9517 22.9812 22.7693 23.5501 22.6483 24.1334C22.5802 24.4486 22.5314 24.7677 22.5023 25.0889C22.4779 25.3935 22.4735 25.6993 22.4889 26.0044C22.4889 26.1895 22.5157 26.3746 22.5424 26.5598C22.5424 26.6668 22.5691 26.7727 22.5424 26.8653C22.4231 27.3559 21.879 27.5287 21.4809 27.2633C21.4398 27.2398 21.4038 27.2083 21.375 27.1708C20.5665 26.3345 19.5986 25.738 18.5104 25.3276C17.9519 25.1162 17.3752 24.9564 16.7875 24.8503C16.48 24.7927 16.1701 24.7481 15.8587 24.7166L15.5008 24.6775C15.5008 24.6508 15.5008 24.6508 15.5275 24.6374C15.7929 24.5582 16.0706 24.4913 16.336 24.4121C18.4522 23.789 20.4765 22.8884 22.3562 21.7337C22.9827 21.3469 23.5935 20.9351 24.1871 20.4994C24.2128 20.4737 24.2395 20.4604 24.2663 20.4336L24.2797 20.447Z" fill="white"/>
<defs>
<linearGradient id="paint0_linear_1_105" x1="18" y1="0" x2="18" y2="36" gradientUnits="userSpaceOnUse">
<stop stop-color="#00AFFE"/>
<stop offset="1" stop-color="#006AF0"/>
</linearGradient>
</defs>
</svg>
