<svg width="36" height="36" viewBox="0 0 36 36" fill="none" xmlns="http://www.w3.org/2000/svg">
<path d="M1.00871e-09 18C7.8474e-05 6.75 3.21436 8.78424e-06 18 0C32.7856 -8.78422e-06 36 5.94643 36 18C36 30.8571 30.5358 36 18 36C6.91071 36 -9.64087e-05 31.8214 1.00871e-09 18Z" fill="#0086FF"/>
<g clip-path="url(#clip0_2_203)">
<path d="M16.6783 18.6348H8C8.00029 19.1494 8.10208 19.6589 8.29955 20.1341C8.49701 20.6094 8.78626 21.041 9.15074 21.4043C9.51523 21.7676 9.94779 22.0554 10.4237 22.2513C10.8995 22.4472 11.4094 22.5474 11.924 22.546H13.5215V24.0887C13.5215 25.1258 13.9334 26.1204 14.6665 26.8539C15.3997 27.5873 16.3942 27.9996 17.4312 28V19.3885C17.4312 19.1886 17.3518 18.9969 17.2105 18.8555C17.0691 18.7142 16.8774 18.6348 16.6775 18.6348H16.6783ZM20.9705 14.3177H12.302C12.3022 15.3549 12.7144 16.3496 13.4478 17.0829C14.1813 17.8163 15.1761 18.2283 16.2133 18.2283H17.81V19.7717C17.8108 20.8088 18.2232 21.8031 18.9565 22.5363C19.6899 23.2695 20.6842 23.6817 21.7213 23.6823V15.0685C21.7213 14.9699 21.7018 14.8723 21.6641 14.7812C21.6264 14.6901 21.5711 14.6074 21.5014 14.5376C21.4316 14.4679 21.3489 14.4126 21.2578 14.3749C21.1667 14.3372 21.0691 14.3177 20.9705 14.3177ZM25.2598 10H16.5913C16.5913 11.0373 17.0033 12.0322 17.7368 12.7657C18.4703 13.4992 19.4652 13.9113 20.5025 13.9113H22.0992V15.454C22.1 16.489 22.511 17.4815 23.2422 18.214C23.9733 18.9466 24.965 19.3595 26 19.3622V10.7538C26.0008 10.5559 25.9235 10.3658 25.7849 10.2246C25.6463 10.0835 25.4576 10.0028 25.2598 10Z" fill="white"/>
</g>
<defs>
<clipPath id="clip0_2_203">
<rect width="18" height="18" fill="white" transform="translate(8 10)"/>
</clipPath>
</defs>
</svg>
