<svg width="36" height="36" viewBox="0 0 36 36" fill="none" xmlns="http://www.w3.org/2000/svg">
<mask id="path-1-inside-1_10_3061" fill="white">
<path d="M1.00871e-09 18C7.8474e-05 6.75 3.21436 8.78424e-06 18 0C32.7856 -8.78422e-06 36 5.94643 36 18C36 30.8571 30.5358 36 18 36C6.91071 36 -9.64087e-05 31.8214 1.00871e-09 18Z"/>
</mask>
<path d="M1.00871e-09 18C7.8474e-05 6.75 3.21436 8.78424e-06 18 0C32.7856 -8.78422e-06 36 5.94643 36 18C36 30.8571 30.5358 36 18 36C6.91071 36 -9.64087e-05 31.8214 1.00871e-09 18Z" fill="white"/>
<path d="M1.00871e-09 18L1 18L1.00871e-09 18ZM1.00871e-09 18L1 18C1.00004 12.4188 1.81003 8.23746 4.21467 5.43204C6.5888 2.66223 10.7301 1 18 1V0V-1C10.4842 -0.999996 5.6256 0.712782 2.69616 4.13046C-0.202768 7.51254 -0.99996 12.3312 -1 18L1.00871e-09 18ZM18 0V1C25.3037 0.999996 29.4342 2.47694 31.7961 5.14302C34.1841 7.83854 35 12.0002 35 18H36H37C37 11.9462 36.2087 7.10788 33.2931 3.81679C30.3514 0.496269 25.4819 -1 18 -1V0ZM36 18H35C35 24.3159 33.6537 28.4908 30.9987 31.1095C28.3409 33.7309 24.1622 35 18 35V36V37C24.3736 37 29.1949 35.6977 32.4031 32.5334C35.6142 29.3663 37 24.5413 37 18H36ZM18 36V35C12.5482 35 8.34866 33.9666 5.50644 31.4362C2.68833 28.9271 0.999953 24.7587 1 18L1.00871e-09 18L-1 18C-1.00005 25.0627 0.766929 29.8943 4.17652 32.9299C7.562 35.9441 12.3625 37 18 37V36Z" fill="black" fill-opacity="0.08" mask="url(#path-1-inside-1_10_3061)"/>
<path d="M11.2263 13.2053C11.2263 13.2802 11.2001 13.3363 11.1477 13.3737C11.1028 13.4112 11.0467 13.4299 10.9793 13.4299C10.9044 13.4299 10.8258 13.4261 10.7435 13.4186C10.6611 13.4112 10.5788 13.4074 10.4964 13.4074C10.3841 13.4074 10.3055 13.4486 10.2606 13.5309C10.2157 13.6058 10.1895 13.6956 10.182 13.8004C10.1745 13.8977 10.1708 13.9876 10.1708 14.0699V19.8866C10.1708 20.463 10.0922 20.9907 9.93498 21.4698C9.77778 21.9489 9.50828 22.327 9.12649 22.604C8.74471 22.8884 8.21694 23.0307 7.5432 23.0307C7.37851 23.0307 7.21382 23.0269 7.04913 23.0194C6.88443 23.012 6.72348 22.9932 6.56628 22.9633C6.4465 22.9334 6.30801 22.8847 6.1508 22.8173C5.9936 22.75 5.85885 22.6639 5.74656 22.5591C5.63427 22.4543 5.57812 22.3307 5.57812 22.1885C5.57812 21.9639 5.67544 21.7992 5.87008 21.6944C6.06472 21.5971 6.25935 21.5484 6.45399 21.5484C6.62617 21.5484 6.79834 21.5896 6.97052 21.672C7.1427 21.7543 7.22879 21.8928 7.22879 22.0874C7.1689 22.1174 7.10527 22.1586 7.0379 22.211C6.97052 22.2708 6.93684 22.3382 6.93684 22.4131C6.93684 22.4954 6.97427 22.5516 7.04913 22.5815C7.12399 22.6189 7.20633 22.6377 7.29616 22.6377C7.39348 22.6451 7.46834 22.6489 7.52074 22.6489C7.76778 22.6489 7.95868 22.589 8.09342 22.4692C8.22817 22.3569 8.32175 22.2072 8.37415 22.0201C8.43404 21.8404 8.46772 21.6495 8.47521 21.4474C8.4827 21.2453 8.48644 21.0544 8.48644 20.8747V14.1148C8.48644 14.055 8.4827 13.9726 8.47521 13.8678C8.47521 13.7555 8.46024 13.6545 8.43029 13.5646C8.40035 13.4673 8.34421 13.4149 8.26186 13.4074C8.22443 13.3999 8.18326 13.3962 8.13834 13.3962C8.10091 13.3962 8.06348 13.3962 8.02605 13.3962C7.9437 13.3962 7.85761 13.4037 7.76778 13.4186C7.68544 13.4261 7.60309 13.4299 7.52074 13.4299C7.37851 13.4299 7.30739 13.3588 7.30739 13.2165C7.30739 13.1566 7.32611 13.1005 7.36354 13.0481C7.40845 12.9957 7.46086 12.9695 7.52074 12.9695C7.61058 12.9695 7.70041 12.9732 7.79024 12.9807C7.88756 12.9882 7.98113 12.9957 8.07097 13.0032C8.20571 13.0107 8.34046 13.0144 8.47521 13.0144C8.60996 13.0144 8.74096 13.0144 8.86823 13.0144C9.22007 13.0144 9.57191 13.0069 9.92375 12.9919C10.2756 12.977 10.6274 12.9695 10.9793 12.9695C11.144 12.9695 11.2263 13.0481 11.2263 13.2053Z" fill="black"/>
<path d="M16.3024 19.6058C16.3024 19.9502 16.2276 20.2309 16.0779 20.448C15.9356 20.6651 15.741 20.8335 15.494 20.9533C15.2544 21.0731 14.9887 21.1554 14.6967 21.2003C14.4047 21.2453 14.1128 21.2677 13.8208 21.2677C13.6412 21.2677 13.454 21.249 13.2594 21.2116C13.0722 21.1667 12.8926 21.1255 12.7204 21.0881C12.638 21.0731 12.552 21.0581 12.4621 21.0431C12.3798 21.0207 12.2974 21.0057 12.2151 20.9982C12.1926 20.871 12.1515 20.695 12.0916 20.4705C12.0392 20.2384 11.983 20.0213 11.9231 19.8192C11.8857 19.6695 11.867 19.5647 11.867 19.5048C11.867 19.4224 11.8932 19.37 11.9456 19.3476C11.998 19.3176 12.0616 19.3026 12.1365 19.3026C12.1964 19.3026 12.245 19.3101 12.2825 19.3251C12.3199 19.3326 12.3498 19.3625 12.3723 19.4149C12.4621 19.6021 12.5445 19.7743 12.6193 19.9315C12.7017 20.0812 12.8102 20.2309 12.945 20.3806C13.0123 20.448 13.1022 20.5191 13.2145 20.594C13.3268 20.6688 13.4465 20.7362 13.5738 20.7961C13.7011 20.8485 13.8133 20.8747 13.9107 20.8747C14.2401 20.8747 14.4796 20.7961 14.6293 20.6389C14.7865 20.4742 14.8651 20.2309 14.8651 19.909C14.8651 19.6844 14.7903 19.4935 14.6406 19.3363C14.4983 19.1791 14.3187 19.0369 14.1016 18.9096C13.892 18.7824 13.6636 18.6588 13.4166 18.5391C13.1696 18.4118 12.9375 18.2733 12.7204 18.1236C12.5108 17.9739 12.3349 17.7942 12.1926 17.5846C12.0579 17.3675 11.9905 17.1092 11.9905 16.8098C11.9905 16.428 12.0991 16.1173 12.3161 15.8778C12.5332 15.6382 12.8065 15.4623 13.1359 15.35C13.4652 15.2377 13.8021 15.1816 14.1465 15.1816C14.2962 15.1816 14.4497 15.1928 14.6069 15.2153C14.7641 15.2377 14.9138 15.2789 15.056 15.3388C15.1159 15.3613 15.1983 15.3837 15.3031 15.4062C15.4079 15.4286 15.4865 15.4399 15.5389 15.4399C15.5988 15.4399 15.6549 15.4399 15.7073 15.4399C15.7672 15.4399 15.8233 15.4249 15.8757 15.3949C15.8907 15.5447 15.9057 15.7168 15.9207 15.9115C15.9431 16.0986 15.9618 16.2746 15.9768 16.4392C15.9993 16.5965 16.0105 16.7087 16.0105 16.7761C16.0105 16.851 15.9843 16.9146 15.9319 16.967C15.887 17.0194 15.8233 17.0456 15.741 17.0456C15.5988 17.0456 15.5014 16.9857 15.449 16.8659C15.4041 16.7387 15.348 16.5777 15.2806 16.3831C15.2057 16.181 15.0935 15.9938 14.9437 15.8217C14.794 15.642 14.5357 15.5522 14.1689 15.5522C13.9818 15.5522 13.8246 15.6083 13.6973 15.7206C13.5701 15.8329 13.4727 15.9676 13.4054 16.1248C13.338 16.2746 13.3043 16.4205 13.3043 16.5628C13.3043 16.7724 13.3754 16.9558 13.5177 17.113C13.6674 17.2702 13.8246 17.3937 13.9893 17.4835C14.1914 17.5883 14.4235 17.7081 14.6855 17.8429C14.9475 17.9701 15.1945 18.1086 15.4266 18.2583C15.6886 18.423 15.8982 18.6177 16.0554 18.8423C16.2201 19.0668 16.3024 19.3214 16.3024 19.6058Z" fill="black"/>
<path d="M21.4261 18.2583C21.4261 18.0263 21.4111 17.753 21.3812 17.4386C21.3513 17.1242 21.2876 16.821 21.1903 16.5291C21.1005 16.2296 20.9582 15.9826 20.7636 15.788C20.5765 15.5858 20.3182 15.4848 19.9888 15.4848C19.6894 15.4848 19.4498 15.5821 19.2702 15.7767C19.0905 15.9714 18.952 16.2147 18.8547 16.5066C18.7648 16.7986 18.7012 17.0943 18.6638 17.3937C18.6338 17.6932 18.6189 17.9514 18.6189 18.1685C18.6189 18.4006 18.6338 18.6738 18.6638 18.9882C18.6937 19.3026 18.7574 19.6096 18.8547 19.909C18.952 20.201 19.098 20.4443 19.2926 20.6389C19.4872 20.8335 19.7493 20.9309 20.0786 20.9309C20.3931 20.9309 20.6401 20.8373 20.8198 20.6501C20.9994 20.4555 21.1304 20.2159 21.2128 19.9315C21.3026 19.6395 21.3587 19.3438 21.3812 19.0444C21.4111 18.7375 21.4261 18.4754 21.4261 18.2583ZM23.0543 18.3145C23.0543 18.8834 22.9233 19.3925 22.6613 19.8416C22.3993 20.2833 22.04 20.6352 21.5833 20.8972C21.1342 21.1517 20.6139 21.279 20.0225 21.279C19.4311 21.279 18.9108 21.1442 18.4617 20.8747C18.02 20.6052 17.6756 20.2421 17.4286 19.7855C17.1816 19.3214 17.058 18.8086 17.058 18.2471C17.058 17.6632 17.1816 17.1392 17.4286 16.6751C17.6756 16.2034 18.0237 15.8291 18.4729 15.5522C18.9221 15.2752 19.4536 15.1367 20.0674 15.1367C20.7412 15.1367 21.2989 15.2714 21.7405 15.5409C22.1822 15.8104 22.5116 16.1847 22.7287 16.6638C22.9458 17.1429 23.0543 17.6932 23.0543 18.3145Z" fill="black"/>
<path d="M30.4219 21.0656C30.4219 21.1929 30.3508 21.2565 30.2085 21.2565C29.9914 21.2565 29.7706 21.249 29.546 21.234C29.3214 21.2265 29.1006 21.2228 28.8835 21.2228C28.6739 21.2228 28.4568 21.2265 28.2322 21.234C28.0151 21.249 27.798 21.2565 27.5809 21.2565C27.5285 21.2565 27.4836 21.2378 27.4462 21.2003C27.4162 21.1554 27.4013 21.1105 27.4013 21.0656C27.4013 20.9309 27.4724 20.8635 27.6146 20.8635C27.682 20.8635 27.7494 20.8672 27.8167 20.8747C27.8841 20.8822 27.9515 20.8859 28.0189 20.8859C28.1087 20.8859 28.1536 20.841 28.1536 20.7512V16.9782C28.1536 16.7911 28.1386 16.5927 28.1087 16.3831C28.0788 16.166 28.0076 15.9826 27.8953 15.8329C27.7831 15.6757 27.5997 15.5971 27.3451 15.5971C27.1879 15.5971 27.0232 15.657 26.851 15.7767C26.6789 15.8965 26.5254 16.0387 26.3907 16.2034C26.2559 16.3606 26.1586 16.5066 26.0987 16.6414V20.6277C26.0987 20.6801 26.1024 20.7362 26.1099 20.7961C26.1249 20.856 26.1698 20.8859 26.2447 20.8859C26.3046 20.8859 26.3645 20.8859 26.4243 20.8859C26.4917 20.8784 26.5554 20.8747 26.6152 20.8747C26.6602 20.8747 26.7051 20.8897 26.75 20.9196C26.7949 20.9496 26.8174 20.9907 26.8174 21.0431C26.8174 21.1854 26.7462 21.2565 26.604 21.2565C26.3944 21.2565 26.1848 21.249 25.9752 21.234C25.7656 21.2191 25.556 21.2116 25.3464 21.2116C25.1143 21.2116 24.8822 21.2191 24.6502 21.234C24.4256 21.249 24.1973 21.2565 23.9652 21.2565C23.9128 21.2565 23.8679 21.2378 23.8304 21.2003C23.8005 21.1554 23.7855 21.1105 23.7855 21.0656C23.7855 20.9309 23.8566 20.8635 23.9989 20.8635C24.0663 20.8635 24.1336 20.8672 24.201 20.8747C24.2684 20.8822 24.3358 20.8859 24.4031 20.8859C24.493 20.8859 24.5454 20.8672 24.5603 20.8298C24.5753 20.7849 24.5828 20.7175 24.5828 20.6277V16.2034C24.5828 16.1286 24.5753 16.05 24.5603 15.9676C24.5454 15.8853 24.4855 15.8441 24.3807 15.8441C24.3058 15.8441 24.2309 15.8479 24.1561 15.8553C24.0887 15.8628 24.0176 15.8666 23.9427 15.8666C23.8903 15.8666 23.8304 15.8591 23.7631 15.8441C23.7032 15.8217 23.6732 15.7767 23.6732 15.7094C23.6732 15.657 23.6882 15.6195 23.7182 15.5971C23.7556 15.5671 23.7968 15.5484 23.8417 15.5409C23.9165 15.5185 23.9951 15.5035 24.0775 15.496C24.1598 15.4885 24.2384 15.481 24.3133 15.4736C24.3732 15.4586 24.4705 15.4361 24.6052 15.4062C24.74 15.3687 24.8822 15.3313 25.0319 15.2939C25.1892 15.249 25.3276 15.2115 25.4474 15.1816C25.5672 15.1517 25.6383 15.1367 25.6608 15.1367C25.7356 15.1367 25.7955 15.1891 25.8404 15.2939C25.8928 15.3912 25.934 15.4998 25.964 15.6195C25.9939 15.7393 26.0164 15.8291 26.0313 15.889C26.2484 15.7019 26.5142 15.5409 26.8286 15.4062C27.1505 15.2639 27.4574 15.1928 27.7494 15.1928C28.2584 15.1928 28.6552 15.2565 28.9396 15.3837C29.2316 15.511 29.4337 15.7206 29.546 16.0125C29.6658 16.3045 29.7257 16.6975 29.7257 17.1916C29.7257 17.7755 29.7219 18.3594 29.7144 18.9433C29.707 19.5272 29.7032 20.1111 29.7032 20.695C29.7032 20.7924 29.7332 20.8485 29.7931 20.8635C29.8529 20.8785 29.9203 20.8859 29.9952 20.8859C30.0326 20.8859 30.07 20.8859 30.1075 20.8859C30.1524 20.8784 30.1936 20.8747 30.231 20.8747C30.3582 20.8747 30.4219 20.9383 30.4219 21.0656Z" fill="black"/>
</svg>
