<svg width="36" height="36" viewBox="0 0 36 36" fill="none" xmlns="http://www.w3.org/2000/svg">
<path d="M1.00871e-09 18C7.8474e-05 6.75 3.21436 8.78424e-06 18 0C32.7856 -8.78422e-06 36 5.94643 36 18C36 30.8571 30.5358 36 18 36C6.91071 36 -9.64087e-05 31.8214 1.00871e-09 18Z" fill="#1296DB"/>
<path d="M27.3763 17.0696H27.3773L27.4242 17.1077C27.4254 17.1089 27.4267 17.1107 27.4281 17.1116L27.4379 17.1194L27.4398 17.1214C27.4411 17.1226 27.4425 17.1234 27.4437 17.1243L27.4476 17.1263V17.1273C27.4468 17.1286 27.4469 17.1306 27.4467 17.1321C27.4532 17.1335 27.454 17.1345 27.4584 17.136L27.6654 17.3011C27.6663 17.3028 27.6674 17.3053 27.6683 17.3069C27.671 17.311 27.6733 17.3127 27.6771 17.3157C27.6832 17.3196 27.6789 17.32 27.6752 17.3099L27.6791 17.3128C27.6811 17.3174 27.6838 17.3219 27.6859 17.3265C27.6973 17.3326 27.6917 17.3291 27.6967 17.3353C27.7017 17.3408 27.6964 17.3349 27.6947 17.3304V17.3255C27.6998 17.3314 27.7032 17.3393 27.7084 17.345C27.7072 17.3449 27.7056 17.3442 27.7045 17.3441C27.7043 17.3524 27.721 17.355 27.725 17.3568C27.7234 17.3565 27.7174 17.3548 27.7172 17.3548C27.7211 17.3616 27.7284 17.3626 27.7347 17.3646C27.7364 17.3651 27.7381 17.3657 27.7396 17.3665L27.7357 17.3655C27.7391 17.3687 27.743 17.3722 27.7465 17.3753C27.749 17.3763 27.7518 17.377 27.7543 17.3782C27.7555 17.3789 27.7561 17.3813 27.7572 17.3821C27.7623 17.386 27.768 17.3893 27.7738 17.3919H27.7748L27.7767 17.3929C27.7803 17.3955 27.7845 17.3977 27.7885 17.3997C27.7892 17.401 27.7902 17.4033 27.7904 17.4036C27.7925 17.4058 27.795 17.4084 27.7972 17.4105C27.7989 17.4127 27.8 17.4151 27.8021 17.4173C27.8041 17.4192 27.8069 17.4205 27.809 17.4222C27.8105 17.4236 27.8119 17.4257 27.8138 17.4271C27.8163 17.429 27.819 17.4311 27.8217 17.4329C27.8231 17.4336 27.8252 17.4341 27.8265 17.4349L27.8275 17.4368L27.8295 17.4398C27.8327 17.4439 27.8359 17.4483 27.8392 17.4525C27.8393 17.4552 27.8463 17.4569 27.8519 17.4583C27.8524 17.459 27.8532 17.4596 27.8539 17.4603C27.8551 17.4617 27.8569 17.4624 27.8578 17.4632V17.4642L27.8802 17.4866C27.8831 17.4911 27.8886 17.4915 27.8929 17.4935L27.8949 17.4944L27.8939 17.4954L27.8959 17.4974C27.8982 17.4993 27.9013 17.5014 27.9037 17.5032L27.9047 17.5042C27.9083 17.5122 27.9121 17.5136 27.9213 17.5198C27.937 17.5271 27.9121 17.5144 27.931 17.5267C27.9336 17.5282 27.9337 17.5276 27.934 17.5276C27.9351 17.5287 27.9358 17.5304 27.9369 17.5316C27.9402 17.5336 27.9487 17.5441 27.9515 17.5452V17.5462C27.9559 17.5516 27.9612 17.5561 27.9662 17.5609C27.9674 17.5619 27.9688 17.5629 27.9701 17.5638C27.9712 17.5647 27.9737 17.5653 27.974 17.5657C27.9863 17.5798 27.9755 17.5698 27.9945 17.5784C27.996 17.5791 27.9913 17.5778 27.9896 17.5775H27.9886C27.9913 17.5791 27.9946 17.5808 27.9974 17.5823C27.995 17.5815 27.9955 17.5814 27.9945 17.5814C27.9972 17.5845 27.9985 17.5897 28.0023 17.5911C28.0074 17.593 28.0134 17.5917 28.0189 17.5921C28.0166 17.5928 28.0116 17.5943 28.0082 17.5931H28.0072C28.0091 17.5957 28.0202 17.607 28.0209 17.6077C28.0231 17.6089 28.0256 17.6095 28.0277 17.6107V17.6116C28.0422 17.6236 28.0434 17.6242 28.0472 17.6243C28.0477 17.6251 28.0476 17.6265 28.0482 17.6273C28.0501 17.6296 28.0537 17.6299 28.056 17.6312C28.0715 17.644 28.0694 17.6431 28.0756 17.6439H28.0765C28.0775 17.644 28.0775 17.6441 28.0804 17.6448H28.0775C28.0794 17.6461 28.0818 17.6484 28.0824 17.6487L28.0834 17.6497C28.0861 17.6517 28.0893 17.6538 28.0922 17.6556C28.093 17.656 28.0941 17.656 28.0951 17.6566C28.0978 17.6606 28.103 17.6649 28.1107 17.6683C28.117 17.6783 28.1265 17.6849 28.1371 17.6898C28.139 17.689 28.1411 17.6914 28.1429 17.6927H28.1439C28.1479 17.6964 28.1481 17.697 28.1556 17.7025C28.1614 17.7073 28.1575 17.7033 28.1605 17.7103C28.1736 17.7241 28.1667 17.7182 28.1791 17.7249L28.2006 17.7386V17.7396C28.1999 17.7382 28.1995 17.736 28.2025 17.7435C28.2048 17.7466 28.2069 17.7502 28.2094 17.7532C28.2101 17.7542 28.2115 17.7544 28.2123 17.7552C28.2186 17.7607 28.2258 17.7662 28.2299 17.7737C28.2364 17.7839 28.2495 17.805 28.2631 17.805V17.8021C28.2644 17.8028 28.2649 17.8047 28.266 17.806C28.2725 17.8134 28.279 17.8217 28.2885 17.8255C28.2889 17.8257 28.2935 17.8268 28.2943 17.8275C28.2988 17.8308 28.3035 17.8348 28.308 17.8382L28.307 17.8392C28.3106 17.8461 28.3104 17.8469 28.3187 17.8538C28.3211 17.8558 28.3251 17.8568 28.3275 17.8587L28.3265 17.8597L28.3275 17.8616C28.3315 17.865 28.336 17.8683 28.3402 17.8714C28.3431 17.8725 28.3462 17.8739 28.349 17.8753L28.351 17.8773C28.3569 17.8823 28.3629 17.8865 28.3685 17.8919C28.3735 17.897 28.3744 17.8984 28.3812 17.9026C28.3833 17.904 28.386 17.9042 28.3881 17.9056V17.9075C28.389 17.9089 28.3906 17.9105 28.392 17.9114C28.3957 17.914 28.3998 17.9159 28.4037 17.9183C28.4065 17.9193 28.41 17.9196 28.4125 17.9212C28.4136 17.922 28.408 17.9212 28.4095 17.9232C28.4117 17.9259 28.4139 17.9286 28.4164 17.931C28.4213 17.9355 28.4249 17.9364 28.431 17.9388C28.4326 17.9394 28.4356 17.9406 28.4379 17.9417L28.4398 17.9427C28.4411 17.9457 28.4445 17.948 28.4467 17.9505C28.4528 17.958 28.46 17.9647 28.4681 17.97C28.4734 17.9734 28.4725 17.9735 28.473 17.9749L28.474 17.9778C28.4718 17.9778 28.4752 17.9778 28.476 17.9778C28.4809 17.986 28.4892 17.9917 28.4974 17.9964C28.5006 17.9985 28.5038 18.0005 28.5072 18.0023C28.5081 18.0032 28.5093 18.0042 28.5101 18.0052C28.5183 18.0131 28.5247 18.0234 28.5336 18.0306C28.5368 18.0332 28.54 18.0359 28.5433 18.0384C28.5502 18.0431 28.5514 18.0433 28.559 18.0472C28.5606 18.048 28.5629 18.0485 28.5638 18.0501C28.5628 18.0498 28.5601 18.0481 28.559 18.0482L28.5599 18.0501C28.5626 18.0535 28.5659 18.0566 28.5687 18.0599C28.577 18.0654 28.5858 18.0701 28.5951 18.0735C28.5979 18.0768 28.6021 18.0801 28.6058 18.0823C28.6066 18.0832 28.607 18.0846 28.6078 18.0853C28.6098 18.0871 28.613 18.0872 28.6156 18.0882L28.6176 18.0892L28.6205 18.0921C28.6214 18.0944 28.6229 18.0964 28.6283 18.1019C28.6328 18.1058 28.6382 18.1089 28.6439 18.1107L28.641 18.1097C28.6454 18.1134 28.6504 18.1165 28.6547 18.1204C28.6579 18.1245 28.6546 18.1213 28.6547 18.1214C28.6575 18.1247 28.6605 18.1279 28.6635 18.1312C28.666 18.1325 28.6687 18.1337 28.6713 18.1351C28.6723 18.1362 28.6694 18.1353 28.6703 18.136C28.6722 18.1376 28.6752 18.1385 28.6771 18.14L22.5941 22.9349C22.5945 22.9392 22.5956 22.9432 22.5961 22.9476L22.5599 22.9769C22.5638 22.9689 22.5676 22.9604 22.5717 22.9525L18.4584 26.1966L8.22888 18.1312L9.54529 17.0735L9.56482 17.0882L10.7816 16.1116L18.4047 22.1243L26.1078 16.0511L27.3763 17.0696ZM23.3168 13.8089H23.3177L23.3529 13.8382L23.3636 13.847H23.3627L23.3646 13.8489C23.3658 13.8509 23.3685 13.8528 23.3695 13.8548H23.3685L23.3695 13.8568C23.3811 13.8682 23.3814 13.8681 23.3842 13.8675L23.3851 13.8685C23.3841 13.8678 23.3826 13.8675 23.3832 13.8685C23.3803 13.8639 23.3891 13.875 23.389 13.8743C23.3882 13.8724 23.3863 13.8703 23.3851 13.8685L23.3871 13.8694H23.389C23.3915 13.8748 23.3958 13.8812 23.3959 13.8821V13.8831C23.3972 13.8848 23.3999 13.885 23.4017 13.886C23.3961 13.8833 23.3959 13.8829 23.3959 13.8821C23.3937 13.8788 23.39 13.8719 23.392 13.8734C23.3976 13.8781 23.3995 13.887 23.4056 13.8909H23.4066C23.4086 13.8937 23.4114 13.8958 23.4144 13.8978C23.4152 13.8983 23.4153 13.8991 23.4164 13.8997C23.4181 13.9008 23.4234 13.9033 23.4222 13.9017C23.4159 13.892 23.4145 13.896 23.4144 13.8978C23.4142 13.8978 23.4136 13.8925 23.4135 13.8909C23.4152 13.8908 23.4167 13.8911 23.4183 13.8909L23.4213 13.8929C23.4255 13.8976 23.4301 13.9025 23.434 13.9075L23.433 13.9085L23.4349 13.9095C23.4333 13.9089 23.4316 13.9083 23.4301 13.9075L23.4291 13.9066C23.4296 13.9083 23.4303 13.9098 23.431 13.9114C23.4353 13.9212 23.4443 13.9228 23.4525 13.9261H23.4515L23.4496 13.9251C23.4516 13.9266 23.4534 13.9286 23.4554 13.93C23.4581 13.9316 23.4619 13.9327 23.4623 13.9359C23.4661 13.9452 23.4745 13.9499 23.4828 13.9544C23.4857 13.9582 23.4881 13.9625 23.4916 13.9661C23.493 13.9674 23.495 13.9688 23.4965 13.97C23.5006 13.9736 23.5027 13.9751 23.5082 13.9778H23.5072C23.5056 13.9805 23.5095 13.9837 23.514 13.9866C23.5185 13.9927 23.5242 13.9981 23.5297 14.0032H23.5287C23.5321 14.0074 23.5355 14.0123 23.5394 14.0159C23.5415 14.0178 23.5449 14.0182 23.5472 14.0198C23.5479 14.0203 23.5456 14.0193 23.5443 14.0189L23.5424 14.0179C23.544 14.0216 23.5455 14.0217 23.5472 14.0247C23.5477 14.0256 23.5487 14.0278 23.5492 14.0286C23.5526 14.0323 23.5564 14.0359 23.5599 14.0394C23.5623 14.0405 23.5646 14.0419 23.5668 14.0433L23.5629 14.0423L23.5775 14.0569C23.5794 14.0577 23.5826 14.0578 23.5844 14.0589L23.5834 14.0599L23.5853 14.0618C23.5878 14.0639 23.597 14.069 23.599 14.0716C23.6115 14.0846 23.6288 14.0916 23.6449 14.0989C23.647 14.0999 23.6497 14.1008 23.6517 14.1019C23.653 14.1027 23.6545 14.1038 23.6556 14.1048C23.6568 14.1061 23.6594 14.1099 23.6664 14.1175C23.6697 14.1195 23.676 14.1225 23.6791 14.1243L23.6869 14.1292C23.6881 14.1302 23.6897 14.1309 23.6908 14.1321C23.6793 14.1389 23.6938 14.1454 23.7064 14.1497C23.7068 14.1513 23.7076 14.1531 23.7084 14.1546C23.7092 14.1563 23.7117 14.1608 23.7123 14.1595C23.7126 14.1573 23.7096 14.1554 23.7084 14.1536C23.708 14.1517 23.7085 14.1513 23.7084 14.1507C23.7081 14.149 23.7095 14.1511 23.7123 14.1556C23.7126 14.1578 23.7128 14.1595 23.7142 14.1605C23.715 14.161 23.7162 14.161 23.7172 14.1614V14.1634L23.7201 14.1644C23.7211 14.1662 23.7219 14.1684 23.723 14.1702L23.725 14.1712C23.7259 14.1725 23.7267 14.174 23.7279 14.1751L23.7308 14.1761L23.7318 14.1771C23.7349 14.1843 23.7384 14.1889 23.7416 14.1849C23.7448 14.1887 23.7464 14.1897 23.7572 14.1937H23.7592V14.1966C23.7626 14.2016 23.7711 14.2002 23.7767 14.1995C23.7778 14.2008 23.7782 14.2025 23.7797 14.2034C23.7852 14.2063 23.7884 14.2067 23.7914 14.2073C23.7934 14.2097 23.7958 14.2123 23.7972 14.2142L23.7982 14.2151L23.7972 14.2122C23.7982 14.213 23.7993 14.2141 23.8002 14.2151L23.8011 14.2171C23.8021 14.2187 23.803 14.2204 23.8041 14.222L23.8265 14.2444L23.8373 14.2513L23.8392 14.2523C23.8418 14.2554 23.8442 14.2579 23.847 14.261C23.8461 14.2576 23.8444 14.2499 23.8461 14.2513C23.8511 14.2579 23.8522 14.2668 23.8568 14.2737C23.8639 14.2768 23.8629 14.2749 23.8646 14.2776C23.87 14.2857 23.8784 14.2906 23.8871 14.2943C23.8892 14.2973 23.8914 14.3003 23.8939 14.303C23.8947 14.3039 23.9011 14.3084 23.9037 14.3099H23.9056C23.9091 14.314 23.8995 14.3071 23.9086 14.3148C23.9149 14.32 23.922 14.3234 23.9291 14.3275C23.9305 14.3283 23.9317 14.3294 23.933 14.3304C23.934 14.3312 23.9351 14.3324 23.9359 14.3333C23.9407 14.3391 23.9307 14.3315 23.9496 14.3431C23.9647 14.3524 23.9527 14.3439 23.9613 14.3509C23.9678 14.3594 23.9738 14.3654 23.9838 14.3704C23.9947 14.3737 23.9909 14.3718 23.9974 14.3753C23.9986 14.3759 24.0004 14.3765 24.0013 14.3773C24.0024 14.3783 24.0024 14.38 24.0033 14.3812C24.0066 14.3854 24.011 14.3904 24.015 14.3939C24.0182 14.3966 24.0215 14.3991 24.0248 14.4017L24.0424 14.4105H24.0404C24.0404 14.4108 24.0417 14.4122 24.0433 14.4144C24.0461 14.4177 24.0535 14.4269 24.057 14.429C24.0614 14.4315 24.067 14.4328 24.0717 14.4349C24.0749 14.4349 24.0782 14.4344 24.0814 14.4349C24.0837 14.4352 24.0769 14.4358 24.0746 14.4359C24.0649 14.4362 24.0856 14.45 24.0873 14.4515C24.0907 14.4525 24.0949 14.4527 24.098 14.4544L24.0951 14.4554L24.0961 14.4573C24.0988 14.4603 24.1019 14.4634 24.1049 14.4661C24.11 14.4709 24.1133 14.4729 24.1195 14.4769C24.1248 14.4802 24.1311 14.4827 24.1361 14.4866C24.1383 14.4884 24.1424 14.4937 24.1439 14.4954C24.1448 14.4965 24.1458 14.4974 24.1469 14.4984C24.1557 14.506 24.164 14.5113 24.1752 14.515C24.1816 14.517 24.1844 14.5157 24.1801 14.5169H24.1791C24.1833 14.521 24.188 14.5251 24.1927 14.5286C24.1984 14.5326 24.2053 14.5355 24.2103 14.5403C24.2177 14.5487 24.229 14.552 24.2367 14.5599C24.2448 14.5714 24.2571 14.5782 24.2689 14.5853C24.2788 14.5921 24.2898 14.5981 24.2982 14.6068C24.3023 14.6124 24.3094 14.6154 24.3148 14.6194C24.3169 14.6211 24.3185 14.6237 24.3207 14.6253C24.3246 14.628 24.3294 14.6296 24.3334 14.6321C24.336 14.6333 24.3389 14.6343 24.3412 14.636L24.3422 14.639C24.3439 14.6451 24.3429 14.6438 24.3539 14.6507C24.358 14.6533 24.3631 14.6544 24.3676 14.6566C24.3689 14.6573 24.3712 14.6575 24.3724 14.6585C24.3733 14.6593 24.3738 14.6606 24.3744 14.6614C24.3765 14.664 24.3781 14.6668 24.3802 14.6693C24.3818 14.6711 24.3832 14.6737 24.3851 14.6751C24.3893 14.6782 24.3944 14.6802 24.3988 14.6829C24.4021 14.6838 24.4055 14.6846 24.4086 14.6859C24.41 14.6865 24.4112 14.6878 24.4125 14.6888L24.4174 14.6927L24.4203 14.6946L24.4213 14.6976C24.424 14.7003 24.4272 14.7028 24.4301 14.7054C24.4348 14.7094 24.4404 14.712 24.4457 14.7151L24.4515 14.72L24.5931 14.8333L24.5941 14.8343C24.5947 14.8359 24.5948 14.8369 24.5961 14.8392C24.5979 14.8424 24.6003 14.8453 24.6029 14.848C24.6045 14.8487 24.6072 14.8491 24.6088 14.8499H24.6097C24.6133 14.8515 24.617 14.853 24.6205 14.8548L24.6234 14.8577H24.6205C24.6256 14.8625 24.6269 14.8656 24.6332 14.8655L18.4584 19.7347L12.2885 14.8704L13.6049 13.8128L13.6244 13.8275L14.8412 12.8519L18.4047 15.6614L22.0472 12.7903L23.3168 13.8089ZM27.7767 17.3919H27.7748L27.7738 17.39C27.7748 17.3907 27.7759 17.3913 27.7767 17.3919ZM7.16345 17.2278C7.15984 17.2314 7.15392 17.232 7.14783 17.2318C7.14866 17.2313 7.14983 17.2312 7.15076 17.2308L7.16345 17.2239C7.16345 17.225 7.16441 17.2269 7.16345 17.2278ZM28.8519 16.3411C28.8497 16.3384 28.8472 16.3359 28.8451 16.3333L28.8461 16.3235C28.8486 16.3289 28.8499 16.3353 28.8519 16.3411ZM28.7885 16.2484C28.7864 16.2502 28.7846 16.2523 28.7826 16.2542C28.7811 16.2494 28.7792 16.2444 28.7777 16.2396L28.7885 16.2484ZM23.722 14.1653L23.7201 14.1644C23.7195 14.1634 23.7188 14.1624 23.7181 14.1614C23.7193 14.1628 23.7206 14.164 23.722 14.1653ZM23.7201 14.1624L23.7191 14.1614L23.7172 14.1605V14.1595C23.7168 14.1579 23.7156 14.1558 23.7162 14.1566C23.7178 14.1583 23.7189 14.1604 23.7201 14.1624ZM23.7172 14.1595C23.716 14.158 23.7141 14.1569 23.7133 14.1556C23.7131 14.1542 23.7119 14.1513 23.7123 14.1517C23.7143 14.1538 23.7156 14.157 23.7172 14.1595ZM23.6986 14.1331L23.7054 14.1468L23.6908 14.1321L23.6967 14.1312L23.6986 14.1331ZM23.4174 13.89H23.4144C23.4143 13.8889 23.4136 13.8868 23.4135 13.886L23.4174 13.89ZM23.392 13.8685C23.3907 13.8685 23.3904 13.8685 23.389 13.8685V13.8675H23.391L23.392 13.8685ZM23.3881 13.8646C23.3882 13.8651 23.3886 13.8665 23.389 13.8675H23.3851V13.8626L23.3881 13.8646ZM24.974 13.6292C24.974 13.6305 24.974 13.6318 24.974 13.6331C24.9707 13.6287 24.9674 13.6257 24.9642 13.6214L24.974 13.6292ZM24.8802 13.4515H24.8734L24.8754 13.4485C24.8769 13.4493 24.8786 13.4499 24.8802 13.4515ZM20.3246 11.3782L20.516 11.5257L18.4633 13.1556L16.4183 11.5257L16.5199 11.4446L18.4633 9.91144L20.3246 11.3782ZM20.516 11.5257L20.4926 11.5023C20.4839 11.4897 20.4782 11.4753 20.472 11.4612L20.476 11.4446C20.4887 11.4716 20.5022 11.4993 20.516 11.5257ZM20.9144 11.0589C20.9198 11.0704 20.9266 11.0812 20.933 11.0921C20.9223 11.0793 20.9112 11.0661 20.8998 11.054L20.9115 11.0521C20.9122 11.0538 20.9138 11.0573 20.9144 11.0589ZM17.4769 10.4661C17.4603 10.4789 17.443 10.4909 17.4261 10.5032C17.4131 10.5116 17.4001 10.5202 17.3871 10.5286C17.4181 10.5064 17.4502 10.485 17.4808 10.4622C17.4798 10.4636 17.478 10.4646 17.4769 10.4661ZM20.2455 9.88312C20.2434 9.88758 20.24 9.89134 20.2377 9.89581L20.2357 9.89484C20.2324 9.88844 20.2291 9.88181 20.226 9.87531C20.2119 9.85173 20.1974 9.82827 20.183 9.80499L20.184 9.80304C20.2049 9.82933 20.2251 9.85652 20.2455 9.88312Z" fill="white"/>
</svg>
