<svg width="36" height="36" viewBox="0 0 36 36" fill="none" xmlns="http://www.w3.org/2000/svg">
<mask id="path-1-inside-1_7_1998" fill="white">
<path d="M1.00871e-09 18C7.8474e-05 6.75 3.21436 8.78424e-06 18 0C32.7856 -8.78422e-06 36 5.94643 36 18C36 30.8571 30.5358 36 18 36C6.91071 36 -9.64087e-05 31.8214 1.00871e-09 18Z"/>
</mask>
<path d="M1.00871e-09 18C7.8474e-05 6.75 3.21436 8.78424e-06 18 0C32.7856 -8.78422e-06 36 5.94643 36 18C36 30.8571 30.5358 36 18 36C6.91071 36 -9.64087e-05 31.8214 1.00871e-09 18Z" fill="white"/>
<path d="M1.00871e-09 18L1 18L1.00871e-09 18ZM1.00871e-09 18L1 18C1.00004 12.4188 1.81003 8.23746 4.21467 5.43204C6.5888 2.66223 10.7301 1 18 1V0V-1C10.4842 -0.999996 5.6256 0.712782 2.69616 4.13046C-0.202768 7.51254 -0.99996 12.3312 -1 18L1.00871e-09 18ZM18 0V1C25.3037 0.999996 29.4342 2.47694 31.7961 5.14302C34.1841 7.83854 35 12.0002 35 18H36H37C37 11.9462 36.2087 7.10788 33.2931 3.81679C30.3514 0.496269 25.4819 -1 18 -1V0ZM36 18H35C35 24.3159 33.6537 28.4908 30.9987 31.1095C28.3409 33.7309 24.1622 35 18 35V36V37C24.3736 37 29.1949 35.6977 32.4031 32.5334C35.6142 29.3663 37 24.5413 37 18H36ZM18 36V35C12.5482 35 8.34866 33.9666 5.50644 31.4362C2.68833 28.9271 0.999953 24.7587 1 18L1.00871e-09 18L-1 18C-1.00005 25.0627 0.766929 29.8943 4.17652 32.9299C7.562 35.9441 12.3625 37 18 37V36Z" fill="black" fill-opacity="0.08" mask="url(#path-1-inside-1_7_1998)"/>
<path d="M9.20642 25.027L12.2743 25.6405V14.6985C11.2517 13.952 10.229 13.1952 9.20642 12.4487V25.027Z" fill="#3399FF"/>
<path d="M18.1032 19.0958C15.1376 16.8767 12.172 14.6679 9.20638 12.4488C9.1348 12.326 8.98141 12.0295 9.00186 11.6307C9.03254 11.1398 9.30865 10.8228 9.41091 10.7103C9.67679 10.4342 9.97335 10.3422 10.1267 10.3013C10.4438 10.2194 10.7096 10.2706 10.8426 10.3013C13.2662 12.0704 15.6796 13.8498 18.1032 15.6189C20.0155 14.1872 21.9176 12.7555 23.8299 11.3239V14.9031C21.9176 16.304 20.0155 17.6948 18.1032 19.0958Z" fill="#FF3333"/>
<path d="M26.8978 25.027V12.551C25.8752 13.3384 24.8526 14.1156 23.83 14.9031V25.7428C24.8526 25.5076 25.8752 25.2622 26.8978 25.027Z" fill="#339966"/>
<path d="M23.83 11.3239V14.8008C24.8526 14.0543 25.8752 13.2975 26.8978 12.551C26.9285 12.3158 26.9694 12.0704 27.0001 11.8352C26.9899 11.6613 26.949 11.3136 26.6933 11.0171C26.5092 10.8023 26.2945 10.7001 26.0797 10.608C25.7525 10.4649 25.4559 10.4137 25.2616 10.4035C24.781 10.7103 24.3106 11.0171 23.83 11.3239Z" fill="#FFCC00"/>
</svg>
