<svg width="36" height="36" viewBox="0 0 36 36" fill="none" xmlns="http://www.w3.org/2000/svg">
<path d="M1.00871e-09 18C7.8474e-05 6.75 3.21436 8.78424e-06 18 0C32.7856 -8.78422e-06 36 5.94643 36 18C36 30.8571 30.5358 36 18 36C6.91071 36 -9.64087e-05 31.8214 1.00871e-09 18Z" fill="#5E59E2"/>
<path d="M26.3019 11.1186L19.0598 17.0991C18.7562 17.3514 18.3737 17.4892 17.9789 17.4883C17.5842 17.4875 17.2023 17.3481 16.8998 17.0944L9.69081 11.0878C9.62698 11.0382 9.5504 11.0076 9.46992 10.9997C9.38945 10.9918 9.30837 11.0068 9.23609 11.0431C9.16381 11.0793 9.10328 11.1353 9.06151 11.2046C9.01975 11.2738 8.99845 11.3535 9.00009 11.4343V23.2493C9.00009 24.2174 9.76776 25.0019 10.7146 25.0019H25.2854C26.2322 25.0019 26.9999 24.217 26.9999 23.2493V11.4595C27.0017 11.3778 26.98 11.2973 26.9375 11.2276C26.895 11.1578 26.8333 11.1017 26.7599 11.0658C26.6865 11.03 26.6044 11.0159 26.5232 11.0253C26.442 11.0346 26.3653 11.067 26.3019 11.1186Z" fill="white" fill-opacity="0.5"/>
<path d="M23.1429 13.7274L16.9374 18.8516C16.6341 19.1036 16.2521 19.2413 15.8577 19.2407C15.4634 19.2401 15.0818 19.1012 14.7792 18.8483L9 14.0477V23.2498C9 24.2179 9.76767 25.0023 10.7145 25.0023H23.1429L23.1429 13.7274Z" fill="white"/>
</svg>
