<svg width="36" height="36" viewBox="0 0 36 36" fill="none" xmlns="http://www.w3.org/2000/svg">
<path d="M1.00871e-09 18C7.8474e-05 6.75 3.21436 8.78424e-06 18 0C32.7856 -8.78422e-06 36 5.94643 36 18C36 30.8571 30.5358 36 18 36C6.91071 36 -9.64087e-05 31.8214 1.00871e-09 18Z" fill="#0066FF"/>
<g clip-path="url(#clip0_9_2192)">
<path d="M9.14524 22.0243L13.9577 12.6579C14.0573 12.4631 14.208 12.299 14.3937 12.1833C14.5794 12.0676 14.793 12.0046 15.0118 12.001C15.2306 11.9974 15.4462 12.0535 15.6356 12.1631C15.8249 12.2727 15.9809 12.4317 16.0868 12.6232L21.2657 21.9549C21.7889 22.8986 20.9134 24.0069 19.8771 23.7099L15.6124 22.4859C15.3956 22.4237 15.1657 22.4237 14.9489 22.4859L10.5518 23.7459C9.53352 24.0377 8.66052 22.9693 9.14524 22.0256V22.0243Z" fill="white"/>
<path opacity="0.5" d="M23.4745 23.139L25.4622 23.7099C26.4972 24.0069 27.3741 22.8999 26.8508 21.9549L21.6707 12.6232C21.5648 12.4317 21.4088 12.2727 21.2194 12.1631C21.03 12.0535 20.8144 11.9974 20.5957 12.001C20.3769 12.0046 20.1632 12.0676 19.9775 12.1833C19.7918 12.299 19.6411 12.4631 19.5415 12.6579L18.6891 14.3164L23.4719 23.139H23.4745Z" fill="white"/>
</g>
<defs>
<clipPath id="clip0_9_2192">
<rect width="18" height="18" fill="white" transform="translate(9 9)"/>
</clipPath>
</defs>
</svg>
