<svg width="36" height="36" viewBox="0 0 36 36" fill="none" xmlns="http://www.w3.org/2000/svg">
<path d="M1.00871e-09 18C7.8474e-05 6.75 3.21436 8.78424e-06 18 0C32.7856 -8.78422e-06 36 5.94643 36 18C36 30.8571 30.5358 36 18 36C6.91071 36 -9.64087e-05 31.8214 1.00871e-09 18Z" fill="#FF3332"/>
<path d="M19.8971 26.7855C19.8519 26.6587 19.4806 25.8075 19.0821 24.8928C18.6837 23.9691 18.3577 23.1813 18.3577 23.136C18.3577 23.0907 18.6927 22.8553 19.1002 22.6198C20.9295 21.5331 22.315 19.6858 22.9399 17.4943C23.1844 16.6521 23.1844 16.6159 23.2387 12.8396L23.2931 9.03622L25.231 9.00906C26.2996 8.99094 27.2685 9 27.3862 9.03622L27.6036 9.09056L27.5674 13.0479C27.5402 16.6521 27.513 17.0777 27.341 17.8475C26.9153 19.7492 26.1728 21.4788 25.1676 22.8824C24.1352 24.3223 22.3422 25.9342 20.8661 26.7311C20.2232 27.0753 20.0149 27.0843 19.8971 26.7855ZM8.45975 16.9962C8.42353 16.96 8.39636 15.167 8.39636 13.0117C8.39636 9.91463 8.42353 9.09056 8.51409 9.05433C8.71331 8.98189 12.5077 8.99094 12.6344 9.06339C12.725 9.12678 12.7431 9.98708 12.725 13.0751L12.6978 17.0053L10.606 17.0324C9.45588 17.0415 8.49598 17.0234 8.45975 16.9962ZM15.5232 16.9962C15.487 16.96 15.4598 15.167 15.4598 13.0117C15.4598 9.92369 15.487 9.09056 15.5776 9.05433C15.7677 8.98189 19.5802 9 19.6979 9.07245C19.7794 9.12678 19.8066 10.0414 19.7885 13.0751L19.7613 17.0053L17.6694 17.0324C16.5194 17.0415 15.5595 17.0234 15.5232 16.9962Z" fill="white"/>
</svg>
