<svg width="40" height="38" viewBox="0 0 40 38" fill="none" xmlns="http://www.w3.org/2000/svg">
<path d="M1.526 18.9141C1.52608 7.66406 4.74037 0.914071 19.526 0.914063C34.3116 0.914054 37.526 6.86049 37.526 18.9141C37.526 31.7712 32.0618 36.9141 19.526 36.9141C8.43672 36.9141 1.5259 32.7355 1.526 18.9141Z" fill="#FF4500"/>
<path d="M15.6103 14.5184C15.9546 14.0348 16.4761 13.707 17.0611 13.6062C17.6461 13.5054 18.2472 13.6399 18.7335 13.9803C19.2198 14.3208 19.5519 14.8396 19.6573 15.4238C19.7628 16.008 19.6331 16.6102 19.2965 17.0992L14.9945 23.2432C14.8262 23.4878 14.611 23.6967 14.3615 23.8578C14.112 24.0189 13.8331 24.1289 13.5408 24.1817C13.2486 24.2345 12.9487 24.2288 12.6587 24.1652C12.3686 24.1015 12.094 23.981 11.8507 23.8107C11.6074 23.6404 11.4002 23.4235 11.2412 23.1728C11.0821 22.922 10.9742 22.6422 10.9238 22.3495C10.8734 22.0568 10.8814 21.7571 10.9474 21.4675C11.0134 21.178 11.136 20.9043 11.3083 20.6624L15.6103 14.5184ZM21.977 14.5852C22.3214 14.1016 22.8428 13.7737 23.4278 13.6729C24.0129 13.5721 24.614 13.7066 25.1003 14.0471C25.5866 14.3875 25.9186 14.9064 26.0241 15.4905C26.1295 16.0747 25.9999 16.6769 25.6633 17.1659L21.3613 23.3099C21.1918 23.552 20.9763 23.7582 20.727 23.917C20.4778 24.0757 20.1998 24.1839 19.9088 24.2351C19.321 24.3387 18.7162 24.2046 18.2274 23.8623C17.9854 23.6928 17.7791 23.4773 17.6203 23.228C17.4616 22.9788 17.3535 22.7008 17.3022 22.4097C17.1986 21.822 17.3327 21.2172 17.675 20.7284L21.977 14.5852ZM25.901 24.0592C26.4978 24.0592 27.0701 23.8221 27.492 23.4001C27.914 22.9782 28.151 22.4059 28.151 21.8092C28.151 21.2124 27.914 20.6401 27.492 20.2182C27.0701 19.7962 26.4978 19.5592 25.901 19.5592C25.3043 19.5592 24.732 19.7962 24.31 20.2182C23.8881 20.6401 23.651 21.2124 23.651 21.8092C23.651 22.4059 23.8881 22.9782 24.31 23.4001C24.732 23.8221 25.3043 24.0592 25.901 24.0592Z" fill="white"/>
</svg>
