<svg width="36" height="36" viewBox="0 0 36 36" fill="none" xmlns="http://www.w3.org/2000/svg">
<path d="M1.00871e-09 18C7.8474e-05 6.75 3.21436 8.78424e-06 18 0C32.7856 -8.78422e-06 36 5.94643 36 18C36 30.8571 30.5358 36 18 36C6.91071 36 -9.64087e-05 31.8214 1.00871e-09 18Z" fill="#38BE4D"/>
<path d="M21.2773 15.0312C21.4771 15.0312 21.6769 15.0312 21.8767 15.0638C21.3119 12.4988 18.5777 10.5985 15.4438 10.5985C11.9449 10.5985 9.07812 12.9984 9.07812 15.9977C9.07812 17.7308 10.012 19.1968 11.6105 20.2979L10.9764 22.1982L13.2091 21.0992C14.0083 21.2664 14.6425 21.4315 15.4417 21.4315C15.6416 21.4315 15.8414 21.4315 16.0759 21.3989C15.9433 20.9646 15.876 20.5324 15.876 20.0654C15.8781 17.2986 18.2453 15.0312 21.2773 15.0312ZM17.8436 13.2981C18.3432 13.2981 18.6429 13.6305 18.6429 14.0974C18.6429 14.5643 18.3106 14.8967 17.8436 14.8967C17.3441 14.8967 16.8772 14.5623 16.8772 14.0974C16.8772 13.5978 17.3788 13.2981 17.8436 13.2981ZM13.4334 14.7886C12.9297 14.7886 12.4587 14.4583 12.4587 13.9975C12.4587 13.502 12.9624 13.2063 13.4334 13.2063C13.9044 13.2063 14.2388 13.5367 14.2388 13.9975C14.2408 14.4603 13.9044 14.7886 13.4334 14.7886Z" fill="white"/>
<path d="M27.0781 19.9981C27.0781 17.4311 24.5458 15.3656 21.679 15.3656C18.645 15.3656 16.2451 17.4657 16.2451 19.9981C16.2451 22.5652 18.645 24.6307 21.679 24.6307C22.3131 24.6307 22.9452 24.4635 23.5793 24.2983L25.3124 25.2648L24.8455 23.6642C26.1117 22.6977 27.0781 21.4315 27.0781 19.9981ZM19.9112 19.1989C19.6115 19.1989 19.2771 18.8991 19.2771 18.5647C19.2771 18.265 19.6094 17.9306 19.9112 17.9306C20.3781 17.9306 20.7105 18.263 20.7105 18.5647C20.7105 18.8991 20.4107 19.1989 19.9112 19.1989ZM23.5405 19.0439C23.2388 19.0439 22.9023 18.7462 22.9023 18.4179C22.9023 18.1202 23.2388 17.792 23.5405 17.792C24.0115 17.792 24.3459 18.1223 24.3459 18.4179C24.3459 18.7482 24.0115 19.0439 23.5405 19.0439Z" fill="white"/>
</svg>
