<svg width="36" height="36" viewBox="0 0 36 36" fill="none" xmlns="http://www.w3.org/2000/svg">
<path d="M1.00871e-09 18C7.8474e-05 6.75 3.21436 8.78424e-06 18 0C32.7856 -8.78422e-06 36 5.94643 36 18C36 30.8571 30.5358 36 18 36C6.91071 36 -9.64087e-05 31.8214 1.00871e-09 18Z" fill="#E50914"/>
<path d="M20.2396 8.00389C20.8083 7.84393 21.4092 7.83619 21.9818 7.98143C22.6234 8.13892 23.2249 8.43031 23.7464 8.83593C23.9438 8.97472 24.0993 9.16546 24.1956 9.38671C24.2651 9.55591 24.2924 9.73982 24.2747 9.92186C24.2571 10.1038 24.1956 10.279 24.0951 10.4316C23.9357 10.6804 23.684 10.8567 23.3958 10.9219C23.1079 10.9869 22.8058 10.936 22.555 10.7803C22.4315 10.7017 22.3415 10.5889 22.2181 10.5215C21.8886 10.2893 21.4971 10.16 21.0941 10.1504C20.8166 10.1804 20.5598 10.3128 20.3744 10.5215C20.2825 10.6147 20.2153 10.7291 20.1781 10.8545C20.1408 10.9799 20.1344 11.113 20.1605 11.2412L20.5765 12.8027C21.5748 12.8408 22.5481 13.127 23.4085 13.6348C24.2434 14.1461 24.9791 14.8049 25.5785 15.5791C26.0906 16.2513 26.472 17.0141 26.7025 17.8271C26.9477 18.6693 27.0422 19.5487 26.9828 20.4238C26.9301 21.1598 26.7792 21.8853 26.5335 22.581C25.8857 24.2877 24.7026 25.7394 23.1615 26.7178C22.0332 27.422 20.7628 27.8674 19.4417 28.0215C18.5363 28.1558 17.6157 28.1558 16.7103 28.0215C14.8348 27.6954 13.1109 26.7824 11.7874 25.4141C10.6494 24.2612 9.8192 22.8405 9.37338 21.2832C8.92759 19.7259 8.88008 18.0813 9.23569 16.501C9.56654 15.0003 10.2577 13.6024 11.2484 12.4277C12.239 11.2531 13.5 10.3362 14.9232 9.75682C15.1254 9.67648 15.3427 9.64169 15.5599 9.65331C15.7771 9.66495 15.9895 9.72277 16.182 9.82421C16.3469 9.94224 16.4768 10.1032 16.558 10.2891C16.6391 10.475 16.6686 10.6796 16.6429 10.8808C16.6191 11.0856 16.5392 11.2799 16.4124 11.4424C16.2856 11.6049 16.1161 11.7299 15.9232 11.8027C14.7062 12.2664 13.6365 13.0497 12.8275 14.0703C12.0184 15.091 11.5001 16.3117 11.3265 17.6025C11.1643 18.8089 11.303 20.0371 11.7308 21.1767C12.3422 22.8412 13.5419 24.2244 15.1029 25.0654C16.0502 25.5582 17.1035 25.8122 18.1712 25.8066C19.0492 25.8016 19.9202 25.6465 20.7455 25.3467C22.1697 24.8399 23.3555 23.822 24.0726 22.4912C24.2516 22.1709 24.3947 21.8312 24.4994 21.4795C24.7946 20.4591 24.7946 19.3759 24.4994 18.3555C24.2384 17.5056 23.7434 16.7464 23.0716 16.1641C22.779 15.9066 22.4627 15.6761 22.1273 15.4775C21.8312 15.3141 21.5136 15.1931 21.1839 15.1182C21.4087 16.0173 21.6559 16.9167 21.8919 17.8271L22.0042 18.4785C22.0347 19.3881 21.7405 20.2797 21.1742 20.9922C20.6079 21.7046 19.8064 22.1925 18.9134 22.3682C17.9828 22.5542 17.0162 22.3727 16.2162 21.8623C15.4707 21.3677 14.9089 20.6404 14.6195 19.7939C14.4549 19.3198 14.3641 18.8229 14.3499 18.3213C14.2911 17.2221 14.5912 16.1338 15.2044 15.2197C15.9639 14.1597 17.0682 13.3965 18.3285 13.0615L18.0589 12.0166C17.8313 11.2727 17.8918 10.4702 18.2279 9.76854C18.4256 9.37659 18.7006 9.02872 19.0365 8.74608C19.3792 8.415 19.7899 8.16156 20.2396 8.00389ZM18.9359 15.2646C18.3327 15.4275 17.7828 15.7455 17.3402 16.1865C17.0077 16.5372 16.7773 16.9727 16.6761 17.4453C16.5914 17.8756 16.5913 18.3187 16.6761 18.749C16.7612 19.2327 17.0267 19.6665 17.4183 19.9629C17.5808 20.074 17.765 20.1498 17.9583 20.1865C18.1517 20.2232 18.3505 20.2196 18.5423 20.1758C18.8866 20.1086 19.1989 19.9288 19.429 19.6641C19.6591 19.3994 19.7943 19.065 19.8128 18.7148C19.7904 18.5406 19.7561 18.3681 19.7113 18.1982L18.9359 15.2646Z" fill="white"/>
</svg>
