<svg width="36" height="36" viewBox="0 0 36 36" fill="none" xmlns="http://www.w3.org/2000/svg">
<path d="M1.00871e-09 18C7.8474e-05 6.75 3.21436 8.78424e-06 18 0C32.7856 -8.78422e-06 36 5.94643 36 18C36 30.8571 30.5358 36 18 36C6.91071 36 -9.64087e-05 31.8214 1.00871e-09 18Z" fill="#FF8600"/>
<path d="M9 9V27H27V9H9ZM10.6364 10.6364H25.3636V25.3636H10.6364V10.6364ZM14.3182 13.9091L17.1818 18.8182V22.9091H18.8182V18.8182L21.6818 13.9091H20.0455L18 17.4109L15.9545 13.9091H14.3182Z" fill="white"/>
</svg>
