<svg width="36" height="36" viewBox="0 0 36 36" fill="none" xmlns="http://www.w3.org/2000/svg">
<mask id="path-1-inside-1_6_1827" fill="white">
<path d="M1.00871e-09 18C7.8474e-05 6.75 3.21436 8.78424e-06 18 0C32.7856 -8.78422e-06 36 5.94643 36 18C36 30.8571 30.5358 36 18 36C6.91071 36 -9.64087e-05 31.8214 1.00871e-09 18Z"/>
</mask>
<path d="M1.00871e-09 18C7.8474e-05 6.75 3.21436 8.78424e-06 18 0C32.7856 -8.78422e-06 36 5.94643 36 18C36 30.8571 30.5358 36 18 36C6.91071 36 -9.64087e-05 31.8214 1.00871e-09 18Z" fill="#232128"/>
<path d="M1.00871e-09 18L1 18L1.00871e-09 18ZM1.00871e-09 18L1 18C1.00004 12.4188 1.81003 8.23746 4.21467 5.43204C6.5888 2.66223 10.7301 1 18 1V0V-1C10.4842 -0.999996 5.6256 0.712782 2.69616 4.13046C-0.202768 7.51254 -0.99996 12.3312 -1 18L1.00871e-09 18ZM18 0V1C25.3037 0.999996 29.4342 2.47694 31.7961 5.14302C34.1841 7.83854 35 12.0002 35 18H36H37C37 11.9462 36.2087 7.10788 33.2931 3.81679C30.3514 0.496269 25.4819 -1 18 -1V0ZM36 18H35C35 24.3159 33.6537 28.4908 30.9987 31.1095C28.3409 33.7309 24.1622 35 18 35V36V37C24.3736 37 29.1949 35.6977 32.4031 32.5334C35.6142 29.3663 37 24.5413 37 18H36ZM18 36V35C12.5482 35 8.34866 33.9666 5.50644 31.4362C2.68833 28.9271 0.999953 24.7587 1 18L1.00871e-09 18L-1 18C-1.00005 25.0627 0.766929 29.8943 4.17652 32.9299C7.562 35.9441 12.3625 37 18 37V36Z" fill="white" fill-opacity="0.09" mask="url(#path-1-inside-1_6_1827)"/>
<g clip-path="url(#clip0_6_1827)">
<circle cx="18.0005" cy="17.9998" r="12.3401" fill="white"/>
<path d="M17.6732 5.6609C19.8022 5.6048 21.9098 6.10095 23.7904 7.10035C25.671 8.09974 27.2608 9.56919 28.4056 11.365C29.5503 13.1607 30.2114 15.2218 30.3236 17.3484C30.4358 19.4751 29.9957 21.5954 29.0463 23.5017C28.0969 25.4077 26.6703 27.0356 24.9056 28.2273L13.7318 12.5847C13.6307 12.443 13.4869 12.337 13.3217 12.282C13.1562 12.227 12.9769 12.226 12.8109 12.2791C12.6451 12.3322 12.5006 12.4364 12.3978 12.5769C12.2951 12.7175 12.2389 12.8872 12.2386 13.0613V25.4041H13.8851V15.6287L23.4789 29.0603C21.597 29.9928 19.5074 30.43 17.4095 30.3298C15.3118 30.2296 13.274 29.5956 11.4896 28.488C9.70521 27.3805 8.23303 25.8352 7.21228 23.9998C6.19163 22.1644 5.65615 20.0989 5.65662 17.9988C5.6567 15.8691 6.20758 13.7752 7.25623 11.9216C8.30485 10.0681 9.81566 8.51769 11.641 7.42066C13.4663 6.32368 15.5444 5.71704 17.6732 5.6609ZM22.1127 12.239V22.113H23.7582V12.239H22.1127Z" fill="#1D1929"/>
</g>
<defs>
<clipPath id="clip0_6_1827">
<rect width="18" height="18" fill="white" transform="translate(9 8.99994)"/>
</clipPath>
</defs>
</svg>
