<svg width="36" height="36" viewBox="0 0 36 36" fill="none" xmlns="http://www.w3.org/2000/svg">
<mask id="path-1-inside-1_10_3088" fill="white">
<path d="M1.00871e-09 18C7.8474e-05 6.75 3.21436 8.78424e-06 18 0C32.7856 -8.78422e-06 36 5.94643 36 18C36 30.8571 30.5358 36 18 36C6.91071 36 -9.64087e-05 31.8214 1.00871e-09 18Z"/>
</mask>
<path d="M1.00871e-09 18C7.8474e-05 6.75 3.21436 8.78424e-06 18 0C32.7856 -8.78422e-06 36 5.94643 36 18C36 30.8571 30.5358 36 18 36C6.91071 36 -9.64087e-05 31.8214 1.00871e-09 18Z" fill="white"/>
<path d="M1.00871e-09 18L1 18L1.00871e-09 18ZM1.00871e-09 18L1 18C1.00004 12.4188 1.81003 8.23746 4.21467 5.43204C6.5888 2.66223 10.7301 1 18 1V0V-1C10.4842 -0.999996 5.6256 0.712782 2.69616 4.13046C-0.202768 7.51254 -0.99996 12.3312 -1 18L1.00871e-09 18ZM18 0V1C25.3037 0.999996 29.4342 2.47694 31.7961 5.14302C34.1841 7.83854 35 12.0002 35 18H36H37C37 11.9462 36.2087 7.10788 33.2931 3.81679C30.3514 0.496269 25.4819 -1 18 -1V0ZM36 18H35C35 24.3159 33.6537 28.4908 30.9987 31.1095C28.3409 33.7309 24.1622 35 18 35V36V37C24.3736 37 29.1949 35.6977 32.4031 32.5334C35.6142 29.3663 37 24.5413 37 18H36ZM18 36V35C12.5482 35 8.34866 33.9666 5.50644 31.4362C2.68833 28.9271 0.999953 24.7587 1 18L1.00871e-09 18L-1 18C-1.00005 25.0627 0.766929 29.8943 4.17652 32.9299C7.562 35.9441 12.3625 37 18 37V36Z" fill="black" fill-opacity="0.08" mask="url(#path-1-inside-1_10_3088)"/>
<g clip-path="url(#clip0_10_3088)">
<path d="M17.9999 8.99988C13.0499 8.99988 8.99988 13.0499 8.99988 17.9999C8.99988 22.9499 13.0499 26.9999 17.9999 26.9999C22.9499 26.9999 26.9999 22.9499 26.9999 17.9999C26.9999 13.0499 22.9949 8.99988 17.9999 8.99988Z" fill="#1ED75F"/>
<path d="M22.1399 22.0049C21.9599 22.2749 21.6449 22.3649 21.3749 22.1849C19.2599 20.8799 16.6049 20.6099 13.4549 21.3299C13.1399 21.4199 12.8699 21.1949 12.7799 20.9249C12.6899 20.6099 12.9149 20.3399 13.1849 20.2499C16.6049 19.4849 19.5749 19.7999 21.9149 21.2399C22.2299 21.3749 22.2749 21.7349 22.1399 22.0049ZM23.2199 19.5299C22.9949 19.8449 22.5899 19.9799 22.2749 19.7549C19.8449 18.2699 16.1549 17.8199 13.3199 18.7199C12.9599 18.8099 12.5549 18.6299 12.4649 18.2699C12.3749 17.9099 12.5549 17.5049 12.9149 17.4149C16.1999 16.4249 20.2499 16.9199 23.0399 18.6299C23.3099 18.7649 23.4449 19.2149 23.2199 19.5299ZM23.3099 17.0099C20.4299 15.2999 15.6149 15.1199 12.8699 15.9749C12.4199 16.1099 11.9699 15.8399 11.8349 15.4349C11.6999 14.9849 11.9699 14.5349 12.3749 14.3999C15.5699 13.4549 20.8349 13.6349 24.1649 15.6149C24.5699 15.8399 24.7049 16.3799 24.4799 16.7849C24.2549 17.0999 23.7149 17.2349 23.3099 17.0099Z" fill="#191515"/>
</g>
<defs>
<clipPath id="clip0_10_3088">
<rect width="18" height="18" fill="white" transform="translate(8.99988 8.99988)"/>
</clipPath>
</defs>
</svg>
