<svg width="36" height="36" viewBox="0 0 36 36" fill="none" xmlns="http://www.w3.org/2000/svg">
<path d="M1.00871e-09 18C7.8474e-05 6.75 3.21436 8.78424e-06 18 0C32.7856 -8.78422e-06 36 5.94643 36 18C36 30.8571 30.5358 36 18 36C6.91071 36 -9.64087e-05 31.8214 1.00871e-09 18Z" fill="#0078D8"/>
<path d="M27.0025 14.5398V22.398C27.0065 22.5607 26.9423 22.7173 26.8238 22.8298C26.7073 22.9442 26.5507 23.0065 26.388 23.0025H19.9797V17.7851L21.1806 18.7069C21.261 18.7711 21.3614 18.8053 21.4658 18.8012C21.5702 18.8033 21.6747 18.7691 21.757 18.7069L27.0025 14.5398ZM19.9797 13.0256H26.39C26.5486 13.0256 26.6852 13.0738 26.7977 13.1702C26.9101 13.2665 26.9724 13.3951 26.9844 13.5517L21.4558 17.9578L19.9797 16.795V13.0256ZM19.0559 9.64771V26.3522L9.00269 24.6151V11.433L19.0559 9.64771ZM16.0195 18.0341C16.0054 17.1846 15.7845 16.4797 15.3608 15.9234C14.9451 15.3692 14.4048 15.076 13.7622 15.0499C13.1437 15.074 12.6155 15.3672 12.1877 15.9234C11.76 16.4797 11.5471 17.1846 11.5351 18.0341C11.5471 18.8715 11.772 19.5684 12.1998 20.1267C12.6276 20.681 13.1557 20.9762 13.7763 21.0083C14.4169 20.9822 14.9571 20.691 15.3849 20.1307C15.8126 19.5704 16.0375 18.8715 16.0496 18.0321L16.0195 18.0341ZM13.6799 16.1725C14.0032 16.1865 14.2763 16.3653 14.4912 16.7107C14.7041 17.0561 14.8165 17.4939 14.8165 18.0241C14.8165 18.5643 14.7041 19.0041 14.4912 19.3515C14.2663 19.6989 13.9972 19.8797 13.6698 19.8797C13.3425 19.8797 13.0734 19.711 12.8485 19.3615C12.6235 19.0141 12.5231 18.5743 12.5231 18.0461C12.5231 17.518 12.6235 17.0782 12.8485 16.7408C13.0613 16.4034 13.3324 16.2227 13.6598 16.2006L13.6799 16.1725Z" fill="white"/>
</svg>
