<svg width="36" height="36" viewBox="0 0 36 36" fill="none" xmlns="http://www.w3.org/2000/svg">
<path d="M1.00871e-09 18C7.8474e-05 6.75 3.21436 8.78424e-06 18 0C32.7856 -8.78422e-06 36 5.94643 36 18C36 30.8571 30.5358 36 18 36C6.91071 36 -9.64087e-05 31.8214 1.00871e-09 18Z" fill="#205992"/>
<path d="M11.25 10.125H19.125L22.5 18L19.125 25.875H11.25C10.6533 25.875 10.081 25.6379 9.65901 25.216C9.23705 24.794 9 24.2217 9 23.625V12.375C9 11.7783 9.23705 11.206 9.65901 10.784C10.081 10.3621 10.6533 10.125 11.25 10.125Z" fill="white"/>
<path d="M21.375 10.125H23.625L27 18L23.625 25.875H21.375L24.75 18L21.375 10.125Z" fill="white"/>
</svg>
