<svg width="36" height="36" viewBox="0 0 36 36" fill="none" xmlns="http://www.w3.org/2000/svg">
<mask id="path-1-inside-1_10_3071" fill="white">
<path d="M1.00871e-09 18C7.8474e-05 6.75 3.21436 8.78424e-06 18 0C32.7856 -8.78422e-06 36 5.94643 36 18C36 30.8571 30.5358 36 18 36C6.91071 36 -9.64087e-05 31.8214 1.00871e-09 18Z"/>
</mask>
<path d="M1.00871e-09 18C7.8474e-05 6.75 3.21436 8.78424e-06 18 0C32.7856 -8.78422e-06 36 5.94643 36 18C36 30.8571 30.5358 36 18 36C6.91071 36 -9.64087e-05 31.8214 1.00871e-09 18Z" fill="#156DA0"/>
<path d="M1.00871e-09 18L1 18L1.00871e-09 18ZM1.00871e-09 18L1 18C1.00004 12.4188 1.81003 8.23746 4.21467 5.43204C6.5888 2.66223 10.7301 1 18 1V0V-1C10.4842 -0.999996 5.6256 0.712782 2.69616 4.13046C-0.202768 7.51254 -0.99996 12.3312 -1 18L1.00871e-09 18ZM18 0V1C25.3037 0.999996 29.4342 2.47694 31.7961 5.14302C34.1841 7.83854 35 12.0002 35 18H36H37C37 11.9462 36.2087 7.10788 33.2931 3.81679C30.3514 0.496269 25.4819 -1 18 -1V0ZM36 18H35C35 24.3159 33.6537 28.4908 30.9987 31.1095C28.3409 33.7309 24.1622 35 18 35V36V37C24.3736 37 29.1949 35.6977 32.4031 32.5334C35.6142 29.3663 37 24.5413 37 18H36ZM18 36V35C12.5482 35 8.34866 33.9666 5.50644 31.4362C2.68833 28.9271 0.999953 24.7587 1 18L1.00871e-09 18L-1 18C-1.00005 25.0627 0.766929 29.8943 4.17652 32.9299C7.562 35.9441 12.3625 37 18 37V36Z" fill="black" fill-opacity="0.08" mask="url(#path-1-inside-1_10_3071)"/>
<path d="M20.0451 13.6538C20.0451 12.5537 19.805 11.6938 19.3247 11.074C18.8443 10.4542 17.9999 10.1443 16.7913 10.1443C16.6054 10.1443 16.404 10.1443 16.1871 10.1443C15.9702 10.1443 15.7765 10.1598 15.606 10.1908C15.4511 10.2373 15.3581 10.307 15.3271 10.4C15.2962 10.493 15.2807 10.6092 15.2807 10.7486C15.2807 11.6783 15.2729 12.6079 15.2574 13.5376C15.2574 14.4517 15.2574 15.3659 15.2574 16.2801V17.1632C15.3349 17.1787 15.4201 17.1942 15.5131 17.2097C15.606 17.2097 15.6913 17.2097 15.7687 17.2097C16.6054 17.2097 17.3414 17.1013 17.9767 16.8843C18.6274 16.6674 19.131 16.3033 19.4874 15.792C19.8592 15.2652 20.0451 14.5525 20.0451 13.6538ZM26.0414 26.0647C26.0414 26.1887 25.9252 26.2971 25.6928 26.3901C25.4604 26.483 25.1892 26.545 24.8794 26.576C24.585 26.5915 24.2518 26.607 23.88 26.6225C23.5236 26.638 23.2835 26.6457 23.1595 26.6457C22.9426 26.6457 22.6637 26.6302 22.3228 26.5993C21.9819 26.5838 21.7495 26.5528 21.6256 26.5063C21.3622 26.4133 21.091 26.2739 20.8121 26.0879C20.5487 25.8865 20.3318 25.6386 20.1614 25.3442C19.4796 24.1357 18.7979 22.9116 18.1161 21.6721C17.4344 20.417 16.7759 19.1775 16.1406 17.9534L15.2574 17.9302C15.2574 19.1388 15.2574 20.3473 15.2574 21.5559C15.2729 22.7644 15.2807 23.973 15.2807 25.1815C15.2807 25.29 15.3116 25.4139 15.3736 25.5534C15.4356 25.6773 15.5441 25.7393 15.699 25.7393C15.9004 25.7393 16.0786 25.7393 16.2336 25.7393C16.404 25.7238 16.5899 25.7161 16.7913 25.7161C16.8843 25.7161 16.9695 25.7703 17.047 25.8788C17.14 25.9872 17.1865 26.0802 17.1865 26.1577C17.1865 26.2661 17.1477 26.3668 17.0702 26.4598C17.0083 26.5373 16.9153 26.576 16.7913 26.576C16.6364 26.576 16.4892 26.5683 16.3498 26.5528C16.2103 26.5373 16.0709 26.5218 15.9314 26.5063C15.761 26.4908 15.5208 26.483 15.2109 26.483C14.901 26.483 14.5989 26.483 14.3045 26.483C14.0101 26.4676 13.77 26.4598 13.584 26.4598C13.1657 26.4598 12.7938 26.4676 12.4684 26.483C12.1586 26.4985 11.8487 26.514 11.5388 26.5295C11.2289 26.5605 10.857 26.576 10.4232 26.576C10.1133 26.576 9.95837 26.4288 9.95837 26.1344C9.95837 26.0105 10.0126 25.9175 10.1211 25.8555C10.245 25.7781 10.3612 25.7393 10.4697 25.7393C10.6246 25.7393 10.7796 25.7471 10.9345 25.7626C11.0895 25.7626 11.2444 25.7626 11.3993 25.7626C11.8022 25.7626 12.0036 25.5766 12.0036 25.2048V10.8416C12.0036 10.6247 11.9649 10.4775 11.8874 10.4C11.8254 10.3225 11.686 10.2838 11.4691 10.2838C11.3141 10.2838 11.1592 10.2915 11.0042 10.307C10.8493 10.307 10.6944 10.307 10.5394 10.307C10.4309 10.307 10.307 10.276 10.1675 10.2141C10.0281 10.1521 9.95837 10.0514 9.95837 9.91192C9.95837 9.74148 10.0126 9.61753 10.1211 9.54006C10.245 9.46259 10.3845 9.42385 10.5394 9.42385C11.0042 9.42385 11.4691 9.43934 11.9339 9.47033C12.4142 9.50132 12.8945 9.51682 13.3749 9.51682C14.1031 9.51682 14.8391 9.49357 15.5828 9.44709C16.3265 9.38511 17.0625 9.35413 17.7907 9.35413C18.4415 9.35413 19.1077 9.4161 19.7895 9.54006C20.4712 9.64852 21.0988 9.84994 21.672 10.1443C22.2608 10.4232 22.7334 10.8183 23.0898 11.3296C23.4616 11.841 23.6476 12.484 23.6476 13.2587C23.6476 14.1728 23.4616 14.9243 23.0898 15.5131C22.7334 16.1019 22.2298 16.5667 21.5791 16.9076C20.9438 17.233 20.2001 17.4886 19.3479 17.6746C19.9987 18.8676 20.7269 20.0529 21.5326 21.2305C22.3383 22.3926 23.1285 23.5314 23.9032 24.647C24.0737 24.8949 24.2906 25.1196 24.554 25.321C24.8329 25.5069 25.1195 25.6386 25.4139 25.7161C25.5379 25.7316 25.6696 25.7393 25.809 25.7393C25.964 25.7393 26.0414 25.8478 26.0414 26.0647Z" fill="white"/>
</svg>
