<svg width="36" height="36" viewBox="0 0 36 36" fill="none" xmlns="http://www.w3.org/2000/svg">
<mask id="path-1-inside-1_333_2185" fill="white">
<path d="M1.00871e-09 18C7.8474e-05 6.75 3.21436 8.78424e-06 18 0C32.7856 -8.78422e-06 36 5.94643 36 18C36 30.8571 30.5358 36 18 36C6.91071 36 -9.64087e-05 31.8214 1.00871e-09 18Z"/>
</mask>
<path d="M1.00871e-09 18C7.8474e-05 6.75 3.21436 8.78424e-06 18 0C32.7856 -8.78422e-06 36 5.94643 36 18C36 30.8571 30.5358 36 18 36C6.91071 36 -9.64087e-05 31.8214 1.00871e-09 18Z" fill="white"/>
<path d="M1.00871e-09 18L1 18L1.00871e-09 18ZM1.00871e-09 18L1 18C1.00004 12.4188 1.81003 8.23746 4.21467 5.43204C6.5888 2.66223 10.7301 1 18 1V0V-1C10.4842 -0.999996 5.6256 0.712782 2.69616 4.13046C-0.202768 7.51254 -0.99996 12.3312 -1 18L1.00871e-09 18ZM18 0V1C25.3037 0.999996 29.4342 2.47694 31.7961 5.14302C34.1841 7.83854 35 12.0002 35 18H36H37C37 11.9462 36.2087 7.10788 33.2931 3.81679C30.3514 0.496269 25.4819 -1 18 -1V0ZM36 18H35C35 24.3159 33.6537 28.4908 30.9987 31.1095C28.3409 33.7309 24.1622 35 18 35V36V37C24.3736 37 29.1949 35.6977 32.4031 32.5334C35.6142 29.3663 37 24.5413 37 18H36ZM18 36V35C12.5482 35 8.34866 33.9666 5.50644 31.4362C2.68833 28.9271 0.999953 24.7587 1 18L1.00871e-09 18L-1 18C-1.00005 25.0627 0.766929 29.8943 4.17652 32.9299C7.562 35.9441 12.3625 37 18 37V36Z" fill="black" fill-opacity="0.08" mask="url(#path-1-inside-1_333_2185)"/>
<path d="M21.997 25.1895L19.2659 25.1737L16.4559 21.0218H14.6878V25.1895H12.3987V13.6337H16.3927C17.2978 13.6337 18.0924 13.7863 18.7765 14.0915C19.4606 14.3967 19.9868 14.8335 20.3552 15.4018C20.7235 15.9596 20.9077 16.6016 20.9077 17.3278C20.9077 18.0645 20.7183 18.7117 20.3394 19.2695C19.9605 19.8273 19.429 20.2536 18.7449 20.5482L21.997 25.1895ZM14.6878 15.5755V19.0801H16.1244C16.7979 19.0801 17.3557 18.938 17.7977 18.6539C18.2503 18.3592 18.4766 17.9171 18.4766 17.3278C18.4766 16.7279 18.2556 16.2859 17.8135 16.0017C17.3715 15.7176 16.8085 15.5755 16.1244 15.5755H14.6878Z" fill="black"/>
<path d="M24.1923 14.0584V13.1834H26.1523V15.2694C25.9936 15.5261 25.7393 15.7314 25.3893 15.8854C25.0439 16.0348 24.6613 16.1094 24.2413 16.1094C23.7419 16.1094 23.2986 15.9974 22.9113 15.7734C22.5239 15.5494 22.2229 15.2368 22.0083 14.8354C21.7936 14.4341 21.6863 13.9744 21.6863 13.4564C21.6863 12.9338 21.7959 12.4718 22.0153 12.0704C22.2393 11.6691 22.5449 11.3588 22.9323 11.1394C23.3196 10.9201 23.7489 10.8104 24.2203 10.8104C24.6916 10.8104 25.0999 10.9178 25.4453 11.1324C25.7953 11.3424 26.0309 11.6131 26.1523 11.9444L25.3123 12.4274C25.2096 12.2128 25.0626 12.0448 24.8713 11.9234C24.6799 11.7974 24.4536 11.7344 24.1923 11.7344C23.9169 11.7344 23.6696 11.8044 23.4503 11.9444C23.2309 12.0844 23.0583 12.2851 22.9323 12.5464C22.8063 12.8078 22.7433 13.1111 22.7433 13.4564C22.7433 13.8111 22.8063 14.1191 22.9323 14.3804C23.0629 14.6418 23.2449 14.8424 23.4783 14.9824C23.7163 15.1224 23.9916 15.1924 24.3043 15.1924C24.6683 15.1924 24.9529 15.0921 25.1583 14.8914V14.0584H24.1923Z" fill="black"/>
</svg>
