<svg width="36" height="36" viewBox="0 0 36 36" fill="none" xmlns="http://www.w3.org/2000/svg">
<path d="M1.00871e-09 18C7.8474e-05 6.75 3.21436 8.78424e-06 18 0C32.7856 -8.78422e-06 36 5.94643 36 18C36 30.8571 30.5358 36 18 36C6.91071 36 -9.64087e-05 31.8214 1.00871e-09 18Z" fill="#0066FF"/>
<path d="M17.1941 10.5026C16.7822 10.7783 14.769 12.1144 12.722 13.4738C10.6735 14.8324 9 15.9561 9 15.9697C9 15.984 9.10243 16.0525 9.22971 16.1203C9.35548 16.1926 11.3762 17.3125 13.7222 18.6132L17.9819 20.9803L18.0904 20.9246C18.1521 20.8944 19.7239 19.9967 21.5864 18.9348L24.9703 17.0007L24.9906 22.9859H27V15.981L24.3941 14.2337C20.8815 11.8809 18.0738 10.0267 18.0045 10.0116C17.9706 10.0056 17.6076 10.2277 17.1941 10.5026ZM12.9954 21.4894L13.0059 22.9995L15.4988 24.4959L17.9917 25.9887L20.5049 24.4824L23.0144 22.9723V21.4796C23.0144 20.6572 23.0046 19.9862 22.9941 19.9862C22.9835 19.9862 22.0014 20.5751 20.81 21.2974L18.3201 22.8006L17.9955 22.9934L17.0013 22.3977C16.1748 21.9035 15.3499 21.4067 14.5265 20.9072L13.0165 19.9959C12.9984 19.9899 12.9924 20.661 12.9962 21.4894" fill="white"/>
</svg>
