<svg width="36" height="36" viewBox="0 0 36 36" fill="none" xmlns="http://www.w3.org/2000/svg">
<path d="M1.00871e-09 18C7.8474e-05 6.75 3.21436 8.78424e-06 18 0C32.7856 -8.78422e-06 36 5.94643 36 18C36 30.8571 30.5358 36 18 36C6.91071 36 -9.64087e-05 31.8214 1.00871e-09 18Z" fill="#00984B"/>
<path d="M9.99111 23.187C10.7462 23.871 11.8315 24.4848 12.8699 24.4848C13.6249 24.4848 14.4742 24.1544 14.4742 23.2577C14.4742 22.2668 13.318 22.1016 12.0203 21.5352C10.5574 20.898 9.33029 20.1196 9.33029 18.2553C9.33029 15.8249 11.2888 14.7869 13.7191 14.7869C15.0405 14.7869 16.4564 15.0938 17.4708 15.7543V16.0373L16.527 17.9016C15.8664 17.4061 14.9696 17.0759 13.9785 17.0759C13.1056 17.0759 12.5629 17.4296 12.5629 18.1139C12.5629 19.0103 13.6012 19.1993 14.899 19.6947C16.6921 20.3791 17.7774 21.1342 17.7774 23.0452C17.7774 25.5462 15.8191 26.632 13.2237 26.632C11.5718 26.632 10.2505 26.1834 9 25.2398V24.9568L9.99109 23.187L9.99111 23.187ZM20.6548 26.6078C20.6548 26.3684 20.7022 19.8557 20.726 17.605C20.0804 17.6288 19.4091 17.6288 19.2183 17.6288L19.242 15.2105C19.4338 15.2105 20.0804 15.2105 20.7023 15.2343C20.7023 15.1384 20.6548 13.1511 20.6548 13.0794C20.6548 10.374 22.2347 9.36804 24.294 9.36804C25.1799 9.36804 26.0894 9.51188 27 9.89499V10.2539L26.305 12.1694C25.9223 11.9538 25.4913 11.8342 25.1077 11.8342C24.4375 11.8342 24.0064 12.1694 24.0064 13.4383C24.0064 13.8693 24.031 15.1383 24.031 15.2342C24.7489 15.2105 26.1142 15.2105 26.305 15.2105L26.2812 17.6287C26.0894 17.6287 24.7251 17.6287 24.0064 17.605C24.0547 19.8556 24.0547 26.3684 24.0547 26.6077H20.6548L20.6548 26.6078Z" fill="white"/>
</svg>
