<svg width="36" height="36" viewBox="0 0 36 36" fill="none" xmlns="http://www.w3.org/2000/svg">
<mask id="path-1-inside-1_10_2909" fill="white">
<path d="M1.00871e-09 18C7.8474e-05 6.75 3.21436 8.78424e-06 18 0C32.7856 -8.78422e-06 36 5.94643 36 18C36 30.8571 30.5358 36 18 36C6.91071 36 -9.64087e-05 31.8214 1.00871e-09 18Z"/>
</mask>
<path d="M1.00871e-09 18C7.8474e-05 6.75 3.21436 8.78424e-06 18 0C32.7856 -8.78422e-06 36 5.94643 36 18C36 30.8571 30.5358 36 18 36C6.91071 36 -9.64087e-05 31.8214 1.00871e-09 18Z" fill="white"/>
<path d="M1.00871e-09 18L1 18L1.00871e-09 18ZM1.00871e-09 18L1 18C1.00004 12.4188 1.81003 8.23746 4.21467 5.43204C6.5888 2.66223 10.7301 1 18 1V0V-1C10.4842 -0.999996 5.6256 0.712782 2.69616 4.13046C-0.202768 7.51254 -0.99996 12.3312 -1 18L1.00871e-09 18ZM18 0V1C25.3037 0.999996 29.4342 2.47694 31.7961 5.14302C34.1841 7.83854 35 12.0002 35 18H36H37C37 11.9462 36.2087 7.10788 33.2931 3.81679C30.3514 0.496269 25.4819 -1 18 -1V0ZM36 18H35C35 24.3159 33.6537 28.4908 30.9987 31.1095C28.3409 33.7309 24.1622 35 18 35V36V37C24.3736 37 29.1949 35.6977 32.4031 32.5334C35.6142 29.3663 37 24.5413 37 18H36ZM18 36V35C12.5482 35 8.34866 33.9666 5.50644 31.4362C2.68833 28.9271 0.999953 24.7587 1 18L1.00871e-09 18L-1 18C-1.00005 25.0627 0.766929 29.8943 4.17652 32.9299C7.562 35.9441 12.3625 37 18 37V36Z" fill="black" fill-opacity="0.08" mask="url(#path-1-inside-1_10_2909)"/>
<g clip-path="url(#clip0_10_2909)">
<path d="M14.0627 10.2376C12.2064 11.1939 11.1939 12.2064 10.2939 14.0626C8.66267 17.2126 8.66267 18.7876 10.2377 21.9376C11.6439 24.6376 15.2439 27.0001 18.0002 27.0001C20.7564 27.0001 24.3564 24.6376 25.7627 21.9376C27.3377 18.7876 27.3377 17.2126 25.7627 14.0626C24.3564 11.3626 20.7564 9.00012 18.0002 9.00012C17.2127 9.00012 15.4127 9.56262 14.0627 10.2376ZM17.0439 14.4001C20.5314 16.1439 22.5002 17.8314 22.5002 19.1251C22.5002 20.3064 20.0252 23.0626 18.9564 23.0626C17.8314 23.0626 17.2127 22.1064 16.3689 19.1251C15.9752 17.7189 15.1877 15.7501 14.5689 14.7376C14.0064 13.7814 13.6689 12.9376 13.8377 12.9376C13.9502 12.9376 15.4127 13.6126 17.0439 14.4001Z" fill="#2C2C2C"/>
</g>
<defs>
<clipPath id="clip0_10_2909">
<rect width="18" height="18" fill="white" transform="translate(9.00012 9.00012)"/>
</clipPath>
</defs>
</svg>
