<svg width="36" height="36" viewBox="0 0 36 36" fill="none" xmlns="http://www.w3.org/2000/svg">
<mask id="path-1-inside-1_12_3346" fill="white">
<path d="M1.00871e-09 18C7.8474e-05 6.75 3.21436 8.78424e-06 18 0C32.7856 -8.78422e-06 36 5.94643 36 18C36 30.8571 30.5358 36 18 36C6.91071 36 -9.64087e-05 31.8214 1.00871e-09 18Z"/>
</mask>
<path d="M1.00871e-09 18C7.8474e-05 6.75 3.21436 8.78424e-06 18 0C32.7856 -8.78422e-06 36 5.94643 36 18C36 30.8571 30.5358 36 18 36C6.91071 36 -9.64087e-05 31.8214 1.00871e-09 18Z" fill="white"/>
<path d="M1.00871e-09 18L1 18L1.00871e-09 18ZM1.00871e-09 18L1 18C1.00004 12.4188 1.81003 8.23746 4.21467 5.43204C6.5888 2.66223 10.7301 1 18 1V0V-1C10.4842 -0.999996 5.6256 0.712782 2.69616 4.13046C-0.202768 7.51254 -0.99996 12.3312 -1 18L1.00871e-09 18ZM18 0V1C25.3037 0.999996 29.4342 2.47694 31.7961 5.14302C34.1841 7.83854 35 12.0002 35 18H36H37C37 11.9462 36.2087 7.10788 33.2931 3.81679C30.3514 0.496269 25.4819 -1 18 -1V0ZM36 18H35C35 24.3159 33.6537 28.4908 30.9987 31.1095C28.3409 33.7309 24.1622 35 18 35V36V37C24.3736 37 29.1949 35.6977 32.4031 32.5334C35.6142 29.3663 37 24.5413 37 18H36ZM18 36V35C12.5482 35 8.34866 33.9666 5.50644 31.4362C2.68833 28.9271 0.999953 24.7587 1 18L1.00871e-09 18L-1 18C-1.00005 25.0627 0.766929 29.8943 4.17652 32.9299C7.562 35.9441 12.3625 37 18 37V36Z" fill="black" fill-opacity="0.08" mask="url(#path-1-inside-1_12_3346)"/>
<g clip-path="url(#clip0_12_3346)">
<path d="M13.293 20.3175C13.293 21.3585 12.5002 22.203 11.5215 22.203C10.5435 22.203 9.75 21.3585 9.75 20.3175C9.75 19.2765 10.5435 18.432 11.5215 18.432H13.293V20.3175ZM14.1788 20.3175C14.1788 19.275 14.9723 18.4313 15.951 18.4313C16.929 18.4313 17.7225 19.2758 17.7225 20.3168V25.0328C17.7225 26.0745 16.929 26.919 15.951 26.919C14.9723 26.919 14.1788 26.0745 14.1788 25.0328V20.3168V20.3175Z" fill="#E01E5A"/>
<path d="M15.9503 12.7725C14.9723 12.7725 14.1788 11.928 14.1788 10.8862C14.1788 9.8445 14.9723 9 15.9503 9C16.929 9 17.7225 9.8445 17.7225 10.8862V12.7725H15.9503ZM15.9503 13.7152C16.929 13.7152 17.7225 14.5605 17.7225 15.6015C17.7225 16.644 16.929 17.4878 15.9503 17.4878H11.5215C10.5435 17.4878 9.75 16.6433 9.75 15.6015C9.75 14.5605 10.5435 13.7152 11.5215 13.7152H15.9503Z" fill="#36C5F0"/>
<path d="M23.037 15.6015C23.037 14.5605 23.8298 13.7152 24.8085 13.7152C25.7865 13.7152 26.58 14.5605 26.58 15.6015C26.58 16.644 25.7865 17.4878 24.8085 17.4878H23.037V15.6015ZM22.1513 15.6015C22.1513 16.644 21.3578 17.4878 20.379 17.4878C19.401 17.4878 18.6075 16.6433 18.6075 15.6015V10.8862C18.6075 9.8445 19.401 9 20.379 9C21.3578 9 22.1513 9.8445 22.1513 10.8862V15.6015Z" fill="#2EB67D"/>
<path d="M20.3798 23.1465C21.3578 23.1465 22.1513 23.991 22.1513 25.0328C22.1513 26.0745 21.3578 26.919 20.3798 26.919C19.401 26.919 18.6075 26.0745 18.6075 25.0328V23.1465H20.3798ZM20.3798 22.203C19.401 22.203 18.6075 21.3585 18.6075 20.3168C18.6075 19.2758 19.401 18.4305 20.3798 18.4305H24.8078C25.7865 18.4305 26.5793 19.2758 26.5793 20.3168C26.5793 21.3593 25.7865 22.203 24.8078 22.203H20.3798Z" fill="#ECB22E"/>
</g>
<defs>
<clipPath id="clip0_12_3346">
<rect width="18" height="18" fill="white" transform="translate(9 9)"/>
</clipPath>
</defs>
</svg>
