<svg width="36" height="36" viewBox="0 0 36 36" fill="none" xmlns="http://www.w3.org/2000/svg">
<mask id="path-1-inside-1_10_2920" fill="white">
<path d="M1.00871e-09 18C7.8474e-05 6.75 3.21436 8.78424e-06 18 0C32.7856 -8.78422e-06 36 5.94643 36 18C36 30.8571 30.5358 36 18 36C6.91071 36 -9.64087e-05 31.8214 1.00871e-09 18Z"/>
</mask>
<path d="M1.00871e-09 18C7.8474e-05 6.75 3.21436 8.78424e-06 18 0C32.7856 -8.78422e-06 36 5.94643 36 18C36 30.8571 30.5358 36 18 36C6.91071 36 -9.64087e-05 31.8214 1.00871e-09 18Z" fill="#232128"/>
<path d="M1.00871e-09 18L1 18L1.00871e-09 18ZM1.00871e-09 18L1 18C1.00004 12.4188 1.81003 8.23746 4.21467 5.43204C6.5888 2.66223 10.7301 1 18 1V0V-1C10.4842 -0.999996 5.6256 0.712782 2.69616 4.13046C-0.202768 7.51254 -0.99996 12.3312 -1 18L1.00871e-09 18ZM18 0V1C25.3037 0.999996 29.4342 2.47694 31.7961 5.14302C34.1841 7.83854 35 12.0002 35 18H36H37C37 11.9462 36.2087 7.10788 33.2931 3.81679C30.3514 0.496269 25.4819 -1 18 -1V0ZM36 18H35C35 24.3159 33.6537 28.4908 30.9987 31.1095C28.3409 33.7309 24.1622 35 18 35V36V37C24.3736 37 29.1949 35.6977 32.4031 32.5334C35.6142 29.3663 37 24.5413 37 18H36ZM18 36V35C12.5482 35 8.34866 33.9666 5.50644 31.4362C2.68833 28.9271 0.999953 24.7587 1 18L1.00871e-09 18L-1 18C-1.00005 25.0627 0.766929 29.8943 4.17652 32.9299C7.562 35.9441 12.3625 37 18 37V36Z" fill="white" fill-opacity="0.09" mask="url(#path-1-inside-1_10_2920)"/>
<g clip-path="url(#clip0_10_2920)">
<path d="M21.1501 21.1501H27.0001V25.2001C27.0001 25.6775 26.8105 26.1354 26.4729 26.4729C26.1354 26.8105 25.6775 27.0001 25.2001 27.0001H21.1501V21.1501Z" fill="#FF46FB"/>
<path d="M14.8501 21.1501H21.1501V27.0001H14.8501V21.1501Z" fill="#CA41FC"/>
<path d="M9.00012 21.1501H14.8501V27.0001H10.8001C10.3227 27.0001 9.8649 26.8105 9.52733 26.4729C9.18976 26.1354 9.00012 25.6775 9.00012 25.2001V21.1501Z" fill="#8B48FE"/>
<path d="M27.0001 14.8501H21.1501V21.1501H27.0001V14.8501Z" fill="#81E650"/>
<path d="M21.1501 14.8501H14.8501V21.1501H21.1501V14.8501Z" fill="#00D267"/>
<path d="M14.8501 14.8501H9.00012V21.1501H14.8501V14.8501Z" fill="#00C0FF"/>
<path d="M21.1501 9.00012H25.2001C25.6775 9.00012 26.1354 9.18976 26.4729 9.52733C26.8105 9.8649 27.0001 10.3227 27.0001 10.8001V14.8501H21.1501V9.00012Z" fill="#FFD200"/>
<path d="M14.8501 9.00012H21.1501V14.8501H14.8501V9.00012Z" fill="#FF8E00"/>
<path d="M9.00012 10.8001C9.00012 10.3227 9.18976 9.8649 9.52733 9.52733C9.8649 9.18976 10.3227 9.00012 10.8001 9.00012H14.8501V14.8501H9.00012V10.8001Z" fill="#FF5400"/>
</g>
<defs>
<clipPath id="clip0_10_2920">
<rect width="18" height="18" fill="white" transform="translate(9.00012 9.00012)"/>
</clipPath>
</defs>
</svg>
