<svg width="36" height="36" viewBox="0 0 36 36" fill="none" xmlns="http://www.w3.org/2000/svg">
<path d="M1.00871e-09 18C7.8474e-05 6.75 3.21436 8.78424e-06 18 0C32.7856 -8.78422e-06 36 5.94643 36 18C36 30.8571 30.5358 36 18 36C6.91071 36 -9.64087e-05 31.8214 1.00871e-09 18Z" fill="#D81E06"/>
<path d="M25.1786 9.57672C20.3776 10.3649 15.5802 11.1819 10.7792 11.9808C9.23884 12.2363 9.05171 12.4415 9.00132 14.0106C8.97613 14.77 9.31083 15.1407 10.081 15.0291C11.0131 14.896 11.9417 14.7376 13.0178 14.5649V16.8142C13.0178 19.6178 13.0178 22.4178 13.0214 25.2214C13.0214 25.8908 13.0825 26.5746 14.0039 26.4666C14.9828 26.355 15.9293 25.1962 15.9329 24.1957C15.9401 22.3026 15.9365 20.4132 15.9365 18.5201V14.061C17.3617 13.8271 18.6897 13.6075 20.1797 13.3628C20.1797 15.0147 20.2876 16.5227 20.1545 18.0055C19.9169 20.6975 20.5359 23.1016 21.9899 25.3761C22.5262 26.2147 23.012 26.6501 24.0341 26.5854C25.4917 26.4918 25.6609 26.2651 25.0167 24.955C24.3724 23.6378 23.3647 22.3494 23.2172 20.971C22.9293 18.315 23.1344 15.605 23.1344 12.877C23.9946 12.7222 24.7827 12.5782 25.5745 12.4379C26.6974 12.2399 27.176 11.5238 26.9421 10.1957C26.7333 9.04049 25.848 9.46516 25.1786 9.57672Z" fill="white"/>
</svg>
