<svg width="36" height="36" viewBox="0 0 36 36" fill="none" xmlns="http://www.w3.org/2000/svg">
<path d="M1.00871e-09 18C7.8474e-05 6.75 3.21436 8.78424e-06 18 0C32.7856 -8.78422e-06 36 5.94643 36 18C36 30.8571 30.5358 36 18 36C6.91071 36 -9.64087e-05 31.8214 1.00871e-09 18Z" fill="#FF8600"/>
<path d="M23.8297 26.7512V21.0547H25.725V28.6571H8.625V21.0547H10.5309V26.7512H23.8297ZM12.6168 20.5253L13.0085 18.6618L22.3156 20.6206L21.9238 22.4841L12.6168 20.5253ZM13.845 16.0677L14.6497 14.363L23.2685 18.3653L22.4638 20.0806L13.845 16.0677ZM16.2379 11.843L17.4556 10.3818L24.7615 16.4806L23.5438 17.9312L16.2379 11.843ZM20.9497 7.34296L26.625 14.9771L25.1003 16.11L19.425 8.4759L20.9497 7.34296ZM12.4262 24.8559V22.95H21.9344V24.8559H12.4262Z" fill="white"/>
</svg>
