<svg width="36" height="36" viewBox="0 0 36 36" fill="none" xmlns="http://www.w3.org/2000/svg">
<path d="M1.00871e-09 18C7.8474e-05 6.75 3.21436 8.78424e-06 18 0C32.7856 -8.78422e-06 36 5.94643 36 18C36 30.8571 30.5358 36 18 36C6.91071 36 -9.64087e-05 31.8214 1.00871e-09 18Z" fill="#06B6D4"/>
<g clip-path="url(#clip0_6_1808)">
<path d="M18.0041 12.5305C15.6028 12.5305 14.1025 13.7239 13.5019 16.1107C14.4024 14.9173 15.4529 14.4699 16.6533 14.768C17.3382 14.9381 17.828 15.4321 18.3697 15.9791C19.2525 16.8697 20.2744 17.9004 22.506 17.9004C24.9069 17.9004 26.4076 16.707 27.0079 14.3206C26.1077 15.514 25.0572 15.9614 23.8568 15.6629C23.1715 15.4928 22.6817 14.9988 22.1401 14.4522C21.2572 13.5609 20.2356 12.5305 18.0041 12.5305ZM13.5019 17.9004C11.101 17.9004 9.60023 19.0938 9 21.4806C9.90052 20.2872 10.951 19.8398 12.1511 20.138C12.8364 20.3081 13.3261 20.8021 13.8678 21.349C14.7507 22.2396 15.7722 23.2704 18.0041 23.2704C20.405 23.2704 21.9058 22.0773 22.506 19.6905C21.6055 20.8839 20.555 21.3314 19.3545 21.0332C18.6696 20.8628 18.1798 20.3687 17.6382 19.8222C16.7553 18.9315 15.7334 17.9004 13.5019 17.9004Z" fill="white"/>
</g>
<defs>
<clipPath id="clip0_6_1808">
<rect width="18" height="18" fill="white" transform="translate(9 8.99994)"/>
</clipPath>
</defs>
</svg>
