<svg width="36" height="36" viewBox="0 0 36 36" fill="none" xmlns="http://www.w3.org/2000/svg">
<mask id="path-1-inside-1_6_1778" fill="white">
<path d="M1.00871e-09 18C7.8474e-05 6.75 3.21436 8.78424e-06 18 0C32.7856 -8.78422e-06 36 5.94643 36 18C36 30.8571 30.5358 36 18 36C6.91071 36 -9.64087e-05 31.8214 1.00871e-09 18Z"/>
</mask>
<path d="M1.00871e-09 18C7.8474e-05 6.75 3.21436 8.78424e-06 18 0C32.7856 -8.78422e-06 36 5.94643 36 18C36 30.8571 30.5358 36 18 36C6.91071 36 -9.64087e-05 31.8214 1.00871e-09 18Z" fill="white"/>
<path d="M1.00871e-09 18L1 18L1.00871e-09 18ZM1.00871e-09 18L1 18C1.00004 12.4188 1.81003 8.23746 4.21467 5.43204C6.5888 2.66223 10.7301 1 18 1V0V-1C10.4842 -0.999996 5.6256 0.712782 2.69616 4.13046C-0.202768 7.51254 -0.99996 12.3312 -1 18L1.00871e-09 18ZM18 0V1C25.3037 0.999996 29.4342 2.47694 31.7961 5.14302C34.1841 7.83854 35 12.0002 35 18H36H37C37 11.9462 36.2087 7.10788 33.2931 3.81679C30.3514 0.496269 25.4819 -1 18 -1V0ZM36 18H35C35 24.3159 33.6537 28.4908 30.9987 31.1095C28.3409 33.7309 24.1622 35 18 35V36V37C24.3736 37 29.1949 35.6977 32.4031 32.5334C35.6142 29.3663 37 24.5413 37 18H36ZM18 36V35C12.5482 35 8.34866 33.9666 5.50644 31.4362C2.68833 28.9271 0.999953 24.7587 1 18L1.00871e-09 18L-1 18C-1.00005 25.0627 0.766929 29.8943 4.17652 32.9299C7.562 35.9441 12.3625 37 18 37V36Z" fill="black" fill-opacity="0.08" mask="url(#path-1-inside-1_6_1778)"/>
<path d="M20.4053 23.8035L21.0768 23.6293L20.8224 23.7728C20.6697 23.8649 20.5681 24.0288 20.5681 24.213V24.4999L20.4053 23.8035Z" fill="#142C46"/>
<path d="M23.2845 10.9114C22.9472 11.4736 23.0596 12.5979 23.5094 13.385C24.0716 14.1721 24.7462 14.3969 25.0835 13.8347C25.4208 13.2726 25.3084 12.1482 24.8586 11.3612C24.2964 10.5741 23.6218 10.3492 23.2845 10.9114ZM9.00513 15.7462C9.00513 16.983 9.56731 17.9949 10.1295 17.9949C10.8041 17.9949 11.2538 16.983 11.2538 15.7462C11.2538 14.5094 10.8041 13.4974 10.1295 13.4974C9.56731 13.4974 9.00513 14.5094 9.00513 15.7462ZM19.799 15.6337C19.4617 16.1959 19.9114 16.8705 20.8109 17.3203C21.7104 17.6576 22.4975 17.4327 22.4975 16.8705C22.4975 15.4089 20.4736 14.3969 19.799 15.6337ZM13.9523 17.4327C12.9404 19.9063 14.0648 20.6934 15.6389 18.6695C16.5383 17.5451 16.6508 16.8705 15.7513 16.3083C15.1891 15.971 14.2896 16.4208 13.9523 17.4327ZM17.4378 19.1192C17.1005 19.6814 17.5503 20.2436 18.4498 20.2436C19.4617 20.2436 20.2487 19.6814 20.2487 19.1192C20.2487 18.4446 19.799 17.9949 19.2368 17.9949C18.5622 17.9949 17.7751 18.4446 17.4378 19.1192ZM19.5741 22.0426C17.5503 23.6167 17.5503 23.7291 20.0239 22.4923C21.3731 21.8177 22.4975 21.0307 22.4975 20.8058C22.4975 19.9063 21.9353 20.1312 19.5741 22.0426Z" fill="black"/>
<path d="M24.7461 21.1431C24.7461 22.6048 19.4616 24.741 15.7512 24.741C13.9523 24.741 12.1533 25.3032 11.816 25.8654C11.0289 27.1022 22.1601 27.4395 25.1959 26.3151C27.1073 25.5281 27.6695 20.2436 25.8705 20.2436C25.3083 20.2436 24.7461 20.6933 24.7461 21.1431Z" fill="black"/>
</svg>
