<svg width="36" height="36" viewBox="0 0 36 36" fill="none" xmlns="http://www.w3.org/2000/svg">
<path d="M1.00871e-09 18C7.8474e-05 6.75 3.21436 8.78424e-06 18 0C32.7856 -8.78422e-06 36 5.94643 36 18C36 30.8571 30.5358 36 18 36C6.91071 36 -9.64087e-05 31.8214 1.00871e-09 18Z" fill="#0079BF"/>
<g clip-path="url(#clip0_9_2021)">
<path d="M11.25 9C10.0072 9 9 10.008 9 11.25V24.75C9 25.9928 10.008 27 11.25 27H24.75C25.9928 27 27 25.992 27 24.75V11.25C27 10.0072 25.992 9 24.75 9H11.25Z" fill="#0079BF"/>
<path d="M19.5 12V18.75C19.5 18.9489 19.579 19.1397 19.7197 19.2803C19.8603 19.421 20.0511 19.5 20.25 19.5H24C24.1989 19.5 24.3897 19.421 24.5303 19.2803C24.671 19.1397 24.75 18.9489 24.75 18.75V12C24.75 11.8011 24.671 11.6103 24.5303 11.4697C24.3897 11.329 24.1989 11.25 24 11.25H20.25C20.0511 11.25 19.8603 11.329 19.7197 11.4697C19.579 11.6103 19.5 11.8011 19.5 12ZM11.25 12V23.25C11.25 23.4489 11.329 23.6397 11.4697 23.7803C11.6103 23.921 11.8011 24 12 24H15.75C15.9489 24 16.1397 23.921 16.2803 23.7803C16.421 23.6397 16.5 23.4489 16.5 23.25V12C16.5 11.8011 16.421 11.6103 16.2803 11.4697C16.1397 11.329 15.9489 11.25 15.75 11.25H12C11.8011 11.25 11.6103 11.329 11.4697 11.4697C11.329 11.6103 11.25 11.8011 11.25 12Z" fill="white"/>
</g>
<defs>
<clipPath id="clip0_9_2021">
<rect width="18" height="18" fill="white" transform="translate(9 9)"/>
</clipPath>
</defs>
</svg>
