<svg width="36" height="36" viewBox="0 0 36 36" fill="none" xmlns="http://www.w3.org/2000/svg">
<path d="M1.00871e-09 18C7.8474e-05 6.75 3.21436 8.78424e-06 18 0C32.7856 -8.78422e-06 36 5.94643 36 18C36 30.8571 30.5358 36 18 36C6.91071 36 -9.64087e-05 31.8214 1.00871e-09 18Z" fill="#1296DB"/>
<path d="M26.95 11.7443C26.7072 11.7443 26.5251 11.9568 26.5251 12.1693V24.2806C26.5251 24.6448 26.434 24.9484 26.2822 25.1001C26.0394 25.343 25.6448 25.343 25.6448 25.343H25.0074C25.1591 25.1001 25.2502 24.7662 25.2502 24.4627V10.2873C25.2502 9.31598 24.4914 8.55713 23.52 8.55713H11.1052C10.1339 8.55713 9.375 9.31598 9.375 10.2873V24.4627C9.375 25.434 10.1339 26.1929 11.1052 26.1929H23.4593C23.5504 26.1929 23.6111 26.1929 23.7022 26.1625C23.7325 26.1625 23.7932 26.1929 23.8236 26.1929H25.6145C25.7662 26.1929 26.343 26.1625 26.8286 25.7072C27.1625 25.3733 27.375 24.8876 27.375 24.2502V12.1996C27.375 11.9568 27.1929 11.7443 26.95 11.7443ZM10.2249 24.493V10.2873C10.2249 9.80165 10.6195 9.40704 11.1052 9.40704H23.4593C23.945 9.40704 24.3396 9.80165 24.3396 10.2873V24.4627C24.3396 24.9484 23.945 25.343 23.4593 25.343H11.1052C10.6195 25.3733 10.2249 24.9787 10.2249 24.493Z" fill="white"/>
<path d="M22.8522 22.9146H11.8944C11.6516 22.9146 11.4694 23.1271 11.4694 23.3396C11.4694 23.5824 11.6819 23.7645 11.8944 23.7645H22.8826C23.1254 23.7645 23.3075 23.5521 23.3075 23.3396C23.3075 23.0967 23.0647 22.9146 22.8522 22.9146ZM12.6229 15.8725L14.8084 21.2755C14.9298 21.5183 15.1726 21.7004 15.4762 21.7308H15.5065C15.7797 21.7308 16.0529 21.5487 16.1743 21.3058L20.0597 12.7763H20.1204C20.515 12.7763 20.8489 12.4728 20.8489 12.0478C20.8489 11.6229 20.5453 11.3193 20.1204 11.3193H19.6043C19.3312 11.3193 19.058 11.5015 18.9365 11.7443L17.9045 13.9601L17.0242 11.8657C16.9028 11.6229 16.66 11.4408 16.3564 11.4408H15.0816C14.687 11.4408 14.3531 11.7443 14.3531 12.1693C14.3531 12.5942 14.6566 12.8978 15.0816 12.8978H15.8708L17.0546 15.66C17.0546 15.6903 17.0849 15.7207 17.1153 15.751L15.5369 19.1811L13.8067 14.9011C13.6853 14.6583 13.4425 14.4458 13.1389 14.4458H11.8033C11.4087 14.4458 11.0748 14.7494 11.0748 15.1743C11.0748 15.5993 11.3784 15.9028 11.8033 15.9028L12.6229 15.8725ZM22.8826 13.4441H22.2451C21.972 13.4441 21.6684 13.6262 21.5774 13.8994L19.8472 18.3008C19.6954 17.9365 19.2704 17.7544 18.9062 17.9365C18.5419 18.0883 18.3598 18.5133 18.5419 18.8775L19.2401 20.5166C19.3615 20.7595 19.6043 20.9416 19.9079 20.9416C20.1811 20.9416 20.4543 20.7595 20.5757 20.4863L22.7612 14.8708H22.9129C23.3075 14.8708 23.6414 14.5672 23.6414 14.1423C23.6111 13.7477 23.3075 13.4441 22.8826 13.4441Z" fill="white"/>
</svg>
