<svg width="36" height="36" viewBox="0 0 36 36" fill="none" xmlns="http://www.w3.org/2000/svg">
<path d="M1.00871e-09 18C7.8474e-05 6.75 3.21436 8.78424e-06 18 0C32.7856 -8.78422e-06 36 5.94643 36 18C36 30.8571 30.5358 36 18 36C6.91071 36 -9.64087e-05 31.8214 1.00871e-09 18Z" fill="#CC2127"/>
<g clip-path="url(#clip0_10_2427)">
<path d="M21.1226 10.8149C20.8802 10.858 20.3389 11.0659 20.3344 11.514C20.3299 11.9617 20.8094 12.2539 21.0514 12.2764C21.9449 12.2764 26.218 12.0445 25.4365 16.1673C25.3283 16.6195 25.2455 17.3118 25.7819 17.4575C26.2693 17.5801 26.5702 17.0709 26.7054 16.6832C26.7702 16.2321 28.7464 10.3234 21.1226 10.8149Z" fill="white"/>
<path d="M22.2342 17.7153C22.2342 17.7153 21.3385 17.909 21.7622 17.2425C22.4276 15.9391 21.3445 13.8004 18.537 15.2217C17.5697 15.7372 17.5697 15.372 17.6019 14.7272C17.6888 11.2068 11.1634 13.7168 9.31461 18.2941C8.27238 21.0716 9.94175 23.4712 12.5241 24.5186C18.8273 26.7687 23.4166 23.0452 24.1988 20.6386C25.2422 17.0222 22.2342 17.7153 22.2342 17.7153ZM16.1899 23.6862C13.2063 24.0961 10.5618 22.7848 10.2819 20.7592C10.0036 18.7324 12.1959 16.7562 15.1795 16.3464C18.1631 15.9362 20.8073 17.2462 21.0871 19.273C21.3658 21.2994 19.1727 23.2741 16.1899 23.6862Z" fill="white"/>
<path d="M23.6567 16.6539C23.9568 16.7288 24.0737 16.4827 24.1067 16.2579C24.1374 16.0331 24.6555 12.9859 21.3276 13.3373C21.0759 13.365 20.9062 13.5156 20.9354 13.7366C20.9631 13.958 21.1497 14.082 21.2917 14.0652C21.4337 14.0487 23.6564 13.6591 23.4743 16.0013C23.5076 16.2144 23.3578 16.579 23.6567 16.6539Z" fill="white"/>
<path d="M15.2177 17.7651C13.6626 18.0633 12.5931 19.306 12.8298 20.5412C13.0666 21.7763 14.5202 22.535 16.076 22.2364C17.6315 21.9385 18.7 20.6955 18.4639 19.4611C18.2261 18.2263 16.7736 17.4669 15.2177 17.7651ZM15.033 21.0975C14.4958 21.0975 14.0601 20.7285 14.0601 20.2699C14.0601 19.8132 14.4958 19.4424 15.033 19.4424C15.5703 19.4424 16.0056 19.8132 16.0056 20.2699C16.0056 20.7277 15.5699 21.0975 15.033 21.0975ZM16.6264 19.9807C16.4259 19.9807 16.2221 19.7391 16.2221 19.4416C16.2221 19.1445 16.4259 18.9036 16.6264 18.9036C16.8268 18.9036 17.0313 19.1445 17.0313 19.4416C17.0313 19.7394 16.8268 19.9807 16.6264 19.9807Z" fill="white"/>
</g>
<defs>
<clipPath id="clip0_10_2427">
<rect width="18" height="18" fill="white" transform="translate(8.99988 9)"/>
</clipPath>
</defs>
</svg>
