<svg width="36" height="36" viewBox="0 0 36 36" fill="none" xmlns="http://www.w3.org/2000/svg">
<mask id="path-1-inside-1_12_3255" fill="white">
<path d="M1.00871e-09 18C7.8474e-05 6.75 3.21436 8.78424e-06 18 0C32.7856 -8.78422e-06 36 5.94643 36 18C36 30.8571 30.5358 36 18 36C6.91071 36 -9.64087e-05 31.8214 1.00871e-09 18Z"/>
</mask>
<path d="M1.00871e-09 18C7.8474e-05 6.75 3.21436 8.78424e-06 18 0C32.7856 -8.78422e-06 36 5.94643 36 18C36 30.8571 30.5358 36 18 36C6.91071 36 -9.64087e-05 31.8214 1.00871e-09 18Z" fill="#B333FD"/>
<path d="M1.00871e-09 18L1 18L1.00871e-09 18ZM1.00871e-09 18L1 18C1.00004 12.4188 1.81003 8.23746 4.21467 5.43204C6.5888 2.66223 10.7301 1 18 1V0V-1C10.4842 -0.999996 5.6256 0.712782 2.69616 4.13046C-0.202768 7.51254 -0.99996 12.3312 -1 18L1.00871e-09 18ZM18 0V1C25.3037 0.999996 29.4342 2.47694 31.7961 5.14302C34.1841 7.83854 35 12.0002 35 18H36H37C37 11.9462 36.2087 7.10788 33.2931 3.81679C30.3514 0.496269 25.4819 -1 18 -1V0ZM36 18H35C35 24.3159 33.6537 28.4908 30.9987 31.1095C28.3409 33.7309 24.1622 35 18 35V36V37C24.3736 37 29.1949 35.6977 32.4031 32.5334C35.6142 29.3663 37 24.5413 37 18H36ZM18 36V35C12.5482 35 8.34866 33.9666 5.50644 31.4362C2.68833 28.9271 0.999953 24.7587 1 18L1.00871e-09 18L-1 18C-1.00005 25.0627 0.766929 29.8943 4.17652 32.9299C7.562 35.9441 12.3625 37 18 37V36Z" fill="black" fill-opacity="0.08" mask="url(#path-1-inside-1_12_3255)"/>
<g clip-path="url(#clip0_12_3255)">
<path fill-rule="evenodd" clip-rule="evenodd" d="M15.9187 13.3918C15.7853 13.2579 15.5689 13.2579 15.4354 13.3918L11.0862 17.7569C10.9528 17.8908 10.9528 18.108 11.0862 18.2419L15.4354 22.6069C15.5689 22.7409 15.7853 22.7409 15.9187 22.6069L20.2679 18.2419C20.4014 18.108 20.4014 17.8908 20.2679 17.7569L15.9187 13.3918ZM16.1603 11.6943C15.8934 11.4264 15.4607 11.4264 15.1938 11.6943L9.39487 17.5144C9.12798 17.7822 9.12798 18.2165 9.39487 18.4844L15.1938 24.3045C15.4607 24.5723 15.8934 24.5723 16.1603 24.3045L21.9593 18.4844C22.2261 18.2165 22.2261 17.7822 21.9593 17.5144L16.1603 11.6943Z" fill="#220A33"/>
<mask id="mask0_12_3255" style="mask-type:luminance" maskUnits="userSpaceOnUse" x="9" y="11" width="14" height="14">
<path fill-rule="evenodd" clip-rule="evenodd" d="M15.9187 13.3918C15.7853 13.2579 15.5689 13.2579 15.4354 13.3918L11.0862 17.7569C10.9528 17.8908 10.9528 18.108 11.0862 18.2419L15.4354 22.6069C15.5689 22.7409 15.7853 22.7409 15.9187 22.6069L20.2679 18.2419C20.4014 18.108 20.4014 17.8908 20.2679 17.7569L15.9187 13.3918ZM16.1603 11.6943C15.8934 11.4264 15.4607 11.4264 15.1938 11.6943L9.39487 17.5144C9.12798 17.7822 9.12798 18.2165 9.39487 18.4844L15.1938 24.3045C15.4607 24.5723 15.8934 24.5723 16.1603 24.3045L21.9593 18.4844C22.2261 18.2165 22.2261 17.7822 21.9593 17.5144L16.1603 11.6943Z" fill="white"/>
</mask>
<g mask="url(#mask0_12_3255)">
<path d="M20.0557 11.6943C20.3226 11.4264 20.7553 11.4264 21.0222 11.6943L26.8212 17.5144C27.0881 17.7822 27.0881 18.2165 26.8212 18.4844L21.0222 24.3045C20.7553 24.5724 20.3226 24.5724 20.0557 24.3045L14.2567 18.4844C13.9899 18.2165 13.9899 17.7822 14.2567 17.5144L20.0557 11.6943Z" fill="black"/>
</g>
<path d="M20.0557 11.6943C20.3226 11.4264 20.7553 11.4264 21.0222 11.6943L26.8212 17.5144C27.0881 17.7822 27.0881 18.2165 26.8212 18.4844L21.0222 24.3045C20.7553 24.5724 20.3226 24.5724 20.0557 24.3045L14.2567 18.4844C13.9899 18.2165 13.9899 17.7822 14.2567 17.5144L20.0557 11.6943Z" fill="white"/>
</g>
<defs>
<clipPath id="clip0_12_3255">
<rect width="18" height="14.4" fill="white" transform="translate(9 10.8)"/>
</clipPath>
</defs>
</svg>
