<svg width="36" height="36" viewBox="0 0 36 36" fill="none" xmlns="http://www.w3.org/2000/svg">
<path d="M1.00871e-09 18C7.8474e-05 6.75 3.21436 8.78424e-06 18 0C32.7856 -8.78422e-06 36 5.94643 36 18C36 30.8571 30.5358 36 18 36C6.91071 36 -9.64087e-05 31.8214 1.00871e-09 18Z" fill="#FFBB00"/>
<path fill-rule="evenodd" clip-rule="evenodd" d="M15.8712 20.1291V21.5808H12.7755L15.8712 24.6762V27L9 20.1291H15.8712Z" fill="white" fill-opacity="0.58"/>
<path fill-rule="evenodd" clip-rule="evenodd" d="M17.8064 20.1291H22.3616L25.0646 22.8321V25.1559L21.4919 21.5808H17.8064V20.1291Z" fill="white" fill-opacity="0.58"/>
<path fill-rule="evenodd" clip-rule="evenodd" d="M15.8712 9L27 12.6162V24.7674L25.0647 25.1559V13.9227L17.8065 11.5644V26.6118L15.8712 27V9V9Z" fill="white"/>
</svg>
