<svg width="36" height="36" viewBox="0 0 36 36" fill="none" xmlns="http://www.w3.org/2000/svg">
<path d="M1.00871e-09 18C7.8474e-05 6.75 3.21436 8.78424e-06 18 0C32.7856 -8.78422e-06 36 5.94643 36 18C36 30.8571 30.5358 36 18 36C6.91071 36 -9.64087e-05 31.8214 1.00871e-09 18Z" fill="#1296DB"/>
<path d="M26.7813 16.7533C26.7555 16.2842 26.9286 15.9102 26.4183 15.6237C26.5062 15.8586 26.7241 15.9635 26.741 16.2692C26.6115 16.197 26.4586 16.1482 26.3779 16.0271C26.3913 15.8843 26.4889 15.9279 26.4183 15.7851C26.3222 15.7331 26.2259 15.6818 26.1358 15.6237C26.1395 15.56 26.2387 15.5922 26.2165 15.5027C26.1495 15.4354 25.9797 15.4704 25.8536 15.4624C25.7995 15.3688 25.7865 15.2332 25.7326 15.1396C25.4361 15.0929 25.1173 15.0473 24.9257 15.0993C24.8487 15.6153 25.4522 15.777 25.5712 16.2288C25.5793 17.0565 24.963 17.8162 24.24 17.5197C23.7912 16.6532 24.7737 16.3934 24.6837 15.422C24.2892 15.096 23.5438 14.9323 22.828 15.0589C22.6578 15.2384 22.5659 15.4958 22.3843 15.6639C22.5061 15.6063 22.6172 15.6304 22.6264 15.785C22.5577 16.2283 22.1277 16.1764 21.9407 16.4305C21.5861 16.9118 22.0177 17.7045 22.1827 18.0845C22.5522 18.9356 23.4074 19.6493 24.4416 19.6173C25.4623 19.5858 26.783 18.5564 26.9023 17.681C26.9515 17.3189 26.7978 17.0566 26.7813 16.7533ZM24.966 15.1397C25.1394 15.101 25.0365 15.3378 25.1676 15.3414C25.0516 15.481 24.9724 15.2434 24.966 15.1397ZM24.845 14.6153C24.8486 14.7254 24.7776 14.6964 24.845 14.7766C24.9397 14.7638 24.9962 14.7129 25.1273 14.7363V14.938C25.319 14.955 25.4182 14.8795 25.5712 14.8573C25.4534 14.5475 24.7663 14.5051 24.4415 14.6556C24.5444 14.8432 24.7166 14.6444 24.845 14.6153ZM23.7558 14.938C23.8938 14.9917 24.0374 14.8481 23.9171 14.7766C23.8739 14.8815 23.7477 14.5213 23.6347 14.696C23.6976 14.7064 23.6625 14.7843 23.6347 14.8169C23.6723 14.8601 23.7837 14.8295 23.7558 14.938ZM20.5286 18.3266C20.7932 18.2237 20.9816 17.6286 20.9319 17.4795C20.8582 17.8223 20.67 18.0515 20.5286 18.3266Z" fill="white"/>
<path d="M20.8513 16.1079C20.7582 15.738 20.27 15.6254 19.9638 15.4221C19.7641 15.8456 20.2608 16.195 20.2058 16.6322C20.1788 16.8468 19.9254 16.9236 19.9638 17.197C19.1957 17.8772 16.9321 18.8034 15.9702 17.6811C16.0746 17.2669 16.1182 16.9376 16.2928 16.713C16.5098 16.4334 16.8014 16.3883 17.1399 16.1482C17.3929 15.9686 17.9019 15.3567 17.9065 15.059C17.9132 14.6028 17.1041 13.9029 16.4945 13.9699C16.1299 14.0098 16.0327 14.3696 15.6877 14.4136C15.6808 14.5282 15.824 14.4923 15.7684 14.6557C15.5488 15.1727 14.8704 15.0207 14.4775 15.3011C13.8921 15.719 13.7353 17.1434 13.8321 17.9636C13.8809 18.377 14.1072 18.753 14.2758 18.9719C14.7612 19.6021 15.8213 20.1757 16.898 20.1417C17.5119 20.1224 18.9703 19.7174 19.3587 19.4559C19.859 19.1191 19.9372 18.5386 20.5286 18.3667C20.3921 18.2676 20.4551 17.9658 20.4882 17.8021C20.9641 17.8746 20.6721 17.1791 20.9723 17.0759C20.6911 16.8049 20.9296 16.4178 20.8513 16.1079ZM19.3587 17.6812C19.4359 17.6053 19.4317 17.705 19.5604 17.6812C19.5842 17.7672 19.3196 17.8277 19.3587 17.6812ZM19.9638 15.5835C20.1331 15.3201 20.118 15.7949 20.2462 15.8255C20.0961 16.0695 20.0828 15.6234 19.9638 15.5835ZM19.4394 14.7767H19.883C19.9593 14.8392 19.8255 14.934 19.9235 15.0187C20.1167 15.0006 20.2293 15.0627 20.2864 15.1801C20.2526 15.2269 20.2331 15.2883 20.2461 15.3818C20.3994 15.444 20.5595 15.4985 20.7301 15.5432C20.6604 15.0329 19.8698 14.684 19.3586 14.6154C19.4128 14.642 19.4338 14.7017 19.4394 14.7767ZM18.7132 14.6557C18.5519 14.6021 18.5381 14.4004 18.3502 14.3733C18.3591 14.4496 18.3047 14.4624 18.3099 14.5347C18.4546 14.5274 18.5805 14.9138 18.7132 14.6557ZM13.5093 10.7024C12.7468 10.6161 12.3027 11.2417 12.0437 11.6302C12.0877 11.6137 12.1651 11.6871 12.1378 11.7512C11.9976 12.4055 11.3717 12.4156 10.9678 12.8404C10.7859 13.0316 10.6251 13.4677 10.5241 13.9296C10.2789 15.0527 9.6653 16.4424 9.59624 17.6005C9.55188 18.3444 9.38049 19.3856 9.4753 20.1016C9.50998 20.3622 9.71328 20.6578 9.71725 20.9084C9.72419 21.351 9.445 21.814 9.75765 22.1993C9.79194 21.9222 9.60802 21.6507 9.71727 21.4329C9.82016 21.5181 9.89558 21.6309 9.95932 21.7556C9.60754 21.919 10.1086 22.2777 9.83829 22.4415C9.88152 22.6137 10.0662 22.644 10.0803 22.8448C9.78301 23.2942 10.2583 23.7908 10.4031 24.1761C10.4031 24.1357 10.4357 24.1281 10.4433 24.0954C10.5256 24.0836 10.5224 23.9861 10.6046 23.9744C10.6176 23.137 10.6208 22.4257 10.766 21.796C11.0932 20.3764 11.0222 18.7722 11.4519 17.2778C11.6345 16.6421 11.9524 16.0212 12.178 15.3818C12.4229 14.6872 12.575 13.9836 12.9041 13.4858C13.095 13.1969 13.4544 12.917 13.711 12.5177C13.9376 12.165 14.3345 11.6354 14.3161 11.3075C14.2956 10.9485 13.8248 10.7383 13.5093 10.7024ZM10.4838 24.0146C10.4775 24.0618 10.4105 24.0485 10.3629 24.055C10.2729 23.8613 10.5553 23.688 10.3629 23.6517C10.6372 23.5143 10.4226 23.9521 10.4838 24.0146V24.0146ZM10.7259 21.1908C10.6331 21.159 10.6866 20.941 10.8065 20.9891C10.8126 21.0895 10.7433 21.1141 10.7259 21.1908Z" fill="white"/>
<path d="M12.0167 11.6705C12.0252 11.6577 12.0341 11.6443 12.0434 11.6306C12.0305 11.6353 12.0204 11.6479 12.0167 11.6705Z" fill="black"/>
<path d="M10.6048 25.83C10.6153 25.9215 10.468 26.2669 10.6451 26.3544C10.6488 26.2547 10.8492 25.9134 10.6048 25.83ZM10.04 24.7408C10.1094 24.9001 10.1348 25.1034 10.2418 25.2248C10.3544 25.0017 10.1644 24.8485 10.04 24.7408ZM10.1611 24.0146C10.0537 23.8934 10.0231 23.6952 9.79797 23.6919C9.87015 24.0365 9.85486 24.4685 10.04 24.7004C10.2873 24.5915 10.0316 24.3948 9.99964 24.2165C10.0356 24.1312 10.1716 24.1462 10.1611 24.0146Z" fill="white"/>
</svg>
