<svg width="36" height="36" viewBox="0 0 36 36" fill="none" xmlns="http://www.w3.org/2000/svg">
<path d="M1.00871e-09 18C7.8474e-05 6.75 3.21436 8.78424e-06 18 0C32.7856 -8.78422e-06 36 5.94643 36 18C36 30.8571 30.5358 36 18 36C6.91071 36 -9.64087e-05 31.8214 1.00871e-09 18Z" fill="#E50914"/>
<g clip-path="url(#clip0_6_1849)">
<path d="M13.0427 9.00276L16.605 19.098V19.0929L16.8868 19.8877C18.4528 24.3185 19.2943 26.694 19.2988 26.699C19.3017 26.699 19.539 26.7142 19.8253 26.7288C20.6922 26.7665 21.7677 26.8638 22.5822 26.9611C22.7695 26.9836 22.9315 26.991 22.9422 26.9836L19.4097 16.9638L19.0828 16.0413L17.2654 10.904C16.9206 9.9292 16.6281 9.09783 16.6129 9.06633L16.5898 8.99939H13.0461L13.0427 9.00276Z" fill="white"/>
<path d="M19.4237 9.00896L19.4164 12.9886L19.4102 16.9683L19.0823 16.0441V16.0425L18.6587 24.9001C19.075 26.0752 19.2977 26.7024 19.3 26.7052C19.3028 26.708 19.5402 26.7232 19.8265 26.7367C20.6944 26.7744 21.7688 26.8717 22.5867 26.969C22.774 26.9915 22.9371 26.9988 22.9467 26.9915C22.9562 26.9842 22.9619 22.9263 22.9596 17.9842L22.9534 9.00727H19.4237V9.00896ZM13.0427 9.00165V17.9943C13.0427 22.9398 13.0478 26.9904 13.054 26.9966C13.0602 27.0028 13.3662 26.9741 13.734 26.9319C14.1014 26.8869 14.6115 26.8346 14.8663 26.8121C15.4275 26.7641 15.9896 26.7266 16.5522 26.6996C16.591 26.6996 16.5944 26.4971 16.5994 22.8898L16.6056 19.08L16.8908 19.8748L16.9881 20.1566L17.4156 11.3068L17.2733 10.8973L16.6135 9.06746L16.591 9.00221H13.0427V9.00165Z" fill="white"/>
</g>
<defs>
<clipPath id="clip0_6_1849">
<rect width="18" height="18" fill="white" transform="translate(9 8.99994)"/>
</clipPath>
</defs>
</svg>
