<svg width="36" height="36" viewBox="0 0 36 36" fill="none" xmlns="http://www.w3.org/2000/svg">
<path d="M1.00871e-09 18C7.8474e-05 6.75 3.21436 8.78424e-06 18 0C32.7856 -8.78422e-06 36 5.94643 36 18C36 30.8571 30.5358 36 18 36C6.91071 36 -9.64087e-05 31.8214 1.00871e-09 18Z" fill="#1296DB"/>
<path d="M15.1825 24.4957L15.8086 27H23.0086L23.3216 23.087L18.4695 26.0609L15.1825 24.4957ZM20.6608 16.6696H20.9738C20.8173 16.5131 20.8173 16.5131 20.6608 16.6696ZM21.9129 16.5131H22.0695C22.0695 16.6696 21.9129 16.6696 21.9129 16.5131ZM16.4347 18.2348C16.5912 18.0783 16.7477 17.9218 17.0608 17.7652C16.9042 18.0783 16.5912 18.0783 16.4347 18.2348Z" fill="white"/>
<path d="M24.1043 20.2695C23.7912 19.6434 23.4782 20.2695 23.0086 19.6434C22.5391 19.1739 23.7912 18.3913 22.6956 16.9826C22.6956 16.9826 22.5391 16.826 22.3825 16.826L14.2434 22.3043C14.2434 22.7739 14.3999 23.0869 14.713 23.5565C15.4956 24.8087 18.4695 25.1217 20.6608 24.1826C22.8521 22.9304 24.5738 21.0521 24.1043 20.2695ZM21.913 21.5217C21.4434 21.5217 21.1304 21.2087 21.1304 20.7391C21.1304 20.2695 21.4434 19.9565 21.913 19.9565C22.3825 19.9565 22.6956 20.2695 22.6956 20.7391C22.6956 21.2087 22.3825 21.5217 21.913 21.5217ZM17.2173 17.7652C17.3738 17.6087 17.6869 17.4521 17.8434 17.4521C17.5304 17.6087 17.3738 17.7652 17.2173 17.7652Z" fill="white"/>
<path d="M11.739 13.3826L14.5564 18.2348L11.739 19.487L12.5216 21.3652L24.2608 15.887L23.4781 14.3217L21.7564 15.2609L19.2521 9L11.739 13.3826Z" fill="white"/>
</svg>
