<svg width="36" height="36" viewBox="0 0 36 36" fill="none" xmlns="http://www.w3.org/2000/svg">
<path d="M1.00871e-09 18C7.8474e-05 6.75 3.21436 8.78424e-06 18 0C32.7856 -8.78422e-06 36 5.94643 36 18C36 30.8571 30.5358 36 18 36C6.91071 36 -9.64087e-05 31.8214 1.00871e-09 18Z" fill="#C91428"/>
<path d="M20.4377 25.1243C17.2707 25.9548 14.8437 24.8941 13.1359 23.2909C11.996 22.221 11.2799 20.9358 10.8293 19.4085C10.4421 18.0959 10.482 16.6705 10.482 15.2721C10.482 14.5462 10.9158 12.9032 11.0539 12.2494C10.1596 13.6449 9.08154 16.216 9.08154 17.9965C9.08154 22.9525 13.0991 26.9701 18.0551 26.9701C20.2645 26.9701 22.6916 25.2877 23.8509 23.5837C21.6256 24.5799 22.0079 24.7125 20.4377 25.1243Z" fill="white"/>
<path d="M23.4729 10.2571C22.4552 9.66035 21.3029 9.2547 20.0587 9.09566C15.9786 8.5741 11.3485 11.2098 10.9064 15.2728C12.831 11.4814 15.786 10.0164 19.3193 10.4681C20.4438 10.6118 21.4933 10.957 22.4362 11.4626L23.4729 10.2571Z" fill="white"/>
<path d="M19.6102 23.1433C19.5871 23.155 19.5649 23.169 19.5477 23.1907C19.5082 23.2404 19.4894 23.3803 19.4621 23.4446C19.445 23.4851 19.3187 23.6473 19.3187 23.6793C19.3186 23.7089 19.3612 23.7523 19.4011 23.7937C19.1729 23.8389 18.9403 23.8704 18.704 23.8896C18.7483 23.8338 18.7589 23.7849 18.6181 23.7782C18.6558 23.6758 18.7444 23.6173 18.7818 23.518C18.7996 23.4712 18.7848 23.4527 18.7999 23.4064C18.8514 23.2462 18.8291 23.3066 18.8 23.1822C18.7971 23.1693 18.7943 23.1563 18.7917 23.1433H15.4196V17.2867C15.397 17.2757 15.3582 17.2383 15.3088 17.1712C15.1562 16.9639 14.9792 16.7578 14.8469 16.5383C14.797 16.4554 14.8066 16.4017 14.724 16.323C14.6444 16.2468 14.54 16.2097 14.4597 16.1374C14.1709 15.8776 14.1184 15.5309 14.1513 15.1607C14.1621 15.04 14.2057 14.9434 14.1864 14.8275C14.1706 14.7311 14.1137 14.6515 14.0427 14.5805C14.0198 14.544 13.9623 14.4542 13.959 14.4484C13.8934 14.3396 13.8424 14.2324 13.7382 14.1431C13.6785 14.0916 13.5238 13.9714 13.3783 13.8705C14.0323 13.0548 14.8882 12.4082 15.8701 12.0069C15.8779 12.0562 15.8991 12.1055 15.9308 12.1527C16.0116 12.2724 16.0885 12.2629 16.2461 12.296C16.2292 12.479 16.0154 12.4804 15.8707 12.4606C15.698 12.4368 15.5163 12.3795 15.3666 12.5308C15.4492 12.5806 15.6761 12.7741 15.6459 12.5719C15.8114 12.5636 15.9713 12.5587 16.1332 12.5785C16.1981 12.5864 16.4154 12.6594 16.4743 12.626C16.499 12.6121 16.5254 12.4902 16.5516 12.4526C16.5054 12.4529 16.4559 12.4296 16.4099 12.434C16.5171 12.2967 16.624 12.4045 16.7604 12.4675C16.6102 12.5588 16.6993 12.7775 16.8461 12.5999C16.9668 12.4537 16.8166 12.3478 16.6635 12.2626C16.8179 12.0694 16.9132 12.0519 17.0585 12.27C17.0825 12.1355 17.191 12.1894 17.3044 12.1993V12.1657C17.2545 12.1669 17.2012 12.1381 17.1517 12.1433C17.2673 11.959 17.1935 11.9168 17.3587 11.8567C17.4903 11.8088 17.8656 11.8534 17.9118 11.7297C17.6491 11.7807 17.3319 11.793 17.0949 11.9124C16.9927 11.9639 16.871 12.1265 16.769 12.0209C16.6644 11.9124 16.8438 11.7381 16.9356 11.685H16.9136C17.3369 11.5948 17.7684 11.5493 18.2011 11.5492C18.4864 11.5492 18.7668 11.5703 19.042 11.6079C18.9468 11.6579 19.0172 11.6917 18.9479 11.7428C18.8154 11.8402 18.5802 11.9215 18.4225 11.9831C18.6229 11.9826 19.1081 12.171 19.2014 11.8899C19.1367 11.88 19.0721 11.8701 19.0075 11.8601C19.1283 11.78 19.263 11.7152 19.4044 11.6677C20.6805 11.9205 21.8156 12.5678 22.6791 13.476C22.673 13.4758 22.6669 13.4757 22.6608 13.4758C22.4204 13.4831 22.2528 13.4836 22.0596 13.617C21.9817 13.6708 21.9289 13.7421 21.8301 13.7698C21.7414 13.7947 21.6457 13.7728 21.5578 13.8027C21.2406 13.9104 21.2908 14.5898 20.8729 14.4871C20.6765 14.439 20.5381 14.207 20.4393 14.0555C20.3522 13.9221 20.1937 13.8119 20.3008 13.6451C20.252 13.6576 20.1999 13.6433 20.1518 13.6524C20.2187 13.5054 20.4433 13.5183 20.4807 13.4431C20.5737 13.2548 20.2244 13.2351 20.1256 13.209C20.2448 13.082 20.3051 13.2518 20.4228 13.2229C20.5359 13.1951 20.3631 13.0462 20.2953 13.0295C20.2711 13.0235 19.8729 13.1395 20.1032 12.9332C19.8188 12.752 19.5344 12.5706 19.2499 12.3891C19.202 12.5909 19.6285 12.7055 19.7678 12.7767C19.7462 12.86 19.6166 12.9814 19.5175 12.9458C19.4239 12.9123 19.4618 12.7574 19.3207 12.773C19.22 13.0073 19.5338 12.9388 19.5629 13.0823C19.5961 13.2459 19.4442 13.1766 19.3859 13.1738C19.372 13.173 19.2633 13.0604 19.2574 13.1457C19.2503 13.247 19.4309 13.2075 19.4436 13.3097C19.2333 13.3182 19.126 13.2423 18.9547 13.1285C18.7549 12.9959 18.6523 13.0079 18.4075 13.0079C18.4808 12.9778 18.5815 12.9555 18.6441 12.9071C18.6783 12.8806 18.8126 12.7502 18.8216 12.7211C18.8593 12.5954 18.8194 12.605 18.6992 12.5226C18.5923 12.4495 18.4628 12.3182 18.3332 12.2924C17.864 12.1988 18.1886 12.716 17.8324 12.7873C17.8385 12.7876 17.8451 12.7879 17.8504 12.7879H17.8299C17.8309 12.7879 17.8316 12.7875 17.8324 12.7873C17.75 12.7844 17.5957 12.7643 17.5425 12.8078C17.505 12.8385 17.502 12.9614 17.46 13.0058C17.3855 13.0853 17.2744 13.1012 17.1854 13.1585C17.0986 13.2145 16.9072 13.3581 16.8561 13.4556C16.6682 13.8146 17.2796 13.9261 17.5114 14.031C17.6161 14.0785 17.9221 14.1434 17.9792 14.2226C18.0556 14.3291 17.9133 14.4289 18.073 14.5036C18.1239 14.5275 18.2291 14.5323 18.2729 14.4829C18.3443 14.4026 18.244 14.3844 18.2269 14.2915C18.1937 14.1127 18.2482 14.1837 18.3383 14.1173C18.5216 13.9819 18.4802 13.9737 18.4144 13.758C18.3837 13.6576 18.2682 13.3774 18.3698 13.3032C18.5023 13.2067 18.7849 13.3557 18.8865 13.3682C19.0048 13.3827 19.0718 13.5465 19.1364 13.6135C19.1791 13.658 19.2557 13.7524 19.3305 13.7422C19.4492 13.726 19.3995 13.6222 19.4684 13.5743C19.653 13.4463 19.7017 13.6202 19.7753 13.7943C19.8445 13.9577 19.91 14.0184 20.0333 14.1232C20.0905 14.172 20.3413 14.3462 20.3177 14.4535C20.3016 14.5259 20.0151 14.6356 19.9384 14.6598C19.6584 14.7486 19.133 14.5146 19.0766 14.9588C19.1853 14.9183 19.4943 14.6658 19.587 14.7855C19.6293 14.8397 19.5536 14.9188 19.5713 14.9727C19.6242 15.1345 19.7489 15.0781 19.8796 15.052C19.8707 15.0576 19.8616 15.0624 19.852 15.0667C20.0306 14.9749 20.012 14.994 20.094 14.8451C20.1208 14.7964 20.1607 14.6787 20.1983 14.6439C20.3282 14.5245 20.3482 14.6067 20.4286 14.6989C20.4497 14.7231 20.6486 15.0096 20.5777 14.9952C20.3464 14.9489 20.1243 14.9551 19.9324 15.0816C19.8218 15.1546 19.7173 15.2531 19.5853 15.3017C19.5536 15.3131 19.3193 15.3354 19.347 15.2955C19.3874 15.2372 19.5266 15.1986 19.5814 15.1357C19.4293 15.0731 19.3022 15.2115 19.1828 15.2924C19.096 15.3334 19.0547 15.3988 19.0028 15.4673H24.8079C23.8678 12.7221 21.2651 10.7484 18.2012 10.7484C14.345 10.7484 11.2191 13.8743 11.2191 17.7304C11.2191 21.5865 14.345 24.7125 18.2011 24.7125C19.8737 24.7125 21.4087 24.1241 22.611 23.1434H19.6102V23.1433Z" fill="white"/>
<path d="M15.0351 16.5536C15.0109 16.5482 15.0856 16.7269 15.0933 16.7413C15.1671 16.8779 15.2779 17.0027 15.367 17.1299C15.3903 17.1631 15.4075 17.1915 15.4196 17.2147V16.9062L15.4175 16.9036C15.2836 16.7383 15.2416 16.5976 15.0351 16.5536ZM21.6388 22.4287H20.0086V19.2952C20.0086 18.3879 19.6818 17.9342 19.0284 17.9342C18.7169 17.9342 18.4579 18.0553 18.2514 18.2973C18.0448 18.5394 17.9416 18.8483 17.9416 19.2241V22.4287H16.3012V16.8118H17.9416V17.7056H17.9619C18.3715 17.0184 18.9742 16.6747 19.7699 16.6747C21.0158 16.6747 21.6388 17.4466 21.6388 18.9905L21.6388 22.4287ZM22.9233 19.481L24.9326 16.8008H23.5036L21.8933 19.1546C21.8401 19.2392 21.7869 19.3396 21.7337 19.4556H21.7169V19.6696H21.7337C21.7893 19.8026 21.8389 19.9005 21.8824 19.9634L23.5834 22.4188H25.0995L22.9233 19.481Z" fill="white"/>
<path d="M25.3455 17.8249C25.3455 17.5538 25.4265 17.3331 25.5885 17.1628C25.7506 16.9924 25.9581 16.9072 26.2112 16.9072C26.4705 16.9072 26.6804 16.9943 26.8409 17.1682C27.0013 17.3423 27.0816 17.5611 27.0816 17.8249C27.0816 18.0923 26.9998 18.3149 26.8363 18.4925C26.6726 18.6702 26.4643 18.759 26.2112 18.759C25.9612 18.759 25.7544 18.6693 25.5909 18.4898C25.4272 18.3103 25.3455 18.0886 25.3455 17.8249ZM25.7744 22.3979V19.1786H26.7117V22.3979H25.7744Z" fill="white"/>
</svg>
