<svg width="36" height="36" viewBox="0 0 36 36" fill="none" xmlns="http://www.w3.org/2000/svg">
<path d="M1.00871e-09 18C7.8474e-05 6.75 3.21436 8.78424e-06 18 0C32.7856 -8.78422e-06 36 5.94643 36 18C36 30.8571 30.5358 36 18 36C6.91071 36 -9.64087e-05 31.8214 1.00871e-09 18Z" fill="#156DA0"/>
<path d="M13.5039 13.7826C13.5039 13.9397 13.4253 14.0183 13.2682 14.0183C13.1607 14.0183 13.0532 14.0183 12.9457 14.0183C12.8381 14.01 12.7306 14.0059 12.6231 14.0059C12.5404 14.0059 12.4908 14.0431 12.4743 14.1175C12.466 14.1837 12.4619 14.2457 12.4619 14.3036C12.4619 14.8328 12.4577 15.3579 12.4495 15.8789C12.4495 16.3999 12.4495 16.925 12.4495 17.4543C12.4495 18.1985 12.4495 18.9428 12.4495 19.6871C12.4577 20.4313 12.4619 21.1797 12.4619 21.9323C12.4619 21.9901 12.466 22.0563 12.4743 22.1307C12.4908 22.1969 12.5404 22.23 12.6231 22.23C12.7306 22.23 12.8381 22.23 12.9457 22.23C13.0532 22.2217 13.1607 22.2176 13.2682 22.2176C13.3426 22.2176 13.3963 22.2465 13.4294 22.3044C13.4625 22.354 13.479 22.4119 13.479 22.478C13.479 22.6186 13.4005 22.6889 13.2434 22.6889C13.1772 22.6889 13.111 22.6848 13.0449 22.6765C12.9787 22.6683 12.9126 22.66 12.8464 22.6517C12.772 22.6434 12.6976 22.6393 12.6231 22.6393C12.5487 22.6393 12.4743 22.6393 12.3999 22.6393H10.9982C10.8989 22.6393 10.7956 22.6393 10.6881 22.6393C10.5888 22.6393 10.4855 22.6434 10.3779 22.6517C10.2953 22.66 10.2084 22.6683 10.1175 22.6765C10.0348 22.6848 9.94793 22.6889 9.85696 22.6889C9.69157 22.6889 9.60887 22.598 9.60887 22.416C9.60887 22.3416 9.63782 22.292 9.69571 22.2672C9.76186 22.2341 9.82388 22.2176 9.88177 22.2176C9.96447 22.2176 10.0472 22.2217 10.1299 22.23C10.2126 22.23 10.2953 22.23 10.3779 22.23C10.4937 22.23 10.5681 22.2093 10.6012 22.1679C10.6426 22.1183 10.6632 22.0398 10.6632 21.9323V18.1241H6.65663V21.9571C6.65663 22.0646 6.67317 22.1431 6.70625 22.1927C6.7476 22.2341 6.82616 22.2548 6.94193 22.2548C7.02463 22.2548 7.10733 22.2548 7.19002 22.2548C7.27272 22.2465 7.35541 22.2424 7.43811 22.2424C7.50427 22.2424 7.56629 22.2548 7.62417 22.2796C7.69033 22.3044 7.72341 22.3581 7.72341 22.4408C7.72341 22.6145 7.62831 22.7013 7.43811 22.7013C7.10733 22.7013 6.77654 22.6889 6.44576 22.6641C6.12324 22.6476 5.79246 22.6393 5.45341 22.6393C5.33763 22.6393 5.21772 22.6393 5.09368 22.6393C4.97791 22.6393 4.86213 22.6434 4.74636 22.6517C4.63885 22.66 4.53135 22.6683 4.42384 22.6765C4.32461 22.6931 4.22124 22.7013 4.11373 22.7013C4.05585 22.7013 4.00623 22.6724 3.96488 22.6145C3.92353 22.5566 3.90286 22.5029 3.90286 22.4532C3.90286 22.4036 3.92353 22.3581 3.96488 22.3168C4.00623 22.2672 4.05585 22.2424 4.11373 22.2424C4.22124 22.2424 4.32461 22.2465 4.42384 22.2548C4.53135 22.2548 4.63885 22.2548 4.74636 22.2548C4.82905 22.2548 4.87867 22.2217 4.89521 22.1555C4.91175 22.0811 4.92002 22.015 4.92002 21.9571V14.316C4.92002 14.2581 4.91175 14.1961 4.89521 14.1299C4.87867 14.0555 4.82905 14.0183 4.74636 14.0183C4.63885 14.0183 4.53135 14.0224 4.42384 14.0307C4.32461 14.0307 4.22124 14.0307 4.11373 14.0307C3.95661 14.0307 3.87805 13.9562 3.87805 13.8074C3.87805 13.7412 3.89873 13.6833 3.94007 13.6337C3.98142 13.5758 4.03931 13.5469 4.11373 13.5469C4.34528 13.5469 4.57683 13.5552 4.80838 13.5717C5.0482 13.5882 5.28388 13.5965 5.51543 13.5965C5.83794 13.5965 6.15632 13.5882 6.47057 13.5717C6.79308 13.5552 7.11559 13.5469 7.43811 13.5469C7.62004 13.5469 7.711 13.6337 7.711 13.8074C7.711 13.9149 7.66139 13.9811 7.56215 14.0059C7.47119 14.0224 7.38436 14.0307 7.30166 14.0307C7.24377 14.0307 7.18589 14.0307 7.128 14.0307C7.07011 14.0224 7.00809 14.0183 6.94193 14.0183C6.8427 14.0183 6.76827 14.0513 6.71865 14.1175C6.67731 14.1837 6.65663 14.2622 6.65663 14.3532V17.6776H10.6632V14.3036C10.6632 14.1878 10.6426 14.1092 10.6012 14.0679C10.5681 14.0265 10.4937 14.0059 10.3779 14.0059C10.2953 14.0059 10.2126 14.01 10.1299 14.0183C10.0472 14.0183 9.96447 14.0183 9.88177 14.0183C9.82388 14.0183 9.76186 13.9976 9.69571 13.9562C9.63782 13.9149 9.60887 13.8653 9.60887 13.8074C9.60887 13.6337 9.69984 13.5469 9.88177 13.5469C9.98101 13.5469 10.0802 13.551 10.1795 13.5593C10.2787 13.5676 10.3779 13.5758 10.4772 13.5841C10.6674 13.5924 10.8576 13.6006 11.0478 13.6089C11.238 13.6089 11.4282 13.6089 11.6184 13.6089C11.792 13.6089 11.9616 13.6089 12.127 13.6089C12.3006 13.6006 12.4743 13.5924 12.6479 13.5841C12.7555 13.5758 12.8588 13.5676 12.9581 13.5593C13.0573 13.551 13.1607 13.5469 13.2682 13.5469C13.4253 13.5469 13.5039 13.6255 13.5039 13.7826Z" fill="white"/>
<path d="M19.5561 15.8045C19.5561 15.2174 19.4279 14.7584 19.1716 14.4276C18.9152 14.0968 18.4645 13.9314 17.8195 13.9314C17.7203 13.9314 17.6128 13.9314 17.497 13.9314C17.3812 13.9314 17.2778 13.9397 17.1869 13.9562C17.1042 13.9811 17.0546 14.0183 17.038 14.0679C17.0215 14.1175 17.0132 14.1795 17.0132 14.2539C17.0132 14.7501 17.0091 15.2463 17.0008 15.7425C17.0008 16.2304 17.0008 16.7183 17.0008 17.2062V17.6776C17.0422 17.6858 17.0876 17.6941 17.1373 17.7024C17.1869 17.7024 17.2324 17.7024 17.2737 17.7024C17.7203 17.7024 18.1131 17.6445 18.4521 17.5287C18.7995 17.4129 19.0682 17.2186 19.2584 16.9457C19.4569 16.6645 19.5561 16.2841 19.5561 15.8045ZM22.7564 22.4284C22.7564 22.4946 22.6944 22.5525 22.5704 22.6021C22.4463 22.6517 22.3016 22.6848 22.1362 22.7013C21.9791 22.7096 21.8013 22.7179 21.6028 22.7261C21.4126 22.7344 21.2845 22.7385 21.2183 22.7385C21.1025 22.7385 20.9537 22.7303 20.7717 22.7137C20.5898 22.7055 20.4658 22.6889 20.3996 22.6641C20.259 22.6145 20.1143 22.5401 19.9655 22.4408C19.8249 22.3333 19.7091 22.201 19.6181 22.0439C19.2543 21.3989 18.8904 20.7456 18.5266 20.084C18.1627 19.4142 17.8112 18.7526 17.4722 18.0993L17.0008 18.0869C17.0008 18.7319 17.0008 19.377 17.0008 20.022C17.0091 20.667 17.0132 21.312 17.0132 21.9571C17.0132 22.015 17.0298 22.0811 17.0628 22.1555C17.0959 22.2217 17.1538 22.2548 17.2365 22.2548C17.344 22.2548 17.4391 22.2548 17.5218 22.2548C17.6128 22.2465 17.712 22.2424 17.8195 22.2424C17.8691 22.2424 17.9146 22.2713 17.956 22.3292C18.0056 22.3871 18.0304 22.4367 18.0304 22.478C18.0304 22.5359 18.0097 22.5897 17.9684 22.6393C17.9353 22.6807 17.8857 22.7013 17.8195 22.7013C17.7368 22.7013 17.6583 22.6972 17.5838 22.6889C17.5094 22.6807 17.435 22.6724 17.3605 22.6641C17.2696 22.6558 17.1414 22.6517 16.976 22.6517C16.8106 22.6517 16.6494 22.6517 16.4922 22.6517C16.3351 22.6434 16.2069 22.6393 16.1077 22.6393C15.8844 22.6393 15.686 22.6434 15.5123 22.6517C15.3469 22.66 15.1815 22.6683 15.0161 22.6765C14.8507 22.6931 14.6523 22.7013 14.4207 22.7013C14.2553 22.7013 14.1726 22.6228 14.1726 22.4656C14.1726 22.3995 14.2016 22.3499 14.2595 22.3168C14.3256 22.2754 14.3876 22.2548 14.4455 22.2548C14.5282 22.2548 14.6109 22.2589 14.6936 22.2672C14.7763 22.2672 14.859 22.2672 14.9417 22.2672C15.1567 22.2672 15.2642 22.1679 15.2642 21.9695V14.3036C15.2642 14.1878 15.2435 14.1092 15.2022 14.0679C15.1691 14.0265 15.0947 14.0059 14.9789 14.0059C14.8962 14.0059 14.8135 14.01 14.7308 14.0183C14.6481 14.0183 14.5654 14.0183 14.4827 14.0183C14.4248 14.0183 14.3587 14.0017 14.2843 13.9686C14.2098 13.9356 14.1726 13.8818 14.1726 13.8074C14.1726 13.7164 14.2016 13.6503 14.2595 13.6089C14.3256 13.5676 14.4 13.5469 14.4827 13.5469C14.7308 13.5469 14.9789 13.5552 15.227 13.5717C15.4833 13.5882 15.7397 13.5965 15.9961 13.5965C16.3847 13.5965 16.7775 13.5841 17.1745 13.5593C17.5714 13.5262 17.9642 13.5097 18.3529 13.5097C18.7002 13.5097 19.0558 13.5428 19.4197 13.6089C19.7835 13.6668 20.1185 13.7743 20.4244 13.9314C20.7387 14.0803 20.9909 14.2912 21.1811 14.5641C21.3796 14.837 21.4788 15.1801 21.4788 15.5936C21.4788 16.0815 21.3796 16.4826 21.1811 16.7968C20.9909 17.1111 20.7221 17.3592 20.3748 17.5411C20.0358 17.7148 19.6388 17.8512 19.184 17.9505C19.5313 18.5872 19.92 19.2198 20.35 19.8483C20.78 20.4685 21.2018 21.0764 21.6152 21.6718C21.7062 21.8041 21.822 21.924 21.9626 22.0315C22.1114 22.1307 22.2644 22.201 22.4215 22.2424C22.4877 22.2506 22.558 22.2548 22.6324 22.2548C22.7151 22.2548 22.7564 22.3127 22.7564 22.4284Z" fill="white"/>
<path d="M28.314 18.98C28.19 18.55 28.0494 18.0952 27.8922 17.6155C27.7351 17.1359 27.578 16.6604 27.4209 16.189C27.2638 15.7177 27.1232 15.2794 26.9991 14.8742C26.8586 15.2794 26.7056 15.7177 26.5402 16.189C26.3748 16.6604 26.2094 17.1359 26.044 17.6155C25.8869 18.0952 25.7339 18.55 25.585 18.98H28.314ZM32.1221 22.4656C32.1221 22.5483 32.0973 22.6062 32.0477 22.6393C31.9981 22.6641 31.9319 22.6765 31.8492 22.6765C31.6342 22.6765 31.4192 22.6724 31.2042 22.6641C30.9892 22.6476 30.7742 22.6393 30.5592 22.6393C30.2367 22.6393 29.9059 22.6393 29.5668 22.6393C29.2278 22.6393 28.8929 22.6476 28.5621 22.6641C28.529 22.6641 28.4959 22.6641 28.4629 22.6641C28.4298 22.6724 28.3967 22.6765 28.3636 22.6765C28.3057 22.6765 28.2561 22.66 28.2148 22.6269C28.1734 22.5938 28.1527 22.5483 28.1527 22.4905C28.1527 22.3829 28.19 22.3168 28.2644 22.292C28.3388 22.2672 28.4215 22.2589 28.5125 22.2672C28.6117 22.2672 28.6944 22.2672 28.7606 22.2672C29.0252 22.2672 29.1575 22.1349 29.1575 21.8702C29.1575 21.7958 29.1286 21.6594 29.0707 21.4609C29.021 21.2624 28.9549 21.0391 28.8722 20.7911C28.7978 20.5347 28.7192 20.2866 28.6365 20.0468C28.5621 19.807 28.5001 19.6085 28.4504 19.4514H25.4114C25.3535 19.6002 25.2791 19.7946 25.1881 20.0344C25.1054 20.2659 25.0186 20.5099 24.9276 20.7662C24.8366 21.0143 24.7581 21.2417 24.6919 21.4485C24.634 21.647 24.6051 21.7875 24.6051 21.8702C24.6051 22.0274 24.6423 22.1349 24.7167 22.1927C24.7994 22.2424 24.8987 22.2713 25.0144 22.2796C25.1302 22.2796 25.246 22.2796 25.3618 22.2796C25.4114 22.2796 25.4527 22.3085 25.4858 22.3664C25.5189 22.4243 25.5354 22.4739 25.5354 22.5153C25.5354 22.5731 25.5106 22.6186 25.461 22.6517C25.4196 22.6765 25.3742 22.6889 25.3245 22.6889C25.0599 22.6889 24.7912 22.6807 24.5183 22.6641C24.2454 22.6476 23.9766 22.6393 23.712 22.6393C23.5797 22.6393 23.4473 22.6434 23.315 22.6517C23.1827 22.66 23.0463 22.6641 22.9057 22.6641C22.8478 22.6641 22.7941 22.6517 22.7444 22.6269C22.7031 22.5938 22.6824 22.5483 22.6824 22.4905C22.6824 22.3912 22.7155 22.3292 22.7816 22.3044C22.8561 22.2713 22.9388 22.2589 23.0297 22.2672C23.129 22.2672 23.2075 22.2672 23.2654 22.2672C23.3647 22.2672 23.4432 22.23 23.5011 22.1555C23.5673 22.0728 23.6169 21.9901 23.65 21.9074C24.1379 20.6918 24.6051 19.4679 25.0516 18.2358C25.4982 17.0036 25.9324 15.7673 26.3541 14.5268C26.3872 14.4359 26.4285 14.3118 26.4782 14.1547C26.5278 13.9976 26.5526 13.8777 26.5526 13.795C26.5526 13.7454 26.5402 13.704 26.5154 13.6709C26.4988 13.6296 26.4906 13.5882 26.4906 13.5469C26.4906 13.4973 26.5236 13.4725 26.5898 13.4725C26.6642 13.4477 26.7428 13.4353 26.8255 13.4353C26.9082 13.427 26.9909 13.4187 27.0736 13.4104C27.2555 13.3856 27.4333 13.3608 27.607 13.336C27.7889 13.3112 27.9708 13.2864 28.1527 13.2616L31.1422 21.8082C31.2166 22.0232 31.3159 22.1514 31.4399 22.1927C31.5639 22.2341 31.6797 22.2506 31.7872 22.2424C31.8782 22.2424 31.9568 22.2506 32.0229 22.2672C32.0891 22.2837 32.1221 22.3499 32.1221 22.4656Z" fill="white"/>
</svg>
