<svg width="36" height="36" viewBox="0 0 36 36" fill="none" xmlns="http://www.w3.org/2000/svg">
<mask id="path-1-inside-1_9_2276" fill="white">
<path d="M1.00871e-09 18C7.8474e-05 6.75 3.21436 8.78424e-06 18 0C32.7856 -8.78422e-06 36 5.94643 36 18C36 30.8571 30.5358 36 18 36C6.91071 36 -9.64087e-05 31.8214 1.00871e-09 18Z"/>
</mask>
<path d="M1.00871e-09 18C7.8474e-05 6.75 3.21436 8.78424e-06 18 0C32.7856 -8.78422e-06 36 5.94643 36 18C36 30.8571 30.5358 36 18 36C6.91071 36 -9.64087e-05 31.8214 1.00871e-09 18Z" fill="#F8F9FA"/>
<path d="M1.00871e-09 18L1 18L1.00871e-09 18ZM1.00871e-09 18L1 18C1.00004 12.4188 1.81003 8.23746 4.21467 5.43204C6.5888 2.66223 10.7301 1 18 1V0V-1C10.4842 -0.999996 5.6256 0.712782 2.69616 4.13046C-0.202768 7.51254 -0.99996 12.3312 -1 18L1.00871e-09 18ZM18 0V1C25.3037 0.999996 29.4342 2.47694 31.7961 5.14302C34.1841 7.83854 35 12.0002 35 18H36H37C37 11.9462 36.2087 7.10788 33.2931 3.81679C30.3514 0.496269 25.4819 -1 18 -1V0ZM36 18H35C35 24.3159 33.6537 28.4908 30.9987 31.1095C28.3409 33.7309 24.1622 35 18 35V36V37C24.3736 37 29.1949 35.6977 32.4031 32.5334C35.6142 29.3663 37 24.5413 37 18H36ZM18 36V35C12.5482 35 8.34866 33.9666 5.50644 31.4362C2.68833 28.9271 0.999953 24.7587 1 18L1.00871e-09 18L-1 18C-1.00005 25.0627 0.766929 29.8943 4.17652 32.9299C7.562 35.9441 12.3625 37 18 37V36Z" fill="black" fill-opacity="0.08" mask="url(#path-1-inside-1_9_2276)"/>
<g clip-path="url(#clip0_9_2276)">
<path d="M17.1268 9.15759H19.3374C26.8074 11.5088 27.1786 12.0376 25.463 17.8482C25.0738 18.2275 24.5767 18.477 24.0399 18.5625C20.7381 17.7582 17.92 15.75 14.6687 14.8557C14.1772 14.2149 13.9552 13.4077 14.05 12.6057C14.275 10.7495 15.8331 10.052 17.1268 9.15759Z" fill="#7831FE"/>
<path d="M24.3773 18H24.2705C25.8961 17.8482 25.8905 19.2319 26.3573 20.1713C27.1111 25.6219 22.4536 25.3912 19.3261 26.7694H17.1268C15.3268 25.785 14.5168 24.4125 15.3774 22.3763C17.7961 19.7157 20.6142 17.8819 24.3773 18Z" fill="#33CB1F"/>
<path d="M25.7667 20.25L24.2817 18C28.3598 11.8632 21.3005 11.9194 19.3374 9.15759C27.083 9.15759 27.083 9.15759 27.083 16.875V20.1713C26.6892 20.8519 26.2505 20.88 25.7667 20.25Z" fill="#F8F5FE"/>
<path d="M16.0525 22.4212C15.0906 24.1875 16.255 25.425 17.1268 26.7356C16.3937 26.6623 15.655 26.6623 14.9219 26.7356C10.2081 27.7031 8.39127 25.875 9.38126 21.24C9.53397 21.0718 9.71846 20.9355 9.92409 20.839C10.1297 20.7424 10.3524 20.6875 10.5794 20.6775C12.1375 21.0487 13.7181 20.8744 15.2987 20.835C15.9793 21.1612 16.525 21.555 16.0525 22.4212Z" fill="#F1F9F0"/>
<path d="M17.1268 9.15761L15.0118 13.202C13.5212 13.8263 12.3794 15.1876 10.6075 15.2438C10.1334 15.2066 9.69291 14.9843 9.38124 14.6251C7.69938 6.88513 13.4818 9.50636 17.1268 9.15761Z" fill="#F6F3FB"/>
<path d="M25.7667 20.2501L27.083 20.1432C27.083 26.7356 27.083 26.7356 19.3374 26.7356C21.1824 24.2719 25.7611 24.4744 25.7667 20.2501Z" fill="#F4FCF3"/>
<path d="M9.38123 14.6251C9.70887 14.5999 10.038 14.5999 10.3656 14.6251C12.6156 16.875 12.6156 19.08 10.3656 21.3019H9.86497L9.38123 21.2513V14.6251Z" fill="#C8C8C8"/>
<path d="M16.0524 22.4213L15.0399 21.24C12.5256 18.6863 12.5481 16.1044 14.9612 13.5001C19.118 12.8701 21.458 15.9807 24.3774 18.0001C21.7562 19.7325 19.6524 22.4607 16.0524 22.4213Z" fill="#F8F9FA"/>
<path d="M14.9612 13.5001C14.6912 16.0819 13.9318 18.6751 15.04 21.24C13.5156 25.4138 11.935 23.6925 10.3544 21.285V14.6082C11.2712 12.0432 12.9812 12.0938 15.0118 13.1963L14.9612 13.5001Z" fill="#222222"/>
</g>
<defs>
<clipPath id="clip0_9_2276">
<rect width="18" height="18" fill="white" transform="translate(9.08154 9)"/>
</clipPath>
</defs>
</svg>
