<svg width="36" height="36" viewBox="0 0 36 36" fill="none" xmlns="http://www.w3.org/2000/svg">
<path d="M1.00871e-09 18C7.8474e-05 6.75 3.21436 8.78424e-06 18 0C32.7856 -8.78422e-06 36 5.94643 36 18C36 30.8571 30.5358 36 18 36C6.91071 36 -9.64087e-05 31.8214 1.00871e-09 18Z" fill="#0086FF"/>
<path d="M18.8999 10.1217C18.8999 10.1217 17.979 7.86793 17.2401 9.84593C16.5012 11.8239 12.8727 16.8586 20.2785 26.9526H26.3443C26.4498 26.9776 26.5603 26.9699 26.6612 26.9304C26.7622 26.891 26.8487 26.8217 26.9092 26.7318C26.9697 26.6419 27.0014 26.5357 27 26.4274C26.9985 26.319 26.9641 26.2137 26.9013 26.1254C26.5098 25.2277 18.8999 10.1217 18.8999 10.1217ZM13.1043 18.123C13.1043 18.123 13.4959 15.9845 14.7586 17.8473C16.0214 19.7101 17.5875 23.1129 15.8615 26.9526H9.51449C9.51449 26.9526 8.57155 26.9752 9.23877 25.8497L13.1043 18.123Z" fill="white"/>
</svg>
