<svg width="36" height="36" viewBox="0 0 36 36" fill="none" xmlns="http://www.w3.org/2000/svg">
<mask id="path-1-inside-1_11_3187" fill="white">
<path d="M1.00871e-09 18C7.8474e-05 6.75 3.21436 8.78424e-06 18 0C32.7856 -8.78422e-06 36 5.94643 36 18C36 30.8571 30.5358 36 18 36C6.91071 36 -9.64087e-05 31.8214 1.00871e-09 18Z"/>
</mask>
<path d="M1.00871e-09 18C7.8474e-05 6.75 3.21436 8.78424e-06 18 0C32.7856 -8.78422e-06 36 5.94643 36 18C36 30.8571 30.5358 36 18 36C6.91071 36 -9.64087e-05 31.8214 1.00871e-09 18Z" fill="#FFEF00"/>
<path d="M1.00871e-09 18L1 18L1.00871e-09 18ZM1.00871e-09 18L1 18C1.00004 12.4188 1.81003 8.23746 4.21467 5.43204C6.5888 2.66223 10.7301 1 18 1V0V-1C10.4842 -0.999996 5.6256 0.712782 2.69616 4.13046C-0.202768 7.51254 -0.99996 12.3312 -1 18L1.00871e-09 18ZM18 0V1C25.3037 0.999996 29.4342 2.47694 31.7961 5.14302C34.1841 7.83854 35 12.0002 35 18H36H37C37 11.9462 36.2087 7.10788 33.2931 3.81679C30.3514 0.496269 25.4819 -1 18 -1V0ZM36 18H35C35 24.3159 33.6537 28.4908 30.9987 31.1095C28.3409 33.7309 24.1622 35 18 35V36V37C24.3736 37 29.1949 35.6977 32.4031 32.5334C35.6142 29.3663 37 24.5413 37 18H36ZM18 36V35C12.5482 35 8.34866 33.9666 5.50644 31.4362C2.68833 28.9271 0.999953 24.7587 1 18L1.00871e-09 18L-1 18C-1.00005 25.0627 0.766929 29.8943 4.17652 32.9299C7.562 35.9441 12.3625 37 18 37V36Z" fill="black" fill-opacity="0.08" mask="url(#path-1-inside-1_11_3187)"/>
<path d="M9.53906 13.1758V17.4469H11.7753C12.6555 17.4469 13.4689 17.138 13.4689 16.2305C13.4689 15.6171 13.027 15.337 12.5409 15.1905C12.8371 15.0717 13.173 14.8221 13.173 14.299C13.173 13.6294 12.5087 13.1758 11.6142 13.1758H9.53906ZM10.909 14.1705H11.4127C11.6177 14.1705 11.7741 14.3311 11.7741 14.4942C11.7741 14.6456 11.6116 14.8077 11.4127 14.8077H10.9091L10.909 14.1705ZM10.909 15.6941H11.5739C11.806 15.6941 12.0007 15.8704 12.0007 16.0719C12.0007 16.2858 11.8186 16.4635 11.5336 16.4635H10.909V15.6941ZM10.6471 17.9128V22.1839H12.8834C13.7636 22.1839 14.577 21.8749 14.577 20.9675C14.577 20.3541 14.1351 20.074 13.649 19.9274C13.9451 19.8086 14.2811 19.5591 14.2811 19.036C14.2811 18.3664 13.6167 17.9128 12.7222 17.9128H10.6471ZM12.0171 18.9075H12.5208C12.7258 18.9075 12.8822 19.0681 12.8822 19.2311C12.8822 19.3826 12.7197 19.5447 12.5208 19.5447H12.0171V18.9075ZM12.0171 20.4311H12.6819C12.914 20.4311 13.1088 20.6074 13.1088 20.8089C13.1088 21.0228 12.9267 21.2005 12.6417 21.2005H12.0171V20.4311ZM13.5765 17.4464V13.1753H17.0215V14.2068H14.9424V14.7669H16.6307V15.7339H14.9424V16.4189H17.0215V17.4464L13.5765 17.4464ZM18.8878 17.5686C19.8575 17.5686 20.6331 17.0155 20.6331 16.1191C20.6331 14.6725 18.7512 14.8951 18.7512 14.4447C18.7512 14.2707 18.9342 14.1784 19.1218 14.1784C19.4452 14.1784 19.6789 14.3914 19.6789 14.3914L20.4885 13.6205C20.1647 13.3123 19.6533 13.0532 18.9643 13.0532C17.9296 13.0532 17.2526 13.6673 17.2526 14.4082C17.2526 15.8732 19.1074 15.6606 19.1074 16.1202C19.1074 16.2814 18.9524 16.4435 18.6712 16.4435C18.352 16.4435 18.0991 16.2508 17.9023 16.0873L17.0879 16.8637C17.4159 17.1831 17.9423 17.5686 18.8878 17.5686H18.8878ZM21.6875 17.4464V14.2028H20.5593V13.1753H24.1857V14.2028H23.0575V17.4463L21.6875 17.4464ZM14.6241 17.9098H15.99V20.4684C15.99 20.7282 16.2486 20.9676 16.5182 20.9676C16.7725 20.9676 17.0296 20.7514 17.0296 20.4547V17.9097H18.3915V20.4373C18.3915 21.4402 17.5588 22.2403 16.4821 22.2403C15.3993 22.2403 14.6241 21.3696 14.6241 20.3827V17.9098ZM20.0758 22.1808V20.6547L18.4703 17.9098H19.8523L20.7608 19.3805L21.6723 17.9098H23.0575L21.4458 20.6703V22.1808H20.0758Z" fill="#1C252C"/>
<path d="M23.0576 20.2473L22.2517 21.0532V22.1411L23.0576 22.947H26.4664V20.2473H23.0576Z" fill="white"/>
<path d="M22.9251 21.5967C22.9251 21.6969 22.8439 21.778 22.7438 21.778C22.6437 21.778 22.5625 21.6969 22.5625 21.5967C22.5625 21.4966 22.6437 21.4154 22.7438 21.4154C22.8439 21.4154 22.9251 21.4966 22.9251 21.5967Z" fill="#1C252C"/>
</svg>
