<svg width="36" height="36" viewBox="0 0 36 36" fill="none" xmlns="http://www.w3.org/2000/svg">
<path d="M1.00871e-09 18C7.8474e-05 6.75 3.21436 8.78424e-06 18 0C32.7856 -8.78422e-06 36 5.94643 36 18C36 30.8571 30.5358 36 18 36C6.91071 36 -9.64087e-05 31.8214 1.00871e-09 18Z" fill="#3E51E9"/>
<g clip-path="url(#clip0_10_2674)">
<path d="M18.7125 26.6924C19.5354 26.6924 20.3512 26.5226 21.1587 26.1818C21.9662 25.841 22.7025 25.2437 23.3675 24.3887L23.7475 26.3124H26.1225V17.1449H18.9975V19.9237H22.75C22.6395 21.1112 22.2477 22.0173 21.5743 22.6431C20.901 23.2689 19.9475 23.5812 18.7125 23.5812C17.8729 23.5812 17.1604 23.4185 16.575 23.0943C16.0035 22.7828 15.5149 22.3389 15.15 21.7999C14.7791 21.2463 14.5097 20.6311 14.3543 19.9831C14.1872 19.303 14.1035 18.6052 14.105 17.9049C14.105 17.1604 14.1881 16.4408 14.3543 15.7437C14.5065 15.0798 14.776 14.4485 15.15 13.8793C15.5145 13.3331 15.9895 12.8973 16.575 12.5731C17.1604 12.2489 17.8729 12.0862 18.7125 12.0862C19.615 12.0862 20.3833 12.3237 21.0162 12.7987C21.6492 13.2737 22.0767 13.9862 22.2987 14.9362H25.8612C25.7662 13.9708 25.505 13.1158 25.0775 12.3712C24.6648 11.6442 24.1118 11.0064 23.4506 10.4949C22.7872 9.98499 22.0397 9.59514 21.2418 9.34307C20.4243 9.08147 19.5709 8.94925 18.7125 8.95119C17.4145 8.95119 16.246 9.18038 15.2093 9.63994C14.2065 10.0743 13.3107 10.7228 12.585 11.5399C11.8725 12.3474 11.3262 13.2939 10.9462 14.3781C10.5662 15.4623 10.3762 16.6379 10.3762 17.9049C10.3762 19.1399 10.5662 20.2918 10.9462 21.3606C11.3262 22.4293 11.8725 23.3591 12.585 24.1512C13.2975 24.9433 14.1727 25.5643 15.2093 26.0156C16.246 26.4668 17.4145 26.6924 18.7125 26.6924Z" fill="white"/>
</g>
<defs>
<clipPath id="clip0_10_2674">
<rect width="19" height="19" fill="white" transform="translate(8.5 8.5)"/>
</clipPath>
</defs>
</svg>
