<svg width="36" height="36" viewBox="0 0 36 36" fill="none" xmlns="http://www.w3.org/2000/svg">
<path d="M1.00871e-09 18C7.8474e-05 6.75 3.21436 8.78424e-06 18 0C32.7856 -8.78422e-06 36 5.94643 36 18C36 30.8571 30.5358 36 18 36C6.91071 36 -9.64087e-05 31.8214 1.00871e-09 18Z" fill="#FF4500"/>
<g clip-path="url(#clip0_10_3039)">
<path d="M20.634 21C20.0175 21 19.5 20.4998 19.5 19.8833C19.5 19.2668 20.0175 18.75 20.634 18.75C21.2505 18.75 21.75 19.2668 21.75 19.8833C21.75 20.4998 21.2505 21 20.634 21ZM20.8612 23.2118C20.256 23.742 19.3238 24 18.009 24H17.9903C16.6763 24 15.744 23.742 15.1395 23.2118C15.0959 23.176 15.0607 23.131 15.0366 23.0801C15.0124 23.0291 14.9999 22.9734 14.9999 22.917C14.9999 22.8606 15.0124 22.8049 15.0366 22.7539C15.0607 22.703 15.0959 22.658 15.1395 22.6223C15.2336 22.5435 15.3524 22.5003 15.4751 22.5003C15.5978 22.5003 15.7167 22.5435 15.8107 22.6223C16.2277 22.9883 16.941 23.1668 17.9903 23.1668H18.009C19.059 23.1668 19.7723 22.9883 20.19 22.6223C20.284 22.5433 20.4029 22.5 20.5256 22.5C20.6484 22.5 20.7672 22.5433 20.8612 22.6223C20.9046 22.6581 20.9396 22.7032 20.9636 22.7541C20.9875 22.8051 21 22.8607 21 22.917C21 22.9733 20.9875 23.0289 20.9636 23.0799C20.9396 23.1308 20.9046 23.1759 20.8612 23.2118ZM14.25 19.8825C14.25 19.2675 14.7675 18.75 15.3832 18.75C15.9997 18.75 16.5 19.2675 16.5 19.8833C16.4998 20.1794 16.3821 20.4633 16.1727 20.6727C15.9633 20.8821 15.6794 20.9998 15.3832 21C14.7675 21 14.25 20.4998 14.25 19.8833M24 12C24.1931 12.0086 24.3754 12.0914 24.509 12.2311C24.6426 12.3708 24.7172 12.5567 24.7172 12.75C24.7172 12.9433 24.6426 13.1292 24.509 13.2689C24.3754 13.4086 24.1931 13.4914 24 13.5C23.5867 13.5 23.25 13.1632 23.25 12.75C23.25 12.3367 23.5867 12 24 12ZM27 18.2055C27 16.9642 26.0295 15.9555 24.837 15.9555C24.3203 15.9555 23.8463 16.1445 23.4735 16.4602C22.155 15.5977 20.481 15.078 18.6862 14.9677L19.6223 11.889L22.1947 12.519C22.2622 13.494 23.0452 14.265 23.9985 14.265C24.996 14.265 25.8075 13.4205 25.8075 12.3825C25.8075 11.3445 24.996 10.5 23.9985 10.5C23.301 10.5 22.6943 10.9125 22.3928 11.5162L19.4025 10.785C19.2801 10.7568 19.1516 10.7767 19.0435 10.8406C18.9355 10.9046 18.8561 11.0077 18.822 11.1285L17.6595 14.9505C15.726 14.9992 13.9088 15.5205 12.4928 16.434C12.1179 16.1255 11.6477 15.9564 11.1623 15.9555C9.9705 15.9547 9 16.965 9 18.2055C9 18.9727 9.37125 19.6515 9.93675 20.058C9.91289 20.237 9.90087 20.4174 9.90075 20.598C9.90075 22.149 10.767 23.5928 12.3413 24.6608C13.8495 25.686 15.8467 26.25 17.9632 26.25C20.0798 26.25 22.077 25.686 23.586 24.6608C25.1595 23.5928 26.0265 22.149 26.0265 20.598C26.0265 20.4323 26.0152 20.268 25.9965 20.1045C26.3074 19.8952 26.5617 19.6124 26.7368 19.281C26.9118 18.9497 27.0023 18.5802 27 18.2055Z" fill="white"/>
</g>
<defs>
<clipPath id="clip0_10_3039">
<rect width="18" height="18" fill="white" transform="translate(9 9)"/>
</clipPath>
</defs>
</svg>
