<svg width="36" height="36" viewBox="0 0 36 36" fill="none" xmlns="http://www.w3.org/2000/svg">
<mask id="path-1-inside-1_6_1962" fill="white">
<path d="M1.00871e-09 18C7.8474e-05 6.75 3.21436 8.78424e-06 18 0C32.7856 -8.78422e-06 36 5.94643 36 18C36 30.8571 30.5358 36 18 36C6.91071 36 -9.64087e-05 31.8214 1.00871e-09 18Z"/>
</mask>
<path d="M1.00871e-09 18C7.8474e-05 6.75 3.21436 8.78424e-06 18 0C32.7856 -8.78422e-06 36 5.94643 36 18C36 30.8571 30.5358 36 18 36C6.91071 36 -9.64087e-05 31.8214 1.00871e-09 18Z" fill="#232128"/>
<path d="M1.00871e-09 18L1 18L1.00871e-09 18ZM1.00871e-09 18L1 18C1.00004 12.4188 1.81003 8.23746 4.21467 5.43204C6.5888 2.66223 10.7301 1 18 1V0V-1C10.4842 -0.999996 5.6256 0.712782 2.69616 4.13046C-0.202768 7.51254 -0.99996 12.3312 -1 18L1.00871e-09 18ZM18 0V1C25.3037 0.999996 29.4342 2.47694 31.7961 5.14302C34.1841 7.83854 35 12.0002 35 18H36H37C37 11.9462 36.2087 7.10788 33.2931 3.81679C30.3514 0.496269 25.4819 -1 18 -1V0ZM36 18H35C35 24.3159 33.6537 28.4908 30.9987 31.1095C28.3409 33.7309 24.1622 35 18 35V36V37C24.3736 37 29.1949 35.6977 32.4031 32.5334C35.6142 29.3663 37 24.5413 37 18H36ZM18 36V35C12.5482 35 8.34866 33.9666 5.50644 31.4362C2.68833 28.9271 0.999953 24.7587 1 18L1.00871e-09 18L-1 18C-1.00005 25.0627 0.766929 29.8943 4.17652 32.9299C7.562 35.9441 12.3625 37 18 37V36Z" fill="white" fill-opacity="0.09" mask="url(#path-1-inside-1_6_1962)"/>
<path d="M24.0489 18.6099C24.0386 16.8537 24.8343 15.5301 26.4412 14.5541C25.5425 13.2666 24.1828 12.5584 22.3906 12.4219C20.6936 12.288 18.8369 13.4108 18.1571 13.4108C17.4386 13.4108 15.7957 12.4683 14.503 12.4683C11.8352 12.5095 9 14.5953 9 18.8391C9 20.0932 9.22918 21.3884 9.68755 22.7223C10.3004 24.4786 12.5099 28.7816 14.8146 28.7121C16.0197 28.6837 16.8721 27.8571 18.4403 27.8571C19.9622 27.8571 20.7502 28.7121 22.0944 28.7121C24.4197 28.6786 26.418 24.767 27 23.0056C23.8815 21.5352 24.0489 18.7 24.0489 18.6099Z" fill="white"/>
<path d="M19.0833 10.7558C20.3888 9.20556 20.2704 7.79441 20.2318 7.28711C19.0781 7.35406 17.7442 8.07252 16.9845 8.95578C16.1476 9.90342 15.6558 11.0751 15.7614 12.3961C17.0077 12.4914 18.1459 11.8502 19.0833 10.7558Z" fill="white"/>
</svg>
