<svg width="36" height="36" viewBox="0 0 36 36" fill="none" xmlns="http://www.w3.org/2000/svg">
<path d="M1.00871e-09 18C7.8474e-05 6.75 3.21436 8.78424e-06 18 0C32.7856 -8.78422e-06 36 5.94643 36 18C36 30.8571 30.5358 36 18 36C6.91071 36 -9.64087e-05 31.8214 1.00871e-09 18Z" fill="#002AFF"/>
<g clip-path="url(#clip0_10_2782)">
<path d="M22.56 12.4275L22.11 13.23L23.505 12.96C23.505 12.96 24 12 22.56 12.4275ZM18.75 15.8175L19.9125 15.4575L20.0925 14.835L18.84 15.2775L18.75 15.8175ZM19.29 13.9425L20.445 13.6725L20.625 12.9225L19.4625 13.1925L19.29 13.9425ZM21.4275 15.105L22.8525 14.745L23.2125 13.8525L21.7125 14.3025L21.4275 15.105ZM13.815 19.1175L15.2475 18.5775L15.33 17.4225L14.085 18.045L13.815 19.1175ZM16.065 12.87L15.315 13.14L15.1575 14.1225L15.87 13.9425L16.065 12.87ZM14.4375 16.5L15.51 16.14L15.69 15.165L14.7075 15.4275L14.4375 16.5ZM24 9H12C11.2043 9 10.4413 9.31607 9.87868 9.87868C9.31607 10.4413 9 11.2043 9 12V24V21.24L12.75 19.56L13.815 13.6725L12.315 14.385L12.675 12.135C14.4091 11.7723 16.1617 11.5044 17.925 11.3325L16.68 18.0825C19.5764 16.9517 22.5551 16.044 25.59 15.3675L25.32 16.44C23.3945 17.0368 21.5408 17.8442 19.7925 18.8475L19.9725 19.1175C19.9725 19.1175 23.2725 17.3325 23.625 19.56C23.625 19.56 24.075 20.5425 22.9125 21.8775C21.1231 23.5277 18.9928 24.7644 16.6725 25.5C16.6725 25.455 16.7625 24.6525 16.7625 24.6525C16.7625 24.6525 20.415 23.0475 21.3975 20.82C21.3975 20.82 21.8475 19.125 19.6125 20.1075C19.1269 20.3705 18.7026 20.7335 18.3675 21.1725L17.475 20.82C17.5987 20.3228 17.7747 19.8401 18 19.38L16.2225 20.19L15.42 24.75L14.4375 25.11L14.8875 20.9175C14.8875 20.9175 10.7475 23.0925 9 24.3075C9.07637 25.0487 9.42585 25.735 9.98039 26.2327C10.5349 26.7304 11.2549 27.0039 12 27H24C24.7956 27 25.5587 26.6839 26.1213 26.1213C26.6839 25.5587 27 24.7956 27 24V12C27 11.2043 26.6839 10.4413 26.1213 9.87868C25.5587 9.31607 24.7956 9 24 9ZM24.4275 13.14L23.3625 15.5475L17.205 17.4225C17.205 17.4225 18.1875 11.4225 18.3675 11.265L20.325 11.085L20.0625 11.715L21.045 11.445L21.6675 9.75H23.805L23.1825 11.085C23.1825 11.085 25.2375 10.8225 24.4275 13.14Z" fill="white"/>
</g>
<defs>
<clipPath id="clip0_10_2782">
<rect width="18" height="18" fill="white" transform="translate(9 9)"/>
</clipPath>
</defs>
</svg>
