<svg width="36" height="36" viewBox="0 0 36 36" fill="none" xmlns="http://www.w3.org/2000/svg">
<path d="M1.00871e-09 18C7.8474e-05 6.75 3.21436 8.78424e-06 18 0C32.7856 -8.78422e-06 36 5.94643 36 18C36 30.8571 30.5358 36 18 36C6.91071 36 -9.64087e-05 31.8214 1.00871e-09 18Z" fill="#EA571B"/>
<g clip-path="url(#clip0_10_2791)">
<path d="M15.3917 18.795C15.1821 18.6437 14.9374 18.6088 14.658 18.6902L14.0814 18.8998C14.5008 18.9348 14.7744 19.0108 14.9025 19.1268C15.0189 19.2553 15.0832 19.5227 15.0948 19.9306V19.9831L15.3044 20.2978L15.4965 20.1752C15.5664 20.1291 15.6073 20.0821 15.6188 20.0355C15.6771 19.8957 15.706 19.6974 15.706 19.4416C15.706 19.1618 15.6013 18.9464 15.3917 18.795Z" fill="white"/>
<path d="M24.9428 9H11.0572C9.92101 9 9 9.92101 9 11.0572V24.9428C9 26.079 9.92101 27 11.0572 27H24.9428C26.079 27 27 26.079 27 24.9428V11.0572C27 9.92101 26.079 9 24.9428 9ZM23.0957 15.7031L22.8337 18.8649C22.7988 19.3776 22.8047 19.8321 22.5951 20.228C22.5252 20.356 22.4729 20.5249 22.4379 20.7345C22.4147 20.8625 22.3856 21.043 22.3506 21.2759C22.2226 21.9629 22.0183 22.3355 21.995 22.3937C21.6807 23.477 20.9005 24.1468 19.6543 24.403C18.0706 24.694 16.7019 24.5311 15.549 23.914C14.3961 23.2964 13.6738 22.4752 13.3829 21.4506C13.2665 21.078 13.2546 20.5424 13.348 19.8433C13.3713 19.7386 13.4412 19.6101 13.5576 19.4592C13.7208 19.2379 13.8137 19.1094 13.837 19.0745C13.4992 19.0632 13.2605 19.0163 13.1208 18.9348C12.981 18.8537 12.8762 18.7077 12.8064 18.4981C12.7365 18.2187 12.754 17.9158 12.8588 17.59C12.9636 17.2754 13.1208 17.0423 13.3303 16.8911C13.6798 16.6464 14.0466 16.5359 14.431 16.5591C14.8038 16.5707 15.1182 16.7223 15.3744 17.0134C15.5027 17.1646 15.648 17.4326 15.811 17.817C15.8227 17.8519 15.9044 17.9742 16.0557 18.1838L16.1605 18.1489V17.59C16.0208 15.3538 15.9274 13.6707 15.8809 12.5413C15.8694 12.1569 15.9335 11.8775 16.0732 11.7028C16.2243 11.5396 16.4749 11.4581 16.8244 11.4581C17.1737 11.4467 17.4531 11.5396 17.6629 11.7377C17.8609 11.9357 17.9656 12.2153 17.9773 12.5762L18.117 18.079C18.1286 18.1489 18.1869 18.2595 18.2917 18.4108C18.3848 18.1898 18.4314 18.0732 18.4314 18.0615V12.5762C18.4197 12.0984 18.542 11.7784 18.7982 11.6152C19.0314 11.4755 19.3982 11.458 19.8989 11.5628C20.4345 11.6911 20.7027 12.046 20.7027 12.6286L20.563 18.2885C20.563 18.3234 20.6038 18.4225 20.6853 18.5854C20.7784 18.4341 20.825 18.3467 20.825 18.3235L21.1567 13.6767C21.2151 13.0478 21.512 12.7509 22.0475 12.7858C22.8514 12.8207 23.2472 13.1351 23.2355 13.7291C23.2354 13.8688 23.1893 14.5267 23.0957 15.7031Z" fill="white"/>
</g>
<defs>
<clipPath id="clip0_10_2791">
<rect width="18" height="18" fill="white" transform="translate(9 9)"/>
</clipPath>
</defs>
</svg>
