<svg width="36" height="36" viewBox="0 0 36 36" fill="none" xmlns="http://www.w3.org/2000/svg">
<path d="M1.00871e-09 18C7.8474e-05 6.75 3.21436 8.78424e-06 18 0C32.7856 -8.78422e-06 36 5.94643 36 18C36 30.8571 30.5358 36 18 36C6.91071 36 -9.64087e-05 31.8214 1.00871e-09 18Z" fill="#3245DF"/>
<g clip-path="url(#clip0_9_2162)">
<path d="M16.25 17.4125C17.2437 16.9375 17.7625 16.2188 17.7625 15.1C17.7625 12.8938 16.1188 12.3563 14.2219 12.3563H9V23.4313H14.3688C16.3813 23.4313 18.2719 22.4656 18.2719 20.2156C18.2719 18.825 17.6125 17.7969 16.25 17.4125ZM11.4344 14.2469H13.7188C14.5969 14.2469 15.3875 14.4938 15.3875 15.5125C15.3875 16.4531 14.7719 16.8313 13.9031 16.8313H11.4344V14.2469ZM14.0375 21.55H11.4344V18.5H14.0875C15.1594 18.5 15.8375 18.9469 15.8375 20.0813C15.8375 21.2 15.0281 21.55 14.0375 21.55ZM25.2406 14.0281H20.75V12.9375H25.2406V14.0281ZM27 19.5375C27 17.1656 25.6125 15.1875 23.0969 15.1875C20.6531 15.1875 18.9937 17.025 18.9937 19.4313C18.9937 21.9281 20.5656 23.6406 23.0969 23.6406C25.0125 23.6406 26.2531 22.7781 26.85 20.9438H24.9062C24.6969 21.6281 23.8344 21.9906 23.1656 21.9906C21.875 21.9906 21.1969 21.2344 21.1969 19.95H26.9813C26.9906 19.8188 27 19.6781 27 19.5375ZM21.2 18.5625C21.2719 17.5094 21.9719 16.85 23.0281 16.85C24.1344 16.85 24.6906 17.5 24.7844 18.5625H21.2Z" fill="white"/>
</g>
<defs>
<clipPath id="clip0_9_2162">
<rect width="18" height="18" fill="white" transform="translate(9 9)"/>
</clipPath>
</defs>
</svg>
