<svg width="36" height="36" viewBox="0 0 36 36" fill="none" xmlns="http://www.w3.org/2000/svg">
<mask id="path-1-inside-1_9_2366" fill="white">
<path d="M1.00871e-09 18C7.8474e-05 6.75 3.21436 8.78424e-06 18 0C32.7856 -8.78422e-06 36 5.94643 36 18C36 30.8571 30.5358 36 18 36C6.91071 36 -9.64087e-05 31.8214 1.00871e-09 18Z"/>
</mask>
<path d="M1.00871e-09 18C7.8474e-05 6.75 3.21436 8.78424e-06 18 0C32.7856 -8.78422e-06 36 5.94643 36 18C36 30.8571 30.5358 36 18 36C6.91071 36 -9.64087e-05 31.8214 1.00871e-09 18Z" fill="white"/>
<path d="M1.00871e-09 18L1 18L1.00871e-09 18ZM1.00871e-09 18L1 18C1.00004 12.4188 1.81003 8.23746 4.21467 5.43204C6.5888 2.66223 10.7301 1 18 1V0V-1C10.4842 -0.999996 5.6256 0.712782 2.69616 4.13046C-0.202768 7.51254 -0.99996 12.3312 -1 18L1.00871e-09 18ZM18 0V1C25.3037 0.999996 29.4342 2.47694 31.7961 5.14302C34.1841 7.83854 35 12.0002 35 18H36H37C37 11.9462 36.2087 7.10788 33.2931 3.81679C30.3514 0.496269 25.4819 -1 18 -1V0ZM36 18H35C35 24.3159 33.6537 28.4908 30.9987 31.1095C28.3409 33.7309 24.1622 35 18 35V36V37C24.3736 37 29.1949 35.6977 32.4031 32.5334C35.6142 29.3663 37 24.5413 37 18H36ZM18 36V35C12.5482 35 8.34866 33.9666 5.50644 31.4362C2.68833 28.9271 0.999953 24.7587 1 18L1.00871e-09 18L-1 18C-1.00005 25.0627 0.766929 29.8943 4.17652 32.9299C7.562 35.9441 12.3625 37 18 37V36Z" fill="black" fill-opacity="0.08" mask="url(#path-1-inside-1_9_2366)"/>
<path d="M15.6923 23.423C15.6923 21.9922 15.6231 21.5306 15.3462 21.4383C15.1615 21.346 15 21.1614 15 20.9768C15 20.4922 16.5231 20.5614 18.1154 21.1153C18.8538 21.3691 19.5 21.5768 19.5692 21.5768C19.6385 21.5768 19.6385 19.8691 19.5692 17.7691L19.4538 13.9383L20.0538 14.0768C20.3769 14.146 21.4846 14.0076 22.5 13.7537C23.5154 13.4999 24.9462 13.223 25.6846 13.1537L27 12.9922V17.6306C27 21.1614 26.9308 22.2922 26.7231 22.3614C26.5615 22.4076 25.4308 22.6153 24.2308 22.846C23.0308 23.0537 20.6538 23.6768 18.9692 24.2537C17.2846 24.8076 15.8769 25.2691 15.8077 25.2691C15.7385 25.2691 15.6923 24.4383 15.6923 23.423Z" fill="#4E9FFE"/>
<path d="M13.5 20.9538C12.3462 20.6769 10.8692 20.3769 10.2231 20.2846L9 20.1461V15.4384C9 11.6076 9.06923 10.7307 9.32308 10.7307C10.2462 10.7307 13.8923 11.5153 15.7615 12.1153C18.6231 13.0384 20.2615 13.9846 20.2615 14.723C20.2615 15.1846 20.0769 15.3461 19.4077 15.5538C18.9462 15.6922 18.0692 16.1307 17.4231 16.5461L16.2692 17.3076L16.2 19.3153C16.1538 20.6076 16.0385 21.323 15.8538 21.3922C15.6923 21.4384 14.6538 21.2538 13.5 20.9538Z" fill="#00C358"/>
<path d="M18 22.0153C17.0539 21.6692 16.0846 21.3922 15.8539 21.4615C15.4846 21.5307 15.4616 21.3461 15.5077 19.0846L15.577 16.6384L16.5693 15.9692C17.1 15.5999 18.1616 15.0692 18.9231 14.7692L20.2846 14.2384L20.2385 18.4153C20.2154 20.9769 20.1 22.5922 19.9616 22.6153C19.8462 22.6384 18.9462 22.3846 18 22.0153Z" fill="#348AC4"/>
</svg>
