<svg width="36" height="36" viewBox="0 0 36 36" fill="none" xmlns="http://www.w3.org/2000/svg">
<path d="M1.00871e-09 18C7.8474e-05 6.75 3.21436 8.78424e-06 18 0C32.7856 -8.78422e-06 36 5.94643 36 18C36 30.8571 30.5358 36 18 36C6.91071 36 -9.64087e-05 31.8214 1.00871e-09 18Z" fill="#C1000B"/>
<path d="M15.6306 21.9161H25.5805L27 19.4981L21.6676 10.4664L20.2661 12.9139L24.2609 19.4482L16.9999 19.4943L15.6306 21.9161Z" fill="white"/>
<path d="M23.5617 25.6409H13.0469L11.4381 23.4938L16.5517 14.7062L17.913 17.0644L14.3055 23.4065L22.2222 23.5392L23.5617 25.6409Z" fill="white"/>
<path d="M9 19.4521L14.5624 10.359H17.2612L22.4247 19.139L19.5372 19.1709L15.8942 12.65L11.8284 19.501L9 19.4521Z" fill="white"/>
<path d="M24.3719 22.5756L24.8401 23.5582L23.5617 25.641L21.6692 22.6306L24.3719 22.5756ZM18.5613 11.2996L19.0171 10.4792L21.6676 10.4664L19.9037 13.5267L18.5613 11.2996ZM11.5363 22.044L10.7236 22.0565L9 19.452L13.0399 19.5007L11.5363 22.044Z" fill="white"/>
</svg>
