<svg width="36" height="36" viewBox="0 0 36 36" fill="none" xmlns="http://www.w3.org/2000/svg">
<path d="M1.00871e-09 18C7.8474e-05 6.75 3.21436 8.78424e-06 18 0C32.7856 -8.78422e-06 36 5.94643 36 18C36 30.8571 30.5358 36 18 36C6.91071 36 -9.64087e-05 31.8214 1.00871e-09 18Z" fill="#E54200"/>
<path d="M25.4441 15.9516H26.1587C26.1898 16.138 26.221 16.0138 26.221 16.1687V17.2242H25.4441V15.9516ZM29.1424 14.5241C29.0494 14.4327 28.9871 14.4327 28.8318 14.4327H28.6761C28.427 14.4327 28.148 14.6499 28.1168 14.867C28.0238 14.9293 28.0238 14.9293 28.0238 15.0842V15.9516H28.8937C29.2358 15.9516 29.5464 15.5484 29.5464 15.1448C29.5464 14.8654 29.3288 14.6465 29.1424 14.5241ZM17.2702 17.5966L17.8312 16.6034L18.0803 15.9806H16.5552C16.5241 16.1052 16.5241 16.1978 16.3999 16.1978C16.3376 16.1978 16.3065 16.1359 16.3065 16.0732V15.9827C16.3065 15.9204 16.5556 15.455 16.6175 15.3619L17.3329 13.9656L15.7784 13.9344C15.6538 14.5573 14.4418 16.2929 14.4418 16.8825V17.007C14.4418 17.2865 14.6282 17.3176 14.7835 17.4417L15.8402 17.4729L15.3121 18.4349L15.2498 18.5898C15.2187 18.6521 14.9704 19.3347 14.9704 19.397V19.5813C14.9704 20.0157 15.3744 20.0157 15.8423 20.0157C16.1844 20.0157 16.899 20.0779 17.1166 19.9538L17.7394 18.7434H16.8969C16.8969 18.7123 16.8351 18.6504 16.8351 18.6189C16.8351 18.4636 17.1768 17.8428 17.2702 17.7187V17.5966ZM8.19492 18.8377L8.44404 15.9516H6.92063C6.70306 15.9516 6.79607 16.5744 6.79607 16.7894C6.79607 17.1631 6.7342 17.4413 6.70306 17.7515C6.70306 18.1551 6.64078 18.2498 6.64078 18.6517C6.64078 19.179 6.51621 19.2745 6.48549 19.5826L6.45435 19.7379L7.29349 21.3514C7.69749 21.0412 8.19492 19.6445 8.19492 18.8377ZM13.9755 21.8791V22.0037H14.1312L14.5352 22.0656L16.3376 22.0348L17.085 20.5139C16.1525 20.5139 15.4998 20.5762 14.754 20.3893L13.9755 21.8791ZM13.2281 21.2272V21.1027H13.2593L13.8202 19.955C13.8514 19.8305 13.9755 19.7059 13.9755 19.7059C13.9755 19.6748 13.7891 19.0233 13.7579 18.868C13.6961 18.5886 13.6961 18.1854 13.6961 17.8748C13.6961 17.3164 13.5404 16.5715 13.5404 15.9819H12.0182C12.0801 16.2613 12.1428 17.1299 12.1428 17.4405C12.1428 17.906 12.2362 18.4956 12.2673 18.961C12.3296 19.6436 12.7025 21.1645 13.1687 21.2887L13.2281 21.2272ZM9.50034 20.7929H8.50383V20.9175C8.50383 21.5071 9.00209 22.0348 9.59169 22.0348C10.0899 22.0348 10.3997 21.9725 10.6173 21.6931C10.8348 21.5071 11.0213 21.0728 11.0213 20.7003V13.9344H9.50034V20.7929ZM21.8077 15.9827C21.9011 15.9827 21.9322 15.9516 21.9322 15.8581V14.4327H18.3269V15.9827H19.3836V20.5135H17.9557C17.7693 20.5135 17.1789 21.7861 17.1166 22.0344H22.4313V20.5135H20.9062V15.9827H21.8077ZM22.8955 15.9516C23.0201 15.9827 22.8644 15.9827 23.0201 15.9827H23.9526V17.2242H22.4292V18.7447H23.9522V22.0344H25.4441V18.7447L27.6817 18.8066C27.837 18.8688 28.0238 18.9311 28.0238 19.2413V20.7306H26.5008C26.5008 21.5067 27.0912 22.0344 27.8992 22.0344C29.0182 22.0344 29.5464 21.6308 29.5464 20.4823V18.8377C29.5464 17.9687 29.0182 17.2242 28.2414 17.2242H27.7431V16.324C27.7431 15.1759 27.1203 14.431 26.0337 14.431H25.4441V13.9344H23.9834V14.4327H22.8968L22.8955 15.9516Z" fill="white"/>
</svg>
