<svg width="36" height="36" viewBox="0 0 36 36" fill="none" xmlns="http://www.w3.org/2000/svg">
<path d="M1.00871e-09 18C7.8474e-05 6.75 3.21436 8.78424e-06 18 0C32.7856 -8.78422e-06 36 5.94643 36 18C36 30.8571 30.5358 36 18 36C6.91071 36 -9.64087e-05 31.8214 1.00871e-09 18Z" fill="#156DA0"/>
<g clip-path="url(#clip0_10_2801)">
<path d="M9.17773 14.5607H12.8758V27.0001H9.17773V14.5607Z" fill="white"/>
<path d="M11.291 9C9.99874 9 9.15295 9.87166 9.15295 11.0065C9.15295 12.1143 9.97175 12.8409 11.2382 12.8409C12.5833 12.8409 13.4021 12.1143 13.4021 11.0065C13.3751 9.87053 12.5833 9 11.291 9Z" fill="white"/>
<path d="M26.8481 19.8716C26.8481 16.0723 25.6548 14.3042 23.0173 14.3042C20.8522 14.3042 19.8141 15.6865 19.2866 16.53H19.2079L19.2113 14.5606H15.8337C15.8855 15.7225 15.8596 17.1014 15.8596 18.7097V27H19.6882V20.056C19.6882 19.6871 19.714 19.3182 19.8197 19.0528C20.1099 18.3149 20.4833 17.5501 21.5912 17.5501C23.0421 17.5501 23.4953 18.6861 23.4953 20.3462V27H26.847V19.8716H26.8481Z" fill="white"/>
</g>
<defs>
<clipPath id="clip0_10_2801">
<rect width="18" height="18" fill="white" transform="translate(9 9)"/>
</clipPath>
</defs>
</svg>
