<svg width="36" height="36" viewBox="0 0 36 36" fill="none" xmlns="http://www.w3.org/2000/svg">
<path d="M1.00871e-09 18C7.8474e-05 6.75 3.21436 8.78424e-06 18 0C32.7856 -8.78422e-06 36 5.94643 36 18C36 30.8571 30.5358 36 18 36C6.91071 36 -9.64087e-05 31.8214 1.00871e-09 18Z" fill="#3178C6"/>
<g clip-path="url(#clip0_6_1816)">
<path d="M9.38723 8H29.058C30.6494 8 31.4452 8.79574 31.4452 10.3872V30.058C31.4452 31.6494 30.6494 32.4452 29.058 32.4452H9.38723C7.79574 32.4452 7 31.6494 7 30.058V10.3872C7 8.79574 7.79574 8 9.38723 8Z" fill="#3178C6"/>
<path d="M22.1322 27.4523V29.8424C22.5207 30.0416 22.9802 30.191 23.5108 30.2906C24.0413 30.3901 24.6005 30.4399 25.1883 30.4399C25.7612 30.4399 26.3054 30.3852 26.821 30.2756C27.3365 30.1661 27.7886 29.9856 28.1772 29.7341C28.5657 29.4827 28.8733 29.154 29.1 28.7482C29.3266 28.3423 29.44 27.8407 29.44 27.2432C29.44 26.8099 29.3752 26.4303 29.2457 26.1041C29.1162 25.778 28.9294 25.4879 28.6853 25.234C28.4412 24.98 28.1485 24.7522 27.8073 24.5505C27.4661 24.3488 27.0813 24.1584 26.6528 23.9792C26.339 23.8497 26.0576 23.724 25.8085 23.602C25.5594 23.4799 25.3477 23.3555 25.1733 23.2285C24.999 23.1015 24.8645 22.9671 24.7698 22.8252C24.6752 22.6832 24.6279 22.5227 24.6279 22.3434C24.6279 22.1791 24.6702 22.0309 24.7549 21.899C24.8396 21.767 24.9592 21.6538 25.1136 21.5591C25.268 21.4646 25.4573 21.3911 25.6814 21.3388C25.9056 21.2865 26.1547 21.2604 26.4287 21.2604C26.6279 21.2604 26.8384 21.2753 27.0601 21.3052C27.2817 21.3351 27.5047 21.3811 27.7289 21.4434C27.9524 21.5054 28.1709 21.584 28.3827 21.6786C28.5944 21.7733 28.7899 21.8828 28.9692 22.0073V19.774C28.6056 19.6346 28.2083 19.5313 27.7774 19.4641C27.3465 19.3968 26.8521 19.3632 26.2942 19.3632C25.7263 19.3632 25.1883 19.4242 24.6802 19.5462C24.1721 19.6682 23.725 19.8587 23.3389 20.1176C22.9528 20.3765 22.6477 20.7064 22.4236 21.1073C22.1994 21.5081 22.0873 21.9874 22.0873 22.5451C22.0873 23.2571 22.2928 23.8646 22.7038 24.3676C23.1147 24.8705 23.7387 25.2962 24.5756 25.6448C24.9043 25.7792 25.2107 25.9111 25.4947 26.0406C25.7786 26.1701 26.024 26.3046 26.2306 26.444C26.4374 26.5834 26.6005 26.7353 26.7201 26.8996C26.8397 27.0639 26.8994 27.2506 26.8994 27.4598C26.8994 27.6141 26.8621 27.7573 26.7873 27.8892C26.7126 28.0212 26.5993 28.1357 26.4474 28.2328C26.2954 28.3299 26.1061 28.4058 25.8795 28.4606C25.6528 28.5154 25.3876 28.5428 25.0837 28.5428C24.5656 28.5428 24.0525 28.4519 23.5444 28.2701C23.0363 28.0884 22.5655 27.8158 22.1322 27.4523ZM18.114 21.5634H21.1802V19.6019H12.6339V21.5634H15.6851V30.2967H18.114V21.5634Z" fill="white"/>
</g>
<defs>
<clipPath id="clip0_6_1816">
<rect width="24.4452" height="24.4452" fill="white" transform="translate(7 8)"/>
</clipPath>
</defs>
</svg>
