<svg width="36" height="36" viewBox="0 0 36 36" fill="none" xmlns="http://www.w3.org/2000/svg">
<mask id="path-1-inside-1_9_2030" fill="white">
<path d="M1.00871e-09 18C7.8474e-05 6.75 3.21436 8.78424e-06 18 0C32.7856 -8.78422e-06 36 5.94643 36 18C36 30.8571 30.5358 36 18 36C6.91071 36 -9.64087e-05 31.8214 1.00871e-09 18Z"/>
</mask>
<path d="M1.00871e-09 18C7.8474e-05 6.75 3.21436 8.78424e-06 18 0C32.7856 -8.78422e-06 36 5.94643 36 18C36 30.8571 30.5358 36 18 36C6.91071 36 -9.64087e-05 31.8214 1.00871e-09 18Z" fill="white"/>
<path d="M1.00871e-09 18L1 18L1.00871e-09 18ZM1.00871e-09 18L1 18C1.00004 12.4188 1.81003 8.23746 4.21467 5.43204C6.5888 2.66223 10.7301 1 18 1V0V-1C10.4842 -0.999996 5.6256 0.712782 2.69616 4.13046C-0.202768 7.51254 -0.99996 12.3312 -1 18L1.00871e-09 18ZM18 0V1C25.3037 0.999996 29.4342 2.47694 31.7961 5.14302C34.1841 7.83854 35 12.0002 35 18H36H37C37 11.9462 36.2087 7.10788 33.2931 3.81679C30.3514 0.496269 25.4819 -1 18 -1V0ZM36 18H35C35 24.3159 33.6537 28.4908 30.9987 31.1095C28.3409 33.7309 24.1622 35 18 35V36V37C24.3736 37 29.1949 35.6977 32.4031 32.5334C35.6142 29.3663 37 24.5413 37 18H36ZM18 36V35C12.5482 35 8.34866 33.9666 5.50644 31.4362C2.68833 28.9271 0.999953 24.7587 1 18L1.00871e-09 18L-1 18C-1.00005 25.0627 0.766929 29.8943 4.17652 32.9299C7.562 35.9441 12.3625 37 18 37V36Z" fill="black" fill-opacity="0.08" mask="url(#path-1-inside-1_9_2030)"/>
<path d="M24.3889 15.1094C24.4713 15.1099 24.5535 15.1147 24.6353 15.1239C25.267 15.2073 25.8842 15.3777 26.4692 15.6303C26.6394 15.7065 26.6814 15.7683 26.5349 15.9219C26.1159 16.3709 25.7693 16.8824 25.5076 17.438C25.2251 18.0324 24.9164 18.6144 24.6274 19.2062C24.4133 19.6492 24.115 20.0463 23.7492 20.3754C22.8453 21.1932 21.7918 21.5381 20.5897 21.3712C19.2103 21.1801 17.9038 20.7144 16.6696 20.1002C16.5928 20.0621 16.5383 20.0345 16.4929 20.0069C16.4797 19.9986 16.4689 19.987 16.4615 19.9731C16.4542 19.9593 16.4506 19.9438 16.4511 19.9282C16.4517 19.9126 16.4563 19.8974 16.4645 19.8841C16.4728 19.8708 16.4844 19.8599 16.4982 19.8525L16.5836 19.8066C17.5833 19.2726 18.4175 18.5284 19.2215 17.746C19.5611 17.4176 19.8869 17.0728 20.2298 16.747C20.9841 16.0327 21.9161 15.5337 22.9288 15.3019C23.1508 15.2487 23.3748 15.2053 23.5981 15.1574H23.6086L24.0842 15.1134" fill="#133C9A"/>
<path d="M14.7266 24.7612C14.5749 24.7527 14.2011 24.7015 14.1564 24.6956C13.1917 24.5759 12.2526 24.3013 11.3753 23.8824C10.8669 23.6446 10.3776 23.3641 9.88689 23.0909C9.56438 22.9109 9.4179 22.6311 9.42119 22.2514C9.43173 20.8471 9.43173 19.4425 9.42119 18.0377C9.41595 17.1339 9.38966 16.23 9.37586 15.3268C9.37548 15.2472 9.38812 15.168 9.4133 15.0924C9.46782 14.9295 9.58016 14.9196 9.69119 15.0267C9.81927 15.1502 9.92107 15.2999 10.0478 15.4208C11.1829 16.5387 12.3856 17.5628 13.7341 18.4062C14.4926 18.8923 15.2825 19.3275 16.0988 19.7087C17.4092 20.3038 18.7524 20.8287 20.1601 21.1617C21.4035 21.456 22.6128 21.2707 23.6204 20.4812C23.9278 20.2185 24.0802 20.026 24.4447 19.5406C24.2821 19.9722 24.0708 20.3839 23.8148 20.7676C23.5803 21.1367 23.0522 21.6294 22.6496 22.0156C22.038 22.6068 21.2386 23.0863 20.4885 23.4909C19.6707 23.9317 18.8208 24.2837 17.9123 24.4762C17.4466 24.5924 16.774 24.7258 16.5421 24.7389C16.5014 24.7356 16.3628 24.7671 16.2919 24.7613C15.6935 24.8066 15.3243 24.8236 14.7266 24.7613V24.7612Z" fill="#3370FF"/>
<path d="M12.1562 11.2307C12.198 11.2277 12.2399 11.2277 12.2817 11.2307C14.8539 11.2307 17.4052 11.272 19.9741 11.272C19.9786 11.272 19.9829 11.2734 19.9866 11.276C20.2243 11.4837 20.4455 11.7097 20.648 11.9519C21.228 12.5286 21.6602 13.5283 21.9558 14.1379C22.103 14.559 22.325 14.9616 22.4301 15.4306V15.4391C22.1679 15.524 21.9124 15.6281 21.6655 15.7505C20.9226 16.1275 20.585 16.4027 19.9682 17.0103C19.6325 17.3387 19.3455 17.635 18.8995 18.0554C18.7596 18.1867 18.4036 18.5198 18.3977 18.5093C18.2794 18.3004 16.28 14.3888 12.2633 11.3115" fill="#00D6B9"/>
</svg>
