<svg width="36" height="36" viewBox="0 0 36 36" fill="none" xmlns="http://www.w3.org/2000/svg">
<path d="M1.00871e-09 18C7.8474e-05 6.75 3.21436 8.78424e-06 18 0C32.7856 -8.78422e-06 36 5.94643 36 18C36 30.8571 30.5358 36 18 36C6.91071 36 -9.64087e-05 31.8214 1.00871e-09 18Z" fill="#1296DB"/>
<g clip-path="url(#clip0_10_2833)">
<path d="M9.99695 21.426H10.7501L11.3467 20.2639V19.8649H9.99695V21.426ZM9.99695 16.4618H11.3467V14.9029H9.99695V16.4618ZM9.99695 18.9035H11.3467V17.3446H9.99695V18.9035ZM12.7797 23.2718V22.5965H11.5909V23.735H12.3394V23.49H11.8366V22.8086H12.5661V23.735H12.7866L13.1055 23.1245L12.9209 23.0154L12.7797 23.2718ZM24.2839 15.4843V14.3093H22.8387V15.4843C23.0766 15.5318 23.3187 15.5546 23.5613 15.5523C23.8038 15.5546 24.046 15.5318 24.2839 15.4843ZM9.99695 23.735H10.2396V23.0688H11.1835V22.8575H10.2404V22.2768H11.1835V22.0319H9.99695V23.735ZM19.5386 15.4843V14.3093H18.0888V15.4843C18.327 15.5318 18.5694 15.5546 18.8122 15.5523C19.056 15.5548 19.2995 15.532 19.5386 15.4843ZM14.7956 15.4843V14.3093H13.3543V15.4843C13.5921 15.5318 13.8343 15.5546 14.0769 15.5523C14.3181 15.5543 14.559 15.5316 14.7956 15.4843ZM25.6649 23.2634V22.5965H24.4792V23.735H24.7234V22.8086H24.9668V23.735H25.2094V22.8086H25.4543V23.735H25.6657L25.9946 23.1283L25.8061 23.0154L25.6649 23.2634ZM24.2862 17.1722H24.2594C24.8357 17.1047 25.3993 16.9547 25.9328 16.7266V15.1906C23.2973 16.5739 21.1883 15.1906 21.1883 15.1906C18.552 16.5739 16.443 15.1906 16.443 15.1906C13.8075 16.5739 11.6985 15.1906 11.6985 15.1906V16.7296C12.2317 16.9776 12.8027 17.1344 13.3878 17.1935H13.3512V17.7772H12.0457V19.079H12.8591L11.6382 21.426H15.255L16.2683 19.4796H15.0909L14.6224 20.3616H13.6229L14.2386 19.079H16.2683V17.7734H14.7979V17.1722H14.7666C15.3447 17.1049 15.9101 16.9546 16.4453 16.7258C16.9821 16.9751 17.5571 17.1322 18.1461 17.1905C18.1301 17.1905 18.1133 17.1905 18.0972 17.1859V18.1572L16.3827 21.426H17.8561L18.7985 19.4796L19.7507 21.426H22.6014L23.5445 19.4796L24.4967 21.426H25.9923L24.2862 18.1572V17.1722ZM22.8364 17.1897V18.1572L21.1844 21.3116L19.5363 18.1572V17.1722H19.5149C20.0899 17.1043 20.6521 16.9542 21.1844 16.7266C21.7209 16.9767 22.2956 17.1348 22.8845 17.1943L22.8364 17.1897ZM22.8791 23.735H24.0664V22.5965H22.8829L22.8791 23.735ZM23.1225 22.8086H23.8543V23.4908H23.1225V22.8086ZM27.2566 13.3425C27.2353 13.3198 27.2093 13.3021 27.1803 13.2906C27.3329 13.2472 27.4092 13.1541 27.4092 13.0099C27.4127 12.9708 27.407 12.9314 27.3927 12.8949C27.3784 12.8583 27.3559 12.8256 27.3268 12.7993C27.2596 12.7458 27.1753 12.7187 27.0895 12.723H26.7729V13.7683H26.9071V13.3334H27.0041C27.0407 13.3321 27.0766 13.3432 27.1063 13.3647C27.1452 13.3972 27.1774 13.4372 27.2009 13.4822L27.3734 13.7706H27.5321L27.3375 13.4593C27.314 13.418 27.287 13.379 27.2566 13.3425ZM27.0659 13.2136H26.9071V12.8466H27.0674C27.1221 12.8431 27.1762 12.8593 27.22 12.8923C27.2376 12.9082 27.2514 12.9278 27.2604 12.9498C27.2693 12.9717 27.2733 12.9954 27.2719 13.019C27.2729 13.0452 27.2683 13.0714 27.2584 13.0957C27.2486 13.1201 27.2336 13.142 27.2146 13.1602C27.1738 13.1965 27.1205 13.2157 27.0659 13.2136ZM27.0582 12.2651C26.8723 12.2651 26.6905 12.3203 26.5359 12.4236C26.3813 12.5269 26.2608 12.6738 26.1897 12.8456C26.1185 13.0174 26.1 13.2065 26.1363 13.3889C26.1726 13.5712 26.2622 13.7387 26.3938 13.8702C26.5253 14.0016 26.6929 14.0911 26.8753 14.1273C27.0577 14.1635 27.2467 14.1447 27.4185 14.0735C27.5903 14.0022 27.737 13.8816 27.8402 13.7269C27.9434 13.5722 27.9984 13.3904 27.9983 13.2044C27.9981 12.9552 27.8989 12.7163 27.7227 12.5402C27.5464 12.3641 27.3074 12.2651 27.0582 12.2651ZM27.0582 13.9819C26.9044 13.9819 26.7541 13.9363 26.6263 13.8509C26.4984 13.7655 26.3987 13.644 26.3399 13.502C26.281 13.3599 26.2656 13.2036 26.2956 13.0527C26.3256 12.9019 26.3997 12.7634 26.5084 12.6546C26.6172 12.5459 26.7557 12.4718 26.9065 12.4418C27.0574 12.4118 27.2137 12.4272 27.3558 12.4861C27.4978 12.5449 27.6193 12.6446 27.7047 12.7725C27.7901 12.9003 27.8358 13.0506 27.8358 13.2044C27.8355 13.4106 27.7536 13.6082 27.6078 13.754C27.462 13.8998 27.2644 13.9817 27.0582 13.9819ZM17.9782 22.5965H17.0374V23.735H18.2247V22.0319H17.9797L17.9782 22.5965ZM17.9782 23.4916H17.2457V22.8048H17.9774L17.9782 23.4916ZM21.2897 23.735H22.477V23.4908H21.5331V22.8086H22.4755V22.5965H21.2897V23.735ZM16.3003 23.2771V22.5965H15.1092V23.735H15.8578V23.49H15.3557V22.8086H16.0851V23.735H16.3057L16.6246 23.1245L16.4399 23.0154L16.3003 23.2771ZM14.4546 22.5965H13.5122V23.735H14.6987V22.0319H14.4546V22.5965ZM14.4546 23.4916H13.7228V22.8048H14.4546V23.4916ZM19.824 23.2749V22.5965H18.6359V23.735H19.3822V23.49H18.8793V22.8086H19.6111V23.735H19.8316L20.1498 23.1245L19.9651 23.0154L19.824 23.2749Z" fill="white"/>
</g>
<defs>
<clipPath id="clip0_10_2833">
<rect width="18" height="18" fill="white" transform="translate(9.99695 9)"/>
</clipPath>
</defs>
</svg>
