<svg width="36" height="36" viewBox="0 0 36 36" fill="none" xmlns="http://www.w3.org/2000/svg">
<path d="M1.00871e-09 18C7.8474e-05 6.75 3.21436 8.78424e-06 18 0C32.7856 -8.78422e-06 36 5.94643 36 18C36 30.8571 30.5358 36 18 36C6.91071 36 -9.64087e-05 31.8214 1.00871e-09 18Z" fill="#DE5425"/>
<g clip-path="url(#clip0_6_1919)">
<circle cx="18.0001" cy="18" r="12.8466" fill="white"/>
<path d="M20.2747 21.033H15.978V25.5824H12.9451V10.4176H20.2747C20.9717 10.4176 21.6619 10.5549 22.3059 10.8216C22.9498 11.0884 23.535 11.4793 24.0278 11.9722C24.5207 12.465 24.9116 13.0502 25.1784 13.6941C25.4451 14.3381 25.5824 15.0283 25.5824 15.7253C25.5824 16.4223 25.4451 17.1125 25.1784 17.7564C24.9116 18.4004 24.5207 18.9855 24.0278 19.4784C23.535 19.9712 22.9498 20.3622 22.3059 20.6289C21.6619 20.8957 20.9717 21.033 20.2747 21.033ZM18 2.83521C9.62398 2.83521 2.83521 9.62398 2.83521 18C2.83521 26.376 9.62398 33.1648 18 33.1648C26.3748 33.1648 33.1648 26.376 33.1648 18C33.1648 9.62398 26.3748 2.83521 18 2.83521ZM19.6049 12.9451H15.4725V18H19.6049C20.8118 18 21.7912 16.8677 21.7912 15.4725C21.7912 14.0774 20.8118 12.9451 19.6049 12.9451Z" fill="#DE5425"/>
</g>
<defs>
<clipPath id="clip0_6_1919">
<rect width="18" height="18" fill="white" transform="translate(9 9)"/>
</clipPath>
</defs>
</svg>
