<svg width="36" height="36" viewBox="0 0 36 36" fill="none" xmlns="http://www.w3.org/2000/svg">
<mask id="path-1-inside-1_10_3109" fill="white">
<path d="M1.00871e-09 18C7.8474e-05 6.75 3.21436 8.78424e-06 18 0C32.7856 -8.78422e-06 36 5.94643 36 18C36 30.8571 30.5358 36 18 36C6.91071 36 -9.64087e-05 31.8214 1.00871e-09 18Z"/>
</mask>
<path d="M1.00871e-09 18C7.8474e-05 6.75 3.21436 8.78424e-06 18 0C32.7856 -8.78422e-06 36 5.94643 36 18C36 30.8571 30.5358 36 18 36C6.91071 36 -9.64087e-05 31.8214 1.00871e-09 18Z" fill="#FFEF00"/>
<path d="M1.00871e-09 18L1 18L1.00871e-09 18ZM1.00871e-09 18L1 18C1.00004 12.4188 1.81003 8.23746 4.21467 5.43204C6.5888 2.66223 10.7301 1 18 1V0V-1C10.4842 -0.999996 5.6256 0.712782 2.69616 4.13046C-0.202768 7.51254 -0.99996 12.3312 -1 18L1.00871e-09 18ZM18 0V1C25.3037 0.999996 29.4342 2.47694 31.7961 5.14302C34.1841 7.83854 35 12.0002 35 18H36H37C37 11.9462 36.2087 7.10788 33.2931 3.81679C30.3514 0.496269 25.4819 -1 18 -1V0ZM36 18H35C35 24.3159 33.6537 28.4908 30.9987 31.1095C28.3409 33.7309 24.1622 35 18 35V36V37C24.3736 37 29.1949 35.6977 32.4031 32.5334C35.6142 29.3663 37 24.5413 37 18H36ZM18 36V35C12.5482 35 8.34866 33.9666 5.50644 31.4362C2.68833 28.9271 0.999953 24.7587 1 18L1.00871e-09 18L-1 18C-1.00005 25.0627 0.766929 29.8943 4.17652 32.9299C7.562 35.9441 12.3625 37 18 37V36Z" fill="black" fill-opacity="0.08" mask="url(#path-1-inside-1_10_3109)"/>
<g clip-path="url(#clip0_10_3109)">
<path d="M8.99988 21.3744H10.8749V14.6252H8.99988V21.3744ZM14.8766 14.6252L14.4569 17.7783L14.1961 16.0634C14.1309 15.5829 14.0583 15.1035 13.9783 14.6252H11.6247V21.3744H13.215L13.2212 16.9175L13.8899 21.3744H15.022L15.6576 16.8193L15.6631 21.3744H17.2486V14.6252H14.8766ZM17.999 21.3744V14.6252H20.9256C21.5871 14.6252 22.1233 15.1578 22.1233 15.8162V20.1841C22.1228 20.3409 22.0914 20.4962 22.031 20.6409C21.9705 20.7856 21.8821 20.917 21.7708 21.0275C21.6595 21.1381 21.5275 21.2256 21.3824 21.2851C21.2373 21.3446 21.0819 21.375 20.925 21.3744H17.9983H17.999ZM20.1857 15.8401C20.1114 15.7996 19.9691 15.7806 19.7623 15.7806V20.2086C20.0354 20.2086 20.2035 20.1596 20.2667 20.0571C20.3293 19.9559 20.3618 19.6822 20.3618 19.2325V16.6156C20.3618 16.3101 20.3507 16.1156 20.3293 16.0291C20.3209 15.9889 20.3036 15.9511 20.2788 15.9184C20.254 15.8857 20.2222 15.8589 20.1857 15.8401ZM25.6586 16.315H25.7789C26.452 16.315 26.9974 16.8426 26.9974 17.4918V20.1976C26.9974 20.848 26.452 21.3744 25.7789 21.3744H25.6593C25.4655 21.3755 25.2742 21.3309 25.1009 21.2441C24.9277 21.1573 24.7774 21.0308 24.6622 20.875L24.5542 21.2879H22.8731V14.6252H24.6671V16.793C24.786 16.6439 24.9369 16.5236 25.1087 16.4408C25.2804 16.3581 25.4686 16.3151 25.6593 16.315H25.6586ZM25.2752 19.6061V18.0072C25.2752 17.7427 25.258 17.5691 25.2224 17.4893C25.1874 17.4096 25.0463 17.3587 24.9475 17.3587C24.8481 17.3587 24.696 17.4004 24.6659 17.4703V20.1773C24.6996 20.2547 24.8457 20.2976 24.9475 20.2976C25.0488 20.2976 25.1972 20.2559 25.2285 20.1773C25.2592 20.0988 25.2752 19.9074 25.2752 19.6067V19.6061Z" fill="black"/>
</g>
<defs>
<clipPath id="clip0_10_3109">
<rect width="18" height="18" fill="white" transform="translate(8.99988 8.99988)"/>
</clipPath>
</defs>
</svg>
