<svg width="36" height="36" viewBox="0 0 36 36" fill="none" xmlns="http://www.w3.org/2000/svg">
<mask id="path-1-inside-1_9_2106" fill="white">
<path d="M1.00871e-09 18C7.8474e-05 6.75 3.21436 8.78424e-06 18 0C32.7856 -8.78422e-06 36 5.94643 36 18C36 30.8571 30.5358 36 18 36C6.91071 36 -9.64087e-05 31.8214 1.00871e-09 18Z"/>
</mask>
<path d="M1.00871e-09 18C7.8474e-05 6.75 3.21436 8.78424e-06 18 0C32.7856 -8.78422e-06 36 5.94643 36 18C36 30.8571 30.5358 36 18 36C6.91071 36 -9.64087e-05 31.8214 1.00871e-09 18Z" fill="white"/>
<path d="M1.00871e-09 18L1 18L1.00871e-09 18ZM1.00871e-09 18L1 18C1.00004 12.4188 1.81003 8.23746 4.21467 5.43204C6.5888 2.66223 10.7301 1 18 1V0V-1C10.4842 -0.999996 5.6256 0.712782 2.69616 4.13046C-0.202768 7.51254 -0.99996 12.3312 -1 18L1.00871e-09 18ZM18 0V1C25.3037 0.999996 29.4342 2.47694 31.7961 5.14302C34.1841 7.83854 35 12.0002 35 18H36H37C37 11.9462 36.2087 7.10788 33.2931 3.81679C30.3514 0.496269 25.4819 -1 18 -1V0ZM36 18H35C35 24.3159 33.6537 28.4908 30.9987 31.1095C28.3409 33.7309 24.1622 35 18 35V36V37C24.3736 37 29.1949 35.6977 32.4031 32.5334C35.6142 29.3663 37 24.5413 37 18H36ZM18 36V35C12.5482 35 8.34866 33.9666 5.50644 31.4362C2.68833 28.9271 0.999953 24.7587 1 18L1.00871e-09 18L-1 18C-1.00005 25.0627 0.766929 29.8943 4.17652 32.9299C7.562 35.9441 12.3625 37 18 37V36Z" fill="black" fill-opacity="0.08" mask="url(#path-1-inside-1_9_2106)"/>
<path d="M14.4961 14.1348H17.2145V15.9942H15.6382V16.4095H17.2239V18.0047C17.2239 18.6088 17.6958 19.0902 18.2811 19.0902H21.5752C21.8773 19.0902 22.1133 18.8353 22.1133 18.5427V16.9381L21.4525 18.0047H18.3282V16.4095H20.5936V15.9942H18.3282V14.1348H21.7263L21.4336 15.4373L23.2365 13.7195L22.1133 12.4169L21.8206 13.7195H18.3282V12.0582H20.5936V11.6429H18.3282V10.5102L19.1022 10.0572L17.2239 9V13.7195H14.4961V13.1909L13.2596 12.4169V22.828C13.2596 22.828 13.2312 25.0933 12.2307 27C12.2307 27 14.4866 25.1122 14.4866 21.5632L14.4961 14.1348Z" fill="#231815"/>
<path d="M22.7173 25.0367H20.7917C20.6785 25.0367 20.5935 24.9423 20.5935 24.829V19.9208L19.5552 20.6476V20.7608H17.0634V20.6476L16.0251 19.9208V23.6491C16.0251 23.6491 16.0723 25.5652 14.345 26.8206C14.345 26.8206 17.0634 25.4425 17.0634 23.5831V21.1856H19.5458V25.7163C19.5458 25.99 19.7629 26.2071 20.0272 26.2071H22.9816C23.1043 26.2071 23.2175 26.1693 23.3119 26.1033C24.2086 25.4237 23.5102 22.7713 23.5102 22.7713C23.6423 24.829 22.7173 25.0367 22.7173 25.0367Z" fill="#231815"/>
</svg>
