<svg width="36" height="36" viewBox="0 0 36 36" fill="none" xmlns="http://www.w3.org/2000/svg">
<mask id="path-1-inside-1_10_2455" fill="white">
<path d="M1.00871e-09 18C7.8474e-05 6.75 3.21436 8.78424e-06 18 0C32.7856 -8.78422e-06 36 5.94643 36 18C36 30.8571 30.5358 36 18 36C6.91071 36 -9.64087e-05 31.8214 1.00871e-09 18Z"/>
</mask>
<path d="M1.00871e-09 18C7.8474e-05 6.75 3.21436 8.78424e-06 18 0C32.7856 -8.78422e-06 36 5.94643 36 18C36 30.8571 30.5358 36 18 36C6.91071 36 -9.64087e-05 31.8214 1.00871e-09 18Z" fill="white"/>
<path d="M1.00871e-09 18L1 18L1.00871e-09 18ZM1.00871e-09 18L1 18C1.00004 12.4188 1.81003 8.23746 4.21467 5.43204C6.5888 2.66223 10.7301 1 18 1V0V-1C10.4842 -0.999996 5.6256 0.712782 2.69616 4.13046C-0.202768 7.51254 -0.99996 12.3312 -1 18L1.00871e-09 18ZM18 0V1C25.3037 0.999996 29.4342 2.47694 31.7961 5.14302C34.1841 7.83854 35 12.0002 35 18H36H37C37 11.9462 36.2087 7.10788 33.2931 3.81679C30.3514 0.496269 25.4819 -1 18 -1V0ZM36 18H35C35 24.3159 33.6537 28.4908 30.9987 31.1095C28.3409 33.7309 24.1622 35 18 35V36V37C24.3736 37 29.1949 35.6977 32.4031 32.5334C35.6142 29.3663 37 24.5413 37 18H36ZM18 36V35C12.5482 35 8.34866 33.9666 5.50644 31.4362C2.68833 28.9271 0.999953 24.7587 1 18L1.00871e-09 18L-1 18C-1.00005 25.0627 0.766929 29.8943 4.17652 32.9299C7.562 35.9441 12.3625 37 18 37V36Z" fill="black" fill-opacity="0.08" mask="url(#path-1-inside-1_10_2455)"/>
<path d="M26.6 20.7601L13.1725 27.1541C12.8838 27.2949 12.5632 27.3573 12.2428 27.3352C11.9223 27.313 11.6134 27.207 11.3468 27.0279C11.0802 26.8487 10.8654 26.6027 10.7239 26.3144C10.5823 26.026 10.519 25.7056 10.5403 25.3851L11.7019 10.5403C11.7291 10.2205 11.8399 9.91345 12.0231 9.6499C12.2062 9.38634 12.4554 9.17551 12.7457 9.03848C13.0359 8.90145 13.357 8.84304 13.6769 8.86908C13.9968 8.89512 14.3043 9.00471 14.5685 9.18687L15.4104 9.76234L19.2149 12.3626L22.5078 14.6218L26.1844 17.1475L26.8451 17.595C27.1104 17.777 27.3232 18.0255 27.462 18.3157C27.6009 18.6059 27.6609 18.9276 27.6361 19.2483C27.6112 19.5691 27.5024 19.8776 27.3205 20.143C27.1387 20.4084 26.8902 20.6212 26.6 20.7601Z" fill="#E24B4B"/>
<path d="M26.1843 17.1474C25.6728 18.8952 21.2183 20.6961 19.2468 21.4101C19.2044 21.8353 19.054 22.2425 18.8099 22.593C18.4305 23.1122 17.8608 23.4598 17.2256 23.5597C16.5903 23.6595 15.9414 23.5036 15.421 23.1259C15.2246 22.9792 15.0521 22.8031 14.9095 22.6037C14.8105 22.8207 14.7871 23.0646 14.8431 23.2965C14.8992 23.5283 15.0314 23.7347 15.2186 23.8825C15.2751 23.9249 15.3124 23.988 15.3224 24.058C15.3324 24.1279 15.3142 24.1989 15.2718 24.2555C15.2294 24.312 15.1663 24.3494 15.0964 24.3593C15.0264 24.3693 14.9554 24.3512 14.8989 24.3088C14.5726 24.0534 14.355 23.684 14.2898 23.2749C14.2246 22.8657 14.3165 22.447 14.5472 22.1028H14.4726C14.2153 22.4295 13.845 22.6479 13.4347 22.7149C13.0244 22.782 12.6038 22.6929 12.256 22.4652C12.1995 22.4228 12.1621 22.3597 12.1521 22.2897C12.1421 22.2198 12.1603 22.1487 12.2027 22.0922C12.2209 22.0626 12.2452 22.0372 12.274 22.0177C12.3027 21.9981 12.3353 21.9849 12.3695 21.9789C12.4037 21.9728 12.4389 21.9741 12.4726 21.9826C12.5063 21.9911 12.5378 22.0067 12.565 22.0282C12.7596 22.1572 12.9912 22.2188 13.2242 22.2034C13.4571 22.188 13.6786 22.0965 13.8545 21.943C13.3541 21.7652 12.931 21.419 12.6577 20.9636C12.4067 20.5562 12.2821 20.0835 12.2997 19.6053C12.3174 19.1271 12.4765 18.6649 12.7568 18.2771C13.0076 17.9316 13.3461 17.6594 13.7373 17.4885C13.8225 15.5809 14.1529 11.2436 15.4104 9.76233L19.2148 12.3626C19.1927 13.6281 19.0246 14.8868 18.714 16.1137C18.7089 16.1479 18.7131 16.1827 18.7262 16.2146C18.7394 16.2465 18.7609 16.2743 18.7886 16.2949C18.819 16.3138 18.854 16.3238 18.8898 16.3238C18.9256 16.3238 18.9606 16.3138 18.991 16.2949C20.0919 15.5926 21.2724 15.0237 22.5078 14.6005L26.1843 17.1474Z" fill="#F9F9F9"/>
</svg>
