<svg width="36" height="36" viewBox="0 0 36 36" fill="none" xmlns="http://www.w3.org/2000/svg">
<path d="M1.00871e-09 18C7.8474e-05 6.75 3.21436 8.78424e-06 18 0C32.7856 -8.78422e-06 36 5.94643 36 18C36 30.8571 30.5358 36 18 36C6.91071 36 -9.64087e-05 31.8214 1.00871e-09 18Z" fill="#0F2B46"/>
<path d="M20.4053 23.8035L21.0768 23.6293L20.8224 23.7728C20.6697 23.8649 20.5681 24.0288 20.5681 24.213V24.4999L20.4053 23.8035Z" fill="#142C46"/>
<path fill-rule="evenodd" clip-rule="evenodd" d="M18 7.67651C18.2259 7.67651 18.4481 7.7362 18.6429 7.85052L26.357 12.3277C26.7557 12.5608 27 12.9881 27 13.4544V22.4223C27.0006 22.6496 26.9412 22.8728 26.8285 23.0702C26.7156 23.2677 26.5533 23.4328 26.357 23.5478L21.1974 26.5416L21.2147 26.5379L21.2011 28.3236L18.7589 27.9558L18.6429 28.0249C18.448 28.1393 18.226 28.2002 18 28.2002C17.7741 28.2001 17.5519 28.1393 17.3571 28.0249L9.64295 23.5478C9.24481 23.3147 9.00017 22.888 9 22.4223V13.4544C9.00099 13.2291 9.06139 13.0078 9.174 12.8127C9.28669 12.6175 9.44828 12.4548 9.64295 12.3413L17.3571 7.85052C17.5519 7.73615 17.7741 7.67656 18 7.67651ZM16.8054 20.8735C16.7842 20.85 16.763 20.8264 16.74 20.8044C16.493 20.5619 16.1595 20.4268 15.8132 20.4268C15.4672 20.427 15.1346 20.562 14.8877 20.8044C14.7567 20.9298 14.6529 21.0808 14.5817 21.2475C14.5104 21.4143 14.4731 21.5943 14.4731 21.7756C14.4731 21.9568 14.5105 22.136 14.5817 22.3026C14.6528 22.4692 14.7568 22.6203 14.8877 22.7456C15.1346 22.9881 15.4672 23.1243 15.8132 23.1245C16.1595 23.1245 16.493 22.9882 16.74 22.7456C16.8709 22.6203 16.9749 22.4692 17.0461 22.3026C17.1172 22.136 17.1546 21.9568 17.1547 21.7756C17.1547 21.6633 17.1381 21.5521 17.1102 21.4437L20.5718 19.4322L19.9288 19.0706L16.8054 20.8735ZM15.8132 13.4766C15.4672 13.4767 15.1346 13.613 14.8877 13.8555C14.7567 13.9808 14.6529 14.1317 14.5817 14.2985C14.5104 14.4653 14.4731 14.6452 14.4731 14.8267C14.4731 15.0078 14.5105 15.187 14.5817 15.3536C14.6529 15.5203 14.7568 15.6713 14.8877 15.7966C15.1346 16.0391 15.4672 16.1753 15.8132 16.1755C16.1595 16.1755 16.493 16.0392 16.74 15.7966C16.7575 15.7799 16.7729 15.7612 16.7894 15.7436L20.3139 17.7896L20.3274 17.781C20.2824 17.9173 20.2596 18.0604 20.2596 18.2043C20.2596 18.3854 20.2958 18.5647 20.3669 18.7312C20.4382 18.898 20.5432 19.0488 20.6742 19.1742C20.9212 19.4167 21.2536 19.5531 21.5997 19.5531C21.9459 19.553 22.2783 19.4168 22.5253 19.1742C22.6563 19.0489 22.7601 18.898 22.8313 18.7312C22.9025 18.5646 22.9399 18.3855 22.9399 18.2043C22.9399 18.0229 22.9026 17.8429 22.8313 17.6761C22.7601 17.5093 22.6563 17.3585 22.5253 17.2331C22.2783 16.9905 21.9459 16.8543 21.5997 16.8542C21.2536 16.8542 20.9212 16.9906 20.6742 17.2331C20.6679 17.2391 20.6619 17.2454 20.6557 17.2516L17.1053 15.1784C17.1367 15.0638 17.1546 14.9459 17.1547 14.8267C17.1547 14.6452 17.1173 14.4653 17.0461 14.2985C16.9748 14.1318 16.871 13.9808 16.74 13.8555C16.493 13.6129 16.1595 13.4766 15.8132 13.4766Z" fill="white"/>
</svg>
