<svg width="36" height="36" viewBox="0 0 36 36" fill="none" xmlns="http://www.w3.org/2000/svg">
<path d="M1.00871e-09 18C7.8474e-05 6.75 3.21436 8.78424e-06 18 0C32.7856 -8.78422e-06 36 5.94643 36 18C36 30.8571 30.5358 36 18 36C6.91071 36 -9.64087e-05 31.8214 1.00871e-09 18Z" fill="#0075D7"/>
<path d="M10.4888 19.7612V17.5396C10.4888 12.9253 13.2476 10.0322 17.7397 10.0322C19.6318 10.0322 21.3042 10.5449 22.5249 11.4604C23.6235 12.2539 24.3438 13.3037 24.3438 14.2681C24.3438 15.2324 23.6724 15.8916 22.708 15.8916C22.2319 15.8916 21.8657 15.7329 21.5117 15.3789C20.5229 14.3901 19.6074 13.438 18.0327 13.438C15.7256 13.438 14.5171 14.915 14.5171 17.7349V19.749C14.5171 22.5322 15.75 24.0581 17.9961 24.0581C19.7417 24.0581 20.9136 23.0327 20.9136 21.5068V20.7988H19.4121C18.3501 20.7988 17.7642 20.2861 17.7642 19.3584C17.7642 18.4429 18.3379 17.9424 19.4121 17.9424H22.4028C24.0142 17.9424 24.7222 18.6382 24.7222 20.1885V21.2017C24.7222 24.876 21.9512 27.3662 17.8374 27.3662C13.2109 27.3662 10.4888 24.5098 10.4888 19.7612Z" fill="white"/>
</svg>
