<svg width="36" height="36" viewBox="0 0 36 36" fill="none" xmlns="http://www.w3.org/2000/svg">
<path d="M1.00871e-09 18C7.8474e-05 6.75 3.21436 8.78424e-06 18 0C32.7856 -8.78422e-06 36 5.94643 36 18C36 30.8571 30.5358 36 18 36C6.91071 36 -9.64087e-05 31.8214 1.00871e-09 18Z" fill="url(#paint0_linear_10_2513)"/>
<g clip-path="url(#clip0_10_2513)">
<path d="M17.9998 9.69226C13.4306 9.69226 9.69214 13.4307 9.69214 18C9.69214 22.5692 13.4306 26.3076 17.9998 26.3076C22.5691 26.3076 26.3075 22.5692 26.3075 18C26.3075 13.4307 22.5691 9.69226 17.9998 9.69226ZM17.6883 23.4C15.196 23.4 13.6383 21.5307 13.6383 18.8307C13.6383 15.1961 16.1306 12.6 18.9344 12.6C20.596 12.6 21.6344 13.4307 21.6344 14.573C21.6344 15.8192 20.8037 16.65 20.0768 16.65C19.8691 16.65 19.7652 16.5461 19.7652 16.4423C19.7652 16.3384 19.8691 16.1307 19.9729 16.0269C20.1806 15.7153 20.3883 15.3 20.3883 14.6769C20.2844 13.8461 19.7652 13.3269 19.0383 13.3269C17.3768 13.3269 15.4037 15.3 15.4037 18.8307C15.4037 20.9076 16.4421 22.3615 18.1037 22.3615C19.5575 22.3615 20.6998 21.323 21.4268 19.8692C21.5306 19.7653 21.5306 19.6615 21.6344 19.6615C21.7383 19.6615 21.8421 19.7653 21.8421 19.973C21.7383 20.8038 20.2844 23.4 17.6883 23.4Z" fill="white"/>
</g>
<defs>
<linearGradient id="paint0_linear_10_2513" x1="18" y1="0" x2="18" y2="36" gradientUnits="userSpaceOnUse">
<stop stop-color="#3CC3CC"/>
<stop offset="0.656802" stop-color="#4655EE"/>
<stop offset="1" stop-color="#7C29FF"/>
</linearGradient>
<clipPath id="clip0_10_2513">
<rect width="18" height="18" fill="white" transform="translate(8.99988 9)"/>
</clipPath>
</defs>
</svg>
