<svg width="36" height="36" viewBox="0 0 36 36" fill="none" xmlns="http://www.w3.org/2000/svg">
<mask id="path-1-inside-1_11_3130" fill="white">
<path d="M1.00871e-09 18C7.8474e-05 6.75 3.21436 8.78424e-06 18 0C32.7856 -8.78422e-06 36 5.94643 36 18C36 30.8571 30.5358 36 18 36C6.91071 36 -9.64087e-05 31.8214 1.00871e-09 18Z"/>
</mask>
<path d="M1.00871e-09 18C7.8474e-05 6.75 3.21436 8.78424e-06 18 0C32.7856 -8.78422e-06 36 5.94643 36 18C36 30.8571 30.5358 36 18 36C6.91071 36 -9.64087e-05 31.8214 1.00871e-09 18Z" fill="#FF0D01"/>
<path d="M1.00871e-09 18L1 18L1.00871e-09 18ZM1.00871e-09 18L1 18C1.00004 12.4188 1.81003 8.23746 4.21467 5.43204C6.5888 2.66223 10.7301 1 18 1V0V-1C10.4842 -0.999996 5.6256 0.712782 2.69616 4.13046C-0.202768 7.51254 -0.99996 12.3312 -1 18L1.00871e-09 18ZM18 0V1C25.3037 0.999996 29.4342 2.47694 31.7961 5.14302C34.1841 7.83854 35 12.0002 35 18H36H37C37 11.9462 36.2087 7.10788 33.2931 3.81679C30.3514 0.496269 25.4819 -1 18 -1V0ZM36 18H35C35 24.3159 33.6537 28.4908 30.9987 31.1095C28.3409 33.7309 24.1622 35 18 35V36V37C24.3736 37 29.1949 35.6977 32.4031 32.5334C35.6142 29.3663 37 24.5413 37 18H36ZM18 36V35C12.5482 35 8.34866 33.9666 5.50644 31.4362C2.68833 28.9271 0.999953 24.7587 1 18L1.00871e-09 18L-1 18C-1.00005 25.0627 0.766929 29.8943 4.17652 32.9299C7.562 35.9441 12.3625 37 18 37V36Z" fill="black" fill-opacity="0.08" mask="url(#path-1-inside-1_11_3130)"/>
<rect x="5.008" y="13.9025" width="8.19497" height="8.19497" fill="white"/>
<rect x="13.9025" y="13.9025" width="8.19497" height="8.19497" fill="white"/>
<rect x="22.7971" y="13.9025" width="8.19497" height="8.19497" fill="white"/>
<path d="M7 14.8364H9.03305C9.47673 14.8364 9.84444 14.8729 10.1362 14.9458C10.434 15.0127 10.668 15.116 10.8382 15.2558C11.0144 15.3956 11.136 15.5718 11.2028 15.7846C11.2758 15.9973 11.3122 16.2465 11.3122 16.5322C11.3122 16.8604 11.2424 17.1369 11.1026 17.3618C10.9688 17.5806 10.7318 17.7416 10.3915 17.845V17.8814C10.7865 17.9726 11.0691 18.1428 11.2393 18.392C11.4156 18.6351 11.5037 18.9511 11.5037 19.3401C11.5037 19.6258 11.4672 19.8841 11.3943 20.1151C11.3274 20.3399 11.2059 20.5314 11.0296 20.6894C10.8534 20.8414 10.6163 20.9599 10.3185 21.045C10.0268 21.124 9.65907 21.1635 9.21538 21.1635H7V14.8364ZM8.71396 17.4985C8.96315 17.4985 9.17588 17.4864 9.35214 17.4621C9.53447 17.4378 9.68338 17.3952 9.79886 17.3344C9.91434 17.2676 9.99943 17.1794 10.0541 17.07C10.1088 16.9606 10.1362 16.8178 10.1362 16.6416C10.1362 16.4531 10.1088 16.3042 10.0541 16.1948C9.99943 16.0854 9.91434 16.0034 9.79886 15.9487C9.68946 15.8879 9.54359 15.8484 9.36125 15.8302C9.18499 15.8119 8.96923 15.8028 8.71396 15.8028H8.1943V17.4985H8.71396ZM8.90541 20.188C9.17892 20.188 9.4038 20.1758 9.58006 20.1515C9.76239 20.1272 9.90522 20.0816 10.0085 20.0148C10.1179 19.9418 10.1939 19.8476 10.2365 19.7321C10.279 19.6167 10.3003 19.4678 10.3003 19.2854C10.3003 19.1213 10.279 18.9815 10.2365 18.8661C10.1939 18.7506 10.1179 18.6594 10.0085 18.5925C9.90522 18.5196 9.76239 18.468 9.58006 18.4376C9.4038 18.4011 9.17892 18.3829 8.90541 18.3829H8.1943V20.188H8.90541Z" fill="#FF0D01"/>
<path d="M15.7482 14.8364H17.7812C18.2249 14.8364 18.5926 14.8729 18.8843 14.9458C19.1822 15.0127 19.4162 15.116 19.5863 15.2558C19.7626 15.3956 19.8842 15.5718 19.951 15.7846C20.024 15.9973 20.0604 16.2465 20.0604 16.5322C20.0604 16.8604 19.9905 17.1369 19.8507 17.3618C19.717 17.5806 19.48 17.7416 19.1396 17.845V17.8814C19.5347 17.9726 19.8173 18.1428 19.9875 18.392C20.1637 18.6351 20.2519 18.9511 20.2519 19.3401C20.2519 19.6258 20.2154 19.8841 20.1425 20.1151C20.0756 20.3399 19.9541 20.5314 19.7778 20.6894C19.6015 20.8414 19.3645 20.9599 19.0667 21.045C18.7749 21.124 18.4072 21.1635 17.9636 21.1635H15.7482V14.8364ZM17.4621 17.4985C17.7113 17.4985 17.924 17.4864 18.1003 17.4621C18.2826 17.4378 18.4315 17.3952 18.547 17.3344C18.6625 17.2676 18.7476 17.1794 18.8023 17.07C18.857 16.9606 18.8843 16.8178 18.8843 16.6416C18.8843 16.4531 18.857 16.3042 18.8023 16.1948C18.7476 16.0854 18.6625 16.0034 18.547 15.9487C18.4376 15.8879 18.2918 15.8484 18.1094 15.8302C17.9332 15.8119 17.7174 15.8028 17.4621 15.8028H16.9425V17.4985H17.4621ZM17.6536 20.188C17.9271 20.188 18.152 20.1758 18.3282 20.1515C18.5106 20.1272 18.6534 20.0816 18.7567 20.0148C18.8661 19.9418 18.9421 19.8476 18.9846 19.7321C19.0272 19.6167 19.0485 19.4678 19.0485 19.2854C19.0485 19.1213 19.0272 18.9815 18.9846 18.8661C18.9421 18.7506 18.8661 18.6594 18.7567 18.5925C18.6534 18.5196 18.5106 18.468 18.3282 18.4376C18.152 18.4011 17.9271 18.3829 17.6536 18.3829H16.9425V20.188H17.6536Z" fill="#FF0D01"/>
<path d="M27.6239 21.2548C27.168 21.2548 26.7547 21.2092 26.384 21.118C26.0193 21.0268 25.7063 20.8627 25.445 20.6257C25.1836 20.3826 24.98 20.0513 24.8341 19.632C24.6943 19.2065 24.6245 18.6625 24.6245 18.0001C24.6245 17.3923 24.6943 16.8817 24.8341 16.4684C24.98 16.0491 25.1836 15.7117 25.445 15.4565C25.7063 15.2012 26.0224 15.0189 26.3931 14.9095C26.7639 14.8001 27.1802 14.7454 27.6421 14.7454C27.946 14.7454 28.2134 14.7636 28.4444 14.8001C28.6814 14.8305 28.8972 14.8791 29.0917 14.9459V15.9944C28.8972 15.9275 28.6875 15.8758 28.4626 15.8394C28.2377 15.7968 27.9886 15.7756 27.715 15.7756C27.4051 15.7756 27.1346 15.812 26.9037 15.885C26.6788 15.9579 26.4904 16.0825 26.3384 16.2588C26.1925 16.4289 26.0831 16.6569 26.0102 16.9425C25.9373 17.2221 25.9008 17.5716 25.9008 17.9909C25.9008 18.4346 25.9342 18.7993 26.0011 19.085C26.074 19.3706 26.1834 19.5985 26.3293 19.7687C26.4752 19.9328 26.6575 20.0483 26.8763 20.1152C27.1012 20.1759 27.3656 20.2063 27.6695 20.2063C27.949 20.2063 28.2074 20.1881 28.4444 20.1516C28.6814 20.1091 28.9215 20.0453 29.1646 19.9602V20.9904C28.9762 21.0633 28.7483 21.1241 28.4809 21.1727C28.2195 21.2274 27.9339 21.2548 27.6239 21.2548Z" fill="#FF0D01"/>
</svg>
