<svg width="36" height="36" viewBox="0 0 36 36" fill="none" xmlns="http://www.w3.org/2000/svg">
<path d="M1.00871e-09 18C7.8474e-05 6.75 3.21436 8.78424e-06 18 0C32.7856 -8.78422e-06 36 5.94643 36 18C36 30.8571 30.5358 36 18 36C6.91071 36 -9.64087e-05 31.8214 1.00871e-09 18Z" fill="#D81E06"/>
<path d="M29.6851 15.4458C29.2668 14.9229 28.3778 13.8771 27.4889 12.8836C26.966 12.2561 26.4954 11.6809 26.1294 11.2103C25.7633 10.7397 25.0313 10.7397 24.6652 11.2103C24.6129 11.2626 24.6129 11.3149 24.5607 11.3672C23.8809 11.1057 22.7828 10.6874 21.6847 10.2691C20.8481 9.95535 20.0637 9.64161 19.4885 9.43245C18.9656 9.22329 18.3381 9.53703 18.2336 10.1645C18.2336 10.2691 18.1813 10.426 18.1813 10.5828H13.4752C12.6385 10.5828 12.0111 11.4718 12.3248 12.2561C12.4294 12.4653 12.4817 12.7267 12.5862 12.9882C12.1679 13.145 11.4359 13.4588 10.4424 14.034C9.81487 14.4 9.29197 14.766 8.87365 15.0798C8.29846 15.4981 8.19388 16.2824 8.6122 16.8576C8.87365 17.2237 9.18739 17.642 9.55342 18.0603C9.34426 18.4786 8.92594 19.263 8.55991 20.1519C8.24617 20.8317 7.93243 21.7206 7.72327 22.4527C7.51411 23.1324 7.88014 23.9168 8.55991 24.1782L17.6061 27.3156C17.6584 27.3156 17.7107 27.2633 17.6584 27.2111C17.0309 26.845 15.7759 26.1653 14.1549 25.4332C12.5862 24.7534 10.7561 23.9691 9.71029 23.4985C9.1351 23.237 8.87365 22.6095 9.08281 22.0343C9.18739 21.7729 9.34426 21.4069 9.50113 21.0408C9.71029 19.995 10.0763 19.263 10.2855 18.8447C11.4882 20.0473 13.0569 21.7206 13.9981 22.6618C14.6256 23.3416 15.3576 24.0737 15.8282 24.5443C15.8805 24.5966 15.9328 24.5443 15.9328 24.492C15.3576 23.603 13.9981 21.5637 12.7431 19.9427C11.6973 18.6355 10.5992 17.3805 9.97174 16.6485C9.60571 16.2824 9.71029 15.655 10.1809 15.3935C10.5469 15.1844 10.9653 14.9752 11.5404 14.7137C12.2202 14.4 12.6908 14.1908 13.0046 14.034C13.266 14.8183 13.5798 15.7073 13.8412 16.5962C14.5733 19.0015 15.3576 21.4069 15.7236 22.505C15.7236 22.5572 15.8805 22.5572 15.8282 22.4527C15.6714 21.4069 15.3576 19.2107 14.8347 16.9622C14.4164 15.1844 14.0504 13.3542 13.7889 12.413C13.6843 12.047 13.9458 11.6809 14.3118 11.6809L18.0244 11.5763C17.8675 12.3607 17.7107 13.3019 17.5015 14.4523C16.9263 17.3282 16.3511 19.8382 16.0897 20.9885C16.0897 21.0408 16.1943 21.0931 16.1943 21.0408C16.6126 20.0996 17.2923 18.2172 17.9198 15.8118C18.5473 13.6679 19.0179 12.0992 19.1748 11.3149C19.2794 10.9489 19.6454 10.6874 20.0114 10.792C20.5343 10.8966 21.3187 11.1057 22.0507 11.3149C22.6259 11.4718 23.4626 11.7332 24.1423 11.8901C23.6194 12.5699 22.8874 13.5111 21.9984 14.6092C20.116 16.8576 18.3904 18.7924 17.6061 19.6813C17.5538 19.7336 17.6584 19.8382 17.7107 19.7859C18.495 19.1584 20.116 17.8511 21.7893 16.0733C23.4626 14.3477 24.5084 13.1973 25.0313 12.6221C25.2404 12.413 25.5542 12.3607 25.7633 12.5699C26.1294 12.8836 26.7045 13.4065 27.332 13.9294C28.0641 14.5569 29.1099 15.2366 29.6328 15.6027C29.6851 15.5504 29.7374 15.4981 29.6851 15.4458Z" fill="white"/>
<path d="M28.2209 22.7141L24.7174 16.9622L21.214 22.7141C21.0048 22.9232 20.848 23.237 20.7957 23.5507C20.4819 24.6488 21.3186 25.8515 22.5213 25.8515H22.6258C23.4102 25.8515 24.0377 25.3809 24.3514 24.7534C24.3514 24.7534 24.4037 25.224 24.1945 25.8515C24.1422 26.0083 24.0377 26.2175 23.9331 26.4267C23.7239 26.7927 23.4102 27.1064 23.0964 27.3679H26.443C26.1293 27.1064 25.7632 26.7927 25.6064 26.4267C25.5018 26.2175 25.3972 26.0606 25.3449 25.8515C25.1358 25.224 25.188 24.7534 25.188 24.7534C25.5018 25.3809 26.1293 25.8515 26.9136 25.8515H27.0182C28.2732 25.8515 29.0575 24.6488 28.7438 23.5507C28.5869 23.237 28.43 22.9232 28.2209 22.7141Z" fill="white"/>
</svg>
