<svg width="36" height="36" viewBox="0 0 36 36" fill="none" xmlns="http://www.w3.org/2000/svg">
<mask id="path-1-inside-1_11_3175" fill="white">
<path d="M1.00871e-09 18C7.8474e-05 6.75 3.21436 8.78424e-06 18 0C32.7856 -8.78422e-06 36 5.94643 36 18C36 30.8571 30.5358 36 18 36C6.91071 36 -9.64087e-05 31.8214 1.00871e-09 18Z"/>
</mask>
<path d="M1.00871e-09 18C7.8474e-05 6.75 3.21436 8.78424e-06 18 0C32.7856 -8.78422e-06 36 5.94643 36 18C36 30.8571 30.5358 36 18 36C6.91071 36 -9.64087e-05 31.8214 1.00871e-09 18Z" fill="white"/>
<path d="M1.00871e-09 18L1 18L1.00871e-09 18ZM1.00871e-09 18L1 18C1.00004 12.4188 1.81003 8.23746 4.21467 5.43204C6.5888 2.66223 10.7301 1 18 1V0V-1C10.4842 -0.999996 5.6256 0.712782 2.69616 4.13046C-0.202768 7.51254 -0.99996 12.3312 -1 18L1.00871e-09 18ZM18 0V1C25.3037 0.999996 29.4342 2.47694 31.7961 5.14302C34.1841 7.83854 35 12.0002 35 18H36H37C37 11.9462 36.2087 7.10788 33.2931 3.81679C30.3514 0.496269 25.4819 -1 18 -1V0ZM36 18H35C35 24.3159 33.6537 28.4908 30.9987 31.1095C28.3409 33.7309 24.1622 35 18 35V36V37C24.3736 37 29.1949 35.6977 32.4031 32.5334C35.6142 29.3663 37 24.5413 37 18H36ZM18 36V35C12.5482 35 8.34866 33.9666 5.50644 31.4362C2.68833 28.9271 0.999953 24.7587 1 18L1.00871e-09 18L-1 18C-1.00005 25.0627 0.766929 29.8943 4.17652 32.9299C7.562 35.9441 12.3625 37 18 37V36Z" fill="black" fill-opacity="0.08" mask="url(#path-1-inside-1_11_3175)"/>
<g clip-path="url(#clip0_11_3175)">
<path d="M11.3269 15.9827C10.0569 15.9827 9 16.5172 9 18.1287C9 19.4067 9.71133 20.2105 11.3591 20.2105C13.3002 20.2105 13.4247 18.9405 13.4247 18.9405H12.4843C12.4843 18.9405 12.2834 19.6237 11.3028 19.6237C10.503 19.6237 9.92835 19.0892 9.92835 18.3377H13.5252V17.8715C13.5252 17.128 13.051 15.9827 11.3269 15.9827L11.3269 15.9827ZM11.2948 16.5855C12.0543 16.5855 12.5727 17.0477 12.5727 17.7389H9.95247C9.95247 17.0035 10.6276 16.5855 11.2948 16.5855V16.5855Z" fill="#E53238"/>
<path d="M13.5252 14.4233V19.4027C13.5252 19.684 13.5051 20.0819 13.5051 20.0819H14.4013C14.4013 20.0819 14.4335 19.7965 14.4335 19.5353C14.4335 19.5353 14.8756 20.2225 16.0812 20.2225C17.3512 20.2225 18.2112 19.3504 18.2112 18.0966C18.2112 16.9311 17.4195 15.9947 16.0812 15.9947C14.8273 15.9947 14.4415 16.6659 14.4415 16.6659V14.4233H13.5252ZM15.8521 16.6136C16.7122 16.6136 17.2627 17.2486 17.2627 18.1006C17.2627 19.0129 16.6278 19.6117 15.8602 19.6117C14.9399 19.6117 14.4455 18.9003 14.4455 18.1086C14.4415 17.3691 14.8876 16.6136 15.8521 16.6136Z" fill="#0064D2"/>
<path d="M20.4417 15.9827C18.5327 15.9827 18.4081 17.0195 18.4081 17.1843H19.3606C19.3606 17.1843 19.4088 16.5775 20.3773 16.5775C21.0043 16.5775 21.4906 16.8628 21.4906 17.4093V17.6063H20.3773C18.8984 17.6063 18.1147 18.0363 18.1147 18.9084C18.1147 19.7644 18.8381 20.2306 19.8147 20.2306C21.1449 20.2306 21.575 19.4992 21.575 19.4992C21.575 19.7885 21.5991 20.0738 21.5991 20.0738H22.443C22.443 20.0738 22.4109 19.7202 22.4109 19.4911V17.538C22.4109 16.2559 21.366 15.9827 20.4417 15.9827ZM21.4906 18.197V18.4583C21.4906 18.7959 21.2776 19.6398 20.0358 19.6398C19.3566 19.6398 19.0632 19.3022 19.0632 18.9124C19.0672 18.2011 20.0478 18.197 21.4906 18.197Z" fill="#F5AF02"/>
<path d="M21.9005 16.1475H22.9695L24.5047 19.1978L26.0359 16.1475H27.0044L24.2154 21.5769H23.1986L24.0024 20.0618L21.9005 16.1475Z" fill="#86B817"/>
</g>
<defs>
<clipPath id="clip0_11_3175">
<rect width="18" height="18" fill="white" transform="translate(9 9.00012)"/>
</clipPath>
</defs>
</svg>
