<svg width="36" height="36" viewBox="0 0 36 36" fill="none" xmlns="http://www.w3.org/2000/svg">
<mask id="path-1-inside-1_9_2093" fill="white">
<path d="M1.00871e-09 18C7.8474e-05 6.75 3.21436 8.78424e-06 18 0C32.7856 -8.78422e-06 36 5.94643 36 18C36 30.8571 30.5358 36 18 36C6.91071 36 -9.64087e-05 31.8214 1.00871e-09 18Z"/>
</mask>
<path d="M1.00871e-09 18C7.8474e-05 6.75 3.21436 8.78424e-06 18 0C32.7856 -8.78422e-06 36 5.94643 36 18C36 30.8571 30.5358 36 18 36C6.91071 36 -9.64087e-05 31.8214 1.00871e-09 18Z" fill="white"/>
<path d="M1.00871e-09 18L1 18L1.00871e-09 18ZM1.00871e-09 18L1 18C1.00004 12.4188 1.81003 8.23746 4.21467 5.43204C6.5888 2.66223 10.7301 1 18 1V0V-1C10.4842 -0.999996 5.6256 0.712782 2.69616 4.13046C-0.202768 7.51254 -0.99996 12.3312 -1 18L1.00871e-09 18ZM18 0V1C25.3037 0.999996 29.4342 2.47694 31.7961 5.14302C34.1841 7.83854 35 12.0002 35 18H36H37C37 11.9462 36.2087 7.10788 33.2931 3.81679C30.3514 0.496269 25.4819 -1 18 -1V0ZM36 18H35C35 24.3159 33.6537 28.4908 30.9987 31.1095C28.3409 33.7309 24.1622 35 18 35V36V37C24.3736 37 29.1949 35.6977 32.4031 32.5334C35.6142 29.3663 37 24.5413 37 18H36ZM18 36V35C12.5482 35 8.34866 33.9666 5.50644 31.4362C2.68833 28.9271 0.999953 24.7587 1 18L1.00871e-09 18L-1 18C-1.00005 25.0627 0.766929 29.8943 4.17652 32.9299C7.562 35.9441 12.3625 37 18 37V36Z" fill="black" fill-opacity="0.08" mask="url(#path-1-inside-1_9_2093)"/>
<path d="M27.3733 26.5862C27.2505 26.4676 26.2549 25.4721 25.1577 24.3791L23.1667 22.3965L23.1582 18.8084L23.1455 15.2245L23.0523 15.3219C22.9972 15.3728 22.9379 15.4151 22.9125 15.4151C22.8913 15.4151 22.8701 15.4448 22.8701 15.4787C22.8701 15.5126 22.8405 15.5422 22.8066 15.5422C22.7727 15.5422 22.7261 15.5803 22.7007 15.6269C22.6753 15.6735 22.3067 16.0548 21.8831 16.4742C20.7944 17.5545 20.6291 17.7154 19.6082 18.7406C19.1083 19.2405 18.6677 19.6514 18.6338 19.6514C18.6 19.6514 17.8671 18.9482 17.0113 18.084L15.4524 16.5166L17.2232 14.7416C18.9304 13.0301 20.125 11.8143 20.3114 11.5982C20.3961 11.5008 20.8113 11.0856 20.9765 10.9331C21.0189 10.8908 21.3663 10.5561 21.7433 10.1833C22.1246 9.81051 22.5397 9.40807 22.6626 9.29369C22.7896 9.17507 22.921 9.03527 22.9549 8.98867C22.9888 8.93784 23.0692 8.88277 23.1328 8.86582C23.2429 8.8404 23.37 8.96326 24.929 10.5264C25.8525 11.4584 26.8014 12.4158 27.0386 12.6615C27.2716 12.903 27.5046 13.1233 27.5512 13.1487C27.5936 13.1741 27.6487 13.2589 27.6656 13.3393C27.7165 13.5681 27.6868 26.7811 27.636 26.7938C27.6148 26.8023 27.4962 26.7091 27.3733 26.5862Z" fill="#EB8903"/>
<path d="M9.61047 20.0624V13.3097L11.8557 11.0603L14.1009 8.81079L14.2789 8.96753C14.5415 9.19629 18.5067 13.1657 18.5067 13.1954C18.5067 13.2081 17.7908 13.9325 16.9181 14.8009L15.3295 16.3853L14.7745 15.8346C14.4653 15.5295 14.1984 15.2796 14.1772 15.2754C14.1518 15.2711 14.1391 16.7072 14.1433 18.7957L14.1475 22.3288L11.9108 24.5698C10.6823 25.8026 9.66131 26.8108 9.64436 26.8108C9.62318 26.8108 9.61047 23.7734 9.61047 20.0624Z" fill="#367FB0"/>
<path d="M15.3677 19.8336C15.3634 19.8082 15.3634 18.5966 15.3719 16.792C15.3719 16.6818 15.5244 16.8216 16.9393 18.2323C17.7993 19.0923 18.4983 19.804 18.4898 19.8082C18.4601 19.8421 15.3719 19.8633 15.3677 19.8336Z" fill="#367FB0"/>
</svg>
