<svg width="36" height="36" viewBox="0 0 36 36" fill="none" xmlns="http://www.w3.org/2000/svg">
<path d="M1.00871e-09 18C7.8474e-05 6.75 3.21436 8.78424e-06 18 0C32.7856 -8.78422e-06 36 5.94643 36 18C36 30.8571 30.5358 36 18 36C6.91071 36 -9.64087e-05 31.8214 1.00871e-09 18Z" fill="#D81E06"/>
<path d="M17.7399 9.51238C18.4387 9.39619 19.2968 9.63239 19.6677 10.2755C19.6967 10.9154 19.4697 11.5318 19.4108 12.1663C20.4331 11.8308 21.3828 11.0098 22.5191 11.2345C23.0782 11.3087 23.2932 12.313 22.6817 12.4886C21.6108 12.9801 20.4287 13.1732 19.3175 13.5431C19.1452 13.9506 19.2543 14.4988 19.1926 14.9543C20.114 14.7017 21.0282 13.974 22.0216 14.3494C22.4864 14.4585 22.8988 14.8567 22.7815 15.3738C22.3822 17.0747 23.111 18.7488 23.2457 20.4377C23.3379 20.933 23.4568 21.652 22.9189 21.9504C22.3794 22.2264 22.0991 21.4152 21.5868 21.5942C20.6153 21.856 19.6312 22.078 18.6733 22.3852C18.5506 22.6443 18.3984 23.0338 18.0503 23.019C17.7689 22.9017 17.5594 22.6421 17.4448 22.3655C17.0008 20.501 16.9413 18.5306 16.3282 16.7119C15.775 16.2237 16.26 15.3613 16.9811 15.6869C17.2474 15.7868 17.519 15.7289 17.753 15.5773C17.7923 15.0214 17.8529 14.4666 17.8801 13.9102C16.8584 14.0357 15.7729 14.4715 14.7817 14.009C14.4413 13.7591 14.9077 13.4324 15.1684 13.3816C16.0669 13.0592 17.0232 12.9409 17.9303 12.6441C17.9461 11.8117 17.7585 10.9945 17.3941 10.2494C17.2244 9.94387 17.3859 9.55111 17.7399 9.51238ZM20.1974 15.7377C19.419 15.9008 18.6777 16.2106 17.9232 16.4572C17.4956 16.5494 17.8278 17.0954 17.8414 17.3949C18.5997 17.1969 19.3432 16.6634 20.1543 16.9285C20.4385 17.0005 20.6622 17.3976 20.3327 17.5618C19.5859 17.8853 18.7764 18.0402 18.0018 18.2841C18.0618 18.643 18.1065 19.0074 18.2047 19.3576C18.9793 19.1547 20.3851 18.343 20.8275 19.4138C20.2067 20.0379 19.077 19.9713 18.376 20.405C18.4207 20.7492 18.4769 21.0934 18.5462 21.4338C19.5396 21.1229 20.486 20.627 21.5279 20.4928C21.3293 19.057 21.0855 17.6267 20.8204 16.2024C20.7844 15.9111 20.5264 15.5893 20.1974 15.7377ZM12.34 10.9307C13.119 10.8483 14.1849 11.3136 14.1685 12.2175C13.7327 13.5289 13.1905 14.8108 12.7175 16.1113C12.6248 16.3023 12.8653 16.4086 12.9504 16.5477C13.4179 16.9694 13.3536 17.6387 13.479 18.2011C13.8276 20.6019 14.1173 23.0108 14.3922 25.4209C14.5324 25.8355 14.4364 26.6564 13.8063 26.4955C13.0972 26.0924 12.592 25.266 12.5991 24.4357C12.4398 22.2068 12.532 19.9184 11.8862 17.7571C11.1514 18.6725 10.5917 19.7973 9.58577 20.4513C9.42703 20.6112 8.86952 20.6761 9.02826 20.3362C9.56831 19.0036 10.4395 17.8297 10.9692 16.4899C11.6423 14.8463 12.0694 13.0751 11.9882 11.2885C11.9609 11.0894 12.1644 10.9541 12.34 10.9307Z" fill="#FFFEFE"/>
<path d="M14.6315 18.4602C15.2174 18.3369 15.9653 18.5999 16.0749 19.2561C16.3368 20.7546 16.4993 22.2705 16.7448 23.7723C19.5574 23.1084 22.3569 22.3867 25.1608 21.6863C25.8083 21.5488 26.7166 21.772 26.9588 22.4544C27.1426 22.8831 26.6746 23.1794 26.3107 23.2077C22.9128 23.4936 19.5541 24.2049 16.3711 25.4377C15.8654 25.5948 15.2376 25.2735 15.1203 24.7488C15.3439 23.2835 15.1017 21.7965 14.8786 20.3449C14.7973 19.7907 14.2808 19.4372 14.1144 18.9283C14.1307 18.6555 14.3839 18.4973 14.6315 18.4602Z" fill="#FFFEFE"/>
</svg>
