<svg width="36" height="36" viewBox="0 0 36 36" fill="none" xmlns="http://www.w3.org/2000/svg">
<path d="M1.00871e-09 18C7.8474e-05 6.75 3.21436 8.78424e-06 18 0C32.7856 -8.78422e-06 36 5.94643 36 18C36 30.8571 30.5358 36 18 36C6.91071 36 -9.64087e-05 31.8214 1.00871e-09 18Z" fill="#0974EF"/>
<path d="M24.8679 16.6451C24.8984 16.2937 25.3059 13.3295 21.0378 13.6452C15.1449 14.0833 11.157 20.5313 10.3471 22.8385C9.2599 21.074 8.81041 18.9902 9.07364 16.9344C9.33686 14.8787 10.2969 12.9753 11.7936 11.5417C13.2825 10.1182 15.2212 9.25842 17.2758 9.1106C19.3304 8.96278 21.3723 9.53615 23.0496 10.7319C21.6244 10.4295 20.1514 10.4325 18.7275 10.7406C17.3035 11.0488 15.961 11.6551 14.7884 12.5196C20.941 9.97304 24.3789 11.6894 25.1582 12.7947C26.406 14.5773 25.4434 16.2937 24.8679 16.6451ZM26.8288 18.0814C26.8326 19.6251 26.4397 21.1439 25.6879 22.4921C22.1787 23.6687 19.6473 21.2698 19.1889 20.1595C22.0513 21.7944 25.8407 19.9914 26.7524 17.0017C26.8005 17.3596 26.826 17.7203 26.8288 18.0814Z" fill="white"/>
<path d="M19.1889 26.8317C18.7855 26.8869 18.3788 26.9141 17.9717 26.9132C16.648 26.9166 15.3401 26.627 14.1416 26.0652C12.9431 25.5034 11.8839 24.6832 11.0398 23.6637C11.6827 21.7159 12.7113 19.9175 14.0641 18.3757C15.4169 16.8339 17.0662 15.5802 18.9139 14.6895C17.2841 16.8693 15.4913 21.8199 19.1889 26.8317Z" fill="white"/>
<path d="M17.9105 18.2546C17.9349 19.1003 18.1392 19.9311 18.5098 20.6916C18.8805 21.4521 19.409 22.1249 20.0601 22.6652C20.7111 23.2054 21.4699 23.6007 22.2857 23.8247C23.1016 24.0487 23.9558 24.0962 24.7914 23.9641C23.582 25.4121 21.9483 26.4436 20.121 26.9131C19.1013 25.7431 18.3702 24.3504 17.9863 22.8467C17.6025 21.343 17.5765 19.7702 17.9105 18.2546Z" fill="white"/>
</svg>
