<svg width="36" height="36" viewBox="0 0 36 36" fill="none" xmlns="http://www.w3.org/2000/svg">
<mask id="path-1-inside-1_9_2378" fill="white">
<path d="M1.00871e-09 18C7.8474e-05 6.75 3.21436 8.78424e-06 18 0C32.7856 -8.78422e-06 36 5.94643 36 18C36 30.8571 30.5358 36 18 36C6.91071 36 -9.64087e-05 31.8214 1.00871e-09 18Z"/>
</mask>
<path d="M1.00871e-09 18C7.8474e-05 6.75 3.21436 8.78424e-06 18 0C32.7856 -8.78422e-06 36 5.94643 36 18C36 30.8571 30.5358 36 18 36C6.91071 36 -9.64087e-05 31.8214 1.00871e-09 18Z" fill="white"/>
<path d="M1.00871e-09 18L1 18L1.00871e-09 18ZM1.00871e-09 18L1 18C1.00004 12.4188 1.81003 8.23746 4.21467 5.43204C6.5888 2.66223 10.7301 1 18 1V0V-1C10.4842 -0.999996 5.6256 0.712782 2.69616 4.13046C-0.202768 7.51254 -0.99996 12.3312 -1 18L1.00871e-09 18ZM18 0V1C25.3037 0.999996 29.4342 2.47694 31.7961 5.14302C34.1841 7.83854 35 12.0002 35 18H36H37C37 11.9462 36.2087 7.10788 33.2931 3.81679C30.3514 0.496269 25.4819 -1 18 -1V0ZM36 18H35C35 24.3159 33.6537 28.4908 30.9987 31.1095C28.3409 33.7309 24.1622 35 18 35V36V37C24.3736 37 29.1949 35.6977 32.4031 32.5334C35.6142 29.3663 37 24.5413 37 18H36ZM18 36V35C12.5482 35 8.34866 33.9666 5.50644 31.4362C2.68833 28.9271 0.999953 24.7587 1 18L1.00871e-09 18L-1 18C-1.00005 25.0627 0.766929 29.8943 4.17652 32.9299C7.562 35.9441 12.3625 37 18 37V36Z" fill="black" fill-opacity="0.08" mask="url(#path-1-inside-1_9_2378)"/>
<g clip-path="url(#clip0_9_2378)">
<path d="M21.1026 13.7818L21.5317 11.7228H8.92749L6.86023 21.6222H17.3988L16.8185 24.2772H26.9134L29.1399 13.7818H21.1026Z" fill="#02262B"/>
<path d="M11.1558 20.3585C10.8701 20.3585 10.6001 20.3116 10.3462 20.2174C10.0923 20.1237 9.87069 19.9851 9.6817 19.8021C9.4927 19.6191 9.3436 19.394 9.23399 19.1265C9.12438 18.8591 9.06958 18.552 9.06958 18.2049C9.06958 17.7306 9.13526 17.2982 9.26704 16.9083C9.39881 16.5184 9.58216 16.1843 9.8171 15.9055C10.052 15.6271 10.3337 15.4114 10.6625 15.2586C10.991 15.1059 11.3508 15.0295 11.7413 15.0295C12.0048 15.0295 12.2547 15.0756 12.4916 15.1681C12.7282 15.2607 12.9353 15.3948 13.113 15.5718C13.2907 15.7483 13.4322 15.9657 13.537 16.2235C13.6417 16.4813 13.6941 16.7774 13.6941 17.1116C13.6941 17.1625 13.6925 17.2223 13.6893 17.2906C13.6861 17.3593 13.6812 17.4291 13.6748 17.5007C13.6683 17.5722 13.6619 17.6425 13.6558 17.7108C13.6494 17.779 13.6417 17.8372 13.6321 17.8849H9.93154C9.92832 17.9298 9.9259 17.9726 9.92429 18.0138C9.92268 18.0554 9.92187 18.0982 9.92187 18.1427C9.92187 18.4069 9.96015 18.632 10.0363 18.8182C10.1125 19.0045 10.2116 19.1564 10.3341 19.2744C10.4562 19.3924 10.5936 19.4772 10.746 19.5298C10.8983 19.5823 11.0522 19.6086 11.2078 19.6086C11.5475 19.6086 11.8207 19.5496 12.027 19.432C12.2333 19.3144 12.3905 19.1552 12.4985 18.9544H13.3701C13.3161 19.152 13.2271 19.3366 13.1034 19.5084C12.9796 19.6801 12.8233 19.8292 12.6343 19.9548C12.4453 20.0805 12.2261 20.1795 11.977 20.251C11.728 20.3225 11.454 20.3585 11.1558 20.3585ZM12.8273 17.2211C12.8305 17.2053 12.833 17.1758 12.8346 17.1326C12.8362 17.0898 12.837 17.0473 12.837 17.0061C12.837 16.8372 12.8124 16.6772 12.7632 16.5261C12.7141 16.375 12.6403 16.2421 12.5416 16.1273C12.4433 16.0126 12.3208 15.9221 12.1749 15.855C12.0286 15.7883 11.859 15.7548 11.6651 15.7548C11.4681 15.7548 11.2839 15.7899 11.1127 15.8598C10.941 15.9297 10.7854 16.0295 10.646 16.1584C10.5062 16.2873 10.3857 16.4417 10.2841 16.6215C10.1826 16.8013 10.1016 17.0013 10.0412 17.2207H12.8273V17.2211Z" fill="white"/>
<path d="M16.031 20.3583C15.7739 20.3583 15.5326 20.3098 15.3069 20.2124C15.0812 20.1154 14.8838 19.976 14.7141 19.7946C14.5441 19.6132 14.4099 19.3934 14.3116 19.1356C14.2132 18.8779 14.1641 18.5898 14.1641 18.2714C14.1641 17.9627 14.1951 17.6673 14.2567 17.3857C14.3184 17.1041 14.4067 16.8431 14.5211 16.6027C14.6355 16.3623 14.7726 16.1449 14.9329 15.951C15.0933 15.7566 15.271 15.5914 15.4665 15.4544C15.6619 15.3174 15.8727 15.2124 16.1 15.1393C16.3268 15.0661 16.5642 15.0294 16.812 15.0294C16.9962 15.0294 17.1715 15.0548 17.3383 15.1057C17.5051 15.1566 17.6558 15.2273 17.7908 15.3182C17.9258 15.4092 18.0415 15.5186 18.1386 15.6475C18.2353 15.7764 18.3062 15.9174 18.3506 16.0702H18.4267L19.0602 13.0758H19.8936L18.3695 20.2678H17.5789L17.7264 19.5659H17.6502C17.4628 19.8112 17.2279 20.0043 16.9454 20.1461C16.6629 20.2872 16.3579 20.3583 16.031 20.3583ZM16.293 19.6181C16.5597 19.6181 16.8064 19.5554 17.0336 19.4294C17.2605 19.3037 17.4584 19.1316 17.6264 18.9138C17.7949 18.6956 17.9266 18.4395 18.0217 18.1449C18.1168 17.8504 18.1648 17.5328 18.1648 17.1922C18.1648 16.9724 18.1346 16.7752 18.0741 16.5999C18.0137 16.4249 17.9278 16.2758 17.817 16.1534C17.7058 16.031 17.5708 15.936 17.412 15.8694C17.2533 15.8023 17.0739 15.7692 16.8737 15.7692C16.6101 15.7692 16.3655 15.8281 16.1402 15.9457C15.9146 16.0637 15.7195 16.2273 15.5543 16.4374C15.3891 16.6475 15.2589 16.8985 15.1638 17.1894C15.0687 17.4803 15.0208 17.7999 15.0208 18.1469C15.0208 18.3635 15.0518 18.5623 15.1139 18.7437C15.1759 18.9251 15.2622 19.0803 15.3734 19.2092C15.4846 19.3381 15.618 19.4383 15.7735 19.5102C15.9291 19.5821 16.1024 19.6181 16.293 19.6181Z" fill="white"/>
<path d="M27.3693 15.135H25.5103L23.4826 17.6522H23.3826L22.3103 15.135H20.43L22.0419 18.7912L18.5623 22.9241H20.3962L22.6295 20.2692H22.7802L23.9867 22.9241H25.8319L24.0475 18.9742L27.3693 15.135Z" fill="white"/>
</g>
<defs>
<clipPath id="clip0_9_2378">
<rect width="22.2797" height="12.5544" fill="white" transform="translate(6.86023 11.7228)"/>
</clipPath>
</defs>
</svg>
