<svg width="36" height="36" viewBox="0 0 36 36" fill="none" xmlns="http://www.w3.org/2000/svg">
<path d="M1.00871e-09 18C7.8474e-05 6.75 3.21436 8.78424e-06 18 0C32.7856 -8.78422e-06 36 5.94643 36 18C36 30.8571 30.5358 36 18 36C6.91071 36 -9.64087e-05 31.8214 1.00871e-09 18Z" fill="#227E6F"/>
<g clip-path="url(#clip0_9_2326)">
<path d="M18.0001 27H9.02406V18C9.02252 16.8185 9.25383 15.6483 9.70475 14.5563C10.1557 13.4642 10.8174 12.4717 11.6521 11.6355C12.4841 10.7992 13.4733 10.1359 14.5627 9.68354C15.6522 9.23122 16.8204 8.99892 18.0001 9C20.4788 9 22.7228 10.008 24.3473 11.6355C25.9703 13.2645 26.9761 15.5145 26.9761 18C26.9761 20.4855 25.9725 22.7355 24.3473 24.3645C23.5155 25.2008 22.5264 25.8642 21.437 26.3165C20.3477 26.7688 19.1796 27.0011 18.0001 27ZM20.1668 17.1473L19.2136 18.801H22.5271C22.1483 20.9625 20.2636 22.6095 18.0001 22.6095C15.4651 22.6095 13.4011 20.5417 13.4011 18C13.4011 15.4583 15.4636 13.3905 18.0001 13.3905C19.3658 13.3905 20.5936 13.9913 21.4381 14.9423L22.2953 13.4513C21.1383 12.3476 19.6005 11.7325 18.0016 11.7338C14.5516 11.7338 11.7526 14.5388 11.7526 18C11.7526 21.4612 14.5501 24.2655 18.0016 24.2655C21.4538 24.2655 24.2506 21.4612 24.2506 18C24.2506 17.7097 24.2288 17.4262 24.1913 17.1473H20.1668Z" fill="white"/>
</g>
<defs>
<clipPath id="clip0_9_2326">
<rect width="18" height="18" fill="white" transform="translate(9 9)"/>
</clipPath>
</defs>
</svg>
