<svg width="36" height="36" viewBox="0 0 36 36" fill="none" xmlns="http://www.w3.org/2000/svg">
<mask id="path-1-inside-1_11_3201" fill="white">
<path d="M1.00871e-09 18C7.8474e-05 6.75 3.21436 8.78424e-06 18 0C32.7856 -8.78422e-06 36 5.94643 36 18C36 30.8571 30.5358 36 18 36C6.91071 36 -9.64087e-05 31.8214 1.00871e-09 18Z"/>
</mask>
<path d="M1.00871e-09 18C7.8474e-05 6.75 3.21436 8.78424e-06 18 0C32.7856 -8.78422e-06 36 5.94643 36 18C36 30.8571 30.5358 36 18 36C6.91071 36 -9.64087e-05 31.8214 1.00871e-09 18Z" fill="#FDBB30"/>
<path d="M1.00871e-09 18L1 18L1.00871e-09 18ZM1.00871e-09 18L1 18C1.00004 12.4188 1.81003 8.23746 4.21467 5.43204C6.5888 2.66223 10.7301 1 18 1V0V-1C10.4842 -0.999996 5.6256 0.712782 2.69616 4.13046C-0.202768 7.51254 -0.99996 12.3312 -1 18L1.00871e-09 18ZM18 0V1C25.3037 0.999996 29.4342 2.47694 31.7961 5.14302C34.1841 7.83854 35 12.0002 35 18H36H37C37 11.9462 36.2087 7.10788 33.2931 3.81679C30.3514 0.496269 25.4819 -1 18 -1V0ZM36 18H35C35 24.3159 33.6537 28.4908 30.9987 31.1095C28.3409 33.7309 24.1622 35 18 35V36V37C24.3736 37 29.1949 35.6977 32.4031 32.5334C35.6142 29.3663 37 24.5413 37 18H36ZM18 36V35C12.5482 35 8.34866 33.9666 5.50644 31.4362C2.68833 28.9271 0.999953 24.7587 1 18L1.00871e-09 18L-1 18C-1.00005 25.0627 0.766929 29.8943 4.17652 32.9299C7.562 35.9441 12.3625 37 18 37V36Z" fill="black" fill-opacity="0.08" mask="url(#path-1-inside-1_11_3201)"/>
<g clip-path="url(#clip0_11_3201)">
<path d="M18 8.50012H17.924C16.784 8.50012 16.67 9.22212 16.67 9.22212L17.126 14.3901C17.24 14.8461 17.81 14.8461 17.962 14.8461C18.114 14.8461 18.684 14.8461 18.798 14.3901L19.254 9.22212C19.254 9.22212 19.14 8.50012 18 8.50012ZM26.284 13.2121L26.246 13.1741C25.638 12.1861 24.992 12.4521 24.992 12.4521L20.774 15.4921C20.432 15.8341 20.736 16.3281 20.812 16.4421C20.888 16.5561 21.192 17.0501 21.61 16.8981L26.322 14.6561C26.284 14.6561 26.854 14.2001 26.284 13.2121ZM26.284 22.7501C26.246 22.7881 26.246 22.7881 26.284 22.7501C25.638 23.7761 24.992 23.5101 24.992 23.5101L20.774 20.4701C20.432 20.1281 20.736 19.6341 20.812 19.5201C20.888 19.4061 21.192 18.9121 21.61 19.0641L26.322 21.3061C26.284 21.3061 26.854 21.7621 26.284 22.7501ZM9.71598 13.2121L9.75398 13.1741C10.362 12.1861 11.008 12.4521 11.008 12.4521L15.226 15.4921C15.568 15.8341 15.264 16.3281 15.188 16.4421C15.112 16.5561 14.808 17.0501 14.39 16.8981L9.71598 14.6561C9.71598 14.6561 9.14598 14.2001 9.71598 13.2121ZM9.71598 22.7501C9.75398 22.7881 9.75398 22.7881 9.71598 22.7501C10.362 23.7761 11.008 23.5101 11.008 23.5101L15.226 20.4701C15.568 20.1281 15.264 19.6341 15.188 19.5201C15.112 19.4061 14.808 18.9121 14.39 19.0641L9.71598 21.3061C9.71598 21.3061 9.14598 21.7621 9.71598 22.7501ZM18 27.5001H17.924C16.784 27.5001 16.67 26.7781 16.67 26.7781L17.126 21.6101C17.24 21.1541 17.81 21.1541 17.962 21.1541C18.114 21.1541 18.684 21.1541 18.798 21.6101L19.254 26.7781C19.254 26.7781 19.14 27.5001 18 27.5001Z" fill="white"/>
</g>
<defs>
<clipPath id="clip0_11_3201">
<rect width="19" height="19" fill="white" transform="translate(8.5 8.50012)"/>
</clipPath>
</defs>
</svg>
