<svg width="36" height="36" viewBox="0 0 36 36" fill="none" xmlns="http://www.w3.org/2000/svg">
<path d="M1.00871e-09 18C7.8474e-05 6.75 3.21436 8.78424e-06 18 0C32.7856 -8.78422e-06 36 5.94643 36 18C36 30.8571 30.5358 36 18 36C6.91071 36 -9.64087e-05 31.8214 1.00871e-09 18Z" fill="#CC2127"/>
<g clip-path="url(#clip0_9_2171)">
<path d="M20.9553 9.43143C19.0743 8.73845 16.7277 8.8127 14.2966 10.1503C7.89222 15.1282 12.7655 19.3772 13.0085 19.5156C14.2269 19.8283 14.0165 18.0194 14.0165 18.0194C14.0165 18.0194 11.7902 15.2351 14.8175 11.9615C20.7382 8.68783 23.1051 12.9694 22.3041 16.3477C20.98 22.301 17.2901 19.8981 17.5691 19.0634C17.5005 19.3412 18.5794 14.8852 18.4747 14.5376C18.6142 12.2045 14.0885 12.0998 15.5138 17.2195C15.3057 18.0543 14.0874 23.2415 14.0874 23.2415C14.0874 23.2415 13.634 25.2968 14.0514 26.7918C14.156 27.1046 14.4001 26.8593 14.4001 26.8593C14.4001 26.8593 16.0369 25.7141 16.9077 20.8385C17.0112 21.9871 23.2086 24.1459 24.8454 16.4872C25.5102 13.3508 23.9195 10.5238 20.9553 9.43143Z" fill="white"/>
</g>
<defs>
<clipPath id="clip0_9_2171">
<rect width="18" height="18" fill="white" transform="translate(9 9)"/>
</clipPath>
</defs>
</svg>
