<svg width="36" height="36" viewBox="0 0 36 36" fill="none" xmlns="http://www.w3.org/2000/svg">
<path d="M1.00871e-09 18C7.8474e-05 6.75 3.21436 8.78424e-06 18 0C32.7856 -8.78422e-06 36 5.94643 36 18C36 30.8571 30.5358 36 18 36C6.91071 36 -9.64087e-05 31.8214 1.00871e-09 18Z" fill="#FF7800"/>
<g clip-path="url(#clip0_11_3167)">
<path d="M24.5785 23.8259C24.6788 23.7856 24.7658 23.7758 24.8395 23.7964C24.9132 23.8169 24.9501 23.8756 24.9501 23.9725C24.9501 24.0693 24.8999 24.1816 24.7996 24.3093C24.7122 24.4165 24.5648 24.5622 24.3574 24.7464C24.15 24.9307 23.8303 25.1583 23.3983 25.4291C22.9663 25.6999 22.4941 25.9476 21.9816 26.1722C21.469 26.3967 20.8395 26.5909 20.093 26.7546C19.3465 26.9183 18.5781 27.0001 17.7879 27.0001C16.9908 27.0001 16.1941 26.8964 15.3979 26.689C14.6017 26.4816 13.9019 26.2253 13.2985 25.9202C12.6951 25.6151 12.1174 25.2667 11.5655 24.875C11.0135 24.4833 10.57 24.1319 10.2348 23.8208C9.89971 23.5097 9.61859 23.2165 9.39147 22.9414C9.33833 22.8814 9.3049 22.8261 9.29119 22.7756C9.27747 22.725 9.2809 22.6847 9.30147 22.6547C9.32204 22.6247 9.34861 22.6012 9.38118 22.584C9.41375 22.5669 9.45232 22.56 9.49689 22.5634C9.54145 22.5669 9.58002 22.5819 9.61259 22.6084C10.8982 23.3918 11.9027 23.9476 12.6261 24.2759C15.2308 25.4544 17.9057 25.7556 20.6509 25.1797C21.9229 24.9123 23.232 24.4602 24.5785 23.8234V23.8259ZM26.6574 22.6714C26.7311 22.7786 26.7396 23.0113 26.6831 23.3695C26.6265 23.7278 26.5309 24.071 26.3964 24.3993C26.1684 24.9547 25.8839 25.37 25.5427 25.6451C25.4287 25.7385 25.3417 25.7685 25.2818 25.7351C25.2218 25.7016 25.2218 25.6215 25.2818 25.4947C25.4223 25.193 25.5714 24.7863 25.7291 24.2746C25.8869 23.7629 25.9087 23.4329 25.7947 23.2847C25.7613 23.2375 25.7094 23.199 25.6392 23.169C25.5689 23.139 25.4785 23.1188 25.3679 23.1085C25.2573 23.0983 25.1588 23.0897 25.0722 23.0828C24.9856 23.076 24.8686 23.076 24.7212 23.0828C24.5738 23.0897 24.4684 23.0965 24.405 23.1034C24.3415 23.1103 24.2378 23.1201 24.0938 23.133C23.9498 23.1458 23.8744 23.1527 23.8676 23.1535C23.8273 23.1604 23.7836 23.1655 23.7364 23.169C23.6893 23.1724 23.6524 23.1758 23.6259 23.1793C23.5993 23.1827 23.571 23.1861 23.541 23.1895C23.511 23.193 23.4875 23.1947 23.4703 23.1947H23.37C23.37 23.1947 23.3602 23.193 23.3405 23.1895C23.3208 23.1861 23.3139 23.181 23.3199 23.1741L23.3045 23.1445C23.2642 23.0374 23.4215 22.9037 23.7763 22.7434C24.1311 22.5832 24.4761 22.4829 24.8112 22.4426C25.1189 22.3955 25.4806 22.392 25.8963 22.4323C26.312 22.4726 26.5665 22.5527 26.6599 22.6727L26.6574 22.6714ZM22.7002 18.2219C22.7002 18.4293 22.7452 18.6436 22.8352 18.8647C22.9252 19.0858 23.0323 19.28 23.1566 19.4471C23.2809 19.6142 23.4065 19.7681 23.5333 19.9086C23.6602 20.0492 23.7707 20.1563 23.865 20.23L23.9961 20.3406L21.7167 22.5904C21.4493 22.3427 21.1849 22.0899 20.9235 21.8319C20.6621 21.5739 20.468 21.3781 20.3411 21.2444L20.1508 21.0438C20.0771 20.9701 19.9936 20.8596 19.9001 20.7121C19.6456 21.1073 19.319 21.4505 18.9205 21.7419C18.522 22.0333 18.0951 22.2459 17.64 22.3796C17.1849 22.5133 16.7161 22.5904 16.2335 22.611C15.751 22.6316 15.2908 22.5613 14.8528 22.4002C14.4148 22.239 14.0214 22.0196 13.6726 21.7419C13.3238 21.4642 13.0461 21.0858 12.8395 20.6067C12.6329 20.1276 12.5292 19.5834 12.5284 18.974C12.5284 18.4117 12.6222 17.8962 12.8099 17.4274C12.9976 16.9586 13.2389 16.5686 13.5337 16.2575C13.8286 15.9463 14.1851 15.6686 14.6034 15.4244C15.0216 15.1801 15.4317 14.9894 15.8337 14.8523C16.2357 14.7151 16.6711 14.5994 17.1399 14.5052C17.6087 14.4109 18.009 14.3487 18.3407 14.3187C18.6724 14.2887 19.0053 14.2669 19.3396 14.2532V12.9778C19.3396 12.5424 19.2693 12.2176 19.1288 12.0033C18.9008 11.6485 18.4958 11.4711 17.9139 11.4711C17.8736 11.4711 17.8183 11.4745 17.748 11.4814C17.6777 11.4882 17.5423 11.5285 17.3418 11.6022C17.1412 11.6759 16.9535 11.7745 16.7786 11.8979C16.6038 12.0213 16.4161 12.2206 16.2155 12.4957C16.015 12.7709 15.8543 13.0923 15.7334 13.46L12.7804 13.1887C12.7804 12.7867 12.8541 12.3882 13.0015 11.9931C13.1489 11.5979 13.373 11.2195 13.6739 10.8579C13.9747 10.4962 14.3364 10.1782 14.7589 9.90392C15.1815 9.62965 15.6889 9.41024 16.2811 9.24568C16.8734 9.08112 17.511 8.99927 18.1941 9.00013C18.8635 9.00013 19.4695 9.08369 20.012 9.25083C20.5545 9.41796 20.9882 9.62366 21.313 9.86792C21.6379 10.1122 21.9091 10.3899 22.1268 10.701C22.3445 11.0121 22.4954 11.3001 22.5794 11.5649C22.6634 11.8298 22.7054 12.0758 22.7054 12.3029V18.2193L22.7002 18.2219ZM15.9507 18.4327C15.9507 19.0087 16.1851 19.4539 16.6539 19.7685C17.0962 20.0633 17.5616 20.137 18.0501 19.9896C18.6124 19.8225 18.9942 19.4107 19.1956 18.7541C19.289 18.4524 19.3358 18.1143 19.3358 17.7398V16.1122C18.9406 16.1259 18.5691 16.1662 18.2211 16.233C17.8731 16.2999 17.5166 16.4122 17.1515 16.5699C16.7864 16.7276 16.495 16.9654 16.2773 17.2834C16.0596 17.6014 15.9507 17.9849 15.9507 18.434V18.4327Z" fill="white"/>
</g>
<defs>
<clipPath id="clip0_11_3167">
<rect width="18" height="18" fill="white" transform="translate(9 9.00012)"/>
</clipPath>
</defs>
</svg>
