<svg width="36" height="36" viewBox="0 0 36 36" fill="none" xmlns="http://www.w3.org/2000/svg">
<path d="M1.00871e-09 18C7.8474e-05 6.75 3.21436 8.78424e-06 18 0C32.7856 -8.78422e-06 36 5.94643 36 18C36 30.8571 30.5358 36 18 36C6.91071 36 -9.64087e-05 31.8214 1.00871e-09 18Z" fill="#D81E06"/>
<path d="M13.7468 9H11.2493V19.8619C11.2967 20.7347 11.2075 21.6097 10.9849 22.455C10.8666 22.9608 10.5585 23.4018 10.1243 23.6869C9.62749 24.0742 9.05125 24.347 8.43677 24.4856L6.18677 24.75V27H6.39489L9.61239 26.5725C10.473 26.328 11.2813 25.9276 11.9974 25.3912C13.1674 24.3619 13.7805 22.7981 13.7805 20.7169L13.7468 9ZM29.8118 18C29.8356 16.6568 29.6066 15.3211 29.1368 14.0625C28.7357 12.9899 28.0883 12.0266 27.2468 11.25C25.5593 9.77062 23.0955 9 19.878 9H16.188V27H19.8499C23.0674 27 25.5143 26.2181 27.2186 24.705C28.0938 23.9521 28.7554 22.9821 29.1368 21.8925C29.6065 20.6495 29.8356 19.3286 29.8118 18ZM25.5986 12.8756C26.2131 13.444 26.6605 14.1695 26.8924 14.9737C27.2314 15.9461 27.397 16.9704 27.3818 18C27.3998 19.006 27.2339 20.0068 26.8924 20.9531C26.6728 21.7659 26.2236 22.4983 25.5986 23.0625C24.3836 24.2212 22.5443 24.75 20.1424 24.75H18.5618V11.1825H20.148C22.5499 11.1825 24.3893 11.745 25.6043 12.9038L25.5986 12.8756Z" fill="white"/>
</svg>
