<svg width="36" height="36" viewBox="0 0 36 36" fill="none" xmlns="http://www.w3.org/2000/svg">
<mask id="path-1-inside-1_10_2573" fill="white">
<path d="M1.00871e-09 18C7.8474e-05 6.75 3.21436 8.78424e-06 18 0C32.7856 -8.78422e-06 36 5.94643 36 18C36 30.8571 30.5358 36 18 36C6.91071 36 -9.64087e-05 31.8214 1.00871e-09 18Z"/>
</mask>
<path d="M1.00871e-09 18C7.8474e-05 6.75 3.21436 8.78424e-06 18 0C32.7856 -8.78422e-06 36 5.94643 36 18C36 30.8571 30.5358 36 18 36C6.91071 36 -9.64087e-05 31.8214 1.00871e-09 18Z" fill="#232128"/>
<path d="M1.00871e-09 18L1 18L1.00871e-09 18ZM1.00871e-09 18L1 18C1.00004 12.4188 1.81003 8.23746 4.21467 5.43204C6.5888 2.66223 10.7301 1 18 1V0V-1C10.4842 -0.999996 5.6256 0.712782 2.69616 4.13046C-0.202768 7.51254 -0.99996 12.3312 -1 18L1.00871e-09 18ZM18 0V1C25.3037 0.999996 29.4342 2.47694 31.7961 5.14302C34.1841 7.83854 35 12.0002 35 18H36H37C37 11.9462 36.2087 7.10788 33.2931 3.81679C30.3514 0.496269 25.4819 -1 18 -1V0ZM36 18H35C35 24.3159 33.6537 28.4908 30.9987 31.1095C28.3409 33.7309 24.1622 35 18 35V36V37C24.3736 37 29.1949 35.6977 32.4031 32.5334C35.6142 29.3663 37 24.5413 37 18H36ZM18 36V35C12.5482 35 8.34866 33.9666 5.50644 31.4362C2.68833 28.9271 0.999953 24.7587 1 18L1.00871e-09 18L-1 18C-1.00005 25.0627 0.766929 29.8943 4.17652 32.9299C7.562 35.9441 12.3625 37 18 37V36Z" fill="white" fill-opacity="0.09" mask="url(#path-1-inside-1_10_2573)"/>
<g clip-path="url(#clip0_10_2573)">
<path d="M23.7745 13.3211L26.9305 11.7649C26.9305 12.1929 26.9336 12.5819 26.9305 12.9725C26.9274 13.2589 27.0099 13.6028 26.8807 13.8176C26.7562 14.0199 26.4107 14.0899 26.1602 14.2144L18.5566 17.9851C18.6344 18.0302 18.6904 18.0691 18.7511 18.0987C21.4075 19.4183 24.0655 20.7349 26.7235 22.0499C26.8807 22.1277 26.9336 22.2117 26.9305 22.3845C26.9196 22.9774 26.9274 23.5703 26.9274 24.213L23.8181 22.6786C23.65 22.9961 23.5131 23.3291 23.3123 23.6154C22.8299 24.3048 22.1265 24.6192 21.3048 24.6223C18.0555 24.6348 14.8077 24.6348 11.5583 24.6254C10.2978 24.6254 9.27378 23.7788 9.08392 22.5308C8.99989 21.9643 9.04657 21.3776 9.0777 20.8034C9.08392 20.6835 9.25977 20.5341 9.39205 20.4688C10.8393 19.7374 12.2913 19.02 13.7432 18.2994L14.3595 17.9929C12.727 17.1805 11.1226 16.3744 9.50877 15.587C9.18663 15.4313 9.02634 15.2399 9.05435 14.8711C9.0917 14.3451 9.03568 13.8098 9.11971 13.2947C9.29868 12.1991 10.3398 11.3728 11.4525 11.3728C14.7516 11.3728 18.0508 11.3774 21.3484 11.3696C22.4875 11.3665 23.387 12.154 23.7061 13.1173L23.773 13.3211H23.7745ZM16.4354 13.2075H11.689C11.5666 13.2068 11.4447 13.2225 11.3264 13.2542C11.0619 13.3258 10.9202 13.5281 10.8922 13.8144C10.8673 14.0743 10.9358 14.2284 11.2035 14.3591C12.8344 15.1434 14.456 15.9464 16.0651 16.7681C16.3452 16.9113 16.5599 16.9129 16.8432 16.7681C18.4647 15.9464 20.0988 15.1466 21.725 14.3358C21.8075 14.2953 21.9211 14.2362 21.9429 14.1646C22.0985 13.6339 21.767 13.2044 21.2083 13.2044L16.4354 13.2091V13.2075ZM16.4354 22.7564H21.3095C21.7141 22.7564 21.932 22.5385 21.9491 22.137C21.9597 22.0553 21.9587 21.9726 21.946 21.8912C21.9258 21.8196 21.8837 21.7246 21.823 21.6951C20.0801 20.8236 18.3371 19.9568 16.5895 19.0993C16.5469 19.0815 16.5011 19.0723 16.4549 19.0723C16.4087 19.0723 16.3629 19.0815 16.3203 19.0993C14.5517 19.9687 12.7854 20.8428 11.0214 21.7215C10.9716 21.748 10.9047 21.804 10.9 21.8523C10.8455 22.3471 11.0494 22.7704 11.6128 22.7642C13.2188 22.7455 14.8279 22.758 16.437 22.758V22.7564H16.4354Z" fill="white"/>
</g>
<defs>
<clipPath id="clip0_10_2573">
<rect width="18" height="18" fill="white" transform="translate(8.99988 9)"/>
</clipPath>
</defs>
</svg>
