<svg width="36" height="36" viewBox="0 0 36 36" fill="none" xmlns="http://www.w3.org/2000/svg">
<path d="M1.00871e-09 18C7.8474e-05 6.75 3.21436 8.78424e-06 18 0C32.7856 -8.78422e-06 36 5.94643 36 18C36 30.8571 30.5358 36 18 36C6.91071 36 -9.64087e-05 31.8214 1.00871e-09 18Z" fill="#FF0000"/>
<path d="M26.6554 12.1697C26.6617 11.3491 26.3084 11.0519 25.5266 11.0536C20.4621 11.065 15.3975 11.0674 10.333 11.0531C9.55588 11.0508 9.33905 11.3967 9.3453 12.1283C9.3724 15.3081 9.38038 18.4885 9.34201 21.6681C9.33156 22.536 9.70266 22.7194 10.4722 22.7039C12.355 22.6659 14.2435 22.7726 16.1212 22.6677C17.785 22.5748 19.2508 22.8315 20.4889 24.0365C20.8469 24.385 21.3497 24.5848 21.9395 24.947C21.8514 24.1179 21.7859 23.5025 21.6996 22.6912C23.081 22.6912 24.3313 22.6709 25.5805 22.6991C26.2907 22.7151 26.6654 22.5173 26.6582 21.7127C26.63 18.5319 26.631 15.3506 26.6554 12.1697ZM15.1056 21.3845C14.2535 21.3845 13.3999 21.3845 12.4441 21.3845C12.4441 18.394 12.4441 15.4093 12.4441 12.2987C13.3558 12.2987 14.1788 12.2987 15.1056 12.2987C15.1056 15.3338 15.1056 18.3137 15.1056 21.3845ZM23.6134 14.9094C22.9722 14.9561 22.4028 14.9977 21.6226 15.0545C21.6226 17.177 21.6226 19.2745 21.6226 21.4153C20.5457 21.4153 19.684 21.4153 18.6884 21.4153C18.6884 19.2932 18.6884 17.2259 18.6884 15.0667C17.9614 15.0111 17.3589 14.965 16.6943 14.9142C16.6943 14.0441 16.6943 13.2259 16.6943 12.3297C19.0006 12.3297 21.2726 12.3297 23.6134 12.3297C23.6134 13.2327 23.6134 14.043 23.6134 14.9094Z" fill="white"/>
</svg>
