<svg width="36" height="36" viewBox="0 0 36 36" fill="none" xmlns="http://www.w3.org/2000/svg">
<mask id="path-1-inside-1_10_2728" fill="white">
<path d="M1.00871e-09 18C7.8474e-05 6.75 3.21436 8.78424e-06 18 0C32.7856 -8.78422e-06 36 5.94643 36 18C36 30.8571 30.5358 36 18 36C6.91071 36 -9.64087e-05 31.8214 1.00871e-09 18Z"/>
</mask>
<path d="M1.00871e-09 18C7.8474e-05 6.75 3.21436 8.78424e-06 18 0C32.7856 -8.78422e-06 36 5.94643 36 18C36 30.8571 30.5358 36 18 36C6.91071 36 -9.64087e-05 31.8214 1.00871e-09 18Z" fill="white"/>
<path d="M1.00871e-09 18L1 18L1.00871e-09 18ZM1.00871e-09 18L1 18C1.00004 12.4188 1.81003 8.23746 4.21467 5.43204C6.5888 2.66223 10.7301 1 18 1V0V-1C10.4842 -0.999996 5.6256 0.712782 2.69616 4.13046C-0.202768 7.51254 -0.99996 12.3312 -1 18L1.00871e-09 18ZM18 0V1C25.3037 0.999996 29.4342 2.47694 31.7961 5.14302C34.1841 7.83854 35 12.0002 35 18H36H37C37 11.9462 36.2087 7.10788 33.2931 3.81679C30.3514 0.496269 25.4819 -1 18 -1V0ZM36 18H35C35 24.3159 33.6537 28.4908 30.9987 31.1095C28.3409 33.7309 24.1622 35 18 35V36V37C24.3736 37 29.1949 35.6977 32.4031 32.5334C35.6142 29.3663 37 24.5413 37 18H36ZM18 36V35C12.5482 35 8.34866 33.9666 5.50644 31.4362C2.68833 28.9271 0.999953 24.7587 1 18L1.00871e-09 18L-1 18C-1.00005 25.0627 0.766929 29.8943 4.17652 32.9299C7.562 35.9441 12.3625 37 18 37V36Z" fill="black" fill-opacity="0.08" mask="url(#path-1-inside-1_10_2728)"/>
<g clip-path="url(#clip0_10_2728)">
<path d="M10.314 12.6663C11.6996 12.7194 13.0129 13.2988 13.9862 14.2866C14.9594 15.2743 15.5194 16.596 15.552 17.9823C15.518 19.3681 14.9575 20.689 13.9846 21.6765C13.0116 22.6639 11.6991 23.2438 10.314 23.2983V26.8623C12.6448 26.8096 14.8642 25.8546 16.5049 24.1982C18.1456 22.5419 19.0795 20.3135 19.11 17.9823C19.0795 15.6511 18.1456 13.4227 16.5049 11.7664C14.8642 10.11 12.6448 9.15494 10.314 9.10229" fill="#FD003A"/>
<path d="M17.0339 17.9582C17.066 20.2884 18.0006 22.5153 19.6411 24.1703C21.2816 25.8254 23.5002 26.7796 25.8299 26.8322V23.2682C24.4453 23.2153 23.1329 22.6366 22.1598 21.6502C21.1867 20.6637 20.626 19.3435 20.5919 17.9582C20.6215 16.5699 21.1801 15.2452 22.1537 14.2549C23.1273 13.2646 24.4423 12.6835 25.8299 12.6302V9.07825C23.4991 9.13089 21.2797 10.0859 19.639 11.7423C17.9983 13.3987 17.0644 15.6271 17.0339 17.9582Z" fill="#003368"/>
</g>
<defs>
<clipPath id="clip0_10_2728">
<rect width="18" height="18" fill="white" transform="translate(9.0719 9.03027)"/>
</clipPath>
</defs>
</svg>
