<svg width="36" height="36" viewBox="0 0 36 36" fill="none" xmlns="http://www.w3.org/2000/svg">
<path d="M1.00871e-09 18C7.8474e-05 6.75 3.21436 8.78424e-06 18 0C32.7856 -8.78422e-06 36 5.94643 36 18C36 30.8571 30.5358 36 18 36C6.91071 36 -9.64087e-05 31.8214 1.00871e-09 18Z" fill="#1296DB"/>
<path d="M27.7751 11.0236C27.7751 11.2502 27.6951 11.3768 27.5352 11.4034C27.3886 11.4301 27.2287 11.4434 27.0555 11.4434C26.8955 11.4434 26.7423 11.4767 26.5957 11.5433C26.4624 11.61 26.3625 11.7166 26.2959 11.8632C26.2159 12.0231 26.1493 12.203 26.096 12.4029C26.056 12.6028 26.016 12.796 25.976 12.9826C25.7361 14.102 25.4496 15.3614 25.1165 16.7607C24.7966 18.16 24.4635 19.5992 24.117 21.0785C23.7705 22.5577 23.4373 23.9836 23.1175 25.3563H20.6987C20.2723 23.7304 19.8192 22.1113 19.3394 20.4988C18.8597 18.8862 18.3866 17.2737 17.9201 15.6612C17.467 17.2737 16.9939 18.8929 16.5009 20.5187C16.0211 22.1446 15.5347 23.7571 15.0416 25.3563H12.7628C12.4829 23.9037 12.1897 22.4511 11.8832 20.9985C11.5767 19.5459 11.2635 18.0933 10.9437 16.6407L10.304 13.7422C10.2507 13.4757 10.1974 13.2092 10.1441 12.9426C10.1041 12.6628 10.0442 12.3962 9.96421 12.143C9.9109 11.9298 9.83761 11.7699 9.74432 11.6633C9.66436 11.5433 9.50444 11.4834 9.26457 11.4834C9.17128 11.4834 9.07133 11.49 8.96472 11.5034C8.85811 11.5034 8.75816 11.5034 8.66487 11.5034C8.53161 11.5034 8.425 11.4567 8.34504 11.3634C8.26508 11.2568 8.2251 11.1369 8.2251 11.0036C8.2251 10.897 8.2784 10.8104 8.38502 10.7437C8.50495 10.6771 8.61157 10.6438 8.70485 10.6438C9.10465 10.6438 9.50444 10.6571 9.90424 10.6838C10.3174 10.7104 10.7238 10.7238 11.1236 10.7238C11.59 10.7238 12.0631 10.7104 12.5429 10.6838C13.0226 10.6571 13.4957 10.6438 13.9622 10.6438C14.0554 10.6438 14.1487 10.6838 14.242 10.7637C14.3353 10.8437 14.3819 10.9303 14.3819 11.0236C14.3819 11.3035 14.242 11.4434 13.9622 11.4434C13.8689 11.4434 13.7756 11.4434 13.6823 11.4434C13.6023 11.4301 13.5157 11.4234 13.4224 11.4234C13.2359 11.4234 13.1093 11.4567 13.0426 11.5233C12.976 11.59 12.9427 11.7166 12.9427 11.9032C12.9427 11.9698 12.9427 12.0431 12.9427 12.123C12.956 12.1897 12.9693 12.2563 12.9827 12.3229C13.2492 14.0021 13.5424 15.6812 13.8622 17.3604C14.1954 19.0395 14.5085 20.7186 14.8017 22.3978C15.1482 21.1451 15.508 19.8991 15.8812 18.6597C16.2543 17.4203 16.6075 16.1743 16.9406 14.9216C17.0473 14.5218 17.1539 14.122 17.2605 13.7222C17.3671 13.3091 17.467 12.896 17.5603 12.4829C17.6136 12.2963 17.6603 12.1031 17.7003 11.9032C17.7402 11.6899 17.7869 11.4967 17.8402 11.3235C17.9068 11.1369 17.9868 11.0103 18.0801 10.9436C18.1867 10.8637 18.3466 10.8237 18.5598 10.8237C18.7331 10.8237 18.8863 10.837 19.0196 10.8637C19.1662 10.8903 19.2794 10.9903 19.3594 11.1635C19.426 11.3101 19.4793 11.4767 19.5193 11.6633C19.5593 11.8498 19.5993 12.0231 19.6393 12.183C19.7459 12.6095 19.8658 13.0426 19.9991 13.4823C20.1323 13.9221 20.2589 14.3552 20.3789 14.7817C20.752 16.061 21.1185 17.3404 21.4783 18.6197C21.8515 19.8991 22.2246 21.1784 22.5977 22.4578C22.811 21.6715 23.0109 20.8186 23.1974 19.8991C23.3973 18.9795 23.5839 18.04 23.7572 17.0805C23.8904 16.3609 24.0237 15.6412 24.1569 14.9216C24.2902 14.202 24.4035 13.4823 24.4968 12.7627C24.5234 12.6028 24.5434 12.4429 24.5567 12.283C24.5701 12.123 24.5767 11.9631 24.5767 11.8032C24.5767 11.55 24.4901 11.4167 24.3169 11.4034C24.1569 11.3768 23.9837 11.3634 23.7971 11.3634C23.6639 11.3634 23.5306 11.3701 23.3973 11.3834C23.2641 11.3967 23.1308 11.4034 22.9975 11.4034C22.7443 11.4034 22.6177 11.2768 22.6177 11.0236C22.6177 10.7704 22.7377 10.6438 22.9776 10.6438C23.2174 10.6438 23.4573 10.6571 23.6972 10.6838C23.9504 10.6971 24.1969 10.7038 24.4368 10.7038H25.3164C25.6628 10.7038 26.0027 10.6971 26.3358 10.6838C26.6823 10.6571 27.0221 10.6438 27.3553 10.6438C27.4619 10.6438 27.5552 10.6771 27.6352 10.7437C27.7285 10.8104 27.7751 10.9037 27.7751 11.0236Z" fill="white"/>
</svg>
