<svg width="36" height="36" viewBox="0 0 36 36" fill="none" xmlns="http://www.w3.org/2000/svg">
<path d="M1.00871e-09 18C7.8474e-05 6.75 3.21436 8.78424e-06 18 0C32.7856 -8.78422e-06 36 5.94643 36 18C36 30.8571 30.5358 36 18 36C6.91071 36 -9.64087e-05 31.8214 1.00871e-09 18Z" fill="#C91428"/>
<path d="M19.5635 9.7478V11.5885C19.5635 11.5885 21.0649 11.1035 21.0164 12.7986L21.0649 17.3038L18.9349 18.5132L18.9833 15.5594C18.9988 14.6072 17.0613 14.606 17.0771 15.5594L17.1256 18.5132L14.9938 17.2068L15.0423 12.7994C14.9938 11.1043 16.4949 11.5893 16.4949 11.5893V9.7478H19.5635ZM9.02893 22.6448L10.6232 21.7246C10.6232 21.7246 9.45265 20.6668 10.945 19.8615L14.8219 17.5668L16.9351 18.8077L14.3523 20.2427C13.5201 20.7053 14.4882 22.3837 15.3055 21.8935L17.8396 20.3748L17.7729 22.8734L13.9318 25.0354C12.488 25.9245 12.1574 24.3823 12.1574 24.3823L10.5631 25.3025L9.02893 22.6448ZM25.4955 25.2782L23.9012 24.3583C23.9012 24.3583 23.5707 25.9009 22.1269 25.0108L18.2002 22.8004L18.2182 20.3507L20.7523 21.8695C21.5687 22.3591 22.5385 20.6813 21.7055 20.2187L19.1236 18.7831L21.3205 17.5908L25.1141 19.8374C26.6062 20.6428 25.4346 21.7006 25.4346 21.7006L27.0289 22.6221L25.4955 25.2782Z" fill="white"/>
</svg>
