<svg width="36" height="36" viewBox="0 0 36 36" fill="none" xmlns="http://www.w3.org/2000/svg">
<path d="M1.00871e-09 18C7.8474e-05 6.75 3.21436 8.78424e-06 18 0C32.7856 -8.78422e-06 36 5.94643 36 18C36 30.8571 30.5358 36 18 36C6.91071 36 -9.64087e-05 31.8214 1.00871e-09 18Z" fill="#494BBF"/>
<g clip-path="url(#clip0_10_2824)">
<path d="M15.302 12.6939C15.5878 12.2687 16.2993 12.2687 16.5851 12.6939L17.9998 14.7988L19.4145 12.6939C19.7002 12.2687 20.4123 12.2687 20.6981 12.6939L26.8676 21.8722C27.029 22.1068 27.0448 22.4094 26.9103 22.6586C26.7753 22.9078 26.5132 23.0636 26.2275 23.0625H22.115C21.8563 23.0625 21.6155 22.9348 21.4726 22.7216L20.058 20.6167L18.6433 22.7216C18.5721 22.8265 18.4764 22.9123 18.3644 22.9715C18.2524 23.0307 18.1276 23.0616 18.0009 23.0614C17.7433 23.0614 17.5025 22.9342 17.3591 22.7216L15.9438 20.6167L14.5291 22.7216C14.4581 22.8265 14.3625 22.9124 14.2506 22.9718C14.1387 23.0312 14.014 23.0624 13.8873 23.0625H9.77433C9.63473 23.0631 9.49757 23.0258 9.37744 22.9547C9.2573 22.8836 9.15867 22.7813 9.09202 22.6586C8.95702 22.4094 8.97277 22.1074 9.13252 21.8722L15.302 12.6939ZM15.9438 14.4973L11.2149 21.5325H13.4745V21.5336L17.0733 16.1786L15.9438 14.4979V14.4973ZM22.1139 17.5567L20.9833 19.2375L22.5251 21.5319H24.7846L22.1139 17.5567ZM20.0568 14.4967L16.8708 19.2364L17.9998 20.9171H18.0009L21.1869 16.1769L20.0563 14.4962L20.0568 14.4967Z" fill="white"/>
</g>
<defs>
<clipPath id="clip0_10_2824">
<rect width="18" height="18" fill="white" transform="translate(9 9)"/>
</clipPath>
</defs>
</svg>
