<svg width="36" height="36" viewBox="0 0 36 36" fill="none" xmlns="http://www.w3.org/2000/svg">
<path d="M1.00871e-09 18C7.8474e-05 6.75 3.21436 8.78424e-06 18 0C32.7856 -8.78422e-06 36 5.94643 36 18C36 30.8571 30.5358 36 18 36C6.91071 36 -9.64087e-05 31.8214 1.00871e-09 18Z" fill="#00B51D"/>
<path d="M27.0001 24.6001C27.0001 25.9256 25.9256 27.0001 24.6001 27.0001H11.4001C10.0746 27.0001 9.00012 25.9256 9.00012 24.6001V11.4001C9.00012 10.0746 10.0746 9.00006 11.4001 9.00006H24.6001C25.9256 9.00006 27.0001 10.0746 27.0001 11.4001V24.6001Z" fill="#00B51D"/>
<path d="M26.5311 8.99994H9.46922C9.42774 8.99994 9.38666 9.00811 9.34833 9.02399C9.31001 9.03986 9.27518 9.06313 9.24585 9.09247C9.21651 9.1218 9.19324 9.15662 9.17737 9.19495C9.16149 9.23328 9.15332 9.27436 9.15332 9.31584V10.5796C9.15332 10.7541 9.29477 10.8955 9.46922 10.8955H26.5311C26.6148 10.8955 26.6952 10.8622 26.7544 10.803C26.8137 10.7437 26.847 10.6634 26.847 10.5796V9.31584C26.847 9.23206 26.8137 9.15171 26.7544 9.09247C26.6952 9.03322 26.6148 8.99994 26.5311 8.99994ZM26.5311 25.1043H22.1707L23.474 20.9817H25.0915C25.1753 20.9817 25.2556 20.9484 25.3149 20.8891C25.3741 20.8299 25.4074 20.7495 25.4074 20.6658V13.0125C25.4074 12.971 25.3993 12.9299 25.3834 12.8916C25.3675 12.8532 25.3443 12.8184 25.3149 12.7891C25.2856 12.7597 25.2507 12.7365 25.2124 12.7206C25.1741 12.7047 25.133 12.6966 25.0915 12.6966H10.9088C10.825 12.6966 10.7447 12.7299 10.6854 12.7891C10.6262 12.8484 10.5929 12.9287 10.5929 13.0125V20.6658C10.5929 20.8402 10.7342 20.9817 10.9088 20.9817H20.9115L19.608 25.1043H16.0035L15.0477 22.0816C14.9926 21.907 14.8064 21.7657 14.632 21.7657H12.7007C12.5263 21.7657 12.4295 21.907 12.4849 22.0816L13.4405 25.1043H9.46922C9.42774 25.1043 9.38666 25.1125 9.34833 25.1284C9.31001 25.1442 9.27518 25.1675 9.24585 25.1968C9.21651 25.2262 9.19324 25.261 9.17737 25.2993C9.16149 25.3377 9.15332 25.3787 9.15332 25.4202V26.6841C9.15332 26.8586 9.29477 27 9.46922 27H26.5311C26.6148 27 26.6952 26.9668 26.7544 26.9075C26.8137 26.8483 26.847 26.7679 26.847 26.6841V25.4202C26.847 25.3364 26.8137 25.2561 26.7544 25.1968C26.6952 25.1376 26.6148 25.1043 26.5311 25.1043ZM13.5943 18.6821V14.9958C13.5943 14.8214 13.7356 14.6799 13.9102 14.6799H22.09C22.2644 14.6799 22.4059 14.8215 22.4059 14.9958V18.6821C22.4059 18.7236 22.3977 18.7647 22.3818 18.803C22.3659 18.8413 22.3427 18.8762 22.3133 18.9055C22.284 18.9348 22.2492 18.9581 22.2108 18.974C22.1725 18.9899 22.1314 18.998 22.09 18.998H13.9102C13.8687 18.998 13.8276 18.9899 13.7893 18.974C13.751 18.9581 13.7161 18.9348 13.6868 18.9055C13.6575 18.8762 13.6342 18.8413 13.6183 18.803C13.6025 18.7647 13.5943 18.7236 13.5943 18.6821Z" fill="white"/>
</svg>
