<svg width="36" height="36" viewBox="0 0 36 36" fill="none" xmlns="http://www.w3.org/2000/svg">
<path d="M1.00871e-09 18C7.8474e-05 6.75 3.21436 8.78424e-06 18 0C32.7856 -8.78422e-06 36 5.94643 36 18C36 30.8571 30.5358 36 18 36C6.91071 36 -9.64087e-05 31.8214 1.00871e-09 18Z" fill="#C91428"/>
<path d="M19.5978 12.3875C19.5268 11.7542 19.006 11.4375 18.0355 11.4375C16.994 11.4375 16.1892 12.2125 15.6211 13.7625C15.1714 15.1292 14.9465 16.8042 14.9465 18.7875C14.9465 20.4709 15.3962 21.8375 16.2957 22.8875C17.0768 23.7375 17.9763 24.1625 18.9942 24.1625C20.5801 24.1625 22.0714 23.1709 23.4679 21.1875C23.7046 20.7042 24.0124 20.4625 24.3911 20.4625C24.8882 20.4625 25.1367 20.6959 25.1367 21.1625C25.1367 21.7292 24.9 22.4209 24.4266 23.2375C23.9058 24.0042 23.3614 24.6209 22.7933 25.0875C21.3021 26.1375 19.728 26.6625 18.071 26.6625C16.1063 26.6625 14.4494 25.9625 13.1002 24.5625C11.6089 23.0459 10.8633 21.0959 10.8633 18.7125C10.8633 16.0792 11.384 13.9625 12.4255 12.3625C13.9168 10.3459 15.9525 9.33752 18.5326 9.33752C20.1895 9.33752 21.5624 9.82086 22.6513 10.7875C23.5508 11.6209 24.0005 12.4459 24.0005 13.2625C24.0005 13.8625 23.7757 14.3042 23.3259 14.5875C22.8762 14.8875 22.2607 15.0375 21.4796 15.0375C20.1777 15.0375 19.5268 14.5209 19.5268 13.4875C19.5268 13.1042 19.5504 12.7375 19.5978 12.3875Z" fill="white"/>
</svg>
