<svg width="36" height="36" viewBox="0 0 36 36" fill="none" xmlns="http://www.w3.org/2000/svg">
<path d="M1.00871e-09 18C7.8474e-05 6.75 3.21436 8.78424e-06 18 0C32.7856 -8.78422e-06 36 5.94643 36 18C36 30.8571 30.5358 36 18 36C6.91071 36 -9.64087e-05 31.8214 1.00871e-09 18Z" fill="#0075D7"/>
<path d="M12.8737 24.1964C11.6651 24.1964 10.6192 23.948 9.73619 23.4513C8.85317 22.9491 8.17158 22.2344 7.69143 21.3072C7.21681 20.3745 6.97949 19.2735 6.97949 18.0042V17.9876C6.97949 16.7183 7.21957 15.62 7.69971 14.6928C8.18538 13.7656 8.86696 13.0537 9.74447 12.557C10.6275 12.0548 11.6706 11.8036 12.8737 11.8036C14.0823 11.8036 15.1282 12.0548 16.0112 12.557C16.8942 13.0592 17.5758 13.7739 18.056 14.7011C18.5361 15.6227 18.7762 16.7183 18.7762 17.9876V18.0042C18.7762 19.2735 18.5361 20.3718 18.056 21.299C17.5758 22.2261 16.8942 22.9408 16.0112 23.4431C15.1337 23.9453 14.0879 24.1964 12.8737 24.1964ZM12.8737 21.6798C13.4532 21.6798 13.9499 21.5308 14.3638 21.2327C14.7833 20.9292 15.1061 20.5042 15.3324 19.9579C15.5642 19.406 15.6801 18.7547 15.6801 18.0042V17.9876C15.6801 17.2315 15.5642 16.5803 15.3324 16.0339C15.1006 15.4875 14.775 15.0653 14.3555 14.7673C13.9361 14.4693 13.4422 14.3203 12.8737 14.3203C12.3108 14.3203 11.8196 14.4693 11.4002 14.7673C10.9807 15.0598 10.6551 15.4793 10.4233 16.0256C10.1915 16.572 10.0756 17.226 10.0756 17.9876V18.0042C10.0756 18.7603 10.1915 19.4142 10.4233 19.9661C10.6551 20.5125 10.978 20.9347 11.3919 21.2327C11.8113 21.5308 12.3053 21.6798 12.8737 21.6798Z" fill="white"/>
<path d="M20.1587 23.9729V14.9329H23.0975V16.4975H23.172C23.3983 15.9401 23.7377 15.5068 24.1903 15.1978C24.6483 14.8887 25.2168 14.7342 25.8956 14.7342C26.889 14.7342 27.6534 15.035 28.1887 15.6365C28.7296 16.2326 29 17.0687 29 18.1449V23.9729H26.0612V18.7823C26.0612 18.2636 25.9398 17.8579 25.6969 17.5654C25.4596 17.2729 25.0981 17.1267 24.6125 17.1267C24.3034 17.1267 24.0357 17.2012 23.8095 17.3502C23.5832 17.4937 23.4066 17.6923 23.2796 17.9462C23.1582 18.2001 23.0975 18.4953 23.0975 18.832V23.9729H20.1587Z" fill="white"/>
</svg>
