<svg width="36" height="36" viewBox="0 0 36 36" fill="none" xmlns="http://www.w3.org/2000/svg">
<path d="M1.00871e-09 18C7.8474e-05 6.75 3.21436 8.78424e-06 18 0C32.7856 -8.78422e-06 36 5.94643 36 18C36 30.8571 30.5358 36 18 36C6.91071 36 -9.64087e-05 31.8214 1.00871e-09 18Z" fill="#0079BF"/>
<g clip-path="url(#clip0_9_2358)">
<path d="M26.9941 17.8545C26.9915 17.7847 26.987 17.7149 26.9806 17.6453V17.6423C26.9154 16.8874 26.6599 16.1613 26.2381 15.5318C26.0503 15.2492 25.8323 14.9879 25.5878 14.7525C25.2255 14.4065 24.8103 14.1204 24.3578 13.905C23.6424 13.5682 22.8603 13.397 22.0696 13.404C21.4184 13.4014 20.7719 13.5141 20.1601 13.737C19.6665 13.909 19.2048 14.1614 18.7936 14.484C18.7079 14.5537 18.6246 14.6262 18.5438 14.7015L18.4801 14.7653L18.3923 14.859H18.3931L18.3511 14.9003L18.3316 14.9213L18.2258 15.0315C18.1478 15.1193 18.0743 15.207 18.0038 15.2933V15.2918L18.0008 15.2895C17.8568 15.4643 17.7233 15.6465 17.6258 15.8093C17.5591 15.9143 17.4938 16.0215 17.4316 16.1295L16.5713 17.8688L16.5728 17.8695L16.5278 17.958L16.4333 18.15C16.2451 18.5318 16.0426 18.9128 15.8176 19.2263C15.3136 19.779 14.7443 20.0498 14.0131 20.0498C13.9621 20.0498 13.9088 20.0475 13.8563 20.0438C13.4153 20.0265 13.0373 19.9223 12.7021 19.7235C12.3856 19.5416 12.1271 19.2738 11.9566 18.951C11.7844 18.637 11.6999 18.2823 11.7121 17.9243L11.7136 17.8988C11.7368 17.3288 11.9543 16.8848 12.3916 16.503C12.4981 16.41 12.6098 16.332 12.7261 16.263C12.7418 16.2533 12.7591 16.245 12.7748 16.236C13.1003 16.0583 13.4701 15.9698 13.8938 15.9698L14.0258 15.9735C14.7001 15.999 15.2198 16.209 15.6346 16.6208L16.9351 14.286C16.6069 14.0689 16.2548 13.8902 15.8858 13.7535C15.8716 13.7483 15.8558 13.7415 15.8408 13.737C15.7943 13.7205 15.7486 13.7033 15.7013 13.6883C15.2841 13.5508 14.8521 13.4632 14.4143 13.4273C14.4028 13.4258 14.3913 13.4243 14.3798 13.4228C14.3116 13.419 14.2418 13.4108 14.1736 13.4078C14.0994 13.4049 14.0251 13.4032 13.9508 13.4025H13.9096C13.1246 13.3983 12.3485 13.57 11.6386 13.905C10.877 14.2658 10.2282 14.8274 9.76209 15.5295C9.2598 16.2794 8.99433 17.1628 9.00009 18.0653C8.99859 19.2383 9.42609 20.2688 10.2758 21.135C11.1638 22.0433 12.3166 22.533 13.7011 22.5908C13.7896 22.5945 13.8773 22.5968 13.9658 22.5968C14.7496 22.5968 15.4741 22.4573 16.1243 22.1783C16.2871 22.1085 16.4446 22.0275 16.6058 21.9368C16.6936 21.8865 16.7768 21.8325 16.8593 21.7755L16.9193 21.7343L17.0221 21.6645C17.1451 21.576 17.2598 21.48 17.3723 21.3788L17.4113 21.3413C17.4773 21.279 17.5433 21.2153 17.6056 21.15L17.8388 20.886L17.9273 20.775L17.9693 20.7143L18.0106 20.655C18.3571 20.073 19.4843 17.9543 19.4843 17.9543V17.9498L19.5518 17.8208L19.6073 17.7195C19.7738 17.4173 19.8938 17.2028 20.0528 16.977L20.0573 16.9695C20.4271 16.4318 21.0653 16.0493 21.8168 15.9848C23.0768 15.876 24.1808 16.704 24.2821 17.8335C24.3833 18.9638 23.4443 19.968 22.1836 20.0768C21.9299 20.0986 21.6743 20.0824 21.4253 20.0288L21.4186 20.031C20.4946 19.8383 19.9058 19.1648 19.6156 18.8625L18.4028 21.093C18.4028 21.093 18.7801 21.4725 19.0381 21.6623C19.2976 21.852 19.6313 22.038 19.8976 22.1543C20.5695 22.4453 21.2939 22.5956 22.0261 22.596C22.1168 22.596 22.0988 22.596 22.1926 22.5923C23.5756 22.5345 24.8093 22.0043 25.6988 21.096C26.5411 20.2335 26.9986 19.2488 27.0023 18.0825V18.0473L26.9941 17.8545Z" fill="white"/>
</g>
<defs>
<clipPath id="clip0_9_2358">
<rect width="18" height="18" fill="white" transform="translate(9 9)"/>
</clipPath>
</defs>
</svg>
