<svg width="36" height="36" viewBox="0 0 36 36" fill="none" xmlns="http://www.w3.org/2000/svg">
<path d="M1.00871e-09 18C7.8474e-05 6.75 3.21436 8.78424e-06 18 0C32.7856 -8.78422e-06 36 5.94643 36 18C36 30.8571 30.5358 36 18 36C6.91071 36 -9.64087e-05 31.8214 1.00871e-09 18Z" fill="#0061E8"/>
<path d="M21.2858 19.7441H21.2453C21.0704 19.1046 20.7029 18.5344 20.1926 18.1105C19.6824 17.6867 19.0539 17.4298 18.3925 17.3746C17.7311 17.3194 17.0688 17.4687 16.4951 17.8021C15.9215 18.1355 15.4644 18.637 15.1857 19.2385C14.8753 19.1799 14.5563 19.1851 14.248 19.2538C13.9397 19.3226 13.6487 19.4534 13.3928 19.6383C13.1369 19.8232 12.9214 20.0583 12.7596 20.3292C12.5978 20.6001 12.493 20.9012 12.4517 21.2139L17.9907 24.4087L23.5469 21.205C23.3527 20.7685 23.0354 20.398 22.6339 20.1386C22.2324 19.8792 21.764 19.7421 21.2858 19.7441Z" fill="url(#paint0_linear_2_89)"/>
<path d="M17.1239 8.14951L9.92153 12.2799C9.64726 12.4372 9.41938 12.664 9.2609 12.9373C9.10242 13.2107 9.01894 13.521 9.01888 13.8368L9 22.1272C8.99954 22.4429 9.0824 22.7531 9.24024 23.0266C9.39808 23.3001 9.62532 23.5272 9.89906 23.6851L17.0816 27.8487C17.355 28.0063 17.665 28.0893 17.9807 28.0893C18.2963 28.0893 18.6064 28.0063 18.8797 27.8487L26.0821 23.7183C26.355 23.5609 26.5817 23.3347 26.7395 23.0622C26.8973 22.7897 26.9806 22.4806 26.9811 22.1658L27 13.871C27.0003 13.5554 26.9174 13.2454 26.7595 12.9721C26.6017 12.6987 26.3745 12.4718 26.1009 12.314L18.922 8.1531C18.6489 7.99494 18.339 7.91134 18.0234 7.91071C17.7078 7.91008 17.3975 7.99244 17.1239 8.14951ZM22.6486 21.7384L18.8896 23.8934C18.6159 24.0503 18.3056 24.1325 17.99 24.1317C17.6743 24.131 17.3645 24.0472 17.0915 23.8889L13.3343 21.7124C13.0607 21.5546 12.8336 21.3276 12.6758 21.0543C12.5179 20.781 12.435 20.4709 12.4353 20.1554L12.4452 15.8212C12.4455 15.5063 12.5287 15.197 12.6865 14.9244C12.8443 14.6517 13.0712 14.4253 13.3442 14.2678L17.1077 12.1129C17.381 11.9552 17.6911 11.8723 18.0067 11.8723C18.3224 11.8723 18.6324 11.9552 18.9058 12.1129L22.6656 14.2858C22.9394 14.4436 23.1666 14.6708 23.3245 14.9443C23.4823 15.2178 23.5652 15.528 23.5647 15.8437L23.5548 20.177C23.5552 20.494 23.4715 20.8054 23.3124 21.0797C23.1532 21.3539 22.9242 21.5812 22.6486 21.7384Z" fill="white"/>
<defs>
<linearGradient id="paint0_linear_2_89" x1="17.9993" y1="17.3634" x2="17.9993" y2="24.4087" gradientUnits="userSpaceOnUse">
<stop stop-color="white"/>
<stop offset="1" stop-color="#0061E8"/>
</linearGradient>
</defs>
</svg>
