<svg width="36" height="36" viewBox="0 0 36 36" fill="none" xmlns="http://www.w3.org/2000/svg">
<mask id="path-1-inside-1_9_2054" fill="white">
<path d="M1.00871e-09 18C7.8474e-05 6.75 3.21436 8.78424e-06 18 0C32.7856 -8.78422e-06 36 5.94643 36 18C36 30.8571 30.5358 36 18 36C6.91071 36 -9.64087e-05 31.8214 1.00871e-09 18Z"/>
</mask>
<path d="M1.00871e-09 18C7.8474e-05 6.75 3.21436 8.78424e-06 18 0C32.7856 -8.78422e-06 36 5.94643 36 18C36 30.8571 30.5358 36 18 36C6.91071 36 -9.64087e-05 31.8214 1.00871e-09 18Z" fill="white"/>
<path d="M1.00871e-09 18L1 18L1.00871e-09 18ZM1.00871e-09 18L1 18C1.00004 12.4188 1.81003 8.23746 4.21467 5.43204C6.5888 2.66223 10.7301 1 18 1V0V-1C10.4842 -0.999996 5.6256 0.712782 2.69616 4.13046C-0.202768 7.51254 -0.99996 12.3312 -1 18L1.00871e-09 18ZM18 0V1C25.3037 0.999996 29.4342 2.47694 31.7961 5.14302C34.1841 7.83854 35 12.0002 35 18H36H37C37 11.9462 36.2087 7.10788 33.2931 3.81679C30.3514 0.496269 25.4819 -1 18 -1V0ZM36 18H35C35 24.3159 33.6537 28.4908 30.9987 31.1095C28.3409 33.7309 24.1622 35 18 35V36V37C24.3736 37 29.1949 35.6977 32.4031 32.5334C35.6142 29.3663 37 24.5413 37 18H36ZM18 36V35C12.5482 35 8.34866 33.9666 5.50644 31.4362C2.68833 28.9271 0.999953 24.7587 1 18L1.00871e-09 18L-1 18C-1.00005 25.0627 0.766929 29.8943 4.17652 32.9299C7.562 35.9441 12.3625 37 18 37V36Z" fill="black" fill-opacity="0.08" mask="url(#path-1-inside-1_9_2054)"/>
<g clip-path="url(#clip0_9_2054)">
<path d="M23.6987 9.76025H22.4122C22.0375 9.76025 21.7584 9.91176 21.6122 10.1829L19.7064 12.9658L21.3756 15.249L24.2861 11.0706C24.6077 10.6799 24.4961 10.3291 24.435 10.1962C24.3047 9.92239 24.0309 9.76025 23.6987 9.76025Z" fill="#75BB43"/>
<path d="M14.3851 10.1483C14.0954 9.76025 13.7074 9.76025 13.5798 9.76025H12.3226C12.0009 9.76025 11.7378 9.9091 11.5996 10.1669C11.4587 10.4301 11.488 10.7464 11.6846 11.0414L16.3441 17.5029L10.9856 24.9772C10.7995 25.2589 10.773 25.5699 10.9138 25.833C11.052 26.0909 11.3152 26.2397 11.6368 26.2397H12.9233C13.2528 26.2397 13.5452 26.0669 13.6888 25.7985L19.6852 17.5322L14.3878 10.151L14.3851 10.1483Z" fill="#0A99D6"/>
<path d="M21.3358 19.9111L19.6906 22.1783L22.6462 26.1254L22.7233 26.1573C22.8403 26.2105 22.9678 26.2397 23.0954 26.2397H24.3526C24.6583 26.2397 24.9161 26.1042 25.0597 25.8703C25.2112 25.6284 25.2138 25.3254 25.073 25.0436L21.3358 19.9111Z" fill="#EB2385"/>
</g>
<defs>
<clipPath id="clip0_9_2054">
<rect width="15.6289" height="18.2337" fill="white" transform="translate(10.1855 8.88312)"/>
</clipPath>
</defs>
</svg>
