<svg width="36" height="36" viewBox="0 0 36 36" fill="none" xmlns="http://www.w3.org/2000/svg">
<path d="M1.00871e-09 18C7.8474e-05 6.75 3.21436 8.78424e-06 18 0C32.7856 -8.78422e-06 36 5.94643 36 18C36 30.8571 30.5358 36 18 36C6.91071 36 -9.64087e-05 31.8214 1.00871e-09 18Z" fill="#59ADF8"/>
<path d="M21.8151 21.1568H23.9783L20.0443 26.6564L19.9493 26.6231L20.8043 23.0084H19.1133C19.3033 22.1315 19.4857 21.3079 19.6833 20.4073C19.2026 20.5517 18.7827 20.6353 18.3999 20.8025C17.5705 21.1635 16.8248 21.0096 16.1522 20.4757C15.6994 20.1276 15.2831 19.7345 14.9096 19.3024C14.5296 18.8483 14.6502 18.589 15.2259 18.4921C16.4448 18.2869 17.6674 18.1064 18.892 17.8784H18.1234C17.0699 17.8679 16.0154 17.8508 14.9618 17.847C14.3149 17.847 13.8589 17.5098 13.4684 17.0405C12.9752 16.4422 12.6261 15.7385 12.4481 14.9837C12.3284 14.5011 12.4605 14.3681 12.9583 14.484C14.217 14.7766 15.4739 15.0797 16.7326 15.3742C17.3761 15.5327 18.0275 15.6576 18.6839 15.7485C17.9239 15.4958 17.1487 15.264 16.3954 14.9885C15.2459 14.5629 14.1154 14.0993 12.9659 13.6585C12.8036 13.5998 12.6555 13.5078 12.5309 13.3883C12.4064 13.2689 12.3083 13.1247 12.2429 12.965C11.7955 11.9447 11.4611 10.8949 11.4535 9.76824C11.4535 9.35784 11.5874 9.25714 11.9399 9.42814C15.5299 11.16 19.2416 12.6249 22.9646 14.0537C23.3237 14.2002 23.6658 14.3853 23.9849 14.6056C24.6034 15.017 24.8048 15.5357 24.4846 16.1874C23.8272 17.525 23.1043 18.8303 22.4022 20.146C22.2265 20.47 22.0308 20.7844 21.8151 21.1568Z" fill="white"/>
</svg>
