<svg width="36" height="36" viewBox="0 0 36 36" fill="none" xmlns="http://www.w3.org/2000/svg">
<path d="M1.00871e-09 18C7.8474e-05 6.75 3.21436 8.78424e-06 18 0C32.7856 -8.78422e-06 36 5.94643 36 18C36 30.8571 30.5358 36 18 36C6.91071 36 -9.64087e-05 31.8214 1.00871e-09 18Z" fill="#4E77E2"/>
<path d="M27.998 24.8783C27.998 25.1664 27.8789 25.4546 27.6409 25.7428C27.4029 26.0309 27.121 26.175 26.7952 26.175C26.6198 26.175 26.3943 26.1311 26.1187 26.0434C25.843 25.9683 25.5674 25.8743 25.2918 25.7615C25.0287 25.6613 24.822 25.5674 24.6716 25.4797C23.6693 24.8783 22.7798 24.1516 22.003 23.2997C21.2388 22.4477 20.5747 21.5143 20.0109 20.4995C19.4472 19.4847 18.9711 18.4385 18.5827 17.3611C18.307 18.401 17.9437 19.3531 17.4927 20.2176C17.0542 21.0821 16.4653 21.9215 15.7261 22.7359C14.5359 24.0389 13.1014 25.0098 11.4225 25.6488C11.2597 25.7114 11.0655 25.7741 10.84 25.8367C10.6144 25.8994 10.4516 25.9307 10.3513 25.9307C10.3012 25.9307 10.2323 25.9182 10.1446 25.8931C10.0569 25.868 10.0131 25.8179 10.0131 25.7428C10.0131 25.6801 10.0256 25.6237 10.0506 25.5736C10.0882 25.536 10.1258 25.4984 10.1634 25.4609C10.1885 25.4358 10.2135 25.417 10.2386 25.4045C10.2636 25.3919 10.2887 25.3794 10.3137 25.3669C10.3388 25.3418 10.3639 25.323 10.3889 25.3105C10.414 25.3105 10.4328 25.3042 10.4453 25.2917C11.7107 24.4523 12.7443 23.4312 13.5461 22.2285C14.3605 21.0132 15.0183 19.6977 15.5194 18.2819C15.7073 17.7557 15.8702 17.1293 16.008 16.4026C16.1458 15.676 16.2586 14.918 16.3463 14.1287C16.4465 13.3268 16.5154 12.5563 16.553 11.8171C16.6031 11.0654 16.6282 10.4014 16.6282 9.82507L19.8606 10.0318C19.8105 10.796 19.7353 11.5478 19.6351 12.287C19.5349 13.0261 19.4221 13.7653 19.2968 14.5045L20.8754 14.0911C21.0132 14.9055 21.2074 15.795 21.458 16.7597C21.7086 17.7119 22.0218 18.6828 22.3977 19.6726C22.786 20.6498 23.2433 21.577 23.7695 22.454C24.3083 23.331 24.9284 24.089 25.6301 24.7279C25.7553 24.54 25.9119 24.3333 26.0999 24.1078C26.2878 23.8822 26.5133 23.7695 26.7764 23.7695C27.0646 23.7695 27.3402 23.8822 27.6033 24.1078C27.8664 24.3333 27.998 24.5901 27.998 24.8783Z" fill="white"/>
</svg>
