<svg width="36" height="36" viewBox="0 0 36 36" fill="none" xmlns="http://www.w3.org/2000/svg">
<path d="M1.00871e-09 18C7.8474e-05 6.75 3.21436 8.78424e-06 18 0C32.7856 -8.78422e-06 36 5.94643 36 18C36 30.8571 30.5358 36 18 36C6.91071 36 -9.64087e-05 31.8214 1.00871e-09 18Z" fill="#54DA69"/>
<path d="M18.0122 26.3496C16.3114 26.3496 14.8424 25.9793 13.6055 25.2388C12.3766 24.4982 11.4245 23.4443 10.749 22.0771C10.0817 20.71 9.74805 19.0946 9.74805 17.231V17.2065C9.74805 15.3348 10.0858 13.7194 10.7612 12.3604C11.4367 11.0013 12.3888 9.9515 13.6177 9.21094C14.8547 8.47038 16.3195 8.1001 18.0122 8.1001C19.6968 8.1001 21.1576 8.47038 22.3945 9.21094C23.6315 9.9515 24.5837 11.0013 25.251 12.3604C25.9183 13.7194 26.252 15.3348 26.252 17.2065V17.231C26.252 19.0946 25.9183 20.71 25.251 22.0771C24.5837 23.4362 23.6315 24.4901 22.3945 25.2388C21.1657 25.9793 19.7049 26.3496 18.0122 26.3496ZM18.0122 23.9204C19.1353 23.9204 20.0996 23.6478 20.9053 23.1025C21.7191 22.5492 22.3457 21.772 22.7852 20.771C23.2246 19.77 23.4443 18.59 23.4443 17.231V17.2065C23.4443 15.8394 23.2205 14.6593 22.7729 13.6665C22.3335 12.6655 21.7069 11.8924 20.8931 11.3472C20.0793 10.8019 19.119 10.5293 18.0122 10.5293C16.9054 10.5293 15.9411 10.8019 15.1191 11.3472C14.3053 11.8843 13.6746 12.6533 13.2271 13.6543C12.7795 14.6471 12.5557 15.8312 12.5557 17.2065V17.231C12.5557 18.59 12.7754 19.7741 13.2148 20.7832C13.6624 21.7842 14.2931 22.5573 15.1069 23.1025C15.9207 23.6478 16.8892 23.9204 18.0122 23.9204ZM22.6509 27.8999L17.4019 20.6367H20.2461L25.4951 27.8999H22.6509Z" fill="white"/>
</svg>
