<svg width="36" height="36" viewBox="0 0 36 36" fill="none" xmlns="http://www.w3.org/2000/svg">
<path d="M1.00871e-09 18C7.8474e-05 6.75 3.21436 8.78424e-06 18 0C32.7856 -8.78422e-06 36 5.94643 36 18C36 30.8571 30.5358 36 18 36C6.91071 36 -9.64087e-05 31.8214 1.00871e-09 18Z" fill="#FF7941"/>
<g clip-path="url(#clip0_10_2773)">
<path d="M20.0182 10.391C17.6547 11.5184 15.3093 12.8908 12.9818 14.5091C11.8729 15.2908 10.9816 16.0184 10.3091 16.691C9.9638 17.0362 9.79089 17.4639 9.79089 17.9728C9.79089 18.4637 9.9638 18.8821 10.3091 19.2273L11.5636 20.3455C12.6545 21.2002 13.8818 22.0457 15.2454 22.8819C16.6816 23.7546 18.0365 24.5182 19.3091 25.1728C20.8183 25.9184 22.1274 26.4546 23.2363 26.7819C23.7273 26.9275 24.1816 26.873 24.6 26.6182C25.0363 26.3821 25.3091 26.0182 25.4182 25.5273C25.5093 25.2181 25.6091 24.7544 25.7182 24.1364C25.8638 23.2637 25.9729 22.1728 26.0454 20.8637L26.1545 17.9728C26.118 15.9911 26.0274 14.3728 25.8818 13.1182C25.7907 12.0999 25.6363 11.1911 25.4182 10.391C25.3482 10.0502 25.1657 9.74279 24.9 9.51824C24.6513 9.28473 24.3373 9.13251 24 9.08188C23.7273 9.04533 23.3907 9.09115 22.9909 9.21824C22.1182 9.47297 21.1271 9.86351 20.0182 10.391ZM18.8454 12.5182H21.2454L21.3273 12.5455L19.3909 19.5001C19.3363 19.7182 19.4182 19.8273 19.6363 19.8273H24.7091L24.1091 21.9273H16.0363L18.7363 12.6273C18.7363 12.5548 18.7729 12.5182 18.8454 12.5182Z" fill="white"/>
</g>
<defs>
<clipPath id="clip0_10_2773">
<rect width="18" height="18" fill="white" transform="translate(9 9)"/>
</clipPath>
</defs>
</svg>
