<svg width="36" height="36" viewBox="0 0 36 36" fill="none" xmlns="http://www.w3.org/2000/svg">
<path d="M1.00871e-09 18C7.8474e-05 6.75 3.21436 8.78424e-06 18 0C32.7856 -8.78422e-06 36 5.94643 36 18C36 30.8571 30.5358 36 18 36C6.91071 36 -9.64087e-05 31.8214 1.00871e-09 18Z" fill="#FF7941"/>
<path d="M18 17.0909C16.47 17.0909 15.048 17.0189 13.842 16.9109V17.0729C13.941 17.7569 14.022 18.3869 14.544 18.8639C14.625 18.9449 14.688 19.0529 14.715 19.1609C15.084 20.2049 15.813 21.0869 16.776 21.6359C17.451 22.1039 18.333 22.1489 19.053 21.7529C20.097 21.2309 20.898 20.3309 21.294 19.2329L21.312 19.1699C21.339 19.0619 21.393 18.9629 21.465 18.8819C22.032 18.3599 22.113 17.6489 22.194 16.8929L21.546 16.9469H21.402C20.385 17.0189 19.206 17.0639 17.982 17.0639" fill="white"/>
<path d="M18 17.0911C16.47 17.0911 15.048 17.0191 13.842 16.9111V17.0731C13.941 17.7571 14.022 18.3871 14.544 18.8641C14.625 18.9451 14.688 19.0531 14.715 19.1611C15.084 20.2051 15.813 21.0871 16.776 21.6361C17.451 22.1041 18.333 22.1491 19.053 21.7531C20.097 21.2311 20.898 20.3311 21.294 19.2331L21.312 19.1701C21.339 19.0621 21.393 18.9631 21.465 18.8821C22.032 18.3601 22.113 17.6491 22.194 16.8931L21.546 16.9471H21.402C20.385 17.0191 19.206 17.0641 17.982 17.0641M13.041 16.0291C14.688 16.2181 16.344 16.2991 18.009 16.2901C19.665 16.2991 21.33 16.2091 22.977 16.0291C22.986 15.9571 22.995 15.8851 23.022 15.8221V15.6421C23.112 15.2101 23.049 14.7601 22.842 14.3641C22.716 14.1931 22.635 13.9951 22.599 13.7791C22.437 12.5551 21.807 11.4301 20.853 10.6381L20.718 10.5301C20.718 10.5841 20.691 10.6381 20.682 10.7011C20.493 11.7451 20.214 12.7711 19.845 13.7611L19.503 13.7161C19.485 13.5901 19.485 13.4551 19.503 13.3291C19.548 12.9871 19.602 12.6451 19.656 12.3121C19.782 11.5651 19.872 10.8091 19.917 10.0621C19.944 9.93606 19.917 9.80106 19.836 9.69306C19.764 9.58506 19.647 9.51306 19.521 9.48606C18.774 9.22506 17.973 9.16206 17.199 9.29706C16.056 9.49506 16.038 9.53106 16.137 10.6921C16.137 10.7911 16.155 10.8901 16.173 10.9891L16.56 13.6621L16.218 13.7611C15.804 12.7261 15.498 11.6551 15.3 10.5571C14.274 11.3491 13.599 12.5101 13.419 13.7971V13.8781C13.419 14.0041 13.383 14.1211 13.302 14.2201C12.978 14.5081 12.978 14.8771 12.978 15.2911V15.7951C12.987 15.8761 13.005 15.9571 13.023 16.0291" fill="white"/>
<path d="M25.758 26.577C25.587 26.721 25.353 26.784 25.128 26.757H10.872C10.53 26.757 10.323 26.703 10.233 26.604C10.134 26.415 10.107 26.19 10.17 25.983C10.296 25.101 10.458 24.192 10.647 23.283C10.701 22.95 10.953 22.671 11.277 22.581C12.429 22.23 13.59 21.87 14.742 21.501C14.94 21.438 15.003 21.474 15.084 21.6C15.75 22.509 16.812 23.058 17.946 23.067C19.08 23.076 20.151 22.563 20.835 21.663C20.88 21.573 20.952 21.51 21.051 21.483C21.15 21.456 21.249 21.474 21.33 21.528C22.473 21.906 23.607 22.248 24.669 22.572C25.029 22.653 25.299 22.941 25.353 23.31C25.416 23.706 25.488 24.102 25.56 24.489C25.659 24.984 25.749 25.479 25.83 25.974C25.893 26.181 25.866 26.406 25.758 26.586" fill="white"/>
</svg>
