<svg width="36" height="36" viewBox="0 0 36 36" fill="none" xmlns="http://www.w3.org/2000/svg">
<path d="M1.00871e-09 18C7.8474e-05 6.75 3.21436 8.78424e-06 18 0C32.7856 -8.78422e-06 36 5.94643 36 18C36 30.8571 30.5358 36 18 36C6.91071 36 -9.64087e-05 31.8214 1.00871e-09 18Z" fill="#FBCC9A"/>
<path d="M17.1141 14.2372C17.1141 14.3629 17.0398 14.4658 16.8913 14.5458C16.7541 14.6258 16.6341 14.6658 16.5313 14.6658C16.3141 14.6658 16.1656 14.6315 16.0856 14.5629C16.0056 14.4829 15.9484 14.3743 15.9141 14.2372C15.8341 13.9286 15.7141 13.6372 15.5541 13.3629C15.4056 13.0772 15.2056 12.8486 14.9542 12.6772C14.7142 12.4944 14.4113 12.4029 14.0456 12.4029H11.3199V17.4943H12.3828C12.7713 17.4943 13.1885 17.4771 13.6342 17.4429C14.0799 17.4086 14.497 17.3514 14.8856 17.2714C15.0456 17.2371 15.2113 17.1914 15.3827 17.1343C15.5656 17.0771 15.7427 17.0486 15.9141 17.0486C16.0856 17.0486 16.1713 17.1229 16.1713 17.2714C16.1713 17.3514 16.1484 17.4657 16.1027 17.6143C16.057 17.7629 16.0227 17.8828 15.9999 17.9743C15.9541 18.1228 15.8913 18.2143 15.8113 18.2486C15.7427 18.2828 15.6284 18.3 15.4684 18.3C14.9656 18.3 14.4342 18.2714 13.8742 18.2143C13.3142 18.1571 12.7828 18.1286 12.2799 18.1286C12.0513 18.1286 11.8342 18.18 11.6285 18.2828C11.4228 18.3857 11.3199 18.5686 11.3199 18.8314V22.7913C11.3199 23.1228 11.3771 23.3513 11.4914 23.477C11.6056 23.5913 11.7656 23.6542 11.9713 23.6656C12.1771 23.6656 12.4113 23.6656 12.6742 23.6656C12.777 23.6656 12.8685 23.6885 12.9485 23.7342C13.0399 23.7685 13.0856 23.8485 13.0856 23.9742C13.0856 24.2256 12.9485 24.3513 12.6742 24.3513C12.6171 24.3513 12.5599 24.3456 12.5028 24.3342C12.4456 24.3342 12.3885 24.3342 12.3313 24.3342C11.9542 24.3113 11.5771 24.2999 11.1999 24.2999C10.8342 24.2999 10.4628 24.2999 10.0857 24.2999C9.70853 24.2999 9.33139 24.3113 8.95425 24.3342C8.57712 24.3685 8.19998 24.3856 7.82284 24.3856C7.71999 24.3856 7.62285 24.3685 7.53142 24.3342C7.43999 24.2999 7.39428 24.2256 7.39428 24.1113C7.39428 23.9399 7.43999 23.837 7.53142 23.8028C7.63428 23.7685 7.75999 23.757 7.90856 23.7685C8.05713 23.7685 8.20569 23.7513 8.35426 23.717C8.50283 23.6828 8.62283 23.5856 8.71426 23.4256C8.81711 23.2656 8.86854 23.0028 8.86854 22.6371V13.2772C8.86854 13.0486 8.83426 12.8601 8.76569 12.7115C8.69711 12.5629 8.5314 12.4887 8.26855 12.4887C8.1657 12.4887 8.06284 12.4944 7.95998 12.5058C7.85713 12.5058 7.75427 12.5058 7.65142 12.5058C7.50285 12.5058 7.35428 12.4887 7.20571 12.4544C7.06857 12.4201 7 12.3115 7 12.1287C7 12.0029 7.03429 11.9115 7.10286 11.8544C7.18285 11.7858 7.28 11.7515 7.39428 11.7515C7.79427 11.7515 8.18855 11.7629 8.57712 11.7858C8.97711 11.7972 9.37139 11.8029 9.75995 11.8029C10.5942 11.8029 11.4456 11.8029 12.3142 11.8029C13.1942 11.7915 14.0513 11.7744 14.8856 11.7515C15.1942 11.7401 15.5027 11.7287 15.8113 11.7172C16.1313 11.7058 16.4456 11.6772 16.7541 11.6315C16.7998 11.9629 16.8456 12.3115 16.8913 12.6772C16.9484 13.0315 16.9998 13.3744 17.0455 13.7058C17.057 13.7858 17.0684 13.8715 17.0798 13.9629C17.1027 14.0543 17.1141 14.1458 17.1141 14.2372Z" fill="#0C0C0C"/>
<path d="M29 14.8029C29 14.9286 28.9657 15.0429 28.8971 15.1457C28.84 15.2372 28.7371 15.2829 28.5885 15.2829C28.4057 15.2829 28.2742 15.2486 28.1942 15.18C28.1143 15.1 28.0514 14.9743 28.0057 14.8029C27.9714 14.6543 27.9143 14.4658 27.8343 14.2372C27.7543 13.9972 27.6685 13.7629 27.5771 13.5343C27.4971 13.3058 27.4171 13.1286 27.3371 13.0029C27.2914 12.9344 27.24 12.8715 27.1828 12.8144C27.1257 12.7458 27.0686 12.6829 27.0114 12.6258C26.92 12.5229 26.7657 12.4544 26.5486 12.4201C26.3314 12.3744 26.1086 12.3515 25.88 12.3515C25.6514 12.3401 25.4686 12.3344 25.3314 12.3344C25.24 12.3344 25.1429 12.3401 25.04 12.3515C24.9372 12.3515 24.84 12.3687 24.7486 12.4029C24.5543 12.4829 24.4515 12.6315 24.44 12.8486C24.4286 13.1001 24.4229 13.3515 24.4229 13.6029C24.4229 13.8429 24.4229 14.0886 24.4229 14.34V16.0029C24.4229 17.18 24.4229 18.3571 24.4229 19.5342C24.4343 20.7114 24.44 21.8885 24.44 23.0656C24.44 23.1799 24.4515 23.3228 24.4743 23.4942C24.5086 23.6542 24.6115 23.7342 24.7829 23.7342C24.9543 23.7342 25.12 23.7285 25.28 23.717C25.4514 23.7056 25.6229 23.6999 25.7943 23.6999C25.8857 23.6999 25.96 23.7342 26.0171 23.8028C26.0857 23.8713 26.12 23.9513 26.12 24.0427C26.12 24.1342 26.0857 24.2142 26.0171 24.2827C25.9486 24.3399 25.8686 24.3685 25.7771 24.3685C25.6514 24.3685 25.52 24.357 25.3829 24.3342C25.2572 24.3227 25.1314 24.3113 25.0057 24.2999C24.8457 24.2885 24.6857 24.2827 24.5257 24.2827C24.3657 24.2827 24.2057 24.2827 24.0457 24.2827C23.6229 24.2827 23.1886 24.2827 22.7429 24.2827C22.2972 24.2827 21.8572 24.2942 21.4229 24.317C21.2858 24.3285 21.1429 24.3399 20.9944 24.3513C20.8572 24.3627 20.7201 24.3685 20.5829 24.3685C20.3315 24.3685 20.2058 24.2427 20.2058 23.9913C20.2058 23.8542 20.263 23.7742 20.3772 23.7513C20.5029 23.717 20.6172 23.6999 20.7201 23.6999C20.8344 23.6999 20.9429 23.7056 21.0458 23.717C21.1601 23.7285 21.2744 23.7342 21.3886 23.7342C21.6744 23.7342 21.8286 23.6599 21.8515 23.5113C21.8858 23.3628 21.9029 23.1799 21.9029 22.9628V13.1058C21.9029 12.8201 21.8744 12.6315 21.8172 12.5401C21.7715 12.4372 21.6744 12.3801 21.5258 12.3687C21.3886 12.3572 21.1887 12.3515 20.9258 12.3515H20.2744C20.1487 12.3515 20.0001 12.3572 19.8287 12.3687C19.6572 12.3801 19.5087 12.4201 19.383 12.4887C19.0973 12.6372 18.9087 12.8772 18.8173 13.2086C18.7373 13.4715 18.6515 13.7401 18.5601 14.0143C18.4687 14.2772 18.3773 14.54 18.2858 14.8029C18.2287 14.9743 18.1601 15.1 18.0801 15.18C18.0116 15.2486 17.8801 15.2829 17.6859 15.2829C17.4344 15.2829 17.3087 15.1629 17.3087 14.9229C17.3087 14.9 17.3087 14.8829 17.3087 14.8715C17.3201 14.8486 17.3259 14.8258 17.3259 14.8029C17.3487 14.7115 17.3601 14.62 17.3601 14.5286C17.3601 14.4258 17.3659 14.3286 17.3773 14.2372C17.4001 14.0086 17.423 13.7801 17.4459 13.5515C17.4801 13.3115 17.503 13.0772 17.5144 12.8486C17.5259 12.6772 17.5259 12.4944 17.5144 12.3001C17.503 12.1058 17.5201 11.9229 17.5659 11.7515C17.5773 11.6601 17.6344 11.6144 17.7373 11.6144C17.8744 11.6144 18.0058 11.6315 18.1316 11.6658C18.2687 11.7001 18.4001 11.7287 18.5258 11.7515C18.663 11.7744 18.8001 11.7858 18.9373 11.7858C19.0858 11.7858 19.2287 11.7915 19.3658 11.8029C19.9487 11.8144 20.5829 11.8258 21.2686 11.8372C21.9544 11.8372 22.5886 11.8372 23.1715 11.8372C23.8457 11.8372 24.5543 11.8315 25.2972 11.8201C26.04 11.8087 26.7428 11.8029 27.4057 11.8029C27.4628 11.8029 27.5257 11.8029 27.5943 11.8029C27.6743 11.8029 27.7428 11.7972 27.8 11.7858C27.9257 11.7629 28.0514 11.7287 28.1771 11.6829C28.3028 11.6372 28.4285 11.6144 28.5542 11.6144C28.6457 11.6144 28.7028 11.6544 28.7257 11.7344C28.76 11.9515 28.7828 12.1744 28.7942 12.4029C28.8171 12.6315 28.8342 12.8544 28.8457 13.0715C28.88 13.3572 28.9142 13.6486 28.9485 13.9458C28.9828 14.2315 29 14.5172 29 14.8029Z" fill="#0C0C0C"/>
</svg>
