<svg width="36" height="36" viewBox="0 0 36 36" fill="none" xmlns="http://www.w3.org/2000/svg">
<mask id="path-1-inside-1_9_2228" fill="white">
<path d="M1.00871e-09 18C7.8474e-05 6.75 3.21436 8.78424e-06 18 0C32.7856 -8.78422e-06 36 5.94643 36 18C36 30.8571 30.5358 36 18 36C6.91071 36 -9.64087e-05 31.8214 1.00871e-09 18Z"/>
</mask>
<path d="M1.00871e-09 18C7.8474e-05 6.75 3.21436 8.78424e-06 18 0C32.7856 -8.78422e-06 36 5.94643 36 18C36 30.8571 30.5358 36 18 36C6.91071 36 -9.64087e-05 31.8214 1.00871e-09 18Z" fill="#232128"/>
<path d="M1.00871e-09 18L1 18L1.00871e-09 18ZM1.00871e-09 18L1 18C1.00004 12.4188 1.81003 8.23746 4.21467 5.43204C6.5888 2.66223 10.7301 1 18 1V0V-1C10.4842 -0.999996 5.6256 0.712782 2.69616 4.13046C-0.202768 7.51254 -0.99996 12.3312 -1 18L1.00871e-09 18ZM18 0V1C25.3037 0.999996 29.4342 2.47694 31.7961 5.14302C34.1841 7.83854 35 12.0002 35 18H36H37C37 11.9462 36.2087 7.10788 33.2931 3.81679C30.3514 0.496269 25.4819 -1 18 -1V0ZM36 18H35C35 24.3159 33.6537 28.4908 30.9987 31.1095C28.3409 33.7309 24.1622 35 18 35V36V37C24.3736 37 29.1949 35.6977 32.4031 32.5334C35.6142 29.3663 37 24.5413 37 18H36ZM18 36V35C12.5482 35 8.34866 33.9666 5.50644 31.4362C2.68833 28.9271 0.999953 24.7587 1 18L1.00871e-09 18L-1 18C-1.00005 25.0627 0.766929 29.8943 4.17652 32.9299C7.562 35.9441 12.3625 37 18 37V36Z" fill="white" fill-opacity="0.09" mask="url(#path-1-inside-1_9_2228)"/>
<path d="M11.2811 24.0394L8.07886 11.7823H11.3066L12.963 19.8857H13.0309L15.0186 11.7823H17.6263L19.6139 19.8857H19.6903L21.3382 11.7823H24.5575L21.3552 24.0394H18.3058L16.3521 16.6665H16.2842L14.339 24.0394H11.2811Z" fill="white"/>
<path d="M26.3073 24.2178C25.8542 24.2178 25.472 24.062 25.1606 23.7506C24.8548 23.4391 24.7019 23.0597 24.7019 22.6124C24.7019 22.1593 24.8548 21.7799 25.1606 21.4741C25.472 21.1627 25.8542 21.007 26.3073 21.007C26.7659 21.007 27.1482 21.1627 27.454 21.4741C27.7654 21.7799 27.9211 22.1593 27.9211 22.6124C27.9211 23.0597 27.7654 23.4391 27.454 23.7506C27.1482 24.062 26.7659 24.2178 26.3073 24.2178Z" fill="white"/>
</svg>
