<svg width="36" height="36" viewBox="0 0 36 36" fill="none" xmlns="http://www.w3.org/2000/svg">
<mask id="path-1-inside-1_2_232" fill="white">
<path d="M1.00871e-09 18C7.8474e-05 6.75 3.21436 8.78424e-06 18 0C32.7856 -8.78422e-06 36 5.94643 36 18C36 30.8571 30.5358 36 18 36C6.91071 36 -9.64087e-05 31.8214 1.00871e-09 18Z"/>
</mask>
<path d="M1.00871e-09 18C7.8474e-05 6.75 3.21436 8.78424e-06 18 0C32.7856 -8.78422e-06 36 5.94643 36 18C36 30.8571 30.5358 36 18 36C6.91071 36 -9.64087e-05 31.8214 1.00871e-09 18Z" fill="#232128"/>
<path d="M1.00871e-09 18L1 18L1.00871e-09 18ZM1.00871e-09 18L1 18C1.00004 12.4188 1.81003 8.23746 4.21467 5.43204C6.5888 2.66223 10.7301 1 18 1V0V-1C10.4842 -0.999996 5.6256 0.712782 2.69616 4.13046C-0.202768 7.51254 -0.99996 12.3312 -1 18L1.00871e-09 18ZM18 0V1C25.3037 0.999996 29.4342 2.47694 31.7961 5.14302C34.1841 7.83854 35 12.0002 35 18H36H37C37 11.9462 36.2087 7.10788 33.2931 3.81679C30.3514 0.496269 25.4819 -1 18 -1V0ZM36 18H35C35 24.3159 33.6537 28.4908 30.9987 31.1095C28.3409 33.7309 24.1622 35 18 35V36V37C24.3736 37 29.1949 35.6977 32.4031 32.5334C35.6142 29.3663 37 24.5413 37 18H36ZM18 36V35C12.5482 35 8.34866 33.9666 5.50644 31.4362C2.68833 28.9271 0.999953 24.7587 1 18L1.00871e-09 18L-1 18C-1.00005 25.0627 0.766929 29.8943 4.17652 32.9299C7.562 35.9441 12.3625 37 18 37V36Z" fill="white" fill-opacity="0.09" mask="url(#path-1-inside-1_2_232)"/>
<path d="M27.9379 17.0745C27.9379 22.5631 23.4885 26.4524 18 26.4524C12.5114 26.4524 8.06201 22.5631 8.06201 17.0745C8.06201 11.5859 12.5114 7.13654 18 7.13654C23.4885 7.13654 27.9379 11.5859 27.9379 17.0745Z" fill="white"/>
<path d="M18 7.13654C12.5092 7.13654 8.06201 11.5838 8.06201 17.0745C8.06089 19.1607 8.71674 21.1944 9.93652 22.8869C11.1563 24.5794 12.8781 25.8448 14.8576 26.5036C15.3545 26.5901 15.5403 26.2919 15.5403 26.0306C15.5403 25.795 15.5274 25.0129 15.5274 24.1801C13.031 24.6402 12.385 23.5719 12.1863 23.0124C12.074 22.7262 11.59 21.8447 11.1676 21.6082C10.8198 21.4223 10.3229 20.9622 11.1547 20.9503C11.9378 20.9374 12.4963 21.6708 12.6832 21.9689C13.5776 23.4715 15.0067 23.0492 15.5771 22.7888C15.6645 22.1428 15.9249 21.7085 16.2111 21.4601C13.9999 21.2117 11.6894 20.354 11.6894 16.5527C11.6894 15.4715 12.074 14.5781 12.708 13.8814C12.6086 13.633 12.2608 12.6143 12.8074 11.2479C12.8074 11.2479 13.6392 10.9875 15.5403 12.2675C16.3493 12.043 17.1852 11.9299 18.0248 11.9316C18.8695 11.9316 19.7143 12.0429 20.5093 12.2665C22.4094 10.9746 23.2422 11.2489 23.2422 11.2489C23.7888 12.6153 23.441 13.634 23.3416 13.8824C23.9747 14.5781 24.3602 15.4596 24.3602 16.5527C24.3602 20.3669 22.0377 21.2117 19.8266 21.4601C20.1863 21.7702 20.4974 22.3664 20.4974 23.2986C20.4974 24.6273 20.4844 25.6957 20.4844 26.0316C20.4844 26.2919 20.6713 26.602 21.1682 26.5026C23.1409 25.8366 24.8551 24.5687 26.0695 22.8774C27.2839 21.1861 27.9373 19.1566 27.9379 17.0745C27.9379 11.5838 23.4907 7.13654 18 7.13654Z" fill="#2A2834"/>
</svg>
