<svg width="36" height="36" viewBox="0 0 36 36" fill="none" xmlns="http://www.w3.org/2000/svg">
<mask id="path-1-inside-1_11_3153" fill="white">
<path d="M1.00871e-09 18C7.8474e-05 6.75 3.21436 8.78424e-06 18 0C32.7856 -8.78422e-06 36 5.94643 36 18C36 30.8571 30.5358 36 18 36C6.91071 36 -9.64087e-05 31.8214 1.00871e-09 18Z"/>
</mask>
<path d="M1.00871e-09 18C7.8474e-05 6.75 3.21436 8.78424e-06 18 0C32.7856 -8.78422e-06 36 5.94643 36 18C36 30.8571 30.5358 36 18 36C6.91071 36 -9.64087e-05 31.8214 1.00871e-09 18Z" fill="#232128"/>
<path d="M1.00871e-09 18L1 18L1.00871e-09 18ZM1.00871e-09 18L1 18C1.00004 12.4188 1.81003 8.23746 4.21467 5.43204C6.5888 2.66223 10.7301 1 18 1V0V-1C10.4842 -0.999996 5.6256 0.712782 2.69616 4.13046C-0.202768 7.51254 -0.99996 12.3312 -1 18L1.00871e-09 18ZM18 0V1C25.3037 0.999996 29.4342 2.47694 31.7961 5.14302C34.1841 7.83854 35 12.0002 35 18H36H37C37 11.9462 36.2087 7.10788 33.2931 3.81679C30.3514 0.496269 25.4819 -1 18 -1V0ZM36 18H35C35 24.3159 33.6537 28.4908 30.9987 31.1095C28.3409 33.7309 24.1622 35 18 35V36V37C24.3736 37 29.1949 35.6977 32.4031 32.5334C35.6142 29.3663 37 24.5413 37 18H36ZM18 36V35C12.5482 35 8.34866 33.9666 5.50644 31.4362C2.68833 28.9271 0.999953 24.7587 1 18L1.00871e-09 18L-1 18C-1.00005 25.0627 0.766929 29.8943 4.17652 32.9299C7.562 35.9441 12.3625 37 18 37V36Z" fill="white" fill-opacity="0.09" mask="url(#path-1-inside-1_11_3153)"/>
<path d="M22.1238 18.3794C22.4222 18.3794 22.7084 18.498 22.9195 18.709C23.1305 18.92 23.249 19.2063 23.249 19.5047C23.249 19.8032 23.1305 20.0894 22.9195 20.3004C22.7084 20.5114 22.4222 20.63 22.1238 20.63C21.8253 20.63 21.5391 20.5114 21.3281 20.3004C21.117 20.0894 20.9985 19.8032 20.9985 19.5047C20.9985 19.2063 21.117 18.92 21.3281 18.709C21.5391 18.498 21.8253 18.3794 22.1238 18.3794ZM23.3076 15.3081L17.1455 12.4334C15.5587 12.6345 14.095 13.3928 13.0154 14.573C11.9358 15.7531 11.3106 17.2784 11.2513 18.8768L17.6451 15.4664C17.7595 15.4056 17.8876 15.3753 18.0171 15.3787C18.1466 15.382 18.273 15.4188 18.384 15.4855C18.495 15.5522 18.5869 15.6465 18.6507 15.7593C18.7145 15.872 18.748 15.9993 18.7479 16.1289V25.8393C20.0508 25.6983 21.2839 25.1792 22.2955 24.3461C23.307 23.513 24.0529 22.4023 24.4411 21.1506C24.471 21.0565 24.5191 20.9692 24.5827 20.8936C24.6463 20.8181 24.7241 20.7558 24.8118 20.7103C24.8994 20.6649 24.9952 20.6372 25.0936 20.6287C25.192 20.6203 25.2911 20.6313 25.3852 20.6611C25.4793 20.691 25.5667 20.7391 25.6422 20.8027C25.7178 20.8663 25.78 20.9441 25.8255 21.0318C25.871 21.1195 25.8987 21.2152 25.9071 21.3136C25.9156 21.412 25.9046 21.5111 25.8747 21.6052C25.5259 22.71 24.9483 23.7289 24.1797 24.5957C23.411 25.4625 22.4685 26.1578 21.4134 26.6362C20.3583 27.1147 19.2143 27.3657 18.0558 27.3729C16.8973 27.38 15.7503 27.1432 14.6894 26.6777C13.6285 26.2123 12.6775 25.5288 11.8982 24.6715C11.1189 23.8143 10.5288 22.8025 10.1664 21.7022C9.80392 20.6018 9.67719 19.4375 9.79444 18.2849C9.91169 17.1324 10.2703 16.0174 10.8469 15.0126C10.1709 14.6692 9.63017 14.1082 9.31186 13.42C8.99356 12.7318 8.91621 11.9565 9.09227 11.2189C9.26833 10.4814 9.68755 9.82465 10.2824 9.35445C10.8772 8.88424 11.613 8.62798 12.3713 8.62695C12.4808 8.62695 12.5888 8.65096 12.6879 8.69747L23.7772 13.8715C24.2586 13.8306 24.7056 13.6055 25.0251 13.2431C25.3446 12.8807 25.5119 12.4089 25.4922 11.9262C25.4725 11.4435 25.2672 10.987 24.9192 10.6519C24.5712 10.3167 24.1073 10.1288 23.6241 10.1273C23.4252 10.1273 23.2344 10.0483 23.0937 9.90761C22.953 9.76692 22.874 9.57611 22.874 9.37714C22.874 9.17818 22.953 8.98737 23.0937 8.84668C23.2344 8.70599 23.4252 8.62695 23.6241 8.62695C24.5195 8.62695 25.3781 8.98262 26.0112 9.61572C26.6443 10.2488 27 11.1075 27 12.0028C27 12.8981 26.6443 13.7568 26.0112 14.3899C25.3781 15.023 24.5195 15.3787 23.6241 15.3787C23.5146 15.3787 23.4066 15.3547 23.3076 15.3081ZM14.2468 24.741V18.9796L11.3878 20.504C11.7501 22.2358 12.7764 23.7568 14.2468 24.741ZM17.2475 17.3794L15.7471 18.1806V25.495C16.2325 25.6675 16.7359 25.7823 17.2475 25.8386V17.3787V17.3794ZM15.009 11.4402L12.2182 10.1341C11.7929 10.1702 11.3926 10.3503 11.0834 10.6446C10.7743 10.939 10.5748 11.33 10.518 11.7531C10.4612 12.1762 10.5503 12.606 10.7708 12.9715C10.9913 13.3371 11.3299 13.6164 11.7306 13.7635C11.7869 13.6975 11.8432 13.6307 11.9032 13.5662C12.7608 12.6277 13.8237 11.9001 15.009 11.4402Z" fill="white"/>
</svg>
