<svg width="36" height="36" viewBox="0 0 36 36" fill="none" xmlns="http://www.w3.org/2000/svg">
<mask id="path-1-inside-1_9_2211" fill="white">
<path d="M1.00871e-09 18C7.8474e-05 6.75 3.21436 8.78424e-06 18 0C32.7856 -8.78422e-06 36 5.94643 36 18C36 30.8571 30.5358 36 18 36C6.91071 36 -9.64087e-05 31.8214 1.00871e-09 18Z"/>
</mask>
<path d="M1.00871e-09 18C7.8474e-05 6.75 3.21436 8.78424e-06 18 0C32.7856 -8.78422e-06 36 5.94643 36 18C36 30.8571 30.5358 36 18 36C6.91071 36 -9.64087e-05 31.8214 1.00871e-09 18Z" fill="#FFEF00"/>
<path d="M1.00871e-09 18L1 18L1.00871e-09 18ZM1.00871e-09 18L1 18C1.00004 12.4188 1.81003 8.23746 4.21467 5.43204C6.5888 2.66223 10.7301 1 18 1V0V-1C10.4842 -0.999996 5.6256 0.712782 2.69616 4.13046C-0.202768 7.51254 -0.99996 12.3312 -1 18L1.00871e-09 18ZM18 0V1C25.3037 0.999996 29.4342 2.47694 31.7961 5.14302C34.1841 7.83854 35 12.0002 35 18H36H37C37 11.9462 36.2087 7.10788 33.2931 3.81679C30.3514 0.496269 25.4819 -1 18 -1V0ZM36 18H35C35 24.3159 33.6537 28.4908 30.9987 31.1095C28.3409 33.7309 24.1622 35 18 35V36V37C24.3736 37 29.1949 35.6977 32.4031 32.5334C35.6142 29.3663 37 24.5413 37 18H36ZM18 36V35C12.5482 35 8.34866 33.9666 5.50644 31.4362C2.68833 28.9271 0.999953 24.7587 1 18L1.00871e-09 18L-1 18C-1.00005 25.0627 0.766929 29.8943 4.17652 32.9299C7.562 35.9441 12.3625 37 18 37V36Z" fill="white" fill-opacity="0.09" mask="url(#path-1-inside-1_9_2211)"/>
<path d="M26.1697 17.2669C25.6604 17.5491 24.9324 17.6893 24.3247 17.7587C25.2886 16.9396 26.2243 16.0061 26.6027 14.8319C27.116 13.239 27.1316 11.7623 26.6514 10.1851C26.6097 10.048 26.4931 9.9468 26.3512 9.9246C26.2081 9.89974 26.0676 9.96221 25.9851 10.079C24.7117 11.8927 23.0278 13.0494 21.1875 13.3914C21.7375 12.2847 22.3442 11.0356 22.2133 9.72985C22.1987 9.58547 22.1023 9.46227 21.9645 9.41416C21.8276 9.36627 21.6746 9.40132 21.5725 9.50513C19.6215 11.4919 18.0641 11.9112 16.1834 11.9435C14.1068 11.9793 12.1236 12.9368 10.7432 14.5707C9.37409 16.1906 8.76804 18.2801 9.0805 20.3034C9.5825 23.559 12.012 25.9955 15.2702 26.5103C15.6813 26.5753 16.0889 26.607 16.4902 26.607C19.1662 26.607 21.5675 25.1917 22.9396 22.733C23.096 22.4534 23.3528 22.1788 23.6441 21.9792C24.9688 21.0728 25.9271 19.8996 26.4914 18.4912C26.5693 18.2966 26.6266 18.0568 26.6766 17.8453L26.7154 17.6857C26.7522 17.5411 26.6988 17.3882 26.5802 17.2974C26.4616 17.2066 26.3002 17.195 26.1697 17.2669ZM9.84961 19.7502C10.1641 20.7389 12.0968 21.0699 12.0968 21.0699C10.4835 22.8033 9.84961 19.7502 9.84961 19.7502ZM14.517 21.0699C14.517 21.0699 18.4614 20.6139 20.033 19.255C20.033 19.255 17.744 24.4744 14.517 21.0699Z" fill="#0D0D0D"/>
</svg>
