<svg width="36" height="36" viewBox="0 0 36 36" fill="none" xmlns="http://www.w3.org/2000/svg">
<path d="M1.00871e-09 18C7.8474e-05 6.75 3.21436 8.78424e-06 18 0C32.7856 -8.78422e-06 36 5.94643 36 18C36 30.8571 30.5358 36 18 36C6.91071 36 -9.64087e-05 31.8214 1.00871e-09 18Z" fill="#FF000E"/>
<path d="M16.5 21V15.75L21 18.384L16.5 21ZM26.82 14.7502C26.82 14.7502 26.6438 13.5015 26.1045 12.951C25.4198 12.2287 24.6525 12.2257 24.3008 12.1837C21.7823 12 18.0037 12 18.0037 12H17.9963C17.9963 12 14.2178 12 11.6992 12.1837C11.3467 12.2257 10.5803 12.2287 9.89475 12.951C9.3555 13.5015 9.18 14.751 9.18 14.751C9.18 14.751 9 16.2165 9 17.6828V19.059C9 20.526 9.18 21.993 9.18 21.993C9.18 21.993 9.3555 23.2417 9.89475 23.7922C10.5803 24.5145 11.4795 24.4913 11.88 24.567C13.32 24.7072 18 24.75 18 24.75C18 24.75 21.7823 24.744 24.3008 24.561C24.6533 24.5182 25.4198 24.5152 26.1045 23.793C26.6445 23.2425 26.82 21.993 26.82 21.993C26.82 21.993 27 20.5268 27 19.0598V17.6842C27 16.2172 26.82 14.7502 26.82 14.7502Z" fill="white"/>
</svg>
