<svg width="36" height="36" viewBox="0 0 36 36" fill="none" xmlns="http://www.w3.org/2000/svg">
<path d="M1.00871e-09 18C7.8474e-05 6.75 3.21436 8.78424e-06 18 0C32.7856 -8.78422e-06 36 5.94643 36 18C36 30.8571 30.5358 36 18 36C6.91071 36 -9.64087e-05 31.8214 1.00871e-09 18Z" fill="#2FB7AE"/>
<g clip-path="url(#clip0_10_2761)">
<path d="M22.0334 17.7135H18.4146V18.7145H18.8992V23.8249L18.3434 23.9098L18.5252 24.94L20.6241 24.524V26.1382H21.5822V24.3258L22.0754 24.2263L22.0239 23.2657L21.583 23.3403V18.7136H22.0334V17.7127V17.7135ZM20.6241 18.7145V19.7043H19.8435V18.7136H20.6241V18.7145ZM20.6241 21.6111H19.8435V20.6213H20.6241V21.6111ZM19.8435 22.5229H20.6241V23.5136L19.8435 23.6568V22.5229ZM26.8959 22.7605V21.8538H21.8026V22.7605H22.9005C22.7676 23.258 22.614 23.7486 22.4399 24.2315H25.3631C25.2988 24.6844 25.2139 24.958 25.1092 25.0549C25.0083 25.1202 24.8883 25.1495 24.7687 25.1381C24.405 25.1381 24.0422 25.1184 23.6811 25.0781C23.7797 25.2299 23.8569 25.3954 23.9109 25.5687C23.9624 25.7377 23.9967 25.9127 24.0113 26.0885C24.4127 26.1099 24.8142 26.1065 25.2139 26.0799C25.3597 26.0739 25.5029 26.0405 25.6359 25.9804C25.7597 25.9364 25.8701 25.8614 25.9567 25.7626C26.0785 25.6305 26.1745 25.4092 26.244 25.0987C26.3709 24.5257 26.4464 23.9424 26.4696 23.3549H23.8012L23.9684 22.7605H26.8959ZM24.8407 17.3567H23.8492V18.1089H22.1715V21.4284H26.5228V18.1089H24.8416V17.3567H24.8407ZM25.5355 18.8818V19.4118H24.8407V18.8818H25.5355ZM23.8492 18.8818V19.4118H23.1055V18.8818H23.8492ZM24.8407 20.6556V20.1349H25.5355V20.6556H24.8407ZM23.8492 20.1349V20.6556H23.1055V20.1349H23.8492ZM13.7716 17.4511L12.5605 17.3267L12.5176 18.0215H9.22902V19.0121H12.3966L12.3246 19.4925H10.188V24.8817H9V25.8912H17.3424V24.8808H16.1724V19.4968H13.3933L13.4894 19.0156H17.1074V18.0257H13.6764L13.7716 17.4511ZM15.0702 21.7406V22.2124H11.2387V21.7406H15.0711H15.0702ZM15.0702 20.4231V20.9189H11.2387V20.4231H15.0711H15.0702ZM11.2387 23.5333V23.0332H15.0711V23.5333H11.2387ZM11.2387 24.8799V24.355H15.0711V24.8808H11.2387V24.8799ZM22.4691 10.5462C22.3634 10.4368 22.248 10.3372 22.1243 10.2486C22.0008 10.1618 21.8671 10.0903 21.7263 10.0359C21.59 9.97341 21.4469 9.92678 21.3 9.89694C21.1517 9.86711 21.0009 9.85189 20.8497 9.85148C20.6034 9.85 20.3586 9.89031 20.1257 9.97071C19.9199 10.0436 19.7278 10.1568 19.5596 10.3027C19.4061 10.4399 19.2809 10.6089 19.1917 10.7976C19.1059 10.9914 19.0613 11.2033 19.0621 11.4169C19.0604 11.5953 19.0896 11.7737 19.1479 11.9418C19.2028 12.0919 19.2834 12.2308 19.3829 12.3535C19.4824 12.4684 19.5948 12.5697 19.7183 12.6554C19.8444 12.7369 19.9756 12.8073 20.1112 12.8682L20.8016 13.1752C20.9955 13.255 21.1833 13.3511 21.3617 13.4626C21.4242 13.5165 21.4775 13.5803 21.5196 13.6513C21.5559 13.7311 21.5752 13.8177 21.5761 13.9055C21.577 13.9932 21.5595 14.0802 21.5247 14.1608C21.489 14.2404 21.4328 14.3091 21.3617 14.3598C21.2854 14.4202 21.1971 14.4637 21.1027 14.4876C20.9886 14.5184 20.8711 14.5339 20.7528 14.5322C20.5116 14.5281 20.2743 14.4707 20.058 14.364C19.8287 14.2566 19.6184 14.1126 19.4353 13.9378L18.8417 14.6754C18.9669 14.8015 19.1033 14.9139 19.2491 15.0125C19.5425 15.2081 19.8693 15.3436 20.2115 15.4139C20.3831 15.4465 20.5555 15.4637 20.7296 15.4637C21.0015 15.4668 21.2719 15.4233 21.529 15.335C21.7503 15.2578 21.9536 15.1377 22.1286 14.9782C22.2915 14.8339 22.4194 14.6544 22.5025 14.4533C22.5883 14.2568 22.6329 14.0441 22.6321 13.8297C22.6337 13.6534 22.6076 13.478 22.5549 13.3099C22.5114 13.1628 22.4416 13.0247 22.349 12.9025C22.253 12.7841 22.14 12.6806 22.0136 12.5954C21.8807 12.501 21.7374 12.4238 21.5873 12.3629L20.9071 12.0602C20.7096 11.9871 20.52 11.8942 20.341 11.7831C20.2688 11.738 20.2096 11.6747 20.1695 11.5996C20.1241 11.5268 20.1003 11.4426 20.1009 11.3568C20.0978 11.2757 20.1146 11.195 20.1497 11.1217C20.1848 11.0485 20.2372 10.9849 20.3024 10.9365C20.4646 10.825 20.6558 10.7718 20.8497 10.7821C21.0495 10.7813 21.2485 10.8216 21.4338 10.9022C21.6216 10.9803 21.794 11.0909 21.9467 11.2282L22.4699 10.5505V10.5462H22.4691ZM12.6282 11.2882C12.6344 11.0696 12.5842 10.8531 12.4824 10.6595C12.3933 10.4877 12.257 10.3448 12.0896 10.2478C11.907 10.1378 11.7058 10.0623 11.496 10.0247C11.2508 9.97929 11.0017 9.95775 10.7524 9.96041H9.04289V15.3599H10.887C11.1546 15.3625 11.4223 15.329 11.683 15.2604C11.9077 15.2038 12.123 15.106 12.3152 14.9688C12.4961 14.8444 12.6437 14.6737 12.7415 14.473C12.7929 14.3701 12.8315 14.2594 12.8564 14.1462C12.8821 14.0218 12.895 13.8966 12.8941 13.7696C12.8958 13.6016 12.87 13.4344 12.8178 13.2747C12.7748 13.139 12.7064 13.0126 12.6162 12.9025C12.5293 12.8001 12.4258 12.7132 12.31 12.6451C12.1893 12.5737 12.0586 12.5205 11.9223 12.4873V12.4521C12.0304 12.411 12.1308 12.3509 12.2191 12.2737C12.3049 12.1905 12.3795 12.0953 12.4395 11.9907C12.5613 11.7762 12.6257 11.5326 12.6265 11.283V11.2882H12.6282ZM11.0997 10.8182C11.2018 10.837 11.2996 10.8782 11.3871 10.9365C11.4626 10.9837 11.5243 11.0532 11.5646 11.1338C11.602 11.2306 11.6198 11.3338 11.617 11.4374C11.6183 11.5388 11.6005 11.6394 11.5646 11.7342C11.5284 11.8216 11.4705 11.8983 11.3965 11.9572C11.3065 12.0216 11.2061 12.07 11.0997 12.1005C10.962 12.136 10.82 12.1527 10.6777 12.1502H10.0739V10.7736H10.6975C10.8326 10.7719 10.9675 10.7852 11.0997 10.813V10.8182ZM10.073 12.9522H10.7918C10.9514 12.9505 11.11 12.9659 11.2661 12.9977C11.3862 13.0174 11.502 13.0611 11.6067 13.1263C11.6967 13.1804 11.7696 13.2619 11.8125 13.3596C11.8666 13.4626 11.8932 13.5784 11.8897 13.6959C11.8917 13.8225 11.8654 13.9479 11.8125 14.063C11.7657 14.1641 11.6951 14.2525 11.6067 14.3203C11.5032 14.3913 11.3879 14.4433 11.2661 14.4738C11.1105 14.509 10.9513 14.5257 10.7918 14.5236H10.073V12.9522ZM14.9184 10.0419C14.7794 10.1002 14.6487 10.1766 14.5298 10.2692C14.4052 10.362 14.2913 10.4685 14.1902 10.5866C14.0853 10.7084 13.9936 10.8409 13.9166 10.982C13.8339 11.1336 13.7667 11.293 13.7159 11.458C13.6601 11.6382 13.6181 11.8209 13.5915 12.0078C13.5325 12.4232 13.5325 12.8448 13.5915 13.2601C13.6181 13.4488 13.6601 13.635 13.7159 13.8151C13.7682 13.9841 13.8359 14.1462 13.9166 14.3014C13.9955 14.4447 14.0881 14.5811 14.1902 14.7071C14.2905 14.8281 14.4046 14.9362 14.5298 15.0288C14.6499 15.1231 14.7812 15.2029 14.9184 15.2672C15.0616 15.3342 15.2135 15.3822 15.3687 15.4113C15.6947 15.4765 16.0292 15.4765 16.3551 15.4113C16.5104 15.3813 16.6622 15.3342 16.8063 15.2672C16.941 15.2021 17.0705 15.1231 17.1888 15.0288C17.3132 14.9344 17.4273 14.8264 17.5302 14.7071C17.6305 14.5795 17.72 14.4438 17.7978 14.3014C17.8819 14.147 17.9514 13.9841 18.0037 13.8151C18.0603 13.635 18.1015 13.4488 18.1289 13.261C18.1871 12.8453 18.1871 12.4235 18.1289 12.0078C18.1019 11.823 18.0603 11.6406 18.0046 11.4623C17.9522 11.2956 17.8829 11.1346 17.7978 10.982C17.7199 10.8429 17.6304 10.7106 17.5302 10.5866C17.4256 10.4716 17.3117 10.3655 17.1897 10.2692C17.0712 10.1794 16.9422 10.1045 16.8054 10.0462C16.6625 9.97717 16.5111 9.92728 16.3551 9.8978C16.0287 9.83869 15.6943 9.83869 15.3679 9.8978C15.2126 9.9261 15.0608 9.97499 14.9175 10.0419H14.9184ZM14.601 12.6366C14.5982 12.373 14.6288 12.1102 14.692 11.8543C14.7417 11.6476 14.8277 11.4512 14.9459 11.2745C15.043 11.1213 15.1777 10.9954 15.3371 10.9088C15.4965 10.8222 15.6754 10.7777 15.8568 10.7796C16.0404 10.7774 16.2215 10.8216 16.3834 10.9082C16.5412 10.9957 16.6759 11.1209 16.7771 11.2745C16.8953 11.4512 16.9813 11.6476 17.031 11.8543C17.0911 12.1108 17.1194 12.3741 17.1168 12.6366C17.1194 12.9007 17.0902 13.1641 17.031 13.4197C16.9796 13.6333 16.8938 13.8357 16.7771 14.0192C16.6759 14.1736 16.5404 14.3023 16.3834 14.3949C16.2225 14.4847 16.041 14.5311 15.8568 14.5296C15.6753 14.5305 15.4968 14.484 15.3387 14.3949C15.1807 14.3014 15.0463 14.1729 14.9459 14.0192C14.8286 13.8348 14.7428 13.6322 14.692 13.4197C14.6291 13.1635 14.5985 12.9004 14.601 12.6366ZM26.0862 10.0376C25.9503 9.9739 25.8071 9.92695 25.6599 9.8978C25.2705 9.81839 24.8671 9.84385 24.4908 9.97156C24.2802 10.0458 24.0853 10.1586 23.9161 10.3044C23.7635 10.444 23.6397 10.6121 23.5516 10.7993C23.4658 10.9931 23.422 11.205 23.4229 11.4186C23.4212 11.597 23.4503 11.7754 23.5087 11.9435C23.5636 12.0936 23.6433 12.2326 23.7428 12.3552C23.8423 12.4702 23.9547 12.5714 24.0782 12.6571C24.2009 12.7386 24.3287 12.8098 24.4616 12.8699L25.1564 13.1769C25.352 13.2567 25.5389 13.3528 25.7173 13.4643C25.7798 13.5183 25.8331 13.582 25.8752 13.653C25.9155 13.7302 25.9352 13.8168 25.9326 13.9052C25.9335 13.9937 25.9157 14.0814 25.8803 14.1625C25.8424 14.2405 25.7866 14.3084 25.7173 14.3606C25.6405 14.42 25.5528 14.4637 25.4592 14.4893C25.3434 14.5203 25.2239 14.5353 25.1041 14.5339C24.8646 14.5293 24.6291 14.4719 24.4144 14.3658C24.184 14.2576 23.9721 14.1137 23.7866 13.9395L23.1922 14.6771C23.32 14.8024 23.4581 14.9147 23.6047 15.0142C23.7506 15.1129 23.9067 15.1961 24.0688 15.263C24.2317 15.3281 24.3973 15.3788 24.5671 15.4156C24.7387 15.4482 24.9111 15.4654 25.0852 15.4654C25.3571 15.4688 25.6273 15.4251 25.8855 15.3367C26.105 15.2595 26.3092 15.1386 26.4833 14.9799C26.6462 14.8356 26.7741 14.6561 26.8573 14.455C26.9431 14.2585 26.9885 14.0458 26.9877 13.8314C26.9893 13.6549 26.9633 13.4792 26.9105 13.3107C26.8642 13.165 26.7947 13.0277 26.7046 12.9042C26.6086 12.7858 26.4956 12.6823 26.3692 12.5971C26.2366 12.5034 26.0935 12.4254 25.9429 12.3647L25.2627 12.0619C25.0652 11.9888 24.8756 11.896 24.6966 11.7848C24.6244 11.7397 24.5652 11.6764 24.5251 11.6013C24.4797 11.5285 24.4559 11.4443 24.4565 11.3585C24.4535 11.2773 24.4704 11.1966 24.5057 11.1233C24.5409 11.0501 24.5935 10.9866 24.6589 10.9382C24.8202 10.8276 25.0114 10.7736 25.2044 10.7838C25.4051 10.783 25.6041 10.8233 25.7894 10.9039C25.9772 10.982 26.1497 11.0926 26.3023 11.2299L26.8247 10.5505C26.7187 10.4414 26.603 10.342 26.479 10.2538C26.357 10.1668 26.2255 10.094 26.087 10.0368L26.0862 10.0376Z" fill="white"/>
</g>
<defs>
<clipPath id="clip0_10_2761">
<rect width="18" height="18" fill="white" transform="translate(9 9)"/>
</clipPath>
</defs>
</svg>
