<svg width="36" height="36" viewBox="0 0 36 36" fill="none" xmlns="http://www.w3.org/2000/svg">
<mask id="path-1-inside-1_9_2315" fill="white">
<path d="M1.00871e-09 18C7.8474e-05 6.75 3.21436 8.78424e-06 18 0C32.7856 -8.78422e-06 36 5.94643 36 18C36 30.8571 30.5358 36 18 36C6.91071 36 -9.64087e-05 31.8214 1.00871e-09 18Z"/>
</mask>
<path d="M1.00871e-09 18C7.8474e-05 6.75 3.21436 8.78424e-06 18 0C32.7856 -8.78422e-06 36 5.94643 36 18C36 30.8571 30.5358 36 18 36C6.91071 36 -9.64087e-05 31.8214 1.00871e-09 18Z" fill="#232128"/>
<path d="M1.00871e-09 18L1 18L1.00871e-09 18ZM1.00871e-09 18L1 18C1.00004 12.4188 1.81003 8.23746 4.21467 5.43204C6.5888 2.66223 10.7301 1 18 1V0V-1C10.4842 -0.999996 5.6256 0.712782 2.69616 4.13046C-0.202768 7.51254 -0.99996 12.3312 -1 18L1.00871e-09 18ZM18 0V1C25.3037 0.999996 29.4342 2.47694 31.7961 5.14302C34.1841 7.83854 35 12.0002 35 18H36H37C37 11.9462 36.2087 7.10788 33.2931 3.81679C30.3514 0.496269 25.4819 -1 18 -1V0ZM36 18H35C35 24.3159 33.6537 28.4908 30.9987 31.1095C28.3409 33.7309 24.1622 35 18 35V36V37C24.3736 37 29.1949 35.6977 32.4031 32.5334C35.6142 29.3663 37 24.5413 37 18H36ZM18 36V35C12.5482 35 8.34866 33.9666 5.50644 31.4362C2.68833 28.9271 0.999953 24.7587 1 18L1.00871e-09 18L-1 18C-1.00005 25.0627 0.766929 29.8943 4.17652 32.9299C7.562 35.9441 12.3625 37 18 37V36Z" fill="white" fill-opacity="0.09" mask="url(#path-1-inside-1_9_2315)"/>
<g clip-path="url(#clip0_9_2315)">
<path d="M12.3441 12.1563C12.9038 12.6108 13.1136 12.5765 14.1649 12.5056L24.0761 11.911C24.2859 11.911 24.1115 11.7012 24.0417 11.6663L22.3948 10.4761C22.0798 10.2314 21.659 9.95129 20.8535 10.021L11.2573 10.7213C10.908 10.7557 10.8371 10.9312 10.9766 11.0707L12.3441 12.1563ZM12.9392 14.4659V24.894C12.9392 25.4543 13.2188 25.6641 13.8499 25.6292L24.7421 24.9992C25.3726 24.9649 25.4435 24.579 25.4435 24.124V13.7656C25.4435 13.3111 25.2686 13.0658 24.8827 13.1001L13.5 13.7656C13.0798 13.801 12.9398 14.0108 12.9398 14.4659H12.9392ZM23.6919 15.025C23.7616 15.34 23.6919 15.655 23.3769 15.691L22.8521 15.7962V23.494C22.3959 23.7392 21.9763 23.8793 21.6258 23.8793C21.065 23.8793 20.9244 23.7038 20.5048 23.1795L17.0719 17.7902V23.004L18.158 23.2498C18.158 23.2498 18.158 23.8798 17.2822 23.8798L14.8657 24.0193C14.796 23.8798 14.8657 23.5294 15.111 23.4596L15.741 23.2847V16.3902L14.8674 16.3199C14.7971 16.0049 14.9726 15.5504 15.462 15.5149L18.054 15.34L21.627 20.799V15.9689L20.7157 15.8648C20.646 15.4795 20.9255 15.1994 21.276 15.1651L23.6919 15.025ZM10.4518 9.77635L20.4345 9.04117C21.6601 8.93598 21.9757 9.00573 22.7458 9.56598L25.9323 11.8053C26.4571 12.19 26.6326 12.2952 26.6326 12.7148V24.9981C26.6326 25.7676 26.353 26.2238 25.3726 26.2924L13.779 26.9927C13.0438 27.0281 12.6928 26.9229 12.3075 26.4324L9.96077 23.3876C9.54058 22.8274 9.36621 22.4083 9.36621 21.9178V10.9992C9.36621 10.3698 9.6469 9.84442 10.4513 9.77523L10.4518 9.77635Z" fill="white"/>
</g>
<defs>
<clipPath id="clip0_9_2315">
<rect width="18" height="18" fill="white" transform="translate(9 9)"/>
</clipPath>
</defs>
</svg>
