<svg width="36" height="36" viewBox="0 0 36 36" fill="none" xmlns="http://www.w3.org/2000/svg">
<path d="M1.00871e-09 18C7.8474e-05 6.75 3.21436 8.78424e-06 18 0C32.7856 -8.78422e-06 36 5.94643 36 18C36 30.8571 30.5358 36 18 36C6.91071 36 -9.64087e-05 31.8214 1.00871e-09 18Z" fill="#3245DF"/>
<path d="M18.6235 10.0692V22.7232H16.308V11.1384H11.4948V22.829L12.564 21.119V13.099L15.0595 12.0298V20.9405L18.6235 27H15.9502L13.8118 23.7924L11.8512 26.8214H9L11.4502 22.9003H9V10.0706H18.6235V10.0692ZM26.3765 9V10.0692H27V10.9606H26.3765V27H23.7917V10.9606H23.2574L21.6533 27H19.1592L20.7634 10.9606H19.692V10.0692H23.7917L26.3765 9Z" fill="white"/>
</svg>
