<svg width="36" height="36" viewBox="0 0 36 36" fill="none" xmlns="http://www.w3.org/2000/svg">
<path d="M1.00871e-09 18C7.8474e-05 6.75 3.21436 8.78424e-06 18 0C32.7856 -8.78422e-06 36 5.94643 36 18C36 30.8571 30.5358 36 18 36C6.91071 36 -9.64087e-05 31.8214 1.00871e-09 18Z" fill="#4E77E2"/>
<path d="M20.0344 24.1178C20.0344 24.0531 20.036 23.9884 20.039 23.9246C19.3489 24.1688 18.622 24.2928 17.89 24.2914C17.0298 24.2933 16.178 24.1217 15.3857 23.7867C14.6207 23.4633 13.9257 22.9946 13.3393 22.4064C12.7511 21.8199 12.2823 21.1249 11.959 20.3599C11.6239 19.5675 11.4522 18.7156 11.4542 17.8553C11.4542 16.9856 11.6239 16.1427 11.959 15.3508C12.2823 14.5857 12.7511 13.8907 13.3393 13.3043C13.9257 12.7161 14.6207 12.2473 15.3857 11.924C16.178 11.589 17.0298 11.4173 17.89 11.4192C18.76 11.4192 19.6026 11.5892 20.3945 11.924C21.1596 12.2473 21.8546 12.7161 22.441 13.3043C23.0292 13.8907 23.498 14.5857 23.8213 15.3508C24.1564 16.1432 24.3281 16.995 24.3261 17.8553C24.3261 18.607 24.1991 19.3385 23.9486 20.0343C24.7885 20.0104 25.6135 20.2595 26.2999 20.7441C26.6189 19.8144 26.7812 18.8382 26.7803 17.8553C26.7803 12.9454 22.7999 8.96533 17.8897 8.96533C12.9804 8.96503 9 12.9454 9 17.8553C9 22.7652 12.9804 26.7453 17.89 26.7453C18.8543 26.7453 19.7827 26.5918 20.6518 26.308C20.5154 26.0855 20.4006 25.8504 20.3088 25.6061C20.1318 25.145 20.0344 24.643 20.0344 24.1178Z" fill="white"/>
<path d="M19.5832 19.6866C19.4991 19.7707 19.3992 19.8375 19.2893 19.883C19.1794 19.9285 19.0616 19.9519 18.9426 19.9519C18.8237 19.9519 18.7059 19.9285 18.596 19.883C18.4861 19.8375 18.3862 19.7707 18.3021 19.6866C18.218 19.6025 18.1512 19.5026 18.1057 19.3927C18.0602 19.2828 18.0367 19.165 18.0367 19.0461C18.0367 18.9271 18.0602 18.8093 18.1057 18.6994C18.1512 18.5895 18.218 18.4896 18.3021 18.4055C18.472 18.2356 18.7024 18.1402 18.9426 18.1402C19.1829 18.1402 19.4133 18.2356 19.5832 18.4055C19.7531 18.5754 19.8485 18.8058 19.8485 19.0461C19.8485 19.2863 19.7531 19.5167 19.5832 19.6866ZM22.7756 19.3451L21.6593 19.1803C20.7706 18.0579 18.9451 16.6468 16.4005 16.4823C16.4005 16.4823 16.2724 19.3076 19.1019 21.5616L19.3232 22.7954L20.0516 23.739C20.2308 21.7542 21.8027 20.1807 23.7625 20.0431L22.7756 19.3451Z" fill="white"/>
<path d="M23.382 25.4971C23.4149 25.502 23.4482 25.5062 23.4815 25.5093C23.9093 25.5682 25.5322 25.8602 27.0001 27.0345C27.0001 27.0345 26.774 26.7483 26.4874 26.2838C26.0684 25.6036 25.6183 24.5678 25.4581 23.5076L25.4559 23.5101C25.4195 23.174 25.2897 22.8547 25.0813 22.5885C24.8729 22.3223 24.5941 22.1197 24.2766 22.0036C23.959 21.8875 23.6153 21.8626 23.2844 21.9316C22.9534 22.0007 22.6483 22.1609 22.4037 22.3943C22.159 22.6276 21.9845 22.9248 21.8999 23.2521C21.8153 23.5795 21.824 23.924 21.925 24.2466C22.0259 24.5693 22.2151 24.8573 22.4712 25.0781C22.7273 25.2988 23.04 25.4435 23.3741 25.4958L23.3734 25.4962L23.382 25.4971Z" fill="#F9B130"/>
</svg>
