<svg width="36" height="36" viewBox="0 0 36 36" fill="none" xmlns="http://www.w3.org/2000/svg">
<mask id="path-1-inside-1_6_1717" fill="white">
<path d="M1.00871e-09 18C7.8474e-05 6.75 3.21436 8.78424e-06 18 0C32.7856 -8.78422e-06 36 5.94643 36 18C36 30.8571 30.5358 36 18 36C6.91071 36 -9.64087e-05 31.8214 1.00871e-09 18Z"/>
</mask>
<path d="M1.00871e-09 18C7.8474e-05 6.75 3.21436 8.78424e-06 18 0C32.7856 -8.78422e-06 36 5.94643 36 18C36 30.8571 30.5358 36 18 36C6.91071 36 -9.64087e-05 31.8214 1.00871e-09 18Z" fill="#232128"/>
<path d="M1.00871e-09 18L1 18L1.00871e-09 18ZM1.00871e-09 18L1 18C1.00004 12.4188 1.81003 8.23746 4.21467 5.43204C6.5888 2.66223 10.7301 1 18 1V0V-1C10.4842 -0.999996 5.6256 0.712782 2.69616 4.13046C-0.202768 7.51254 -0.99996 12.3312 -1 18L1.00871e-09 18ZM18 0V1C25.3037 0.999996 29.4342 2.47694 31.7961 5.14302C34.1841 7.83854 35 12.0002 35 18H36H37C37 11.9462 36.2087 7.10788 33.2931 3.81679C30.3514 0.496269 25.4819 -1 18 -1V0ZM36 18H35C35 24.3159 33.6537 28.4908 30.9987 31.1095C28.3409 33.7309 24.1622 35 18 35V36V37C24.3736 37 29.1949 35.6977 32.4031 32.5334C35.6142 29.3663 37 24.5413 37 18H36ZM18 36V35C12.5482 35 8.34866 33.9666 5.50644 31.4362C2.68833 28.9271 0.999953 24.7587 1 18L1.00871e-09 18L-1 18C-1.00005 25.0627 0.766929 29.8943 4.17652 32.9299C7.562 35.9441 12.3625 37 18 37V36Z" fill="white" fill-opacity="0.09" mask="url(#path-1-inside-1_6_1717)"/>
<path d="M6.82253 14.5568L8.25434 19.4795H8.30888L9.74069 14.5568H11.8816L9.57705 21.5386H6.98617L4.68164 14.5568H6.82253Z" fill="white"/>
<path d="M12.5677 21.5386V20.175L15.1722 18.0204C15.3449 17.8772 15.4926 17.7432 15.6154 17.6182C15.7403 17.4909 15.8358 17.3602 15.9017 17.2261C15.9699 17.092 16.004 16.9432 16.004 16.7795C16.004 16.6 15.9653 16.4466 15.8881 16.3193C15.8131 16.192 15.7085 16.0943 15.5744 16.0261C15.4404 15.9557 15.2858 15.9204 15.1108 15.9204C14.9358 15.9204 14.7813 15.9557 14.6472 16.0261C14.5154 16.0966 14.4131 16.2 14.3404 16.3363C14.2676 16.4727 14.2313 16.6386 14.2313 16.8341H12.4313C12.4313 16.3432 12.5415 15.9204 12.762 15.5659C12.9824 15.2114 13.2938 14.9386 13.696 14.7477C14.0983 14.5568 14.5699 14.4614 15.1108 14.4614C15.6699 14.4614 16.154 14.5511 16.5631 14.7307C16.9744 14.908 17.2915 15.1579 17.5142 15.4807C17.7392 15.8034 17.8517 16.1818 17.8517 16.6159C17.8517 16.8841 17.796 17.1511 17.6847 17.417C17.5733 17.6807 17.3733 17.9727 17.0847 18.2931C16.796 18.6136 16.3858 18.9954 15.854 19.4386L15.1994 19.984V20.025H17.9267V21.5386H12.5677Z" fill="white"/>
<path d="M18.7602 21.5386V14.5568H23.792V16.0841H20.6556V17.2841H23.5329V18.8113H20.6556V20.0113H23.7783V21.5386H18.7602Z" fill="white"/>
<path d="M26.7638 14.5568L27.9093 16.5886H27.9638L29.1229 14.5568H31.2365L29.1502 18.0477L31.3183 21.5386H29.1502L27.9638 19.4659H27.9093L26.7229 21.5386H24.5684L26.7093 18.0477L24.6366 14.5568H26.7638Z" fill="white"/>
</svg>
