<svg width="36" height="36" viewBox="0 0 36 36" fill="none" xmlns="http://www.w3.org/2000/svg">
<path d="M1.00871e-09 18C7.8474e-05 6.75 3.21436 8.78424e-06 18 0C32.7856 -8.78422e-06 36 5.94643 36 18C36 30.8571 30.5358 36 18 36C6.91071 36 -9.64087e-05 31.8214 1.00871e-09 18Z" fill="#E74E7F"/>
<g clip-path="url(#clip0_6_1839)">
<path d="M23.5961 16.3076C23.6499 16.3166 24.071 16.2225 24.0889 16.2539C24.1158 16.2942 24.3039 17.647 24.2546 17.656C24.2054 17.6649 23.856 17.7456 23.856 17.7456C23.8291 17.5619 23.6006 16.4241 23.5961 16.3076ZM24.2681 16.1777L24.4517 17.6336C24.5458 17.6291 24.9266 17.6022 24.9624 17.5977C24.9086 17.0468 24.8146 16.1777 24.8146 16.1777C24.6354 16.1419 24.4473 16.1419 24.2681 16.1777ZM23.9052 18.198C23.9052 18.198 24.7339 17.9875 25.0341 18.0905C25.1864 18.6415 25.4641 21.7323 25.491 21.8578C25.3028 21.8802 24.6847 21.9339 24.6354 21.9474C24.5951 21.7144 23.9052 18.3458 23.9052 18.198ZM26.9737 16.3435C27.023 16.3569 27.462 16.2987 27.4665 16.33C27.4754 16.4375 27.5202 17.7366 27.4709 17.7411C27.4217 17.7456 27.0723 17.7769 27.0723 17.7769C27.0633 17.5977 26.9648 16.4644 26.9737 16.3435ZM27.6501 16.3076L27.686 17.7456C27.78 17.7456 28.1563 17.768 28.1966 17.7635C28.1877 17.2125 28.1966 16.3435 28.1966 16.3435C28.0174 16.3121 27.8338 16.2987 27.6501 16.3076ZM27.0723 18.2383C27.0723 18.2383 27.9189 18.1263 28.2056 18.2607C28.2683 18.9058 28.2593 21.9115 28.2683 22.037C28.0757 22.037 27.462 22.0459 27.4127 22.0549C27.4037 21.8219 27.0588 18.3861 27.0723 18.2383ZM25.1057 14.5427C25.594 17.0333 25.9658 21.2889 25.9793 21.5621C25.9793 21.5621 26.3645 21.5711 26.799 21.598C26.5437 18.9147 26.2301 14.6278 26.2346 14.4889C26.1271 14.368 25.1057 14.5427 25.1057 14.5427ZM24.0307 20.4333C23.9366 19.7345 21.437 18.9416 20.0304 19.1969C20.0304 19.1969 19.8557 17.656 19.7885 16.1643C19.7303 14.8831 19.7796 13.6378 19.793 13.4318C19.6989 13.3646 18.6866 13.8484 18.1401 14.0499C18.1401 14.0499 18.7941 16.8183 19.2689 22.5611C19.2689 22.5611 20.0259 22.6417 21.325 22.3908C22.6241 22.14 24.1606 21.3561 24.0307 20.4333ZM20.9756 21.692L20.7561 20.1108C20.8099 20.0839 22.1582 20.5856 22.3016 20.6752C22.2792 20.7737 20.9756 21.692 20.9756 21.692ZM13.1857 16.3076C13.2394 16.3166 13.6605 16.2225 13.6784 16.2539C13.7053 16.2942 13.8935 17.647 13.8442 17.656C13.7949 17.6649 13.4455 17.7456 13.4455 17.7456C13.4186 17.5619 13.1902 16.4241 13.1857 16.3076ZM13.8576 16.1777L14.0413 17.6336C14.1354 17.6291 14.5161 17.6022 14.552 17.5977C14.4937 17.0468 14.4041 16.1777 14.4041 16.1777C14.2249 16.1419 14.0368 16.1419 13.8576 16.1777ZM13.4948 18.198C13.4948 18.198 14.3235 17.9875 14.6236 18.0905C14.7759 18.6415 15.0537 21.7323 15.0805 21.8578C14.8924 21.8802 14.2742 21.9339 14.2249 21.9474C14.1846 21.7144 13.4948 18.3458 13.4948 18.198ZM16.5633 16.3435C16.6125 16.3569 17.0515 16.2987 17.056 16.33C17.065 16.4375 17.1098 17.7366 17.0605 17.7411C17.0112 17.7456 16.6618 17.7769 16.6618 17.7769C16.6529 17.5977 16.5588 16.4644 16.5633 16.3435ZM17.2397 16.3076L17.2755 17.7456C17.3696 17.7456 17.7459 17.768 17.7862 17.7635C17.7772 17.2125 17.7862 16.3435 17.7862 16.3435C17.607 16.3121 17.4233 16.3031 17.2397 16.3076ZM16.6618 18.2383C16.6618 18.2383 17.5084 18.1263 17.7951 18.2607C17.8579 18.9058 17.8489 21.9115 17.8579 22.037C17.6652 22.037 17.0515 22.0459 17.0023 22.0549C16.9978 21.8219 16.6484 18.3861 16.6618 18.2383ZM14.6953 14.5427C15.1836 17.0333 15.5554 21.2889 15.5688 21.5621C15.5688 21.5621 15.954 21.5711 16.3886 21.598C16.1332 18.9147 15.8197 14.6278 15.8241 14.4845C15.7166 14.368 14.6953 14.5427 14.6953 14.5427ZM13.6202 20.4333C13.5261 19.7345 11.0266 18.9416 9.61998 19.1969C9.61998 19.1969 9.44528 17.656 9.37808 16.1643C9.31985 14.8831 9.36913 13.6378 9.38256 13.4318C9.28849 13.3691 8.27612 13.8484 7.72961 14.0499C7.72961 14.0499 8.38363 16.8183 8.85846 22.5611C8.85846 22.5611 9.6155 22.6417 10.9146 22.3908C12.2136 22.14 13.7501 21.3561 13.6202 20.4333ZM10.5652 21.692L10.3457 20.1108C10.3994 20.0839 11.7478 20.5856 11.8911 20.6752C11.8687 20.7737 10.5652 21.692 10.5652 21.692Z" fill="white"/>
</g>
<defs>
<clipPath id="clip0_6_1839">
<rect width="20.5408" height="20.5408" fill="white" transform="translate(7.72961 7.72955)"/>
</clipPath>
</defs>
</svg>
