<svg width="36" height="36" viewBox="0 0 36 36" fill="none" xmlns="http://www.w3.org/2000/svg">
<path d="M1.00871e-09 18C7.8474e-05 6.75 3.21436 8.78424e-06 18 0C32.7856 -8.78422e-06 36 5.94643 36 18C36 30.8571 30.5358 36 18 36C6.91071 36 -9.64087e-05 31.8214 1.00871e-09 18Z" fill="#0075D7"/>
<g clip-path="url(#clip0_6_1902)">
<path d="M14.9607 18.9999H18.6394C18.6394 18.1215 18.2322 17.6067 18.2322 17.6067H15.039C15.115 16.0155 15.183 13.9738 15.2077 13.2151H18.2452C18.2452 13.2151 18.2281 11.9101 17.8911 11.9101H12.5505C12.5505 11.9101 12.8718 10.2042 13.3002 9.45044C13.3002 9.45044 11.7058 9.36314 11.1618 11.5213C10.6182 13.6795 9.80276 14.9841 9.71681 15.2226C9.62996 15.4611 10.1857 15.3355 10.4206 15.2226C10.6555 15.1101 11.7189 14.7208 12.028 13.2151H13.6782C13.7007 14.1691 13.7659 17.0941 13.7457 17.6071H10.3464C9.86441 17.9581 9.70421 18.9999 9.70421 18.9999H13.5891C13.4266 20.0889 13.1422 21.4929 12.7444 22.2367C12.1144 23.4171 11.7805 24.4957 9.50711 26.3524C9.50711 26.3524 9.13631 26.6283 10.2856 26.5279C11.4349 26.4276 12.5221 26.1265 13.2763 24.5956C13.7187 23.6821 14.0909 22.7361 14.3896 21.766L14.3887 21.7705L17.59 25.5118C17.59 25.5118 18.0103 24.5083 17.7012 23.404L15.3283 20.7058L14.5246 21.3088L14.5242 21.312C14.7469 20.5177 14.9071 19.7329 14.9571 19.0498L14.9616 18.9999H14.9607ZM19.4062 11.6343V24.583H20.7472L21.2962 26.1423L23.6205 24.583H26.55V11.6343H19.4062ZM25.1698 23.1903H23.6475L21.7485 24.4638L21.2998 23.1903H20.826V13.0797H25.1698V23.1912H25.1703L25.1698 23.1903Z" fill="white"/>
</g>
<defs>
<clipPath id="clip0_6_1902">
<rect width="18" height="18" fill="white" transform="translate(9 9)"/>
</clipPath>
</defs>
</svg>
