<svg width="36" height="36" viewBox="0 0 36 36" fill="none" xmlns="http://www.w3.org/2000/svg">
<path d="M1.00871e-09 18C7.8474e-05 6.75 3.21436 8.78424e-06 18 0C32.7856 -8.78422e-06 36 5.94643 36 18C36 30.8571 30.5358 36 18 36C6.91071 36 -9.64087e-05 31.8214 1.00871e-09 18Z" fill="#C91428"/>
<path d="M14.8685 16.8024V15.8798H25.0346C25.0227 16.3647 24.9991 17.2577 24.9636 18.5588C24.9399 19.8481 24.8985 20.812 24.8394 21.4507C24.7803 22.0776 24.6975 22.669 24.591 23.2249C24.4846 23.7808 24.3485 24.2421 24.183 24.6088C23.9701 25.0583 23.6684 25.419 23.2781 25.6911C22.8996 25.9631 22.4561 26.0991 21.9475 26.0991C21.6518 26.0991 21.3265 25.9927 20.9717 25.7798C20.6168 25.5787 20.2797 25.3362 19.9604 25.0524C19.6529 24.7685 19.4045 24.5142 19.2152 24.2894C19.1679 24.2185 19.1443 24.1593 19.1443 24.112C19.1443 24.0411 19.1975 24.0056 19.3039 24.0056C19.3512 24.0056 19.4104 24.0174 19.4814 24.0411C19.7889 24.1593 20.0964 24.2421 20.4039 24.2894C20.7115 24.3368 21.0308 24.3604 21.362 24.3604C21.5749 24.3604 21.7464 24.2954 21.8765 24.1653C22.0066 24.0351 22.1131 23.8814 22.1959 23.704C22.2905 23.5147 22.3733 23.2072 22.4443 22.7814C22.5152 22.3556 22.5744 21.8943 22.6217 21.3975C22.669 20.8889 22.7045 20.055 22.7281 18.8959C22.7636 17.7249 22.7813 17.0271 22.7813 16.8024H14.8685ZM14.283 12.0298C14.283 13.0352 14.283 14.0405 14.283 15.0459C14.283 16.0395 14.2593 17.033 14.212 18.0266C14.1647 19.0556 14.0405 20.061 13.8394 21.0427C13.6383 22.0126 13.2421 22.9351 12.6507 23.8104C12.5206 24.0115 12.3373 24.2303 12.1007 24.4669C11.8642 24.7034 11.6158 24.9282 11.3556 25.1411C11.1072 25.354 10.8765 25.5255 10.6636 25.6556L10.5217 25.7443C10.4625 25.7798 10.3916 25.8093 10.3088 25.833C10.2378 25.8685 10.155 25.8862 10.0604 25.8862C9.93029 25.8862 9.86523 25.8389 9.86523 25.7443C9.86523 25.7088 9.88889 25.6556 9.9362 25.5846C9.95986 25.561 9.9776 25.5373 9.98943 25.5136C10.0131 25.49 10.0308 25.4722 10.0427 25.4604C10.1728 25.3067 10.297 25.147 10.4152 24.9814C10.5335 24.8276 10.6341 24.662 10.7168 24.4846C11.1427 23.6685 11.4443 22.8228 11.6217 21.9475C11.7991 21.0722 11.9056 20.1792 11.941 19.2685C11.9765 18.3577 11.9943 17.4588 11.9943 16.5717C11.9943 15.661 11.9884 14.7561 11.9765 13.8572C11.9765 12.9465 11.9765 12.0298 11.9765 11.1072H23.7039C23.7394 10.7997 23.8577 10.5217 24.0588 10.2733C24.2598 10.025 24.5378 9.90076 24.8926 9.90076C25.2238 9.90076 25.5136 10.0072 25.762 10.2201C26.0104 10.4212 26.1346 10.6814 26.1346 11.0008C26.1346 11.3083 26.0104 11.5567 25.762 11.7459C25.5136 11.9352 25.2356 12.0298 24.9281 12.0298H14.283ZM19.233 19.712C18.9136 20.5873 18.4701 21.4744 17.9023 22.3733C17.0507 23.7454 15.8738 24.7803 14.3717 25.4782C14.2297 25.5373 14.0582 25.6023 13.8572 25.6733C13.6679 25.7443 13.4964 25.7798 13.3426 25.7798C13.2953 25.7798 13.2244 25.7679 13.1297 25.7443C13.0351 25.7206 12.9878 25.6674 12.9878 25.5846C12.9878 25.5136 13.0351 25.4368 13.1297 25.354C13.2362 25.2712 13.3426 25.1943 13.4491 25.1233C13.5556 25.0524 13.6265 25.005 13.662 24.9814C13.7448 24.9104 13.8276 24.8454 13.9104 24.7862C13.9932 24.7271 14.076 24.662 14.1588 24.5911C15.0222 23.7513 15.7319 22.7045 16.2878 21.4507C16.7491 20.4572 17.0507 19.6411 17.1926 19.0024C17.3346 18.3636 17.4055 17.5593 17.4055 16.5895C17.4292 15.1583 17.4647 14.0051 17.512 13.1298L19.9072 13.2717C19.8598 14.1233 19.8125 15.2588 19.7652 16.6782C19.7416 17.8255 19.5641 18.8368 19.233 19.712Z" fill="white"/>
</svg>
