<svg width="36" height="36" viewBox="0 0 36 36" fill="none" xmlns="http://www.w3.org/2000/svg">
<path d="M1.00871e-09 18C7.8474e-05 6.75 3.21436 8.78424e-06 18 0C32.7856 -8.78422e-06 36 5.94643 36 18C36 30.8571 30.5358 36 18 36C6.91071 36 -9.64087e-05 31.8214 1.00871e-09 18Z" fill="#D81E06"/>
<path d="M8.14185 18.0303C8.14185 19.3343 8.39869 20.6256 8.89772 21.8303C9.39675 23.0351 10.1282 24.1298 11.0503 25.0519C11.9723 25.9739 13.067 26.7054 14.2718 27.2044C15.4765 27.7034 16.7678 27.9603 18.0718 27.9603C19.3758 27.9603 20.6671 27.7034 21.8719 27.2044C23.0766 26.7054 24.1713 25.9739 25.0934 25.0519C26.0154 24.1298 26.7469 23.0351 27.2459 21.8303C27.7449 20.6256 28.0018 19.3343 28.0018 18.0303C28.0018 15.3967 26.9556 12.871 25.0934 11.0088C23.2311 9.14653 20.7054 8.10034 18.0718 8.10034C15.4382 8.10034 12.9125 9.14653 11.0503 11.0088C9.18804 12.871 8.14185 15.3967 8.14185 18.0303Z" fill="#D81E06"/>
<path d="M8.14185 19.2026H12.5361L17.5011 13.1533H26.7463L27.2028 14.0093L21.1535 14.0664L19.3273 15.0366L18.6996 15.8355L15.5608 19.8303L13.0498 20.401H8.37011" fill="white"/>
<path d="M8.71265 21.3712H15.7892L16.8164 20.401L21.0395 15.4931H21.6102L27.7166 15.3219L28.0019 16.1779L23.6647 16.235L22.8657 16.7771L19.0421 21.3712L18.0719 22.1131L9.11214 22.3984" fill="white"/>
<path d="M26.5922 17.3748H23.3302L22.5999 17.9815L19.9221 21.7566H25.5698L26.1053 20.7828L22.9407 20.7341L23.6223 20.0525H26.3001L26.5922 19.0301L24.1579 18.9814L25.1803 18.2511H26.5922" fill="white"/>
</svg>
