<svg width="36" height="36" viewBox="0 0 36 36" fill="none" xmlns="http://www.w3.org/2000/svg">
<path d="M1.00871e-09 18C7.8474e-05 6.75 3.21436 8.78424e-06 18 0C32.7856 -8.78422e-06 36 5.94643 36 18C36 30.8571 30.5358 36 18 36C6.91071 36 -9.64087e-05 31.8214 1.00871e-09 18Z" fill="#0086F6"/>
<g clip-path="url(#clip0_10_2997)">
<path d="M20.8676 18.9028C20.9801 18.9028 21.0925 18.7341 21.0925 18.6216V17.4408C21.0925 16.3162 19.5743 16.3162 19.5743 16.3162H16.4254C16.4254 16.3162 14.9634 16.3162 15.0196 17.3845V18.4529C15.0196 18.5654 15.1321 18.6778 15.2445 18.7341C15.2445 18.7341 16.9877 19.2402 16.9877 20.3085V23.6262C16.9877 24.8632 12.7704 24.9757 12.7704 24.9757C12.6017 24.9757 12.433 25.1444 12.433 25.3131V26.6626C12.433 26.7188 12.4892 26.8313 12.5455 26.8875C12.6017 26.9438 12.7142 27 12.7704 27H23.2855C23.398 27 23.4542 26.9438 23.5105 26.8875C23.5667 26.8313 23.6229 26.7751 23.6229 26.6626V25.3131C23.6229 25.1444 23.4542 24.9757 23.2855 24.9757C23.2855 24.9757 19.1245 24.9757 19.1245 23.6262V20.3085C19.1245 19.1277 20.8676 18.9028 20.8676 18.9028ZM15.9755 9.96208H16.088V9.62469C16.088 9.28731 16.3692 9.00615 16.7628 9.00615H19.1245C19.5181 8.94992 19.8555 9.28731 19.8555 9.68092V9.96208H19.9679C23.7354 10.8055 26.3782 13.9545 26.3782 17.6095C26.3782 19.4088 25.7597 21.0395 24.5788 22.4453C24.1852 22.8952 23.7916 23.2888 23.3418 23.6824C23.1731 23.7948 23.0606 23.9073 23.0606 23.9073C22.8919 24.0198 22.7232 23.9635 22.6108 23.8511L21.5424 22.5578C21.4299 22.4453 21.4299 22.2204 21.5986 22.1079L21.7673 21.9955C22.1047 21.7143 22.4421 21.3769 22.7232 21.0395C23.6229 19.9712 24.129 18.8465 24.129 17.6095C24.129 14.5168 21.4299 11.9302 18.1123 11.9302H18.0561C14.7947 11.9302 12.0956 14.4605 12.0956 17.6095C12.0956 18.7903 12.5455 19.9712 13.4452 21.0395C13.7263 21.3769 14.0637 21.7143 14.4011 21.9955L14.5698 22.1642C14.7385 22.2766 14.7385 22.4453 14.626 22.614L13.5014 23.9073C13.3889 24.0198 13.164 24.076 13.0515 23.9635C13.0515 23.9635 12.9953 23.9073 12.7142 23.7386C12.2081 23.345 11.8145 22.9514 11.4208 22.5015C10.24 21.0958 9.62146 19.4651 9.62146 17.6657C9.62146 14.0669 12.2643 10.8618 15.9755 9.96208Z" fill="white"/>
</g>
<defs>
<clipPath id="clip0_10_2997">
<rect width="18" height="18" fill="white" transform="translate(8.99988 9)"/>
</clipPath>
</defs>
</svg>
