<svg width="36" height="36" viewBox="0 0 36 36" fill="none" xmlns="http://www.w3.org/2000/svg">
<path d="M1.00871e-09 18C7.8474e-05 6.75 3.21436 8.78424e-06 18 0C32.7856 -8.78422e-06 36 5.94643 36 18C36 30.8571 30.5358 36 18 36C6.91071 36 -9.64087e-05 31.8214 1.00871e-09 18Z" fill="#47A141"/>
<path d="M14.5205 13.5195C12.0317 15.0219 10.365 17.6676 10.2491 20.7102L10.2485 20.7265C10.2513 24.1916 13.0609 27 16.5265 27C19.9939 27 22.8046 24.1893 22.8046 20.722C22.8046 18.0604 21.148 15.7855 18.81 14.8722L18.7672 14.8576C18.1246 14.5908 17.379 14.4355 16.5963 14.4355C16.576 14.4355 16.5559 14.4355 16.5355 14.4361H16.5383C15.1873 15.3578 14.1131 16.5907 13.4041 18.035L13.3799 18.0896C14.1413 17.1859 15.274 16.6154 16.5395 16.6154C18.8167 16.6154 20.6629 18.4616 20.6629 20.7388C20.6629 23.016 18.8167 24.8624 16.5395 24.8624H16.5181C15.9226 24.863 15.3341 24.7344 14.7931 24.4854C14.2522 24.2364 13.7718 23.873 13.385 23.4202L13.3805 23.4145C12.8755 22.8506 12.5063 22.1785 12.301 21.4499C12.0957 20.7212 12.0598 19.9553 12.196 19.2106L12.1915 19.241C12.9967 14.4243 18.7666 11.6508 23.0386 10.5733C20.8312 11.6429 18.9653 12.7351 17.1921 13.9528L17.3429 13.8549C22.5069 15.8485 23.3369 11.5022 25.7514 9.55751C23.3492 8.61667 14.5329 8.27007 14.52 13.5206L14.5205 13.5195Z" fill="white"/>
</svg>
