<svg width="36" height="36" viewBox="0 0 36 36" fill="none" xmlns="http://www.w3.org/2000/svg">
<path d="M1.00871e-09 18C7.8474e-05 6.75 3.21436 8.78424e-06 18 0C32.7856 -8.78422e-06 36 5.94643 36 18C36 30.8571 30.5358 36 18 36C6.91071 36 -9.64087e-05 31.8214 1.00871e-09 18Z" fill="#FF7800"/>
<g clip-path="url(#clip0_10_2441)">
<rect x="8.8252" y="9.77441" width="18.627" height="17.0829" fill="white"/>
<path d="M26.0544 8.05396H9.86289C9.3831 8.05396 8.92296 8.24455 8.58369 8.58381C8.24443 8.92308 8.05383 9.38322 8.05383 9.86301V19.0697C8.05381 19.1492 8.07731 19.227 8.12139 19.2933C8.16546 19.3596 8.22814 19.4113 8.30154 19.442C8.37494 19.4728 8.45579 19.4811 8.53392 19.466C8.61205 19.4509 8.68398 19.4131 8.74065 19.3572L16.9233 11.2981C17.1686 11.0512 17.4818 10.8828 17.823 10.8144C18.1643 10.7459 18.5181 10.7805 18.8397 10.9137C19.1612 11.0469 19.4359 11.2727 19.6288 11.5624C19.8217 11.8521 19.9241 12.1926 19.9229 12.5406V17.5774C19.9228 17.6574 19.9465 17.7356 19.9909 17.8022C20.0353 17.8687 20.0985 17.9206 20.1724 17.9512C20.2463 17.9818 20.3277 17.9897 20.4061 17.974C20.4846 17.9583 20.5566 17.9196 20.613 17.8629L27.334 11.142C27.587 10.889 27.7592 10.5666 27.8289 10.2157C27.8987 9.86474 27.8628 9.50101 27.7258 9.17048C27.5889 8.83994 27.357 8.55744 27.0595 8.3587C26.7619 8.15997 26.4122 8.05391 26.0544 8.05396Z" fill="#FF7800"/>
<path d="M27.2569 16.587L19.1278 24.7165C18.8825 24.9633 18.5693 25.1317 18.228 25.2002C17.8868 25.2686 17.5329 25.234 17.2114 25.1008C16.8899 24.9677 16.6152 24.7419 16.4223 24.4522C16.2294 24.1625 16.127 23.822 16.1281 23.474V18.4211C16.1281 18.3414 16.1046 18.2635 16.0604 18.1972C16.0162 18.1308 15.9533 18.0791 15.8798 18.0485C15.8062 18.0178 15.7252 18.0096 15.647 18.0249C15.5688 18.0403 15.4969 18.0784 15.4403 18.1345L8.66251 24.8512C8.4069 25.1032 8.23209 25.4255 8.16036 25.7772C8.08863 26.1289 8.12323 26.4939 8.25975 26.8259C8.39627 27.1578 8.62853 27.4416 8.92692 27.6411C9.22532 27.8405 9.57634 27.9466 9.93526 27.9458H26.1363C26.6158 27.9458 27.0757 27.7555 27.4149 27.4165C27.7541 27.0776 27.9449 26.6179 27.9453 26.1384V16.8739C27.9454 16.7941 27.9218 16.7161 27.8776 16.6497C27.8334 16.5833 27.7705 16.5315 27.6968 16.5008C27.6232 16.4701 27.5421 16.4619 27.4638 16.4773C27.3855 16.4926 27.3135 16.5308 27.2569 16.587Z" fill="#FF7800"/>
</g>
<defs>
<clipPath id="clip0_10_2441">
<rect width="19.8921" height="19.8921" fill="white" transform="translate(8.05383 8.05396)"/>
</clipPath>
</defs>
</svg>
