<svg width="36" height="36" viewBox="0 0 36 36" fill="none" xmlns="http://www.w3.org/2000/svg">
<path d="M1.00871e-09 18C7.8474e-05 6.75 3.21436 8.78424e-06 18 0C32.7856 -8.78422e-06 36 5.94643 36 18C36 30.8571 30.5358 36 18 36C6.91071 36 -9.64087e-05 31.8214 1.00871e-09 18Z" fill="#FF8600"/>
<path d="M17.483 10.1839L16.7623 11.5902C16.7623 11.5902 16.9407 11.7898 17.5719 11.6839C18.2032 11.578 22.301 9.48018 25.1696 9.98864C28.0378 10.4972 29.7963 12.7596 29.7965 14.5306V23.0306C29.7965 23.0306 29.4611 25.6239 27.2789 26.5306C25.1049 27.4338 21.7326 26.7602 21.7076 26.7552L21.8854 25.348C21.8854 25.348 23.8984 25.8147 25.1696 25.391C25.5246 25.288 25.8527 25.1084 26.1315 24.8656C26.4103 24.6226 26.6332 24.3215 26.7838 23.9838V13.8744C26.6888 13.5036 26.5201 13.1558 26.2887 12.8509C26.0573 12.5461 25.7677 12.2902 25.4362 12.099C24.2667 11.3744 23.6985 11.4637 22.4274 11.6459C21.3263 11.887 20.2557 12.2523 19.2369 12.7347L18.1569 14.8529H25.4362V16.306H20.9869V18.1244H25.6266V19.3949L21.068 19.5775V23.0306L23.2291 22.0775L23.0465 20.5775L24.8004 20.2132L26.1012 23.6664L23.9449 24.6664L23.6774 23.4379C23.6257 23.4598 19.5866 25.171 17.9615 25.3099C16.3261 25.4497 14.7158 25.0563 13.9362 23.9379C13.1595 22.8235 13.3381 20.5943 13.3395 20.5775L16.2584 20.6664C16.2572 20.6734 16.0317 21.9443 16.6022 22.7513C17.1733 23.5588 18.4659 23.3663 18.4703 23.3656V19.5013L13.9791 19.3656V18.141H18.5084L18.4615 16.3236L17.0719 16.0482C17.0541 16.0758 15.8929 17.8693 15.1403 17.8236C14.3818 17.777 14.2926 16.7298 14.2926 16.7298L16.7623 13.6117L15.4156 13.4759L13.3942 15.8822L11.8649 14.5228C12.6362 13.8018 13.3021 12.9752 13.8434 12.0687C14.3762 11.1645 14.7771 10.1889 15.0338 9.17125L17.483 10.1839ZM8.67834 13.9886C8.70017 14.0031 12.5857 16.5836 12.8561 18.6244C13.1226 20.667 9.59338 26.891 9.59338 26.891L6.20374 24.391C6.20374 24.391 10.9749 20.4584 10.7037 19.1322C10.4326 17.8081 7.16332 16.1716 7.15295 16.1664L8.67834 13.9886ZM10.5045 9.00133C11.0398 9.00471 11.5518 9.22046 11.9283 9.60094C12.3048 9.98134 12.5154 10.4955 12.5133 11.0306C12.5133 11.4328 12.3934 11.8264 12.1696 12.1605C11.9456 12.4947 11.6266 12.7556 11.2545 12.9086C10.8826 13.0613 10.4737 13.0998 10.0797 13.0199C9.68544 12.9398 9.32363 12.7443 9.04065 12.4584C8.75771 12.1724 8.56577 11.8085 8.48987 11.4134C8.4141 11.0186 8.45715 10.6099 8.61389 10.2396C8.7707 9.86928 9.03437 9.5538 9.37073 9.33336C9.70727 9.11292 10.1022 8.99713 10.5045 9.00133Z" fill="white"/>
</svg>
