<svg width="36" height="36" viewBox="0 0 36 36" fill="none" xmlns="http://www.w3.org/2000/svg">
<path d="M1.00871e-09 18C7.8474e-05 6.75 3.21436 8.78424e-06 18 0C32.7856 -8.78422e-06 36 5.94643 36 18C36 30.8571 30.5358 36 18 36C6.91071 36 -9.64087e-05 31.8214 1.00871e-09 18Z" fill="#FE3E53"/>
<g clip-path="url(#clip0_10_2890)">
<path d="M26.8627 12.9424C26.7931 12.5397 26.3071 12.5058 26.3071 12.5058H19.9504C19.4988 12.5058 19.3253 13.1103 19.3253 13.1103L15.5394 20.8979C15.3659 21.2671 15.1918 20.8979 15.1918 20.8979L12.135 14.8559C11.9264 14.5539 12.135 14.4193 12.135 14.4193H14.7053C15.1568 14.4866 15.2608 14.8559 15.2608 14.8559L16.5459 17.5079L17.6576 15.1245L16.6505 13.043C16.4419 12.5058 15.9904 12.4391 15.9904 12.4391H9.73819C8.76558 12.8083 9.18265 13.5468 9.18265 13.5468L14.3582 24.0537C14.9488 24.8256 15.3653 24.6582 15.3653 24.6582C15.9209 24.6582 16.2684 24.0537 16.2684 24.0537L20.784 14.7892C20.9575 14.4199 21.166 14.4199 21.166 14.4199H23.9103C24.1189 14.4533 24.0143 14.7892 24.0143 14.7892L20.8879 20.9991C20.7489 21.335 20.5059 20.9991 20.5059 20.9991L19.4988 18.817L18.3872 20.8979C18.3177 21.0658 18.3872 21.2671 18.3872 21.2671L19.7769 24.0532C20.8535 25.2949 21.6175 24.1205 21.6175 24.1205L26.7587 13.6475C26.9672 13.2782 26.8627 12.9424 26.8627 12.9424Z" fill="white"/>
</g>
<defs>
<clipPath id="clip0_10_2890">
<rect width="19" height="19" fill="white" transform="translate(8.50012 8.50012)"/>
</clipPath>
</defs>
</svg>
