<svg width="36" height="36" viewBox="0 0 36 36" fill="none" xmlns="http://www.w3.org/2000/svg">
<path d="M1.00871e-09 18C7.8474e-05 6.75 3.21436 8.78424e-06 18 0C32.7856 -8.78422e-06 36 5.94643 36 18C36 30.8571 30.5358 36 18 36C6.91071 36 -9.64087e-05 31.8214 1.00871e-09 18Z" fill="#E98F36"/>
<path d="M22.6812 10.7978C22.4949 10.5979 22.3446 10.288 21.9423 10.3804C22.9745 12.2765 23.0124 14.2339 22.3981 16.2447C21.809 18.1719 20.7258 19.8117 19.4591 21.3463C18.6239 22.3595 18.5271 23.3421 19.1653 24.4939C19.6868 25.4361 20.5025 26.1254 21.2423 26.9975C23.225 23.5868 24.7908 20.1546 24.7587 16.201C24.7412 14.1463 24.1005 12.3169 22.6812 10.7978Z" fill="white"/>
<path d="M21.9015 14.5184C22.0566 13.8758 22.0795 13.2323 21.9063 12.5893C21.811 11.362 21.2195 10.36 20.4237 9.27576C20.4967 9.79234 20.5721 10.1489 20.593 10.5088C20.7112 12.5343 19.8035 14.137 18.4708 15.5516C17.512 16.5687 16.3689 17.3469 15.1874 18.0805C14.1508 18.7235 13.7578 19.69 14.0147 20.8803C14.1888 21.6819 14.6047 22.3965 14.8683 23.166C15.0016 23.5561 15.1266 23.541 15.4243 23.3177C17.3782 21.8507 19.141 20.1959 20.4729 18.1301C21.1845 17.0249 21.7804 15.8634 21.9015 14.5184Z" fill="white"/>
<path d="M19.0253 13.1282C19.8284 11.9029 20.056 10.5964 19.5428 8.99756C18.8662 10.5011 17.7611 11.3416 16.4988 12.0207C14.9549 12.8515 13.2797 13.2766 11.5743 13.6098C10.2614 13.8671 9.4389 14.8113 9.44523 16.1611C9.44815 16.8489 9.62472 17.5342 9.66412 18.2235C9.6933 18.7323 9.87328 18.7649 10.3067 18.6141C12.23 17.9472 14.0905 17.1529 15.8168 16.0638C17.0616 15.2792 18.2052 14.3779 19.0253 13.1282Z" fill="white"/>
</svg>
