<svg width="36" height="36" viewBox="0 0 36 36" fill="none" xmlns="http://www.w3.org/2000/svg">
<mask id="path-1-inside-1_9_2137" fill="white">
<path d="M1.00871e-09 18C7.8474e-05 6.75 3.21436 8.78424e-06 18 0C32.7856 -8.78422e-06 36 5.94643 36 18C36 30.8571 30.5358 36 18 36C6.91071 36 -9.64087e-05 31.8214 1.00871e-09 18Z"/>
</mask>
<path d="M1.00871e-09 18C7.8474e-05 6.75 3.21436 8.78424e-06 18 0C32.7856 -8.78422e-06 36 5.94643 36 18C36 30.8571 30.5358 36 18 36C6.91071 36 -9.64087e-05 31.8214 1.00871e-09 18Z" fill="#232128"/>
<path d="M1.00871e-09 18L1 18L1.00871e-09 18ZM1.00871e-09 18L1 18C1.00004 12.4188 1.81003 8.23746 4.21467 5.43204C6.5888 2.66223 10.7301 1 18 1V0V-1C10.4842 -0.999996 5.6256 0.712782 2.69616 4.13046C-0.202768 7.51254 -0.99996 12.3312 -1 18L1.00871e-09 18ZM18 0V1C25.3037 0.999996 29.4342 2.47694 31.7961 5.14302C34.1841 7.83854 35 12.0002 35 18H36H37C37 11.9462 36.2087 7.10788 33.2931 3.81679C30.3514 0.496269 25.4819 -1 18 -1V0ZM36 18H35C35 24.3159 33.6537 28.4908 30.9987 31.1095C28.3409 33.7309 24.1622 35 18 35V36V37C24.3736 37 29.1949 35.6977 32.4031 32.5334C35.6142 29.3663 37 24.5413 37 18H36ZM18 36V35C12.5482 35 8.34866 33.9666 5.50644 31.4362C2.68833 28.9271 0.999953 24.7587 1 18L1.00871e-09 18L-1 18C-1.00005 25.0627 0.766929 29.8943 4.17652 32.9299C7.562 35.9441 12.3625 37 18 37V36Z" fill="white" fill-opacity="0.09" mask="url(#path-1-inside-1_9_2137)"/>
<path d="M18 18C18 16.3406 19.35 14.9906 21.0094 14.9906C22.6688 14.9906 24.0188 16.3406 24.0188 18C24.0188 19.6594 22.6688 21.0094 21.0094 21.0094C19.35 21.0094 18 19.6594 18 18Z" fill="#1ABCFE"/>
<path d="M12.0094 23.9906C12.0094 22.3312 13.3594 20.9812 15.0188 20.9812H18V23.9906C18 25.65 16.65 27 14.9906 27C13.3313 27 12.0094 25.65 12.0094 23.9906Z" fill="#0ACF83"/>
<path d="M18 9V14.9906H21.0094C22.6688 14.9906 24.0188 13.6406 24.0188 11.9813C24.0188 10.3219 22.6688 9 21.0094 9H18Z" fill="#FF7262"/>
<path d="M12.0094 12.0094C12.0094 13.6687 13.3594 15.0187 15.0188 15.0187H18V9H14.9906C13.3313 9 12.0094 10.35 12.0094 12.0094Z" fill="#F24E1E"/>
<path d="M12.0094 18C12.0094 19.6594 13.3594 21.0094 15.0188 21.0094H18V14.9906H14.9906C13.3313 14.9906 12.0094 16.3406 12.0094 18Z" fill="#A259FF"/>
</svg>
