<svg width="36" height="36" viewBox="0 0 36 36" fill="none" xmlns="http://www.w3.org/2000/svg">
<path d="M1.00871e-09 18C7.8474e-05 6.75 3.21436 8.78424e-06 18 0C32.7856 -8.78422e-06 36 5.94643 36 18C36 30.8571 30.5358 36 18 36C6.91071 36 -9.64087e-05 31.8214 1.00871e-09 18Z" fill="#FE2139"/>
<path d="M25.4096 8.57489L7.32471 10.9084L9.75546 27.4376L28.8126 23.5484L25.4096 8.57489Z" fill="white"/>
<path d="M29.5734 25.0396C29.5112 26.0355 29.0359 26.7448 28.0917 26.9176C26.0946 27.2823 24.0975 27.6427 22.0973 27.9978C20.8769 28.216 19.6524 28.4099 18.433 28.6344C16.6257 28.9674 14.8225 29.3215 13.0162 29.6598C12.4294 29.7704 11.8401 29.8677 11.2489 29.9517C10.5217 30.0539 9.74503 29.5575 9.5058 28.8009C9.35194 28.314 9.26131 27.8039 9.16857 27.3002C8.9443 26.0925 8.73001 24.883 8.52572 23.6717C8.35394 22.6516 8.21483 21.6251 8.04305 20.605C7.83017 19.3362 7.592 18.0715 7.3749 16.8037C7.18205 15.674 7.00605 14.5422 6.81636 13.4114C6.70413 12.7285 6.58398 12.047 6.45594 11.3669C6.2262 10.1592 6.89013 9.27182 8.10628 9.08634C9.30768 8.90297 10.4975 8.65321 11.6936 8.43716C12.9835 8.20532 14.2766 7.98401 15.5665 7.74689C16.8912 7.50239 18.2128 7.23893 19.5385 6.99338C20.1824 6.87429 20.8327 6.77945 21.4776 6.66774C22.4788 6.4949 23.4884 6.36528 24.4727 6.12711C25.4707 5.88683 26.3907 6.64982 26.553 7.52242C26.8228 8.97779 27.0452 10.4416 27.3002 11.8991C27.5184 13.1532 27.7607 14.402 27.9768 15.655C28.2118 17.0208 28.4226 18.3898 28.6544 19.7556C28.8905 21.1456 29.1371 22.5325 29.3795 23.9215C29.4469 24.3178 29.5165 24.7161 29.5734 25.0386V25.0396ZM25.0945 13.9942C25.0787 12.895 24.8647 12.6863 23.7919 12.8128C23.1427 12.8887 22.4978 13.0162 21.8528 13.1321C21.4207 13.2111 20.9939 13.3123 20.5639 13.3987C20.0159 13.5083 19.8937 13.6959 20.0317 14.2207C20.0834 14.4168 20.1435 14.6117 20.1761 14.8109C20.2657 15.3505 20.1255 15.6371 19.6566 15.9196C18.6775 16.5097 17.3929 16.4096 16.4644 15.6919C15.7099 15.1081 15.2525 14.3293 14.8889 13.4693C14.519 12.5925 14.3641 12.5335 13.4177 12.699C12.269 12.8992 11.1172 13.0889 9.96529 13.2681C9.24655 13.3798 8.9852 13.8477 9.22021 14.5327C9.54585 15.4833 10.1929 16.1641 11.0307 16.6256C11.9149 17.1104 12.8718 17.4624 13.7866 17.8955C14.0406 18.0157 14.2555 18.218 14.4874 18.3835C14.2671 18.5416 14.069 18.7681 13.8235 18.8461C12.7896 19.1728 11.8085 19.6017 10.9391 20.253C10.0686 20.9043 9.48367 21.7295 9.48367 22.8708C9.48367 23.4789 9.61435 23.5916 10.2172 23.4905C11.3237 23.305 12.426 23.1111 13.5305 22.9224C14.1185 22.8223 14.3009 22.6295 14.3609 22.0393C14.3736 21.9086 14.362 21.7748 14.3852 21.6462C14.5801 20.527 15.1798 19.7008 16.358 19.549C18.6944 19.2487 20.7062 20.4543 21.4302 22.66C21.641 23.3018 22.0098 23.4884 22.6801 23.3429C24.0427 23.0479 25.4043 22.7486 26.7712 22.4714C27.0346 22.4187 27.0979 22.2965 27.1063 22.0614C27.1326 21.3206 26.7933 20.7209 26.3602 20.1698C25.4918 19.0664 24.303 18.414 23.0437 17.8671C22.64 17.6921 22.2322 17.5277 21.8496 17.3138C21.6178 17.1831 21.6536 16.9955 21.9097 16.9165C22.2501 16.8101 22.6053 16.7521 22.9478 16.652C24.1176 16.3105 25.1503 15.3568 25.0934 13.9942H25.0945Z" fill="#FE2139"/>
</svg>
