<svg width="36" height="36" viewBox="0 0 36 36" fill="none" xmlns="http://www.w3.org/2000/svg">
<mask id="path-1-inside-1_9_2220" fill="white">
<path d="M1.00871e-09 18C7.8474e-05 6.75 3.21436 8.78424e-06 18 0C32.7856 -8.78422e-06 36 5.94643 36 18C36 30.8571 30.5358 36 18 36C6.91071 36 -9.64087e-05 31.8214 1.00871e-09 18Z"/>
</mask>
<path d="M1.00871e-09 18C7.8474e-05 6.75 3.21436 8.78424e-06 18 0C32.7856 -8.78422e-06 36 5.94643 36 18C36 30.8571 30.5358 36 18 36C6.91071 36 -9.64087e-05 31.8214 1.00871e-09 18Z" fill="white"/>
<path d="M1.00871e-09 18L1 18L1.00871e-09 18ZM1.00871e-09 18L1 18C1.00004 12.4188 1.81003 8.23746 4.21467 5.43204C6.5888 2.66223 10.7301 1 18 1V0V-1C10.4842 -0.999996 5.6256 0.712782 2.69616 4.13046C-0.202768 7.51254 -0.99996 12.3312 -1 18L1.00871e-09 18ZM18 0V1C25.3037 0.999996 29.4342 2.47694 31.7961 5.14302C34.1841 7.83854 35 12.0002 35 18H36H37C37 11.9462 36.2087 7.10788 33.2931 3.81679C30.3514 0.496269 25.4819 -1 18 -1V0ZM36 18H35C35 24.3159 33.6537 28.4908 30.9987 31.1095C28.3409 33.7309 24.1622 35 18 35V36V37C24.3736 37 29.1949 35.6977 32.4031 32.5334C35.6142 29.3663 37 24.5413 37 18H36ZM18 36V35C12.5482 35 8.34866 33.9666 5.50644 31.4362C2.68833 28.9271 0.999953 24.7587 1 18L1.00871e-09 18L-1 18C-1.00005 25.0627 0.766929 29.8943 4.17652 32.9299C7.562 35.9441 12.3625 37 18 37V36Z" fill="black" fill-opacity="0.08" mask="url(#path-1-inside-1_9_2220)"/>
<path d="M25.7283 12.1533L19.2011 8.38789C18.5211 7.99554 17.4081 7.99554 16.7279 8.38789L10.2009 12.1535C9.52073 12.5459 8.96448 13.5089 8.96448 14.2938V21.8251C8.96448 22.6098 9.52073 23.573 10.2009 23.9654L16.7279 27.731C17.4079 28.1234 18.5209 28.1234 19.2011 27.731L25.728 23.9654C26.4082 23.5728 26.9645 22.6098 26.9645 21.8249V14.2936C26.9645 13.5089 26.4082 12.5456 25.7283 12.1533ZM20.1014 18.0592C20.1014 20.4601 18.1536 22.4065 15.751 22.4065C13.3485 22.4065 11.4006 20.4601 11.4006 18.0592V14.7414C11.4006 14.173 11.8617 13.712 12.4311 13.712C13 13.712 13.461 14.1728 13.461 14.7414V18.0592C13.461 19.323 14.4863 20.3475 15.7513 20.3475C17.016 20.3475 18.0413 19.323 18.0413 18.0592V14.7414C18.0413 14.173 18.5026 13.712 19.0715 13.712C19.6404 13.712 20.1014 14.1728 20.1014 14.7414V18.0592ZM24.5286 21.377C24.5286 21.9454 24.0675 22.4065 23.4986 22.4065C22.9297 22.4065 22.4684 21.9454 22.4684 21.377V14.7414C22.4684 14.173 22.9297 13.712 23.4986 13.712C24.0675 13.712 24.5286 14.1728 24.5286 14.7414V21.377Z" fill="#3E98F0"/>
</svg>
