<svg width="36" height="36" viewBox="0 0 36 36" fill="none" xmlns="http://www.w3.org/2000/svg">
<mask id="path-1-inside-1_329_2056" fill="white">
<path d="M1.00871e-09 18C7.8474e-05 6.75 3.21436 8.78424e-06 18 0C32.7856 -8.78422e-06 36 5.94643 36 18C36 30.8571 30.5358 36 18 36C6.91071 36 -9.64087e-05 31.8214 1.00871e-09 18Z"/>
</mask>
<path d="M1.00871e-09 18C7.8474e-05 6.75 3.21436 8.78424e-06 18 0C32.7856 -8.78422e-06 36 5.94643 36 18C36 30.8571 30.5358 36 18 36C6.91071 36 -9.64087e-05 31.8214 1.00871e-09 18Z" fill="#232128"/>
<path d="M1.00871e-09 18L1 18L1.00871e-09 18ZM1.00871e-09 18L1 18C1.00004 12.4188 1.81003 8.23746 4.21467 5.43204C6.5888 2.66223 10.7301 1 18 1V0V-1C10.4842 -0.999996 5.6256 0.712782 2.69616 4.13046C-0.202768 7.51254 -0.99996 12.3312 -1 18L1.00871e-09 18ZM18 0V1C25.3037 0.999996 29.4342 2.47694 31.7961 5.14302C34.1841 7.83854 35 12.0002 35 18H36H37C37 11.9462 36.2087 7.10788 33.2931 3.81679C30.3514 0.496269 25.4819 -1 18 -1V0ZM36 18H35C35 24.3159 33.6537 28.4908 30.9987 31.1095C28.3409 33.7309 24.1622 35 18 35V36V37C24.3736 37 29.1949 35.6977 32.4031 32.5334C35.6142 29.3663 37 24.5413 37 18H36ZM18 36V35C12.5482 35 8.34866 33.9666 5.50644 31.4362C2.68833 28.9271 0.999953 24.7587 1 18L1.00871e-09 18L-1 18C-1.00005 25.0627 0.766929 29.8943 4.17652 32.9299C7.562 35.9441 12.3625 37 18 37V36Z" fill="white" fill-opacity="0.09" mask="url(#path-1-inside-1_329_2056)"/>
<path d="M24.8399 13.716C25.0019 13.806 25.1279 14.022 25.1279 14.202V21.762C25.1279 21.942 25.0019 22.158 24.8399 22.248L22.5539 23.58C22.3919 23.67 22.2659 23.598 22.2659 23.418V16.02C22.2659 15.84 22.1399 15.624 21.9779 15.534L19.6919 14.22C19.5299 14.13 19.4039 14.202 19.4039 14.382V16.254C19.4039 16.434 19.2599 16.578 19.0799 16.578H16.9019C16.7219 16.578 16.5779 16.434 16.5779 16.254V9.28803C16.5779 9.10803 16.7039 9.03603 16.8659 9.12603L24.8399 13.716ZM16.5779 19.746C16.5779 19.566 16.7219 19.422 16.9019 19.422H19.0979C19.2779 19.422 19.4219 19.566 19.4219 19.746V26.712C19.4219 26.892 19.2959 26.964 19.1339 26.874L11.1599 22.266C10.9979 22.176 10.8719 21.96 10.8719 21.78V14.22C10.8719 14.04 10.9979 13.824 11.1599 13.734L13.4459 12.42C13.6079 12.33 13.7339 12.402 13.7339 12.582V19.98C13.7339 20.16 13.8599 20.376 14.0219 20.466L16.2899 21.78C16.4519 21.87 16.5779 21.798 16.5779 21.618V19.746Z" fill="white"/>
</svg>
