<svg width="36" height="36" viewBox="0 0 36 36" fill="none" xmlns="http://www.w3.org/2000/svg">
<mask id="path-1-inside-1_10_2467" fill="white">
<path d="M1.00871e-09 18C7.8474e-05 6.75 3.21436 8.78424e-06 18 0C32.7856 -8.78422e-06 36 5.94643 36 18C36 30.8571 30.5358 36 18 36C6.91071 36 -9.64087e-05 31.8214 1.00871e-09 18Z"/>
</mask>
<path d="M1.00871e-09 18C7.8474e-05 6.75 3.21436 8.78424e-06 18 0C32.7856 -8.78422e-06 36 5.94643 36 18C36 30.8571 30.5358 36 18 36C6.91071 36 -9.64087e-05 31.8214 1.00871e-09 18Z" fill="white"/>
<path d="M1.00871e-09 18L1 18L1.00871e-09 18ZM1.00871e-09 18L1 18C1.00004 12.4188 1.81003 8.23746 4.21467 5.43204C6.5888 2.66223 10.7301 1 18 1V0V-1C10.4842 -0.999996 5.6256 0.712782 2.69616 4.13046C-0.202768 7.51254 -0.99996 12.3312 -1 18L1.00871e-09 18ZM18 0V1C25.3037 0.999996 29.4342 2.47694 31.7961 5.14302C34.1841 7.83854 35 12.0002 35 18H36H37C37 11.9462 36.2087 7.10788 33.2931 3.81679C30.3514 0.496269 25.4819 -1 18 -1V0ZM36 18H35C35 24.3159 33.6537 28.4908 30.9987 31.1095C28.3409 33.7309 24.1622 35 18 35V36V37C24.3736 37 29.1949 35.6977 32.4031 32.5334C35.6142 29.3663 37 24.5413 37 18H36ZM18 36V35C12.5482 35 8.34866 33.9666 5.50644 31.4362C2.68833 28.9271 0.999953 24.7587 1 18L1.00871e-09 18L-1 18C-1.00005 25.0627 0.766929 29.8943 4.17652 32.9299C7.562 35.9441 12.3625 37 18 37V36Z" fill="black" fill-opacity="0.08" mask="url(#path-1-inside-1_10_2467)"/>
<g clip-path="url(#clip0_10_2467)">
<path d="M26.9823 13.5043C26.9823 17.6178 26.943 21.7313 27.0104 25.8673C26.9823 26.8057 26.7969 26.9912 25.8584 26.9912C20.6135 26.9312 15.378 26.9312 10.1519 26.9912C9.18532 26.9912 8.99988 26.8057 8.99988 25.8673C9.06731 21.7257 9.02798 17.6122 9.02798 13.5043C9.09411 13.4231 9.18714 13.3683 9.29022 13.3497C9.3933 13.3312 9.49962 13.3501 9.58993 13.4032C9.75147 13.5226 9.89691 13.6624 10.0226 13.819C10.6435 14.694 11.4444 15.4259 12.3716 15.9657C13.192 16.6962 14.4115 16.9154 14.979 17.9775C14.2878 19.6858 12.2704 19.905 11.2477 21.2368C10.8203 21.6004 10.4804 22.0556 10.253 22.5686C10.1661 22.7865 10.1339 23.0224 10.1594 23.2555C10.1848 23.4887 10.2672 23.7121 10.3991 23.9061C12.1412 25.7998 12.8155 25.8897 15.3612 24.5186C15.9231 24.0915 16.3895 23.5633 16.9234 23.1025C17.2338 22.8264 17.632 22.6691 18.0473 22.6585C18.9464 22.8046 19.469 23.5071 20.0984 24.0465C22.2619 25.7661 23.088 25.8392 25.156 24.513C25.5718 24.0241 25.9596 23.5295 25.7179 22.8271C25.6011 22.506 25.4602 22.1942 25.2965 21.8943C25.1595 21.6724 25.0074 21.4602 24.8413 21.2593C24.5433 20.9247 24.2033 20.6301 23.8298 20.3826C22.9419 19.5341 21.4359 19.4161 21.02 18.0112C22.0315 16.4714 24.0883 16.2073 25.1054 14.6676C25.3237 14.3351 25.5761 14.0262 25.8584 13.746C26.1843 13.5043 26.5103 13.229 26.9823 13.5043Z" fill="#FAF9FA"/>
<path d="M9.02795 12.1501V9.00879H26.9823V11.7005C26.2405 12.004 25.8584 11.3915 25.3358 11.0824C24.3917 10.2788 23.3465 10.3743 22.2788 10.6946C21.6191 10.9556 21.0273 11.363 20.548 11.886C20.2108 12.2175 19.8736 12.5435 19.5533 12.8863C19.2189 13.3418 18.8426 13.7651 18.4294 14.1506C18.249 14.2131 18.0561 14.2305 17.8674 14.2012C16.8503 13.6786 16.3389 12.6109 15.4567 11.9534C12.9335 9.85734 11.8883 9.91353 9.59552 12.2288C9.50467 12.277 9.40091 12.2954 9.29901 12.2813C9.1971 12.2672 9.10225 12.2213 9.02795 12.1501Z" fill="#FDFDFC"/>
<path d="M20.0759 11.65C20.5929 11.0319 21.0537 10.3294 21.9978 10.3407C23.2566 10.3407 24.5322 10.2114 25.7348 10.7453L26.9823 11.7006V12.5997C26.2068 13.2853 25.2965 13.2291 24.358 13.1111C22.9925 12.3805 21.3291 12.6166 20.0759 11.65Z" fill="#FAAD4B"/>
<path d="M24.2849 12.6108H26.9542V13.5043L26.1225 13.982C25.3719 14.226 24.568 14.2552 23.8017 14.0663C23.6949 13.9491 23.6209 13.8058 23.5874 13.6509C23.5538 13.4959 23.5618 13.3349 23.6106 13.184C23.7118 12.8581 24.0152 12.7569 24.2849 12.6108Z" fill="#AB3752"/>
<path d="M9.02795 12.1501C9.14913 12.1333 9.27205 12.1333 9.39322 12.1501C9.95517 11.7624 10.4778 11.6949 10.9049 12.3524C10.7307 13.156 10.0338 13.3415 9.39884 13.6L9.17968 13.6618L9.02795 13.5044V12.1501Z" fill="#3E8790"/>
<path d="M14.9004 18.118C14.0181 17.3987 12.7762 17.2188 12.0569 16.2467C12.5907 15.6117 13.6247 15.5498 13.9001 14.617C14.9678 13.6055 15.9119 14.3529 16.8559 14.8362C17.5869 15.2923 18.294 15.7856 18.9745 16.3141C19.5415 16.8112 20.0437 17.3776 20.4693 18C20.5602 18.1963 20.6026 18.4116 20.5928 18.6278C20.583 18.8439 20.5214 19.0545 20.4131 19.2419C19.7556 19.8488 19.188 19.3599 18.6317 19.062C17.6497 18.5675 16.5616 18.3205 15.4623 18.3427C15.259 18.3167 15.0656 18.2394 14.9004 18.118Z" fill="#63BCB8"/>
<path d="M19.6433 24.3163L17.8956 22.7541C17.582 22.6408 17.31 22.4352 17.1154 22.1644C16.9209 21.8936 16.8128 21.5702 16.8054 21.2368C16.8017 21.0662 16.8434 20.8977 16.9264 20.7486C17.0093 20.5994 17.1305 20.4751 17.2774 20.3883C17.8718 20.1638 18.5055 20.0625 19.1402 20.0905C19.7749 20.1185 20.3972 20.2753 20.9695 20.5513C21.3628 20.7648 21.7393 21.0064 22.1271 21.2312C22.5377 21.4377 22.9057 21.7199 23.2117 22.0629C23.4098 22.2984 23.5397 22.5837 23.5873 22.8879C23.6348 23.192 23.5982 23.5033 23.4814 23.7881C22.3631 25.1368 21.0313 24.9289 19.6433 24.3163Z" fill="#379A96"/>
<path d="M15.8613 24.7715C13.1752 26.7608 11.1128 26.4293 9.91589 23.8162C10.3598 23.2542 11.1466 23.1812 11.6017 22.6136C12.1933 22.1617 12.8758 21.8434 13.6023 21.6808C13.914 21.6005 14.2416 21.6062 14.5503 21.6972C14.859 21.7883 15.1373 21.9612 15.3556 22.1978C15.7995 22.9957 15.6141 23.9286 15.8613 24.7715Z" fill="#F2465E"/>
<path d="M19.6432 24.3163C20.9301 24.1589 22.3743 24.6141 23.3745 23.3497C24.6614 22.9002 25.4762 23.243 25.6223 24.704C23.5487 26.536 21.7842 26.4292 19.6432 24.3163Z" fill="#2FA795"/>
<path d="M14.9003 18.118C14.9897 18.1291 15.0803 18.1114 15.1588 18.0674C16.0411 18.3371 16.6648 18.7811 16.3895 19.86C16.2193 20.1851 15.9804 20.4691 15.6892 20.6923C15.398 20.9155 15.0617 21.0726 14.7036 21.1525C13.4168 21.0626 12.113 21.9673 10.8318 21.1244C11.8096 19.6408 13.4954 19.0733 14.9003 18.118Z" fill="#E53476"/>
<path d="M13.9339 14.8643C14.6981 17.2132 12.6414 15.7297 12.057 16.2467C11.0286 15.6847 10.0452 15.0722 9.55627 13.9314C10.6802 13.0323 11.8041 13.4819 12.9729 13.864C13.2027 13.9394 13.4105 14.07 13.578 14.2444C13.7456 14.4188 13.8678 14.6317 13.9339 14.8643Z" fill="#3E8790"/>
<path d="M25.5381 14.8362C24.5266 16.5557 22.5879 17.0109 21.11 18.0955C20.9973 18.1351 20.8741 18.1331 20.7628 18.0898C20.6515 18.0465 20.5594 17.9648 20.5031 17.8595C20.0591 16.8704 20.6379 16.2579 21.3123 15.6847C22.5879 14.7294 23.841 13.6842 25.5381 14.8362Z" fill="#D5454A"/>
<path d="M20.6211 18L21.11 18.0955C22.099 18.8766 23.3859 19.2194 24.2119 20.2422C23.5073 20.7385 22.7715 21.189 22.0091 21.5908C21.8358 21.6052 21.6619 21.5726 21.5057 21.4965C21.3494 21.4203 21.2166 21.3034 21.1212 21.1581C20.9301 20.5063 19.9074 20.259 20.2333 19.3543L20.194 18.1461C20.2726 17.9044 20.4188 17.8651 20.6211 18Z" fill="#3EBEB5"/>
<path d="M15.305 22.4956C14.78 22.1705 14.1683 22.0137 13.5517 22.046C13.2932 21.5571 13.5517 21.2649 13.9338 21.0233C14.2323 20.9438 14.5413 20.9115 14.8498 20.9277C15.7208 20.7142 16.4064 21.1694 17.0976 21.5908C17.3617 21.9842 17.6315 22.3776 17.8956 22.7765L17.1482 23.479C16.4439 23.3584 15.7973 23.0134 15.305 22.4956Z" fill="#F45357"/>
<path d="M22.009 21.5909C22.1327 20.1467 23.1779 20.2085 24.2119 20.2422C24.4256 20.3104 24.6224 20.4233 24.789 20.5735C24.9557 20.7237 25.0885 20.9077 25.1784 21.1132C25.0004 21.4198 24.7571 21.6834 24.4657 21.8854C24.1744 22.0874 23.8421 22.2229 23.4926 22.2821C23.283 22.2688 23.0845 22.1834 22.9306 22.0404C22.7507 22.0563 22.5698 22.0228 22.4074 21.9436C22.2451 21.8644 22.1073 21.7424 22.009 21.5909Z" fill="#319EB5"/>
<path d="M25.5381 14.8362C24.8148 14.7208 24.0742 14.7838 23.3808 15.0198C22.6874 15.2559 22.0621 15.6578 21.5595 16.1905C21.4505 16.0794 21.3744 15.9402 21.3397 15.7884C21.305 15.6367 21.313 15.4783 21.3628 15.3308C21.5527 14.9574 21.8173 14.6271 22.1402 14.3603C22.463 14.0935 22.8373 13.8959 23.2397 13.7798C23.3391 13.7592 23.4421 13.7627 23.5398 13.7901C23.6376 13.8174 23.7274 13.8679 23.8017 13.9371C24.145 13.6974 24.5553 13.5721 24.9741 13.5791C25.3928 13.5862 25.7987 13.7252 26.1338 13.9765L25.5381 14.8362Z" fill="#C7384B"/>
<path d="M14.8498 21.1132L13.99 21.1469C12.9833 22.0569 11.7146 22.6254 10.3654 22.7709C10.1527 22.7366 9.95613 22.6364 9.80347 22.4843C9.8604 22.1967 9.98073 21.9254 10.1557 21.6902C10.3307 21.455 10.5559 21.2617 10.815 21.1244C12.1637 21.012 13.4674 20.4501 14.8554 20.6861C14.9959 20.7873 15.0409 20.8828 14.9903 20.9783C14.9397 21.0738 14.9004 21.1132 14.8498 21.1132Z" fill="#CD256A"/>
<path d="M13.1358 14.3923C11.9802 14.0328 10.7708 13.8769 9.5618 13.9315C9.51129 13.8925 9.47072 13.8422 9.44337 13.7846C9.41603 13.7269 9.40269 13.6637 9.40445 13.5999C9.48312 12.6952 10.1237 12.5715 10.8487 12.5828C11.6129 12.2737 12.1187 12.7851 12.675 13.1447C12.9054 13.3321 13.0964 13.5632 13.237 13.8247C13.2643 13.9208 13.2694 14.0218 13.2519 14.1202C13.2344 14.2185 13.1947 14.3116 13.1358 14.3923Z" fill="#285373"/>
<path d="M15.3049 22.4956C16.131 22.4394 16.8166 22.636 17.1481 23.5014C16.8811 24.0678 16.4264 24.5244 15.8612 24.7939C14.8273 24.2095 15.1813 23.3216 15.3049 22.4956Z" fill="#F24754"/>
<path d="M22.9307 22.0404H23.324C23.7343 22.2539 24.2063 22.2933 24.6109 22.5012C25.12 22.6502 25.6654 22.6144 26.1506 22.4001C26.7744 23.3554 26.263 24.0466 25.5887 24.6984C25.0998 23.8218 24.2456 23.5464 23.3409 23.3441C23.2285 22.9114 23.0824 22.4956 22.9307 22.0404Z" fill="#67BCBB"/>
<path d="M26.1507 22.4057C25.8809 23.8892 25.0268 23.243 24.2625 22.9227C24.0939 21.9336 24.5828 21.5571 25.51 21.6021L26.1507 22.4057Z" fill="#257198"/>
<path d="M25.51 21.6021C24.9658 21.9005 24.5293 22.3625 24.2624 22.9227C24.0503 22.8562 23.8559 22.7429 23.6934 22.5912C23.531 22.4395 23.4047 22.2532 23.324 22.0461C23.9646 21.782 24.3804 21.0683 25.1784 21.1132L25.51 21.6021Z" fill="#2F85A5"/>
<path d="M11.8096 22.917C11.6073 24.0971 10.6857 23.7712 9.93829 23.8162C9.44939 23.4003 9.337 22.962 9.82028 22.4956C9.85677 22.4681 9.89977 22.4505 9.94508 22.4446C9.99039 22.4387 10.0365 22.4446 10.0788 22.4619C10.5115 23.1025 11.3713 22.1977 11.8096 22.917Z" fill="#DE6A92"/>
<path d="M12.6132 13.5044L10.8486 12.5828C10.4497 12.1445 9.90456 12.1895 9.39319 12.1389C10.7924 9.19428 13.2201 9.00883 15.8781 11.6612C15.0577 12.7514 13.7427 12.9706 12.6132 13.5044Z" fill="#7DF1D5"/>
<path d="M12.6133 13.5043C13.2483 12.0882 14.715 12.1276 15.8782 11.6443C16.8673 12.2119 17.2606 13.2739 17.9912 14.027C18.0387 14.1145 18.0519 14.2166 18.028 14.3134C18.004 14.4101 17.9448 14.4943 17.8619 14.5496C16.3053 14.218 14.7318 13.5043 13.046 13.9539L12.6133 13.5043Z" fill="#81DDD1"/>
<path d="M24.285 12.6109L23.8804 13.0886C23.4233 13.2682 22.9256 13.3187 22.4418 13.2347C21.3628 13.0886 20.1602 13.5044 19.2499 12.5716L20.0759 11.65C21.5595 11.6275 23.0093 11.7231 24.285 12.6109Z" fill="#F79D4F"/>
<path d="M19.2498 12.5715L22.9194 12.6053C22.9531 13.6224 22.0596 13.583 21.4695 13.8977C20.4411 13.9652 19.4128 14.6395 18.3732 13.8977C18.4091 13.6247 18.5067 13.3633 18.6586 13.1336C18.8105 12.9038 19.0126 12.7116 19.2498 12.5715Z" fill="#F78F50"/>
<path d="M25.7348 10.7452C24.4704 10.7733 23.1835 11.0431 21.9978 10.3406C23.3352 9.65505 24.594 9.62133 25.7348 10.7452Z" fill="#FAC056"/>
<path d="M18.3733 13.9202C19.4354 13.7404 20.4693 13.3583 21.5764 13.4931C21.6086 13.4552 21.6486 13.4248 21.6937 13.4039C21.7388 13.383 21.788 13.3722 21.8377 13.3722C21.8874 13.3722 21.9365 13.383 21.9817 13.4039C22.0268 13.4248 22.0668 13.4552 22.099 13.4931C21.8293 14.853 20.4693 14.4428 19.6938 14.9823C19.2347 15.0543 18.7683 15.0676 18.3058 15.0216C18.0417 14.9149 17.8226 14.7744 17.9911 14.4316C18.0081 14.3048 18.0081 14.1763 17.9911 14.0495C18.1151 13.997 18.2429 13.9538 18.3733 13.9202Z" fill="#F68250"/>
<path d="M22.0259 13.5043H21.5763L22.9194 12.6052L23.8803 13.0885C23.8522 13.3695 23.8185 13.6505 23.7904 13.937H23.3577C22.7171 14.3754 22.3293 14.0663 22.0259 13.5043Z" fill="#F68C4A"/>
<path d="M20.2388 19.3543C20.5086 19.9668 21.2054 20.3714 21.1267 21.1582C19.823 20.3377 18.3675 20.7985 16.9739 20.6805C16.3277 20.6805 16.249 20.2253 16.1984 19.7364C16.2378 18.9441 15.6814 18.517 15.1644 18.0506C17.1425 17.3257 18.6317 18.562 20.2388 19.3543Z" fill="#5AA0A5"/>
<path d="M17.9911 14.4091L18.4406 14.8362C18.7775 15.072 19.025 15.4145 19.1431 15.8084C19.1766 15.9585 19.1693 16.1148 19.1218 16.2611C19.0744 16.4074 18.9886 16.5382 18.8733 16.6401C17.7494 16.6401 17.2774 15.4768 16.3277 15.1116C15.5297 14.8025 14.8104 14.2068 13.9338 14.8643L13.1358 14.3923C13.0913 14.2495 13.0612 14.1027 13.0459 13.954C14.8554 12.3805 16.412 13.5044 17.9911 14.4091Z" fill="#70C9C3"/>
<path d="M18.8734 16.6401V15.7522C19.0476 14.6789 20.1378 15.1116 20.6885 14.6283C20.9002 14.6111 21.1111 14.6694 21.2839 14.7928C21.4567 14.9163 21.5802 15.0969 21.6326 15.3027C21.6326 15.5893 21.5876 15.8646 21.5595 16.1568C20.7503 16.4996 20.6548 17.2133 20.6211 17.9663L20.194 18.1124C19.3005 18.045 19.323 17.1346 18.8734 16.6401Z" fill="#F16C4D"/>
<path d="M16.1928 19.7365L16.9683 20.6805C17.0132 20.9784 17.0526 21.2706 17.0975 21.5684C16.2097 22.1304 15.6646 20.9503 14.8497 21.1132V20.6861L16.1928 19.7365Z" fill="#F65C51"/>
<path d="M11.8096 22.9171C11.332 22.4114 10.3036 23.9567 10.1238 22.4507L14.0574 21.147L13.5517 22.0236L11.8096 22.9171Z" fill="#B0236D"/>
<path d="M21.6325 15.3364L20.6772 14.8418C20.488 14.9976 20.2506 15.0827 20.0056 15.0827C19.7606 15.0827 19.5232 14.9976 19.3341 14.8418C19.941 13.8135 21.2841 14.2799 22.0259 13.4988L23.3577 13.9427L21.6325 15.3364Z" fill="#F57C4D"/>
<path d="M19.3342 14.8418H20.6772C20.3288 15.651 19.3848 15.2858 18.8734 15.7634L18.4407 14.8362C18.7441 14.3473 19.0363 14.8025 19.3342 14.8418Z" fill="#F17850"/>
</g>
<defs>
<clipPath id="clip0_10_2467">
<rect width="18" height="18" fill="white" transform="translate(8.99988 9)"/>
</clipPath>
</defs>
</svg>
