<svg width="36" height="36" viewBox="0 0 36 36" fill="none" xmlns="http://www.w3.org/2000/svg">
<path d="M1.00871e-09 18C7.8474e-05 6.75 3.21436 8.78424e-06 18 0C32.7856 -8.78422e-06 36 5.94643 36 18C36 30.8571 30.5358 36 18 36C6.91071 36 -9.64087e-05 31.8214 1.00871e-09 18Z" fill="#E69313"/>
<g clip-path="url(#clip0_10_2596)">
<path d="M20.061 24.8288C19.9736 24.8293 19.8869 24.8445 19.8045 24.8738C19.1694 25.0486 18.5136 25.1368 17.8549 25.1359C16.8985 25.1386 15.951 24.9516 15.0673 24.5856C14.1837 24.2197 13.3814 23.6821 12.7069 23.004C12.0286 22.3292 11.4909 21.5266 11.125 20.6425C10.759 19.7584 10.5721 18.8106 10.575 17.8538C10.575 15.9109 11.331 14.0839 12.7046 12.7092L13.9781 13.9388L15.5779 15.4845L15.5846 15.4778V15.5014C15.6767 15.581 15.7512 15.6789 15.8033 15.7888C15.8554 15.8988 15.884 16.0184 15.8873 16.14C15.8905 16.2617 15.8684 16.3827 15.8223 16.4953C15.7762 16.6079 15.7071 16.7096 15.6195 16.794V16.803L14.067 18.4275L13.2874 19.2443C13.1978 19.3187 13.1255 19.4119 13.0758 19.5172C13.026 19.6226 12.9999 19.7375 12.9994 19.854C12.999 19.9835 13.0306 20.111 13.0914 20.2253C13.1523 20.3395 13.2405 20.4369 13.3481 20.5088C13.5186 20.6247 13.7274 20.6699 13.9306 20.6349C14.1337 20.5998 14.3154 20.4873 14.4371 20.3209L16.758 17.8909L16.7535 17.8864C16.9858 17.6524 17.1684 17.3738 17.2903 17.0674C17.4122 16.7609 17.4708 16.433 17.4627 16.1034C17.4547 15.7737 17.38 15.4491 17.2432 15.149C17.1064 14.849 16.9104 14.5796 16.6669 14.3573L16.6725 14.3517L13.941 11.7135L13.9421 11.7124L12.7868 10.5919L12.7834 10.5942C12.3583 10.8915 11.96 11.2254 11.5931 11.592L11.5729 11.6145C9.92233 13.2712 8.99693 15.5153 9.00001 17.8538C8.99824 19.0169 9.22643 20.1689 9.67146 21.2435C10.1165 22.3182 10.7696 23.2942 11.5931 24.1155C12.4145 24.9394 13.3907 25.5928 14.4655 26.038C15.5404 26.4833 16.6926 26.7116 17.856 26.7098C18.6947 26.7106 19.5291 26.592 20.3344 26.3577C20.4843 26.3008 20.6134 26.1996 20.7044 26.0676C20.7955 25.9355 20.8442 25.7789 20.844 25.6185C20.8449 25.4099 20.7629 25.2094 20.6161 25.0611C20.4693 24.9128 20.2697 24.8289 20.061 24.8277V24.8288Z" fill="white"/>
<path d="M26.0145 14.4079C25.57 13.3556 24.9255 12.3997 24.1167 11.5931C23.2953 10.7696 22.3192 10.1166 21.2446 9.67154C20.17 9.22652 19.018 8.99831 17.8549 9.00001C17.0595 9.00001 16.2799 9.10351 15.525 9.30938C15.415 9.32592 15.3096 9.36548 15.2158 9.42547C15.1221 9.48547 15.042 9.56455 14.9809 9.65757C14.9197 9.75058 14.8789 9.85544 14.861 9.96531C14.8431 10.0752 14.8486 10.1876 14.8771 10.2952C14.9055 10.4028 14.9564 10.5032 15.0262 10.5898C15.0961 10.6765 15.1835 10.7474 15.2826 10.798C15.3818 10.8486 15.4905 10.8778 15.6016 10.8835C15.7128 10.8893 15.8239 10.8716 15.9278 10.8315C16.5559 10.6606 17.204 10.5744 17.8549 10.575C18.8113 10.5724 19.7588 10.7595 20.6424 11.1254C21.526 11.4913 22.3284 12.0289 23.0029 12.7069C23.6811 13.3813 24.2189 14.1836 24.585 15.0673C24.9511 15.9509 25.1384 16.8984 25.1359 17.8549C25.1359 19.7561 24.4114 21.5449 23.0952 22.9095L22.1367 21.9724L20.5459 20.4165L20.5392 20.4244V20.3996C20.4476 20.3195 20.3738 20.2212 20.3223 20.1109C20.2709 20.0007 20.2431 19.8809 20.2405 19.7593C20.238 19.6376 20.2608 19.5168 20.3076 19.4045C20.3544 19.2922 20.424 19.1909 20.5122 19.107V19.098L22.0725 17.4825L22.8589 16.6703C22.949 16.5965 23.0217 16.5039 23.0721 16.3989C23.1224 16.2939 23.1491 16.1792 23.1503 16.0628C23.1513 15.9331 23.1202 15.8053 23.0598 15.6906C22.9993 15.576 22.9113 15.4781 22.8038 15.4058C22.6341 15.2891 22.4258 15.2428 22.2227 15.2766C22.0196 15.3104 21.8376 15.4216 21.7148 15.5869L19.3793 18.0023L19.3849 18.0079C19.1511 18.2405 18.9667 18.518 18.8429 18.8238C18.7191 19.1295 18.6584 19.4571 18.6645 19.7869C18.6706 20.1167 18.7434 20.4419 18.8784 20.7428C19.0134 21.0438 19.2079 21.3143 19.4502 21.5381L19.4445 21.5426L21.8802 23.9243L23.0265 25.0448C23.4124 24.7669 23.7769 24.4575 24.1178 24.1166L24.2213 24.0109C25.8215 22.3616 26.7148 20.1529 26.7109 17.8549C26.713 16.6707 26.4762 15.4983 26.0145 14.4079Z" fill="white"/>
</g>
<defs>
<clipPath id="clip0_10_2596">
<rect width="18" height="18" fill="white" transform="translate(9 9)"/>
</clipPath>
</defs>
</svg>
