<svg width="36" height="36" viewBox="0 0 36 36" fill="none" xmlns="http://www.w3.org/2000/svg">
<mask id="path-1-inside-1_342_2266" fill="white">
<path d="M1.00871e-09 18C7.8474e-05 6.75 3.21436 8.78424e-06 18 0C32.7856 -8.78422e-06 36 5.94643 36 18C36 30.8571 30.5358 36 18 36C6.91071 36 -9.64087e-05 31.8214 1.00871e-09 18Z"/>
</mask>
<path d="M1.00871e-09 18C7.8474e-05 6.75 3.21436 8.78424e-06 18 0C32.7856 -8.78422e-06 36 5.94643 36 18C36 30.8571 30.5358 36 18 36C6.91071 36 -9.64087e-05 31.8214 1.00871e-09 18Z" fill="#3859FF"/>
<path d="M1.00871e-09 18L1 18L1.00871e-09 18ZM1.00871e-09 18L1 18C1.00004 12.4188 1.81003 8.23746 4.21467 5.43204C6.5888 2.66223 10.7301 1 18 1V0V-1C10.4842 -0.999996 5.6256 0.712782 2.69616 4.13046C-0.202768 7.51254 -0.99996 12.3312 -1 18L1.00871e-09 18ZM18 0V1C25.3037 0.999996 29.4342 2.47694 31.7961 5.14302C34.1841 7.83854 35 12.0002 35 18H36H37C37 11.9462 36.2087 7.10788 33.2931 3.81679C30.3514 0.496269 25.4819 -1 18 -1V0ZM36 18H35C35 24.3159 33.6537 28.4908 30.9987 31.1095C28.3409 33.7309 24.1622 35 18 35V36V37C24.3736 37 29.1949 35.6977 32.4031 32.5334C35.6142 29.3663 37 24.5413 37 18H36ZM18 36V35C12.5482 35 8.34866 33.9666 5.50644 31.4362C2.68833 28.9271 0.999953 24.7587 1 18L1.00871e-09 18L-1 18C-1.00005 25.0627 0.766929 29.8943 4.17652 32.9299C7.562 35.9441 12.3625 37 18 37V36Z" fill="black" fill-opacity="0.08" mask="url(#path-1-inside-1_342_2266)"/>
<path d="M17.9925 27.4812C17.9657 27.4807 17.9391 27.4857 17.9142 27.4959C17.8894 27.506 17.8669 27.5211 17.8481 27.5402C17.8293 27.5594 17.8146 27.5821 17.8048 27.6071C17.7951 27.6321 17.7905 27.6588 17.7914 27.6856C17.7904 27.7125 17.7949 27.7393 17.8046 27.7644C17.8143 27.7894 17.829 27.8123 17.8478 27.8315C17.8666 27.8507 17.8891 27.8659 17.914 27.8761C17.9389 27.8863 17.9656 27.8913 17.9925 27.8908C18.0195 27.8914 18.0462 27.8864 18.0712 27.8762C18.0961 27.866 18.1187 27.8509 18.1376 27.8317C18.1565 27.8125 18.1713 27.7896 18.1811 27.7645C18.1909 27.7394 18.1954 27.7125 18.1944 27.6856C18.1961 27.6349 18.1782 27.5855 18.1445 27.5476C18.1107 27.5097 18.0637 27.4862 18.0131 27.482L17.9925 27.4812ZM16.0803 12.5312C16.4333 12.6443 16.727 12.8929 16.8969 13.2224C17.0667 13.5519 17.0988 13.9353 16.9861 14.2885L16.9276 14.4303L16.9144 14.4632L16.8996 14.5077C16.8419 14.6396 16.8139 14.7715 16.8139 14.9182C16.785 15.5034 17.2012 15.9724 17.7914 16.0012H18.0931C19.172 16.0449 20.0201 16.9681 19.9773 18.0808C19.9344 19.1787 19.0277 20.0425 17.9348 19.9988H17.7914C17.2021 20.0136 16.7413 20.5263 16.7702 21.1263C16.7702 21.2285 16.785 21.3159 16.8139 21.4041C16.9859 21.7151 17.2682 21.9504 17.6051 22.0635C18.2233 22.2531 18.8555 21.9605 19.1712 21.4189L19.186 21.3901C19.5173 20.8626 20.1504 20.5988 20.7685 20.8041C21.4724 21.0381 21.9043 21.8146 21.6744 22.5902C21.6218 22.7624 21.5358 22.9225 21.4212 23.0613C21.3067 23.2002 21.1659 23.3151 21.0068 23.3995C20.8478 23.4839 20.6737 23.5361 20.4945 23.553C20.3153 23.57 20.1345 23.5515 19.9624 23.4985C19.653 23.3955 19.3888 23.1884 19.2149 22.9125L19.2008 22.8836C19.036 22.6174 18.8192 22.4056 18.4994 22.2976L18.4533 22.2827C18.1551 22.1827 17.8315 22.1893 17.5378 22.3015C17.244 22.4136 16.9983 22.6244 16.8427 22.8976C16.7468 23.0567 16.6195 23.1945 16.4686 23.3028C16.3177 23.411 16.1463 23.4874 15.9649 23.5273C15.6078 23.6038 15.2349 23.5359 14.9278 23.3384C14.6206 23.1409 14.4041 22.8298 14.3255 22.4731C14.1532 21.7264 14.5991 20.9648 15.3616 20.7892C15.4419 20.7715 15.5235 20.762 15.6055 20.7604H15.6204C16.1808 20.7019 16.5691 20.2477 16.5402 19.6617C16.5333 19.4574 16.4684 19.2593 16.3531 19.0905C16.1412 18.743 16.0363 18.3408 16.0514 17.9341C16.061 17.5811 16.1651 17.2373 16.3531 16.9384C16.4685 16.7777 16.5262 16.5724 16.5402 16.3672C16.555 15.782 16.1231 15.3278 15.5627 15.2693L15.505 15.2545C15.421 15.2442 15.3384 15.2248 15.2585 15.1968L15.2173 15.1811C14.876 15.0588 14.5953 14.8089 14.4344 14.484C14.2735 14.159 14.2448 13.7844 14.3543 13.4387C14.4642 13.0904 14.7072 12.7996 15.0305 12.6296C15.3537 12.4597 15.7311 12.4243 16.0803 12.5312ZM11.4852 20.8642C11.5896 20.7576 11.7206 20.6808 11.8646 20.6416C12.0086 20.6025 12.1605 20.6025 12.3045 20.6417C12.5971 20.7208 12.8262 20.9541 12.9045 21.2516C12.943 21.398 12.943 21.5518 12.9045 21.6981C12.8659 21.8444 12.7901 21.9783 12.6844 22.0866C12.3531 22.4245 11.8165 22.4245 11.4852 22.0866C11.3257 21.9231 11.2365 21.7038 11.2365 21.4754C11.2365 21.247 11.3257 21.0277 11.4852 20.8642ZM23.7209 20.6219C23.8667 20.5857 24.0194 20.5894 24.1633 20.6325C24.3071 20.6755 24.4367 20.7564 24.5386 20.8667C24.7479 21.0925 24.8221 21.4148 24.7339 21.7115C24.6915 21.8564 24.6115 21.9874 24.5021 22.0914C24.3926 22.1953 24.2576 22.2684 24.1108 22.3033C23.6567 22.4089 23.2041 22.122 23.097 21.6596C23.0446 21.4394 23.0806 21.2075 23.1973 21.0135C23.3139 20.8195 23.5019 20.6789 23.7209 20.6219ZM23.6682 17.0035C23.927 17.2673 24.0721 17.6242 24.0721 17.9975C24.0721 18.3701 23.927 18.7278 23.6682 18.9916C23.4086 19.2553 23.0583 19.4037 22.6915 19.4037C22.3255 19.4037 21.9744 19.2553 21.7156 18.9916C21.4562 18.7257 21.311 18.369 21.311 17.9975C21.311 17.6261 21.4562 17.2694 21.7156 17.0035C21.8426 16.8732 21.9944 16.7696 22.1621 16.6989C22.3298 16.6282 22.5099 16.5917 22.6919 16.5917C22.8739 16.5917 23.054 16.6282 23.2217 16.6989C23.3894 16.7696 23.5412 16.8732 23.6682 17.0035ZM14.4013 17.1379C14.7013 17.5368 14.7698 18.0676 14.581 18.5316C14.5138 18.701 14.4136 18.8553 14.2862 18.9855C14.1587 19.1157 14.0066 19.2192 13.8388 19.2901C13.6709 19.3609 13.4906 19.3976 13.3084 19.398C13.1262 19.3984 12.9458 19.3625 12.7776 19.2924C12.0729 18.9957 11.739 18.1731 12.03 17.456C12.121 17.2294 12.2704 17.0309 12.4629 16.8807C12.6554 16.7304 12.8843 16.6337 13.1262 16.6005C13.3673 16.5686 13.6126 16.6016 13.8367 16.6961C14.0608 16.7906 14.2557 16.943 14.4013 17.1379ZM23.9171 13.6588C24.2204 13.6588 24.5007 13.8236 24.6523 14.0907C24.7269 14.2224 24.7661 14.3712 24.7661 14.5226C24.7661 14.6739 24.7269 14.8227 24.6523 14.9545C24.5791 15.0852 24.4724 15.194 24.3432 15.2699C24.214 15.3458 24.0669 15.386 23.9171 15.3864C23.4489 15.3864 23.0682 14.999 23.0682 14.5226C23.0682 14.0453 23.4489 13.6588 23.9171 13.6588ZM12.0827 13.6588C12.3861 13.6588 12.6655 13.8236 12.8171 14.0907C12.8917 14.2224 12.9309 14.3712 12.9309 14.5226C12.9309 14.6739 12.8917 14.8227 12.8171 14.9545C12.7439 15.085 12.6374 15.1938 12.5083 15.2697C12.3793 15.3456 12.2324 15.3859 12.0827 15.3864C11.6138 15.3864 11.2338 14.999 11.2338 14.5226C11.2338 14.0453 11.6138 13.6588 12.0827 13.6588ZM20.3506 12.443C21.1131 12.443 21.7312 13.0727 21.7312 13.8492C21.7312 14.6256 21.1131 15.2545 20.3506 15.2545C19.5882 15.2545 18.9709 14.6256 18.9709 13.8492C18.9709 13.0727 19.5891 12.443 20.3506 12.443ZM18.1862 11.8792C18.3339 11.8451 18.4698 11.7723 18.58 11.6683C18.6903 11.5643 18.7708 11.4329 18.8134 11.2874C18.8574 11.1414 18.8625 10.9863 18.828 10.8377C18.7936 10.6891 18.721 10.552 18.6173 10.4401C18.5149 10.3297 18.3846 10.2489 18.2401 10.2062C18.0956 10.1636 17.9423 10.1607 17.7963 10.1978C17.3455 10.3132 17.0702 10.7748 17.1765 11.2339C17.2837 11.6938 17.7329 11.9815 18.1862 11.8792ZM18.1862 25.789C18.3323 25.7532 18.4664 25.6795 18.5749 25.5753C18.6835 25.4711 18.7626 25.3401 18.8044 25.1956C18.8471 25.0506 18.8515 24.8971 18.8173 24.7499C18.7831 24.6027 18.7113 24.4669 18.609 24.3557C18.508 24.2459 18.3795 24.165 18.2368 24.1214C18.0941 24.0778 17.9423 24.073 17.7972 24.1076C17.6495 24.1416 17.5135 24.2142 17.4031 24.3181C17.2928 24.4219 17.212 24.5532 17.1691 24.6986C17.1253 24.8447 17.1204 24.9998 17.1549 25.1484C17.1895 25.297 17.2623 25.4341 17.3661 25.5459C17.568 25.7627 17.8656 25.8566 18.1516 25.7973L18.187 25.789H18.1862ZM22.2777 10.994C22.3464 10.9937 22.4144 10.9798 22.4777 10.953C22.541 10.9263 22.5984 10.8872 22.6465 10.8382C22.6946 10.7891 22.7326 10.731 22.7581 10.6672C22.7837 10.6034 22.7963 10.5352 22.7953 10.4665C22.7953 10.1739 22.5654 9.939 22.2777 9.939C22.209 9.93932 22.141 9.95325 22.0777 9.98C22.0144 10.0067 21.957 10.0458 21.9089 10.0948C21.8608 10.1439 21.8228 10.202 21.7973 10.2658C21.7718 10.3296 21.7591 10.3978 21.7601 10.4665C21.7601 10.7591 21.9909 10.994 22.2777 10.994ZM13.7221 10.994C13.7909 10.9937 13.8588 10.9798 13.9221 10.953C13.9854 10.9263 14.0428 10.8872 14.091 10.8382C14.1391 10.7891 14.177 10.731 14.2026 10.6672C14.2281 10.6034 14.2407 10.5352 14.2398 10.4665C14.2398 10.1739 14.009 9.939 13.7221 9.939C13.6534 9.93932 13.5855 9.95325 13.5222 9.98C13.4588 10.0067 13.4015 10.0458 13.3533 10.0948C13.3052 10.1439 13.2673 10.202 13.2417 10.2658C13.2162 10.3296 13.2035 10.3978 13.2045 10.4665C13.2045 10.7591 13.4345 10.994 13.7221 10.994ZM9.45096 17.4659C9.38224 17.4662 9.31427 17.4802 9.25096 17.5069C9.18766 17.5337 9.13029 17.5727 9.08216 17.6217C9.03403 17.6708 8.99609 17.7289 8.97055 17.7927C8.94501 17.8565 8.93236 17.9247 8.93334 17.9934C8.93334 18.2852 9.16413 18.5201 9.45096 18.5201C9.58489 18.5196 9.71343 18.4673 9.80974 18.3742C9.90604 18.2811 9.96266 18.1545 9.96776 18.0206L9.96858 17.9926C9.97082 17.9236 9.95903 17.8548 9.93393 17.7904C9.90884 17.7261 9.87096 17.6675 9.82258 17.6182C9.77419 17.5688 9.71632 17.5299 9.65245 17.5036C9.58858 17.4772 9.52003 17.4642 9.45096 17.4651V17.4659ZM13.7221 24.9912C13.6534 24.9916 13.5855 25.0055 13.5222 25.0323C13.4589 25.0591 13.4016 25.0981 13.3535 25.1471C13.3053 25.1962 13.2674 25.2542 13.2418 25.318C13.2163 25.3818 13.2036 25.45 13.2045 25.5187C13.2045 25.8113 13.4345 26.0462 13.7221 26.0462C13.7909 26.0459 13.8588 26.0319 13.9221 26.0052C13.9854 25.9785 14.0428 25.9394 14.091 25.8904C14.1391 25.8413 14.177 25.7832 14.2026 25.7194C14.2281 25.6556 14.2407 25.5874 14.2398 25.5187C14.2398 25.2261 14.009 24.9912 13.7221 24.9912ZM22.2777 25.006C22.209 25.0064 22.1411 25.0204 22.0778 25.0471C22.0145 25.0739 21.9571 25.1129 21.909 25.162C21.8609 25.211 21.823 25.2691 21.7974 25.3329C21.7718 25.3966 21.7592 25.4648 21.7601 25.5335C21.7601 25.8261 21.9909 26.061 22.2777 26.061C22.3464 26.0607 22.4144 26.0468 22.4777 26.02C22.541 25.9933 22.5984 25.9543 22.6465 25.9052C22.6946 25.8562 22.7326 25.7981 22.7581 25.7343C22.7837 25.6705 22.7963 25.6022 22.7953 25.5335C22.7953 25.2409 22.5654 25.006 22.2777 25.006ZM26.5489 17.4659C26.4802 17.4663 26.4122 17.4803 26.349 17.507C26.2857 17.5338 26.2283 17.5728 26.1802 17.6219C26.1321 17.6709 26.0942 17.729 26.0686 17.7927C26.043 17.8565 26.0303 17.9247 26.0313 17.9934C26.0313 18.2852 26.2612 18.5201 26.5489 18.5201C26.6176 18.5198 26.6856 18.5059 26.7489 18.4791C26.8122 18.4524 26.8696 18.4133 26.9177 18.3643C26.9658 18.3152 27.0038 18.2571 27.0293 18.1933C27.0548 18.1295 27.0675 18.0613 27.0665 17.9926C27.0665 17.7 26.8357 17.4651 26.5489 17.4651V17.4659ZM26.2324 13.3513C26.2593 13.3518 26.286 13.3468 26.3109 13.3366C26.3357 13.3264 26.3583 13.3112 26.3771 13.292C26.3959 13.2728 26.4106 13.2499 26.4203 13.2249C26.43 13.1998 26.4345 13.173 26.4335 13.1461C26.4345 13.1192 26.43 13.0924 26.4203 13.0673C26.4106 13.0423 26.3959 13.0194 26.3771 13.0002C26.3583 12.981 26.3357 12.9658 26.3109 12.9556C26.286 12.9454 26.2593 12.9404 26.2324 12.9409C26.2055 12.9405 26.1789 12.9456 26.1541 12.9559C26.1292 12.9661 26.1067 12.9813 26.0879 13.0005C26.0691 13.0196 26.0544 13.0424 26.0447 13.0675C26.0349 13.0925 26.0304 13.1193 26.0313 13.1461C26.0313 13.2631 26.1318 13.3513 26.2324 13.3513ZM17.9925 8.51884C18.0194 8.51942 18.0461 8.5145 18.071 8.5044C18.096 8.4943 18.1186 8.47923 18.1375 8.46009C18.1564 8.44096 18.1712 8.41818 18.181 8.39313C18.1908 8.36809 18.1954 8.34131 18.1944 8.31443C18.1955 8.28741 18.1909 8.26047 18.1811 8.23528C18.1714 8.21008 18.1565 8.18715 18.1375 8.16792C18.1185 8.14869 18.0958 8.13355 18.0707 8.12345C18.0456 8.11335 18.0187 8.1085 17.9917 8.1092C17.9648 8.10873 17.9381 8.11375 17.9132 8.12395C17.8883 8.13415 17.8658 8.14932 17.847 8.16853C17.8281 8.18774 17.8134 8.21059 17.8037 8.23567C17.794 8.26076 17.7896 8.28756 17.7906 8.31443C17.7906 8.42405 17.8796 8.50895 17.9744 8.51802L17.9917 8.51884H17.9925ZM9.76664 13.3513C9.7936 13.3519 9.82039 13.347 9.84538 13.3368C9.87036 13.3267 9.893 13.3115 9.91191 13.2923C9.93082 13.2731 9.94561 13.2502 9.95535 13.2251C9.9651 13.1999 9.9696 13.173 9.96858 13.1461C9.96959 13.1192 9.96512 13.0924 9.95542 13.0673C9.94573 13.0423 9.93102 13.0194 9.91219 13.0002C9.89337 12.981 9.87083 12.9658 9.84594 12.9556C9.82106 12.9454 9.79436 12.9404 9.76747 12.9409C9.74061 12.9405 9.71396 12.9456 9.68913 12.9559C9.6643 12.9661 9.64181 12.9813 9.62301 13.0005C9.60421 13.0196 9.5895 13.0424 9.57976 13.0675C9.57002 13.0925 9.56546 13.1193 9.56635 13.1461C9.56534 13.173 9.56982 13.1998 9.57951 13.2249C9.58921 13.2499 9.60392 13.2728 9.62274 13.292C9.64156 13.3112 9.66411 13.3264 9.68899 13.3366C9.71387 13.3468 9.74058 13.3518 9.76747 13.3513H9.76664ZM9.76664 22.6347C9.73989 22.6343 9.71335 22.6394 9.68862 22.6496C9.66389 22.6598 9.64149 22.6749 9.62277 22.694C9.60404 22.7132 9.58939 22.7359 9.57969 22.7608C9.57 22.7857 9.56546 22.8124 9.56635 22.8391C9.56534 22.866 9.56982 22.8928 9.57951 22.9179C9.58921 22.9429 9.60392 22.9658 9.62274 22.985C9.64156 23.0042 9.66411 23.0194 9.68899 23.0296C9.71387 23.0398 9.74058 23.0448 9.76747 23.0443C9.79439 23.0449 9.82115 23.04 9.84609 23.0298C9.87102 23.0197 9.89362 23.0045 9.91246 22.9853C9.93131 22.966 9.94601 22.9431 9.95567 22.918C9.96532 22.8929 9.96971 22.866 9.96858 22.8391C9.96776 22.7857 9.94641 22.7347 9.90896 22.6966C9.87151 22.6586 9.82084 22.6364 9.76747 22.6347H9.76664ZM26.2472 22.6199C26.2203 22.6193 26.1936 22.6242 26.1687 22.6343C26.1438 22.6444 26.1212 22.6595 26.1023 22.6786C26.0834 22.6977 26.0686 22.7205 26.0588 22.7456C26.049 22.7706 26.0444 22.7974 26.0453 22.8243C26.0442 22.8513 26.0486 22.8782 26.0583 22.9035C26.068 22.9287 26.0827 22.9517 26.1016 22.971C26.1206 22.9903 26.1433 23.0055 26.1683 23.0158C26.1933 23.026 26.2202 23.0309 26.2472 23.0303C26.2742 23.0309 26.301 23.026 26.326 23.0157C26.351 23.0055 26.3737 22.9903 26.3925 22.971C26.4114 22.9516 26.4261 22.9287 26.4357 22.9034C26.4453 22.8782 26.4496 22.8512 26.4483 22.8243C26.4475 22.7709 26.4262 22.7198 26.3887 22.6818C26.3513 22.6437 26.3006 22.6215 26.2472 22.6199Z" fill="white"/>
</svg>
