<svg width="36" height="36" viewBox="0 0 36 36" fill="none" xmlns="http://www.w3.org/2000/svg">
<path d="M1.00871e-09 18C7.8474e-05 6.75 3.21436 8.78424e-06 18 0C32.7856 -8.78422e-06 36 5.94643 36 18C36 30.8571 30.5358 36 18 36C6.91071 36 -9.64087e-05 31.8214 1.00871e-09 18Z" fill="#A534F0"/>
<path d="M15.0684 22.5269C15.0684 23.6803 15.3223 24.5401 15.8301 25.106C16.3497 25.6718 17.0759 25.9546 18.0088 25.9546C18.9299 25.9546 19.6446 25.6718 20.1523 25.106C20.6719 24.5401 20.9316 23.6802 20.9316 22.5269V15.9819H23.5V23.0981C23.5 24.1209 23.2815 25.0133 22.8447 25.7749C22.4078 26.5257 21.7758 27.1085 20.9492 27.522C20.1226 27.9246 19.1424 28.1255 18.0088 28.1255C16.8634 28.1255 15.8774 27.9246 15.0508 27.522C14.2242 27.1085 13.5922 26.5257 13.1553 25.7749C12.7185 25.0133 12.5 24.1209 12.5 23.0981V15.9819H15.0684V22.5269ZM23.5 11.1323V13.979L18.0049 10.7212L12.5 13.9849V11.1382L18.0049 7.87451L23.5 11.1323Z" fill="white"/>
</svg>
