<svg width="36" height="36" viewBox="0 0 36 36" fill="none" xmlns="http://www.w3.org/2000/svg">
<mask id="path-1-inside-1_327_2042" fill="white">
<path d="M1.00871e-09 18C7.8474e-05 6.75 3.21436 8.78424e-06 18 0C32.7856 -8.78422e-06 36 5.94643 36 18C36 30.8571 30.5358 36 18 36C6.91071 36 -9.64087e-05 31.8214 1.00871e-09 18Z"/>
</mask>
<path d="M1.00871e-09 18C7.8474e-05 6.75 3.21436 8.78424e-06 18 0C32.7856 -8.78422e-06 36 5.94643 36 18C36 30.8571 30.5358 36 18 36C6.91071 36 -9.64087e-05 31.8214 1.00871e-09 18Z" fill="#4678BE"/>
<path d="M1.00871e-09 18L1 18L1.00871e-09 18ZM1.00871e-09 18L1 18C1.00004 12.4188 1.81003 8.23746 4.21467 5.43204C6.5888 2.66223 10.7301 1 18 1V0V-1C10.4842 -0.999996 5.6256 0.712782 2.69616 4.13046C-0.202768 7.51254 -0.99996 12.3312 -1 18L1.00871e-09 18ZM18 0V1C25.3037 0.999996 29.4342 2.47694 31.7961 5.14302C34.1841 7.83854 35 12.0002 35 18H36H37C37 11.9462 36.2087 7.10788 33.2931 3.81679C30.3514 0.496269 25.4819 -1 18 -1V0ZM36 18H35C35 24.3159 33.6537 28.4908 30.9987 31.1095C28.3409 33.7309 24.1622 35 18 35V36V37C24.3736 37 29.1949 35.6977 32.4031 32.5334C35.6142 29.3663 37 24.5413 37 18H36ZM18 36V35C12.5482 35 8.34866 33.9666 5.50644 31.4362C2.68833 28.9271 0.999953 24.7587 1 18L1.00871e-09 18L-1 18C-1.00005 25.0627 0.766929 29.8943 4.17652 32.9299C7.562 35.9441 12.3625 37 18 37V36Z" fill="black" fill-opacity="0.09" mask="url(#path-1-inside-1_327_2042)"/>
<g clip-path="url(#clip0_327_2042)">
<path d="M9.80716 9H9.80621C10.3443 9 10.6134 9.26905 10.6134 9.80716V17.6277C10.6134 18.1658 10.3443 18.4348 9.80621 18.4348H9.80716C9.26905 18.4348 9 18.1658 9 17.6277V9.80716C9 9.26905 9.26905 9 9.80716 9Z" fill="white"/>
<path d="M16.0143 11.2339H16.0134C16.5515 11.2339 16.8205 11.5029 16.8205 12.041V17.1303C16.8205 17.6684 16.5515 17.9375 16.0134 17.9375H16.0143C15.4762 17.9375 15.2072 17.6684 15.2072 17.1303V12.041C15.2072 11.5029 15.4762 11.2339 16.0143 11.2339Z" fill="white"/>
<path d="M16.0143 19.6759H16.0134C16.5515 19.6759 16.8205 19.945 16.8205 20.4831V25.5723C16.8205 26.1104 16.5515 26.3795 16.0134 26.3795H16.0143C15.4762 26.3795 15.2072 26.1104 15.2072 25.5723V20.4831C15.2072 19.945 15.4762 19.6759 16.0143 19.6759Z" fill="white"/>
<path d="M12.9108 15.9518H12.9098C13.448 15.9518 13.717 16.2208 13.717 16.7589V24.3313C13.717 24.8694 13.448 25.1384 12.9098 25.1384H12.9108C12.3727 25.1384 12.1036 24.8694 12.1036 24.3313V16.7589C12.1036 16.2208 12.3727 15.9518 12.9108 15.9518Z" fill="white"/>
<path d="M9.80716 19.9241H9.80621C10.3443 19.9241 10.6134 20.1931 10.6134 20.7312V23.4615C10.6134 23.9997 10.3443 24.2687 9.80621 24.2687H9.80716C9.26905 24.2687 9 23.9997 9 23.4615V20.7312C9 20.1931 9.26905 19.9241 9.80716 19.9241Z" fill="white"/>
<path d="M12.9108 9.9928H12.9098C13.448 9.9928 13.717 10.2619 13.717 10.8V13.5303C13.717 14.0684 13.448 14.3374 12.9098 14.3374H12.9108C12.3727 14.3374 12.1036 14.0684 12.1036 13.5303V10.8C12.1036 10.2619 12.3727 9.9928 12.9108 9.9928Z" fill="white"/>
<path d="M18.4348 11.8961C18.4348 11.43 18.8232 11.052 19.3036 11.052L26.1312 9C26.6116 9 27 9.37895 27 9.84505V23.4824C27 23.9495 26.6116 24.3275 26.1312 24.3275L19.3036 26.3795C19.0763 26.3825 18.8572 26.2952 18.6943 26.1368C18.5314 25.9783 18.4381 25.7616 18.4348 25.5344V11.8961Z" fill="white"/>
</g>
<defs>
<clipPath id="clip0_327_2042">
<rect width="18" height="18" fill="white" transform="translate(9 9)"/>
</clipPath>
</defs>
</svg>
