<svg width="26" height="14" viewBox="0 0 26 14" fill="none" xmlns="http://www.w3.org/2000/svg">
<g clip-path="url(#clip0_515_787)">
<path d="M17.2866 7.86985C17.1 7.49661 17.1 7.17003 17.2866 6.79679L20.3659 0.91826C20.3892 0.871605 20.4125 0.801623 20.4592 0.73164H16.9601C16.9134 0.73164 16.8434 0.801623 16.8201 0.848278C16.6801 1.15154 16.5402 1.45479 16.3769 1.75805L14.8373 4.83728C14.7906 4.90726 14.7439 5.00057 14.6973 5.07055C14.674 5.07055 14.674 5.07055 14.6506 5.04723V0.73164H11.2681V13.865H14.6506V9.4328C14.7206 9.47945 14.7439 9.52611 14.7673 9.57276C15.5371 10.9724 16.3069 12.3487 17.0534 13.7484C17.1234 13.8883 17.1933 13.935 17.3566 13.935C17.5432 13.935 17.7065 13.9583 17.8932 13.9583H20.4359C20.3659 13.7717 20.2959 13.5618 20.1793 13.3985C19.2228 11.5323 18.2664 9.71273 17.2866 7.86985ZM25.1014 6.35357H22.4653C22.0688 6.35357 21.6722 6.37689 21.3456 6.61017C20.8557 6.93675 20.7391 7.44996 20.7391 7.98649V13.935H23.6317V9.19952H25.2646V6.37689C25.1947 6.37689 25.148 6.35357 25.1014 6.35357ZM4.10661 0.708313H3.68671C2.77694 0.73164 1.86717 0.73164 0.957397 0.73164V1.7114H3.66339V3.53094H0.957397V4.53402H3.66339V6.37689H1.00405V7.33332H4.12994C4.5265 7.33332 4.66647 7.19336 4.66647 6.77346V2.17795V1.33816C4.66647 0.91826 4.47985 0.754968 4.10661 0.708313ZM9.44861 3.90418C9.42528 3.69423 9.28531 3.57759 9.07537 3.55427C8.88875 3.53094 8.70212 3.53094 8.49218 3.53094H6.62598V1.66474H9.30864C9.28531 1.33816 9.26199 1.0349 9.23866 0.754968C9.21533 0.73164 9.192 0.73164 9.16868 0.73164H6.20608C5.85617 0.73164 5.66955 0.91826 5.66955 1.31483C5.66955 3.11104 5.64622 4.90726 5.64622 6.70348C5.64622 7.17003 5.83284 7.33332 6.29939 7.33332H8.88875C9.33197 7.33332 9.51859 7.1467 9.51859 6.68015V4.30075C9.49526 4.16078 9.47193 4.04414 9.44861 3.90418ZM8.42219 6.33024H6.64931V4.55735H8.42219V6.33024Z" fill="white"/>
</g>
<defs>
<clipPath id="clip0_515_787">
<rect width="26" height="14" fill="white"/>
</clipPath>
</defs>
</svg>
