<svg width="18" height="18" viewBox="0 0 18 18" fill="none" xmlns="http://www.w3.org/2000/svg">
<g clip-path="url(#clip0_515_1339)">
<path d="M11.0132 12.168L16.0218 8.93806C17.4288 7.93811 18.4376 7.1063 17.8093 6.00901C17.2695 5.07985 16.1192 5.27453 14.1635 5.89397C12.3583 6.46916 9.96904 7.30982 8.50009 7.84962C8.3231 7.91156 8.19922 7.67264 8.3585 7.56645C10.1283 6.37182 12.1548 4.92057 13.2078 3.98256C13.8892 3.38082 13.9777 2.64635 13.6149 2.20389C13.3051 1.82338 12.8981 1.43402 10.969 2.06231C9.57968 2.52246 7.80986 3.26579 6.21702 3.91177C6.04888 3.98256 5.91615 3.76133 6.05773 3.6463C6.43825 3.32773 7.18157 2.76139 7.58863 2.32778C8.23461 1.6464 8.24346 0.982717 7.91605 0.549111C7.74791 0.319034 7.3674 -0.0614769 6.29666 0.0270141C5.41175 0.0978069 4.38525 0.283638 3.00479 0.66415C1.996 0.947321 2.13758 2.51361 3.57114 2.25699C3.93395 2.19504 4.45605 2.08885 4.83656 2.00921C4.99584 1.97382 5.10203 2.1862 4.9693 2.28354C4.01359 3.02686 2.88091 3.93832 2.35881 4.40732C1.68628 5.00906 1.40311 5.65504 1.85441 6.25678C2.32341 6.86737 3.24372 6.68154 4.34986 6.36297C5.03124 6.16829 6.09313 5.80548 6.85415 5.54885C7.03114 5.48691 7.14617 5.73468 6.98689 5.83202C5.58873 6.71693 3.19947 8.19473 1.9783 9.06195C0.571292 10.0619 -0.437506 10.8937 0.19078 11.991C0.730575 12.9202 1.88096 12.7255 3.83661 12.106C5.64183 11.5308 8.03108 10.6902 9.50003 10.1504C9.67702 10.0884 9.8009 10.3274 9.64162 10.4336C7.8718 11.6282 5.84536 13.0794 4.79231 14.0174C4.11093 14.6192 4.02244 15.3537 4.38525 15.7961C4.69497 16.1766 5.10203 16.566 7.03114 15.9377C8.42044 15.4775 10.1903 14.7342 11.7831 14.0882C11.9512 14.0174 12.084 14.2387 11.9424 14.3537C11.5619 14.6723 10.8186 15.2386 10.4115 15.6722C9.76551 16.3536 9.75666 17.0173 10.0841 17.4509C10.2522 17.681 10.6327 18.0615 11.7035 17.973C12.5884 17.9022 13.6149 17.7164 14.9953 17.3359C16.0041 17.0527 15.8625 15.4864 14.429 15.743C14.0662 15.805 13.5441 15.9112 13.1636 15.9908C13.0043 16.0262 12.8981 15.8138 13.0308 15.7165C13.9865 14.9643 15.1104 14.0528 15.6325 13.5838C16.305 12.9821 16.5882 12.3361 16.1369 11.7344C15.6679 11.1238 14.7476 11.3096 13.6414 11.6282C12.96 11.8229 11.8981 12.1857 11.1371 12.4423C10.9778 12.5131 10.8539 12.2653 11.0132 12.168Z" fill="white"/>
</g>
<defs>
<clipPath id="clip0_515_1339">
<rect width="18.0001" height="18" fill="white"/>
</clipPath>
</defs>
</svg>
