<svg width="28" height="8" viewBox="0 0 28 8" fill="none" xmlns="http://www.w3.org/2000/svg">
<g clip-path="url(#clip0_515_1394)">
<path d="M4.57388 2.93308H3.56463C3.5462 2.80251 3.50856 2.68653 3.45173 2.58514C3.39489 2.48222 3.32192 2.39466 3.23283 2.32246C3.14373 2.25026 3.04081 2.19496 2.92406 2.15655C2.80885 2.11815 2.68365 2.09895 2.54847 2.09895C2.30422 2.09895 2.09147 2.15963 1.9102 2.28098C1.72894 2.4008 1.58838 2.57592 1.48853 2.80635C1.38868 3.03523 1.33875 3.31327 1.33875 3.64047C1.33875 3.97689 1.38868 4.25954 1.48853 4.48843C1.58991 4.71732 1.73124 4.89013 1.91251 5.00688C2.09377 5.12363 2.30346 5.182 2.54156 5.182C2.6752 5.182 2.79886 5.16433 2.91254 5.129C3.02775 5.09367 3.1299 5.04221 3.219 4.97462C3.3081 4.90549 3.38183 4.82177 3.44021 4.72346C3.50012 4.62515 3.54159 4.51301 3.56463 4.38704L4.57388 4.39165C4.54777 4.60825 4.48248 4.81717 4.37803 5.0184C4.2751 5.2181 4.13608 5.39706 3.96096 5.55528C3.78738 5.71197 3.58 5.8364 3.33882 5.92857C3.09918 6.0192 2.82805 6.06452 2.52543 6.06452C2.10452 6.06452 1.72817 5.96928 1.39636 5.77879C1.06609 5.58831 0.804942 5.31257 0.612924 4.95158C0.422441 4.59058 0.3272 4.15355 0.3272 3.64047C0.3272 3.12586 0.423977 2.68806 0.617532 2.32707C0.811087 1.96607 1.07377 1.6911 1.40558 1.50216C1.73738 1.31167 2.11067 1.21643 2.52543 1.21643C2.79886 1.21643 3.05233 1.25483 3.28582 1.33164C3.52085 1.40845 3.729 1.52059 3.91027 1.66806C4.09153 1.81399 4.239 1.99295 4.35268 2.20494C4.46789 2.41693 4.54163 2.65964 4.57388 2.93308ZM6.01402 6H4.94486L6.57395 1.28095H7.85971L9.48649 6H8.41733L7.23526 2.35933H7.19839L6.01402 6ZM5.9472 4.1451H8.47263V4.92393H5.9472V4.1451ZM14.0016 1.28095V6H13.1398L11.0868 3.02986H11.0522V6H10.0545V1.28095H10.9301L12.967 4.24879H13.0085V1.28095H14.0016ZM15.6785 1.28095L16.8191 4.86632H16.8629L18.0058 1.28095H19.1118L17.485 6H16.1993L14.5702 1.28095H15.6785ZM19.8659 6H18.7967L20.4258 1.28095H21.7115L23.3383 6H22.2692L21.0871 2.35933H21.0502L19.8659 6ZM19.799 4.1451H22.3245V4.92393H19.799V4.1451ZM26.3586 2.63814C26.3402 2.45226 26.261 2.30787 26.1213 2.20494C25.9815 2.10202 25.7918 2.05056 25.5521 2.05056C25.3893 2.05056 25.2518 2.0736 25.1397 2.11969C25.0275 2.16424 24.9415 2.22645 24.8816 2.30633C24.8232 2.38621 24.794 2.47684 24.794 2.57823C24.791 2.66272 24.8086 2.73645 24.847 2.79943C24.887 2.86242 24.9415 2.91695 25.0106 2.96303C25.0797 3.00758 25.1596 3.04675 25.2503 3.08055C25.3409 3.11281 25.4377 3.14046 25.5406 3.1635L25.9646 3.26489C26.1704 3.31097 26.3594 3.37242 26.5314 3.44922C26.7035 3.52603 26.8525 3.6205 26.9784 3.73264C27.1044 3.84478 27.2019 3.97689 27.2711 4.12897C27.3417 4.28105 27.3778 4.4554 27.3794 4.65203C27.3778 4.94083 27.3041 5.19122 27.1582 5.40321C27.0138 5.61366 26.8048 5.77726 26.5314 5.89401C26.2595 6.00922 25.9315 6.06682 25.5475 6.06682C25.1665 6.06682 24.8347 6.00845 24.5521 5.8917C24.271 5.77495 24.0513 5.60214 23.8931 5.37325C23.7364 5.14283 23.6542 4.85787 23.6465 4.51838H24.612C24.6227 4.67661 24.6681 4.80872 24.7479 4.91471C24.8294 5.01917 24.9377 5.09828 25.0728 5.15205C25.2096 5.20427 25.3639 5.23039 25.536 5.23039C25.705 5.23039 25.8517 5.20581 25.9761 5.15665C26.1021 5.1075 26.1996 5.03914 26.2687 4.95158C26.3379 4.86402 26.3724 4.7634 26.3724 4.64972C26.3724 4.54373 26.3409 4.45463 26.2779 4.38243C26.2165 4.31024 26.1259 4.24879 26.006 4.1981C25.8878 4.1474 25.7426 4.10132 25.5705 4.05984L25.0567 3.93081C24.6588 3.83403 24.3447 3.68272 24.1143 3.47687C23.8839 3.27103 23.7694 2.99376 23.7709 2.64505C23.7694 2.35933 23.8455 2.1097 23.9991 1.89618C24.1542 1.68265 24.367 1.51598 24.6373 1.39616C24.9077 1.27634 25.2149 1.21643 25.559 1.21643C25.9093 1.21643 26.215 1.27634 26.4761 1.39616C26.7388 1.51598 26.9431 1.68265 27.089 1.89618C27.235 2.1097 27.3102 2.35702 27.3148 2.63814H26.3586Z" fill="white"/>
</g>
<defs>
<clipPath id="clip0_515_1394">
<rect width="28" height="8" fill="white"/>
</clipPath>
</defs>
</svg>
