<svg width="20" height="20" viewBox="0 0 20 20" fill="none" xmlns="http://www.w3.org/2000/svg">
<g clip-path="url(#clip0_515_1387)">
<path d="M9.99251 19.4812C9.96569 19.4807 9.93906 19.4857 9.91423 19.4959C9.88941 19.506 9.8669 19.5211 9.84809 19.5402C9.82928 19.5594 9.81456 19.5821 9.80481 19.6071C9.79506 19.6321 9.7905 19.6588 9.7914 19.6856C9.79038 19.7125 9.79486 19.7393 9.80456 19.7644C9.81425 19.7894 9.82896 19.8123 9.84778 19.8315C9.86661 19.8507 9.88915 19.8659 9.91403 19.8761C9.93892 19.8863 9.96562 19.8913 9.99251 19.8908C10.0195 19.8914 10.0462 19.8864 10.0712 19.8762C10.0961 19.866 10.1187 19.8509 10.1376 19.8317C10.1565 19.8125 10.1713 19.7896 10.1811 19.7645C10.1909 19.7394 10.1954 19.7125 10.1944 19.6856C10.1961 19.6349 10.1782 19.5855 10.1445 19.5476C10.1107 19.5097 10.0637 19.4862 10.0131 19.482L9.99251 19.4812ZM8.08028 4.53122C8.43331 4.6443 8.72701 4.8929 8.89686 5.22239C9.06671 5.55189 9.09881 5.93534 8.98612 6.28849L8.9276 6.43026L8.91441 6.46322L8.89957 6.50773C8.84188 6.63961 8.81385 6.77149 8.81385 6.9182C8.78501 7.50341 9.20124 7.9724 9.7914 8.00125H10.0931C11.172 8.04493 12.0201 8.96807 11.9773 10.0808C11.9344 11.1787 11.0277 12.0425 9.93481 11.9988H9.7914C9.20207 12.0136 8.74132 12.5263 8.77017 13.1263C8.77017 13.2285 8.78501 13.3159 8.81385 13.4041C8.98586 13.7151 9.26818 13.9504 9.60512 14.0635C10.2233 14.2531 10.8555 13.9605 11.1712 13.4189L11.186 13.3901C11.5173 12.8626 12.1504 12.5988 12.7685 12.8041C13.4724 13.0381 13.9043 13.8146 13.6744 14.5902C13.6218 14.7624 13.5358 14.9225 13.4212 15.0613C13.3067 15.2002 13.1659 15.3151 13.0069 15.3995C12.8478 15.4839 12.6737 15.5361 12.4945 15.553C12.3153 15.57 12.1345 15.5515 11.9624 15.4985C11.653 15.3955 11.3888 15.1884 11.2149 14.9125L11.2008 14.8836C11.036 14.6174 10.8192 14.4056 10.4994 14.2976L10.4533 14.2827C10.1551 14.1827 9.83153 14.1893 9.53776 14.3015C9.24399 14.4136 8.9983 14.6244 8.8427 14.8976C8.74679 15.0567 8.61949 15.1945 8.46858 15.3028C8.31766 15.411 8.14629 15.4874 7.96489 15.5273C7.60779 15.6038 7.23493 15.5359 6.92776 15.3384C6.62058 15.1409 6.40406 14.8298 6.32549 14.4731C6.15322 13.7264 6.59913 12.9648 7.36155 12.7892C7.44191 12.7715 7.52351 12.762 7.60553 12.7604H7.62036C8.18084 12.7019 8.56906 12.2477 8.54021 11.6617C8.53332 11.4574 8.46842 11.2593 8.35311 11.0905C8.14123 10.743 8.03631 10.3408 8.05144 9.93408C8.06095 9.58115 8.16514 9.23726 8.35311 8.9384C8.4685 8.77768 8.5262 8.57244 8.54021 8.36721C8.55504 7.782 8.12314 7.32785 7.56266 7.26933L7.50497 7.25449C7.42099 7.24415 7.33836 7.22481 7.25852 7.19679L7.21731 7.18113C6.87596 7.0588 6.59533 6.8089 6.4344 6.48396C6.27347 6.15903 6.24477 5.78436 6.35434 5.4387C6.46421 5.0904 6.70723 4.79961 7.03049 4.62964C7.35375 4.45967 7.73107 4.4243 8.08028 4.53122ZM3.48517 12.8642C3.58958 12.7576 3.72056 12.6808 3.86458 12.6416C4.0086 12.6025 4.16045 12.6025 4.30446 12.6417C4.59707 12.7208 4.8262 12.9541 4.90451 13.2516C4.94305 13.398 4.94303 13.5518 4.90447 13.6981C4.8659 13.8444 4.7901 13.9783 4.68444 14.0866C4.35309 14.4245 3.81652 14.4245 3.48517 14.0866C3.32573 13.9231 3.23648 13.7038 3.23648 13.4754C3.23648 13.247 3.32573 13.0277 3.48517 12.8642ZM15.7209 12.6219C15.8667 12.5857 16.0194 12.5894 16.1633 12.6325C16.3071 12.6755 16.4367 12.7564 16.5386 12.8667C16.7479 13.0925 16.8221 13.4148 16.7339 13.7115C16.6915 13.8564 16.6115 13.9874 16.5021 14.0914C16.3926 14.1953 16.2576 14.2684 16.1108 14.3033C15.6567 14.4089 15.2041 14.122 15.097 13.6596C15.0446 13.4394 15.0806 13.2075 15.1973 13.0135C15.3139 12.8195 15.5019 12.6789 15.7209 12.6219ZM15.6682 9.00352C15.927 9.26727 16.0721 9.62417 16.0721 9.99754C16.0721 10.3701 15.927 10.7278 15.6682 10.9916C15.4086 11.2553 15.0583 11.4037 14.6915 11.4037C14.3255 11.4037 13.9744 11.2553 13.7156 10.9916C13.4562 10.7257 13.311 10.369 13.311 9.99754C13.311 9.62611 13.4562 9.26939 13.7156 9.00352C13.8426 8.87319 13.9944 8.76962 14.1621 8.6989C14.3298 8.62818 14.5099 8.59174 14.6919 8.59174C14.8739 8.59174 15.054 8.62818 15.2217 8.6989C15.3894 8.76962 15.5412 8.87319 15.6682 9.00352ZM6.40132 9.13787C6.70134 9.5368 6.76975 10.0676 6.581 10.5316C6.51382 10.701 6.41359 10.8553 6.28615 10.9855C6.15871 11.1157 6.00663 11.2192 5.83876 11.2901C5.67089 11.3609 5.4906 11.3976 5.3084 11.398C5.12621 11.3984 4.94576 11.3625 4.77757 11.2924C4.07285 10.9957 3.73904 10.1731 4.02999 9.45602C4.12104 9.22941 4.2704 9.03091 4.46293 8.88066C4.65545 8.7304 4.88429 8.63374 5.12623 8.60047C5.36735 8.56863 5.61259 8.60164 5.83671 8.6961C6.06083 8.79056 6.25572 8.94305 6.40132 9.13787ZM15.9171 5.65877C16.2204 5.65877 16.5007 5.82362 16.6523 6.09067C16.7269 6.22241 16.7661 6.3712 16.7661 6.52257C16.7661 6.67394 16.7269 6.82273 16.6523 6.95447C16.5791 7.08516 16.4724 7.19403 16.3432 7.26992C16.214 7.34581 16.0669 7.386 15.9171 7.38637C15.4489 7.38637 15.0682 6.99898 15.0682 6.52257C15.0682 6.04534 15.4489 5.65877 15.9171 5.65877ZM4.08274 5.65877C4.38606 5.65877 4.66548 5.82362 4.81714 6.09067C4.89168 6.22241 4.93086 6.3712 4.93086 6.52257C4.93086 6.67394 4.89168 6.82273 4.81714 6.95447C4.74393 7.08504 4.63737 7.19383 4.50834 7.26971C4.37931 7.3456 4.23244 7.38586 4.08274 7.38637C3.61375 7.38637 3.23378 6.99898 3.23378 6.52257C3.23378 6.04534 3.61375 5.65877 4.08274 5.65877ZM12.3506 4.44302C13.1131 4.44302 13.7312 5.07274 13.7312 5.84917C13.7312 6.6256 13.1131 7.25449 12.3506 7.25449C11.5882 7.25449 10.9709 6.6256 10.9709 5.84917C10.9709 5.07274 11.5891 4.44302 12.3506 4.44302ZM10.1862 3.87925C10.3339 3.84514 10.4698 3.77235 10.58 3.66834C10.6903 3.56434 10.7708 3.43288 10.8134 3.28745C10.8574 3.14137 10.8625 2.98633 10.828 2.8377C10.7936 2.68908 10.721 2.55203 10.6173 2.44013C10.5149 2.32967 10.3846 2.24887 10.2401 2.20622C10.0956 2.16358 9.94233 2.16067 9.79634 2.19781C9.34549 2.3132 9.07019 2.77477 9.17652 3.23387C9.28367 3.69379 9.73288 3.98145 10.1862 3.87925ZM10.1862 17.789C10.3323 17.7532 10.4664 17.6795 10.5749 17.5753C10.6835 17.4711 10.7626 17.3401 10.8044 17.1956C10.8471 17.0506 10.8515 16.8971 10.8173 16.7499C10.7831 16.6027 10.7113 16.4669 10.609 16.3557C10.508 16.2459 10.3795 16.165 10.2368 16.1214C10.0941 16.0778 9.94233 16.073 9.79717 16.1076C9.64949 16.1416 9.5135 16.2142 9.40314 16.3181C9.29277 16.4219 9.212 16.5532 9.1691 16.6986C9.12527 16.8447 9.1204 16.9998 9.15495 17.1484C9.1895 17.297 9.26229 17.4341 9.36609 17.5459C9.56803 17.7627 9.86558 17.8566 10.1516 17.7973L10.187 17.789H10.1862ZM14.2777 2.99402C14.3464 2.9937 14.4144 2.97976 14.4777 2.95302C14.541 2.92627 14.5984 2.88725 14.6465 2.8382C14.6946 2.78915 14.7326 2.73104 14.7581 2.66725C14.7837 2.60345 14.7963 2.53522 14.7953 2.46651C14.7953 2.17391 14.5654 1.939 14.2777 1.939C14.209 1.93932 14.141 1.95325 14.0777 1.98C14.0144 2.00674 13.957 2.04577 13.9089 2.09482C13.8608 2.14387 13.8228 2.20197 13.7973 2.26577C13.7718 2.32957 13.7591 2.3978 13.7601 2.46651C13.7601 2.75911 13.9909 2.99402 14.2777 2.99402ZM5.72215 2.99402C5.79087 2.9937 5.85884 2.97976 5.92214 2.95302C5.98545 2.92627 6.04282 2.88725 6.09095 2.8382C6.13908 2.78915 6.17702 2.73104 6.20256 2.66725C6.2281 2.60345 6.24075 2.53522 6.23977 2.46651C6.23977 2.17391 6.00898 1.939 5.72215 1.939C5.65343 1.93932 5.58545 1.95325 5.52215 1.98C5.45885 2.00674 5.40147 2.04577 5.35334 2.09482C5.30521 2.14387 5.26728 2.20197 5.24174 2.26577C5.21619 2.32957 5.20355 2.3978 5.20453 2.46651C5.20453 2.75911 5.43449 2.99402 5.72215 2.99402ZM1.45096 9.46591C1.38224 9.46623 1.31427 9.48017 1.25096 9.50691C1.18766 9.53366 1.13029 9.57269 1.08216 9.62174C1.03403 9.67079 0.996093 9.72889 0.97055 9.79269C0.945007 9.85648 0.932361 9.92471 0.933342 9.99342C0.933342 10.2852 1.16413 10.5201 1.45096 10.5201C1.58489 10.5196 1.71343 10.4673 1.80974 10.3742C1.90604 10.2811 1.96266 10.1545 1.96776 10.0206L1.96858 9.9926C1.97082 9.92356 1.95903 9.85478 1.93393 9.79042C1.90884 9.72606 1.87096 9.66746 1.82258 9.61815C1.77419 9.56885 1.71632 9.52986 1.65245 9.50356C1.58858 9.47725 1.52003 9.46416 1.45096 9.46509V9.46591ZM5.72215 16.9912C5.65344 16.9916 5.58549 17.0055 5.52222 17.0323C5.45894 17.0591 5.40159 17.0981 5.35347 17.1471C5.30535 17.1962 5.26741 17.2542 5.24185 17.318C5.21629 17.3818 5.2036 17.45 5.20453 17.5187C5.20453 17.8113 5.43449 18.0462 5.72215 18.0462C5.79087 18.0459 5.85884 18.0319 5.92214 18.0052C5.98545 17.9785 6.04282 17.9394 6.09095 17.8904C6.13908 17.8413 6.17702 17.7832 6.20256 17.7194C6.2281 17.6556 6.24075 17.5874 6.23977 17.5187C6.23977 17.2261 6.00898 16.9912 5.72215 16.9912ZM14.2777 17.006C14.209 17.0064 14.1411 17.0204 14.0778 17.0471C14.0145 17.0739 13.9571 17.1129 13.909 17.162C13.8609 17.211 13.823 17.2691 13.7974 17.3329C13.7718 17.3966 13.7592 17.4648 13.7601 17.5335C13.7601 17.8261 13.9909 18.061 14.2777 18.061C14.3464 18.0607 14.4144 18.0468 14.4777 18.02C14.541 17.9933 14.5984 17.9543 14.6465 17.9052C14.6946 17.8562 14.7326 17.7981 14.7581 17.7343C14.7837 17.6705 14.7963 17.6022 14.7953 17.5335C14.7953 17.2409 14.5654 17.006 14.2777 17.006ZM18.5489 9.46591C18.4802 9.46629 18.4122 9.48026 18.349 9.50703C18.2857 9.53379 18.2283 9.57282 18.1802 9.62186C18.1321 9.6709 18.0942 9.72898 18.0686 9.79275C18.043 9.85652 18.0303 9.92472 18.0313 9.99342C18.0313 10.2852 18.2612 10.5201 18.5489 10.5201C18.6176 10.5198 18.6856 10.5059 18.7489 10.4791C18.8122 10.4524 18.8696 10.4133 18.9177 10.3643C18.9658 10.3152 19.0038 10.2571 19.0293 10.1933C19.0548 10.1295 19.0675 10.0613 19.0665 9.9926C19.0665 9.7 18.8357 9.46509 18.5489 9.46509V9.46591ZM18.2324 5.35133C18.2593 5.3518 18.286 5.34678 18.3109 5.33658C18.3358 5.32637 18.3583 5.3112 18.3771 5.292C18.3959 5.27279 18.4106 5.24994 18.4203 5.22486C18.43 5.19977 18.4345 5.17297 18.4335 5.1461C18.4345 5.11922 18.43 5.09242 18.4203 5.06734C18.4106 5.04225 18.3959 5.01941 18.3771 5.0002C18.3583 4.98099 18.3358 4.96582 18.3109 4.95562C18.286 4.94542 18.2593 4.94039 18.2324 4.94086C18.2055 4.94051 18.1789 4.94561 18.1541 4.95586C18.1292 4.9661 18.1067 4.98127 18.0879 5.00046C18.0691 5.01964 18.0544 5.04244 18.0447 5.06747C18.0349 5.0925 18.0304 5.11925 18.0313 5.1461C18.0313 5.26314 18.1318 5.35133 18.2324 5.35133ZM9.99251 0.518841C10.0194 0.519417 10.0461 0.514504 10.071 0.504403C10.096 0.494302 10.1186 0.479225 10.1375 0.460094C10.1564 0.440962 10.1712 0.418178 10.181 0.393133C10.1908 0.368088 10.1954 0.341309 10.1944 0.314431C10.1955 0.287414 10.1909 0.260475 10.1811 0.235276C10.1714 0.210077 10.1565 0.187153 10.1375 0.16792C10.1185 0.148687 10.0958 0.133554 10.0707 0.123454C10.0456 0.113353 10.0187 0.108501 9.99169 0.109196C9.9648 0.108729 9.93809 0.11375 9.91321 0.123952C9.88833 0.134154 9.86578 0.149322 9.84696 0.168531C9.82814 0.18774 9.81343 0.210585 9.80373 0.235671C9.79404 0.260757 9.78956 0.287556 9.79057 0.314431C9.79057 0.424054 9.87959 0.50895 9.97438 0.518017L9.99169 0.518841H9.99251ZM1.76664 5.35133C1.7936 5.35191 1.82039 5.34698 1.84538 5.33682C1.87036 5.32667 1.893 5.31152 1.91191 5.2923C1.93082 5.27308 1.94561 5.2502 1.95535 5.22505C1.9651 5.19991 1.9696 5.17304 1.96858 5.1461C1.96959 5.11922 1.96512 5.09242 1.95542 5.06734C1.94573 5.04225 1.93102 5.01941 1.91219 5.0002C1.89337 4.98099 1.87083 4.96582 1.84594 4.95562C1.82106 4.94542 1.79436 4.94039 1.76747 4.94086C1.74061 4.94051 1.71396 4.94561 1.68913 4.95586C1.6643 4.9661 1.64181 4.98127 1.62301 5.00046C1.60421 5.01964 1.5895 5.04244 1.57976 5.06747C1.57002 5.0925 1.56546 5.11925 1.56635 5.1461C1.56534 5.17297 1.56982 5.19977 1.57951 5.22486C1.58921 5.24994 1.60392 5.27279 1.62274 5.292C1.64156 5.3112 1.66411 5.32637 1.68899 5.33658C1.71387 5.34678 1.74058 5.3518 1.76747 5.35133H1.76664ZM1.76664 14.6347C1.73989 14.6343 1.71335 14.6394 1.68862 14.6496C1.66389 14.6598 1.64149 14.6749 1.62277 14.694C1.60404 14.7132 1.58939 14.7359 1.57969 14.7608C1.57 14.7857 1.56546 14.8124 1.56635 14.8391C1.56534 14.866 1.56982 14.8928 1.57951 14.9179C1.58921 14.9429 1.60392 14.9658 1.62274 14.985C1.64156 15.0042 1.66411 15.0194 1.68899 15.0296C1.71387 15.0398 1.74058 15.0448 1.76747 15.0443C1.79439 15.0449 1.82115 15.04 1.84609 15.0298C1.87102 15.0197 1.89362 15.0045 1.91246 14.9853C1.93131 14.966 1.94601 14.9431 1.95567 14.918C1.96532 14.8929 1.96971 14.866 1.96858 14.8391C1.96776 14.7857 1.94641 14.7347 1.90896 14.6966C1.87151 14.6586 1.82084 14.6364 1.76747 14.6347H1.76664ZM18.2472 14.6199C18.2203 14.6193 18.1936 14.6242 18.1687 14.6343C18.1438 14.6444 18.1212 14.6595 18.1023 14.6786C18.0834 14.6977 18.0686 14.7205 18.0588 14.7456C18.049 14.7706 18.0444 14.7974 18.0453 14.8243C18.0442 14.8513 18.0486 14.8782 18.0583 14.9035C18.068 14.9287 18.0827 14.9517 18.1016 14.971C18.1206 14.9903 18.1433 15.0055 18.1683 15.0157C18.1933 15.026 18.2202 15.0309 18.2472 15.0303C18.2742 15.0309 18.3011 15.026 18.326 15.0157C18.351 15.0055 18.3737 14.9903 18.3925 14.971C18.4114 14.9516 18.4261 14.9287 18.4357 14.9034C18.4453 14.8782 18.4496 14.8512 18.4483 14.8243C18.4475 14.7709 18.4262 14.7198 18.3887 14.6818C18.3513 14.6437 18.3006 14.6215 18.2472 14.6199Z" fill="white"/>
</g>
<defs>
<clipPath id="clip0_515_1387">
<rect width="20" height="20" fill="white"/>
</clipPath>
</defs>
</svg>
