<svg width="18" height="20" viewBox="0 0 18 20" fill="none" xmlns="http://www.w3.org/2000/svg">
<g clip-path="url(#clip0_515_661)">
<path d="M7.54792 0.89721C5.8386 1.09348 4.44687 2.15332 3.76174 3.78056L3.6511 4.04462L3.29426 4.14811C1.71341 4.61559 0.54654 5.85028 0.121872 7.50251C-0.00303596 7.99138 -0.0387239 8.77646 0.0469271 9.28675C0.178972 10.0897 0.521541 10.8676 1.00686 11.4635L1.17101 11.667L1.07822 12.0167C0.95688 12.4913 0.924779 13.3477 1.01041 13.858C1.2745 15.4174 2.35217 16.777 3.78672 17.3623C4.61461 17.7013 5.4996 17.8048 6.32392 17.662L6.53091 17.6263L6.86277 17.9404C7.40517 18.4507 8.05107 18.8039 8.80401 19.0109C9.26794 19.1358 10.2885 19.1715 10.7917 19.0752C11.7409 18.9003 12.5474 18.4721 13.2397 17.7762C13.7393 17.2731 14.1532 16.6272 14.3067 16.1062C14.3459 15.9812 14.3709 15.9527 14.4637 15.9313C14.6921 15.8849 15.2238 15.6922 15.4664 15.5709C16.1087 15.2497 16.7653 14.693 17.1579 14.1328C17.5112 13.6296 17.8038 12.9552 17.9501 12.295C17.9822 12.1558 18.0001 11.8489 18.0001 11.4207C18.0001 10.8141 17.9894 10.7284 17.8966 10.368C17.7181 9.67573 17.4327 9.08334 17.033 8.5802L16.851 8.35179L16.9295 8.03778C17.4077 6.20358 16.6298 4.16239 15.0489 3.10255C14.4958 2.73498 14.0105 2.53157 13.3432 2.38527C12.9435 2.29605 12.0763 2.28178 11.7017 2.35315C11.4804 2.39598 11.4697 2.39598 11.4197 2.3246C11.3377 2.19613 10.7988 1.76079 10.4777 1.55738C9.63549 1.02924 8.53641 0.783008 7.54792 0.89721ZM8.35797 2.10692C8.8076 2.14975 9.07881 2.22112 9.4535 2.39598C9.75324 2.53516 10.2029 2.81349 10.2029 2.85989C10.2029 2.87416 9.38926 3.35591 8.39365 3.92687C7.39446 4.50139 6.52732 5.01169 6.4631 5.05808C6.19901 5.25435 6.20615 5.20797 6.20258 6.79951C6.19901 7.58457 6.18473 8.76931 6.17403 9.4295L6.15263 10.6321L5.39253 10.1967L4.63245 9.76136L4.64316 7.35262C4.65743 4.59774 4.64673 4.71193 4.99286 4.00895C5.52458 2.93124 6.54159 2.22112 7.70493 2.10692C7.85125 2.09265 7.97971 2.07837 7.99042 2.07837C8.00112 2.0748 8.16527 2.08908 8.35797 2.10692ZM13.1576 3.58785C14.4672 3.86264 15.5164 4.91176 15.7876 6.22854C15.8518 6.53187 15.8697 7.34191 15.8161 7.43827C15.7947 7.4811 15.4093 7.27054 13.8784 6.37843C11.9978 5.2829 11.9657 5.26506 11.773 5.26506C11.5803 5.26506 11.5375 5.29004 9.31075 6.57826L7.04474 7.8879L7.03405 7.00648C7.03048 6.52116 7.03762 6.11436 7.0519 6.10008C7.1197 6.03584 10.7846 3.93757 11.0415 3.81623C11.6802 3.51649 12.4332 3.43441 13.1576 3.58785ZM3.55833 10.054C3.61543 10.136 4.22921 10.5072 5.88501 11.4635C7.12327 12.1737 8.13315 12.766 8.13315 12.7767C8.13315 12.7874 8.03323 12.8517 7.90833 12.9231C7.787 12.9909 7.44443 13.1871 7.14824 13.3584L6.6094 13.6724L4.68598 12.5626C3.62971 11.9524 2.64124 11.3601 2.49492 11.2459C1.97035 10.8426 1.48859 10.1075 1.31374 9.4402C1.20311 9.00842 1.18526 8.35538 1.27448 7.92359C1.4101 7.26342 1.692 6.72814 2.15234 6.24995C2.4628 5.9288 2.74472 5.72539 3.13725 5.5327L3.44056 5.38638L3.45841 7.66309L3.47625 9.9398L3.55833 10.054ZM13.2432 7.40972C14.2495 7.99138 15.1773 8.5338 15.3058 8.61587C16.0802 9.12617 16.619 9.96833 16.7689 10.8997C16.8331 11.2851 16.7974 12.006 16.6975 12.345C16.5369 12.9052 16.2515 13.3977 15.8482 13.8188C15.5342 14.147 14.9882 14.5146 14.6742 14.611L14.5921 14.6359V12.4199C14.5921 9.95406 14.5993 10.0397 14.3495 9.86129C14.2709 9.80775 13.2361 9.19754 12.0478 8.51239C10.8595 7.82367 9.88527 7.25628 9.88527 7.24557C9.8817 7.2313 11.3769 6.35702 11.4054 6.35345C11.4126 6.35345 12.2369 6.82806 13.2432 7.40972ZM10.0066 8.30542L10.9879 8.86923V11.1531L10.003 11.7169L9.01812 12.2843L8.31869 11.881C7.92973 11.6598 7.48367 11.3993 7.31952 11.3065L7.0269 11.1317L7.03403 10.0005L7.04474 8.86923L8.00823 8.30899C8.53994 8.00209 8.986 7.74872 9.00028 7.74872C9.01455 7.74515 9.46776 7.99854 10.0066 8.30542ZM12.6401 9.83274L13.3788 10.2574V12.5305C13.3788 15.0249 13.3717 15.1391 13.1647 15.7136C12.9577 16.281 12.5117 16.8805 12.0121 17.2588C11.8908 17.3516 11.6303 17.505 11.434 17.5978C10.5062 18.0438 9.47846 18.0546 8.5328 17.6299C8.30799 17.5264 7.81196 17.2124 7.81196 17.1696C7.81196 17.1589 8.65057 16.6664 9.67116 16.0776C10.6953 15.4888 11.5839 14.9571 11.6481 14.8964C11.7159 14.8286 11.7801 14.718 11.8051 14.6216C11.8337 14.5075 11.8444 13.7117 11.8444 11.9203C11.8444 10.5215 11.8587 9.38667 11.8729 9.39381C11.8872 9.39738 12.2333 9.59721 12.6401 9.83274ZM10.963 13.9222C10.8952 13.9865 7.29812 16.0491 7.0055 16.1882C6.53089 16.4166 6.14906 16.4987 5.58168 16.4987C5.22839 16.4987 5.04283 16.4808 4.80373 16.4237C3.57975 16.1204 2.65193 15.2426 2.29509 14.0364C2.19516 13.701 2.14163 13.0123 2.18802 12.6947L2.21301 12.5305L3.11227 13.0515C6.22044 14.8429 6.05984 14.7573 6.25613 14.7573C6.42741 14.7537 6.5523 14.6895 8.7041 13.4476L10.9701 12.138L10.9808 13.0194C10.9844 13.5012 10.9772 13.908 10.963 13.9222Z" fill="white"/>
</g>
<defs>
<clipPath id="clip0_515_661">
<rect width="18.0001" height="20" fill="white"/>
</clipPath>
</defs>
</svg>
