<svg width="19" height="19" viewBox="0 0 19 19" fill="none" xmlns="http://www.w3.org/2000/svg">
<g clip-path="url(#clip0_515_1230)">
<g clip-path="url(#clip1_515_1230)">
<path d="M1.46411 1.27759H7.38411C8.20211 1.46959 8.43011 1.77559 8.52011 2.62159C8.71211 4.39559 8.90011 6.17159 9.11411 7.94359C9.17011 8.40559 9.17811 8.87359 9.19011 9.33959C9.19611 9.52559 9.32811 9.71959 9.15811 9.89559C9.02611 9.98959 8.87611 9.96559 8.73011 9.96159C7.89011 9.81759 7.03811 9.81159 6.19411 9.71159C4.69011 9.53559 3.18611 9.36359 1.68011 9.19559C1.00011 9.11959 0.554109 8.76759 0.548109 7.94559C0.534109 6.06559 0.532109 4.18559 0.550109 2.30559C0.556109 1.62959 0.688109 1.51759 1.46411 1.27759Z" fill="#00A03B"/>
<path d="M9.14415 9.82963C9.12415 9.68964 9.10415 9.54763 9.08215 9.40763C9.20015 9.19563 9.16215 8.95763 9.15415 8.73963C9.12615 7.80163 9.32415 6.88563 9.41215 5.95963C9.51415 4.86163 9.64815 3.76363 9.77415 2.66763C9.78415 2.58763 9.77215 2.50563 9.79415 2.42963C9.98215 1.72963 10.0642 1.41963 10.9042 1.27563H16.8242C17.6642 1.53563 17.7442 1.64363 17.7442 2.53763V7.80963C17.8002 8.78763 17.1642 9.14364 16.4282 9.21964C14.8602 9.38364 13.2942 9.56964 11.7262 9.75164C11.0422 9.83164 10.3542 9.88964 9.66415 9.88964C9.49015 9.87163 9.29415 10.0376 9.14415 9.82963Z" fill="#77BD31"/>
<path d="M9.63611 9.78768C11.7501 9.55568 13.8621 9.32168 15.9761 9.08968C16.1481 9.07168 16.3201 9.05768 16.4921 9.03768C17.2261 8.95168 17.6001 8.58768 17.7181 7.84768C17.7381 7.79168 17.7601 7.79168 17.7841 7.84568C17.7841 11.3317 17.7801 14.8157 17.7901 18.3017C17.7901 18.5417 17.7421 18.5897 17.5041 18.5897C11.9301 18.5817 6.35811 18.5817 0.784108 18.5897C0.546108 18.5897 0.498108 18.5417 0.498108 18.3017C0.506108 12.7197 0.506108 7.13768 0.498108 1.55568C0.498108 1.31768 0.544108 1.24168 0.786108 1.26968C1.01011 1.29568 1.23811 1.27568 1.46611 1.27568C0.778108 1.59168 0.558108 2.13568 0.574108 2.87968C0.610108 4.47768 0.584108 6.07568 0.586108 7.67568C0.588108 8.47968 0.994108 8.94568 1.79211 9.03568C3.99611 9.28568 6.20211 9.52768 8.40811 9.76768C8.53011 9.78168 8.64011 9.80768 8.74611 9.86368C8.76611 9.91368 8.75611 9.95768 8.71811 9.99368C8.26411 10.2257 7.75811 10.1937 7.27811 10.2437C5.48011 10.4277 3.68811 10.6757 1.88611 10.8417C1.15611 10.9097 0.774108 11.3297 0.768108 12.0557C0.754108 13.7377 0.752108 15.4197 0.768108 17.1017C0.774108 17.8337 1.18411 18.2357 1.92211 18.2437C3.58811 18.2577 5.25411 18.2537 6.92011 18.2457C7.65611 18.2437 8.07411 17.8897 8.15211 17.1557C8.31811 15.6197 8.49611 14.0857 8.66011 12.5497C8.73611 11.8477 8.82211 11.1477 8.90811 10.4477C8.91811 10.3657 8.95211 10.2937 9.00611 10.2317C9.33411 10.0457 9.35811 10.2957 9.39211 10.5097C9.50011 11.1657 9.55211 11.8317 9.62811 12.4917C9.80411 14.0117 9.97411 15.5337 10.1341 17.0557C10.2221 17.8957 10.6101 18.2417 11.4441 18.2457C13.0561 18.2537 14.6681 18.2537 16.2781 18.2457C17.1641 18.2417 17.5221 17.8877 17.5261 17.0077C17.5341 15.3677 17.5341 13.7257 17.5261 12.0857C17.5221 11.3357 17.1501 10.9157 16.4021 10.8417C14.3661 10.6417 12.3361 10.3697 10.3001 10.1737C10.0761 10.1517 9.85211 10.1177 9.63211 10.0637C9.54411 10.0417 9.44811 9.98568 9.46811 9.87368C9.48211 9.79968 9.57611 9.81168 9.63611 9.78768Z" fill="#FEFEFE"/>
<path d="M10.9041 1.27759C10.2201 1.54359 10.0041 2.07959 9.93409 2.77559C9.71809 4.95959 9.45609 7.14159 9.21609 9.32359C9.20409 9.42359 9.19209 9.48159 9.08209 9.40959C8.85009 7.30359 8.61809 5.19559 8.38609 3.08959C8.37209 2.96959 8.34609 2.85159 8.34609 2.73159C8.33809 2.03759 8.05009 1.53359 7.38409 1.27759H10.9041Z" fill="#FEFEFE"/>
<path d="M17.7841 7.8477L17.7521 7.8497H17.7201C17.7161 6.1957 17.6841 4.5397 17.7201 2.8877C17.7361 2.1397 17.5181 1.5957 16.8261 1.2797C17.1441 1.2797 17.5801 1.1557 17.7461 1.3157C17.9061 1.4677 17.7841 1.9137 17.7841 2.2317V7.8477Z" fill="#F6FAF1"/>
<path d="M8.73212 9.91964C8.73612 9.90164 8.74012 9.88365 8.74412 9.86365C8.87812 9.85165 9.01012 9.84164 9.14412 9.82964C9.31012 9.83364 9.46612 9.73365 9.63612 9.78765C9.58012 9.85365 9.51412 9.90565 9.67612 9.92365C11.3961 10.1096 13.1141 10.3016 14.8341 10.4916C15.4021 10.5536 15.9741 10.5976 16.5401 10.6776C17.3341 10.7896 17.7041 11.2316 17.7061 12.0356C17.7081 13.7176 17.7081 15.3996 17.7061 17.0816C17.7041 17.9556 17.2441 18.4216 16.3801 18.4236C14.6881 18.4256 12.9941 18.4256 11.3021 18.4236C10.5601 18.4216 10.1041 18.0716 10.0061 17.3416C9.83012 16.0336 9.69612 14.7216 9.54812 13.4116C9.43412 12.4056 9.32812 11.3976 9.21812 10.3916C9.21012 10.3116 9.21012 10.2196 9.08212 10.2696C8.91012 10.2056 8.79412 10.0896 8.73212 9.91964Z" fill="#B7DA7C"/>
<path d="M2.89609 5.05969C2.89609 4.75369 2.89809 4.44569 2.89609 4.13969C2.89209 3.78169 3.05809 3.59169 3.42409 3.59169C4.06209 3.59169 4.70209 3.59369 5.34009 3.59169C5.66409 3.58969 5.83009 3.75569 5.86609 4.06769C5.96609 4.92769 6.06009 5.78769 6.16809 6.64569C6.19609 6.86769 6.11009 6.88569 5.92609 6.86369C5.08209 6.75969 4.23609 6.66169 3.39009 6.56969C3.05609 6.53169 2.89009 6.36169 2.89609 6.01969C2.90009 5.69969 2.89609 5.37969 2.89609 5.05969ZM15.3981 5.09969C15.3981 5.40569 15.3961 5.71169 15.3981 6.01769C15.4021 6.35369 15.2421 6.53169 14.9041 6.56969C14.0601 6.66169 13.2161 6.76169 12.3721 6.86369C12.1961 6.88569 12.1021 6.87169 12.1301 6.64369C12.2381 5.78569 12.3241 4.92569 12.4261 4.06769C12.4621 3.76169 12.6321 3.59169 12.9581 3.59369C13.5961 3.59769 14.2341 3.59369 14.8721 3.59369C15.2381 3.59369 15.4021 3.78569 15.3981 4.14169C15.3961 4.46169 15.3981 4.78169 15.3981 5.09969Z" fill="#FEFEFE"/>
<path d="M8.73216 9.91965C8.98016 9.90565 9.08816 10.0296 9.08016 10.2696C8.90216 11.9116 8.72616 13.5556 8.54816 15.1976C8.48016 15.8196 8.40016 16.4416 8.34416 17.0656C8.26016 18.0096 7.82216 18.4236 6.87816 18.4236C5.22616 18.4236 3.57416 18.4256 1.92216 18.4236C1.06416 18.4216 0.588156 17.9456 0.586156 17.0876C0.584156 15.4056 0.584156 13.7256 0.586156 12.0436C0.586156 11.2436 0.964156 10.7796 1.74816 10.6836C3.26616 10.4976 4.79016 10.3396 6.31016 10.1716C7.11616 10.0836 7.92416 10.0036 8.73216 9.91965Z" fill="#93C45E"/>
<path d="M4.38015 16.1136H3.42215C3.08215 16.1136 2.90015 15.9496 2.90015 15.6036C2.90015 14.9496 2.90015 14.2956 2.90215 13.6436C2.90215 13.3336 3.07815 13.1776 3.36415 13.1436C4.22215 13.0416 5.08215 12.9536 5.94015 12.8456C6.17015 12.8176 6.18215 12.9216 6.16215 13.0956C6.06215 13.9416 5.96415 14.7896 5.86615 15.6356C5.83015 15.9496 5.66215 16.1156 5.34015 16.1156C5.02015 16.1116 4.70015 16.1116 4.38015 16.1136Z" fill="#FEFEFE"/>
</g>
</g>
<defs>
<clipPath id="clip0_515_1230">
<rect width="19" height="19" fill="white"/>
</clipPath>
<clipPath id="clip1_515_1230">
<rect width="18" height="18" fill="white" transform="translate(0.078125 0.931641)"/>
</clipPath>
</defs>
</svg>
