<svg width="16" height="18" viewBox="0 0 16 18" fill="none" xmlns="http://www.w3.org/2000/svg">
<g clip-path="url(#clip0_515_991)">
<g clip-path="url(#clip1_515_991)">
<path d="M1.71948 12.5453C1.72107 11.1301 2.28398 9.77326 3.2847 8.77253C4.28543 7.77181 5.64224 7.2089 7.05748 7.20731V10.41C6.49142 10.4106 5.94872 10.6358 5.54845 11.0361C5.14817 11.4363 4.92302 11.979 4.92237 12.5451C4.92237 13.5942 5.4897 14.7229 6.73548 14.7229C6.81837 14.7229 8.7657 14.7038 8.7657 13.0475V0.908203H12.1786C12.1804 1.67358 12.4854 2.40705 13.0269 2.948C13.5684 3.48895 14.3021 3.79331 15.0675 3.79443L15.0646 6.99131C13.9749 6.99968 12.904 6.7075 11.9695 6.14687L11.9681 13.0475C11.9681 16.216 9.27193 17.9255 6.73504 17.9255C3.87593 17.9262 1.71948 15.6129 1.71948 12.5453Z" fill="#FF4040"/>
<path d="M0.86554 11.6911C0.867128 10.2758 1.43003 8.91901 2.43076 7.91828C3.43148 6.91756 4.7883 6.35465 6.20354 6.35307V9.55573C5.63747 9.55638 5.09477 9.78154 4.6945 10.1818C4.29423 10.5821 4.06908 11.1248 4.06843 11.6908C4.06843 12.74 4.63576 13.8686 5.88154 13.8686C5.96443 13.8686 7.91176 13.8495 7.91176 12.1933V0.0539551H11.3247C11.3265 0.819331 11.6315 1.5528 12.173 2.09375C12.7144 2.63471 13.4482 2.93906 14.2135 2.94018L14.2107 6.13707C13.1209 6.14543 12.05 5.85325 11.1155 5.29262L11.1142 12.1933C11.1142 15.3617 8.41798 17.0713 5.88109 17.0713C3.02198 17.072 0.86554 14.7586 0.86554 11.6911Z" fill="#00F5FF"/>
<path d="M6.20375 7.27149C2.75708 7.70883 0.0308616 12.1048 2.85931 16.0606C5.47219 18.1977 10.9689 16.9548 11.1211 12.331L11.1173 5.2966C12.0573 5.84838 13.1282 6.13785 14.2182 6.13483V3.66127C13.5773 3.44482 13.0233 3.02761 12.6382 2.47149C12.0731 2.09979 11.6538 1.54433 11.4511 0.899048H8.76731L8.76553 13.0826C8.76308 14.7855 5.92331 15.3919 5.20242 13.7393C3.39708 12.8762 3.80531 9.59594 6.20753 9.56016L6.20375 7.27149Z" fill="white"/>
</g>
</g>
<defs>
<clipPath id="clip0_515_991">
<rect width="16" height="18" fill="white"/>
</clipPath>
<clipPath id="clip1_515_991">
<rect width="14.3333" height="18" fill="white" transform="translate(0.833313)"/>
</clipPath>
</defs>
</svg>
