<svg width="18" height="18" viewBox="0 0 18 18" fill="none" xmlns="http://www.w3.org/2000/svg">
<g clip-path="url(#clip0_515_1245)">
<path d="M14.226 12.1851C14.2892 10.7244 16.4162 10.64 16.4162 12.1148C16.2738 14.5758 15.0293 16.0312 13.5017 16.6342C13.507 16.6359 13.514 16.6359 13.5193 16.6377C13.1572 16.8451 12.607 17.1035 12.0357 17.2037C5.7322 18.1107 3.12537 13.6054 2.70876 10.7033C2.33435 8.09295 3.71248 6.14002 3.76873 5.6865C3.42771 4.34002 1.61365 5.70936 1.57849 5.4035C1.99333 2.97947 5.09412 3.15526 5.88865 3.49451C10.6752 -1.31838 14.7041 1.01248 14.4369 3.07088C15.6603 2.99002 16.2123 3.54197 16.1332 3.99022C15.8625 5.12928 14.734 5.25936 13.9429 5.12049C13.3084 5.00975 12.9568 4.69334 12.9533 4.83748C12.9445 5.32967 14.1539 5.36658 14.0133 5.54412C13.5527 5.74627 11.6402 6.05389 11.4697 6.46346C11.0724 10.2357 8.18435 9.74529 8.43044 9.57303C9.57302 8.68885 9.0404 7.48299 8.14744 8.08943C3.78103 11.4574 6.3949 16.9295 10.749 16.8627C8.29685 16.3652 6.2824 14.0484 7.72556 10.4888C7.87146 10.4097 7.86619 10.5592 7.86619 10.5592C7.30017 12.9445 7.9365 14.4316 8.99119 15.1523C11.0179 15.4599 13.3734 13.7408 12.8777 11.1076C12.6914 9.65916 14.7761 9.21092 15.0275 10.6646C15.0451 10.8035 15.0574 10.9406 15.0662 11.0742C14.6021 11.1726 14.182 11.5488 14.1556 12.1851C14.1873 14.3965 12.4172 15.6621 10.7068 15.6744C12.44 15.6972 14.2593 14.4263 14.226 12.1851ZM12.106 4.27147C12.3627 4.27147 12.5929 4.15721 12.7494 3.97615C12.6492 4.03065 12.5385 4.06053 12.4242 4.06053C12.0533 4.06053 11.7527 3.75994 11.7527 3.38904C11.7527 3.01815 12.0533 2.71756 12.4242 2.71756C12.4892 2.71756 12.5525 2.72811 12.6123 2.74393C12.4717 2.63846 12.2959 2.57518 12.106 2.57518C11.6385 2.57518 11.2588 2.95486 11.2588 3.42244C11.257 3.89178 11.6367 4.27147 12.106 4.27147ZM12.5297 3.10604C12.5314 3.04276 12.498 2.98299 12.4418 2.95135C12.3873 2.91971 12.3187 2.91971 12.2642 2.95135C12.2097 2.98299 12.1763 3.04276 12.1763 3.10604C12.1781 3.20272 12.2572 3.28006 12.3521 3.28006C12.4488 3.28006 12.5279 3.20272 12.5297 3.10604Z" fill="white"/>
</g>
<defs>
<clipPath id="clip0_515_1245">
<rect width="18.0001" height="18" fill="white"/>
</clipPath>
</defs>
</svg>
