<svg width="21" height="16" viewBox="0 0 21 16" fill="none" xmlns="http://www.w3.org/2000/svg">
<g clip-path="url(#clip0_515_1381)">
<path d="M20.5014 1.77909C20.2907 1.67368 20.1997 1.87459 20.0765 1.97669C20.0346 2.00964 19.9988 2.05246 19.9629 2.09198C19.655 2.42791 19.2951 2.6486 18.8246 2.62225C18.137 2.58273 17.5499 2.8034 17.0312 3.34027C16.9208 2.67824 16.5544 2.28301 15.9966 2.0294C15.7042 1.89766 15.4095 1.7659 15.2048 1.47934C15.0624 1.27515 15.0237 1.04788 14.9521 0.82393C14.9068 0.688887 14.8615 0.550558 14.7092 0.527491C14.5432 0.50114 14.4786 0.642777 14.4135 0.761348C14.1542 1.24551 14.0533 1.77909 14.0636 2.31924C14.0858 3.53461 14.5889 4.50293 15.5877 5.19131C15.7014 5.27034 15.7306 5.3494 15.6948 5.46466C15.6268 5.7018 15.5453 5.93237 15.4741 6.16952C15.4288 6.32103 15.3609 6.35395 15.2015 6.28809C14.6536 6.05423 14.1801 5.7084 13.7614 5.29013C13.0512 4.58856 12.4089 3.81455 11.6082 3.20853C11.4228 3.06873 11.2323 2.93579 11.0371 2.81C10.2199 1.99976 11.1442 1.33444 11.3583 1.25539C11.5818 1.17305 11.4361 0.889797 10.7127 0.893082C9.98935 0.896367 9.32773 1.14341 8.48454 1.47277C8.36106 1.52217 8.23134 1.5584 8.09879 1.58806C7.333 1.43983 6.53842 1.4069 5.708 1.50241C4.14476 1.68028 2.89604 2.43453 1.97795 3.72233C0.875396 5.27034 0.615596 7.02917 0.933854 8.86372C1.26734 10.7971 2.23442 12.3978 3.71987 13.6494C5.26047 14.9471 7.03453 15.5828 9.05848 15.4609C10.2878 15.3884 11.6563 15.2205 13.2002 13.8865C13.5897 14.0842 13.9985 14.1632 14.6762 14.2225C15.1987 14.2719 15.7014 14.1961 16.0904 14.1138C16.7002 13.9821 16.6577 13.4057 16.4375 13.3003C14.6503 12.4505 15.0426 12.7963 14.6861 12.5164C15.5943 11.4196 16.9628 10.28 17.4981 6.58781C17.5404 6.29468 17.5046 6.11024 17.4981 5.8731C17.4947 5.72818 17.5268 5.67217 17.6895 5.65572C18.137 5.60301 18.5718 5.47785 18.9707 5.2539C20.1284 4.60834 20.5957 3.54777 20.7061 2.27642C20.7225 2.0821 20.7028 1.88119 20.5014 1.77909ZM10.4109 13.2212C8.67929 11.8313 7.83899 11.3735 7.49193 11.3932C7.16751 11.413 7.22597 11.7918 7.29718 12.0388C7.37171 12.2825 7.46927 12.4505 7.60554 12.6646C7.69944 12.8062 7.76449 13.017 7.51128 13.1751C6.95341 13.5275 5.98384 13.0565 5.93857 13.0335C4.80967 12.355 3.86561 11.4591 3.2007 10.2339C2.55845 9.05475 2.18586 7.78999 2.12409 6.4396C2.10762 6.11353 2.2019 5.99824 2.51935 5.93894C2.93739 5.8575 3.36609 5.84637 3.7878 5.90602C5.55569 6.16954 7.06088 6.97647 8.32233 8.25442C9.04241 8.98229 9.5871 9.85183 10.1487 10.7016C10.7452 11.604 11.3875 12.4637 12.2047 13.1685C12.4933 13.4155 12.7235 13.6033 12.9441 13.7416C12.2792 13.8174 11.1697 13.8338 10.4109 13.2212ZM11.2413 7.77023C11.2413 7.62531 11.355 7.51002 11.4978 7.51002C11.5302 7.51058 11.5593 7.51607 11.5851 7.5265C11.6343 7.54539 11.6765 7.57887 11.706 7.62243C11.7356 7.666 11.7512 7.71757 11.7506 7.77023C11.7511 7.80418 11.7448 7.83787 11.7321 7.86937C11.7194 7.90087 11.7007 7.92954 11.6768 7.95374C11.653 7.97794 11.6247 7.99717 11.5934 8.01034C11.5621 8.0235 11.5285 8.03034 11.4945 8.03044C11.4607 8.03034 11.4273 8.02349 11.3961 8.01029C11.365 7.99709 11.3368 7.97781 11.3132 7.95357C11.2896 7.92934 11.2711 7.90064 11.2588 7.86915C11.2464 7.83767 11.2405 7.80404 11.2413 7.77023ZM13.8199 9.12062C13.6548 9.1898 13.4893 9.24909 13.3299 9.25566C13.0837 9.26885 12.8145 9.16675 12.6687 9.04159C12.4415 8.84725 12.2792 8.73856 12.2113 8.39932C12.1821 8.25439 12.1981 8.03044 12.2241 7.90199C12.2825 7.62531 12.2175 7.44747 12.0265 7.28607C11.8708 7.15431 11.6728 7.11808 11.4554 7.11808C11.3743 7.11808 11.2998 7.08187 11.2446 7.05221C11.2178 7.03935 11.1939 7.02108 11.1744 6.99854C11.1549 6.976 11.1403 6.94967 11.1315 6.92122C11.1227 6.89277 11.1198 6.8628 11.1232 6.8332C11.1265 6.8036 11.1359 6.775 11.1508 6.7492C11.1734 6.7031 11.2837 6.59109 11.3097 6.57134C11.6049 6.40006 11.9453 6.45608 12.2599 6.58452C12.5518 6.70638 12.7721 6.93036 13.0903 7.24655C13.4147 7.62862 13.4732 7.73403 13.6576 8.02056C13.8038 8.24451 13.9368 8.47509 14.0274 8.73856C14.0829 8.90326 14.0113 9.03828 13.8199 9.12062Z" fill="white"/>
</g>
<defs>
<clipPath id="clip0_515_1381">
<rect width="21" height="16" fill="white"/>
</clipPath>
</defs>
</svg>
