<svg width="18" height="18" viewBox="0 0 18 18" fill="none" xmlns="http://www.w3.org/2000/svg">
<g clip-path="url(#clip0_515_1199)">
<g clip-path="url(#clip1_515_1199)">
<path d="M14.5531 1.13379H3.00612C2.92903 1.13369 2.85436 1.16067 2.79514 1.21002C2.73592 1.25936 2.69592 1.32795 2.68212 1.40379L0.00911561 16.4878C0.000750482 16.5352 0.00284645 16.5838 0.0152567 16.6303C0.0276669 16.6768 0.0500912 16.72 0.0809584 16.7569C0.111826 16.7938 0.150389 16.8235 0.193947 16.8439C0.237505 16.8644 0.285004 16.875 0.333116 16.8752H6.70511L7.20911 16.7222H10.1701L10.5841 16.8752H15.4801C15.5572 16.8753 15.6319 16.8483 15.6911 16.7989C15.7503 16.7496 15.7903 16.681 15.8041 16.6052L18.0001 4.19379L14.5531 1.13379Z" fill="#0E73FF"/>
<path d="M14.3911 4.18512H18.0001L14.5441 1.12512L14.0671 3.79812C14.0401 4.00512 14.1931 4.18512 14.3911 4.18512Z" fill="#85B2F1"/>
<path d="M9.37812 1.78284L8.73011 5.43684L2.43011 5.44584L5.16611 8.38884H8.19911L6.69612 16.8578H10.5661L12.0691 8.38884H16.8121L9.37812 1.78284Z" fill="white"/>
</g>
</g>
<defs>
<clipPath id="clip0_515_1199">
<rect width="18.0001" height="18.0001" fill="white"/>
</clipPath>
<clipPath id="clip1_515_1199">
<rect width="18" height="18" fill="white"/>
</clipPath>
</defs>
</svg>
