<svg width="18" height="18" viewBox="0 0 18 18" fill="none" xmlns="http://www.w3.org/2000/svg">
<g clip-path="url(#clip0_515_885)">
<g clip-path="url(#clip1_515_885)">
<path d="M9 18C4.03763 18 0 13.9624 0 9C0 4.03763 4.03763 0 9 0C13.9629 0 18 4.03763 18 9C18 13.9624 13.9629 18 9 18ZM16.5904 10.2319C16.3271 10.1486 14.211 9.5175 11.8018 9.90338C12.8076 12.6664 13.2165 14.9169 13.2952 15.3844C15.0199 14.2183 16.2478 12.3711 16.5904 10.2319ZM12.0026 16.0881C11.8884 15.4136 11.4418 13.0629 10.3624 10.2583C10.3455 10.2639 10.3286 10.2696 10.3118 10.2752C5.976 11.7861 4.419 14.7932 4.28119 15.0756C5.5845 16.092 7.2225 16.6984 9 16.6984C10.0648 16.6984 11.0796 16.4807 12.0026 16.0875V16.0881ZM3.28894 14.1519C3.46331 13.8538 5.57269 10.3607 9.53775 9.07875C9.63787 9.04612 9.73913 9.01575 9.84094 8.98763C9.648 8.55112 9.43762 8.1135 9.21769 7.68319C5.37862 8.83238 1.65319 8.784 1.31681 8.77725C1.31456 8.85544 1.31288 8.93362 1.31288 9.01237C1.31288 10.9867 2.06156 12.7896 3.28894 14.1525V14.1519ZM1.47487 7.43738C1.81856 7.44187 4.986 7.45594 8.5815 6.50081C7.308 4.23675 5.93381 2.33269 5.73131 2.05481C3.58088 3.069 1.97325 5.05181 1.47487 7.43738ZM7.19831 1.53787C7.41094 1.8225 8.80706 3.72375 10.0665 6.03788C12.8003 5.01356 13.9573 3.45769 14.0957 3.26081C12.7384 2.0565 10.953 1.32356 9 1.32356C8.37956 1.32356 7.77656 1.39781 7.19831 1.53731V1.53787ZM14.9507 4.15013C14.7887 4.3695 13.5006 6.021 10.6582 7.18144C10.8371 7.54763 11.0087 7.92 11.1684 8.29463C11.2252 8.42737 11.2804 8.55956 11.3338 8.69119C13.8915 8.36944 16.4334 8.88525 16.6866 8.93869C16.6697 7.12406 16.0211 5.45794 14.9507 4.15013Z" fill="white"/>
</g>
</g>
<defs>
<clipPath id="clip0_515_885">
<rect width="18" height="18" fill="white"/>
</clipPath>
<clipPath id="clip1_515_885">
<rect width="18" height="18" fill="white"/>
</clipPath>
</defs>
</svg>
