<svg width="18" height="18" viewBox="0 0 18 18" fill="none" xmlns="http://www.w3.org/2000/svg">
<g clip-path="url(#clip0_515_1432)">
<g clip-path="url(#clip1_515_1432)">
<path d="M7.37154 4.77743C6.63925 4.82949 6.01881 5.44549 6.01881 6.31405V10.4464C6.01881 10.5959 5.90803 10.7245 5.74625 10.7245H4.45562C1.66158 10.7278 1.90971 7.15712 4.28834 7.15268H5.71516V6.11461H4.23628C3.289 6.11461 2.58656 6.4681 2.11244 6.99544C1.63831 7.52278 1.40013 8.23295 1.39907 8.94081C1.39791 9.64876 1.63271 10.3545 2.11803 10.8818C2.60326 11.408 3.33671 11.7626 4.34146 11.7626H6.77553C6.93615 11.7626 7.06905 11.6241 7.06905 11.4634V6.42368C7.06798 6.16454 7.21421 5.96288 7.40477 5.90416C7.59532 5.84543 7.81911 5.9197 7.94988 6.1091L7.95538 6.11461C8.6477 7.24685 11.3963 11.6562 11.4008 11.664C11.4761 11.7715 11.5658 11.7904 11.6312 11.7693C11.6966 11.7471 11.7631 11.6762 11.7619 11.5012V6.42377C11.7608 6.16454 11.9071 5.96288 12.0976 5.90407C12.2882 5.84543 12.5065 5.9197 12.6383 6.1091V6.11461H12.6482C13.3406 7.24685 16.0893 11.6562 16.0937 11.664C16.1679 11.7703 16.2554 11.7913 16.3242 11.7692C16.3928 11.747 16.4615 11.6806 16.4604 11.5066V4.80408H15.4168V8.71596C15.4168 8.71596 14.7942 7.65239 13.7284 5.82109C12.6837 4.02746 10.7128 4.7697 10.7128 6.31414V8.71596C10.7128 8.71596 10.1013 7.65239 9.03432 5.82109C8.57796 5.03666 7.94099 4.73638 7.37154 4.77734V4.77743ZM4.41902 4.80408C-1.38955 4.80408 -1.33296 13.0809 4.49773 13.0854H6.77882C7.75932 13.0854 8.38527 12.5048 8.38411 11.4335V9.33516C8.38411 9.33516 9.6648 11.4523 10.1678 12.2822C11.0208 13.6925 13.0837 13.4144 13.0781 11.6528V9.33525C13.0781 9.33525 14.3545 11.4523 14.8563 12.2822C15.7093 13.6925 17.7777 13.4144 17.7722 11.6528V4.80292H16.7286V11.5056C16.7297 11.7626 16.5946 11.9531 16.4084 12.0141C16.2223 12.075 16.0085 11.9985 15.8789 11.8146H15.8733V11.8047C15.8733 11.8047 13.1236 7.40756 12.4223 6.26084C12.4201 6.25871 12.4189 6.26306 12.4167 6.26084C12.4157 6.26084 12.4179 6.25533 12.4167 6.25533C12.3448 6.15894 12.2517 6.13789 12.1753 6.16116C12.0966 6.18551 12.0224 6.25311 12.0234 6.42377V11.5C12.0246 11.7559 11.8928 11.9575 11.7089 12.0197C11.525 12.0817 11.3134 11.9997 11.1848 11.8146V11.8091H11.1793C11.1793 11.8091 8.42729 7.40312 7.72822 6.25977C7.65511 6.15566 7.56094 6.13016 7.48232 6.1545C7.4037 6.17893 7.32943 6.24645 7.3305 6.41711V11.4624C7.3305 11.7681 7.07909 12.024 6.77437 12.024H4.3404C3.27239 12.024 2.46255 11.6396 1.92748 11.0591C1.39232 10.4785 1.12865 9.70854 1.12971 8.93974C1.13087 8.17192 1.39454 7.39645 1.91637 6.8159C2.4382 6.23543 3.2214 5.85201 4.23406 5.85094H5.71303V4.80177H4.41795L4.41902 4.80408Z" fill="white"/>
</g>
</g>
<defs>
<clipPath id="clip0_515_1432">
<rect width="18.0001" height="18.0001" fill="white"/>
</clipPath>
<clipPath id="clip1_515_1432">
<rect width="18" height="18" fill="white"/>
</clipPath>
</defs>
</svg>
