<svg width="18" height="18" viewBox="0 0 18 18" fill="none" xmlns="http://www.w3.org/2000/svg">
<g clip-path="url(#clip0_515_692)">
<path d="M11.4053 14.8035L12.0769 14.6293L11.8225 14.7728C11.6698 14.8649 11.5681 15.0288 11.5681 15.213V15.4999L11.4053 14.8035Z" fill="#142C46"/>
<path d="M17.9594 14.8362C17.9436 14.8218 17.9243 14.8117 17.9035 14.807C17.8826 14.8023 17.8609 14.803 17.8405 14.8092C16.8993 13.4193 15.7029 12.1008 14.5438 10.8279L14.3528 10.619C14.3517 10.5941 14.3421 10.5703 14.3258 10.5515C14.307 10.5276 14.28 10.5115 14.25 10.5065L14.2114 10.466L14.1844 10.446C14.151 10.374 14.0655 10.32 13.971 10.3676C13.6167 10.5495 13.2979 10.8099 12.9835 11.0503C12.5631 11.3718 12.1523 11.7061 11.7659 12.0654C11.6054 12.209 11.4575 12.366 11.3236 12.5347C11.2606 12.6177 11.3082 12.6961 11.3847 12.7295C11.1102 12.9995 10.8344 13.2798 10.5579 13.5698C10.5456 13.583 10.5361 13.5986 10.5299 13.6156C10.5237 13.6326 10.521 13.6507 10.5219 13.6688C10.5232 13.6867 10.5282 13.7042 10.5368 13.7201C10.5453 13.7359 10.5571 13.7498 10.5714 13.7607L11.0568 14.131C11.0568 14.131 11.0587 14.1374 11.0632 14.14C11.7575 14.8247 12.9745 15.7748 14.2635 16.7809C14.4544 16.9314 14.6473 17.0818 14.8401 17.2322C14.9282 17.3377 15.0111 17.4431 15.0921 17.5472C15.1128 17.5741 15.1432 17.5918 15.1768 17.5964C15.2104 17.601 15.2444 17.5921 15.2715 17.5717C15.3004 17.5935 15.3294 17.6186 15.3589 17.6411C15.3858 17.6619 15.4199 17.6712 15.4536 17.667C15.4873 17.6628 15.518 17.6454 15.5389 17.6186C15.5536 17.5983 15.5621 17.5742 15.5634 17.5492C15.5724 17.5492 15.5795 17.5556 15.5859 17.5556C15.6036 17.5557 15.6211 17.5521 15.6373 17.5452C15.6536 17.5382 15.6682 17.528 15.6804 17.5151L17.9665 15.0182C17.9779 15.0058 17.9867 14.9914 17.9924 14.9756C17.9982 14.9598 18.0007 14.943 17.9998 14.9263C17.999 14.9095 17.9948 14.8931 17.9875 14.8779C17.9803 14.8628 17.97 14.8493 17.9575 14.8382L17.9594 14.8362ZM11.3956 13.9716C11.411 13.9921 11.4271 14.0101 11.4425 14.0281C11.7035 14.248 11.9819 14.4859 12.2648 14.7289L11.1147 13.8507L10.9983 13.7697C10.9746 13.7525 10.9514 13.7345 10.9289 13.7157L10.8434 13.6437C10.8434 13.6437 10.8588 13.6283 10.8659 13.6193L10.9443 13.5402C11.33 13.15 11.9928 12.4987 12.3342 12.1799C11.9729 12.5437 11.2413 13.6103 11.3982 13.9716H11.3956ZM15.3319 17.0728L14.3843 16.3496C14.0054 15.9595 13.613 15.5828 13.2079 15.22C13.7196 15.6154 14.1574 15.9497 14.223 16.0082C14.7193 16.4511 14.6968 16.3701 15.0381 16.662L15.4489 16.9603C15.4084 16.9963 15.3679 17.0349 15.33 17.0709L15.3319 17.0728ZM15.5698 17.2547L15.5525 17.2419C15.5885 17.2123 15.6264 17.1853 15.6617 17.1557L15.5724 17.2547H15.5698ZM0.541254 2.59134L0.631257 3.06514C0.785548 3.89574 0.929552 4.64405 1.20342 5.21235L1.31142 5.64308C1.35385 5.80701 1.41428 6.01145 1.47086 6.05452C2.11052 6.62025 3.09219 7.46435 4.14073 8.25959C4.16355 8.27669 4.19141 8.28572 4.21992 8.28525C4.24843 8.28479 4.27598 8.27486 4.29823 8.25702C4.30016 8.26152 4.30466 8.26345 4.30723 8.26602C4.33028 8.28748 4.3606 8.29942 4.39209 8.29945C4.41001 8.29987 4.4278 8.29628 4.44415 8.28894C4.4605 8.2816 4.475 8.27069 4.48659 8.25702C5.82957 6.76362 6.8286 5.53508 7.54026 4.50647C7.58416 4.45367 7.60746 4.38676 7.60584 4.31811C7.65084 4.26411 7.69777 4.21011 7.74084 4.16575C7.75378 4.1524 7.76358 4.13635 7.76955 4.11875C7.77551 4.10115 7.77749 4.08244 7.77533 4.06398C7.77318 4.04552 7.76695 4.02777 7.75709 4.01202C7.74724 3.99626 7.734 3.98289 7.71834 3.97288C7.71566 3.94193 7.70198 3.91296 7.67977 3.89124C7.42306 3.6436 7.16419 3.39823 6.90317 3.15514C6.31118 2.60348 5.72928 2.04108 5.15776 1.46823L5.14233 1.45537C5.12864 1.44085 5.11166 1.42983 5.09283 1.42323C4.84339 1.3358 4.33166 1.24837 3.6875 1.13586C2.73925 0.974502 1.44193 0.750137 0.273817 0.401698H0.264817V0.399769C0.264817 0.399769 0.260317 0.399769 0.258388 0.404269H0.255817L0.264817 0.399769C0.264817 0.399769 0.195386 0.401698 0.181243 0.408769C0.165134 0.416875 0.1509 0.428262 0.139456 0.442199C0.127884 0.455699 0.118884 0.4692 0.033381 0.4872C-0.0514789 0.505201 0.0513816 0.4872 0.0584532 0.4872H0.033381V0.493629C0.0494529 0.570774 0.0449528 0.624133 0.0693821 0.712208C0.064882 0.734066 0.116955 0.941072 0.123384 0.961001L0.534826 2.59134H0.541254ZM7.49076 4.05967L7.48241 4.07124L7.3384 3.91181C7.3879 3.95874 7.4374 4.00631 7.49141 4.05967H7.49076ZM5.899 6.16831L5.8765 6.19531L5.872 6.19081C5.881 6.18438 5.89 6.17538 5.90093 6.16895L5.899 6.16831ZM4.98933 1.65531C5.0684 1.73374 5.3802 2.02561 5.4522 2.09761C5.12626 1.9491 4.31559 1.57174 3.93886 1.45087C4.30916 1.51516 4.82089 1.59874 4.98933 1.65467V1.65531ZM0.682045 1.033C0.871051 1.35637 1.01956 2.49041 1.16742 3.59294C1.08384 3.23807 1.01313 2.89221 0.944982 2.55984C0.828621 1.98511 0.720617 1.4708 0.570184 1.015C0.601685 1.01693 0.639615 1.02143 0.680116 1.02593C0.680116 1.0285 0.680116 1.03043 0.684616 1.03236L0.682045 1.033ZM0.617757 0.761066C0.565684 0.756566 0.518754 0.752066 0.478252 0.750138C0.473752 0.741137 0.471824 0.732137 0.469252 0.723137L0.617114 0.763638L0.617757 0.761066ZM17.7556 0.597133C17.7646 0.545702 17.5087 0.318767 17.5891 0.314266C17.78 0.305266 17.7819 0.0114709 17.5891 0.0198283C17.3358 0.0333287 17.0793 0.0918306 16.8324 0.139404C16.3882 0.222335 15.9452 0.314266 15.5029 0.410698C14.5161 0.61658 13.5351 0.849604 12.5611 1.10951C12.2558 1.19244 11.9189 1.26637 11.6386 1.41487C11.5441 1.46373 11.5486 1.56531 11.6 1.62767C11.5809 1.63878 11.5597 1.64578 11.5377 1.64824C11.4541 1.66367 11.3712 1.67717 11.2882 1.69067C11.2676 1.69406 11.2481 1.70251 11.2314 1.71525C11.2148 1.72799 11.2016 1.74464 11.1929 1.76372C11.1843 1.78279 11.1805 1.80371 11.1819 1.82461C11.1832 1.84551 11.1897 1.86575 11.2008 1.88353C10.6801 2.58041 10.0867 3.33001 9.44447 4.11817C8.78668 4.87305 8.13393 5.63231 7.48626 6.39589C5.37312 8.87933 2.97712 11.6951 0.322676 14.1747C0.298129 14.1977 0.283675 14.2295 0.282471 14.2631C0.281266 14.2967 0.293409 14.3294 0.316247 14.3541C0.327956 14.3669 0.342482 14.3768 0.358677 14.383C0.323241 14.4166 0.287235 14.4496 0.250674 14.482C0.230443 14.5009 0.217669 14.5265 0.214673 14.554L0.163242 14.6099C0.151836 14.6222 0.142954 14.6365 0.137103 14.6522C0.131252 14.6679 0.128548 14.6846 0.129145 14.7013C0.129742 14.718 0.133629 14.7344 0.140583 14.7496C0.147536 14.7649 0.157421 14.7786 0.169671 14.7899C0.194538 14.8127 0.227326 14.8247 0.260988 14.8235C0.294649 14.8223 0.326495 14.808 0.349677 14.7835L0.376678 14.7539C0.394284 14.7353 0.41551 14.7205 0.439056 14.7103C0.462601 14.7002 0.487971 14.6949 0.513611 14.6949C0.53925 14.6949 0.56462 14.7002 0.588166 14.7103C0.611711 14.7205 0.632937 14.7353 0.650544 14.7539L1.08834 15.2232L0.778476 14.9648C0.752472 14.9432 0.718998 14.9327 0.685307 14.9356C0.651615 14.9385 0.620417 14.9545 0.598471 14.9802C0.57693 15.0063 0.566538 15.0398 0.569547 15.0735C0.572555 15.1072 0.588722 15.1384 0.614542 15.1602L3.94272 17.9516C3.96761 17.9717 3.999 17.9818 4.03091 17.9802C4.06281 17.9785 4.09298 17.9651 4.11565 17.9426L4.19666 17.8616C4.22017 17.8721 4.24632 17.8751 4.27161 17.8703C4.2969 17.8655 4.3201 17.853 4.33809 17.8346C8.84916 13.303 12.4827 9.87836 16.6441 6.81762C16.662 6.80479 16.6762 6.78744 16.6852 6.76734C16.6942 6.74724 16.6978 6.7251 16.6955 6.70319C16.72 6.70049 16.7432 6.69082 16.7623 6.67532C16.7815 6.65982 16.7958 6.63914 16.8035 6.61575C17.5711 4.26668 17.7196 2.18697 17.7646 1.16544C17.7648 1.16 17.7663 1.15469 17.7691 1.15001C17.7736 1.13844 17.7755 1.12751 17.7781 1.11786L17.789 1.07608C17.8165 0.997542 17.8277 0.91424 17.8219 0.831239C17.8162 0.748239 17.7936 0.667275 17.7556 0.593275V0.597133ZM9.68876 4.27311C9.89063 4.04167 10.0906 3.81538 10.2886 3.59487C8.9951 5.29721 6.85239 7.92015 3.81929 11.0368C5.88485 8.75139 7.96649 6.38239 9.68876 4.27375V4.27311ZM2.37924 16.1323L2.37281 16.1258L2.41781 16.1348C2.40507 16.1325 2.39199 16.1325 2.37924 16.1348V16.1323ZM3.92858 17.5742L3.91765 17.5652L3.92408 17.5588C3.92858 17.5588 3.93051 17.5627 3.93308 17.5627C3.93308 17.5672 3.92858 17.5691 3.92665 17.5742H3.92858ZM5.80578 15.9548L6.11565 15.6315C6.11857 15.6348 6.12076 15.6388 6.12208 15.643C6.01729 15.7459 5.91121 15.852 5.80385 15.9548H5.80578ZM6.30915 15.4585L6.50459 15.2297C6.50652 15.2277 6.50909 15.2232 6.51359 15.2207C7.26576 14.444 8.02763 13.6768 8.79902 12.9192L8.81509 12.9057L9.42583 12.4383C8.3804 13.4391 7.34148 14.4468 6.30915 15.4611V15.4585ZM11.1706 2.91021C10.7527 3.45408 10.295 4.15868 9.9067 4.72312C8.68009 6.49875 4.73282 10.8485 4.64474 10.9314C4.03658 11.5203 2.20181 13.2805 1.03177 14.3836C1.00452 14.408 0.978965 14.4342 0.955268 14.4621C0.938828 14.4451 0.925937 14.425 0.917348 14.403C0.908759 14.3809 0.904644 14.3574 0.905243 14.3338C0.905841 14.3101 0.911141 14.2868 0.920834 14.2653C0.930527 14.2437 0.944418 14.2243 0.961696 14.2081C6.53545 8.95326 9.91698 4.57655 11.2921 2.67041C11.2625 2.74434 11.2381 2.8247 11.1687 2.91471L11.1706 2.91021ZM14.8781 4.50454L14.8761 4.50904C14.8761 4.50454 14.8716 4.49361 14.8781 4.50454ZM13.3512 5.47529C12.8434 5.18085 12.6055 4.74048 12.7424 4.29625L12.7855 4.14839C12.8035 4.10532 12.8241 4.06224 12.8485 4.01981C12.9809 3.79995 13.1828 3.60451 13.4142 3.49008C13.4252 3.48558 13.4367 3.48365 13.4477 3.48108C13.4359 3.45038 13.4327 3.41701 13.4387 3.38465C13.4502 3.31458 13.4952 3.25415 13.5865 3.25415C13.7376 3.25415 14.2043 3.39301 14.3818 3.54601C14.4358 3.58844 14.4872 3.63602 14.5348 3.68745C14.6023 3.76588 14.7006 3.89381 14.7501 3.98638C14.7797 3.99924 14.8016 4.12525 14.8356 4.19018C14.8671 4.29368 14.8806 4.39911 14.8761 4.50519C14.8761 4.50904 14.8761 4.50904 14.8781 4.51161C14.8716 4.52704 14.8781 4.59519 14.8691 4.60162C14.8466 4.76298 14.7881 4.92306 14.7006 5.06192C14.6916 5.07285 14.6852 5.08635 14.6762 5.09792C14.6762 5.09985 14.6717 5.10242 14.6698 5.10692C14.6043 5.20498 14.522 5.29073 14.4268 5.36021C14.1439 5.56015 13.8141 5.62122 13.4837 5.53765C13.4399 5.52113 13.397 5.50247 13.3551 5.48172L13.3512 5.47529ZM17.0047 5.10885C16.8948 5.56915 16.7604 6.05002 16.6003 6.54182C16.5939 6.55982 16.5939 6.57718 16.5939 6.59325C16.5719 6.59568 16.551 6.60413 16.5335 6.61768C15.5413 7.34804 14.5691 8.1052 13.618 8.88833C14.4509 8.13464 15.2916 7.38971 16.14 6.65368C16.3898 6.4366 16.5571 6.14009 16.6138 5.81409L16.7398 5.05678L16.7463 5.03428C16.8028 4.87484 17.0471 4.94427 17.0092 5.10885H17.0047Z" fill="white"/>
</g>
<defs>
<clipPath id="clip0_515_692">
<rect width="18" height="18" fill="white"/>
</clipPath>
</defs>
</svg>
