<svg width="19" height="19" viewBox="0 0 19 19" fill="none" xmlns="http://www.w3.org/2000/svg">
<g clip-path="url(#clip0_515_1226)">
<g clip-path="url(#clip1_515_1226)">
<path d="M10.7231 7.64104L13.5525 4.0958C13.6449 3.98 13.7622 3.88651 13.8957 3.82225C14.0292 3.75799 14.1754 3.72462 14.3235 3.72461H16.2328C17.2317 3.72461 18.0415 4.5344 18.0415 5.53328V14.2889C18.0415 15.2878 17.2317 16.0976 16.2328 16.0976H14.1861C14.0929 16.0976 14.0009 16.0778 13.9159 16.0395C13.831 16.0013 13.7552 15.9454 13.6935 15.8757L8.53999 10.0499C8.45129 9.9503 8.40445 9.82028 8.40924 9.68696C8.41403 9.55364 8.47008 9.42731 8.5657 9.33429C8.66133 9.24127 8.78916 9.18874 8.92256 9.18763C9.05596 9.18653 9.18464 9.23694 9.28179 9.32837L14.5586 14.2635C14.6043 14.3062 14.6645 14.33 14.727 14.33H15.7827C15.8472 14.33 15.9111 14.3173 15.9707 14.2927C16.0303 14.268 16.0845 14.2318 16.1301 14.1862C16.1757 14.1406 16.2119 14.0864 16.2366 14.0268C16.2613 13.9672 16.274 13.9033 16.2739 13.8388V6.0656C16.2739 5.93534 16.2221 5.81042 16.13 5.71831C16.0379 5.6262 15.913 5.57443 15.7827 5.57439H14.813C14.7743 5.57439 14.7367 5.58812 14.7071 5.61303L11.455 8.35366C11.3576 8.43554 11.2332 8.4783 11.106 8.47364C10.9788 8.46898 10.8579 8.41724 10.7667 8.32845C10.6755 8.23967 10.6205 8.12017 10.6125 7.99315C10.6044 7.86612 10.6438 7.74064 10.7231 7.64104ZM7.42692 7.69481L4.58467 4.13649C4.49225 4.02081 4.37498 3.92741 4.24154 3.86322C4.1081 3.79903 3.96192 3.76571 3.81385 3.76572H1.8868C0.887916 3.76572 0.078125 4.57551 0.078125 5.57439V14.3711C0.078125 15.37 0.887916 16.1798 1.8868 16.1798H3.93191C4.03032 16.1798 4.12748 16.1577 4.21623 16.1151C4.30497 16.0726 4.38304 16.0107 4.44467 15.934L7.41105 12.2414C7.49583 12.1359 7.53794 12.0025 7.52905 11.8675C7.52016 11.7325 7.46091 11.6057 7.36303 11.5123C7.26514 11.4189 7.13576 11.3656 7.00048 11.363C6.8652 11.3605 6.73388 11.4088 6.6325 11.4984L3.40978 14.3446C3.3647 14.3844 3.30664 14.4063 3.24651 14.4064H2.34612C2.21536 14.4063 2.08999 14.3543 1.99754 14.2619C1.90509 14.1694 1.85313 14.044 1.85309 13.9133V6.11469C1.85309 5.98393 1.90503 5.85852 1.99749 5.76606C2.08995 5.6736 2.21536 5.62166 2.34612 5.62166H3.32033C3.35911 5.62164 3.39664 5.63533 3.4263 5.6603L6.6926 8.41038C6.7904 8.49277 6.91534 8.53584 7.04314 8.53121C7.17093 8.52659 7.29243 8.47459 7.38402 8.38535C7.4756 8.2961 7.53072 8.17598 7.53865 8.04835C7.54658 7.92072 7.50675 7.7947 7.42692 7.69481Z" fill="white"/>
</g>
</g>
<defs>
<clipPath id="clip0_515_1226">
<rect width="19" height="19" fill="white"/>
</clipPath>
<clipPath id="clip1_515_1226">
<rect width="18" height="18" fill="white" transform="translate(0.078125 0.931641)"/>
</clipPath>
</defs>
</svg>
