<svg width="19" height="19" viewBox="0 0 19 19" fill="none" xmlns="http://www.w3.org/2000/svg">
<g clip-path="url(#clip0_515_1085)">
<g clip-path="url(#clip1_515_1085)">
<path d="M7.73689 8.73668C4.78612 8.87291 2.41053 10.4524 2.41053 12.4197C2.41053 14.3875 4.79635 15.8626 7.73689 15.7264C10.6881 15.5902 13.0739 13.7489 13.0739 11.7811C13.0739 9.81464 10.6881 8.60045 7.73689 8.73668ZM9.74635 13.6863C8.84635 14.8477 7.05698 15.4233 5.31998 14.4815C4.49321 14.0315 4.52471 13.1528 4.52471 13.1528C4.52471 13.1528 4.17944 10.3796 7.15148 10.0343C10.1231 9.68905 10.6566 12.5249 9.74635 13.6863ZM7.75817 11.8237C7.56957 11.9595 7.52785 12.2213 7.63257 12.3886C7.72667 12.5555 7.96762 12.5768 8.14517 12.441C8.33376 12.2945 8.39594 12.0434 8.30185 11.876C8.20817 11.7087 7.97785 11.6666 7.75817 11.8237ZM6.3558 12.2107C5.80107 12.263 5.40344 12.7548 5.40344 13.2154C5.40344 13.6756 5.85385 14 6.39794 13.937C6.95226 13.8745 7.40226 13.4453 7.40226 12.9851C7.40226 12.5142 6.99439 12.1481 6.3558 12.2107ZM15.7109 13.0792C14.4971 15.6642 10.4893 16.9197 7.51762 16.6792C4.69203 16.4591 1.07157 15.5178 0.694801 12.106C0.694801 12.106 0.495983 10.5571 1.99203 8.55873C1.99203 8.55873 4.14753 5.54495 6.65894 4.68668C9.17035 3.82841 9.46326 5.28314 9.46326 6.13077C9.32744 6.85282 9.07626 7.28155 10.018 6.98905C10.018 6.98905 12.4877 5.84809 13.5026 6.86345C14.3188 7.67959 13.6388 8.80991 13.6388 8.80991C13.6388 8.80991 13.3042 9.18668 13.9948 9.3225C14.7168 9.47959 16.9247 10.4945 15.7109 13.0792ZM13.2731 5.95282C13.2098 5.95309 13.1471 5.94083 13.0886 5.91676C13.0301 5.89268 12.977 5.85726 12.9322 5.81254C12.8874 5.76782 12.852 5.71468 12.8278 5.65618C12.8037 5.59769 12.7914 5.535 12.7916 5.47173C12.7916 5.19927 13.0113 4.97959 13.2731 4.97959C13.2731 4.97959 16.2975 4.42486 15.9408 7.67959C15.9408 7.70045 15.9408 7.71109 15.931 7.73196C15.9133 7.8446 15.8563 7.94735 15.7701 8.022C15.684 8.09666 15.5741 8.13839 15.4601 8.13982C15.1881 8.13982 14.9684 7.91973 14.9684 7.65832C14.968 7.6485 15.4495 5.47214 13.2731 5.95282ZM18.4003 8.55873C18.3168 9.11305 18.0443 9.15518 17.7199 9.15518C17.3329 9.15518 17.0192 8.91464 17.0192 8.51659C17.0192 8.18195 17.1554 7.83627 17.1554 7.83627C17.1971 7.68982 17.5215 6.81068 16.9353 5.49259C15.8573 3.68236 13.6916 3.66109 13.4298 3.75559C13.1684 3.86032 12.7916 3.91268 12.7916 3.91268C12.6987 3.91236 12.6068 3.89366 12.5212 3.85764C12.4356 3.82162 12.3579 3.76901 12.2928 3.70284C12.2276 3.63666 12.1761 3.55823 12.1414 3.47208C12.1067 3.38592 12.0894 3.29375 12.0904 3.20086C12.0904 2.87645 12.3101 2.60441 12.603 2.52095C12.603 2.52095 12.6137 2.51032 12.6239 2.51032C12.6448 2.51032 12.666 2.48905 12.6869 2.47841C12.9904 2.41623 14.068 2.20677 15.1148 2.45795C16.977 2.8875 19.5514 4.69732 18.4003 8.55873Z" fill="white"/>
</g>
</g>
<defs>
<clipPath id="clip0_515_1085">
<rect width="19" height="19" fill="white"/>
</clipPath>
<clipPath id="clip1_515_1085">
<rect width="18" height="18" fill="white" transform="translate(0.685669 0.36792)"/>
</clipPath>
</defs>
</svg>
