<svg width="18" height="14" viewBox="0 0 18 14" fill="none" xmlns="http://www.w3.org/2000/svg">
<g clip-path="url(#clip0_515_1397)">
<path d="M13.9746 6.82324C13.9746 6.88204 13.917 6.88184 13.8594 6.88184H8.91699C9.24497 7.53791 9.43162 8.27841 9.43164 9.06055C9.43164 11.7101 7.30355 13.8887 4.71582 13.8887L4.47461 13.8828C1.99692 13.7526 0 11.6273 0 9.06055C6.7872e-05 6.46019 2.04967 4.31507 4.57227 4.23633V4.23242H15.585L13.9746 6.82324ZM4.71582 6.94141C3.56558 6.94141 2.58806 7.88285 2.58789 9.11914C2.58789 10.2968 3.50806 11.2979 4.71582 11.2979C5.92333 11.2978 6.84375 10.3556 6.84375 9.11914C6.78597 7.88294 5.86596 6.94156 4.71582 6.94141ZM16.3896 2.70215C16.3895 2.76099 16.332 2.76074 16.2744 2.76074H7.47559L9.08691 0.169922C9.14429 0.16961 9.20144 0.11155 9.25879 0.111328H18L16.3896 2.70215Z" fill="white"/>
</g>
<defs>
<clipPath id="clip0_515_1397">
<rect width="18" height="14" fill="white"/>
</clipPath>
</defs>
</svg>
