<svg width="20" height="20" viewBox="0 0 20 20" fill="none" xmlns="http://www.w3.org/2000/svg">
<g clip-path="url(#clip0_515_1184)">
<g clip-path="url(#clip1_515_1184)">
<path d="M10 0C8.02219 0 6.08879 0.58649 4.4443 1.6853C2.79981 2.78412 1.51809 4.3459 0.761209 6.17317C0.00433281 8.00043 -0.193701 10.0111 0.192152 11.9509C0.578004 13.8907 1.53041 15.6725 2.92894 17.0711C4.32746 18.4696 6.10929 19.422 8.0491 19.8079C9.98891 20.1937 11.9996 19.9957 13.8268 19.2388C15.6541 18.4819 17.2159 17.2002 18.3147 15.5557C19.4135 13.9112 20 11.9778 20 10C20 7.34784 18.9464 4.8043 17.0711 2.92893C15.1957 1.05357 12.6522 0 10 0ZM10 18C8.41775 18 6.87104 17.5308 5.55544 16.6518C4.23985 15.7727 3.21447 14.5233 2.60897 13.0615C2.00347 11.5997 1.84504 9.99113 2.15372 8.43928C2.4624 6.88743 3.22433 5.46197 4.34315 4.34315C5.46197 3.22433 6.88743 2.4624 8.43928 2.15372C9.99113 1.84504 11.5997 2.00346 13.0615 2.60896C14.5233 3.21446 15.7727 4.23985 16.6518 5.55544C17.5308 6.87103 18 8.41775 18 10C18 12.1217 17.1572 14.1566 15.6569 15.6569C14.1566 17.1571 12.1217 18 10 18Z" fill="white"/>
<path d="M10.7791 6.18424L13.749 9.15409C14.2204 9.62549 14.2204 10.0969 13.749 10.5683L10.7791 13.5382C10.3077 14.0096 9.83631 14.0096 9.36491 13.5382L6.39506 10.5683C5.92365 10.0969 5.92365 9.62549 6.39506 9.15409L9.36491 6.18424C9.83631 5.71284 10.3077 5.71284 10.7791 6.18424Z" fill="white"/>
</g>
</g>
<defs>
<clipPath id="clip0_515_1184">
<rect width="20" height="20" fill="white"/>
</clipPath>
<clipPath id="clip1_515_1184">
<rect width="20" height="20" fill="white"/>
</clipPath>
</defs>
</svg>
