<svg width="19" height="19" viewBox="0 0 19 19" fill="none" xmlns="http://www.w3.org/2000/svg">
<g clip-path="url(#clip0_515_647)">
<path fill-rule="evenodd" clip-rule="evenodd" d="M17.9404 9.2674C17.9487 9.2975 18.5321 11.4205 18.7305 13.4988C18.9368 15.6619 18.4287 18.7029 18.4287 18.7029C18.4287 18.7029 10.7873 19.2258 5.73241 14.9432C7.24145 14.9812 10.431 14.8696 13.1015 13.8074C16.7582 12.354 17.9323 9.28865 17.9404 9.2674ZM5.73241 14.9432C5.70419 14.9189 5.67467 14.8972 5.64647 14.8729C5.5264 14.7698 5.44836 14.6899 5.36717 14.6033L5.73241 14.9432ZM5.36717 14.6033L5.15037 14.4012C5.14982 14.3871 5.15033 14.3779 5.15037 14.3758C5.23885 14.4649 5.30403 14.536 5.36717 14.6033ZM5.15037 14.3758C5.14926 14.3757 5.13827 14.375 5.12108 14.3729L4.58397 13.8172C4.76535 14.0058 4.99199 14.2175 5.15037 14.3758ZM7.95604 3.72346C11.5072 0.189416 18.4277 1.09846 18.4277 1.09846C18.4371 1.15536 19.4655 7.42802 15.5722 11.3026C11.6609 15.1949 5.07323 14.1707 5.07323 14.1707C5.06881 14.1247 4.41676 7.24566 7.95604 3.72346ZM0.823226 1.09846C0.848247 1.09453 3.54531 0.671409 5.54979 0.803535C8.08015 0.970784 10.0214 1.59334 10.0312 1.5965C10.0312 1.5965 6.58388 2.66562 5.15037 6.99299C4.3288 9.47288 4.54487 12.3892 4.58299 13.8074C4.58299 13.8114 4.58491 13.8134 4.58494 13.8172C4.53049 13.7607 4.47832 13.7056 4.43553 13.6551C0.137387 8.60538 0.817659 1.15854 0.823226 1.09846Z" fill="white"/>
</g>
<defs>
<clipPath id="clip0_515_647">
<rect width="19" height="19" fill="white"/>
</clipPath>
</defs>
</svg>
