<svg width="18" height="18" viewBox="0 0 18 18" fill="none" xmlns="http://www.w3.org/2000/svg">
<g clip-path="url(#clip0_515_870)">
<g clip-path="url(#clip1_515_870)">
<path d="M3.24635 9.47037C5.20063 9.05072 4.93436 6.71523 4.87587 6.20478C4.78016 5.41783 3.85455 4.04231 2.59765 4.15111C1.01598 4.29304 0.784886 6.5778 0.784886 6.5778C0.57097 7.63388 1.29697 9.89043 3.24635 9.47037ZM5.3217 13.5327C5.26443 13.6967 5.13682 14.1168 5.24726 14.4825C5.46526 15.3029 6.17736 15.3398 6.17736 15.3398H7.20072V12.8382H6.10496C5.61251 12.985 5.37487 13.3683 5.3217 13.5327ZM6.87351 5.55404C7.9529 5.55404 8.82533 4.31185 8.82533 2.776C8.82533 1.24177 7.9529 0 6.87351 0C5.79575 0 4.92127 1.24177 4.92127 2.776C4.92127 4.31185 5.79616 5.55404 6.87351 5.55404ZM11.5224 5.73768C12.965 5.92501 13.8926 4.38548 14.0771 3.21855C14.2653 2.05326 13.3343 0.699827 12.313 0.467097C11.2897 0.232321 10.0119 1.87166 9.89532 2.94042C9.75625 4.24682 10.0822 5.5524 11.5224 5.73768ZM15.0571 12.5969C15.0571 12.5969 12.8251 10.87 11.522 9.00368C9.75585 6.25182 7.24694 7.37171 6.40764 8.77136C5.57201 10.1706 4.26971 11.0557 4.08483 11.2901C3.89709 11.5208 1.38859 12.875 1.94567 15.3483C2.50235 17.82 4.45826 17.773 4.45826 17.773C4.45826 17.773 5.89964 17.9149 7.5717 17.5407C9.24457 17.1697 10.6847 17.6331 10.6847 17.6331C10.6847 17.6331 14.5921 18.9416 15.6612 16.4228C16.7292 13.9033 15.0571 12.5969 15.0571 12.5969ZM8.37173 16.3455H5.83133C4.73435 16.1267 4.29752 15.3782 4.2423 15.2506C4.18831 15.1209 3.87664 14.5193 4.04148 13.4955C4.51553 11.9617 5.86733 11.8517 5.86733 11.8517H7.21953V10.1894L8.37132 10.207V16.3455H8.37173ZM13.1028 16.3279H10.1796C9.04661 16.0359 8.99385 15.231 8.99385 15.231V11.9985L10.1796 11.9793V14.8845C10.252 15.1946 10.6369 15.2506 10.6369 15.2506H11.8414V11.9985H13.1028V16.3279ZM17.2408 7.69728C17.2408 7.13897 16.777 5.45792 15.0571 5.45792C13.3343 5.45792 13.1041 7.04449 13.1041 8.16602C13.1041 9.23641 13.1944 10.7305 15.3344 10.6831C17.4752 10.6357 17.2408 8.25845 17.2408 7.69728Z" fill="white"/>
</g>
</g>
<defs>
<clipPath id="clip0_515_870">
<rect width="18" height="18" fill="white"/>
</clipPath>
<clipPath id="clip1_515_870">
<rect width="18" height="18" fill="white"/>
</clipPath>
</defs>
</svg>
