<svg width="19" height="20" viewBox="0 0 19 20" fill="none" xmlns="http://www.w3.org/2000/svg">
<g clip-path="url(#clip0_515_644)">
<path d="M18.8334 8.22988C18.8314 8.37776 18.7951 8.52317 18.7274 8.65468C18.7143 8.68397 18.6962 8.71076 18.6739 8.73388C18.5947 8.82645 18.5022 8.90668 18.4219 8.99925C18.2368 9.17205 18.0517 9.33148 17.8521 9.50325C17.7042 9.62575 17.5536 9.7451 17.4006 9.86119C16.7248 10.3786 16.0089 10.8424 15.2797 11.294C13.9963 12.087 12.6777 12.8215 11.3279 13.4951C9.48736 14.4308 7.59203 15.2545 5.65223 15.9616C4.87051 16.2394 4.08777 16.5047 3.29166 16.7176C3.01394 16.7968 2.7352 16.8503 2.45646 16.9028C2.29703 16.9295 2.1376 16.9696 1.9792 16.9954C1.92571 16.9954 1.87223 17.0221 1.81977 17.0221C1.68443 17.0426 1.5461 17.0278 1.41816 16.9791C1.29022 16.9305 1.17701 16.8496 1.08948 16.7444C0.825142 16.4523 0.745942 16.0408 0.944456 15.6829C1.00027 15.5875 1.07193 15.5023 1.15634 15.4309C1.50194 15.1254 1.83314 14.8076 2.15097 14.4764C2.75041 13.8492 3.27569 13.1552 3.71646 12.4079C4.24617 11.4925 4.63189 10.5112 4.82937 9.47651C4.9096 9.09285 4.94971 8.70816 4.9888 8.32348C5.02425 7.89999 5.03318 7.4747 5.01554 7.0501C5.01554 6.69216 4.97543 6.34759 4.94869 6.00302C4.82937 4.80988 4.56503 3.64245 4.21943 2.50176C4.12686 2.19627 4.02091 1.87845 3.92834 1.57399C3.88823 1.45365 3.87486 1.33433 3.92834 1.22839C3.99417 1.02987 4.12686 0.897189 4.3264 0.858103C4.42195 0.835213 4.52197 0.839138 4.61543 0.869445C4.70889 0.899753 4.79218 0.955267 4.85611 1.02987C4.89623 1.06999 4.92297 1.12245 4.94869 1.16256C5.40023 1.83833 5.86411 2.48942 6.38149 3.09833C6.95888 3.79924 7.59327 4.45118 8.27817 5.04748C8.98069 5.64405 9.72332 6.16142 10.5451 6.57285C11.3269 6.95753 12.1497 7.24862 12.9983 7.40805C13.3562 7.4749 13.7142 7.52736 14.0855 7.56748C14.643 7.61993 15.1994 7.61993 15.7435 7.59422C16.155 7.58085 16.5664 7.54073 16.9768 7.4749L17.7585 7.35559C18.3037 7.24862 18.7542 7.61993 18.8334 8.15068V8.26999V8.2309V8.22988ZM15.2797 12.447C15.2797 12.447 15.2395 12.5005 15.2262 12.5396C14.8301 13.1424 14.4844 13.7768 14.1925 14.4363C13.9517 14.9812 13.7693 15.5501 13.6483 16.1334C13.5802 16.4486 13.5314 16.7678 13.5023 17.089C13.4779 17.3935 13.4735 17.6993 13.4889 18.0044C13.4889 18.1895 13.5157 18.3747 13.5424 18.5598C13.5424 18.6668 13.5691 18.7727 13.5424 18.8653C13.4231 19.3559 12.879 19.5287 12.4809 19.2634C12.4398 19.2398 12.4038 19.2084 12.375 19.1708C11.5665 18.3346 10.5986 17.738 9.5104 17.3276C8.95191 17.1162 8.37521 16.9564 7.78754 16.8503C7.47995 16.7928 7.17008 16.7482 6.85874 16.7166L6.5008 16.6775C6.5008 16.6508 6.5008 16.6508 6.52754 16.6374C6.79291 16.5582 7.07063 16.4914 7.336 16.4122C9.45218 15.789 11.4765 14.8884 13.3562 13.7338C13.9827 13.3469 14.5935 12.9352 15.1871 12.4995C15.2128 12.4738 15.2395 12.4604 15.2663 12.4336L15.2797 12.447Z" fill="white"/>
</g>
<defs>
<clipPath id="clip0_515_644">
<rect width="19" height="20" fill="white"/>
</clipPath>
</defs>
</svg>
