<svg width="18" height="18" viewBox="0 0 18 18" fill="none" xmlns="http://www.w3.org/2000/svg">
<g clip-path="url(#clip0_515_681)">
<g clip-path="url(#clip1_515_681)">
<path d="M8.67825 8.63475H0C0.000294022 9.14937 0.102085 9.65889 0.299545 10.1341C0.497006 10.6094 0.786258 11.041 1.15074 11.4043C1.51523 11.7676 1.94779 12.0554 2.42366 12.2513C2.89954 12.4472 3.40938 12.5474 3.924 12.546H5.5215V14.0887C5.5215 15.1258 5.93337 16.1204 6.66655 16.8539C7.39973 17.5873 8.39418 17.9996 9.43125 18V9.3885C9.43125 9.18859 9.35184 8.99687 9.21048 8.85552C9.06913 8.71416 8.87741 8.63475 8.6775 8.63475H8.67825ZM12.9705 4.31775H4.302C4.3022 5.35495 4.71436 6.3496 5.44784 7.08294C6.18132 7.81628 7.17605 8.22825 8.21325 8.22825H9.81V9.77175C9.81079 10.8088 10.2232 11.8031 10.9565 12.5363C11.6899 13.2695 12.6842 13.6817 13.7213 13.6823V5.0685C13.7213 4.96991 13.7018 4.87229 13.6641 4.7812C13.6264 4.69012 13.5711 4.60735 13.5014 4.53764C13.4316 4.46793 13.3489 4.41263 13.2578 4.3749C13.1667 4.33717 13.0691 4.31775 12.9705 4.31775ZM17.2598 0H8.59125C8.59125 1.03733 9.00333 2.03217 9.73683 2.76567C10.4703 3.49917 11.4652 3.91125 12.5025 3.91125H14.0992V5.454C14.1 6.48899 14.511 7.48148 15.2422 8.21403C15.9733 8.94658 16.965 9.35947 18 9.36225V0.75375C18.0008 0.555926 17.9235 0.365777 17.7849 0.224635C17.6463 0.0834924 17.4576 0.00276514 17.2598 0Z" fill="white"/>
</g>
</g>
<defs>
<clipPath id="clip0_515_681">
<rect width="18" height="18" fill="white"/>
</clipPath>
<clipPath id="clip1_515_681">
<rect width="18" height="18" fill="white"/>
</clipPath>
</defs>
</svg>
