<svg width="26" height="12" viewBox="0 0 26 12" fill="none" xmlns="http://www.w3.org/2000/svg">
<g clip-path="url(#clip0_515_1274)">
<path d="M6.22632 1.20529C6.22632 1.28015 6.20012 1.3363 6.14772 1.37373C6.1028 1.41116 6.04665 1.42987 5.97928 1.42987C5.90442 1.42987 5.82582 1.42613 5.74347 1.41864C5.66112 1.41116 5.57878 1.40741 5.49643 1.40741C5.38414 1.40741 5.30554 1.44859 5.26062 1.53093C5.21571 1.60579 5.18951 1.69563 5.18202 1.80043C5.17453 1.89775 5.17079 1.98758 5.17079 2.06993V7.88655C5.17079 8.46298 5.09219 8.99074 4.93498 9.46984C4.77778 9.94895 4.50828 10.327 4.12649 10.604C3.74471 10.8884 3.21694 11.0307 2.5432 11.0307C2.37851 11.0307 2.21382 11.0269 2.04913 11.0194C1.88443 11.012 1.72348 10.9932 1.56628 10.9633C1.4465 10.9334 1.30801 10.8847 1.1508 10.8173C0.993599 10.75 0.85885 10.6639 0.74656 10.5591C0.63427 10.4543 0.578125 10.3307 0.578125 10.1885C0.578125 9.96392 0.675443 9.79923 0.870079 9.69443C1.06472 9.59711 1.25935 9.54845 1.45399 9.54845C1.62617 9.54845 1.79834 9.58962 1.97052 9.67197C2.1427 9.75431 2.22879 9.8928 2.22879 10.0874C2.1689 10.1174 2.10527 10.1586 2.0379 10.211C1.97052 10.2708 1.93684 10.3382 1.93684 10.4131C1.93684 10.4954 1.97427 10.5516 2.04913 10.5815C2.12399 10.6189 2.20633 10.6377 2.29616 10.6377C2.39348 10.6451 2.46834 10.6489 2.52074 10.6489C2.76778 10.6489 2.95868 10.589 3.09342 10.4692C3.22817 10.3569 3.32175 10.2072 3.37415 10.0201C3.43404 9.8404 3.46772 9.64951 3.47521 9.44739C3.4827 9.24526 3.48644 9.05437 3.48644 8.87471V2.11484C3.48644 2.05495 3.4827 1.97261 3.47521 1.8678C3.47521 1.75551 3.46024 1.65445 3.43029 1.56462C3.40035 1.4673 3.34421 1.4149 3.26186 1.40741C3.22443 1.39993 3.18326 1.39618 3.13834 1.39618C3.10091 1.39618 3.06348 1.39618 3.02605 1.39618C2.9437 1.39618 2.85761 1.40367 2.76778 1.41864C2.68544 1.42613 2.60309 1.42987 2.52074 1.42987C2.37851 1.42987 2.30739 1.35875 2.30739 1.21652C2.30739 1.15663 2.32611 1.10049 2.36354 1.04809C2.40845 0.995683 2.46086 0.969482 2.52074 0.969482C2.61058 0.969482 2.70041 0.973225 2.79024 0.980711C2.88756 0.988197 2.98113 0.995683 3.07097 1.00317C3.20571 1.01066 3.34046 1.0144 3.47521 1.0144C3.60996 1.0144 3.74096 1.0144 3.86823 1.0144C4.22007 1.0144 4.57191 1.00691 4.92375 0.99194C5.2756 0.976968 5.62744 0.969482 5.97928 0.969482C6.14397 0.969482 6.22632 1.04809 6.22632 1.20529Z" fill="black"/>
<path d="M11.3024 7.60583C11.3024 7.95019 11.2276 8.23091 11.0779 8.448C10.9356 8.6651 10.741 8.83353 10.494 8.95331C10.2544 9.07309 9.98865 9.15543 9.6967 9.20035C9.40474 9.24527 9.11279 9.26772 8.82083 9.26772C8.64117 9.26772 8.45402 9.24901 8.25938 9.21158C8.07223 9.16666 7.89257 9.12549 7.72039 9.08806C7.63804 9.07309 7.55196 9.05811 7.46212 9.04314C7.37978 9.02068 7.29743 9.00571 7.21509 8.99823C7.19263 8.87096 7.15145 8.69504 7.09157 8.47046C7.03916 8.2384 6.98302 8.0213 6.92313 7.81918C6.8857 7.66946 6.86699 7.56466 6.86699 7.50477C6.86699 7.42242 6.89319 7.37002 6.94559 7.34756C6.99799 7.31762 7.06162 7.30265 7.13648 7.30265C7.19637 7.30265 7.24503 7.31013 7.28246 7.3251C7.31989 7.33259 7.34983 7.36253 7.37229 7.41494C7.46212 7.60209 7.54447 7.77426 7.61933 7.93147C7.70168 8.08119 7.81022 8.23091 7.94497 8.38063C8.01235 8.448 8.10218 8.51912 8.21447 8.59398C8.32676 8.66884 8.44653 8.73622 8.5738 8.7961C8.70106 8.84851 8.81335 8.87471 8.91067 8.87471C9.24005 8.87471 9.4796 8.7961 9.62932 8.6389C9.78653 8.47421 9.86513 8.23091 9.86513 7.90901C9.86513 7.68443 9.79027 7.49354 9.64055 7.33633C9.49832 7.17913 9.31865 7.03689 9.10156 6.90963C8.89195 6.78237 8.66363 6.65885 8.41659 6.53907C8.16955 6.41181 7.93749 6.27332 7.72039 6.1236C7.51078 5.97388 7.33486 5.79421 7.19263 5.58461C7.05788 5.36751 6.99051 5.10924 6.99051 4.8098C6.99051 4.42802 7.09905 4.11735 7.31615 3.8778C7.53324 3.63824 7.80648 3.46232 8.13586 3.35003C8.46525 3.23774 8.80212 3.1816 9.14648 3.1816C9.2962 3.1816 9.44966 3.19283 9.60686 3.21528C9.76407 3.23774 9.91379 3.27892 10.056 3.3388C10.1159 3.36126 10.1983 3.38372 10.3031 3.40618C10.4079 3.42864 10.4865 3.43986 10.5389 3.43986C10.5988 3.43986 10.6549 3.43986 10.7073 3.43986C10.7672 3.43986 10.8233 3.42489 10.8757 3.39495C10.8907 3.54467 10.9057 3.71685 10.9207 3.91148C10.9431 4.09863 10.9618 4.27455 10.9768 4.43925C10.9993 4.59645 11.0105 4.70874 11.0105 4.77612C11.0105 4.85098 10.9843 4.91461 10.9319 4.96701C10.887 5.01941 10.8233 5.04561 10.741 5.04561C10.5988 5.04561 10.5014 4.98573 10.449 4.86595C10.4041 4.73869 10.348 4.57774 10.2806 4.3831C10.2057 4.18098 10.0935 3.99383 9.94374 3.82165C9.79401 3.64199 9.53575 3.55216 9.16893 3.55216C8.98178 3.55216 8.82458 3.6083 8.69732 3.72059C8.57005 3.83288 8.47273 3.96763 8.40536 4.12483C8.33799 4.27455 8.3043 4.42053 8.3043 4.56277C8.3043 4.77237 8.37542 4.95578 8.51765 5.11299C8.66737 5.27019 8.82458 5.39371 8.98927 5.48355C9.19139 5.58835 9.42346 5.70813 9.68547 5.84287C9.94748 5.97014 10.1945 6.10863 10.4266 6.25835C10.6886 6.42304 10.8982 6.61768 11.0554 6.84226C11.2201 7.06684 11.3024 7.32136 11.3024 7.60583Z" fill="black"/>
<path d="M16.4261 6.25835C16.4261 6.02628 16.4111 5.75304 16.3812 5.43863C16.3513 5.12422 16.2876 4.82103 16.1903 4.52908C16.1005 4.22964 15.9582 3.9826 15.7636 3.78796C15.5765 3.58584 15.3182 3.48478 14.9888 3.48478C14.6894 3.48478 14.4498 3.5821 14.2702 3.77674C14.0905 3.97137 13.952 4.21467 13.8547 4.50662C13.7648 4.79858 13.7012 5.09427 13.6638 5.39371C13.6338 5.69315 13.6189 5.95142 13.6189 6.16852C13.6189 6.40058 13.6338 6.67382 13.6638 6.98823C13.6937 7.30265 13.7574 7.60957 13.8547 7.90901C13.952 8.20097 14.098 8.44426 14.2926 8.6389C14.4872 8.83353 14.7493 8.93085 15.0786 8.93085C15.3931 8.93085 15.6401 8.83728 15.8198 8.65013C15.9994 8.45549 16.1304 8.21594 16.2128 7.93147C16.3026 7.63952 16.3587 7.34382 16.3812 7.04438C16.4111 6.73745 16.4261 6.47544 16.4261 6.25835ZM18.0543 6.31449C18.0543 6.88343 17.9233 7.39248 17.6613 7.84164C17.3993 8.28331 17.04 8.63515 16.5833 8.89716C16.1342 9.15169 15.6139 9.27895 15.0225 9.27895C14.4311 9.27895 13.9108 9.1442 13.4617 8.87471C13.02 8.60521 12.6756 8.24214 12.4286 7.78549C12.1816 7.32136 12.058 6.80857 12.058 6.24712C12.058 5.66321 12.1816 5.13919 12.4286 4.67506C12.6756 4.20344 13.0237 3.82914 13.4729 3.55216C13.9221 3.27517 14.4536 3.13668 15.0674 3.13668C15.7412 3.13668 16.2989 3.27143 16.7405 3.54093C17.1822 3.81042 17.5116 4.18472 17.7287 4.66383C17.9458 5.14293 18.0543 5.69315 18.0543 6.31449Z" fill="black"/>
<path d="M25.4219 9.0656C25.4219 9.19286 25.3508 9.25649 25.2085 9.25649C24.9914 9.25649 24.7706 9.24901 24.546 9.23404C24.3214 9.22655 24.1006 9.22281 23.8835 9.22281C23.6739 9.22281 23.4568 9.22655 23.2322 9.23404C23.0151 9.24901 22.798 9.25649 22.5809 9.25649C22.5285 9.25649 22.4836 9.23778 22.4462 9.20035C22.4162 9.15543 22.4013 9.11052 22.4013 9.0656C22.4013 8.93085 22.4724 8.86348 22.6146 8.86348C22.682 8.86348 22.7494 8.86722 22.8167 8.87471C22.8841 8.88219 22.9515 8.88594 23.0189 8.88594C23.1087 8.88594 23.1536 8.84102 23.1536 8.75119V4.97824C23.1536 4.79109 23.1386 4.59271 23.1087 4.3831C23.0788 4.16601 23.0076 3.9826 22.8953 3.83288C22.7831 3.67567 22.5997 3.59707 22.3451 3.59707C22.1879 3.59707 22.0232 3.65696 21.851 3.77674C21.6789 3.89651 21.5254 4.03875 21.3907 4.20344C21.2559 4.36064 21.1586 4.50662 21.0987 4.64137V8.62767C21.0987 8.68007 21.1024 8.73622 21.1099 8.7961C21.1249 8.85599 21.1698 8.88594 21.2447 8.88594C21.3046 8.88594 21.3645 8.88594 21.4243 8.88594C21.4917 8.87845 21.5554 8.87471 21.6152 8.87471C21.6602 8.87471 21.7051 8.88968 21.75 8.91962C21.7949 8.94957 21.8174 8.99074 21.8174 9.04314C21.8174 9.18538 21.7462 9.25649 21.604 9.25649C21.3944 9.25649 21.1848 9.24901 20.9752 9.23404C20.7656 9.21906 20.556 9.21158 20.3464 9.21158C20.1143 9.21158 19.8822 9.21906 19.6502 9.23404C19.4256 9.24901 19.1973 9.25649 18.9652 9.25649C18.9128 9.25649 18.8679 9.23778 18.8304 9.20035C18.8005 9.15543 18.7855 9.11052 18.7855 9.0656C18.7855 8.93085 18.8566 8.86348 18.9989 8.86348C19.0663 8.86348 19.1336 8.86722 19.201 8.87471C19.2684 8.88219 19.3358 8.88594 19.4031 8.88594C19.493 8.88594 19.5454 8.86722 19.5603 8.82979C19.5753 8.78487 19.5828 8.7175 19.5828 8.62767V4.20344C19.5828 4.12858 19.5753 4.04997 19.5603 3.96763C19.5454 3.88528 19.4855 3.84411 19.3807 3.84411C19.3058 3.84411 19.2309 3.84785 19.1561 3.85534C19.0887 3.86282 19.0176 3.86657 18.9427 3.86657C18.8903 3.86657 18.8304 3.85908 18.7631 3.84411C18.7032 3.82165 18.6732 3.77674 18.6732 3.70936C18.6732 3.65696 18.6882 3.61953 18.7182 3.59707C18.7556 3.56713 18.7968 3.54841 18.8417 3.54093C18.9165 3.51847 18.9951 3.5035 19.0775 3.49601C19.1598 3.48852 19.2384 3.48104 19.3133 3.47355C19.3732 3.45858 19.4705 3.43612 19.6052 3.40618C19.74 3.36875 19.8822 3.33132 20.0319 3.29389C20.1892 3.24897 20.3276 3.21154 20.4474 3.1816C20.5672 3.15165 20.6383 3.13668 20.6608 3.13668C20.7356 3.13668 20.7955 3.18908 20.8404 3.29389C20.8928 3.39121 20.934 3.49975 20.964 3.61953C20.9939 3.73931 21.0164 3.82914 21.0313 3.88903C21.2484 3.70188 21.5142 3.54093 21.8286 3.40618C22.1505 3.26394 22.4574 3.19283 22.7494 3.19283C23.2584 3.19283 23.6552 3.25646 23.9396 3.38372C24.2316 3.51098 24.4337 3.72059 24.546 4.01254C24.6658 4.3045 24.7257 4.69751 24.7257 5.19159C24.7257 5.7755 24.7219 6.35941 24.7144 6.94332C24.707 7.52723 24.7032 8.11113 24.7032 8.69504C24.7032 8.79236 24.7332 8.84851 24.7931 8.86348C24.8529 8.87845 24.9203 8.88594 24.9952 8.88594C25.0326 8.88594 25.07 8.88594 25.1075 8.88594C25.1524 8.87845 25.1936 8.87471 25.231 8.87471C25.3582 8.87471 25.4219 8.93834 25.4219 9.0656Z" fill="black"/>
</g>
<defs>
<clipPath id="clip0_515_1274">
<rect width="26" height="12" fill="white"/>
</clipPath>
</defs>
</svg>
