<svg width="22" height="18" viewBox="0 0 22 18" fill="none" xmlns="http://www.w3.org/2000/svg">
<g clip-path="url(#clip0_515_709)">
<path d="M20.3764 8.06964H20.3774L20.4243 8.10773C20.4254 8.10895 20.4267 8.11073 20.4282 8.11163L20.4379 8.11945L20.4399 8.1214C20.4412 8.12262 20.4425 8.12343 20.4438 8.12433L20.4477 8.12628V8.12726C20.4468 8.12856 20.447 8.13058 20.4467 8.13214C20.4533 8.13348 20.4541 8.13446 20.4584 8.13605L20.6655 8.30109C20.6663 8.30278 20.6674 8.30535 20.6684 8.30695C20.671 8.31099 20.6734 8.31268 20.6772 8.31573C20.6833 8.31959 20.6789 8.31998 20.6752 8.30988L20.6791 8.31281C20.6812 8.31738 20.6838 8.32194 20.686 8.32648C20.6973 8.33261 20.6918 8.3291 20.6967 8.33527C20.7017 8.34077 20.6964 8.33488 20.6948 8.33038V8.3255C20.6999 8.33143 20.7032 8.33926 20.7084 8.34503C20.7072 8.34487 20.7056 8.3442 20.7045 8.34406C20.7044 8.35236 20.721 8.35498 20.725 8.35675C20.7235 8.35646 20.7175 8.35476 20.7172 8.3548C20.7211 8.36163 20.7285 8.36263 20.7348 8.36456C20.7364 8.36507 20.7382 8.36575 20.7397 8.36652L20.7358 8.36554C20.7392 8.36866 20.7431 8.37217 20.7465 8.37531C20.7491 8.3763 20.7519 8.37698 20.7543 8.37823C20.7555 8.37889 20.7561 8.38134 20.7573 8.38214C20.7623 8.38597 20.7681 8.38931 20.7739 8.39191H20.7748L20.7768 8.39288C20.7804 8.39551 20.7846 8.39768 20.7885 8.39972C20.7893 8.40101 20.7902 8.40332 20.7905 8.40363C20.7926 8.4058 20.795 8.4084 20.7973 8.41046C20.7989 8.41267 20.8001 8.41511 20.8022 8.4173C20.8042 8.41918 20.807 8.42045 20.809 8.42218C20.8106 8.42363 20.812 8.42569 20.8139 8.42706C20.8164 8.42898 20.819 8.43105 20.8217 8.43292C20.8232 8.43364 20.8252 8.43407 20.8266 8.43488L20.8276 8.43683L20.8295 8.43976C20.8328 8.44393 20.836 8.44833 20.8393 8.45245C20.8393 8.45518 20.8464 8.45688 20.852 8.45831C20.8525 8.45898 20.8532 8.45956 20.8539 8.46027C20.8552 8.46165 20.857 8.46242 20.8578 8.4632V8.46417L20.8803 8.48663C20.8832 8.49108 20.8887 8.49146 20.893 8.49347L20.895 8.49445L20.894 8.49542L20.8959 8.49738C20.8983 8.49933 20.9013 8.50139 20.9037 8.50323L20.9047 8.50421C20.9084 8.51218 20.9121 8.51357 20.9213 8.51984C20.937 8.52708 20.9122 8.51442 20.9311 8.52667C20.9336 8.52821 20.9338 8.52762 20.934 8.52765C20.9352 8.52875 20.9358 8.53036 20.937 8.53156C20.9403 8.5336 20.9487 8.54411 20.9516 8.54523V8.5462C20.9559 8.55156 20.9612 8.55614 20.9662 8.56085C20.9675 8.56187 20.9689 8.56292 20.9702 8.56378C20.9713 8.56474 20.9738 8.56526 20.9741 8.56573C20.9864 8.57979 20.9755 8.5698 20.9946 8.57843C20.9961 8.57905 20.9913 8.57777 20.9897 8.57745H20.9887C20.9913 8.5791 20.9947 8.58081 20.9975 8.58234C20.9951 8.58147 20.9956 8.58144 20.9946 8.58136C20.9973 8.58449 20.9985 8.58968 21.0024 8.59113C21.0075 8.593 21.0135 8.5917 21.019 8.5921C21.0167 8.59282 21.0116 8.59427 21.0082 8.59308H21.0073C21.0092 8.59574 21.0202 8.607 21.0209 8.60773C21.0231 8.60893 21.0256 8.60945 21.0278 8.61066V8.61163C21.0423 8.62364 21.0434 8.62417 21.0473 8.62433C21.0478 8.62511 21.0476 8.62646 21.0483 8.62726C21.0502 8.62959 21.0537 8.62993 21.0561 8.63116C21.0716 8.64398 21.0694 8.64308 21.0756 8.64386H21.0766C21.0776 8.64402 21.0776 8.64414 21.0805 8.64484H21.0776C21.0794 8.64607 21.0818 8.64836 21.0825 8.64874L21.0834 8.64972C21.0862 8.65167 21.0894 8.6538 21.0922 8.65558C21.093 8.65596 21.0942 8.656 21.0952 8.65656C21.0979 8.66057 21.1031 8.66485 21.1108 8.66827C21.1171 8.67827 21.1266 8.68486 21.1371 8.68976C21.1391 8.68901 21.1412 8.69143 21.143 8.69269H21.144C21.1479 8.69641 21.1482 8.69703 21.1557 8.70245C21.1615 8.7073 21.1576 8.70334 21.1606 8.71027C21.1736 8.72409 21.1667 8.7182 21.1791 8.72491L21.2006 8.73859V8.73956C21.1999 8.73817 21.1996 8.73598 21.2026 8.74347C21.2048 8.74659 21.207 8.75025 21.2094 8.75323C21.2101 8.75418 21.2116 8.75439 21.2123 8.75519C21.2187 8.76071 21.2259 8.7662 21.2299 8.77374C21.2365 8.7839 21.2495 8.805 21.2631 8.80499V8.80206C21.2645 8.80282 21.265 8.80473 21.2661 8.80597C21.2725 8.81337 21.2791 8.82169 21.2885 8.8255C21.2889 8.82568 21.2936 8.82681 21.2944 8.82745C21.2988 8.83083 21.3036 8.83484 21.308 8.8382L21.3071 8.83917C21.3106 8.84614 21.3105 8.84694 21.3188 8.85382C21.3212 8.8558 21.3251 8.85678 21.3276 8.8587L21.3266 8.85968L21.3276 8.86163C21.3316 8.86498 21.3361 8.86831 21.3403 8.8714C21.3432 8.87251 21.3462 8.87393 21.3491 8.87531L21.351 8.87726C21.3569 8.8823 21.363 8.88653 21.3686 8.89191C21.3735 8.89695 21.3745 8.89844 21.3813 8.90265C21.3834 8.90395 21.3861 8.90419 21.3881 8.90558V8.90753C21.3891 8.90891 21.3907 8.91049 21.392 8.91144C21.3957 8.91401 21.3999 8.91592 21.4037 8.91827C21.4065 8.91927 21.41 8.9196 21.4125 8.9212C21.4137 8.92199 21.4081 8.92119 21.4096 8.92316C21.4117 8.92588 21.4139 8.92859 21.4164 8.93097C21.4214 8.9355 21.4249 8.93638 21.4311 8.93878C21.4326 8.93942 21.4356 8.94064 21.4379 8.94171L21.4399 8.94269C21.4412 8.94575 21.4445 8.94797 21.4467 8.9505C21.4529 8.95798 21.4601 8.96474 21.4682 8.97003C21.4735 8.97344 21.4726 8.97349 21.4731 8.97491L21.4741 8.97784C21.4719 8.97776 21.4753 8.97784 21.476 8.97784C21.4809 8.98602 21.4892 8.99166 21.4975 8.9964C21.5006 8.99852 21.5039 9.00052 21.5073 9.00226C21.5082 9.00315 21.5094 9.00423 21.5102 9.00519C21.5184 9.01307 21.5247 9.02338 21.5336 9.03058C21.5369 9.0332 21.5401 9.03586 21.5434 9.03839C21.5503 9.0431 21.5514 9.04332 21.559 9.04718C21.5607 9.04796 21.563 9.04848 21.5639 9.05011C21.5629 9.04976 21.5601 9.04809 21.559 9.04816L21.56 9.05011C21.5626 9.05351 21.566 9.05661 21.5688 9.05988C21.5771 9.06537 21.5858 9.07007 21.5952 9.07355C21.598 9.07683 21.6022 9.08008 21.6059 9.08234C21.6067 9.08323 21.607 9.08456 21.6078 9.08527C21.6099 9.08712 21.6131 9.08724 21.6157 9.0882L21.6176 9.08917L21.6205 9.0921C21.6215 9.09442 21.623 9.09643 21.6284 9.10187C21.6329 9.10581 21.6382 9.1089 21.644 9.11066L21.6411 9.10968C21.6455 9.1134 21.6505 9.11645 21.6547 9.12042C21.6579 9.1245 21.6547 9.12127 21.6547 9.1214C21.6576 9.12474 21.6606 9.12787 21.6635 9.13116C21.6661 9.13248 21.6688 9.13371 21.6713 9.13507C21.6723 9.13617 21.6695 9.13533 21.6703 9.13605C21.6723 9.1376 21.6752 9.13853 21.6772 9.13995L15.5942 13.9349C15.5946 13.9392 15.5957 13.9432 15.5961 13.9476L15.56 13.9769C15.5639 13.9689 15.5677 13.9604 15.5717 13.9525L11.4584 17.1966L1.22894 9.13116L2.54535 8.07355L2.56488 8.0882L3.78168 7.11163L11.4047 13.1243L19.1078 7.05109L20.3764 8.06964ZM16.3168 4.8089H16.3178L16.353 4.8382L16.3637 4.84698H16.3627L16.3647 4.84894C16.3659 4.85086 16.3686 4.85277 16.3696 4.8548H16.3686L16.3696 4.85675C16.3812 4.86818 16.3815 4.86808 16.3842 4.86749L16.3852 4.86847C16.3842 4.86784 16.3827 4.86748 16.3832 4.86847C16.3804 4.86391 16.3892 4.87503 16.3891 4.87433C16.3882 4.87241 16.3863 4.87026 16.3852 4.86847L16.3871 4.86945H16.3891C16.3915 4.87476 16.3959 4.88123 16.3959 4.88214V4.88312C16.3972 4.88477 16.3999 4.88501 16.4018 4.88605C16.3961 4.88334 16.396 4.88285 16.3959 4.88214C16.3937 4.87885 16.39 4.87186 16.392 4.87335C16.3976 4.87809 16.3996 4.88697 16.4057 4.89093H16.4067C16.4087 4.89371 16.4114 4.89578 16.4145 4.89777C16.4153 4.89831 16.4154 4.89912 16.4164 4.89972C16.4182 4.90083 16.4234 4.90332 16.4223 4.90167C16.4159 4.89204 16.4146 4.89599 16.4145 4.89777C16.4143 4.8978 16.4136 4.89246 16.4135 4.89093C16.4152 4.89077 16.4168 4.89106 16.4184 4.89093L16.4213 4.89288C16.4255 4.89762 16.4301 4.90253 16.434 4.90753L16.433 4.90851L16.435 4.90948C16.4334 4.90892 16.4317 4.90826 16.4301 4.90753L16.4291 4.90656C16.4297 4.90825 16.4303 4.90981 16.4311 4.91144C16.4353 4.92118 16.4443 4.92281 16.4526 4.92609H16.4516L16.4496 4.92511C16.4517 4.92659 16.4534 4.9286 16.4555 4.92999C16.4582 4.93158 16.4619 4.93268 16.4623 4.93585C16.4661 4.94522 16.4745 4.94989 16.4828 4.95441C16.4857 4.95822 16.4882 4.96253 16.4916 4.96613C16.4931 4.9674 16.4951 4.96875 16.4965 4.97003C16.5007 4.97364 16.5028 4.97506 16.5082 4.97784H16.5073C16.5057 4.9805 16.5096 4.98372 16.5141 4.98663C16.5185 4.99265 16.5242 4.99812 16.5297 5.00323H16.5287C16.5321 5.00742 16.5355 5.01233 16.5395 5.01593C16.5416 5.01782 16.545 5.01821 16.5473 5.01984C16.5479 5.0203 16.5457 5.01929 16.5444 5.01886L16.5424 5.01788C16.5441 5.02158 16.5456 5.02173 16.5473 5.02472C16.5478 5.02562 16.5487 5.02779 16.5493 5.02863C16.5526 5.0323 16.5564 5.03587 16.56 5.03937C16.5624 5.0405 16.5646 5.04187 16.5668 5.04327L16.5629 5.0423L16.5776 5.05695C16.5795 5.0577 16.5826 5.05778 16.5844 5.0589L16.5834 5.05988L16.5854 5.06183C16.5879 5.06389 16.5971 5.06902 16.5991 5.07159C16.6116 5.08457 16.6289 5.09158 16.645 5.09894C16.647 5.09988 16.6498 5.10081 16.6518 5.10187C16.6531 5.10267 16.6545 5.10383 16.6557 5.1048C16.6568 5.10608 16.6594 5.10987 16.6664 5.11749C16.6697 5.11946 16.676 5.12249 16.6791 5.12433L16.687 5.12921C16.6882 5.13025 16.6898 5.13093 16.6909 5.13214C16.6793 5.13888 16.6939 5.14536 16.7065 5.14972C16.7069 5.15133 16.7077 5.15305 16.7084 5.1546C16.7093 5.15635 16.7118 5.16076 16.7123 5.15948C16.7127 5.15731 16.7097 5.15538 16.7084 5.15363C16.7081 5.15173 16.7086 5.15133 16.7084 5.1507C16.7081 5.14901 16.7095 5.15115 16.7123 5.15558C16.7127 5.15777 16.7129 5.1595 16.7143 5.16046C16.7151 5.16104 16.7163 5.16098 16.7172 5.16144V5.16339L16.7202 5.16437C16.7212 5.16623 16.722 5.16843 16.7231 5.17023L16.725 5.1712C16.726 5.17253 16.7267 5.17402 16.728 5.17511L16.7309 5.17609L16.7319 5.17706C16.735 5.18432 16.7384 5.18889 16.7416 5.18488C16.7448 5.18868 16.7464 5.18975 16.7573 5.19366H16.7592V5.19659C16.7626 5.20163 16.7711 5.20016 16.7768 5.19952C16.7778 5.20079 16.7783 5.20255 16.7797 5.20343C16.7853 5.20626 16.7885 5.2067 16.7914 5.20734C16.7935 5.20974 16.7959 5.21228 16.7973 5.21417L16.7983 5.21515L16.7973 5.21222C16.7983 5.21298 16.7993 5.21411 16.8002 5.21515L16.8012 5.2171C16.8021 5.21874 16.8031 5.22043 16.8041 5.22198L16.8266 5.24445L16.8373 5.25128L16.8393 5.25226C16.8419 5.25537 16.8443 5.25795 16.8471 5.26105C16.8461 5.25763 16.8445 5.24989 16.8461 5.25128C16.8511 5.25792 16.8523 5.26681 16.8569 5.27374C16.8639 5.27681 16.863 5.2749 16.8647 5.27765C16.8701 5.28573 16.8784 5.2906 16.8871 5.29425C16.8893 5.29729 16.8915 5.30034 16.894 5.30304C16.8948 5.30386 16.9011 5.30835 16.9037 5.30988H16.9057C16.9092 5.31395 16.8996 5.30715 16.9086 5.31476C16.915 5.32003 16.9221 5.32338 16.9291 5.32745C16.9306 5.32827 16.9317 5.32938 16.933 5.33038C16.934 5.33115 16.9352 5.33235 16.936 5.33331C16.9408 5.33908 16.9307 5.33146 16.9496 5.34308C16.9647 5.35235 16.9528 5.34385 16.9614 5.35089C16.9678 5.3594 16.9739 5.36538 16.9838 5.37042C16.9947 5.37366 16.9909 5.37181 16.9975 5.37531C16.9986 5.3759 17.0004 5.37646 17.0014 5.37726C17.0024 5.37827 17.0025 5.37995 17.0034 5.38116C17.0066 5.38539 17.0111 5.3904 17.0151 5.39386C17.0182 5.39657 17.0215 5.39914 17.0248 5.40167L17.0424 5.41046H17.0405C17.0405 5.41075 17.0418 5.41219 17.0434 5.41437C17.0462 5.41767 17.0535 5.4269 17.0571 5.42902C17.0615 5.43146 17.0671 5.4328 17.0717 5.43488C17.075 5.43487 17.0783 5.43444 17.0815 5.43488C17.0837 5.43516 17.0769 5.4358 17.0746 5.43585C17.0649 5.43615 17.0857 5.44995 17.0873 5.45148C17.0907 5.45255 17.0949 5.45271 17.0981 5.45441L17.0952 5.45538L17.0961 5.45734C17.0989 5.46028 17.1019 5.46343 17.1049 5.46613C17.1101 5.47087 17.1134 5.47292 17.1196 5.47687C17.1249 5.4802 17.1312 5.48267 17.1362 5.48663C17.1383 5.48839 17.1425 5.4937 17.144 5.49542C17.1449 5.49648 17.1458 5.49741 17.1469 5.49835C17.1558 5.50604 17.1641 5.51128 17.1752 5.51495C17.1817 5.51698 17.1845 5.51569 17.1801 5.51691H17.1791C17.1833 5.52103 17.1881 5.52511 17.1928 5.52863C17.1985 5.53265 17.2054 5.53548 17.2104 5.54034C17.2177 5.54869 17.229 5.55199 17.2368 5.55988C17.2448 5.57139 17.2572 5.57819 17.269 5.58527C17.2788 5.59213 17.2899 5.59806 17.2983 5.60675C17.3023 5.61243 17.3095 5.61535 17.3149 5.61945C17.317 5.62109 17.3185 5.62373 17.3207 5.62531C17.3246 5.62795 17.3294 5.62962 17.3334 5.63214C17.336 5.63334 17.339 5.63434 17.3412 5.63605L17.3422 5.63898C17.3439 5.64505 17.343 5.64376 17.3539 5.6507C17.3581 5.65329 17.3632 5.65441 17.3676 5.65656C17.369 5.65731 17.3712 5.65755 17.3725 5.65851C17.3733 5.65932 17.3739 5.66058 17.3745 5.66144C17.3765 5.66398 17.3782 5.6668 17.3803 5.66925C17.3819 5.67107 17.3833 5.67367 17.3852 5.67511C17.3894 5.67821 17.3944 5.6802 17.3989 5.68292C17.4022 5.6838 17.4055 5.68457 17.4086 5.68585C17.4101 5.68651 17.4113 5.68784 17.4125 5.68878L17.4174 5.69269L17.4203 5.69464L17.4213 5.69757C17.4241 5.70028 17.4273 5.70278 17.4301 5.70538C17.4348 5.70937 17.4405 5.71203 17.4457 5.71515L17.4516 5.72003L17.5932 5.83331L17.5942 5.83429C17.5947 5.83592 17.5949 5.8369 17.5961 5.83917C17.598 5.84242 17.6003 5.84535 17.603 5.84796C17.6045 5.84871 17.6072 5.84911 17.6088 5.84991H17.6098C17.6134 5.85153 17.6171 5.85301 17.6205 5.8548L17.6235 5.85773H17.6205C17.6257 5.86251 17.627 5.86562 17.6332 5.86554L11.4584 10.7347L5.28851 5.87042L6.60492 4.81281L6.62445 4.82745L7.84125 3.85187L11.4047 6.66144L15.0473 3.79034L16.3168 4.8089ZM20.7768 8.39191H20.7748L20.7739 8.38995C20.7749 8.39066 20.776 8.39127 20.7768 8.39191ZM0.163513 8.22784C0.159902 8.23144 0.153977 8.23197 0.147888 8.23175C0.14872 8.23129 0.14989 8.23124 0.150818 8.23077L0.163513 8.22394C0.163513 8.22501 0.164473 8.22688 0.163513 8.22784ZM21.852 7.34113C21.8498 7.33839 21.8473 7.33591 21.8452 7.33331L21.8461 7.32355C21.8487 7.32887 21.8499 7.33531 21.852 7.34113ZM21.7885 7.24835C21.7864 7.25019 21.7847 7.25234 21.7827 7.25421C21.7812 7.24935 21.7793 7.24441 21.7778 7.23956L21.7885 7.24835ZM16.7221 5.16534L16.7202 5.16437C16.7196 5.16343 16.7188 5.16237 16.7182 5.16144C16.7194 5.16283 16.7207 5.16401 16.7221 5.16534ZM16.7202 5.16241L16.7192 5.16144L16.7172 5.16046V5.15948C16.7169 5.15793 16.7156 5.15576 16.7162 5.15656C16.7178 5.15829 16.7189 5.16037 16.7202 5.16241ZM16.7172 5.15948C16.716 5.15802 16.7142 5.1569 16.7133 5.15558C16.7132 5.15415 16.712 5.1513 16.7123 5.15167C16.7143 5.15385 16.7156 5.15697 16.7172 5.15948ZM16.6987 5.13312L16.7055 5.14679L16.6909 5.13214L16.6967 5.13116L16.6987 5.13312ZM16.4174 4.88995H16.4145C16.4143 4.8889 16.4136 4.88677 16.4135 4.88605L16.4174 4.88995ZM16.392 4.86847C16.3908 4.86849 16.3904 4.86851 16.3891 4.86847V4.86749H16.3911L16.392 4.86847ZM16.3881 4.86456C16.3883 4.86515 16.3886 4.86654 16.3891 4.86749H16.3852V4.86261L16.3881 4.86456ZM17.9741 4.62921C17.9741 4.63048 17.974 4.63183 17.9741 4.63312C17.9708 4.62866 17.9675 4.62566 17.9643 4.6214L17.9741 4.62921ZM17.8803 4.45148H17.8735L17.8754 4.44855C17.877 4.44935 17.8787 4.44988 17.8803 4.45148ZM13.3246 2.37823L13.5161 2.5257L11.4633 4.15558L9.4184 2.5257L9.51996 2.44464L11.4633 0.911438L13.3246 2.37823ZM13.5161 2.5257L13.4926 2.50226C13.484 2.48968 13.4783 2.47527 13.4721 2.46124L13.476 2.44464C13.4888 2.47164 13.5022 2.49932 13.5161 2.5257ZM13.9145 2.0589C13.9198 2.07041 13.9267 2.08116 13.933 2.0921C13.9223 2.07933 13.9113 2.0661 13.8998 2.05402L13.9116 2.05206C13.9123 2.0538 13.9138 2.0573 13.9145 2.0589ZM10.477 1.46613C10.4604 1.47888 10.4431 1.49087 10.4262 1.50323C10.4132 1.51157 10.4002 1.52022 10.3871 1.52863C10.4182 1.50643 10.4502 1.48496 10.4809 1.46222C10.4798 1.46362 10.4781 1.46457 10.477 1.46613ZM13.2455 0.883118C13.2435 0.887584 13.2401 0.891341 13.2377 0.895813L13.2358 0.894836C13.2325 0.888439 13.2291 0.881814 13.226 0.875305C13.212 0.851728 13.1975 0.828266 13.183 0.804993L13.184 0.80304C13.205 0.82933 13.2252 0.856523 13.2455 0.883118Z" fill="white"/>
</g>
<defs>
<clipPath id="clip0_515_709">
<rect width="22" height="18" fill="white"/>
</clipPath>
</defs>
</svg>
