<svg width="18" height="16" viewBox="0 0 18 16" fill="none" xmlns="http://www.w3.org/2000/svg">
<g clip-path="url(#clip0_515_797)">
<path d="M0.206482 15.027L3.27435 15.6405V4.6985C2.25173 3.95198 1.2291 3.19524 0.206482 2.44873V15.027Z" fill="#3399FF"/>
<path d="M9.10325 9.0958C6.13765 6.87671 3.17205 4.66785 0.206446 2.44876C0.134862 2.32605 -0.018531 2.02949 0.0019214 1.63067C0.0326 1.13981 0.308708 0.822794 0.41097 0.710306C0.676852 0.434198 0.973412 0.342162 1.1268 0.301257C1.44382 0.219448 1.7097 0.270579 1.84264 0.301257C4.26625 2.07039 6.67964 3.84975 9.10325 5.61889C11.0156 4.18722 12.9176 2.75555 14.8299 1.32388V4.90305C12.9176 6.30405 11.0156 7.69481 9.10325 9.0958Z" fill="#FF3333"/>
<path d="M17.8979 15.027V2.55103C16.8753 3.33844 15.8526 4.11564 14.83 4.90305V15.7428C15.8526 15.5076 16.8753 15.2622 17.8979 15.027Z" fill="#339966"/>
<path d="M14.83 1.32386V4.80078C15.8526 4.05426 16.8753 3.29752 17.8979 2.55101C17.9286 2.31581 17.9695 2.07038 18.0001 1.83517C17.9899 1.66133 17.949 1.31364 17.6934 1.01708C17.5093 0.802326 17.2945 0.700064 17.0798 0.608028C16.7525 0.464861 16.456 0.41373 16.2617 0.403503C15.7811 0.71029 15.3106 1.01708 14.83 1.32386Z" fill="#FFCC00"/>
</g>
<defs>
<clipPath id="clip0_515_797">
<rect width="18.0001" height="16" fill="white"/>
</clipPath>
</defs>
</svg>
