<svg width="18" height="16" viewBox="0 0 18 16" fill="none" xmlns="http://www.w3.org/2000/svg">
<g clip-path="url(#clip0_515_701)">
<path d="M17.3019 1.11862L10.0598 7.09908C9.75623 7.35142 9.3737 7.48918 8.97895 7.48832C8.5842 7.48747 8.20227 7.34806 7.89979 7.09441L0.690811 1.0878C0.626985 1.03815 0.550398 1.0076 0.469922 0.999677C0.389446 0.991758 0.308372 1.0068 0.236092 1.04306C0.163812 1.07932 0.103282 1.13531 0.0615142 1.20456C0.0197461 1.2738 -0.00155145 1.35346 8.79992e-05 1.43431V13.2493C8.79992e-05 14.2174 0.767755 15.0019 1.71455 15.0019H16.2854C17.2322 15.0019 17.9999 14.217 17.9999 13.2493V1.4595C18.0017 1.37782 17.98 1.29734 17.9375 1.22757C17.895 1.15781 17.8333 1.10169 17.7599 1.06583C17.6865 1.02998 17.6044 1.0159 17.5232 1.02525C17.442 1.03461 17.3653 1.06701 17.3019 1.11862Z" fill="white" fill-opacity="0.5"/>
<path d="M14.1428 3.72736L7.93735 8.85159C7.63405 9.10358 7.25199 9.24126 6.85767 9.24066C6.46335 9.24007 6.08171 9.10125 5.77916 8.84835L-6.10352e-05 4.0477V13.2498C-6.10352e-05 14.2179 0.767606 15.0023 1.7144 15.0023H14.1429L14.1428 3.72736Z" fill="white"/>
</g>
<defs>
<clipPath id="clip0_515_701">
<rect width="18.0001" height="16" fill="white"/>
</clipPath>
</defs>
</svg>
