<svg width="18" height="18" viewBox="0 0 18 18" fill="none" xmlns="http://www.w3.org/2000/svg">
<g clip-path="url(#clip0_515_900)">
<g clip-path="url(#clip1_515_900)">
<path d="M0.145297 13.0243L4.95773 3.65788C5.05732 3.46306 5.20804 3.29902 5.39373 3.18331C5.57943 3.0676 5.7931 3.00458 6.01187 3.00101C6.23064 2.99745 6.44625 3.05346 6.63562 3.16306C6.82499 3.27265 6.98097 3.4317 7.08687 3.62316L12.2657 12.9549C12.789 13.8986 11.9134 15.0069 10.8772 14.7099L6.61244 13.4859C6.39566 13.4237 6.16579 13.4237 5.94901 13.4859L1.55187 14.7459C0.533583 15.0377 -0.339417 13.9693 0.145297 13.0256V13.0243Z" fill="white"/>
<path opacity="0.5" d="M14.4746 14.139L16.4623 14.7099C17.4973 15.0069 18.3741 13.8999 17.8509 12.9549L12.6707 3.62316C12.5648 3.4317 12.4088 3.27265 12.2195 3.16306C12.0301 3.05346 11.8145 2.99745 11.5957 3.00101C11.377 3.00458 11.1633 3.0676 10.9776 3.18331C10.7919 3.29902 10.6412 3.46306 10.5416 3.65788L9.68915 5.31645L14.472 14.139H14.4746Z" fill="white"/>
</g>
</g>
<defs>
<clipPath id="clip0_515_900">
<rect width="18" height="18" fill="white"/>
</clipPath>
<clipPath id="clip1_515_900">
<rect width="18" height="18" fill="white"/>
</clipPath>
</defs>
</svg>
