<svg width="18" height="18" viewBox="0 0 18 18" fill="none" xmlns="http://www.w3.org/2000/svg">
<g clip-path="url(#clip0_515_1348)">
<path d="M2.51366 5.00273C2.53475 4.79531 2.45389 4.58789 2.29921 4.44727L0.71366 2.53477V2.25H5.64257L9.4535 10.6066L12.8039 2.25H17.5043V2.53477L16.1473 3.83555C16.0312 3.92344 15.9715 4.07109 15.9961 4.21523V13.7777C15.9715 13.9219 16.0312 14.0695 16.1473 14.1574L17.4726 15.4582V15.743H10.8035V15.4582L12.1781 14.1258C12.3117 13.9922 12.3117 13.95 12.3117 13.7461V6.01875L8.49022 15.7184H7.97343L3.52968 6.01875V12.5191C3.491 12.7934 3.58241 13.0676 3.77577 13.2645L5.56171 15.4301V15.7148H0.499207V15.4336L2.28514 13.2645C2.47499 13.0676 2.56288 12.7898 2.51366 12.5191V5.00273Z" fill="black"/>
</g>
<defs>
<clipPath id="clip0_515_1348">
<rect width="18" height="18" fill="white"/>
</clipPath>
</defs>
</svg>
