<svg width="20" height="18" viewBox="0 0 20 18" fill="none" xmlns="http://www.w3.org/2000/svg">
<g clip-path="url(#clip0_515_848)">
<path d="M11.8971 17.7855C11.8519 17.6587 11.4806 16.8075 11.0821 15.8928C10.6837 14.9691 10.3577 14.1813 10.3577 14.136C10.3577 14.0907 10.6927 13.8553 11.1002 13.6198C12.9295 12.5331 14.315 10.6858 14.9399 8.49428C15.1844 7.6521 15.1844 7.61588 15.2387 3.83963L15.2931 0.0362228L17.231 0.00905577C18.2996 -0.0090557 19.2685 -9.6019e-08 19.3862 0.0362228L19.6036 0.0905573L19.5674 4.04792C19.5402 7.6521 19.513 8.07772 19.341 8.84746C18.9153 10.7492 18.1728 12.4788 17.1676 13.8824C16.1352 15.3223 14.3422 16.9342 12.8661 17.7311C12.2232 18.0753 12.0149 18.0843 11.8971 17.7855ZM0.459753 7.99622C0.42353 7.95999 0.396362 6.16696 0.396362 4.01169C0.396362 0.91463 0.42353 0.0905574 0.514087 0.0543345C0.713313 -0.0181115 4.50767 -0.00905564 4.63445 0.0633903C4.72501 0.12678 4.74312 0.987076 4.72501 4.07508L4.69784 8.00527L2.60596 8.03244C1.45588 8.0415 0.495976 8.02338 0.459753 7.99622ZM7.52323 7.99622C7.487 7.95999 7.45984 6.16696 7.45984 4.01169C7.45984 0.923685 7.48701 0.0905574 7.57756 0.0543345C7.76773 -0.0181115 11.5802 1.68761e-07 11.6979 0.0724461C11.7794 0.126781 11.8066 1.04141 11.7885 4.07508L11.7613 8.00527L9.66944 8.03244C8.51936 8.0415 7.55945 8.02338 7.52323 7.99622Z" fill="white"/>
</g>
<defs>
<clipPath id="clip0_515_848">
<rect width="20" height="18" fill="white"/>
</clipPath>
</defs>
</svg>
