<svg width="18" height="18" viewBox="0 0 18 18" fill="none" xmlns="http://www.w3.org/2000/svg">
<g clip-path="url(#clip0_515_1298)">
<path d="M5.08423 4.60435C5.42855 4.12078 5.95003 3.79289 6.53503 3.6921C7.12004 3.59131 7.72117 3.72579 8.20747 4.06625C8.69376 4.4067 9.02581 4.92554 9.13126 5.50973C9.23672 6.09391 9.10704 6.6961 8.77048 7.1851L4.46848 13.3291C4.3001 13.5737 4.08495 13.7826 3.83545 13.9437C3.58594 14.1048 3.30702 14.2149 3.01476 14.2676C2.7225 14.3204 2.42268 14.3148 2.1326 14.2511C1.84252 14.1874 1.56792 14.0669 1.32464 13.8966C1.08135 13.7263 0.874185 13.5095 0.715097 13.2587C0.55601 13.0079 0.448143 12.7281 0.397719 12.4355C0.347295 12.1428 0.355311 11.843 0.421305 11.5535C0.487298 11.2639 0.609964 10.9903 0.782227 10.7483L5.08423 4.60435ZM11.451 4.6711C11.7953 4.18753 12.3168 3.85964 12.9018 3.75885C13.4868 3.65806 14.0879 3.79254 14.5742 4.133C15.0605 4.47346 15.3926 4.99229 15.498 5.57648C15.6035 6.16066 15.4738 6.76285 15.1372 7.25185L10.8352 13.3958C10.6657 13.6379 10.4502 13.8442 10.201 14.0029C9.95175 14.1617 9.6737 14.2698 9.38269 14.3211C8.79497 14.4247 8.19018 14.2905 7.70135 13.9482C7.45931 13.7787 7.25302 13.5632 7.09427 13.314C6.93552 13.0647 6.82741 12.7867 6.77612 12.4957C6.67253 11.908 6.80665 11.3032 7.14898 10.8143L11.451 4.6711ZM15.375 14.1451C15.9717 14.1451 16.544 13.908 16.966 13.4861C17.3879 13.0641 17.625 12.4918 17.625 11.8951C17.625 11.2984 17.3879 10.7261 16.966 10.3041C16.544 9.88215 15.9717 9.6451 15.375 9.6451C14.7782 9.6451 14.2059 9.88215 13.784 10.3041C13.362 10.7261 13.125 11.2984 13.125 11.8951C13.125 12.4918 13.362 13.0641 13.784 13.4861C14.2059 13.908 14.7782 14.1451 15.375 14.1451Z" fill="white"/>
</g>
<defs>
<clipPath id="clip0_515_1298">
<rect width="18" height="18.0001" fill="white"/>
</clipPath>
</defs>
</svg>
