<svg width="18" height="22" viewBox="0 0 18 22" fill="none" xmlns="http://www.w3.org/2000/svg">
<g clip-path="url(#clip0_515_774)">
<path fill-rule="evenodd" clip-rule="evenodd" d="M11.2391 1.00389C11.8078 0.843917 12.4087 0.836204 12.9813 0.981426C13.623 1.1389 14.2244 1.43027 14.7459 1.83592C14.9435 1.97473 15.0987 2.16538 15.1952 2.3867C15.2646 2.55593 15.2919 2.73978 15.2743 2.92186C15.2566 3.10385 15.1952 3.27893 15.0946 3.43162C14.9353 3.68035 14.6844 3.85661 14.3963 3.92186C14.1082 3.98706 13.8055 3.9362 13.5545 3.78025C13.4309 3.70161 13.3412 3.58891 13.2176 3.52147C12.888 3.28918 12.4967 3.15989 12.0936 3.15037C11.8161 3.18039 11.5593 3.3128 11.3739 3.52147C11.2821 3.61463 11.2148 3.72912 11.1776 3.85447C11.1404 3.97989 11.1349 4.113 11.161 4.24119L11.577 5.80272C12.5753 5.84085 13.5486 6.12699 14.409 6.63475C15.2438 7.1461 15.9787 7.80497 16.578 8.57908C17.0902 9.25133 17.4715 10.014 17.702 10.8271C17.9473 11.6693 18.0427 12.5486 17.9832 13.4238C17.9306 14.1598 17.7787 14.8852 17.533 15.581C16.8853 17.2876 15.703 18.7394 14.1619 19.7178C13.0336 20.4222 11.7625 20.8674 10.4412 21.0215C9.53585 21.1558 8.61519 21.1558 7.7098 21.0215C5.83432 20.6953 4.1104 19.7824 2.78695 18.414C1.64888 17.2612 0.818697 15.8406 0.372886 14.2832C-0.0729114 12.7258 -0.119467 11.0813 0.236167 9.50096C0.567012 8.00036 1.25725 6.60241 2.24789 5.42772C3.2385 4.25308 4.49952 3.33618 5.92269 2.75682C6.12493 2.67644 6.34307 2.64166 6.56039 2.6533C6.77733 2.665 6.98927 2.72292 7.18148 2.8242C7.3465 2.94228 7.4773 3.10305 7.55843 3.28904C7.63954 3.47499 7.6681 3.6796 7.64242 3.88084C7.6186 4.08563 7.53879 4.27982 7.41195 4.44236C7.28513 4.60485 7.11648 4.72985 6.92367 4.80272C5.70664 5.26634 4.63699 6.04972 3.82796 7.07029C3.01891 8.091 2.49956 9.31167 2.32601 10.6025C2.16382 11.8089 2.30346 13.0371 2.73128 14.1767C3.34268 15.8411 4.54237 17.2244 6.10335 18.0654C7.05062 18.558 8.10402 18.8122 9.17171 18.8066C10.0495 18.8015 10.92 18.6464 11.745 18.3467C13.1692 17.8399 14.355 16.822 15.0721 15.4912C15.2512 15.1708 15.3942 14.8313 15.4989 14.4795C15.7941 13.459 15.7942 12.3759 15.4989 11.3554C15.2379 10.5057 14.7437 9.74633 14.0721 9.16404C13.7795 8.90657 13.4632 8.67611 13.1278 8.47752C12.8315 8.31396 12.5134 8.19315 12.1834 8.11814C12.4082 9.0173 12.6554 9.91674 12.8914 10.8271L13.0037 11.4785C13.0342 12.3881 12.74 13.2797 12.1737 13.9922C11.6074 14.7045 10.8059 15.1925 9.91292 15.3681C8.98233 15.5541 8.01567 15.3727 7.21566 14.8623C6.47026 14.3677 5.90944 13.6403 5.61996 12.7939C5.45534 12.3198 5.36361 11.823 5.34945 11.3213C5.29064 10.2222 5.59079 9.13374 6.20394 8.21971C6.96352 7.15963 8.06858 6.39649 9.32894 6.0615L9.05843 5.01658C8.83078 4.27272 8.89136 3.47014 9.22738 2.76854C9.42518 2.37644 9.70088 2.02877 10.0369 1.74607C10.3796 1.41505 10.7895 1.16156 11.2391 1.00389ZM9.93539 8.26463C9.33225 8.42754 8.78224 8.74553 8.33968 9.1865C8.00727 9.53718 7.77777 9.97281 7.6766 10.4453C7.59185 10.8756 7.5918 11.3187 7.6766 11.749C7.76172 12.2326 8.02625 12.6666 8.41781 12.9629C8.58027 13.074 8.76445 13.1497 8.95785 13.1865C9.15118 13.2232 9.34997 13.2195 9.54183 13.1758C9.88608 13.1086 10.1984 12.9287 10.4285 12.664C10.6587 12.3993 10.7938 12.0651 10.8123 11.7148C10.7899 11.5406 10.7557 11.3681 10.7108 11.1982L9.93539 8.26463Z" fill="white"/>
</g>
<defs>
<clipPath id="clip0_515_774">
<rect width="18.0004" height="22" fill="white"/>
</clipPath>
</defs>
</svg>
