<svg width="18" height="18" viewBox="0 0 18 18" fill="none" xmlns="http://www.w3.org/2000/svg">
<g clip-path="url(#clip0_515_755)">
<g clip-path="url(#clip1_515_755)">
<circle cx="9.00055" cy="8.99981" r="12.3401" fill="white"/>
<path fill-rule="evenodd" clip-rule="evenodd" d="M8.67328 -3.33824C10.8022 -3.39433 12.9099 -2.89915 14.7905 -1.89977C16.6711 -0.90037 18.2609 0.569066 19.4057 2.36488C20.5504 4.16056 21.2114 6.22174 21.3237 8.34828C21.4359 10.475 20.9958 12.5953 20.0463 14.5016C19.097 16.4077 17.6704 18.0355 15.9057 19.2272L4.73187 3.58461C4.63071 3.44284 4.48696 3.33687 4.32172 3.28187C4.15631 3.22692 3.97699 3.22586 3.81097 3.27894C3.64523 3.33202 3.50064 3.43633 3.39789 3.5768C3.29505 3.71752 3.23886 3.88785 3.23871 4.06215V16.4039H4.88519V6.62855L14.4789 20.0602C12.597 20.9927 10.5075 21.4299 8.40961 21.3297C6.31187 21.2295 4.27405 20.5955 2.48969 19.4879C0.705303 18.3803 -0.766919 16.8351 -1.78766 14.9996C-2.8083 13.1642 -3.34381 11.0988 -3.34332 8.99867C-3.34324 6.86899 -2.79236 4.77513 -1.74371 2.92152C-0.695076 1.06799 0.815733 -0.482444 2.64105 -1.57945C4.46633 -2.67643 6.54447 -3.28209 8.67328 -3.33824ZM13.1127 3.23891V13.1129H14.7582V3.23891H13.1127Z" fill="#1D1929"/>
</g>
</g>
<defs>
<clipPath id="clip0_515_755">
<rect width="18" height="18.0001" fill="white"/>
</clipPath>
<clipPath id="clip1_515_755">
<rect width="18" height="18" fill="white"/>
</clipPath>
</defs>
</svg>
