<svg width="18" height="18" viewBox="0 0 18 18" fill="none" xmlns="http://www.w3.org/2000/svg">
<g clip-path="url(#clip0_515_1309)">
<g clip-path="url(#clip1_515_1309)">
<path d="M9 0C4.05 0 0 4.05 0 9C0 13.95 4.05 18 9 18C13.95 18 18 13.95 18 9C18 4.05 13.995 0 9 0Z" fill="#1ED75F"/>
<path d="M13.14 13.005C12.96 13.275 12.645 13.365 12.375 13.185C10.26 11.88 7.60498 11.61 4.45498 12.33C4.13998 12.42 3.86998 12.195 3.77998 11.925C3.68998 11.61 3.91498 11.34 4.18498 11.25C7.60498 10.485 10.575 10.8 12.915 12.24C13.23 12.375 13.275 12.735 13.14 13.005ZM14.22 10.53C13.995 10.845 13.59 10.98 13.275 10.755C10.845 9.26999 7.15498 8.81999 4.31998 9.71999C3.95998 9.80999 3.55498 9.62999 3.46498 9.26999C3.37498 8.90999 3.55498 8.50499 3.91498 8.41499C7.19998 7.42499 11.25 7.91999 14.04 9.62999C14.31 9.76499 14.445 10.215 14.22 10.53ZM14.31 8.00999C11.43 6.29999 6.61498 6.11999 3.86998 6.97499C3.41998 7.10999 2.96998 6.83999 2.83498 6.43499C2.69998 5.98499 2.96998 5.53499 3.37498 5.39999C6.56998 4.45499 11.835 4.63499 15.165 6.61499C15.57 6.83999 15.705 7.37999 15.48 7.78499C15.255 8.09999 14.715 8.23499 14.31 8.00999Z" fill="#191515"/>
</g>
</g>
<defs>
<clipPath id="clip0_515_1309">
<rect width="18.0001" height="18.0001" fill="white"/>
</clipPath>
<clipPath id="clip1_515_1309">
<rect width="18" height="18" fill="white"/>
</clipPath>
</defs>
</svg>
