<svg width="19" height="18" viewBox="0 0 19 18" fill="none" xmlns="http://www.w3.org/2000/svg">
<g clip-path="url(#clip0_515_1390)">
<path d="M18.0025 5.53977V13.398C18.0065 13.5607 17.9423 13.7173 17.8238 13.8298C17.7073 13.9442 17.5507 14.0065 17.388 14.0025H10.9797V8.78508L12.1806 9.70686C12.261 9.77112 12.3614 9.80526 12.4658 9.80125C12.5702 9.80326 12.6747 9.76911 12.757 9.70686L18.0025 5.53977ZM10.9797 4.02556H17.39C17.5486 4.02556 17.6852 4.07376 17.7977 4.17015C17.9101 4.26655 17.9724 4.39507 17.9844 4.55172L12.4558 8.95779L10.9797 7.79502V4.02556ZM10.0559 0.647705V17.3522L0.00268555 15.6151V2.43303L10.0559 0.647705ZM7.01946 9.0341C7.00541 8.18462 6.7845 7.47973 6.36076 6.92344C5.94506 6.36917 5.40484 6.07597 4.76221 6.04986C4.14367 6.07396 3.6155 6.36716 3.18775 6.92344C2.75999 7.47973 2.54712 8.18462 2.53507 9.0341C2.54712 9.87154 2.77204 10.5684 3.1998 11.1267C3.62755 11.681 4.15572 11.9762 4.77626 12.0083C5.41689 11.9822 5.95711 11.691 6.38486 11.1307C6.81261 10.5704 7.03754 9.87153 7.04959 9.03209L7.01946 9.0341ZM4.67987 7.17246C5.00319 7.18652 5.27631 7.36526 5.4912 7.71067C5.70407 8.05609 5.81653 8.49388 5.81653 9.02406C5.81653 9.56427 5.70407 10.0041 5.4912 10.3515C5.26627 10.6989 4.99717 10.8797 4.66983 10.8797C4.34248 10.8797 4.07338 10.711 3.84846 10.3615C3.62354 10.0141 3.52312 9.57432 3.52312 9.04615C3.52312 8.51798 3.62354 8.07818 3.84846 7.7408C4.06133 7.40341 4.33244 7.22267 4.65979 7.20058L4.67987 7.17246Z" fill="white"/>
</g>
<defs>
<clipPath id="clip0_515_1390">
<rect width="19" height="18" fill="white"/>
</clipPath>
</defs>
</svg>
