<svg width="18" height="18" viewBox="0 0 18 18" fill="none" xmlns="http://www.w3.org/2000/svg">
<g clip-path="url(#clip0_515_1303)">
<path d="M11.0451 4.65379C11.0451 3.55369 10.805 2.69376 10.3247 2.07399C9.84434 1.45422 8.9999 1.14433 7.79135 1.14433C7.60542 1.14433 7.40399 1.14433 7.18707 1.14433C6.97015 1.14433 6.77647 1.15983 6.60604 1.19082C6.4511 1.2373 6.35813 1.30702 6.32714 1.39999C6.29615 1.49296 6.28066 1.60916 6.28066 1.74861C6.28066 2.67827 6.27291 3.60792 6.25742 4.53758C6.25742 5.45174 6.25742 6.36591 6.25742 7.28007V8.16324C6.33489 8.17874 6.42011 8.19423 6.51307 8.20972C6.60604 8.20972 6.69126 8.20972 6.76873 8.20972C7.60542 8.20972 8.3414 8.10126 8.97666 7.88434C9.62742 7.66742 10.131 7.30331 10.4874 6.792C10.8592 6.26519 11.0451 5.55246 11.0451 4.65379ZM17.0414 17.0647C17.0414 17.1887 16.9252 17.2971 16.6928 17.3901C16.4604 17.483 16.1892 17.545 15.8794 17.576C15.585 17.5915 15.2518 17.607 14.88 17.6225C14.5236 17.638 14.2835 17.6457 14.1595 17.6457C13.9426 17.6457 13.6637 17.6302 13.3228 17.5993C12.9819 17.5838 12.7495 17.5528 12.6256 17.5063C12.3622 17.4133 12.091 17.2739 11.8121 17.0879C11.5487 16.8865 11.3318 16.6386 11.1614 16.3442C10.4796 15.1357 9.79786 13.9116 9.11611 12.6721C8.43436 11.417 7.77586 10.1775 7.14059 8.95345L6.25742 8.93021C6.25742 10.1388 6.25742 11.3473 6.25742 12.5559C6.27291 13.7644 6.28066 14.973 6.28066 16.1815C6.28066 16.29 6.31165 16.4139 6.37362 16.5534C6.4356 16.6773 6.54406 16.7393 6.699 16.7393C6.90043 16.7393 7.07861 16.7393 7.23356 16.7393C7.40399 16.7238 7.58992 16.7161 7.79135 16.7161C7.88432 16.7161 7.96953 16.7703 8.04701 16.8788C8.13997 16.9872 8.18645 17.0802 8.18645 17.1577C8.18645 17.2661 8.14772 17.3668 8.07025 17.4598C8.00827 17.5373 7.9153 17.576 7.79135 17.576C7.63641 17.576 7.48921 17.5683 7.34976 17.5528C7.21031 17.5373 7.07087 17.5218 6.93142 17.5063C6.76098 17.4908 6.52082 17.483 6.21093 17.483C5.90105 17.483 5.59891 17.483 5.30452 17.483C5.01013 17.4676 4.76997 17.4598 4.58403 17.4598C4.16569 17.4598 3.79383 17.4676 3.46845 17.483C3.15856 17.4985 2.84868 17.514 2.53879 17.5295C2.2289 17.5605 1.85704 17.576 1.4232 17.576C1.11332 17.576 0.958374 17.4288 0.958374 17.1344C0.958374 17.0105 1.0126 16.9175 1.12106 16.8555C1.24502 16.7781 1.36123 16.7393 1.46969 16.7393C1.62463 16.7393 1.77957 16.7471 1.93451 16.7626C2.08946 16.7626 2.2444 16.7626 2.39934 16.7626C2.80219 16.7626 3.00362 16.5766 3.00362 16.2048V1.84158C3.00362 1.62466 2.96488 1.47746 2.88741 1.39999C2.82543 1.32252 2.68599 1.28378 2.46907 1.28378C2.31412 1.28378 2.15918 1.29153 2.00424 1.30702C1.84929 1.30702 1.69435 1.30702 1.53941 1.30702C1.43095 1.30702 1.307 1.27604 1.16755 1.21406C1.0281 1.15208 0.958374 1.05137 0.958374 0.91192C0.958374 0.741483 1.0126 0.617529 1.12106 0.540058C1.24502 0.462586 1.38447 0.423851 1.53941 0.423851C2.00424 0.423851 2.46907 0.439345 2.93389 0.470333C3.41422 0.501322 3.89454 0.516817 4.37486 0.516817C5.10309 0.516817 5.83907 0.493575 6.5828 0.447092C7.32652 0.385115 8.0625 0.354126 8.79073 0.354126C9.44149 0.354126 10.1077 0.416103 10.7895 0.540058C11.4712 0.648517 12.0988 0.849942 12.672 1.14433C13.2608 1.42323 13.7334 1.81833 14.0898 2.32965C14.4616 2.84096 14.6476 3.48397 14.6476 4.25868C14.6476 5.17285 14.4616 5.92432 14.0898 6.5131C13.7334 7.10188 13.2298 7.56671 12.5791 7.90759C11.9438 8.23297 11.2001 8.48862 10.3479 8.67455C10.9987 9.86761 11.7269 11.0529 12.5326 12.2305C13.3383 13.3926 14.1285 14.5314 14.9032 15.647C15.0737 15.8949 15.2906 16.1196 15.554 16.321C15.8329 16.5069 16.1195 16.6386 16.4139 16.7161C16.5379 16.7316 16.6696 16.7393 16.809 16.7393C16.964 16.7393 17.0414 16.8478 17.0414 17.0647Z" fill="white"/>
</g>
<defs>
<clipPath id="clip0_515_1303">
<rect width="18" height="18" fill="white"/>
</clipPath>
</defs>
</svg>
