<svg width="15" height="16" viewBox="0 0 15 16" fill="none" xmlns="http://www.w3.org/2000/svg">
<g clip-path="url(#clip0_515_1366)">
<path d="M9.99697 15.1895L7.26589 15.1737L4.45589 11.0218H2.68779V15.1895H0.398743V3.63373H4.39274C5.29784 3.63373 6.09243 3.78634 6.77651 4.09154C7.46059 4.39675 7.98681 4.83351 8.35516 5.40183C8.72352 5.95962 8.90769 6.6016 8.90769 7.32779C8.90769 8.06449 8.71826 8.71174 8.33938 9.26953C7.9605 9.82732 7.42902 10.2536 6.74494 10.5482L9.99697 15.1895ZM2.68779 5.57548V9.08009H4.12437C4.79793 9.08009 5.35572 8.93801 5.79774 8.65386C6.25029 8.35917 6.47656 7.91715 6.47656 7.32779C6.47656 6.7279 6.25555 6.28587 5.81353 6.00172C5.37151 5.71756 4.80845 5.57548 4.12437 5.57548H2.68779Z" fill="black"/>
<path d="M12.1923 4.05843V3.18343H14.1523V5.26943C13.9936 5.52609 13.7393 5.73143 13.3893 5.88543C13.0439 6.03476 12.6613 6.10943 12.2413 6.10943C11.7419 6.10943 11.2986 5.99743 10.9113 5.77343C10.5239 5.54943 10.2229 5.23676 10.0083 4.83543C9.7936 4.43409 9.68627 3.97443 9.68627 3.45643C9.68627 2.93376 9.79593 2.47176 10.0153 2.07043C10.2393 1.66909 10.5449 1.35876 10.9323 1.13943C11.3196 0.920092 11.7489 0.810425 12.2203 0.810425C12.6916 0.810425 13.0999 0.917758 13.4453 1.13242C13.7953 1.34242 14.0309 1.61309 14.1523 1.94443L13.3123 2.42743C13.2096 2.21276 13.0626 2.04476 12.8713 1.92343C12.6799 1.79743 12.4536 1.73443 12.1923 1.73443C11.9169 1.73443 11.6696 1.80443 11.4503 1.94443C11.2309 2.08443 11.0583 2.28509 10.9323 2.54643C10.8063 2.80776 10.7433 3.11109 10.7433 3.45643C10.7433 3.81109 10.8063 4.11909 10.9323 4.38043C11.0629 4.64176 11.2449 4.84243 11.4783 4.98243C11.7163 5.12243 11.9916 5.19243 12.3043 5.19243C12.6683 5.19243 12.9529 5.09209 13.1583 4.89143V4.05843H12.1923Z" fill="black"/>
</g>
<defs>
<clipPath id="clip0_515_1366">
<rect width="15" height="16" fill="white"/>
</clipPath>
</defs>
</svg>
