<svg width="18" height="16" viewBox="0 0 18 16" fill="none" xmlns="http://www.w3.org/2000/svg">
<g clip-path="url(#clip0_515_924)">
<path d="M8.19414 0.50264C7.78218 0.778289 5.76904 2.11436 3.72201 3.47377C1.67347 4.83243 0 5.95611 0 5.96967C0 5.98398 0.102427 6.05251 0.229707 6.1203C0.355481 6.1926 2.37615 7.31251 4.72218 8.61318L8.98193 10.9803L9.09038 10.9246C9.15213 10.8944 10.7239 9.9967 12.5864 8.93477L15.9703 7.00072L15.9906 12.9859H18V5.98097L15.3941 4.23369C11.8815 1.88088 9.07381 0.0266571 9.00452 0.0115943C8.97063 0.00556923 8.60762 0.227745 8.19414 0.50264ZM3.9954 11.4894L4.00594 12.9995L6.49883 14.4959L8.99172 15.9887L11.5049 14.4824L14.0144 12.9723V11.4796C14.0144 10.6572 14.0046 9.98616 13.9941 9.98616C13.9835 9.98616 13.0014 10.5751 11.81 11.2974L9.32008 12.8006L8.99548 12.9934L8.00134 12.3977C7.17483 11.9035 6.34989 11.4067 5.52653 10.9072L4.01649 9.99595C3.99841 9.98992 3.99239 10.661 3.99615 11.4894" fill="white"/>
</g>
<defs>
<clipPath id="clip0_515_924">
<rect width="18" height="16" fill="white"/>
</clipPath>
</defs>
</svg>
