<svg width="18" height="18" viewBox="0 0 18 18" fill="none" xmlns="http://www.w3.org/2000/svg">
<g clip-path="url(#clip0_515_718)">
<path d="M0.991114 14.187C1.7462 14.871 2.8315 15.4848 3.86985 15.4848C4.62494 15.4848 5.47422 15.1544 5.47422 14.2577C5.47422 13.2668 4.31799 13.1016 3.0203 12.5352C1.55739 11.898 0.330291 11.1196 0.330291 9.25528C0.330291 6.82495 2.28881 5.78686 4.71911 5.78686C6.04047 5.78686 7.45636 6.09377 8.47078 6.75427V7.03729L7.52698 8.90156C6.8664 8.40613 5.96963 8.07585 4.97854 8.07585C4.10558 8.07585 3.56291 8.42955 3.56291 9.1139C3.56291 10.0103 4.60123 10.1993 5.89895 10.6947C7.69211 11.3791 8.77745 12.1342 8.77745 14.0452C8.77745 16.5462 6.81915 17.632 4.22369 17.632C2.57183 17.632 1.25047 17.1834 0 16.2398V15.9568L0.991094 14.187L0.991114 14.187ZM11.6548 17.6078C11.6548 17.3684 11.7022 10.8557 11.726 8.605C11.0804 8.62877 10.4091 8.62877 10.2183 8.62877L10.242 6.2105C10.4338 6.2105 11.0804 6.2105 11.7023 6.23427C11.7023 6.13836 11.6548 4.15115 11.6548 4.07945C11.6548 1.37402 13.2347 0.368042 15.294 0.368042C16.1799 0.368042 17.0894 0.511882 18 0.894988V1.25387L17.305 3.16938C16.9223 2.95384 16.4913 2.83422 16.1077 2.83422C15.4375 2.83422 15.0064 3.16938 15.0064 4.43831C15.0064 4.86933 15.031 6.1383 15.031 6.23423C15.7489 6.21046 17.1142 6.21046 17.305 6.21046L17.2812 8.62873C17.0894 8.62873 15.7251 8.62873 15.0064 8.60496C15.0547 10.8556 15.0547 17.3684 15.0547 17.6077H11.6548L11.6548 17.6078Z" fill="white"/>
</g>
<defs>
<clipPath id="clip0_515_718">
<rect width="18" height="18" fill="white"/>
</clipPath>
</defs>
</svg>
