<svg width="18" height="18" viewBox="0 0 18 18" fill="none" xmlns="http://www.w3.org/2000/svg">
<g clip-path="url(#clip0_515_1205)">
<g clip-path="url(#clip1_515_1205)">
<path d="M5.0626 1.23762C3.20635 2.19387 2.19385 3.20637 1.29385 5.06262C-0.337395 8.21262 -0.337395 9.78762 1.2376 12.9376C2.64385 15.6376 6.24385 18.0001 9.0001 18.0001C11.7564 18.0001 15.3564 15.6376 16.7626 12.9376C18.3376 9.78762 18.3376 8.21262 16.7626 5.06262C15.3564 2.36262 11.7564 0.00012207 9.0001 0.00012207C8.2126 0.00012207 6.4126 0.562622 5.0626 1.23762ZM8.04385 5.40012C11.5314 7.14387 13.5001 8.83137 13.5001 10.1251C13.5001 11.3064 11.0251 14.0626 9.95635 14.0626C8.83135 14.0626 8.2126 13.1064 7.36885 10.1251C6.9751 8.71887 6.1876 6.75012 5.56885 5.73762C5.00635 4.78137 4.66885 3.93762 4.8376 3.93762C4.9501 3.93762 6.4126 4.61262 8.04385 5.40012Z" fill="#2C2C2C"/>
</g>
</g>
<defs>
<clipPath id="clip0_515_1205">
<rect width="18.0001" height="18.0001" fill="white"/>
</clipPath>
<clipPath id="clip1_515_1205">
<rect width="18" height="18" fill="white"/>
</clipPath>
</defs>
</svg>
