<svg width="18" height="18" viewBox="0 0 18 18" fill="none" xmlns="http://www.w3.org/2000/svg">
<g clip-path="url(#clip0_515_1209)">
<g clip-path="url(#clip1_515_1209)">
<path d="M12.1501 12.1501H18.0001V16.2001C18.0001 16.6775 17.8105 17.1354 17.4729 17.4729C17.1354 17.8105 16.6775 18.0001 16.2001 18.0001H12.1501V12.1501Z" fill="#FF46FB"/>
<path d="M5.8501 12.1501H12.1501V18.0001H5.8501V12.1501Z" fill="#CA41FC"/>
<path d="M0.00012207 12.1501H5.85012V18.0001H1.80012C1.32273 18.0001 0.864895 17.8105 0.52733 17.4729C0.189764 17.1354 0.00012207 16.6775 0.00012207 16.2001L0.00012207 12.1501Z" fill="#8B48FE"/>
<path d="M18.0001 5.8501H12.1501V12.1501H18.0001V5.8501Z" fill="#81E650"/>
<path d="M12.1501 5.8501H5.8501V12.1501H12.1501V5.8501Z" fill="#00D267"/>
<path d="M5.85012 5.8501H0.00012207V12.1501H5.85012V5.8501Z" fill="#00C0FF"/>
<path d="M12.1501 0.00012207H16.2001C16.6775 0.00012207 17.1354 0.189764 17.4729 0.52733C17.8105 0.864895 18.0001 1.32273 18.0001 1.80012V5.85012H12.1501V0.00012207Z" fill="#FFD200"/>
<path d="M5.8501 0.00012207H12.1501V5.85012H5.8501V0.00012207Z" fill="#FF8E00"/>
<path d="M0.00012207 1.80012C0.00012207 1.32273 0.189764 0.864895 0.52733 0.52733C0.864895 0.189764 1.32273 0.00012207 1.80012 0.00012207L5.85012 0.00012207V5.85012H0.00012207V1.80012Z" fill="#FF5400"/>
</g>
</g>
<defs>
<clipPath id="clip0_515_1209">
<rect width="18.0001" height="18.0001" fill="white"/>
</clipPath>
<clipPath id="clip1_515_1209">
<rect width="18" height="18" fill="white"/>
</clipPath>
</defs>
</svg>
