<svg width="18" height="18" viewBox="0 0 18 18" fill="none" xmlns="http://www.w3.org/2000/svg">
<g clip-path="url(#clip0_515_784)">
<path d="M16.1787 0.576719C11.3777 1.36489 6.58028 2.18186 1.77926 2.98083C0.2389 3.23634 0.0517685 3.44148 0.00137968 5.01061C-0.0238052 5.77002 0.310887 6.14069 1.08107 6.02913C2.01319 5.89598 2.94172 5.73762 4.01782 5.56487V7.81421C4.01782 10.6178 4.01782 13.4178 4.02142 16.2214C4.02142 16.8908 4.08259 17.5746 5.00392 17.4666C5.98285 17.355 6.92936 16.1962 6.93297 15.1957C6.94016 13.3026 6.93657 11.4132 6.93657 9.52012V5.06102C8.36175 4.82709 9.68976 4.60754 11.1797 4.36281C11.1797 6.01473 11.2877 7.52269 11.1545 9.00547C10.917 11.6975 11.536 14.1016 12.99 16.3761C13.5262 17.2147 14.0121 17.6501 15.0342 17.5854C16.4918 17.4918 16.6609 17.2651 16.0167 15.955C15.3725 14.6378 14.3648 13.3494 14.2172 11.971C13.9293 9.31498 14.1345 6.60497 14.1345 3.87695C14.9946 3.7222 15.7828 3.57824 16.5746 3.43789C17.6974 3.23994 18.1761 2.52376 17.9422 1.19573C17.7334 0.0404912 16.8481 0.465162 16.1787 0.576719Z" fill="white"/>
</g>
<defs>
<clipPath id="clip0_515_784">
<rect width="18.0001" height="18" fill="white"/>
</clipPath>
</defs>
</svg>
