<svg width="19" height="22" viewBox="0 0 19 22" fill="none" xmlns="http://www.w3.org/2000/svg">
<g clip-path="url(#clip0_515_706)">
<path d="M15.8297 19.7512V14.0547H17.725V21.6571H0.625V14.0547H2.53088V19.7512H15.8297ZM4.61676 13.5253L5.00853 11.6618L14.3156 13.6206L13.9238 15.4841L4.61676 13.5253ZM5.845 9.06766L6.64971 7.36296L15.2685 11.3653L14.4638 13.0806L5.845 9.06766ZM8.23794 4.84296L9.45559 3.38178L16.7615 9.4806L15.5438 10.9312L8.23794 4.84296ZM12.9497 0.342957L18.625 7.97707L17.1003 9.11002L11.425 1.4759L12.9497 0.342957ZM4.42618 17.8559V15.95H13.9344V17.8559H4.42618Z" fill="white"/>
</g>
<defs>
<clipPath id="clip0_515_706">
<rect width="19" height="22" fill="white"/>
</clipPath>
</defs>
</svg>
