<svg width="18" height="18" viewBox="0 0 18 18" fill="none" xmlns="http://www.w3.org/2000/svg">
<g clip-path="url(#clip0_515_746)">
<g clip-path="url(#clip1_515_746)">
<path d="M9.0041 3.53058C6.60284 3.53058 5.10245 4.72397 4.50187 7.11077C5.40239 5.91737 6.45288 5.46993 7.65333 5.76811C8.33824 5.93819 8.82802 6.4322 9.36967 6.97915C10.2525 7.86978 11.2744 8.90051 13.506 8.90051C15.9069 8.90051 17.4076 7.70711 18.0079 5.32067C17.1077 6.51407 16.0572 6.9615 14.8568 6.66298C14.1715 6.4929 13.6817 5.99888 13.1401 5.45229C12.2572 4.56095 11.2356 3.53058 9.0041 3.53058ZM4.50187 8.90051C2.10097 8.90051 0.600227 10.0939 0 12.4807C0.900516 11.2873 1.951 10.8399 3.1511 11.138C3.83637 11.3081 4.32615 11.8021 4.8678 12.3491C5.75067 13.2397 6.77222 14.2704 9.0041 14.2704C11.405 14.2704 12.9058 13.0774 13.506 10.6906C12.6055 11.884 11.555 12.3314 10.3545 12.0333C9.66961 11.8628 9.17983 11.3688 8.63818 10.8222C7.75531 9.93158 6.73341 8.90051 4.50187 8.90051Z" fill="white"/>
</g>
</g>
<defs>
<clipPath id="clip0_515_746">
<rect width="18" height="18.0001" fill="white"/>
</clipPath>
<clipPath id="clip1_515_746">
<rect width="18" height="18" fill="white"/>
</clipPath>
</defs>
</svg>
