<svg width="18" height="18" viewBox="0 0 18 18" fill="none" xmlns="http://www.w3.org/2000/svg">
<g clip-path="url(#clip0_515_733)">
<path d="M11.4053 14.8035L12.0769 14.6293L11.8225 14.7728C11.6698 14.8649 11.5681 15.0288 11.5681 15.213V15.4999L11.4053 14.8035Z" fill="#142C46"/>
<path d="M14.2845 1.91141C13.9472 2.47359 14.0596 3.59795 14.5094 4.385C15.0716 5.17206 15.7462 5.39693 16.0835 4.83475C16.4208 4.27257 16.3084 3.14821 15.8586 2.36115C15.2964 1.5741 14.6218 1.34923 14.2845 1.91141ZM0.00512695 6.74616C0.00512695 7.98296 0.567307 8.99488 1.12949 8.99488C1.8041 8.99488 2.25385 7.98296 2.25385 6.74616C2.25385 5.50936 1.8041 4.49744 1.12949 4.49744C0.567307 4.49744 0.00512694 5.50936 0.00512695 6.74616ZM10.799 6.63373C10.4617 7.19591 10.9114 7.87052 11.8109 8.32027C12.7104 8.65758 13.4975 8.4327 13.4975 7.87052C13.4975 6.40885 11.4736 5.39693 10.799 6.63373ZM4.95232 8.4327C3.94039 10.9063 5.06475 11.6934 6.63886 9.6695C7.53835 8.54514 7.65078 7.87052 6.75129 7.30834C6.18911 6.97103 5.28963 7.42078 4.95232 8.4327ZM8.43784 10.1192C8.10053 10.6814 8.55027 11.2436 9.44976 11.2436C10.4617 11.2436 11.2487 10.6814 11.2487 10.1192C11.2487 9.44463 10.799 8.99488 10.2368 8.99488C9.5622 8.99488 8.77514 9.44463 8.43784 10.1192ZM10.5741 13.0426C8.55027 14.6167 8.55027 14.7291 11.0239 13.4923C12.3731 12.8177 13.4975 12.0307 13.4975 11.8058C13.4975 10.9063 12.9353 11.1312 10.5741 13.0426Z" fill="black"/>
<path d="M15.7462 12.1431C15.7462 13.6048 10.4617 15.741 6.7513 15.741C4.95233 15.741 3.15335 16.3032 2.81604 16.8654C2.02899 18.1022 13.1602 18.4395 16.1959 17.3151C18.1074 16.5281 18.6695 11.2436 16.8706 11.2436C16.3084 11.2436 15.7462 11.6933 15.7462 12.1431Z" fill="black"/>
</g>
<defs>
<clipPath id="clip0_515_733">
<rect width="18" height="18" fill="white"/>
</clipPath>
</defs>
</svg>
