<svg width="18" height="18" viewBox="0 0 18 18" fill="none" xmlns="http://www.w3.org/2000/svg">
<g clip-path="url(#clip0_515_827)">
<g clip-path="url(#clip1_515_827)">
<path d="M2.25 0C1.00725 0 0 1.008 0 2.25V15.75C0 16.9928 1.008 18 2.25 18H15.75C16.9928 18 18 16.992 18 15.75V2.25C18 1.00725 16.992 0 15.75 0H2.25Z" fill="#0079BF"/>
<path d="M10.5 3V9.75C10.5 9.94891 10.579 10.1397 10.7197 10.2803C10.8603 10.421 11.0511 10.5 11.25 10.5H15C15.1989 10.5 15.3897 10.421 15.5303 10.2803C15.671 10.1397 15.75 9.94891 15.75 9.75V3C15.75 2.80109 15.671 2.61032 15.5303 2.46967C15.3897 2.32902 15.1989 2.25 15 2.25H11.25C11.0511 2.25 10.8603 2.32902 10.7197 2.46967C10.579 2.61032 10.5 2.80109 10.5 3ZM2.25 3V14.25C2.25 14.4489 2.32902 14.6397 2.46967 14.7803C2.61032 14.921 2.80109 15 3 15H6.75C6.94891 15 7.13968 14.921 7.28033 14.7803C7.42098 14.6397 7.5 14.4489 7.5 14.25V3C7.5 2.80109 7.42098 2.61032 7.28033 2.46967C7.13968 2.32902 6.94891 2.25 6.75 2.25H3C2.80109 2.25 2.61032 2.32902 2.46967 2.46967C2.32902 2.61032 2.25 2.80109 2.25 3Z" fill="white"/>
</g>
</g>
<defs>
<clipPath id="clip0_515_827">
<rect width="18" height="18" fill="white"/>
</clipPath>
<clipPath id="clip1_515_827">
<rect width="18" height="18" fill="white"/>
</clipPath>
</defs>
</svg>
