<svg width="12" height="22" viewBox="0 0 12 22" fill="none" xmlns="http://www.w3.org/2000/svg">
<g clip-path="url(#clip0_515_1425)">
<path d="M3.06836 15.5269C3.06836 16.6803 3.32233 17.5401 3.83008 18.106C4.34966 18.6718 5.07592 18.9546 6.00879 18.9546C6.92988 18.9546 7.64456 18.6718 8.15234 18.106C8.67185 17.5401 8.93164 16.6802 8.93164 15.5269V8.98193H11.5V16.0981C11.5 17.1209 11.2815 18.0133 10.8447 18.7749C10.4078 19.5257 9.77584 20.1085 8.94922 20.522C8.12262 20.9246 7.14239 21.1255 6.00879 21.1255C4.86341 21.1255 3.87737 20.9246 3.05078 20.522C2.22416 20.1085 1.5922 19.5257 1.15527 18.7749C0.718471 18.0133 0.5 17.1209 0.5 16.0981V8.98193H3.06836V15.5269ZM11.5 4.13232V6.979L6.00488 3.72119L0.5 6.98486V4.13818L6.00488 0.874512L11.5 4.13232Z" fill="white"/>
</g>
<defs>
<clipPath id="clip0_515_1425">
<rect width="12" height="22" fill="white"/>
</clipPath>
</defs>
</svg>
