<svg width="19" height="19" viewBox="0 0 19 19" fill="none" xmlns="http://www.w3.org/2000/svg">
<g clip-path="url(#clip0_515_1099)">
<path d="M17.95 3.74431C17.7072 3.74431 17.5251 3.95679 17.5251 4.16927V16.2806C17.5251 16.6448 17.434 16.9484 17.2822 17.1001C17.0394 17.343 16.6448 17.343 16.6448 17.343H16.0074C16.1591 17.1001 16.2502 16.7662 16.2502 16.4627V2.28731C16.2502 1.31598 15.4914 0.557129 14.52 0.557129H2.10519C1.13385 0.557129 0.375 1.31598 0.375 2.28731V16.4627C0.375 17.434 1.13385 18.1929 2.10519 18.1929H14.4593C14.5504 18.1929 14.6111 18.1929 14.7022 18.1625C14.7325 18.1625 14.7932 18.1929 14.8236 18.1929H16.6145C16.7662 18.1929 17.343 18.1625 17.8286 17.7072C18.1625 17.3733 18.375 16.8876 18.375 16.2502V4.19962C18.375 3.95679 18.1929 3.74431 17.95 3.74431ZM1.22492 16.493V2.28731C1.22492 1.80165 1.61952 1.40704 2.10519 1.40704H14.4593C14.945 1.40704 15.3396 1.80165 15.3396 2.28731V16.4627C15.3396 16.9484 14.945 17.343 14.4593 17.343H2.10519C1.61952 17.3733 1.22492 16.9787 1.22492 16.493Z" fill="white"/>
<path d="M13.8522 14.9146H2.89439C2.65156 14.9146 2.46943 15.1271 2.46943 15.3396C2.46943 15.5824 2.68191 15.7645 2.89439 15.7645H13.8826C14.1254 15.7645 14.3075 15.5521 14.3075 15.3396C14.3075 15.0967 14.0647 14.9146 13.8522 14.9146ZM3.62289 7.87246L5.80839 13.2755C5.9298 13.5183 6.17264 13.7004 6.47618 13.7308H6.50653C6.77972 13.7308 7.05291 13.5487 7.17432 13.3058L11.0597 4.77633H11.1204C11.515 4.77633 11.8489 4.47279 11.8489 4.04784C11.8489 3.62288 11.5453 3.31934 11.1204 3.31934H10.6043C10.3312 3.31934 10.058 3.50146 9.93655 3.74429L8.90451 5.96015L8.02424 3.86571C7.90282 3.62288 7.65999 3.44075 7.35645 3.44075H6.08157C5.68697 3.44075 5.35308 3.74429 5.35308 4.16925C5.35308 4.59421 5.65662 4.89775 6.08157 4.89775H6.87078L8.05459 7.65998C8.05459 7.69033 8.08495 7.72069 8.1153 7.75104L6.53689 11.1811L4.8067 6.90112C4.68528 6.65829 4.44245 6.44581 4.13891 6.44581H2.80333C2.40872 6.44581 2.07483 6.74935 2.07483 7.17431C2.07483 7.59927 2.37837 7.90281 2.80333 7.90281L3.62289 7.87246ZM13.8826 5.44413H13.2451C12.972 5.44413 12.6684 5.62625 12.5774 5.89944L10.8472 10.3008C10.6954 9.93654 10.2704 9.75441 9.9062 9.93654C9.54195 10.0883 9.35982 10.5133 9.54195 10.8775L10.2401 12.5166C10.3615 12.7595 10.6043 12.9416 10.9079 12.9416C11.1811 12.9416 11.4543 12.7595 11.5757 12.4863L13.7612 6.87077H13.9129C14.3075 6.87077 14.6414 6.56723 14.6414 6.14227C14.6111 5.74767 14.3075 5.44413 13.8826 5.44413Z" fill="white"/>
</g>
<defs>
<clipPath id="clip0_515_1099">
<rect width="19" height="19" fill="white"/>
</clipPath>
</defs>
</svg>
