<svg width="18" height="18" viewBox="0 0 18 18" fill="none" xmlns="http://www.w3.org/2000/svg">
<g clip-path="url(#clip0_515_997)">
<g clip-path="url(#clip1_515_997)">
<path d="M12.1228 1.81491C11.8804 1.85799 11.3391 2.06591 11.3346 2.51398C11.3301 2.96166 11.8096 3.25388 12.0516 3.27636C12.9451 3.27636 17.2182 3.04446 16.4367 7.16731C16.3284 7.61949 16.2456 8.31181 16.7821 8.45755C17.2695 8.58005 17.5704 8.07092 17.7056 7.68318C17.7704 7.23212 19.7466 1.32339 12.1228 1.81491Z" fill="white"/>
<path d="M13.2343 8.71529C13.2343 8.71529 12.3386 8.90897 12.7623 8.2425C13.4276 6.93915 12.3446 4.80036 9.53704 6.22172C8.56974 6.73722 8.56974 6.37195 8.60196 5.72721C8.68887 2.20677 2.1635 4.71682 0.314676 9.2941C-0.727556 12.0716 0.941813 14.4712 3.52417 15.5186C9.82738 17.7687 14.4167 14.0452 15.1989 11.6386C16.2422 8.02221 13.2343 8.71529 13.2343 8.71529ZM7.18996 14.6862C4.20637 15.0961 1.56183 13.7848 1.28198 11.7592C1.00363 9.73242 3.19599 7.75622 6.17957 7.34637C9.16316 6.93615 11.8073 8.24625 12.0872 10.273C12.3659 12.2994 10.1728 14.2741 7.18996 14.6862Z" fill="white"/>
<path d="M14.6568 7.6539C14.9569 7.72882 15.0738 7.48269 15.1067 7.25791C15.1375 7.03313 15.6556 3.98585 12.3277 4.33726C12.0759 4.36498 11.9062 4.51559 11.9355 4.73662C11.9632 4.95803 12.1497 5.08203 12.2917 5.06517C12.4337 5.04869 14.6564 4.65907 14.4744 7.00128C14.5077 7.21445 14.3578 7.57897 14.6568 7.6539Z" fill="white"/>
<path d="M6.2178 8.76512C4.66269 9.06333 3.59311 10.306 3.82988 11.5412C4.06665 12.7763 5.52023 13.535 7.07609 13.2364C8.63157 12.9385 9.70002 11.6955 9.464 10.4611C9.22611 9.22629 7.77365 8.46691 6.2178 8.76512ZM6.0331 12.0975C5.49588 12.0975 5.06018 11.7285 5.06018 11.2699C5.06018 10.8132 5.49588 10.4424 6.0331 10.4424C6.57033 10.4424 7.00565 10.8132 7.00565 11.2699C7.00565 11.7277 6.56996 12.0975 6.0331 12.0975ZM7.62642 10.9807C7.42599 10.9807 7.22219 10.7391 7.22219 10.4416C7.22219 10.1445 7.42599 9.90363 7.62642 9.90363C7.82685 9.90363 8.0314 10.1445 8.0314 10.4416C8.0314 10.7394 7.82685 10.9807 7.62642 10.9807Z" fill="white"/>
</g>
</g>
<defs>
<clipPath id="clip0_515_997">
<rect width="18.0001" height="18" fill="white"/>
</clipPath>
<clipPath id="clip1_515_997">
<rect width="18" height="18" fill="white"/>
</clipPath>
</defs>
</svg>
