<svg width="18" height="16" viewBox="0 0 18 16" fill="none" xmlns="http://www.w3.org/2000/svg">
<g clip-path="url(#clip0_515_1328)">
<g clip-path="url(#clip1_515_1328)">
<path fill-rule="evenodd" clip-rule="evenodd" d="M6.91869 3.39183C6.78525 3.25789 6.56889 3.25789 6.43545 3.39183L2.08622 7.75687C1.95279 7.89081 1.95279 8.10795 2.08622 8.24189L6.43545 12.6069C6.56889 12.7409 6.78525 12.7409 6.91869 12.6069L11.2679 8.24189C11.4014 8.10795 11.4014 7.89081 11.2679 7.75687L6.91869 3.39183ZM7.16031 1.6943C6.89342 1.42644 6.46071 1.42644 6.19382 1.6943L0.394869 7.51438C0.12798 7.78224 0.12798 8.21653 0.394869 8.48439L6.19382 14.3045C6.46071 14.5723 6.89342 14.5723 7.16031 14.3045L12.9593 8.48439C13.2261 8.21653 13.2261 7.78224 12.9593 7.51438L7.16031 1.6943Z" fill="#220A33"/>
<mask id="mask0_515_1328" style="mask-type:luminance" maskUnits="userSpaceOnUse" x="0" y="1" width="14" height="14">
<path fill-rule="evenodd" clip-rule="evenodd" d="M6.91869 3.39183C6.78525 3.25789 6.56889 3.25789 6.43545 3.39183L2.08622 7.75687C1.95279 7.89081 1.95279 8.10795 2.08622 8.24189L6.43545 12.6069C6.56889 12.7409 6.78525 12.7409 6.91869 12.6069L11.2679 8.24189C11.4014 8.10795 11.4014 7.89081 11.2679 7.75687L6.91869 3.39183ZM7.16031 1.6943C6.89342 1.42644 6.46071 1.42644 6.19382 1.6943L0.394869 7.51438C0.12798 7.78224 0.12798 8.21653 0.394869 8.48439L6.19382 14.3045C6.46071 14.5723 6.89342 14.5723 7.16031 14.3045L12.9593 8.48439C13.2261 8.21653 13.2261 7.78224 12.9593 7.51438L7.16031 1.6943Z" fill="white"/>
</mask>
<g mask="url(#mask0_515_1328)">
<path d="M11.0557 1.6943C11.3226 1.42644 11.7553 1.42644 12.0222 1.6943L17.8212 7.51437C18.0881 7.78224 18.0881 8.21653 17.8212 8.48438L12.0222 14.3045C11.7553 14.5724 11.3226 14.5724 11.0557 14.3045L5.25675 8.48438C4.98986 8.21653 4.98986 7.78224 5.25675 7.51437L11.0557 1.6943Z" fill="black"/>
</g>
<path d="M11.0557 1.6943C11.3226 1.42644 11.7553 1.42644 12.0222 1.6943L17.8212 7.51437C18.0881 7.78224 18.0881 8.21653 17.8212 8.48438L12.0222 14.3045C11.7553 14.5724 11.3226 14.5724 11.0557 14.3045L5.25675 8.48438C4.98986 8.21653 4.98986 7.78224 5.25675 7.51437L11.0557 1.6943Z" fill="white"/>
</g>
</g>
<defs>
<clipPath id="clip0_515_1328">
<rect width="18" height="16" fill="white"/>
</clipPath>
<clipPath id="clip1_515_1328">
<rect width="18" height="14.4" fill="white" transform="translate(0 0.800049)"/>
</clipPath>
</defs>
</svg>
