<svg width="18" height="18" viewBox="0 0 18 18" fill="none" xmlns="http://www.w3.org/2000/svg">
<g clip-path="url(#clip0_515_812)">
<path d="M8.73994 0.51238C9.43873 0.396188 10.2968 0.632391 10.6678 1.27554C10.6967 1.91541 10.4697 2.53183 10.4108 3.16625C11.4331 2.83077 12.3828 2.00978 13.5191 2.23453C14.0782 2.30872 14.2932 3.31299 13.6817 3.48864C12.6108 3.98014 11.4287 4.17325 10.3175 4.5431C10.1452 4.95059 10.2543 5.49882 10.1926 5.95431C11.114 5.70175 12.0282 4.97405 13.0216 5.34935C13.4864 5.45845 13.8988 5.85667 13.7815 6.37381C13.3822 8.07468 14.111 9.74883 14.2457 11.4377C14.3379 11.933 14.4568 12.652 13.9189 12.9504C13.3794 13.2264 13.0991 12.4152 12.5868 12.5942C11.6153 12.856 10.6312 13.078 9.6733 13.3852C9.55056 13.6443 9.39836 14.0338 9.05033 14.019C8.76885 13.9017 8.55938 13.6421 8.44483 13.3655C8.00079 11.501 7.94133 9.53063 7.32818 7.71192C6.77504 7.2237 7.25999 6.36126 7.98115 6.68692C8.24735 6.78675 8.51901 6.72893 8.75304 6.57728C8.79231 6.02141 8.85286 5.46664 8.88014 4.91022C7.85841 5.03569 6.77286 5.47154 5.78168 5.00896C5.44129 4.75912 5.90769 4.43236 6.16844 4.38163C7.06689 4.05924 8.02315 3.94086 8.93032 3.64411C8.94614 2.81167 8.75849 1.99451 8.39409 1.24935C8.22444 0.943873 8.38591 0.551111 8.73994 0.51238ZM11.1974 6.73766C10.419 6.90076 9.67766 7.21061 8.92323 7.45717C8.49556 7.54937 8.82777 8.09541 8.84141 8.39489C9.59966 8.19688 10.3432 7.66337 11.1543 7.92849C11.4385 8.0005 11.6622 8.39762 11.3327 8.56182C10.5859 8.8853 9.7764 9.04022 9.00178 9.28406C9.06179 9.643 9.10652 10.0074 9.20471 10.3576C9.97933 10.1547 11.3851 9.34298 11.8275 10.4138C11.2067 11.0379 10.077 10.9713 9.376 11.405C9.42073 11.7492 9.47692 12.0934 9.5462 12.4338C10.5396 12.1229 11.486 11.627 12.5279 11.4928C12.3293 10.057 12.0855 8.62673 11.8204 7.20242C11.7844 6.91113 11.5264 6.58928 11.1974 6.73766ZM3.34001 1.93069C4.11899 1.84832 5.1849 2.31363 5.16854 3.21753C4.73268 4.52892 4.19045 5.81085 3.7175 7.11133C3.62476 7.30225 3.86533 7.40862 3.95043 7.54773C4.41792 7.9694 4.35356 8.63873 4.47902 9.20115C4.8276 11.6019 5.11726 14.0108 5.39219 16.4209C5.53239 16.8355 5.43638 17.6564 4.80632 17.4955C4.09717 17.0924 3.59203 16.266 3.59912 15.4357C3.43984 13.2068 3.53203 10.9184 2.88615 8.75711C2.15136 9.67246 1.59168 10.7973 0.585769 11.4513C0.427027 11.6112 -0.130477 11.6761 0.0282647 11.3362C0.568312 10.0036 1.43948 8.82966 1.96916 7.4899C2.64231 5.8463 3.06944 4.07506 2.98816 2.28854C2.96089 2.08943 3.16436 1.95414 3.34001 1.93069Z" fill="#FFFEFE"/>
<path d="M5.63152 9.46021C6.21739 9.33693 6.96527 9.59986 7.07492 10.2561C7.33676 11.7546 7.49932 13.2705 7.74479 14.7723C10.5574 14.1084 13.3569 13.3867 16.1608 12.6863C16.8083 12.5488 17.7166 12.772 17.9588 13.4544C18.1426 13.8831 17.6746 14.1794 17.3107 14.2077C13.9128 14.4936 10.5541 15.2049 7.37112 16.4377C6.86544 16.5948 6.23757 16.2735 6.12029 15.7488C6.34394 14.2835 6.10174 12.7965 5.87863 11.3449C5.79735 10.7907 5.28076 10.4372 5.11438 9.92825C5.13074 9.6555 5.38386 9.49731 5.63152 9.46021Z" fill="#FFFEFE"/>
</g>
<defs>
<clipPath id="clip0_515_812">
<rect width="18.0001" height="18" fill="white"/>
</clipPath>
</defs>
</svg>
