<svg width="24" height="19" viewBox="0 0 24 19" fill="none" xmlns="http://www.w3.org/2000/svg">
<g clip-path="url(#clip0_515_804)">
<path fill-rule="evenodd" clip-rule="evenodd" d="M11.483 1.18395L10.7623 2.5902C10.7623 2.5902 10.9407 2.7898 11.5719 2.68395C12.2032 2.57802 16.301 0.480177 19.1696 0.988636C22.0378 1.49715 23.7963 3.7596 23.7965 5.53063V14.0306C23.7965 14.0306 23.4611 16.6239 21.2789 17.5306C19.1049 18.4338 15.7326 17.7602 15.7076 17.7552L15.8854 16.348C15.8854 16.348 17.8984 16.8147 19.1696 16.391C19.5246 16.288 19.8527 16.1084 20.1315 15.8656C20.4103 15.6226 20.6332 15.3215 20.7838 14.9838V4.87438C20.6888 4.50365 20.5201 4.1558 20.2887 3.85094C20.0573 3.54607 19.7677 3.29023 19.4362 3.09899C18.2667 2.37443 17.6985 2.46366 16.4274 2.64586C15.3263 2.88703 14.2557 3.25234 13.2369 3.73473L12.1569 5.85289H19.4362V7.30602H14.9869V9.12438H19.6266V10.3949L15.068 10.5775V14.0306L17.2291 13.0775L17.0465 11.5775L18.8004 11.2132L20.1012 14.6664L17.9449 15.6664L17.6774 14.4379C17.6257 14.4598 13.5866 16.171 11.9615 16.3099C10.3261 16.4497 8.71577 16.0563 7.93616 14.9379C7.15946 13.8235 7.33813 11.5943 7.33948 11.5775L10.2584 11.6664C10.2572 11.6734 10.0317 12.9443 10.6022 13.7513C11.1733 14.5588 12.4659 14.3663 12.4703 14.3656V10.5013L7.97913 10.3656V9.14098H12.5084L12.4615 7.3236L11.0719 7.04821C11.0541 7.07579 9.89289 8.86925 9.14026 8.8236C8.38181 8.77699 8.2926 7.72985 8.2926 7.72985L10.7623 4.61168L9.41565 4.47594L7.39417 6.88219L5.86487 5.52282C6.63619 4.80184 7.30206 3.97519 7.84338 3.06871C8.37616 2.1645 8.77707 1.18887 9.03381 0.171253L11.483 1.18395ZM2.67834 4.98864C2.70017 5.00311 6.58566 7.58358 6.85608 9.62438C7.12261 11.667 3.59338 17.891 3.59338 17.891L0.203735 15.391C0.203735 15.391 4.97491 11.4584 4.70374 10.1322C4.43259 8.80811 1.16332 7.17156 1.15295 7.16637L2.67834 4.98864ZM4.50452 0.00133103C5.03979 0.00470998 5.55183 0.220458 5.92834 0.60094C6.30477 0.98134 6.51544 1.49548 6.51331 2.03063C6.51328 2.43281 6.39338 2.82637 6.16956 3.16051C5.94559 3.49472 5.62661 3.75558 5.25452 3.90856C4.88264 4.06131 4.47371 4.09983 4.07971 4.01989C3.68544 3.93984 3.32363 3.74433 3.04065 3.45836C2.75771 3.17241 2.56577 2.8085 2.48987 2.41344C2.4141 2.01856 2.45715 1.60989 2.61389 1.23961C2.7707 0.869283 3.03437 0.553797 3.37073 0.333362C3.70727 0.112915 4.10222 -0.0028685 4.50452 0.00133103Z" fill="white"/>
</g>
<defs>
<clipPath id="clip0_515_804">
<rect width="24" height="19" fill="white"/>
</clipPath>
</defs>
</svg>
