<svg width="18" height="22" viewBox="0 0 18 22" fill="none" xmlns="http://www.w3.org/2000/svg">
<g clip-path="url(#clip0_515_816)">
<path d="M15.0489 11.6099C15.0386 9.85368 15.8343 8.53007 17.4412 7.55411C16.5425 6.26656 15.1828 5.5584 13.3906 5.42192C11.6936 5.28801 9.83691 6.41076 9.15708 6.41076C8.43863 6.41076 6.79571 5.46827 5.503 5.46827C2.83519 5.50947 0 7.59531 0 11.8391C0 13.0932 0.229184 14.3884 0.687554 15.7224C1.30043 17.4786 3.50987 21.7816 5.81459 21.712C7.01974 21.6837 7.8721 20.8571 9.44034 20.8571C10.9622 20.8571 11.7502 21.712 13.0944 21.712C15.4197 21.6786 17.418 17.767 18 16.0056C14.8815 14.5352 15.0489 11.7 15.0489 11.6099Z" fill="white"/>
<path d="M10.0833 3.75578C11.3888 2.20556 11.2704 0.794406 11.2318 0.287109C10.0781 0.354062 8.7442 1.07252 7.98454 1.95578C7.14763 2.90342 6.65579 4.07509 6.76137 5.39612C8.00772 5.4914 9.14591 4.8502 10.0833 3.75578Z" fill="white"/>
</g>
<defs>
<clipPath id="clip0_515_816">
<rect width="18" height="22" fill="white"/>
</clipPath>
</defs>
</svg>
