<svg width="18" height="18" viewBox="0 0 18 18" fill="none" xmlns="http://www.w3.org/2000/svg">
<g clip-path="url(#clip0_515_909)">
<path d="M17.1697 8.26686C16.6604 8.54909 15.9324 8.68934 15.3247 8.75874C16.2886 7.93955 17.2243 7.00614 17.6027 5.83192C18.116 4.23896 18.1316 2.76229 17.6514 1.18512C17.6097 1.04802 17.4931 0.946801 17.3512 0.924602C17.2081 0.899742 17.0676 0.96221 16.9851 1.07901C15.7117 2.89267 14.0278 4.04943 12.1875 4.39137C12.7375 3.28474 13.3442 2.03562 13.2133 0.729847C13.1987 0.585472 13.1023 0.462269 12.9645 0.414161C12.8276 0.366271 12.6746 0.401315 12.5725 0.505128C10.6215 2.49192 9.06413 2.91123 7.18336 2.94354C5.10677 2.97931 3.12364 3.93675 1.74324 5.57074C0.374089 7.19064 -0.23196 9.28005 0.0805029 11.3034C0.582495 14.559 3.01197 16.9955 6.27015 17.5103C6.68135 17.5753 7.08893 17.607 7.49019 17.607C10.1662 17.607 12.5675 16.1917 13.9396 13.733C14.096 13.4534 14.3528 13.1788 14.6441 12.9792C15.9688 12.0728 16.9271 10.8996 17.4914 9.49124C17.5693 9.29659 17.6266 9.05685 17.6766 8.84527L17.7154 8.68573C17.7522 8.54108 17.6988 8.38816 17.5802 8.29739C17.4616 8.20664 17.3002 8.19504 17.1697 8.26686ZM0.849609 10.7502C1.16405 11.7389 3.09683 12.0699 3.09683 12.0699C1.48347 13.8033 0.849609 10.7502 0.849609 10.7502ZM5.51702 12.0699C5.51702 12.0699 9.46143 11.6139 11.033 10.255C11.033 10.255 8.74404 15.4744 5.51702 12.0699Z" fill="#0D0D0D"/>
</g>
<defs>
<clipPath id="clip0_515_909">
<rect width="18" height="18" fill="white"/>
</clipPath>
</defs>
</svg>
