<svg width="18" height="18" viewBox="0 0 18 18" fill="none" xmlns="http://www.w3.org/2000/svg">
<g clip-path="url(#clip0_515_968)">
<g clip-path="url(#clip1_515_968)">
<path d="M17.9941 8.85454C17.9915 8.78468 17.987 8.71491 17.9806 8.64529V8.64229C17.9154 7.88737 17.6599 7.16128 17.2381 6.53179C17.0503 6.24916 16.8323 5.98786 16.5878 5.75254C16.2255 5.4065 15.8103 5.12042 15.3578 4.90504C14.6424 4.56823 13.8603 4.39699 13.0696 4.40404C12.4184 4.40139 11.7719 4.51413 11.1601 4.73704C10.6665 4.90904 10.2048 5.16144 9.79359 5.48404C9.70788 5.55367 9.62459 5.62621 9.54384 5.70154L9.48009 5.76529L9.39234 5.85904H9.39309L9.35109 5.90029L9.33159 5.92129L9.22584 6.03154C9.14784 6.11929 9.07434 6.20704 9.00384 6.29329V6.29179L9.00084 6.28954C8.85684 6.46429 8.72334 6.64654 8.62584 6.80929C8.55909 6.91429 8.49384 7.02154 8.43159 7.12954L7.57134 8.86879L7.57284 8.86954L7.52784 8.95804L7.43334 9.15004C7.24509 9.53179 7.04259 9.91279 6.81759 10.2263C6.31359 10.779 5.74434 11.0498 5.01309 11.0498C4.96209 11.0498 4.90884 11.0475 4.85634 11.0438C4.41534 11.0265 4.03734 10.9223 3.70209 10.7235C3.3856 10.5416 3.12712 10.2738 2.95659 9.95104C2.78436 9.63696 2.6999 9.28229 2.71209 8.92429L2.71359 8.89879C2.73684 8.32879 2.95434 7.88479 3.39159 7.50304C3.49809 7.41004 3.60984 7.33204 3.72609 7.26304C3.74184 7.25329 3.75909 7.24504 3.77484 7.23604C4.10034 7.05829 4.47009 6.96979 4.89384 6.96979L5.02584 6.97354C5.70009 6.99904 6.21984 7.20904 6.63459 7.62079L7.93509 5.28604C7.60691 5.06892 7.25485 4.89024 6.88584 4.75354C6.87159 4.74829 6.85584 4.74154 6.84084 4.73704C6.79434 4.72054 6.74859 4.70329 6.70134 4.68829C6.28414 4.55084 5.85214 4.46323 5.41434 4.42729C5.40284 4.42584 5.39134 4.42434 5.37984 4.42279C5.31159 4.41904 5.24184 4.41079 5.17359 4.40779C5.09937 4.40494 5.02512 4.40319 4.95084 4.40254H4.90959C4.12456 4.39827 3.34854 4.56997 2.63859 4.90504C1.87696 5.26576 1.22817 5.82742 0.762092 6.52954C0.259797 7.27937 -0.00567422 8.16279 9.19787e-05 9.06529C-0.00140802 10.2383 0.426092 11.2688 1.27584 12.135C2.16384 13.0433 3.31659 13.533 4.70109 13.5908C4.78959 13.5945 4.87734 13.5968 4.96584 13.5968C5.74959 13.5968 6.47409 13.4573 7.12434 13.1783C7.28709 13.1085 7.44459 13.0275 7.60584 12.9368C7.69359 12.8865 7.77684 12.8325 7.85934 12.7755L7.91934 12.7343L8.02209 12.6645C8.14509 12.576 8.25984 12.48 8.37234 12.3788L8.41134 12.3413C8.47734 12.279 8.54334 12.2153 8.60559 12.15L8.83884 11.886L8.92734 11.775L8.96934 11.7143L9.01059 11.655C9.35709 11.073 10.4843 8.95429 10.4843 8.95429V8.94979L10.5518 8.82079L10.6073 8.71954C10.7738 8.41729 10.8938 8.20279 11.0528 7.97704L11.0573 7.96954C11.4271 7.43179 12.0653 7.04929 12.8168 6.98479C14.0768 6.87604 15.1808 7.70404 15.2821 8.83354C15.3833 9.96379 14.4443 10.968 13.1836 11.0768C12.9299 11.0986 12.6743 11.0824 12.4253 11.0288L12.4186 11.031C11.4946 10.8383 10.9058 10.1648 10.6156 9.86254L9.40284 12.093C9.40284 12.093 9.78009 12.4725 10.0381 12.6623C10.2976 12.852 10.6313 13.038 10.8976 13.1543C11.5695 13.4453 12.2939 13.5956 13.0261 13.596C13.1168 13.596 13.0988 13.596 13.1926 13.5923C14.5756 13.5345 15.8093 13.0043 16.6988 12.096C17.5411 11.2335 17.9986 10.2488 18.0023 9.08254V9.04729L17.9941 8.85454Z" fill="white"/>
</g>
</g>
<defs>
<clipPath id="clip0_515_968">
<rect width="18" height="18" fill="white"/>
</clipPath>
<clipPath id="clip1_515_968">
<rect width="18" height="18" fill="white"/>
</clipPath>
</defs>
</svg>
