<svg width="24" height="10" viewBox="0 0 24 10" fill="none" xmlns="http://www.w3.org/2000/svg">
<g clip-path="url(#clip0_515_821)">
<path d="M19.4441 2.95155H20.1587C20.1898 3.13798 20.221 3.01383 20.221 3.16871V4.22418H19.4441V2.95155ZM23.1424 1.52405C23.0494 1.4327 22.9871 1.4327 22.8318 1.4327H22.6761C22.427 1.4327 22.148 1.64986 22.1168 1.86702C22.0238 1.9293 22.0238 1.9293 22.0238 2.08417V2.95155H22.8937C23.2358 2.95155 23.5464 2.54838 23.5464 2.14479C23.5464 1.86535 23.3288 1.64654 23.1424 1.52405ZM11.2702 4.59662L11.8312 3.60343L12.0803 2.98062H10.5552C10.5241 3.10518 10.5241 3.19777 10.3999 3.19777C10.3376 3.19777 10.3065 3.1359 10.3065 3.07321V2.98269C10.3065 2.92041 10.5556 2.45496 10.6175 2.36195L11.3329 0.965589L9.77836 0.934448C9.65379 1.55727 8.44179 3.29286 8.44179 3.88246V4.00702C8.44179 4.28646 8.62822 4.3176 8.78351 4.44175L9.84022 4.47289L9.31207 5.43494L9.24979 5.58981C9.21865 5.65209 8.97035 6.3347 8.97035 6.39698V6.58134C8.97035 7.01565 9.37436 7.01565 9.8423 7.01565C10.1844 7.01565 10.899 7.07793 11.1166 6.95378L11.7394 5.74344H10.8969C10.8969 5.7123 10.8351 5.65043 10.8351 5.61888C10.8351 5.46359 11.1768 4.84284 11.2702 4.71869V4.59662ZM2.19492 5.83769L2.44404 2.95155H0.920629C0.703058 2.95155 0.796066 3.57437 0.796066 3.78945C0.796066 4.16314 0.734199 4.44133 0.703058 4.7515C0.703058 5.15508 0.640776 5.24975 0.640776 5.65168C0.640776 6.179 0.516212 6.2745 0.485487 6.58258L0.454346 6.73787L1.29349 8.35139C1.69749 8.04123 2.19492 6.64445 2.19492 5.83769ZM7.9755 8.87912V9.00369H8.13121L8.53521 9.06555L10.3376 9.03483L11.085 7.51391C10.1525 7.51391 9.49975 7.57619 8.75403 7.38934L7.9755 8.87912ZM7.22812 8.22724V8.10268H7.25926L7.82022 6.95503C7.85136 6.83047 7.9755 6.7059 7.9755 6.7059C7.9755 6.67476 7.78907 6.02329 7.75793 5.868C7.69607 5.58856 7.69607 5.18539 7.69607 4.87481C7.69607 4.31635 7.54036 3.57146 7.54036 2.98186H6.01819C6.08006 3.2613 6.14276 4.12992 6.14276 4.4405C6.14276 4.90596 6.23618 5.49556 6.26732 5.96101C6.3296 6.64362 6.70246 8.16454 7.16875 8.28869L7.22812 8.22724ZM3.50034 7.79293H2.50383V7.91749C2.50383 8.50709 3.00209 9.03483 3.59169 9.03483C4.08995 9.03483 4.3997 8.97255 4.61727 8.69311C4.83484 8.50709 5.02127 8.07278 5.02127 7.70034V0.934448H3.50034V7.79293ZM15.8077 2.98269C15.9011 2.98269 15.9322 2.95155 15.9322 2.85813V1.4327H12.3269V2.98269H13.3836V7.51349H11.9557C11.7693 7.51349 11.1789 8.78612 11.1166 9.03441H16.4313V7.51349H14.9062V2.98269H15.8077ZM16.8955 2.95155C17.0201 2.98269 16.8644 2.98269 17.0201 2.98269H17.9526V4.22418H16.4292V5.74469H17.9522V9.03441H19.4441V5.74469L21.6817 5.80655C21.837 5.86883 22.0238 5.93112 22.0238 6.24128V7.73065H20.5008C20.5008 8.50668 21.0912 9.03441 21.8992 9.03441C23.0182 9.03441 23.5464 8.63083 23.5464 7.48235V5.83769C23.5464 4.96865 23.0182 4.22418 22.2414 4.22418H21.7431V3.324C21.7431 2.17593 21.1203 1.43104 20.0337 1.43104H19.4441V0.934448H17.9834V1.4327H16.8968L16.8955 2.95155Z" fill="white"/>
</g>
<defs>
<clipPath id="clip0_515_821">
<rect width="24" height="10" fill="white"/>
</clipPath>
</defs>
</svg>
