<svg width="24" height="14" viewBox="0 0 24 14" fill="none" xmlns="http://www.w3.org/2000/svg">
<g clip-path="url(#clip0_515_978)">
<g clip-path="url(#clip1_515_978)">
<path d="M15.1025 2.78178L15.5317 0.722778H2.92743L0.860168 10.6222H11.3988L10.8185 13.2772H20.9134L23.1398 2.78178H15.1025Z" fill="#02262B"/>
<path d="M5.15578 9.35846C4.87007 9.35846 4.60008 9.31159 4.3462 9.21745C4.09233 9.12371 3.87069 8.98512 3.6817 8.80209C3.4927 8.61906 3.3436 8.39401 3.23399 8.12653C3.12438 7.85906 3.06958 7.55198 3.06958 7.20491C3.06958 6.73056 3.13526 6.29824 3.26704 5.90834C3.39881 5.51844 3.58216 5.18429 3.8171 4.90551C4.05203 4.62712 4.33371 4.41136 4.66254 4.25863C4.99096 4.10591 5.35082 4.02954 5.7413 4.02954C6.00485 4.02954 6.25469 4.0756 6.49164 4.16813C6.72819 4.26065 6.93531 4.3948 7.11303 4.57177C7.29074 4.74833 7.43218 4.96571 7.53696 5.22349C7.64173 5.48127 7.69412 5.77743 7.69412 6.11157C7.69412 6.16248 7.6925 6.22228 7.68928 6.29056C7.68606 6.35925 7.68122 6.42915 7.67477 6.50066C7.66832 6.57218 7.66188 6.64248 7.65583 6.71077C7.64938 6.77905 7.64173 6.83723 7.63206 6.88491H3.93154C3.92832 6.92976 3.9259 6.97259 3.92429 7.0138C3.92268 7.05541 3.92187 7.09824 3.92187 7.14269C3.92187 7.40693 3.96015 7.63198 4.03632 7.81825C4.11248 8.00451 4.21161 8.15643 4.33411 8.27441C4.45622 8.39239 4.59363 8.47724 4.74595 8.52977C4.89828 8.58229 5.05221 8.60855 5.20776 8.60855C5.54747 8.60855 5.82069 8.54956 6.02701 8.43199C6.23333 8.31441 6.39049 8.15522 6.49849 7.95441H7.37012C7.31613 8.15199 7.22707 8.33663 7.10335 8.50835C6.97964 8.68007 6.82329 8.82916 6.63429 8.95482C6.4453 9.08048 6.22608 9.17947 5.97704 9.25098C5.728 9.3225 5.45398 9.35846 5.15578 9.35846ZM6.82732 6.22107C6.83054 6.20531 6.83296 6.17581 6.83457 6.13258C6.83618 6.08975 6.83699 6.04733 6.83699 6.00612C6.83699 5.83723 6.81241 5.67723 6.76324 5.52611C6.71408 5.375 6.64034 5.24207 6.54161 5.12732C6.44328 5.01258 6.32078 4.92207 6.1749 4.855C6.02862 4.78833 5.85897 4.7548 5.66514 4.7548C5.46808 4.7548 5.28392 4.78995 5.11266 4.85985C4.94099 4.92975 4.78545 5.02955 4.64602 5.15844C4.50618 5.28733 4.38569 5.44167 4.28415 5.62147C4.1826 5.80127 4.1016 6.00127 4.04115 6.22066H6.82732V6.22107Z" fill="white"/>
<path d="M10.031 9.35827C9.77388 9.35827 9.5325 9.30978 9.30684 9.21241C9.08117 9.11544 8.88371 8.97604 8.71406 8.79463C8.54401 8.61321 8.40982 8.39341 8.31149 8.13563C8.21316 7.87786 8.164 7.58977 8.164 7.27139C8.164 6.9627 8.19503 6.66734 8.25669 6.38573C8.31834 6.10411 8.40659 5.8431 8.52104 5.60269C8.63548 5.36229 8.77249 5.14491 8.93288 4.95097C9.09326 4.75663 9.27097 4.59137 9.46642 4.4544C9.66186 4.31743 9.87261 4.21238 10.0999 4.13925C10.3268 4.06612 10.5641 4.02935 10.8119 4.02935C10.9961 4.02935 11.1714 4.05481 11.3382 4.10572C11.5051 4.15662 11.6558 4.22733 11.7908 4.31824C11.9258 4.40915 12.0414 4.51865 12.1385 4.64754C12.2353 4.77643 12.3062 4.91744 12.3505 5.07016H12.4267L13.0601 2.07581H13.8935L12.3694 9.26776H11.5788L11.7263 8.56594H11.6501C11.4628 8.81119 11.2278 9.00433 10.9453 9.14614C10.6628 9.28716 10.3578 9.35827 10.031 9.35827ZM10.2929 8.61806C10.5597 8.61806 10.8063 8.55543 11.0336 8.42937C11.2605 8.30372 11.4583 8.13159 11.6264 7.91381C11.7948 7.69563 11.9266 7.43947 12.0217 7.14492C12.1168 6.85038 12.1647 6.5328 12.1647 6.19219C12.1647 5.97239 12.1345 5.77522 12.0741 5.59986C12.0136 5.42491 11.9278 5.27582 11.817 5.1534C11.7057 5.03097 11.5707 4.93602 11.412 4.86936C11.2532 4.80228 11.0739 4.76915 10.8736 4.76915C10.6101 4.76915 10.3655 4.82814 10.1402 4.94572C9.91452 5.0637 9.71948 5.22734 9.55426 5.43744C9.38904 5.64754 9.25888 5.89845 9.16378 6.18936C9.06868 6.48027 9.02073 6.79987 9.02073 7.14694C9.02073 7.36351 9.05175 7.5623 9.11381 7.74371C9.17587 7.92513 9.26211 8.08028 9.37333 8.20917C9.48455 8.33806 9.61793 8.43826 9.77348 8.51018C9.92903 8.5821 10.1023 8.61806 10.2929 8.61806Z" fill="white"/>
<path d="M21.3691 4.13501H19.5102L17.4825 6.65219H17.3825L16.3102 4.13501H14.4299L16.0418 7.79119L12.5621 11.9241H14.3961L16.6294 9.26918H16.7801L17.9866 11.9241H19.8318L18.0474 7.97422L21.3691 4.13501Z" fill="white"/>
</g>
</g>
<defs>
<clipPath id="clip0_515_978">
<rect width="24" height="14" fill="white"/>
</clipPath>
<clipPath id="clip1_515_978">
<rect width="22.2797" height="12.5544" fill="white" transform="translate(0.860168 0.722778)"/>
</clipPath>
</defs>
</svg>
