<svg width="18" height="18" viewBox="0 0 18 18" fill="none" xmlns="http://www.w3.org/2000/svg">
<g clip-path="url(#clip0_515_953)">
<g clip-path="url(#clip1_515_953)">
<path d="M3.34407 3.15628C3.90375 3.61077 4.11356 3.57646 5.16487 3.50559L15.0761 2.91103C15.2859 2.91103 15.1115 2.70122 15.0417 2.66634L13.3948 1.4761C13.0798 1.23141 12.659 0.95129 11.8535 1.02104L2.25732 1.72135C1.90801 1.75566 1.83714 1.93116 1.97664 2.07066L3.34407 3.15628ZM3.93919 5.46589V15.894C3.93919 16.4543 4.21875 16.6641 4.84987 16.6292L15.7421 15.9992C16.3726 15.9649 16.4435 15.579 16.4435 15.124V4.76558C16.4435 4.31108 16.2686 4.06583 15.8827 4.10015L4.5 4.76558C4.07981 4.80102 3.93975 5.01083 3.93975 5.46589H3.93919ZM14.6919 6.02501C14.7616 6.34001 14.6919 6.65501 14.3769 6.69101L13.8521 6.79619V14.494C13.3959 14.7392 12.9763 14.8793 12.6258 14.8793C12.065 14.8793 11.9244 14.7038 11.5048 14.1795L8.07185 8.79024V14.004L9.15803 14.2498C9.15803 14.2498 9.15803 14.8798 8.28223 14.8798L5.86574 15.0193C5.79599 14.8798 5.86574 14.5294 6.11099 14.4596L6.74099 14.2847V7.39019L5.86743 7.31988C5.79712 7.00488 5.97261 6.55038 6.46199 6.51494L9.05397 6.34001L12.627 11.799V6.96888L11.7157 6.86482C11.646 6.47951 11.9255 6.19938 12.276 6.16507L14.6919 6.02501ZM1.45183 0.776354L11.4345 0.0411708C12.6601 -0.064016 12.9757 0.00573349 13.7458 0.56598L16.9323 2.80528C17.4571 3.19003 17.6326 3.29521 17.6326 3.71484V15.9981C17.6326 16.7676 17.353 17.2238 16.3726 17.2924L4.779 17.9927C4.04381 18.0281 3.69282 17.9229 3.30751 17.4324L0.96077 14.3876C0.540585 13.8274 0.366211 13.4083 0.366211 12.9178V1.99922C0.366211 1.36979 0.646897 0.844416 1.45127 0.775229L1.45183 0.776354Z" fill="white"/>
</g>
</g>
<defs>
<clipPath id="clip0_515_953">
<rect width="18" height="18" fill="white"/>
</clipPath>
<clipPath id="clip1_515_953">
<rect width="18" height="18" fill="white"/>
</clipPath>
</defs>
</svg>
