<svg width="18" height="18" viewBox="0 0 18 18" fill="none" xmlns="http://www.w3.org/2000/svg">
<g clip-path="url(#clip0_515_1178)">
<path d="M8.99998 8.09094C7.46998 8.09094 6.04798 8.01894 4.84198 7.91094V8.07294C4.94098 8.75694 5.02198 9.38694 5.54398 9.86394C5.62498 9.94494 5.68798 10.0529 5.71498 10.1609C6.08398 11.2049 6.81298 12.0869 7.77598 12.6359C8.45098 13.1039 9.33298 13.1489 10.053 12.7529C11.097 12.2309 11.898 11.3309 12.294 10.2329L12.312 10.1699C12.339 10.0619 12.393 9.96294 12.465 9.88195C13.032 9.35995 13.113 8.64894 13.194 7.89294L12.546 7.94694H12.402C11.385 8.01894 10.206 8.06394 8.98198 8.06394" fill="white"/>
<path d="M8.99997 8.09106C7.46997 8.09106 6.04797 8.01906 4.84197 7.91106V8.07306C4.94097 8.75706 5.02197 9.38706 5.54397 9.86406C5.62497 9.94506 5.68797 10.0531 5.71497 10.1611C6.08397 11.2051 6.81297 12.0871 7.77597 12.6361C8.45097 13.1041 9.33297 13.1491 10.053 12.7531C11.097 12.2311 11.898 11.3311 12.294 10.2331L12.312 10.1701C12.339 10.0621 12.393 9.96306 12.465 9.88206C13.032 9.36006 13.113 8.64906 13.194 7.89306L12.546 7.94706H12.402C11.385 8.01906 10.206 8.06406 8.98197 8.06406M4.04097 7.02906C5.68797 7.21806 7.34397 7.29906 9.00897 7.29006C10.665 7.29906 12.33 7.20906 13.977 7.02906C13.986 6.95706 13.995 6.88506 14.022 6.82206V6.64206C14.112 6.21006 14.049 5.76006 13.842 5.36406C13.716 5.19306 13.635 4.99506 13.599 4.77906C13.437 3.55506 12.807 2.43006 11.853 1.63806L11.718 1.53006C11.718 1.58406 11.691 1.63806 11.682 1.70106C11.493 2.74506 11.214 3.77106 10.845 4.76106L10.503 4.71606C10.485 4.59006 10.485 4.45506 10.503 4.32906C10.548 3.98706 10.602 3.64506 10.656 3.31206C10.782 2.56506 10.872 1.80906 10.917 1.06206C10.944 0.936061 10.917 0.801061 10.836 0.693061C10.764 0.585061 10.647 0.513061 10.521 0.486061C9.77397 0.225061 8.97297 0.162061 8.19897 0.297061C7.05597 0.495061 7.03797 0.531061 7.13697 1.69206C7.13697 1.79106 7.15497 1.89006 7.17297 1.98906L7.55997 4.66206L7.21797 4.76106C6.80397 3.72606 6.49797 2.65506 6.29997 1.55706C5.27397 2.34906 4.59897 3.51006 4.41897 4.79706V4.87806C4.41897 5.00406 4.38297 5.12106 4.30197 5.22006C3.97797 5.50806 3.97797 5.87706 3.97797 6.29106V6.79506C3.98697 6.87606 4.00497 6.95706 4.02297 7.02906" fill="white"/>
<path d="M16.758 17.577C16.587 17.721 16.353 17.784 16.128 17.757H1.872C1.53 17.757 1.323 17.703 1.233 17.604C1.134 17.415 1.107 17.19 1.17 16.983C1.296 16.101 1.458 15.192 1.647 14.283C1.701 13.95 1.953 13.671 2.277 13.581C3.429 13.23 4.59 12.87 5.742 12.501C5.94 12.438 6.003 12.474 6.084 12.6C6.75 13.509 7.812 14.058 8.946 14.067C10.08 14.076 11.151 13.563 11.835 12.663C11.88 12.573 11.952 12.51 12.051 12.483C12.15 12.456 12.249 12.474 12.33 12.528C13.473 12.906 14.607 13.248 15.669 13.572C16.029 13.653 16.299 13.941 16.353 14.31C16.416 14.706 16.488 15.102 16.56 15.489C16.659 15.984 16.749 16.479 16.83 16.974C16.893 17.181 16.866 17.406 16.758 17.586" fill="white"/>
</g>
<defs>
<clipPath id="clip0_515_1178">
<rect width="18" height="18" fill="white"/>
</clipPath>
</defs>
</svg>
