<svg width="26" height="10" viewBox="0 0 26 10" fill="none" xmlns="http://www.w3.org/2000/svg">
<g clip-path="url(#clip0_515_1436)">
<rect x="0.00799561" y="0.902466" width="8.19497" height="8.19497" fill="white"/>
<rect x="8.90253" y="0.902466" width="8.19497" height="8.19497" fill="white"/>
<rect x="17.7971" y="0.902466" width="8.19497" height="8.19497" fill="white"/>
<path d="M2 1.83643H4.03305C4.47673 1.83643 4.84444 1.87289 5.13618 1.94583C5.434 2.01268 5.66799 2.11601 5.83818 2.2558C6.01443 2.39559 6.13599 2.57185 6.20285 2.78457C6.27578 2.9973 6.31225 3.24649 6.31225 3.53215C6.31225 3.86036 6.24235 4.1369 6.10256 4.36178C5.96885 4.58058 5.73181 4.74165 5.39145 4.84497V4.88144C5.78651 4.97261 6.06913 5.14279 6.23931 5.39198C6.41557 5.63509 6.5037 5.95114 6.5037 6.34013C6.5037 6.62579 6.46723 6.8841 6.3943 7.11506C6.32744 7.33994 6.20589 7.53139 6.02963 7.68941C5.85337 7.84136 5.61633 7.95988 5.31852 8.04497C5.02678 8.12398 4.65907 8.16349 4.21538 8.16349H2V1.83643ZM3.71396 4.49853C3.96315 4.49853 4.17588 4.48638 4.35214 4.46207C4.53447 4.43775 4.68338 4.39521 4.79886 4.33443C4.91434 4.26757 4.99943 4.17944 5.05413 4.07004C5.10883 3.96064 5.13618 3.81781 5.13618 3.64155C5.13618 3.45314 5.10883 3.30423 5.05413 3.19483C4.99943 3.08543 4.91434 3.00338 4.79886 2.94868C4.68946 2.8879 4.54359 2.84839 4.36125 2.83016C4.18499 2.81192 3.96923 2.80281 3.71396 2.80281H3.1943V4.49853H3.71396ZM3.90541 7.18799C4.17892 7.18799 4.4038 7.17583 4.58006 7.15152C4.76239 7.12721 4.90522 7.08163 5.00855 7.01477C5.11795 6.94184 5.19392 6.84763 5.23647 6.73215C5.27901 6.61667 5.30028 6.46776 5.30028 6.28543C5.30028 6.12132 5.27901 5.98153 5.23647 5.86605C5.19392 5.75057 5.11795 5.65941 5.00855 5.59255C4.90522 5.51961 4.76239 5.46795 4.58006 5.43756C4.4038 5.4011 4.17892 5.38286 3.90541 5.38286H3.1943V7.18799H3.90541Z" fill="#FF0D01"/>
<path d="M10.7482 1.83643H12.7812C13.2249 1.83643 13.5926 1.87289 13.8843 1.94583C14.1822 2.01268 14.4162 2.11601 14.5863 2.2558C14.7626 2.39559 14.8842 2.57185 14.951 2.78457C15.024 2.9973 15.0604 3.24649 15.0604 3.53215C15.0604 3.86036 14.9905 4.1369 14.8507 4.36178C14.717 4.58058 14.48 4.74165 14.1396 4.84497V4.88144C14.5347 4.97261 14.8173 5.14279 14.9875 5.39198C15.1637 5.63509 15.2519 5.95114 15.2519 6.34013C15.2519 6.62579 15.2154 6.8841 15.1425 7.11506C15.0756 7.33994 14.9541 7.53139 14.7778 7.68941C14.6015 7.84136 14.3645 7.95988 14.0667 8.04497C13.7749 8.12398 13.4072 8.16349 12.9636 8.16349H10.7482V1.83643ZM12.4621 4.49853C12.7113 4.49853 12.924 4.48638 13.1003 4.46207C13.2826 4.43775 13.4315 4.39521 13.547 4.33443C13.6625 4.26757 13.7476 4.17944 13.8023 4.07004C13.857 3.96064 13.8843 3.81781 13.8843 3.64155C13.8843 3.45314 13.857 3.30423 13.8023 3.19483C13.7476 3.08543 13.6625 3.00338 13.547 2.94868C13.4376 2.8879 13.2918 2.84839 13.1094 2.83016C12.9332 2.81192 12.7174 2.80281 12.4621 2.80281H11.9425V4.49853H12.4621ZM12.6536 7.18799C12.9271 7.18799 13.152 7.17583 13.3282 7.15152C13.5106 7.12721 13.6534 7.08163 13.7567 7.01477C13.8661 6.94184 13.9421 6.84763 13.9846 6.73215C14.0272 6.61667 14.0485 6.46776 14.0485 6.28543C14.0485 6.12132 14.0272 5.98153 13.9846 5.86605C13.9421 5.75057 13.8661 5.65941 13.7567 5.59255C13.6534 5.51961 13.5106 5.46795 13.3282 5.43756C13.152 5.4011 12.9271 5.38286 12.6536 5.38286H11.9425V7.18799H12.6536Z" fill="#FF0D01"/>
<path d="M22.6239 8.25476C22.168 8.25476 21.7547 8.20918 21.384 8.11801C21.0193 8.02684 20.7063 7.86274 20.445 7.6257C20.1836 7.38259 19.98 7.05134 19.8341 6.63197C19.6943 6.20652 19.6245 5.66255 19.6245 5.00006C19.6245 4.39227 19.6943 3.88173 19.8341 3.46844C19.98 3.04906 20.1836 2.71174 20.445 2.45647C20.7063 2.2012 21.0224 2.01887 21.3931 1.90946C21.7639 1.80006 22.1802 1.74536 22.6421 1.74536C22.946 1.74536 23.2134 1.7636 23.4444 1.80006C23.6814 1.83045 23.8972 1.87907 24.0917 1.94593V2.99436C23.8972 2.92751 23.6875 2.87585 23.4626 2.83938C23.2377 2.79683 22.9886 2.77556 22.715 2.77556C22.4051 2.77556 22.1346 2.81203 21.9037 2.88496C21.6788 2.9579 21.4904 3.08249 21.3384 3.25875C21.1925 3.42893 21.0831 3.65685 21.0102 3.94251C20.9373 4.22209 20.9008 4.57157 20.9008 4.99094C20.9008 5.43463 20.9342 5.7993 21.0011 6.08496C21.074 6.37062 21.1834 6.59854 21.3293 6.76872C21.4752 6.93282 21.6575 7.0483 21.8763 7.11516C22.1012 7.17594 22.3656 7.20633 22.6695 7.20633C22.949 7.20633 23.2074 7.18809 23.4444 7.15163C23.6814 7.10908 23.9215 7.04526 24.1646 6.96017V7.99037C23.9762 8.06331 23.7483 8.12409 23.4809 8.17271C23.2195 8.22741 22.9339 8.25476 22.6239 8.25476Z" fill="#FF0D01"/>
</g>
<defs>
<clipPath id="clip0_515_1436">
<rect width="26" height="10" fill="white"/>
</clipPath>
</defs>
</svg>
