<svg width="18" height="20" viewBox="0 0 18 20" fill="none" xmlns="http://www.w3.org/2000/svg">
<g clip-path="url(#clip0_515_1253)">
<path d="M15.8679 8.64514C15.8984 8.29371 16.3059 5.32946 12.0378 5.64524C6.14493 6.08326 2.15695 12.5313 1.34713 14.8385C0.259896 13.074 -0.189588 10.9902 0.0736353 8.93445C0.336859 6.87871 1.29688 4.97533 2.7936 3.54174C4.28247 2.11817 6.22121 1.25842 8.27582 1.1106C10.3304 0.962779 12.3723 1.53615 14.0496 2.73192C12.6244 2.42953 11.1514 2.4325 9.72746 2.74064C8.30353 3.04877 6.96104 3.65509 5.78841 4.51964C11.941 1.97304 15.3789 3.68945 16.1582 4.79467C17.406 6.5773 16.4434 8.29371 15.8679 8.64514ZM17.8288 10.0814C17.8326 11.6251 17.4397 13.1439 16.6879 14.4921C13.1787 15.6687 10.6473 13.2698 10.1889 12.1595C13.0513 13.7944 16.8407 11.9914 17.7524 9.00167C17.8005 9.35962 17.826 9.72026 17.8288 10.0814Z" fill="white"/>
<path d="M10.1889 18.8317C9.78553 18.8869 9.3788 18.9141 8.97165 18.9132C7.64804 18.9166 6.34008 18.627 5.14161 18.0652C3.94314 17.5034 2.88387 16.6832 2.03979 15.6637C2.68273 13.7159 3.71125 11.9175 5.06406 10.3757C6.41686 8.83387 8.06625 7.58021 9.9139 6.68945C8.28407 8.86935 6.49126 13.8199 10.1889 18.8317Z" fill="white"/>
<path d="M8.91051 10.2546C8.93488 11.1003 9.1392 11.9311 9.50985 12.6916C9.8805 13.4521 10.409 14.1249 11.0601 14.6652C11.7111 15.2054 12.4699 15.6007 13.2857 15.8247C14.1016 16.0487 14.9558 16.0962 15.7914 15.9641C14.582 17.4121 12.9483 18.4436 11.121 18.9131C10.1013 17.7431 9.37023 16.3504 8.98634 14.8467C8.60246 13.343 8.57648 11.7702 8.91051 10.2546Z" fill="white"/>
</g>
<defs>
<clipPath id="clip0_515_1253">
<rect width="18" height="20" fill="white"/>
</clipPath>
</defs>
</svg>
