<svg width="18" height="18" viewBox="0 0 18 18" fill="none" xmlns="http://www.w3.org/2000/svg">
<g clip-path="url(#clip0_515_893)">
<g clip-path="url(#clip1_515_893)">
<path d="M11.9553 0.431492C10.0743 -0.261484 7.72766 -0.187237 5.29662 1.15034C-1.10778 6.1283 3.76555 10.3773 4.00854 10.5156C5.22687 10.8284 5.01651 9.01945 5.01651 9.01945C5.01651 9.01945 2.79021 6.23517 5.81748 2.96153C11.7382 -0.312107 14.1051 3.9695 13.3041 7.34775C11.98 13.3011 8.29014 10.8981 8.56913 10.0634C8.50051 10.3413 9.57935 5.88531 9.47473 5.53769C9.61422 3.20452 5.0885 3.0999 6.51383 8.2196C6.30571 9.05432 5.08738 14.2415 5.08738 14.2415C5.08738 14.2415 4.63402 16.2968 5.05138 17.7919C5.156 18.1046 5.40012 17.8594 5.40012 17.8594C5.40012 17.8594 7.03694 16.7142 7.90766 11.8386C8.01115 12.9872 14.2086 15.146 15.8454 7.48725C16.5102 4.35086 14.9195 1.52383 11.9553 0.431492Z" fill="white"/>
</g>
</g>
<defs>
<clipPath id="clip0_515_893">
<rect width="18" height="18" fill="white"/>
</clipPath>
<clipPath id="clip1_515_893">
<rect width="18" height="18" fill="white"/>
</clipPath>
</defs>
</svg>
