<svg width="18" height="18" viewBox="0 0 18 18" fill="none" xmlns="http://www.w3.org/2000/svg">
<g clip-path="url(#clip0_515_961)">
<path d="M5.52059 4.51946C3.03179 6.02186 1.36507 8.66765 1.24916 11.7102L1.2486 11.7265C1.25141 15.1916 4.06095 18 7.5266 18C10.9939 18 13.8046 15.1893 13.8046 11.722C13.8046 9.06043 12.148 6.78545 9.81002 5.87218L9.76725 5.85756C9.12465 5.59084 8.37907 5.43554 7.59635 5.43554C7.5761 5.43554 7.55592 5.43554 7.53559 5.4361H7.5384C6.1874 6.35779 5.1132 7.59067 4.4042 9.03503L4.38 9.08961C5.14132 8.18592 6.27404 7.61535 7.53954 7.61535C9.81677 7.61535 11.663 9.46156 11.663 11.7388C11.663 14.016 9.81679 15.8624 7.53954 15.8624H7.51817C6.92267 15.863 6.33413 15.7344 5.7932 15.4854C5.25226 15.2364 4.77182 14.873 4.38506 14.4202L4.38056 14.4145C3.87561 13.8506 3.50636 13.1785 3.30106 12.4499C3.09576 11.7212 3.05985 10.9553 3.19608 10.2106L3.19158 10.241C3.99679 5.42434 9.76669 2.6508 14.0387 1.57326C11.8312 2.64294 9.96532 3.73514 8.1922 4.95281L8.343 4.8549C13.507 6.84847 14.3369 2.50219 16.7515 0.557507C14.3493 -0.383327 5.53296 -0.729932 5.52003 4.52058L5.52059 4.51946Z" fill="white"/>
</g>
<defs>
<clipPath id="clip0_515_961">
<rect width="18" height="18" fill="white"/>
</clipPath>
</defs>
</svg>
