<svg width="18" height="18" viewBox="0 0 18 18" fill="none" xmlns="http://www.w3.org/2000/svg">
<g clip-path="url(#clip0_515_1281)">
<g clip-path="url(#clip1_515_1281)">
<path d="M2.32691 6.98267C1.05695 6.98267 0 7.51717 0 9.12872C0 10.4067 0.711332 11.2105 2.35906 11.2105C4.30016 11.2105 4.42474 9.94054 4.42474 9.94054H3.48433C3.48433 9.94054 3.28339 10.6237 2.30279 10.6237C1.50304 10.6237 0.928349 10.0892 0.928349 9.33771H4.52522V8.87153C4.52522 8.12804 4.051 6.98267 2.32692 6.98267L2.32691 6.98267ZM2.29476 7.58549C3.05432 7.58549 3.57275 8.04765 3.57275 8.7389H0.952467C0.952467 8.00345 1.62763 7.5855 2.29476 7.5855V7.58549Z" fill="#E53238"/>
<path d="M4.52522 5.42334V10.4027C4.52522 10.684 4.50513 11.0819 4.50513 11.0819H5.40133C5.40133 11.0819 5.43348 10.7965 5.43348 10.5353C5.43348 10.5353 5.87556 11.2225 7.0812 11.2225C8.35116 11.2225 9.21119 10.3504 9.21119 9.09655C9.21119 7.9311 8.41948 6.9947 7.08121 6.9947C5.82733 6.9947 5.44152 7.66585 5.44152 7.66585V5.42334H4.52522ZM6.85213 7.6136C7.71216 7.6136 8.26275 8.24858 8.26275 9.10058C8.26275 10.0129 7.62777 10.6117 6.86017 10.6117C5.93986 10.6117 5.44554 9.90032 5.44554 9.10861C5.44152 8.36914 5.88761 7.6136 6.85213 7.6136Z" fill="#0064D2"/>
<path d="M11.4417 6.98267C9.5327 6.98267 9.40812 8.01952 9.40812 8.1843H10.3606C10.3606 8.1843 10.4088 7.57745 11.3773 7.57745C12.0043 7.57745 12.4906 7.86279 12.4906 8.40935V8.60628H11.3773C9.89842 8.60628 9.11475 9.03629 9.11475 9.90838C9.11475 10.7644 9.83814 11.2306 10.8147 11.2306C12.1449 11.2306 12.575 10.4992 12.575 10.4992C12.575 10.7885 12.5991 11.0738 12.5991 11.0738H13.443C13.443 11.0738 13.4109 10.7202 13.4109 10.4911V8.53796C13.4109 7.25594 12.366 6.98267 11.4417 6.98267ZM12.4906 9.19705V9.45827C12.4906 9.79585 12.2776 10.6398 11.0358 10.6398C10.3566 10.6398 10.0632 10.3022 10.0632 9.91239C10.0672 9.20106 11.0478 9.19705 12.4906 9.19705Z" fill="#F5AF02"/>
<path d="M12.9005 7.14746H13.9695L15.5047 10.1978L17.0358 7.14746H18.0044L15.2153 12.5769H14.1985L15.0023 11.0618L12.9005 7.14746Z" fill="#86B817"/>
</g>
</g>
<defs>
<clipPath id="clip0_515_1281">
<rect width="18" height="18.0001" fill="white"/>
</clipPath>
<clipPath id="clip1_515_1281">
<rect width="18" height="18" fill="white"/>
</clipPath>
</defs>
</svg>
