<svg width="19" height="19" viewBox="0 0 19 19" fill="none" xmlns="http://www.w3.org/2000/svg">
<g clip-path="url(#clip0_515_1124)">
<g clip-path="url(#clip1_515_1124)">
<path d="M1.31396 3.6663C2.69962 3.71936 4.0129 4.29882 4.98615 5.28656C5.9594 6.27431 6.51938 7.596 6.55196 8.9823C6.51796 10.3681 5.95752 11.689 4.98456 12.6765C4.0116 13.6639 2.69915 14.2438 1.31396 14.2983V17.8623C3.64476 17.8097 5.86418 16.8546 7.50487 15.1982C9.14555 13.5419 10.0795 11.3135 10.11 8.9823C10.0795 6.65111 9.14555 4.42271 7.50487 2.76635C5.86418 1.11 3.64476 0.15494 1.31396 0.102295" fill="#FD003A"/>
<path d="M8.03394 8.95825C8.06597 11.2884 9.00057 13.5153 10.6411 15.1703C12.2816 16.8254 14.5002 17.7796 16.8299 17.8322V14.2682C15.4453 14.2153 14.1329 13.6366 13.1598 12.6502C12.1867 11.6637 11.626 10.3435 11.5919 8.95825C11.6215 7.56986 12.1801 6.24517 13.1537 5.25488C14.1273 4.26459 15.4423 3.68346 16.8299 3.63025V0.0782471C14.4991 0.130892 12.2797 1.08595 10.639 2.74231C8.99835 4.39866 8.06443 6.62706 8.03394 8.95825Z" fill="#003368"/>
</g>
</g>
<defs>
<clipPath id="clip0_515_1124">
<rect width="19" height="19" fill="white"/>
</clipPath>
<clipPath id="clip1_515_1124">
<rect width="18" height="18" fill="white" transform="translate(0.0718994 0.0302734)"/>
</clipPath>
</defs>
</svg>
