<svg width="20" height="20" viewBox="0 0 20 20" fill="none" xmlns="http://www.w3.org/2000/svg">
<g clip-path="url(#clip0_515_1294)">
<g clip-path="url(#clip1_515_1294)">
<path d="M9.99998 0.500122H9.92398C8.78398 0.500122 8.66998 1.22212 8.66998 1.22212L9.12598 6.39012C9.23998 6.84612 9.80998 6.84612 9.96198 6.84612C10.114 6.84612 10.684 6.84612 10.798 6.39012L11.254 1.22212C11.254 1.22212 11.14 0.500122 9.99998 0.500122ZM18.284 5.21212L18.246 5.17412C17.638 4.18612 16.992 4.45212 16.992 4.45212L12.774 7.49212C12.432 7.83412 12.736 8.32812 12.812 8.44212C12.888 8.55612 13.192 9.05012 13.61 8.89812L18.322 6.65612C18.284 6.65612 18.854 6.20012 18.284 5.21212ZM18.284 14.7501C18.246 14.7881 18.246 14.7881 18.284 14.7501C17.638 15.7761 16.992 15.5101 16.992 15.5101L12.774 12.4701C12.432 12.1281 12.736 11.6341 12.812 11.5201C12.888 11.4061 13.192 10.9121 13.61 11.0641L18.322 13.3061C18.284 13.3061 18.854 13.7621 18.284 14.7501ZM1.71598 5.21212L1.75398 5.17412C2.36198 4.18612 3.00798 4.45212 3.00798 4.45212L7.22598 7.49212C7.56798 7.83412 7.26398 8.32812 7.18798 8.44212C7.11198 8.55612 6.80798 9.05012 6.38998 8.89812L1.71598 6.65612C1.71598 6.65612 1.14598 6.20012 1.71598 5.21212ZM1.71598 14.7501C1.75398 14.7881 1.75398 14.7881 1.71598 14.7501C2.36198 15.7761 3.00798 15.5101 3.00798 15.5101L7.22598 12.4701C7.56798 12.1281 7.26398 11.6341 7.18798 11.5201C7.11198 11.4061 6.80798 10.9121 6.38998 11.0641L1.71598 13.3061C1.71598 13.3061 1.14598 13.7621 1.71598 14.7501ZM9.99998 19.5001H9.92398C8.78398 19.5001 8.66998 18.7781 8.66998 18.7781L9.12598 13.6101C9.23998 13.1541 9.80998 13.1541 9.96198 13.1541C10.114 13.1541 10.684 13.1541 10.798 13.6101L11.254 18.7781C11.254 18.7781 11.14 19.5001 9.99998 19.5001Z" fill="white"/>
</g>
</g>
<defs>
<clipPath id="clip0_515_1294">
<rect width="20" height="20" fill="white"/>
</clipPath>
<clipPath id="clip1_515_1294">
<rect width="19" height="19" fill="white" transform="translate(0.5 0.500122)"/>
</clipPath>
</defs>
</svg>
