<svg width="18" height="18" viewBox="0 0 18 18" fill="none" xmlns="http://www.w3.org/2000/svg">
<g clip-path="url(#clip0_515_1277)">
<g clip-path="url(#clip1_515_1277)">
<path d="M15.5785 14.8259C15.6788 14.7856 15.7658 14.7758 15.8395 14.7964C15.9132 14.8169 15.9501 14.8756 15.9501 14.9725C15.9501 15.0693 15.8999 15.1816 15.7996 15.3093C15.7122 15.4165 15.5648 15.5622 15.3574 15.7464C15.15 15.9307 14.8303 16.1583 14.3983 16.4291C13.9663 16.6999 13.4941 16.9476 12.9816 17.1722C12.469 17.3967 11.8395 17.5909 11.093 17.7546C10.3465 17.9183 9.57809 18.0001 8.78786 18.0001C7.99078 18.0001 7.19412 17.8964 6.39789 17.689C5.60166 17.4816 4.90186 17.2253 4.29847 16.9202C3.69509 16.6151 3.11741 16.2667 2.56545 15.875C2.01349 15.4833 1.56995 15.1319 1.23483 14.8208C0.899715 14.5097 0.618592 14.2165 0.391465 13.9414C0.338326 13.8814 0.3049 13.8261 0.291187 13.7756C0.277474 13.725 0.280902 13.6847 0.301472 13.6547C0.322042 13.6247 0.348611 13.6012 0.381181 13.584C0.41375 13.5669 0.452318 13.56 0.496886 13.5634C0.541455 13.5669 0.580023 13.5819 0.612592 13.6084C1.89821 14.3918 2.90271 14.9476 3.62609 15.2759C6.23076 16.4544 8.90571 16.7556 11.6509 16.1797C12.9229 15.9123 14.232 15.4602 15.5785 14.8233V14.8259ZM17.6574 13.6714C17.7311 13.7786 17.7396 14.0113 17.6831 14.3695C17.6265 14.7278 17.5309 15.071 17.3964 15.3993C17.1684 15.9547 16.8839 16.37 16.5427 16.6451C16.4287 16.7385 16.3417 16.7685 16.2818 16.7351C16.2218 16.7016 16.2218 16.6215 16.2818 16.4947C16.4223 16.193 16.5714 15.7863 16.7292 15.2746C16.8869 14.7629 16.9087 14.433 16.7947 14.2847C16.7613 14.2375 16.7094 14.199 16.6392 14.169C16.5689 14.139 16.4785 14.1188 16.3679 14.1085C16.2573 14.0983 16.1588 14.0897 16.0722 14.0828C15.9856 14.076 15.8686 14.076 15.7212 14.0828C15.5738 14.0897 15.4684 14.0965 15.405 14.1034C15.3415 14.1103 15.2378 14.1201 15.0938 14.133C14.9498 14.1458 14.8744 14.1527 14.8676 14.1535C14.8273 14.1604 14.7836 14.1655 14.7364 14.169C14.6893 14.1724 14.6524 14.1758 14.6259 14.1793C14.5993 14.1827 14.571 14.1861 14.541 14.1895C14.511 14.193 14.4875 14.1947 14.4703 14.1947H14.37C14.37 14.1947 14.3602 14.193 14.3405 14.1895C14.3208 14.1861 14.3139 14.181 14.3199 14.1741L14.3045 14.1445C14.2642 14.0374 14.4215 13.9037 14.7763 13.7434C15.1311 13.5832 15.4761 13.4829 15.8112 13.4426C16.1189 13.3955 16.4806 13.392 16.8963 13.4323C17.312 13.4726 17.5665 13.5527 17.6599 13.6727L17.6574 13.6714ZM13.7002 9.2219C13.7002 9.42931 13.7452 9.64358 13.8352 9.86471C13.9252 10.0858 14.0323 10.28 14.1566 10.4471C14.2809 10.6142 14.4065 10.7681 14.5333 10.9086C14.6602 11.0492 14.7707 11.1563 14.865 11.23L14.9961 11.3406L12.7167 13.5904C12.4493 13.3427 12.1849 13.0899 11.9235 12.8319C11.6621 12.5739 11.468 12.3781 11.3411 12.2444L11.1508 12.0438C11.0771 11.9701 10.9936 11.8596 10.9001 11.7121C10.6456 12.1073 10.319 12.4505 9.9205 12.7419C9.52195 13.0333 9.09513 13.2459 8.64002 13.3796C8.18491 13.5133 7.71608 13.5904 7.23355 13.611C6.75101 13.6316 6.29076 13.5613 5.85279 13.4002C5.41482 13.239 5.02142 13.0196 4.67259 12.7419C4.32375 12.4642 4.04606 12.0858 3.8395 11.6067C3.63295 11.1276 3.52924 10.5834 3.52838 9.97398C3.52838 9.41174 3.62223 8.8962 3.80993 8.42738C3.99764 7.95856 4.2389 7.56858 4.53374 7.25746C4.82858 6.94634 5.18512 6.66865 5.60338 6.42438C6.02163 6.18011 6.43175 5.98941 6.83372 5.85228C7.23569 5.71515 7.67109 5.59944 8.13991 5.50516C8.60873 5.41088 9.00899 5.34874 9.34068 5.31875C9.67237 5.28875 10.0053 5.26689 10.3396 5.25318V3.97784C10.3396 3.54245 10.2693 3.21761 10.1288 3.00334C9.90078 2.64851 9.49581 2.47109 8.91385 2.47109C8.87357 2.47109 8.81829 2.47452 8.74801 2.48138C8.67773 2.48824 8.54231 2.52852 8.34175 2.60223C8.14119 2.67594 7.95349 2.7745 7.77865 2.89792C7.60381 3.02134 7.4161 3.22061 7.21555 3.49573C7.01499 3.77086 6.85429 4.09226 6.73344 4.45995L3.78036 4.18868C3.78036 3.78671 3.85407 3.38817 4.00149 2.99306C4.14891 2.59794 4.37304 2.21954 4.67387 1.85785C4.97471 1.49616 5.3364 1.17819 5.75894 0.903921C6.18148 0.629655 6.68887 0.410242 7.28111 0.245683C7.87336 0.0811229 8.51103 -0.000728331 9.19412 0.000128731C9.8635 0.000128731 10.4695 0.0836942 11.012 0.250825C11.5545 0.417956 11.9882 0.623655 12.313 0.867924C12.6379 1.11219 12.9091 1.38989 13.1268 1.70101C13.3445 2.01213 13.4954 2.30011 13.5794 2.56494C13.6634 2.82978 13.7054 3.07576 13.7054 3.30289V9.21932L13.7002 9.2219ZM6.95071 9.43274C6.95071 10.0087 7.18512 10.4539 7.65394 10.7685C8.0962 11.0633 8.56159 11.137 9.05013 10.9896C9.61237 10.8225 9.9942 10.4107 10.1956 9.75414C10.289 9.45245 10.3358 9.11433 10.3358 8.73979V7.11219C9.94064 7.1259 9.56909 7.16619 9.22112 7.23304C8.87314 7.29989 8.5166 7.41217 8.15148 7.56987C7.78636 7.72757 7.49496 7.96541 7.27726 8.28339C7.05956 8.60137 6.95071 8.98491 6.95071 9.43402V9.43274Z" fill="white"/>
</g>
</g>
<defs>
<clipPath id="clip0_515_1277">
<rect width="18" height="18.0001" fill="white"/>
</clipPath>
<clipPath id="clip1_515_1277">
<rect width="18" height="18" fill="white"/>
</clipPath>
</defs>
</svg>
