<svg width="20" height="14" viewBox="0 0 20 14" fill="none" xmlns="http://www.w3.org/2000/svg">
<g clip-path="url(#clip0_515_915)">
<path d="M3.28114 13.0393L0.0788574 0.782288H3.30663L4.96298 8.88569H5.03093L7.01856 0.782288H9.62626L11.6139 8.88569H11.6903L13.3382 0.782288H16.5575L13.3552 13.0393H10.3058L8.35214 5.66641H8.28419L6.33903 13.0393H3.28114Z" fill="white"/>
<path d="M18.3073 13.2177C17.8542 13.2177 17.472 13.062 17.1606 12.7505C16.8548 12.4391 16.7019 12.0597 16.7019 11.6123C16.7019 11.1593 16.8548 10.7799 17.1606 10.4741C17.472 10.1626 17.8542 10.0069 18.3073 10.0069C18.7659 10.0069 19.1482 10.1626 19.454 10.4741C19.7654 10.7799 19.9211 11.1593 19.9211 11.6123C19.9211 12.0597 19.7654 12.4391 19.454 12.7505C19.1482 13.062 18.7659 13.2177 18.3073 13.2177Z" fill="white"/>
</g>
<defs>
<clipPath id="clip0_515_915">
<rect width="20" height="14" fill="white"/>
</clipPath>
</defs>
</svg>
