<svg width="16" height="18" viewBox="0 0 16 18" fill="none" xmlns="http://www.w3.org/2000/svg">
<g clip-path="url(#clip0_515_1108)">
<path d="M9.59777 3.38753C9.52676 2.75419 9.00601 2.43752 8.03551 2.43752C6.994 2.43752 6.18919 3.21252 5.62109 4.76253C5.17135 6.12919 4.94648 7.80419 4.94648 9.78753C4.94648 11.4709 5.39622 12.8375 6.29571 13.8875C7.07684 14.7375 7.97633 15.1625 8.99417 15.1625C10.5801 15.1625 12.0714 14.1709 13.4679 12.1875C13.7046 11.7042 14.0124 11.4625 14.3911 11.4625C14.8882 11.4625 15.1367 11.6959 15.1367 12.1625C15.1367 12.7292 14.9 13.4209 14.4266 14.2375C13.9058 15.0042 13.3614 15.6209 12.7933 16.0875C11.3021 17.1375 9.72796 17.6625 8.07101 17.6625C6.10634 17.6625 4.44939 16.9625 3.10016 15.5625C1.60891 14.0459 0.863281 12.0959 0.863281 9.71253C0.863281 7.07919 1.38404 4.96253 2.42555 3.36253C3.9168 1.34586 5.95248 0.337524 8.53259 0.337524C10.1895 0.337524 11.5624 0.820858 12.6513 1.78753C13.5508 2.62086 14.0005 3.44586 14.0005 4.26252C14.0005 4.86252 13.7757 5.30419 13.3259 5.58753C12.8762 5.88753 12.2607 6.03752 11.4796 6.03752C10.1777 6.03752 9.52676 5.52086 9.52676 4.48752C9.52676 4.10419 9.55043 3.73752 9.59777 3.38753Z" fill="white"/>
</g>
<defs>
<clipPath id="clip0_515_1108">
<rect width="16" height="18" fill="white"/>
</clipPath>
</defs>
</svg>
