<svg width="22" height="22" viewBox="0 0 22 22" fill="none" xmlns="http://www.w3.org/2000/svg">
<g clip-path="url(#clip0_515_725)">
<g clip-path="url(#clip1_515_725)">
<path d="M16.5961 9.30763C16.6499 9.31659 17.071 9.22252 17.0889 9.25387C17.1158 9.29419 17.3039 10.647 17.2546 10.656C17.2054 10.6649 16.856 10.7456 16.856 10.7456C16.8291 10.5619 16.6006 9.4241 16.5961 9.30763ZM17.2681 9.17772L17.4517 10.6336C17.5458 10.6291 17.9266 10.6022 17.9624 10.5977C17.9086 10.0468 17.8146 9.17772 17.8146 9.17772C17.6354 9.14188 17.4473 9.14188 17.2681 9.17772ZM16.9052 11.198C16.9052 11.198 17.7339 10.9875 18.0341 11.0905C18.1864 11.6415 18.4641 14.7323 18.491 14.8578C18.3028 14.8802 17.6847 14.9339 17.6354 14.9474C17.5951 14.7144 16.9052 11.3458 16.9052 11.198ZM19.9737 9.34346C20.023 9.3569 20.462 9.29867 20.4665 9.33003C20.4754 9.43753 20.5202 10.7366 20.4709 10.7411C20.4217 10.7456 20.0723 10.7769 20.0723 10.7769C20.0633 10.5977 19.9648 9.46441 19.9737 9.34346ZM20.6501 9.30763L20.686 10.7456C20.78 10.7456 21.1563 10.768 21.1966 10.7635C21.1877 10.2125 21.1966 9.34346 21.1966 9.34346C21.0174 9.31211 20.8338 9.29867 20.6501 9.30763ZM20.0723 11.2383C20.0723 11.2383 20.9189 11.1263 21.2056 11.2607C21.2683 11.9058 21.2593 14.9115 21.2683 15.037C21.0757 15.037 20.462 15.0459 20.4127 15.0549C20.4037 14.8219 20.0588 11.3861 20.0723 11.2383ZM18.1057 7.54269C18.594 10.0333 18.9658 14.2889 18.9793 14.5621C18.9793 14.5621 19.3645 14.5711 19.799 14.598C19.5437 11.9147 19.2301 7.6278 19.2346 7.48893C19.1271 7.36799 18.1057 7.54269 18.1057 7.54269ZM17.0307 13.4333C16.9366 12.7345 14.437 11.9416 13.0304 12.1969C13.0304 12.1969 12.8557 10.656 12.7885 9.16428C12.7303 7.88313 12.7796 6.63782 12.793 6.43176C12.6989 6.36457 11.6866 6.84836 11.1401 7.04994C11.1401 7.04994 11.7941 9.8183 12.2689 15.5611C12.2689 15.5611 13.0259 15.6417 14.325 15.3908C15.6241 15.14 17.1606 14.3561 17.0307 13.4333ZM13.9756 14.692L13.7561 13.1108C13.8099 13.0839 15.1582 13.5856 15.3016 13.6752C15.2792 13.7737 13.9756 14.692 13.9756 14.692ZM6.18569 9.30763C6.23945 9.31659 6.66052 9.22252 6.67844 9.25387C6.70532 9.29419 6.89346 10.647 6.84418 10.656C6.79491 10.6649 6.44551 10.7456 6.44551 10.7456C6.41863 10.5619 6.19017 9.4241 6.18569 9.30763ZM6.85762 9.17772L7.04128 10.6336C7.13535 10.6291 7.51612 10.6022 7.55195 10.5977C7.49372 10.0468 7.40413 9.17772 7.40413 9.17772C7.22495 9.14188 7.0368 9.14188 6.85762 9.17772ZM6.49478 11.198C6.49478 11.198 7.32349 10.9875 7.62362 11.0905C7.77593 11.6415 8.05366 14.7323 8.08054 14.8578C7.8924 14.8802 7.27422 14.9339 7.22495 14.9474C7.18463 14.7144 6.49478 11.3458 6.49478 11.198ZM9.56326 9.34346C9.61254 9.3569 10.0515 9.29867 10.056 9.33003C10.065 9.43753 10.1098 10.7366 10.0605 10.7411C10.0112 10.7456 9.66181 10.7769 9.66181 10.7769C9.65285 10.5977 9.55878 9.46441 9.56326 9.34346ZM10.2397 9.30763L10.2755 10.7456C10.3696 10.7456 10.7459 10.768 10.7862 10.7635C10.7772 10.2125 10.7862 9.34346 10.7862 9.34346C10.607 9.31211 10.4233 9.30315 10.2397 9.30763ZM9.66181 11.2383C9.66181 11.2383 10.5084 11.1263 10.7951 11.2607C10.8579 11.9058 10.8489 14.9115 10.8579 15.037C10.6652 15.037 10.0515 15.0459 10.0023 15.0549C9.99778 14.8219 9.64838 11.3861 9.66181 11.2383ZM7.6953 7.54269C8.18357 10.0333 8.55537 14.2889 8.56881 14.5621C8.56881 14.5621 8.95405 14.5711 9.38856 14.598C9.13323 11.9147 8.81966 7.6278 8.82414 7.48446C8.71663 7.36799 7.6953 7.54269 7.6953 7.54269ZM6.62021 13.4333C6.52614 12.7345 4.02655 11.9416 2.61998 12.1969C2.61998 12.1969 2.44528 10.656 2.37808 9.16428C2.31985 7.88313 2.36913 6.63782 2.38256 6.43176C2.28849 6.36905 1.27612 6.84836 0.729614 7.04994C0.729614 7.04994 1.38363 9.8183 1.85846 15.5611C1.85846 15.5611 2.6155 15.6417 3.91457 15.3908C5.21363 15.14 6.75011 14.3561 6.62021 13.4333ZM3.56516 14.692L3.34566 13.1108C3.39942 13.0839 4.74776 13.5856 4.89111 13.6752C4.86871 13.7737 3.56516 14.692 3.56516 14.692Z" fill="white"/>
</g>
</g>
<defs>
<clipPath id="clip0_515_725">
<rect width="22" height="22" fill="white"/>
</clipPath>
<clipPath id="clip1_515_725">
<rect width="20.5408" height="20.5408" fill="white" transform="translate(0.729614 0.729553)"/>
</clipPath>
</defs>
</svg>
