<svg width="19" height="17" viewBox="0 0 19 17" fill="none" xmlns="http://www.w3.org/2000/svg">
<g clip-path="url(#clip0_515_1129)">
<path d="M10.5635 0.747803V2.58851C10.5635 2.58851 12.0649 2.10349 12.0164 3.79856L12.0649 8.30376L9.93486 9.51321L9.98334 6.55942C9.99877 5.60721 8.0613 5.60601 8.07712 6.55942L8.1256 9.51321L5.9938 8.2068L6.04229 3.79936C5.9938 2.10429 7.49494 2.58931 7.49494 2.58931V0.747803H10.5635ZM0.0289307 13.6448L1.62322 12.7246C1.62322 12.7246 0.452646 11.6668 1.94497 10.8615L5.82191 8.56681L7.93508 9.8077L5.35232 11.2427C4.52012 11.7053 5.48815 13.3837 6.30553 12.8935L8.83961 11.3748L8.7729 13.8734L4.93181 16.0354C3.48797 16.9245 3.15741 15.3823 3.15741 15.3823L1.56312 16.3025L0.0289307 13.6448ZM16.4955 16.2782L14.9012 15.3583C14.9012 15.3583 14.5707 16.9009 13.1269 16.0108L9.20022 13.8004L9.21825 11.3507L11.7523 12.8695C12.5687 13.3591 13.5385 11.6813 12.7055 11.2187L10.1236 9.78306L12.3205 8.59085L16.1141 10.8374C17.6062 11.6428 16.4346 12.7006 16.4346 12.7006L18.0289 13.6221L16.4955 16.2782Z" fill="white"/>
</g>
<defs>
<clipPath id="clip0_515_1129">
<rect width="19" height="17" fill="white"/>
</clipPath>
</defs>
</svg>
