<svg width="18" height="14" viewBox="0 0 18 14" fill="none" xmlns="http://www.w3.org/2000/svg">
<g clip-path="url(#clip0_515_685)">
<path d="M17.6554 1.16971C17.6617 0.349147 17.3084 0.0518644 16.5266 0.0536426C11.4621 0.0650123 6.39748 0.0674373 1.33295 0.0530501C0.555881 0.0508408 0.339048 0.396727 0.345299 1.12827C0.372403 4.30806 0.380378 7.48851 0.342012 10.6681C0.331558 11.536 0.702663 11.7194 1.47225 11.7039C3.35498 11.6659 5.24354 11.7726 7.12121 11.6677C8.78501 11.5748 10.2508 11.8315 11.4889 13.0365C11.8469 13.385 12.3497 13.5848 12.9395 13.947C12.8514 13.1179 12.7859 12.5025 12.6996 11.6912C14.081 11.6912 15.3313 11.6709 16.5805 11.6991C17.2907 11.7151 17.6654 11.5173 17.6582 10.7127C17.63 7.53189 17.631 4.35058 17.6554 1.16971ZM6.10564 10.3845C5.25351 10.3845 4.39992 10.3845 3.44411 10.3845C3.44411 7.39399 3.44411 4.40926 3.44411 1.29871C4.35584 1.29871 5.17882 1.29871 6.10564 1.29871C6.10564 4.33382 6.10564 7.31365 6.10564 10.3845ZM14.6134 3.90943C13.9722 3.95614 13.4028 3.99769 12.6226 4.05454C12.6226 6.17695 12.6226 8.27453 12.6226 10.4153C11.5457 10.4153 10.684 10.4153 9.68839 10.4153C9.68839 8.29317 9.68839 6.22593 9.68839 4.06666C8.96143 4.01111 8.35894 3.96503 7.69433 3.91422C7.69433 3.04414 7.69433 2.2259 7.69433 1.32969C10.0006 1.32969 12.2726 1.32969 14.6134 1.32969C14.6134 2.23274 14.6134 3.04301 14.6134 3.90943Z" fill="white"/>
</g>
<defs>
<clipPath id="clip0_515_685">
<rect width="18" height="14" fill="white"/>
</clipPath>
</defs>
</svg>
