<svg width="16" height="19" viewBox="0 0 16 19" fill="none" xmlns="http://www.w3.org/2000/svg">
<g clip-path="url(#clip0_515_1069)">
<path d="M13.6812 2.7978C13.4949 2.59788 13.3446 2.28803 12.9423 2.38045C13.9745 4.27652 14.0124 6.23387 13.3981 8.24474C12.809 10.1719 11.7258 11.8117 10.4591 13.3463C9.62394 14.3595 9.52714 15.3421 10.1653 16.4939C10.6868 17.4361 11.5025 18.1254 12.2423 18.9975C14.225 15.5868 15.7908 12.1546 15.7587 8.20096C15.7412 6.14632 15.1005 4.31689 13.6812 2.7978Z" fill="white"/>
<path d="M12.9015 6.5184C13.0566 5.87584 13.0795 5.2323 12.9063 4.58925C12.811 3.36201 12.2195 2.35999 11.4237 1.27576C11.4967 1.79234 11.5721 2.14888 11.593 2.50883C11.7112 4.53429 10.8035 6.13704 9.47075 7.55156C8.51202 8.56866 7.36893 9.34693 6.18741 10.0805C5.15085 10.7235 4.75782 11.69 5.01465 12.8803C5.18879 13.6819 5.60468 14.3965 5.86832 15.166C6.0016 15.5561 6.12661 15.541 6.4243 15.3177C8.37825 13.8507 10.141 12.1959 11.4729 10.1301C12.1845 9.02492 12.7804 7.86335 12.9015 6.5184Z" fill="white"/>
<path d="M10.0253 5.12824C10.8284 3.90295 11.056 2.59642 10.5428 0.997559C9.86622 2.50108 8.76107 3.34162 7.49881 4.02066C5.95491 4.85147 4.27968 5.2766 2.57429 5.6098C1.26144 5.86712 0.438903 6.81126 0.445227 8.16107C0.448145 8.84887 0.624716 9.53424 0.664116 10.2235C0.693301 10.7323 0.873277 10.7649 1.30668 10.6141C3.22998 9.94721 5.09054 9.15289 6.81685 8.06379C8.0616 7.27919 9.20517 6.37786 10.0253 5.12824Z" fill="white"/>
</g>
<defs>
<clipPath id="clip0_515_1069">
<rect width="16" height="19" fill="white"/>
</clipPath>
</defs>
</svg>
