<svg width="14" height="18" viewBox="0 0 14 18" fill="none" xmlns="http://www.w3.org/2000/svg">
<g clip-path="url(#clip0_515_1059)">
<path d="M4.1825 15.4957L4.80858 18H12.0086L12.3216 14.087L7.46945 17.0609L4.1825 15.4957ZM9.66076 7.66958H9.9738C9.81728 7.51306 9.81728 7.51306 9.66076 7.66958ZM10.9129 7.51306H11.0695C11.0695 7.66958 10.9129 7.66958 10.9129 7.51306ZM5.43467 9.2348C5.59119 9.07828 5.74771 8.92176 6.06076 8.76524C5.90423 9.07828 5.59119 9.07828 5.43467 9.2348Z" fill="white"/>
<path d="M13.1042 11.2695C12.7912 10.6434 12.4781 11.2695 12.0086 10.6434C11.539 10.1739 12.7912 9.39127 11.6955 7.98257C11.6955 7.98257 11.539 7.82605 11.3825 7.82605L3.24335 13.3043C3.24335 13.7739 3.39987 14.0869 3.71291 14.5565C4.49552 15.8087 7.46943 16.1217 9.66074 15.1826C11.852 13.9304 13.5738 12.0521 13.1042 11.2695ZM10.9129 12.5217C10.4433 12.5217 10.1303 12.2087 10.1303 11.7391C10.1303 11.2695 10.4433 10.9565 10.9129 10.9565C11.3825 10.9565 11.6955 11.2695 11.6955 11.7391C11.6955 12.2087 11.3825 12.5217 10.9129 12.5217ZM6.21726 8.76518C6.37378 8.60866 6.68683 8.45214 6.84335 8.45214C6.5303 8.60866 6.37378 8.76518 6.21726 8.76518Z" fill="white"/>
<path d="M0.739014 4.38261L3.55641 9.23478L0.739014 10.487L1.52162 12.3652L13.2608 6.88696L12.4781 5.32174L10.7564 6.26087L8.25206 0L0.739014 4.38261Z" fill="white"/>
</g>
<defs>
<clipPath id="clip0_515_1059">
<rect width="14" height="18" fill="white"/>
</clipPath>
</defs>
</svg>
