<svg width="26" height="26" viewBox="0 0 26 26" fill="none" xmlns="http://www.w3.org/2000/svg">
<g clip-path="url(#clip0_515_854)">
<path d="M20.4096 3.57489L2.32471 5.90841L4.75546 22.4376L23.8126 18.5484L20.4096 3.57489Z" fill="white"/>
<path d="M24.5734 20.0396C24.5112 21.0355 24.0359 21.7448 23.0917 21.9176C21.0946 22.2823 19.0975 22.6427 17.0973 22.9978C15.8769 23.216 14.6524 23.4099 13.433 23.6344C11.6257 23.9674 9.82252 24.3215 8.01621 24.6598C7.42938 24.7704 6.84012 24.8677 6.24889 24.9517C5.52172 25.0539 4.74503 24.5575 4.5058 23.8009C4.35194 23.314 4.26131 22.8039 4.16857 22.3002C3.9443 21.0925 3.73001 19.883 3.52572 18.6717C3.35394 17.6516 3.21483 16.6251 3.04305 15.605C2.83017 14.3362 2.592 13.0715 2.3749 11.8037C2.18205 10.674 2.00605 9.54217 1.81636 8.41138C1.70413 7.72851 1.58398 7.04697 1.45594 6.36689C1.2262 5.15917 1.89013 4.27182 3.10628 4.08634C4.30768 3.90297 5.49749 3.65321 6.69361 3.43716C7.98354 3.20532 9.27662 2.98401 10.5665 2.74689C11.8912 2.50239 13.2128 2.23893 14.5385 1.99338C15.1824 1.87429 15.8327 1.77945 16.4776 1.66774C17.4788 1.4949 18.4884 1.36528 19.4727 1.12711C20.4707 0.886827 21.3907 1.64982 21.553 2.52242C21.8228 3.97779 22.0452 5.4416 22.3002 6.89909C22.5184 8.15318 22.7607 9.402 22.9768 10.655C23.2118 12.0208 23.4226 13.3898 23.6544 14.7556C23.8905 16.1456 24.1371 17.5325 24.3795 18.9215C24.4469 19.3178 24.5165 19.7161 24.5734 20.0386V20.0396ZM20.0945 8.99416C20.0787 7.89499 19.8647 7.68632 18.7919 7.81278C18.1427 7.88866 17.4978 8.01618 16.8528 8.1321C16.4207 8.21114 15.9939 8.31231 15.5639 8.39873C15.0159 8.50833 14.8937 8.69592 15.0317 9.22074C15.0834 9.41676 15.1435 9.61172 15.1761 9.8109C15.2657 10.3505 15.1255 10.6371 14.6566 10.9196C13.6775 11.5097 12.3929 11.4096 11.4644 10.6919C10.7099 10.1081 10.2525 9.32929 9.88891 8.46934C9.51901 7.59253 9.36409 7.53351 8.41773 7.69897C7.26902 7.8992 6.11715 8.0889 4.96529 8.26805C4.24655 8.37976 3.9852 8.84767 4.22021 9.53268C4.54585 10.4833 5.19292 11.1641 6.03074 11.6256C6.91492 12.1104 7.87183 12.4624 8.78658 12.8955C9.04056 13.0157 9.25554 13.218 9.48739 13.3835C9.26714 13.5416 9.06901 13.7681 8.82346 13.8461C7.78963 14.1728 6.80849 14.6017 5.93905 15.253C5.06856 15.9043 4.48367 16.7295 4.48367 17.8708C4.48367 18.4789 4.61435 18.5916 5.21716 18.4905C6.32371 18.305 7.42605 18.1111 8.53049 17.9224C9.11854 17.8223 9.30086 17.6295 9.36093 17.0393C9.37358 16.9086 9.36198 16.7748 9.38517 16.6462C9.58013 15.527 10.1798 14.7008 11.358 14.549C13.6944 14.2487 15.7062 15.4543 16.4302 17.66C16.641 18.3018 17.0098 18.4884 17.6801 18.3429C19.0427 18.0479 20.4043 17.7486 21.7712 17.4714C22.0346 17.4187 22.0979 17.2965 22.1063 17.0614C22.1326 16.3206 21.7933 15.7209 21.3602 15.1698C20.4918 14.0664 19.303 13.414 18.0437 12.8671C17.64 12.6921 17.2322 12.5277 16.8496 12.3138C16.6178 12.1831 16.6536 11.9955 16.9097 11.9165C17.2501 11.8101 17.6053 11.7521 17.9478 11.652C19.1176 11.3105 20.1503 10.3568 20.0934 8.99416H20.0945Z" fill="#FE2139"/>
</g>
<defs>
<clipPath id="clip0_515_854">
<rect width="26" height="26" fill="white"/>
</clipPath>
</defs>
</svg>
