<svg width="18" height="18" viewBox="0 0 18 18" fill="none" xmlns="http://www.w3.org/2000/svg">
<g clip-path="url(#clip0_515_1175)">
<path d="M17.998 15.8783C17.998 16.1664 17.879 16.4546 17.641 16.7428C17.4029 17.0309 17.121 17.175 16.7953 17.175C16.6199 17.175 16.3944 17.1311 16.1187 17.0434C15.8431 16.9683 15.5675 16.8743 15.2918 16.7615C15.0287 16.6613 14.822 16.5674 14.6717 16.4797C13.6694 15.8783 12.7798 15.1516 12.0031 14.2997C11.2388 13.4477 10.5748 12.5143 10.011 11.4995C9.44721 10.4847 8.97112 9.43854 8.58274 8.36107C8.3071 9.40095 7.94377 10.3531 7.49274 11.2176C7.05424 12.0821 6.46539 12.9215 5.7262 13.7359C4.53597 15.0389 3.10144 16.0098 1.4226 16.6488C1.25973 16.7114 1.06553 16.7741 0.840015 16.8367C0.614499 16.8994 0.451626 16.9307 0.351397 16.9307C0.301282 16.9307 0.232374 16.9182 0.144674 16.8931C0.0569729 16.868 0.0131226 16.8179 0.0131226 16.7428C0.0131226 16.6801 0.0256512 16.6237 0.0507086 16.5736C0.0882946 16.536 0.125881 16.4984 0.163467 16.4609C0.188524 16.4358 0.213581 16.417 0.238639 16.4045C0.263696 16.3919 0.288753 16.3794 0.313811 16.3669C0.338868 16.3418 0.363925 16.323 0.388983 16.3105C0.41404 16.3105 0.432833 16.3042 0.445362 16.2917C1.71076 15.4523 2.74437 14.4312 3.54621 13.2285C4.36057 12.0132 5.01833 10.6977 5.51947 9.28193C5.7074 8.75572 5.87028 8.12929 6.00809 7.40263C6.14591 6.67596 6.25867 5.91798 6.34637 5.12867C6.4466 4.32684 6.5155 3.55632 6.55309 2.81713C6.6032 2.06541 6.62826 1.40139 6.62826 0.825073L9.86066 1.0318C9.81054 1.79605 9.73537 2.54777 9.63514 3.28696C9.53491 4.02615 9.42216 4.76534 9.29687 5.50453L10.8755 5.09109C11.0133 5.90545 11.2075 6.79499 11.4581 7.75969C11.7086 8.71187 12.0219 9.68285 12.3977 10.6726C12.7861 11.6498 13.2434 12.577 13.7696 13.454C14.3083 14.331 14.9285 15.089 15.6301 15.7279C15.7554 15.54 15.912 15.3333 16.0999 15.1078C16.2879 14.8822 16.5134 14.7695 16.7765 14.7695C17.0646 14.7695 17.3403 14.8822 17.6034 15.1078C17.8665 15.3333 17.998 15.5901 17.998 15.8783Z" fill="white"/>
</g>
<defs>
<clipPath id="clip0_515_1175">
<rect width="18" height="18" fill="white"/>
</clipPath>
</defs>
</svg>
