<svg width="24" height="24" viewBox="0 0 24 24" fill="none" xmlns="http://www.w3.org/2000/svg">
<g clip-path="url(#clip0_515_696)">
<path d="M17.2427 6.24854C17.7893 7.61501 17.4407 8.63388 17.3414 8.88233C17.9743 9.57789 18.3598 10.4593 18.3599 11.5523C18.3599 15.3664 16.0379 16.212 13.8267 16.4605C14.1863 16.7706 14.4976 17.3665 14.4976 18.2983C14.4976 19.627 14.4849 20.6958 14.4849 21.0317C14.4849 21.0774 14.4922 21.1241 14.5044 21.1704C13.7043 21.3547 12.8647 21.4526 11.9996 21.4526C11.1424 21.4526 10.3106 21.3573 9.51714 21.1763C9.53072 21.128 9.54055 21.0792 9.54058 21.0308C9.54058 20.7952 9.52788 20.0129 9.52788 19.1802C7.03147 19.6403 6.38484 18.5717 6.18608 18.0122C6.07362 17.7258 5.58978 16.8444 5.16753 16.6079C4.81971 16.422 4.32319 15.9626 5.15483 15.9507C5.9379 15.9378 6.49633 16.6711 6.68315 16.9692C7.57743 18.4713 9.00612 18.049 9.57671 17.7886C9.66418 17.1427 9.92529 16.7089 10.2115 16.4605C8.00028 16.212 5.68901 15.3535 5.68901 11.5523C5.68912 10.4713 6.07373 9.57787 6.70757 8.88135C6.60808 8.63256 6.26074 7.61367 6.80718 6.24756C6.80718 6.24756 7.63946 5.98711 9.54058 7.26709C10.3495 7.04261 11.1855 6.92951 12.025 6.93116C12.8696 6.93117 13.7144 7.04254 14.5093 7.26612C16.4093 5.97431 17.2427 6.24854 17.2427 6.24854Z" fill="white"/>
</g>
<defs>
<clipPath id="clip0_515_696">
<rect width="24" height="24" fill="white"/>
</clipPath>
</defs>
</svg>
