<svg width="18" height="18" viewBox="0 0 18 18" fill="none" xmlns="http://www.w3.org/2000/svg">
<g clip-path="url(#clip0_515_763)">
<g clip-path="url(#clip1_515_763)">
<circle cx="9.00012" cy="9" r="12.8466" fill="white"/>
<path d="M11.2747 12.033H6.97803V16.5824H3.94507V1.4176H11.2747C11.9717 1.4176 12.6619 1.55489 13.3059 1.82163C13.9498 2.08836 14.535 2.47932 15.0278 2.97219C15.5207 3.46505 15.9116 4.05016 16.1784 4.69412C16.4451 5.33808 16.5824 6.02827 16.5824 6.72528C16.5824 7.4223 16.4451 8.11248 16.1784 8.75644C15.9116 9.4004 15.5207 9.98551 15.0278 10.4784C14.535 10.9712 13.9498 11.3622 13.3059 11.6289C12.6619 11.8957 11.9717 12.033 11.2747 12.033ZM9 -6.16479C0.623978 -6.16479 -6.16479 0.623978 -6.16479 9C-6.16479 17.376 0.623978 24.1648 9 24.1648C17.3748 24.1648 24.1648 17.376 24.1648 9C24.1648 0.623978 17.3748 -6.16479 9 -6.16479ZM10.6049 3.94507H6.47253V9H10.6049C11.8118 9 12.7912 7.86769 12.7912 6.47253C12.7912 5.07737 11.8118 3.94507 10.6049 3.94507Z" fill="#DE5425"/>
</g>
</g>
<defs>
<clipPath id="clip0_515_763">
<rect width="18" height="18" fill="white"/>
</clipPath>
<clipPath id="clip1_515_763">
<rect width="18" height="18" fill="white"/>
</clipPath>
</defs>
</svg>
