<svg width="18" height="18" viewBox="0 0 18 18" fill="none" xmlns="http://www.w3.org/2000/svg">
<g clip-path="url(#clip0_515_1242)">
<path d="M5.86845 7.80236V6.87978H16.0346C16.0227 7.36473 15.9991 8.25774 15.9636 9.55881C15.9399 10.8481 15.8985 11.812 15.8394 12.4507C15.7803 13.0776 15.6975 13.669 15.591 14.2249C15.4846 14.7808 15.3485 15.2421 15.183 15.6088C14.9701 16.0583 14.6684 16.419 14.2781 16.6911C13.8996 16.9631 13.4561 17.0991 12.9475 17.0991C12.6518 17.0991 12.3265 16.9927 11.9717 16.7798C11.6168 16.5787 11.2797 16.3362 10.9604 16.0524C10.6529 15.7685 10.4045 15.5142 10.2152 15.2894C10.1679 15.2185 10.1443 15.1593 10.1443 15.112C10.1443 15.0411 10.1975 15.0056 10.3039 15.0056C10.3512 15.0056 10.4104 15.0174 10.4814 15.0411C10.7889 15.1593 11.0964 15.2421 11.4039 15.2894C11.7115 15.3368 12.0308 15.3604 12.362 15.3604C12.5749 15.3604 12.7464 15.2954 12.8765 15.1653C13.0066 15.0351 13.1131 14.8814 13.1959 14.704C13.2905 14.5147 13.3733 14.2072 13.4443 13.7814C13.5152 13.3556 13.5744 12.8943 13.6217 12.3975C13.669 11.8889 13.7045 11.055 13.7281 9.89591C13.7636 8.72494 13.7813 8.02709 13.7813 7.80236H5.86845ZM5.28297 3.02979C5.28297 4.03516 5.28297 5.04054 5.28297 6.04591C5.28297 7.03946 5.25932 8.03301 5.212 9.02655C5.16469 10.0556 5.0405 11.061 4.83942 12.0427C4.63835 13.0126 4.24211 13.9351 3.65071 14.8104C3.52061 15.0115 3.33727 15.2303 3.10072 15.4669C2.86416 15.7034 2.61577 15.9282 2.35556 16.1411C2.10717 16.354 1.87652 16.5255 1.66362 16.6556L1.52169 16.7443C1.46255 16.7798 1.39158 16.8093 1.30878 16.833C1.23781 16.8685 1.15502 16.8862 1.0604 16.8862C0.930288 16.8862 0.865234 16.8389 0.865234 16.7443C0.865234 16.7088 0.88889 16.6556 0.936202 16.5846C0.959858 16.561 0.9776 16.5373 0.989428 16.5136C1.01308 16.49 1.03083 16.4722 1.04265 16.4604C1.17276 16.3067 1.29695 16.147 1.41523 15.9814C1.53351 15.8276 1.63405 15.662 1.71685 15.4846C2.14265 14.6685 2.44426 13.8228 2.62168 12.9475C2.7991 12.0722 2.90555 11.1792 2.94104 10.2685C2.97652 9.35774 2.99426 8.45881 2.99426 7.57172C2.99426 6.66096 2.98835 5.75613 2.97652 4.8572C2.97652 3.94645 2.97652 3.02979 2.97652 2.10721H14.7039C14.7394 1.79968 14.8577 1.52172 15.0588 1.27334C15.2598 1.02495 15.5378 0.900757 15.8926 0.900757C16.2238 0.900757 16.5136 1.00721 16.762 1.22011C17.0104 1.42119 17.1346 1.6814 17.1346 2.00076C17.1346 2.30828 17.0104 2.55667 16.762 2.74592C16.5136 2.93516 16.2356 3.02979 15.9281 3.02979H5.28297ZM10.233 10.712C9.91361 11.5873 9.47006 12.4744 8.90232 13.3733C8.05071 14.7454 6.87383 15.7803 5.37168 16.4782C5.22974 16.5373 5.05824 16.6023 4.85717 16.6733C4.66792 16.7443 4.49641 16.7798 4.34265 16.7798C4.29534 16.7798 4.22437 16.7679 4.12975 16.7443C4.03512 16.7206 3.98781 16.6674 3.98781 16.5846C3.98781 16.5136 4.03512 16.4368 4.12975 16.354C4.2362 16.2712 4.34265 16.1943 4.4491 16.1233C4.55555 16.0524 4.62652 16.005 4.662 15.9814C4.7448 15.9104 4.82759 15.8454 4.91039 15.7862C4.99319 15.7271 5.07598 15.662 5.15878 15.5911C6.02222 14.7513 6.73189 13.7045 7.28781 12.4507C7.7491 11.4572 8.05071 10.6411 8.19264 10.0024C8.33458 9.36365 8.40555 8.55935 8.40555 7.58946C8.4292 6.15828 8.46469 5.00505 8.512 4.12979L10.9072 4.27172C10.8598 5.12333 10.8125 6.25882 10.7652 7.67817C10.7416 8.82548 10.5641 9.83677 10.233 10.712Z" fill="white"/>
</g>
<defs>
<clipPath id="clip0_515_1242">
<rect width="18" height="18" fill="white"/>
</clipPath>
</defs>
</svg>
