<svg width="18" height="16" viewBox="0 0 18 16" fill="none" xmlns="http://www.w3.org/2000/svg">
<g clip-path="url(#clip0_515_653)">
<path fill-rule="evenodd" clip-rule="evenodd" d="M11.4138 2.00862C12.5281 0.523432 15.3125 -0.77536 16.5193 2.38069C17.7261 5.53707 19.3041 11.4776 16.1482 13.8914C14.013 15.4696 11.0422 15.5633 8.99978 15.5633C6.9574 15.5633 3.98654 15.4696 1.85134 13.8914C-1.30454 11.4776 0.273443 5.53706 1.48025 2.38069C2.687 -0.775418 5.47149 0.523428 6.58572 2.00862C7.09252 2.68436 7.66353 3.15253 8.14138 3.45296C8.66971 3.78507 9.32882 3.78494 9.8572 3.45296C10.3351 3.15254 10.9069 2.68452 11.4138 2.00862ZM5.32693 5.65609C4.86549 5.65609 4.49002 6.03058 4.49002 6.49202V9.50862C4.49032 9.96982 4.86567 10.3446 5.32693 10.3446C5.78795 10.3443 6.16257 9.96964 6.16287 9.50862V6.49202C6.16287 6.03075 5.78814 5.65637 5.32693 5.65609ZM13.2644 6.13753C12.9382 5.8113 12.4091 5.81142 12.0828 6.13753L10.5691 7.6512L10.9549 8.22249L11.9812 9.74007C12.2398 10.1218 12.7593 10.2228 13.1414 9.96468C13.5232 9.70631 13.6238 9.18663 13.366 8.80452L12.7254 7.85726L13.2644 7.31917C13.5904 6.99303 13.5902 6.4638 13.2644 6.13753Z" fill="#232128"/>
</g>
<defs>
<clipPath id="clip0_515_653">
<rect width="18" height="16" fill="white"/>
</clipPath>
</defs>
</svg>
