<svg width="18" height="18" viewBox="0 0 18 18" fill="none" xmlns="http://www.w3.org/2000/svg">
<g clip-path="url(#clip0_515_1065)">
<g clip-path="url(#clip1_515_1065)">
<path d="M14.7746 4.32112L17.9306 2.76491C17.9306 3.19287 17.9338 3.58192 17.9306 3.97253C17.9275 4.25887 18.01 4.6028 17.8808 4.81755C17.7563 5.01986 17.4109 5.08989 17.1603 5.21439L9.55668 8.98508C9.63449 9.03021 9.69052 9.06911 9.75121 9.09868C12.4077 10.4183 15.0657 11.7349 17.7237 13.0499C17.8808 13.1277 17.9338 13.2117 17.9306 13.3845C17.9197 13.9774 17.9275 14.5703 17.9275 15.213L14.8182 13.6786C14.6502 13.9961 14.5132 14.3291 14.3125 14.6154C13.83 15.3048 13.1266 15.6192 12.3049 15.6223C9.05558 15.6348 5.80778 15.6348 2.55841 15.6254C1.29789 15.6254 0.273901 14.7788 0.0840435 13.5308C8.24779e-06 12.9643 0.0466945 12.3776 0.0778187 11.8034C0.0840435 11.6835 0.259895 11.5341 0.392173 11.4688C1.83945 10.7374 3.29139 10.02 4.74333 9.29943L5.35959 8.99286C3.72713 8.18052 2.12268 7.3744 0.508888 6.58696C0.186753 6.43134 0.0264638 6.23993 0.0544755 5.87111C0.0918245 5.34511 0.035801 4.80977 0.119836 4.29467C0.2988 3.1991 1.3399 2.37275 2.45259 2.37275C5.75175 2.37275 9.05091 2.37742 12.3485 2.36964C13.4877 2.36653 14.3872 3.15397 14.7062 4.11726L14.7731 4.32112H14.7746ZM7.43557 4.20752H2.68914C2.56673 4.20681 2.44478 4.22251 2.32654 4.25421C2.06198 4.32579 1.92037 4.5281 1.89236 4.81444C1.86746 5.07433 1.93593 5.22839 2.2036 5.35911C3.8345 6.14344 5.45607 6.94645 7.06519 7.76812C7.34531 7.91129 7.56007 7.91285 7.8433 7.76812C9.46487 6.94645 11.0989 6.14655 12.7251 5.33577C12.8076 5.29531 12.9212 5.23617 12.943 5.16459C13.0986 4.63392 12.7671 4.20441 12.2085 4.20441L7.43557 4.20908V4.20752ZM7.43557 13.7564H12.3096C12.7142 13.7564 12.9321 13.5385 12.9492 13.137C12.9598 13.0553 12.9588 12.9726 12.9461 12.8912C12.9259 12.8196 12.8839 12.7246 12.8232 12.6951C11.0802 11.8236 9.33726 10.9568 7.58963 10.0993C7.547 10.0815 7.50124 10.0723 7.45502 10.0723C7.4088 10.0723 7.36305 10.0815 7.32041 10.0993C5.55182 10.9687 3.78551 11.8428 2.02152 12.7215C1.97172 12.748 1.90481 12.804 1.90014 12.8523C1.84567 13.3471 2.04953 13.7704 2.61288 13.7642C4.21889 13.7455 5.82801 13.758 7.43713 13.758V13.7564H7.43557Z" fill="white"/>
</g>
</g>
<defs>
<clipPath id="clip0_515_1065">
<rect width="18.0001" height="18" fill="white"/>
</clipPath>
<clipPath id="clip1_515_1065">
<rect width="18" height="18" fill="white"/>
</clipPath>
</defs>
</svg>
