<svg width="20" height="16" viewBox="0 0 20 16" fill="none" xmlns="http://www.w3.org/2000/svg">
<g clip-path="url(#clip0_515_1189)">
<path d="M19.775 1.0236C19.775 1.25016 19.6951 1.37676 19.5352 1.40341C19.3886 1.43006 19.2286 1.44339 19.0554 1.44339C18.8955 1.44339 18.7422 1.47671 18.5956 1.54334C18.4624 1.60997 18.3624 1.71658 18.2958 1.86317C18.2158 2.02309 18.1492 2.203 18.0959 2.4029C18.0559 2.6028 18.0159 2.79603 17.976 2.9826C17.7361 4.10203 17.4496 5.36138 17.1164 6.76067C16.7966 8.15995 16.4634 9.59922 16.1169 11.0785C15.7704 12.5577 15.4373 13.9836 15.1174 15.3563H12.6987C12.2722 13.7304 11.8191 12.1113 11.3394 10.4988C10.8596 8.88625 10.3865 7.27374 9.92008 5.66123C9.46698 7.27374 8.99388 8.89291 8.5008 10.5187C8.02105 12.1446 7.53463 13.7571 7.04155 15.3563H4.76272C4.48286 13.9037 4.18967 12.4511 3.88317 10.9985C3.57666 9.54591 3.26348 8.09332 2.94365 6.64073L2.30397 3.74221C2.25067 3.47568 2.19736 3.20915 2.14406 2.94262C2.10408 2.66277 2.04411 2.39624 1.96415 2.14303C1.91084 1.92981 1.83755 1.76989 1.74426 1.66328C1.6643 1.54334 1.50438 1.48337 1.2645 1.48337C1.17122 1.48337 1.07127 1.49003 0.964658 1.50336C0.858046 1.50336 0.758097 1.50336 0.664812 1.50336C0.531547 1.50336 0.424934 1.45672 0.344975 1.36343C0.265016 1.25682 0.225037 1.13688 0.225037 1.00361C0.225037 0.897003 0.278343 0.81038 0.384955 0.743748C0.504893 0.677115 0.611506 0.643799 0.704791 0.643799C1.10459 0.643799 1.50438 0.657125 1.90418 0.683778C2.3173 0.710431 2.72376 0.723758 3.12355 0.723758C3.58998 0.723758 4.06307 0.710431 4.54283 0.683778C5.02258 0.657125 5.49567 0.643799 5.9621 0.643799C6.05539 0.643799 6.14867 0.683778 6.24196 0.763737C6.33524 0.843696 6.38189 0.930318 6.38189 1.0236C6.38189 1.30346 6.24196 1.44339 5.9621 1.44339C5.86882 1.44339 5.77553 1.44339 5.68225 1.44339C5.60229 1.43006 5.51566 1.4234 5.42238 1.4234C5.23581 1.4234 5.10921 1.45672 5.04257 1.52335C4.97594 1.58998 4.94262 1.71658 4.94262 1.90315C4.94262 1.96979 4.94262 2.04308 4.94262 2.12304C4.95595 2.18967 4.96928 2.25631 4.9826 2.32294C5.24913 4.00208 5.54232 5.68122 5.86215 7.36036C6.19532 9.0395 6.50849 10.7186 6.80167 12.3978C7.14816 11.1451 7.50798 9.89906 7.88112 8.6597C8.25426 7.42033 8.60742 6.1743 8.94058 4.92161C9.04719 4.52181 9.1538 4.12202 9.26041 3.72222C9.36703 3.3091 9.46698 2.89598 9.56026 2.48286C9.61357 2.29629 9.66021 2.10305 9.70019 1.90315C9.74017 1.68993 9.78681 1.4967 9.84012 1.32345C9.90675 1.13688 9.98671 1.01028 10.08 0.943645C10.1866 0.863686 10.3465 0.823707 10.5597 0.823707C10.733 0.823707 10.8863 0.837033 11.0195 0.863686C11.1661 0.890339 11.2794 0.990289 11.3593 1.16353C11.426 1.31012 11.4793 1.47671 11.5193 1.66328C11.5592 1.84985 11.5992 2.02309 11.6392 2.18301C11.7458 2.60946 11.8657 3.04257 11.999 3.48235C12.1323 3.92212 12.2589 4.35523 12.3788 4.78168C12.752 6.06103 13.1184 7.34037 13.4783 8.61972C13.8514 9.89906 14.2245 11.1784 14.5977 12.4578C14.8109 11.6715 15.0108 10.8186 15.1974 9.89906C15.3973 8.97953 15.5838 8.04002 15.7571 7.08051C15.8904 6.36087 16.0236 5.64124 16.1569 4.92161C16.2902 4.20198 16.4034 3.48235 16.4967 2.76271C16.5234 2.6028 16.5434 2.44288 16.5567 2.28296C16.57 2.12304 16.5767 1.96312 16.5767 1.80321C16.5767 1.55 16.49 1.41674 16.3168 1.40341C16.1569 1.37676 15.9836 1.36343 15.7971 1.36343C15.6638 1.36343 15.5305 1.37009 15.3973 1.38342C15.264 1.39675 15.1307 1.40341 14.9975 1.40341C14.7443 1.40341 14.6177 1.27681 14.6177 1.0236C14.6177 0.770401 14.7376 0.643799 14.9775 0.643799C15.2174 0.643799 15.4572 0.657125 15.6971 0.683778C15.9503 0.697105 16.1969 0.703769 16.4367 0.703769H17.3163C17.6628 0.703769 18.0026 0.697105 18.3358 0.683778C18.6823 0.657125 19.0221 0.643799 19.3553 0.643799C19.4619 0.643799 19.5551 0.677115 19.6351 0.743748C19.7284 0.81038 19.775 0.903666 19.775 1.0236Z" fill="white"/>
</g>
<defs>
<clipPath id="clip0_515_1189">
<rect width="20" height="16" fill="white"/>
</clipPath>
</defs>
</svg>
