<svg width="18" height="20" viewBox="0 0 18 20" fill="none" xmlns="http://www.w3.org/2000/svg">
<g clip-path="url(#clip0_515_1089)">
<path d="M11.0344 16.1178C11.0344 16.0531 11.036 15.9884 11.039 15.9246C10.3489 16.1688 9.62203 16.2928 8.88999 16.2914C8.02978 16.2933 7.17803 16.1217 6.38574 15.7867C5.62069 15.4633 4.92567 14.9946 4.33925 14.4064C3.75106 13.8199 3.28229 13.1249 2.95896 12.3599C2.62391 11.5675 2.45223 10.7156 2.4542 9.85532C2.4542 8.98558 2.62388 8.14269 2.95896 7.35077C3.28229 6.58572 3.75106 5.8907 4.33925 5.30428C4.92567 4.71609 5.62069 4.24732 6.38574 3.92398C7.17803 3.58897 8.02978 3.4173 8.88999 3.41923C9.76004 3.41923 10.6026 3.58921 11.3945 3.92398C12.1596 4.24732 12.8546 4.71609 13.441 5.30428C14.0292 5.8907 14.498 6.58572 14.8213 7.35077C15.1564 8.14316 15.3281 8.99501 15.3261 9.85532C15.3261 10.607 15.1991 11.3385 14.9486 12.0343C15.7885 12.0104 16.6135 12.2595 17.2999 12.7441C17.6189 11.8144 17.7812 10.8382 17.7803 9.85532C17.7803 4.9454 13.7999 0.965332 8.88969 0.965332C3.98037 0.965027 0 4.9454 0 9.85532C0 14.7652 3.98037 18.7453 8.88999 18.7453C9.85434 18.7453 10.7827 18.5918 11.6518 18.308C11.5154 18.0855 11.4006 17.8504 11.3088 17.6061C11.1318 17.145 11.0344 16.643 11.0344 16.1178Z" fill="white"/>
<path d="M10.5832 11.6866C10.4991 11.7707 10.3992 11.8375 10.2893 11.883C10.1794 11.9285 10.0616 11.9519 9.94263 11.9519C9.82367 11.9519 9.70587 11.9285 9.59597 11.883C9.48606 11.8375 9.38619 11.7707 9.30207 11.6866C9.21796 11.6025 9.15123 11.5026 9.1057 11.3927C9.06018 11.2828 9.03675 11.165 9.03675 11.0461C9.03675 10.9271 9.06018 10.8093 9.1057 10.6994C9.15123 10.5895 9.21796 10.4896 9.30207 10.4055C9.47196 10.2356 9.70238 10.1402 9.94263 10.1402C10.1829 10.1402 10.4133 10.2356 10.5832 10.4055C10.7531 10.5754 10.8485 10.8058 10.8485 11.0461C10.8485 11.2863 10.7531 11.5167 10.5832 11.6866ZM13.7756 11.3451L12.6593 11.1803C11.7706 10.0579 9.94507 8.64679 7.40054 8.4823C7.40054 8.4823 7.27237 11.3076 10.1019 13.5616L10.3232 14.7954L11.0516 15.739C11.2308 13.7542 12.8027 12.1807 14.7625 12.0431L13.7756 11.3451Z" fill="white"/>
<path d="M14.3819 17.4971C14.4149 17.502 14.4482 17.5062 14.4814 17.5093C14.9093 17.5682 16.5322 17.8602 18.0001 19.0345C18.0001 19.0345 17.7739 18.7483 17.4874 18.2838C17.0684 17.6036 16.6182 16.5678 16.458 15.5076L16.4559 15.5101C16.4194 15.174 16.2896 14.8547 16.0812 14.5885C15.8728 14.3223 15.5941 14.1197 15.2765 14.0036C14.959 13.8875 14.6153 13.8626 14.2843 13.9316C13.9533 14.0007 13.6483 14.1609 13.4036 14.3943C13.159 14.6276 12.9845 14.9248 12.8999 15.2521C12.8153 15.5795 12.8239 15.924 12.9249 16.2466C13.0258 16.5693 13.2151 16.8573 13.4711 17.0781C13.7272 17.2988 14.04 17.4435 14.374 17.4958L14.3734 17.4962L14.3819 17.4971Z" fill="#F9B130"/>
</g>
<defs>
<clipPath id="clip0_515_1089">
<rect width="18" height="20" fill="white"/>
</clipPath>
</defs>
</svg>
