<svg width="20" height="20" viewBox="0 0 20 20" fill="none" xmlns="http://www.w3.org/2000/svg">
<g clip-path="url(#clip0_515_1004)">
<g clip-path="url(#clip1_515_1004)">
<rect x="0.825195" y="1.77441" width="18.627" height="17.0829" fill="white"/>
<path d="M18.0544 0.0539551H1.86289C1.3831 0.0539551 0.922956 0.244551 0.583692 0.583815C0.244429 0.923078 0.053833 1.38322 0.053833 1.86301V11.0697C0.0538104 11.1492 0.0773138 11.227 0.121388 11.2933C0.165463 11.3596 0.228141 11.4113 0.301543 11.442C0.374944 11.4728 0.455792 11.4811 0.533923 11.466C0.612053 11.4509 0.683978 11.4131 0.740654 11.3572L8.9233 3.29808C9.1686 3.05119 9.48178 2.88283 9.82302 2.81439C10.1643 2.74595 10.5181 2.78052 10.8397 2.9137C11.1612 3.04689 11.4359 3.27268 11.6288 3.56237C11.8217 3.85206 11.9241 4.19256 11.9229 4.54059V9.57737C11.9228 9.65738 11.9465 9.73563 11.9909 9.80219C12.0353 9.86874 12.0985 9.92061 12.1724 9.9512C12.2463 9.98179 12.3277 9.98974 12.4061 9.97402C12.4846 9.95831 12.5566 9.91964 12.613 9.86293L19.334 3.14199C19.587 2.88895 19.7592 2.56659 19.8289 2.21566C19.8987 1.86474 19.8628 1.50101 19.7258 1.17048C19.5889 0.839941 19.357 0.557443 19.0595 0.358705C18.7619 0.159966 18.4122 0.053913 18.0544 0.0539551Z" fill="#FF7800"/>
<path d="M19.2568 8.58703L11.1277 16.7165C10.8824 16.9633 10.5692 17.1317 10.228 17.2002C9.88675 17.2686 9.53287 17.234 9.21133 17.1008C8.88979 16.9677 8.61512 16.7419 8.42223 16.4522C8.22934 16.1625 8.12695 15.822 8.12806 15.474V10.4211C8.12809 10.3414 8.10452 10.2635 8.06032 10.1972C8.01612 10.1308 7.95328 10.0791 7.87971 10.0485C7.80615 10.0178 7.72516 10.0096 7.64695 10.0249C7.56874 10.0403 7.49682 10.0784 7.44025 10.1345L0.66245 16.8512C0.406838 17.1032 0.23203 17.4255 0.160302 17.7772C0.0885736 18.1289 0.123174 18.4939 0.259692 18.8259C0.396211 19.1578 0.628467 19.4416 0.926862 19.6411C1.22526 19.8405 1.57628 19.9466 1.93519 19.9458H18.1362C18.6157 19.9458 19.0756 19.7555 19.4148 19.4165C19.754 19.0776 19.9448 18.6179 19.9453 18.1384V8.87393C19.9453 8.79415 19.9218 8.71613 19.8775 8.64972C19.8333 8.58331 19.7704 8.53149 19.6968 8.5008C19.6231 8.47011 19.542 8.46192 19.4637 8.47727C19.3854 8.49261 19.3134 8.53081 19.2568 8.58703Z" fill="#FF7800"/>
</g>
</g>
<defs>
<clipPath id="clip0_515_1004">
<rect width="20" height="20" fill="white"/>
</clipPath>
<clipPath id="clip1_515_1004">
<rect width="19.8921" height="19.8921" fill="white" transform="translate(0.053833 0.0539551)"/>
</clipPath>
</defs>
</svg>
