<svg width="20" height="20" viewBox="0 0 20 20" fill="none" xmlns="http://www.w3.org/2000/svg">
<g clip-path="url(#clip0_515_1104)">
<g clip-path="url(#clip1_515_1104)">
<path d="M10.7125 18.6924C11.5354 18.6924 12.3512 18.5226 13.1587 18.1818C13.9662 17.841 14.7025 17.2437 15.3675 16.3887L15.7475 18.3124H18.1225V9.14494H10.9975V11.9237H14.75C14.6395 13.1112 14.2477 14.0173 13.5743 14.6431C12.901 15.2689 11.9475 15.5812 10.7125 15.5812C9.87291 15.5812 9.16041 15.4185 8.57497 15.0943C8.00348 14.7828 7.51486 14.3389 7.14997 13.7999C6.77909 13.2463 6.50968 12.6311 6.35435 11.9831C6.18725 11.303 6.10351 10.6052 6.10497 9.90494C6.10497 9.16038 6.1881 8.44075 6.35435 7.74369C6.50652 7.07985 6.77595 6.44849 7.14997 5.87932C7.51453 5.33307 7.98953 4.89726 8.57497 4.57307C9.16041 4.24888 9.87291 4.08619 10.7125 4.08619C11.615 4.08619 12.3833 4.32369 13.0162 4.79869C13.6492 5.27369 14.0767 5.98619 14.2987 6.93619H17.8612C17.7662 5.97075 17.505 5.11576 17.0775 4.37119C16.6648 3.64417 16.1118 3.0064 15.4506 2.49494C14.7872 1.98499 14.0397 1.59514 13.2418 1.34307C12.4243 1.08147 11.5709 0.949255 10.7125 0.951193C9.41453 0.951193 8.24603 1.18038 7.20935 1.63994C6.20646 2.07431 5.31073 2.7228 4.58497 3.53994C3.87247 4.34744 3.32622 5.29388 2.94622 6.37807C2.56622 7.46225 2.37622 8.63788 2.37622 9.90494C2.37622 11.1399 2.56622 12.2918 2.94622 13.3606C3.32622 14.4293 3.87247 15.3591 4.58497 16.1512C5.29747 16.9433 6.17266 17.5643 7.20935 18.0156C8.24603 18.4668 9.41453 18.6924 10.7125 18.6924Z" fill="white"/>
</g>
</g>
<defs>
<clipPath id="clip0_515_1104">
<rect width="20" height="20" fill="white"/>
</clipPath>
<clipPath id="clip1_515_1104">
<rect width="19" height="19" fill="white" transform="translate(0.5 0.5)"/>
</clipPath>
</defs>
</svg>
