<svg width="18" height="22" viewBox="0 0 18 22" fill="none" xmlns="http://www.w3.org/2000/svg">
<g clip-path="url(#clip0_515_667)">
<path d="M12.2857 12.7441H12.2453C12.0704 12.1046 11.7029 11.5344 11.1926 11.1105C10.6823 10.6867 10.0539 10.4298 9.39248 10.3746C8.73109 10.3194 8.0687 10.4687 7.49507 10.8021C6.92145 11.1355 6.46432 11.637 6.18563 12.2385C5.87527 12.1799 5.55619 12.1851 5.24791 12.2538C4.93964 12.3226 4.64864 12.4534 4.39272 12.6383C4.1368 12.8232 3.92135 13.0583 3.75953 13.3292C3.59771 13.6001 3.49293 13.9012 3.4516 14.2139L8.99068 17.4087L14.5468 14.205C14.3526 13.7685 14.0354 13.398 13.6339 13.1386C13.2324 12.8792 12.7639 12.7421 12.2857 12.7441Z" fill="url(#paint0_linear_515_667)"/>
<path d="M8.12387 1.14951L0.921534 5.27988C0.64726 5.43718 0.419384 5.66396 0.260902 5.93733C0.102419 6.21069 0.0189381 6.52096 0.0188821 6.83684L1.95384e-06 15.1272C-0.000463945 15.4429 0.0823991 15.7531 0.24024 16.0266C0.39808 16.3001 0.62532 16.5272 0.899058 16.6851L8.08161 20.8487C8.35496 21.0063 8.66503 21.0893 8.98067 21.0893C9.2963 21.0893 9.60638 21.0063 9.87972 20.8487L17.0821 16.7183C17.355 16.5609 17.5817 16.3347 17.7395 16.0622C17.8973 15.7897 17.9806 15.4806 17.9811 15.1658L18 6.87097C18.0003 6.55544 17.9174 6.2454 17.7595 5.97207C17.6017 5.69873 17.3745 5.47176 17.1009 5.314L9.92198 1.1531C9.64895 0.994937 9.33904 0.91134 9.02341 0.910709C8.70777 0.910079 8.39753 0.992437 8.12387 1.14951ZM13.6486 14.7384L9.88961 16.8934C9.61587 17.0503 9.30559 17.1325 8.98996 17.1317C8.67432 17.131 8.36446 17.0472 8.0915 16.8889L4.33435 14.7124C4.06074 14.5546 3.83359 14.3276 3.67576 14.0543C3.51792 13.781 3.43499 13.4709 3.43529 13.1554L3.44518 8.82122C3.44551 8.5063 3.52874 8.197 3.68655 7.92436C3.84435 7.65171 4.07116 7.4253 4.34424 7.26784L8.10769 5.11286C8.38103 4.95525 8.69111 4.87227 9.00674 4.87227C9.32238 4.87227 9.63245 4.95525 9.9058 5.11286L13.6656 7.2858C13.9394 7.44364 14.1666 7.67075 14.3245 7.94426C14.4823 8.21776 14.5652 8.52799 14.5647 8.84367L14.5548 13.177C14.5552 13.494 14.4715 13.8054 14.3124 14.0797C14.1532 14.3539 13.9242 14.5812 13.6486 14.7384Z" fill="white"/>
</g>
<defs>
<linearGradient id="paint0_linear_515_667" x1="8.99922" y1="10.3634" x2="8.99922" y2="17.4087" gradientUnits="userSpaceOnUse">
<stop stop-color="white"/>
<stop offset="1" stop-color="#0061E8"/>
</linearGradient>
<clipPath id="clip0_515_667">
<rect width="18" height="22" fill="white"/>
</clipPath>
</defs>
</svg>
