<svg width="18" height="20" viewBox="0 0 18 20" fill="none" xmlns="http://www.w3.org/2000/svg">
<g clip-path="url(#clip0_515_1445)">
<path d="M13.1238 10.3794C13.4222 10.3794 13.7084 10.498 13.9195 10.709C14.1305 10.92 14.249 11.2063 14.249 11.5047C14.249 11.8032 14.1305 12.0894 13.9195 12.3004C13.7084 12.5114 13.4222 12.63 13.1238 12.63C12.8253 12.63 12.5391 12.5114 12.3281 12.3004C12.117 12.0894 11.9985 11.8032 11.9985 11.5047C11.9985 11.2063 12.117 10.92 12.3281 10.709C12.5391 10.498 12.8253 10.3794 13.1238 10.3794ZM14.3076 7.30815L8.1455 4.43342C6.55872 4.63452 5.09499 5.39278 4.0154 6.57295C2.93581 7.75312 2.31059 9.27843 2.25125 10.8768L8.64513 7.46644C8.75945 7.40556 8.8876 7.37532 9.01708 7.37867C9.14656 7.38201 9.27297 7.41882 9.38401 7.48552C9.49504 7.55221 9.58692 7.64652 9.65069 7.75926C9.71446 7.872 9.74795 7.99933 9.74791 8.12886V17.8393C11.0508 17.6982 12.2839 17.1792 13.2955 16.3461C14.307 15.513 15.0529 14.4023 15.4411 13.1506C15.471 13.0565 15.5191 12.9692 15.5827 12.8936C15.6463 12.8181 15.7241 12.7558 15.8118 12.7103C15.8994 12.6649 15.9952 12.6372 16.0936 12.6287C16.192 12.6203 16.2911 12.6313 16.3852 12.6611C16.4793 12.691 16.5667 12.7391 16.6422 12.8027C16.7178 12.8663 16.78 12.9441 16.8255 13.0318C16.871 13.1195 16.8987 13.2152 16.9071 13.3136C16.9156 13.412 16.9046 13.5111 16.8747 13.6052C16.5259 14.71 15.9483 15.7289 15.1797 16.5957C14.411 17.4625 13.4685 18.1578 12.4134 18.6362C11.3583 19.1147 10.2143 19.3657 9.05584 19.3729C7.89735 19.38 6.75033 19.1432 5.68942 18.6777C4.6285 18.2123 3.67746 17.5288 2.89818 16.6715C2.1189 15.8143 1.52883 14.8025 1.16637 13.7022C0.803918 12.6018 0.677191 11.4375 0.79444 10.2849C0.911689 9.13236 1.27029 8.0174 1.8469 7.01257C1.17089 6.66916 0.630169 6.10816 0.311865 5.41997C-0.0064392 4.73177 -0.0837922 3.95646 0.0922691 3.21894C0.26833 2.48143 0.687553 1.82465 1.28239 1.35445C1.87723 0.884241 2.61305 0.62798 3.37129 0.626953C3.48082 0.626953 3.58884 0.650959 3.68787 0.697471L14.7772 5.87153C15.2586 5.8306 15.7056 5.60548 16.0251 5.24307C16.3446 4.88066 16.5119 4.40894 16.4922 3.92621C16.4725 3.44348 16.2672 2.98698 15.9192 2.65186C15.5712 2.31674 15.1073 2.12884 14.6241 2.12733C14.4252 2.12733 14.2344 2.0483 14.0937 1.90761C13.953 1.76692 13.874 1.57611 13.874 1.37714C13.874 1.17818 13.953 0.987367 14.0937 0.846679C14.2344 0.705991 14.4252 0.626953 14.6241 0.626953C15.5195 0.626953 16.3781 0.982623 17.0112 1.61572C17.6443 2.24881 18 3.10748 18 4.00281C18 4.89814 17.6443 5.7568 17.0112 6.3899C16.3781 7.023 15.5195 7.37867 14.6241 7.37867C14.5146 7.37867 14.4066 7.35466 14.3076 7.30815ZM5.24676 16.741V10.9796L2.38779 12.504C2.75011 14.2358 3.77642 15.7568 5.24676 16.741ZM8.24753 9.37942L6.74715 10.1806V17.495C7.23252 17.6675 7.7359 17.7823 8.24753 17.8386V9.37867V9.37942ZM6.00896 3.44017L3.21825 2.13409C2.7929 2.17017 2.39259 2.35027 2.08344 2.64464C1.7743 2.93902 1.57483 3.33004 1.51799 3.75312C1.46115 4.17619 1.55034 4.606 1.77082 4.97153C1.9913 5.33706 2.32988 5.61644 2.73063 5.76351C2.78689 5.69749 2.84315 5.63072 2.90317 5.56621C3.76084 4.62775 4.82375 3.90014 6.00896 3.44017Z" fill="white"/>
</g>
<defs>
<clipPath id="clip0_515_1445">
<rect width="18" height="20" fill="white"/>
</clipPath>
</defs>
</svg>
