<svg width="19" height="21" viewBox="0 0 19 21" fill="none" xmlns="http://www.w3.org/2000/svg">
<g clip-path="url(#clip0_515_912)">
<path d="M17.7283 4.15336L11.2011 0.387949C10.5211 -0.00439787 9.4081 -0.00439787 8.72789 0.387949L2.20094 4.15361C1.52073 4.54595 0.964478 5.50892 0.964478 6.29386V13.8252C0.964478 14.6099 1.52073 15.5731 2.20094 15.9654L8.72789 19.7311C9.40786 20.1234 10.5209 20.1234 11.2011 19.7311L17.728 15.9654C18.4082 15.5728 18.9645 14.6099 18.9645 13.8249V6.29362C18.9645 5.50892 18.4082 4.54571 17.7283 4.15336ZM12.1014 10.0593C12.1014 12.4601 10.1536 14.4065 7.75104 14.4065C5.34849 14.4065 3.40064 12.4601 3.40064 10.0593V6.74149C3.40064 6.17306 3.86166 5.71204 4.43107 5.71204C4.99998 5.71204 5.46101 6.17282 5.46101 6.74149V10.0593C5.46101 11.323 6.48632 12.3476 7.75128 12.3476C9.016 12.3476 10.0413 11.323 10.0413 10.0593V6.74149C10.0413 6.17306 10.5026 5.71204 11.0715 5.71204C11.6404 5.71204 12.1014 6.17282 12.1014 6.74149V10.0593ZM16.5286 13.3771C16.5286 13.9455 16.0675 14.4065 15.4986 14.4065C14.9297 14.4065 14.4684 13.9455 14.4684 13.3771V6.74149C14.4684 6.17306 14.9297 5.71204 15.4986 5.71204C16.0675 5.71204 16.5286 6.17282 16.5286 6.74149V13.3771Z" fill="#3E98F0"/>
</g>
<defs>
<clipPath id="clip0_515_912">
<rect width="19" height="21" fill="white"/>
</clipPath>
</defs>
</svg>
