<svg width="18" height="18" viewBox="0 0 18 18" fill="none" xmlns="http://www.w3.org/2000/svg">
<g clip-path="url(#clip0_515_769)">
<g clip-path="url(#clip1_515_769)">
<path d="M4.04266 0.00282568L7.60498 10.098V10.093L7.88679 10.8878C9.45279 15.3186 10.2943 17.694 10.2988 17.6991C10.3016 17.6991 10.539 17.7143 10.8253 17.7289C11.6921 17.7666 12.7676 17.8639 13.5821 17.9612C13.7694 17.9837 13.9314 17.991 13.9421 17.9837L10.4096 7.96389L10.0828 7.04139L8.26535 1.90408C7.92054 0.929263 7.62804 0.0978882 7.61285 0.0663882L7.58979 -0.000549316H4.04604L4.04266 0.00282568Z" fill="white"/>
<path d="M10.4237 0.00902148L10.4164 3.98871L10.4102 7.9684L10.0822 7.04421V7.04252L9.65866 15.9002C10.0749 17.0753 10.2977 17.7025 10.2999 17.7053C10.3027 17.7081 10.5401 17.7233 10.8264 17.7368C11.6944 17.7745 12.7687 17.8718 13.5866 17.9691C13.7739 17.9916 13.937 17.9989 13.9466 17.9916C13.9562 17.9843 13.9618 13.9264 13.9595 8.98427L13.9534 0.00733398H10.4237V0.00902148ZM4.04266 0.00170898V8.9944C4.04266 13.9399 4.04773 17.9905 4.05391 17.9966C4.0601 18.0028 4.3661 17.9741 4.73398 17.932C5.10129 17.887 5.61148 17.8346 5.86629 17.8121C6.42748 17.7642 6.98951 17.7267 7.5521 17.6996C7.59091 17.6996 7.59429 17.4971 7.59935 13.8898L7.60554 10.08L7.89073 10.8748L7.98804 11.1566L8.41554 2.30683L8.27323 1.89733L7.61341 0.0675215L7.59091 0.00227148H4.04266V0.00170898Z" fill="white"/>
</g>
</g>
<defs>
<clipPath id="clip0_515_769">
<rect width="18" height="18.0001" fill="white"/>
</clipPath>
<clipPath id="clip1_515_769">
<rect width="18" height="18" fill="white"/>
</clipPath>
</defs>
</svg>
