<svg width="18" height="20" viewBox="0 0 18 20" fill="none" xmlns="http://www.w3.org/2000/svg">
<g clip-path="url(#clip0_515_874)">
<path d="M9.01221 18.3496C7.31136 18.3496 5.84245 17.9793 4.60547 17.2388C3.37663 16.4982 2.42448 15.4443 1.74902 14.0771C1.08171 12.71 0.748047 11.0946 0.748047 9.23096V9.20654C0.748047 7.3348 1.08577 5.7194 1.76123 4.36035C2.43669 3.0013 3.38883 1.9515 4.61768 1.21094C5.85465 0.470378 7.3195 0.100098 9.01221 0.100098C10.6968 0.100098 12.1576 0.470378 13.3945 1.21094C14.6315 1.9515 15.5837 3.0013 16.251 4.36035C16.9183 5.7194 17.252 7.3348 17.252 9.20654V9.23096C17.252 11.0946 16.9183 12.71 16.251 14.0771C15.5837 15.4362 14.6315 16.4901 13.3945 17.2388C12.1657 17.9793 10.7049 18.3496 9.01221 18.3496ZM9.01221 15.9204C10.1353 15.9204 11.0996 15.6478 11.9053 15.1025C12.7191 14.5492 13.3457 13.772 13.7852 12.771C14.2246 11.77 14.4443 10.59 14.4443 9.23096V9.20654C14.4443 7.83936 14.2205 6.65934 13.7729 5.6665C13.3335 4.66553 12.7069 3.89242 11.8931 3.34717C11.0793 2.80192 10.119 2.5293 9.01221 2.5293C7.90544 2.5293 6.94108 2.80192 6.11914 3.34717C5.30534 3.88428 4.67464 4.65332 4.22705 5.6543C3.77946 6.64714 3.55566 7.83122 3.55566 9.20654V9.23096C3.55566 10.59 3.77539 11.7741 4.21484 12.7832C4.66243 13.7842 5.29313 14.5573 6.10693 15.1025C6.92074 15.6478 7.88916 15.9204 9.01221 15.9204ZM13.6509 19.8999L8.40186 12.6367H11.2461L16.4951 19.8999H13.6509Z" fill="white"/>
</g>
<defs>
<clipPath id="clip0_515_874">
<rect width="18" height="20" fill="white"/>
</clipPath>
</defs>
</svg>
