<svg width="18" height="18" viewBox="0 0 18 18" fill="none" xmlns="http://www.w3.org/2000/svg">
<g clip-path="url(#clip0_515_1144)">
<g clip-path="url(#clip1_515_1144)">
<path d="M11.0182 1.39097C8.65471 2.51842 6.30926 3.89078 3.9818 5.50915C2.87289 6.29078 1.98162 7.01842 1.30908 7.69097C0.963803 8.03624 0.790894 8.46388 0.790894 8.97278C0.790894 9.46369 0.963803 9.88206 1.30908 10.2273L2.56362 11.3455C3.65453 12.2002 4.8818 13.0457 6.24544 13.8819C7.68162 14.7546 9.03653 15.5182 10.3091 16.1728C11.8183 16.9184 13.1274 17.4546 14.2363 17.7819C14.7273 17.9275 15.1816 17.873 15.6 17.6182C16.0363 17.3821 16.3091 17.0182 16.4182 16.5273C16.5093 16.2181 16.6091 15.7544 16.7182 15.1364C16.8638 14.2637 16.9729 13.1728 17.0454 11.8637L17.1545 8.97278C17.118 6.99115 17.0274 5.37279 16.8818 4.11824C16.7907 3.09988 16.6363 2.19115 16.4182 1.39097C16.3482 1.05017 16.1657 0.742786 15.9 0.518239C15.6513 0.284725 15.3373 0.132515 15 0.0818757C14.7273 0.0453303 14.3907 0.0911485 13.9909 0.218239C13.1182 0.472967 12.1271 0.863512 11.0182 1.39097ZM9.84544 3.51824H12.2454L12.3273 3.54551L10.3909 10.5001C10.3363 10.7182 10.4182 10.8273 10.6363 10.8273H15.7091L15.1091 12.9273H7.03635L9.73635 3.62733C9.73635 3.55478 9.77289 3.51824 9.84544 3.51824Z" fill="white"/>
</g>
</g>
<defs>
<clipPath id="clip0_515_1144">
<rect width="18" height="18" fill="white"/>
</clipPath>
<clipPath id="clip1_515_1144">
<rect width="18" height="18" fill="white"/>
</clipPath>
</defs>
</svg>
