<svg width="19" height="18" viewBox="0 0 19 18" fill="none" xmlns="http://www.w3.org/2000/svg">
<g clip-path="url(#clip0_515_1171)">
<g clip-path="url(#clip1_515_1171)">
<path d="M0.996948 12.426H1.75006L2.34674 11.2639V10.8649H0.996948V12.426ZM0.996948 7.46178H2.34674V5.90292H0.996948V7.46178ZM0.996948 9.90347H2.34674V8.34461H0.996948V9.90347ZM3.77971 14.2718V13.5965H2.59091V14.735H3.33944V14.49H2.83661V13.8086H3.56606V14.735H3.78657L4.10552 14.1245L3.92087 14.0154L3.77971 14.2718ZM15.2839 6.48435V5.30929H13.8387V6.48435C14.0766 6.53184 14.3187 6.5546 14.5613 6.55226C14.8038 6.5546 15.046 6.53184 15.2839 6.48435ZM0.996948 14.735H1.23959V14.0688H2.18345V13.8575H1.24035V13.2768H2.18345V13.0319H0.996948V14.735ZM10.5386 6.48435V5.30929H9.08885V6.48435C9.32699 6.5318 9.56939 6.55456 9.8122 6.55226C10.056 6.5548 10.2995 6.53204 10.5386 6.48435ZM5.79562 6.48435V5.30929H4.35427V6.48435C4.59214 6.53184 4.83429 6.5546 5.07685 6.55226C5.31814 6.55434 5.559 6.53158 5.79562 6.48435ZM16.6649 14.2634V13.5965H15.4792V14.735H15.7234V13.8086H15.9668V14.735H16.2094V13.8086H16.4543V14.735H16.6657L16.9946 14.1283L16.8061 14.0154L16.6649 14.2634ZM15.2861 8.17216H15.2594C15.8357 8.10473 16.3993 7.95466 16.9328 7.72655V6.19058C14.2973 7.57395 12.1883 6.19058 12.1883 6.19058C9.552 7.57395 7.443 6.19058 7.443 6.19058C4.8075 7.57395 2.6985 6.19058 2.6985 6.19058V7.72961C3.23172 7.9776 3.80275 8.13442 4.38784 8.19353H4.35121V8.77724H3.04568V10.079H3.85906L2.63822 12.426H6.25497L7.26826 10.4796H6.09091L5.62242 11.3616H4.62285L5.23861 10.079H7.26826V8.77343H5.79791V8.17216H5.76663C6.34474 8.1049 6.91012 7.95456 7.44529 7.72579C7.9821 7.97509 8.55707 8.13218 9.14607 8.19047C9.13005 8.19047 9.11326 8.19047 9.09724 8.1859V9.15723L7.38272 12.426H8.85612L9.79846 10.4796L10.7507 12.426H13.6014L14.5445 10.4796L15.4967 12.426H16.9923L15.2861 9.15723V8.17216ZM13.8364 8.18971V9.15723L12.1844 12.3116L10.5363 9.15723V8.17216H10.5149C11.0899 8.10426 11.6521 7.9542 12.1844 7.72655C12.7209 7.97666 13.2956 8.13478 13.8845 8.19429L13.8364 8.18971ZM13.8791 14.735H15.0664V13.5965H13.8829L13.8791 14.735ZM14.1225 13.8086H14.8543V14.4908H14.1225V13.8086ZM18.2566 4.34253C18.2353 4.31979 18.2093 4.30206 18.1803 4.29064C18.3329 4.24715 18.4092 4.15406 18.4092 4.00985C18.4127 3.97077 18.407 3.93142 18.3927 3.89488C18.3784 3.85834 18.3559 3.82561 18.3268 3.79926C18.2596 3.74583 18.1753 3.71871 18.0895 3.72295H17.7729V4.7683H17.9071V4.33337H18.0041C18.0407 4.33215 18.0766 4.34316 18.1063 4.36466C18.1452 4.39724 18.1774 4.43717 18.2009 4.48216L18.3734 4.77059H18.5321L18.3375 4.45927C18.314 4.41805 18.287 4.37898 18.2566 4.34253ZM18.0659 4.21358H17.9071V3.84656H18.0674C18.1221 3.84306 18.1762 3.8593 18.22 3.89234C18.2376 3.90821 18.2514 3.92784 18.2604 3.94976C18.2693 3.97169 18.2733 3.99535 18.2719 4.01901C18.2729 4.04525 18.2683 4.0714 18.2584 4.09573C18.2486 4.12007 18.2336 4.14203 18.2146 4.16017C18.1738 4.19655 18.1205 4.21569 18.0659 4.21358ZM18.0582 3.26514C17.8723 3.26514 17.6905 3.32029 17.5359 3.42362C17.3813 3.52694 17.2608 3.67381 17.1897 3.84562C17.1185 4.01744 17.1 4.20649 17.1363 4.38886C17.1726 4.57123 17.2622 4.73873 17.3938 4.87017C17.5253 5.00161 17.6929 5.09108 17.8753 5.12726C18.0577 5.16345 18.2467 5.14473 18.4185 5.07346C18.5903 5.00219 18.737 4.88158 18.8402 4.72689C18.9434 4.5722 18.9984 4.39038 18.9983 4.20442C18.9981 3.95524 18.8989 3.71633 18.7227 3.5402C18.5464 3.36407 18.3074 3.26514 18.0582 3.26514ZM18.0582 4.98195C17.9044 4.98195 17.7541 4.93635 17.6263 4.85091C17.4984 4.76548 17.3987 4.64404 17.3399 4.50197C17.281 4.35989 17.2656 4.20356 17.2956 4.05274C17.3256 3.90191 17.3997 3.76337 17.5084 3.65463C17.6172 3.54589 17.7557 3.47184 17.9065 3.44184C18.0574 3.41184 18.2137 3.42723 18.3558 3.48608C18.4978 3.54493 18.6193 3.64459 18.7047 3.77245C18.7901 3.90032 18.8358 4.05064 18.8358 4.20442C18.8355 4.41057 18.7536 4.60822 18.6078 4.75399C18.462 4.89976 18.2644 4.98175 18.0582 4.98195ZM8.97821 13.5965H8.0374V14.735H9.22467V13.0319H8.97973L8.97821 13.5965ZM8.97821 14.4916H8.2457V13.8048H8.97744L8.97821 14.4916ZM12.2897 14.735H13.477V14.4908H12.5331V13.8086H13.4755V13.5965H12.2897V14.735ZM7.30031 14.2771V13.5965H6.10923V14.735H6.85776V14.49H6.35568V13.8086H7.08514V14.735H7.30565L7.6246 14.1245L7.43995 14.0154L7.30031 14.2771ZM5.45455 13.5965H4.51221V14.735H5.69872V13.0319H5.45455V13.5965ZM5.45455 14.4916H4.72281V13.8048H5.45455V14.4916ZM10.824 14.2749V13.5965H9.63594V14.735H10.3822V14.49H9.87934V13.8086H10.6111V14.735H10.8316L11.1498 14.1245L10.9651 14.0154L10.824 14.2749Z" fill="white"/>
</g>
</g>
<defs>
<clipPath id="clip0_515_1171">
<rect width="19" height="18" fill="white"/>
</clipPath>
<clipPath id="clip1_515_1171">
<rect width="18" height="18" fill="white" transform="translate(0.996948)"/>
</clipPath>
</defs>
</svg>
