<svg width="12" height="18" viewBox="0 0 12 18" fill="none" xmlns="http://www.w3.org/2000/svg">
<g clip-path="url(#clip0_515_865)">
<path d="M2.49605 5.13477H5.21446V6.99423H3.63816V7.40954H5.2239V9.00472C5.2239 9.60881 5.69584 10.0902 6.28105 10.0902H9.57523C9.87728 10.0902 10.1133 9.83534 10.1133 9.54274V7.93812L9.45253 9.00472H6.32825V7.40954H8.59359V6.99423H6.32825V5.13477H9.72626L9.43365 6.43734L11.2365 4.71945L10.1133 3.41689L9.82064 4.71945H6.32825V3.05821H8.59359V2.64289H6.32825V1.51023L7.10224 1.05716L5.2239 0V4.71945H2.49605V4.19088L1.25955 3.41689V13.828C1.25955 13.828 1.23124 16.0933 0.230713 18C0.230713 18 2.48661 16.1122 2.48661 12.5632L2.49605 5.13477Z" fill="#231815"/>
<path d="M10.7173 16.0367H8.79181C8.67854 16.0367 8.59359 15.9423 8.59359 15.8291V10.9208L7.55531 11.6476V11.7609H5.06344V11.6476L4.02516 10.9208V14.6492C4.02516 14.6492 4.07235 16.5653 2.34503 17.8207C2.34503 17.8207 5.06344 16.4426 5.06344 14.5831V12.1857H7.54587V16.7163C7.54587 16.9901 7.76297 17.2072 8.02725 17.2072H10.9816C11.1043 17.2072 11.2176 17.1694 11.312 17.1033C12.2087 16.4237 11.5102 13.7714 11.5102 13.7714C11.6424 15.8291 10.7173 16.0367 10.7173 16.0367Z" fill="#231815"/>
</g>
<defs>
<clipPath id="clip0_515_865">
<rect width="12" height="18" fill="white"/>
</clipPath>
</defs>
</svg>
