<svg width="19" height="19" viewBox="0 0 19 19" fill="none" xmlns="http://www.w3.org/2000/svg">
<g clip-path="url(#clip0_515_859)">
<path d="M18.3733 18.5862C18.2505 18.4676 17.2549 17.4721 16.1577 16.3791L14.1667 14.3965L14.1582 10.8084L14.1455 7.2245L14.0523 7.32193C13.9972 7.37277 13.9379 7.41513 13.9125 7.41513C13.8913 7.41513 13.8701 7.44478 13.8701 7.47867C13.8701 7.51256 13.8405 7.54222 13.8066 7.54222C13.7727 7.54222 13.7261 7.58034 13.7007 7.62694C13.6753 7.67354 13.3067 8.05481 12.8831 8.4742C11.7944 9.55446 11.6291 9.71544 10.6082 10.7406C10.1083 11.2405 9.66774 11.6514 9.63385 11.6514C9.59996 11.6514 8.86708 10.9482 8.01135 10.084L6.45239 8.51656L8.22316 6.74156C9.93039 5.0301 11.125 3.81428 11.3114 3.59823C11.3961 3.5008 11.8113 3.08564 11.9765 2.93313C12.0189 2.89077 12.3663 2.5561 12.7433 2.18331C13.1246 1.81051 13.5397 1.40807 13.6626 1.29369C13.7896 1.17507 13.921 1.03527 13.9549 0.988674C13.9888 0.937839 14.0692 0.882767 14.1328 0.865822C14.2429 0.840404 14.37 0.963257 15.929 2.52645C16.8525 3.45843 17.8014 4.41583 18.0386 4.66154C18.2716 4.90301 18.5046 5.12329 18.5512 5.14871C18.5936 5.17413 18.6487 5.25886 18.6656 5.33935C18.7165 5.56811 18.6868 18.7811 18.636 18.7938C18.6148 18.8023 18.4962 18.7091 18.3733 18.5862Z" fill="#EB8903"/>
<path d="M0.610474 12.0624V5.30973L2.85571 3.06026L5.10094 0.810791L5.27887 0.967534C5.54152 1.19629 9.50668 5.1657 9.50668 5.19535C9.50668 5.20806 8.79075 5.93247 7.91808 6.80091L6.32947 8.38528L5.77451 7.83456C5.46526 7.52955 5.19838 7.27961 5.1772 7.27537C5.15178 7.27113 5.13907 8.70724 5.14331 10.7957L5.14754 14.3288L2.91078 16.5698C1.68226 17.8026 0.661309 18.8108 0.644364 18.8108C0.623183 18.8108 0.610474 15.7734 0.610474 12.0624Z" fill="#367FB0"/>
<path d="M6.36765 11.8336C6.36341 11.8082 6.36341 10.5966 6.37189 8.79191C6.37189 8.68177 6.52439 8.82157 7.93931 10.2323C8.79928 11.0922 9.49827 11.8039 9.4898 11.8082C9.46014 11.842 6.37189 11.8632 6.36765 11.8336Z" fill="#367FB0"/>
</g>
<defs>
<clipPath id="clip0_515_859">
<rect width="19" height="19" fill="white"/>
</clipPath>
</defs>
</svg>
