<svg width="21" height="20" viewBox="0 0 21 20" fill="none" xmlns="http://www.w3.org/2000/svg">
<g clip-path="url(#clip0_515_1114)">
<path d="M0.141907 10.0303C0.141907 11.3343 0.398752 12.6256 0.89778 13.8303C1.39681 15.0351 2.12824 16.1298 3.05033 17.0519C3.97241 17.9739 5.06708 18.7054 6.27184 19.2044C7.4766 19.7034 8.76786 19.9603 10.0719 19.9603C11.3759 19.9603 12.6672 19.7034 13.8719 19.2044C15.0767 18.7054 16.1713 17.9739 17.0934 17.0519C18.0155 16.1298 18.7469 15.0351 19.246 13.8303C19.745 12.6256 20.0018 11.3343 20.0018 10.0303C20.0018 7.39672 18.9557 4.87099 17.0934 3.00876C15.2312 1.14653 12.7055 0.100342 10.0719 0.100342C7.43829 0.100342 4.91256 1.14653 3.05033 3.00876C1.1881 4.87099 0.141907 7.39672 0.141907 10.0303Z" fill="#D81E06"/>
<path d="M0.141968 11.2026H4.53625L9.50126 5.15332H18.7464L19.2029 6.00935L13.1537 6.06641L11.3275 7.03658L10.6997 7.83555L7.56092 11.8303L5.04989 12.401H0.370233" fill="white"/>
<path d="M0.712708 13.3712H7.78924L8.8165 12.401L13.0396 7.4931H13.6103L19.7166 7.3219L20.002 8.17793L15.6647 8.23499L14.8658 8.77715L11.0421 13.3712L10.072 14.1131L1.1122 14.3984" fill="white"/>
<path d="M18.5922 9.37476H15.3301L14.5998 9.98154L11.9221 13.7566H17.5697L18.1053 12.7828L14.9406 12.7341L15.6222 12.0525H18.3L18.5922 11.0301L16.1578 10.9814L17.1802 10.2511H18.5922" fill="white"/>
</g>
<defs>
<clipPath id="clip0_515_1114">
<rect width="21" height="20" fill="white"/>
</clipPath>
</defs>
</svg>
