<svg width="22" height="22" viewBox="0 0 22 22" fill="none" xmlns="http://www.w3.org/2000/svg">
<g clip-path="url(#clip0_515_1288)">
<path d="M2.53906 6.17579V10.4469H4.77534C5.65554 10.4469 6.46893 10.138 6.46893 9.23053C6.46893 8.61709 6.02699 8.33705 5.54092 8.19047C5.83707 8.07168 6.17302 7.82212 6.17302 7.29898C6.17302 6.62939 5.50866 6.17579 4.61417 6.17579H2.53906ZM3.90904 7.17054H4.41271C4.61774 7.17054 4.77409 7.33114 4.77409 7.49415C4.77409 7.64559 4.61163 7.80768 4.41269 7.80768H3.90905L3.90904 7.17054ZM3.90904 8.69413H4.57387C4.80598 8.69413 5.00074 8.87041 5.00074 9.07189C5.00074 9.28584 4.81859 9.46349 4.53358 9.46349H3.90904V8.69413ZM3.64712 10.9128V15.1839H5.88341C6.7636 15.1839 7.57698 14.8749 7.57698 13.9675C7.57698 13.3541 7.13506 13.074 6.64898 12.9274C6.94514 12.8086 7.28109 12.5591 7.28109 12.036C7.28109 11.3664 6.61672 10.9128 5.72223 10.9128H3.64712ZM5.01711 11.9075H5.52078C5.7258 11.9075 5.88216 12.0681 5.88216 12.2311C5.88216 12.3826 5.71969 12.5447 5.52076 12.5447H5.01711V11.9075ZM5.01711 13.4311H5.68194C5.91403 13.4311 6.1088 13.6074 6.1088 13.8089C6.1088 14.0228 5.92666 14.2005 5.64166 14.2005H5.01711V13.4311ZM6.57646 10.4464V6.17527H10.0215V7.20678H7.94241V7.76685H9.6307V8.73391H7.94241V9.41888H10.0215V10.4464L6.57646 10.4464ZM11.8878 10.5686C12.8575 10.5686 13.6331 10.0155 13.6331 9.11912C13.6331 7.6725 11.7512 7.89511 11.7512 7.44469C11.7512 7.27071 11.9342 7.17839 12.1218 7.17839C12.4452 7.17839 12.6789 7.39144 12.6789 7.39144L13.4885 6.62051C13.1647 6.31233 12.6533 6.05322 11.9643 6.05322C10.9296 6.05322 10.2526 6.66734 10.2526 7.40816C10.2526 8.87318 12.1074 8.66056 12.1074 9.12024C12.1074 9.28138 11.9524 9.44348 11.6712 9.44348C11.352 9.44348 11.0991 9.25076 10.9023 9.08726L10.0879 9.86368C10.4159 10.1831 10.9423 10.5686 11.8878 10.5686H11.8878ZM14.6875 10.4464V7.20275H13.5593V6.17527H17.1857V7.20275H16.0575V10.4464L14.6875 10.4464ZM7.62409 10.9097H8.99004V13.4684C8.99004 13.7282 9.24862 13.9676 9.51822 13.9676C9.77253 13.9676 10.0296 13.7514 10.0296 13.4547V10.9097H11.3915V13.4373C11.3915 14.4402 10.5588 15.2403 9.48213 15.2403C8.39929 15.2403 7.62409 14.3696 7.62409 13.3827V10.9097ZM13.0758 15.1808V13.6547L11.4703 10.9097H12.8523L13.7608 12.3805L14.6723 10.9097H16.0575L14.4458 13.6703V15.1808H13.0758Z" fill="#1C252C"/>
<path d="M16.0575 13.2473L15.2516 14.0532V15.1411L16.0575 15.947H19.4663V13.2473H16.0575Z" fill="white"/>
<path d="M15.9251 14.5967C15.9251 14.6969 15.8439 14.778 15.7437 14.778C15.6436 14.778 15.5624 14.6969 15.5624 14.5967C15.5624 14.4966 15.6436 14.4154 15.7437 14.4154C15.8439 14.4154 15.9251 14.4966 15.9251 14.5967Z" fill="#1C252C"/>
</g>
<defs>
<clipPath id="clip0_515_1288">
<rect width="22" height="22.0001" fill="white"/>
</clipPath>
</defs>
</svg>
