<svg width="18" height="16" viewBox="0 0 18 16" fill="none" xmlns="http://www.w3.org/2000/svg">
<g clip-path="url(#clip0_515_972)">
<path d="M6.69231 13.423C6.69231 11.9922 6.62308 11.5306 6.34615 11.4383C6.16154 11.346 6 11.1614 6 10.9768C6 10.4922 7.52308 10.5614 9.11538 11.1153C9.85385 11.3691 10.5 11.5768 10.5692 11.5768C10.6385 11.5768 10.6385 9.86911 10.5692 7.76911L10.4538 3.93834L11.0538 4.0768C11.3769 4.14603 12.4846 4.00757 13.5 3.75373C14.5154 3.49988 15.9462 3.22296 16.6846 3.15373L18 2.99219V7.63065C18 11.1614 17.9308 12.2922 17.7231 12.3614C17.5615 12.4076 16.4308 12.6153 15.2308 12.846C14.0308 13.0537 11.6538 13.6768 9.96923 14.2537C8.28462 14.8076 6.87692 15.2691 6.80769 15.2691C6.73846 15.2691 6.69231 14.4383 6.69231 13.423Z" fill="#4E9FFE"/>
<path d="M4.5 10.9538C3.34615 10.6769 1.86923 10.3769 1.22308 10.2846L0 10.1461V5.4384C0 1.60764 0.0692307 0.730713 0.323077 0.730713C1.24615 0.730713 4.89231 1.51533 6.76154 2.11533C9.62307 3.0384 11.2615 3.98456 11.2615 4.72302C11.2615 5.18456 11.0769 5.3461 10.4077 5.55379C9.94615 5.69225 9.06923 6.13071 8.42307 6.5461L7.26923 7.30763L7.2 9.31533C7.15384 10.6076 7.03846 11.323 6.85384 11.3922C6.69231 11.4384 5.65384 11.2538 4.5 10.9538Z" fill="#00C358"/>
<path d="M8.99997 12.0153C8.05382 11.6692 7.08459 11.3922 6.85382 11.4615C6.48459 11.5307 6.46151 11.3461 6.50766 9.08456L6.57689 6.6384L7.5692 5.96917C8.09997 5.59994 9.16151 5.06917 9.92305 4.76917L11.2846 4.2384L11.2384 8.41533C11.2154 10.9769 11.1 12.5922 10.9615 12.6153C10.8461 12.6384 9.94613 12.3846 8.99997 12.0153Z" fill="#348AC4"/>
</g>
<defs>
<clipPath id="clip0_515_972">
<rect width="18" height="16" fill="white"/>
</clipPath>
</defs>
</svg>
