<svg width="23" height="19" viewBox="0 0 23 19" fill="none" xmlns="http://www.w3.org/2000/svg">
<g clip-path="url(#clip0_515_1080)">
<path d="M22.685 6.4458C22.2667 5.9229 21.3778 4.8771 20.4888 3.88359C19.9659 3.25611 19.4953 2.68092 19.1293 2.21031C18.7633 1.7397 18.0312 1.7397 17.6652 2.21031C17.6129 2.2626 17.6129 2.31489 17.5606 2.36718C16.8808 2.10573 15.7827 1.68741 14.6846 1.26909C13.848 0.955351 13.0637 0.641611 12.4885 0.43245C11.9656 0.22329 11.3381 0.537031 11.2335 1.16451C11.2335 1.26909 11.1812 1.42596 11.1812 1.58283H6.47511C5.63847 1.58283 5.01099 2.47176 5.32473 3.25611C5.42931 3.46527 5.4816 3.72672 5.58618 3.98817C5.16786 4.14504 4.4358 4.45878 3.44229 5.03397C2.81481 5.4 2.29191 5.76603 1.87359 6.07977C1.2984 6.49809 1.19382 7.28244 1.61214 7.85763C1.87359 8.22366 2.18733 8.64198 2.55336 9.0603C2.3442 9.47863 1.92588 10.263 1.55985 11.1519C1.24611 11.8317 0.932371 12.7206 0.723211 13.4527C0.514051 14.1324 0.880081 14.9168 1.55985 15.1782L10.606 18.3156C10.6583 18.3156 10.7106 18.2633 10.6583 18.2111C10.0308 17.845 8.77587 17.1653 7.15488 16.4332C5.58618 15.7534 3.75603 14.9691 2.71023 14.4985C2.13504 14.237 1.87359 13.6095 2.08275 13.0343C2.18733 12.7729 2.3442 12.4069 2.50107 12.0408C2.71023 10.995 3.07626 10.263 3.28542 9.84465C4.48809 11.0473 6.05679 12.7206 6.99801 13.6618C7.62549 14.3416 8.35755 15.0737 8.82816 15.5443C8.88045 15.5966 8.93274 15.5443 8.93274 15.492C8.35755 14.603 6.99801 12.5637 5.74305 10.9427C4.69725 9.6355 3.59916 8.38053 2.97168 7.64847C2.60565 7.28244 2.71023 6.65496 3.18084 6.39351C3.54687 6.18435 3.96519 5.97519 4.54038 5.71374C5.22015 5.4 5.69076 5.19084 6.0045 5.03397C6.26595 5.81832 6.57969 6.70725 6.84114 7.59618C7.5732 10.0015 8.35755 12.4069 8.72358 13.505C8.72358 13.5572 8.88045 13.5572 8.82816 13.4527C8.67129 12.4069 8.35755 10.2107 7.83465 7.96221C7.41633 6.18435 7.0503 4.3542 6.78885 3.41298C6.68427 3.04695 6.94572 2.68092 7.31175 2.68092L11.0243 2.57634C10.8675 3.36069 10.7106 4.30191 10.5014 5.45229C9.92626 8.32824 9.35106 10.8382 9.08961 11.9885C9.08961 12.0408 9.19419 12.0931 9.19419 12.0408C9.61251 11.0996 10.2923 9.21717 10.9198 6.81183C11.5472 4.66794 12.0179 3.09924 12.1747 2.31489C12.2793 1.94886 12.6453 1.68741 13.0114 1.79199C13.5343 1.89657 14.3186 2.10573 15.0507 2.31489C15.6259 2.47176 16.4625 2.73321 17.1423 2.89008C16.6194 3.56985 15.8873 4.51107 14.9984 5.60916C13.1159 7.85763 11.3904 9.79237 10.606 10.6813C10.5537 10.7336 10.6583 10.8382 10.7106 10.7859C11.495 10.1584 13.1159 8.85114 14.7892 7.07328C16.4625 5.34771 17.5083 4.19733 18.0312 3.62214C18.2404 3.41298 18.5541 3.36069 18.7633 3.56985C19.1293 3.88359 19.7045 4.40649 20.332 4.92939C21.064 5.55687 22.1098 6.23664 22.6327 6.60267C22.685 6.55038 22.7373 6.49809 22.685 6.4458Z" fill="white"/>
<path d="M21.2209 13.7141L17.7174 7.96216L14.214 13.7141C14.0048 13.9232 13.848 14.237 13.7957 14.5507C13.4819 15.6488 14.3186 16.8515 15.5213 16.8515H15.6258C16.4102 16.8515 17.0377 16.3809 17.3514 15.7534C17.3514 15.7534 17.4037 16.224 17.1945 16.8515C17.1422 17.0083 17.0377 17.2175 16.9331 17.4267C16.7239 17.7927 16.4102 18.1064 16.0964 18.3679H19.443C19.1293 18.1064 18.7632 17.7927 18.6064 17.4267C18.5018 17.2175 18.3972 17.0606 18.3449 16.8515C18.1358 16.224 18.188 15.7534 18.188 15.7534C18.5018 16.3809 19.1293 16.8515 19.9136 16.8515H20.0182C21.2732 16.8515 22.0575 15.6488 21.7438 14.5507C21.5869 14.237 21.43 13.9232 21.2209 13.7141Z" fill="white"/>
</g>
<defs>
<clipPath id="clip0_515_1080">
<rect width="23" height="19" fill="white"/>
</clipPath>
</defs>
</svg>
