<svg width="20" height="20" viewBox="0 0 20 20" fill="none" xmlns="http://www.w3.org/2000/svg">
<g clip-path="url(#clip0_515_1195)">
<path d="M18.8627 4.94236C18.7931 4.53974 18.3071 4.50582 18.3071 4.50582H11.9504C11.4988 4.50582 11.3253 5.1103 11.3253 5.1103L7.5394 12.8979C7.3659 13.2671 7.19184 12.8979 7.19184 12.8979L4.13497 6.85589C3.92643 6.55393 4.13497 6.41935 4.13497 6.41935H6.70525C7.1568 6.48664 7.2608 6.85589 7.2608 6.85589L8.54594 9.50792L9.65757 7.12448L8.65048 5.04301C8.44195 4.50582 7.99039 4.43909 7.99039 4.43909H1.73819C0.765575 4.80834 1.18265 5.54683 1.18265 5.54683L6.35825 16.0537C6.94882 16.8256 7.36534 16.6582 7.36534 16.6582C7.92088 16.6582 8.26844 16.0537 8.26844 16.0537L12.784 6.78916C12.9575 6.41991 13.166 6.41991 13.166 6.41991H15.9103C16.1189 6.45327 16.0143 6.78916 16.0143 6.78916L12.8879 12.9991C12.7489 13.335 12.5059 12.9991 12.5059 12.9991L11.4988 10.817L10.3872 12.8979C10.3177 13.0658 10.3872 13.2671 10.3872 13.2671L11.7769 16.0532C12.8535 17.2949 13.6175 16.1205 13.6175 16.1205L18.7587 5.64749C18.9672 5.27824 18.8627 4.94236 18.8627 4.94236Z" fill="white"/>
</g>
<defs>
<clipPath id="clip0_515_1195">
<rect width="20" height="20" fill="white"/>
</clipPath>
</defs>
</svg>
