<svg width="20" height="20" viewBox="0 0 20 20" fill="none" xmlns="http://www.w3.org/2000/svg">
<g clip-path="url(#clip0_515_838)">
<path d="M13.8152 13.1568H15.9784L12.0444 18.6564L11.9494 18.6231L12.8044 15.0084H11.1134C11.3034 14.1315 11.4858 13.3079 11.6834 12.4073C11.2027 12.5517 10.7828 12.6353 10.4 12.8025C9.5706 13.1635 8.82485 13.0096 8.15225 12.4757C7.69949 12.1276 7.28316 11.7345 6.90965 11.3024C6.52965 10.8483 6.6503 10.589 7.226 10.4921C8.44485 10.2869 9.6675 10.1064 10.8921 9.87839H10.1235C9.06995 9.86794 8.01545 9.85084 6.9619 9.84704C6.31495 9.84704 5.85895 9.50979 5.4685 9.04049C4.97524 8.44219 4.62614 7.73847 4.4482 6.98374C4.3285 6.50114 4.46055 6.36814 4.95835 6.48404C6.2171 6.77664 7.47395 7.07969 8.7327 7.37419C9.37621 7.5327 10.0275 7.65764 10.684 7.74849C9.924 7.49579 9.1488 7.26399 8.39545 6.98849C7.24595 6.56289 6.11545 6.09929 4.96595 5.65849C4.80369 5.59981 4.65552 5.50778 4.531 5.38834C4.40648 5.26889 4.30837 5.12468 4.243 4.96499C3.79555 3.94469 3.46115 2.89494 3.45355 1.76824C3.45355 1.35784 3.5875 1.25714 3.93995 1.42814C7.53 3.15999 11.2417 4.62489 14.9647 6.05369C15.3238 6.20019 15.6659 6.38526 15.985 6.60564C16.6035 7.01699 16.8049 7.53569 16.4847 8.18739C15.8273 9.52499 15.1044 10.8303 14.4023 12.146C14.2266 12.47 14.0309 12.7844 13.8152 13.1568Z" fill="white"/>
</g>
<defs>
<clipPath id="clip0_515_838">
<rect width="20" height="20" fill="white"/>
</clipPath>
</defs>
</svg>
