<svg width="18" height="18" viewBox="0 0 18 18" fill="none" xmlns="http://www.w3.org/2000/svg">
<g clip-path="url(#clip0_515_1266)">
<g clip-path="url(#clip1_515_1266)">
<path d="M11.634 12C11.0175 12 10.5 11.4998 10.5 10.8833C10.5 10.2668 11.0175 9.75 11.634 9.75C12.2505 9.75 12.75 10.2668 12.75 10.8833C12.75 11.4998 12.2505 12 11.634 12ZM11.8612 14.2118C11.256 14.742 10.3238 15 9.009 15H8.99025C7.67625 15 6.744 14.742 6.1395 14.2118C6.09587 14.176 6.06072 14.131 6.03658 14.0801C6.01244 14.0291 5.99992 13.9734 5.99992 13.917C5.99992 13.8606 6.01244 13.8049 6.03658 13.7539C6.06072 13.703 6.09587 13.658 6.1395 13.6222C6.23359 13.5435 6.3524 13.5003 6.47513 13.5003C6.59785 13.5003 6.71666 13.5435 6.81075 13.6222C7.22775 13.9882 7.941 14.1667 8.99025 14.1667H9.009C10.059 14.1667 10.7723 13.9882 11.19 13.6222C11.284 13.5433 11.4029 13.5 11.5256 13.5C11.6484 13.5 11.7672 13.5433 11.8612 13.6222C11.9046 13.6581 11.9396 13.7032 11.9636 13.7541C11.9875 13.8051 12 13.8607 12 13.917C12 13.9733 11.9875 14.0289 11.9636 14.0799C11.9396 14.1308 11.9046 14.1759 11.8612 14.2118ZM5.25 10.8825C5.25 10.2675 5.7675 9.75 6.38325 9.75C6.99975 9.75 7.5 10.2675 7.5 10.8833C7.4998 11.1794 7.38208 11.4633 7.17269 11.6727C6.9633 11.8821 6.67937 11.9998 6.38325 12C5.7675 12 5.25 11.4998 5.25 10.8833M15 3C15.1931 3.00864 15.3754 3.09143 15.509 3.23114C15.6426 3.37084 15.7172 3.5567 15.7172 3.75C15.7172 3.9433 15.6426 4.12916 15.509 4.26886C15.3754 4.40857 15.1931 4.49136 15 4.5C14.5868 4.5 14.25 4.16325 14.25 3.75C14.25 3.33675 14.5868 3 15 3ZM18 9.2055C18 7.96425 17.0295 6.9555 15.837 6.9555C15.3203 6.9555 14.8463 7.1445 14.4735 7.46025C13.155 6.59775 11.481 6.078 9.68625 5.96775L10.6223 2.889L13.1947 3.519C13.2622 4.494 14.0452 5.265 14.9985 5.265C15.996 5.265 16.8075 4.4205 16.8075 3.3825C16.8075 2.3445 15.996 1.5 14.9985 1.5C14.301 1.5 13.6943 1.9125 13.3927 2.51625L10.4025 1.785C10.2801 1.75677 10.1516 1.77669 10.0435 1.84064C9.93548 1.90459 9.85615 2.00766 9.822 2.1285L8.6595 5.9505C6.726 5.99925 4.90875 6.5205 3.49275 7.434C3.11789 7.1255 2.64773 6.95641 2.16225 6.9555C0.9705 6.95475 0 7.965 0 9.2055C0 9.97275 0.37125 10.6515 0.93675 11.058C0.912895 11.237 0.900869 11.4174 0.90075 11.598C0.90075 13.149 1.767 14.5928 3.34125 15.6608C4.8495 16.686 6.84675 17.25 8.96325 17.25C11.0798 17.25 13.077 16.686 14.586 15.6608C16.1595 14.5928 17.0265 13.149 17.0265 11.598C17.0265 11.4323 17.0152 11.268 16.9965 11.1045C17.3074 10.8952 17.5617 10.6124 17.7368 10.281C17.9118 9.94971 18.0023 9.58023 18 9.2055Z" fill="white"/>
</g>
</g>
<defs>
<clipPath id="clip0_515_1266">
<rect width="18" height="18" fill="white"/>
</clipPath>
<clipPath id="clip1_515_1266">
<rect width="18" height="18" fill="white"/>
</clipPath>
</defs>
</svg>
