<svg width="18" height="18" viewBox="0 0 18 18" fill="none" xmlns="http://www.w3.org/2000/svg">
<g clip-path="url(#clip0_515_678)">
<path d="M9.89994 1.12166C9.89994 1.12166 8.97905 -1.13207 8.24012 0.845934C7.50119 2.82394 3.87274 7.85857 11.2785 17.9526H17.3443C17.4498 17.9776 17.5603 17.9699 17.6612 17.9304C17.7622 17.891 17.8487 17.8217 17.9092 17.7318C17.9697 17.6419 18.0014 17.5357 18 17.4274C17.9985 17.319 17.9641 17.2137 17.9013 17.1254C17.5098 16.2277 9.89994 1.12166 9.89994 1.12166ZM4.10434 9.12298C4.10434 9.12298 4.49586 6.98451 5.75865 8.84728C7.02143 10.7101 8.58752 14.1129 6.86154 17.9526H0.51449C0.51449 17.9526 -0.428449 17.9752 0.238768 16.8497L4.10434 9.12298Z" fill="white"/>
</g>
<defs>
<clipPath id="clip0_515_678">
<rect width="18" height="18" fill="white"/>
</clipPath>
</defs>
</svg>
