<svg width="19" height="18" viewBox="0 0 19 18" fill="none" xmlns="http://www.w3.org/2000/svg">
<g clip-path="url(#clip0_515_928)">
<path d="M11.4377 16.1243C8.27068 16.9548 5.84374 15.8941 4.13587 14.2909C2.996 13.221 2.27989 11.9358 1.82933 10.4085C1.44214 9.09593 1.48196 7.67053 1.48196 6.2721C1.48196 5.54617 1.91577 3.90318 2.05393 3.24939C1.15955 4.6449 0.081543 7.21598 0.081543 8.99652C0.081543 13.9525 4.09914 17.9701 9.0551 17.9701C11.2645 17.9701 13.6916 16.2877 14.8509 14.5837C12.6256 15.5799 13.0079 15.7125 11.4377 16.1243Z" fill="white"/>
<path d="M14.4729 1.25714C13.4552 0.660414 12.3029 0.254758 11.0587 0.0957188C6.97863 -0.42584 2.34852 2.20984 1.90637 6.27289C3.831 2.48151 6.786 1.01647 10.3193 1.46812C11.4438 1.61187 12.4933 1.95707 13.4362 2.4627L14.4729 1.25714Z" fill="white"/>
<path d="M10.6103 14.1433C10.5872 14.155 10.5649 14.169 10.5477 14.1907C10.5083 14.2404 10.4895 14.3803 10.4621 14.4446C10.4451 14.4851 10.3188 14.6473 10.3188 14.6793C10.3186 14.7089 10.3612 14.7523 10.4012 14.7937C10.173 14.8389 9.94037 14.8704 9.70409 14.8896C9.74835 14.8338 9.75898 14.7849 9.61813 14.7782C9.65584 14.6758 9.74441 14.6173 9.78183 14.518C9.79963 14.4712 9.78488 14.4527 9.79998 14.4064C9.85145 14.2462 9.82915 14.3066 9.80011 14.1822C9.79712 14.1693 9.79435 14.1563 9.7918 14.1433H6.41962V8.28668C6.39706 8.2757 6.35831 8.23834 6.30888 8.17119C6.15628 7.96392 5.9793 7.75779 5.84699 7.53831C5.79701 7.45535 5.80663 7.40173 5.72408 7.32296C5.64442 7.24684 5.5401 7.20975 5.45977 7.1374C5.17101 6.8776 5.11847 6.53085 5.15137 6.16071C5.16214 6.03998 5.20576 5.94343 5.18649 5.82746C5.17064 5.73112 5.11374 5.65147 5.04272 5.58045C5.01984 5.54401 4.96233 5.45421 4.95901 5.44843C4.89348 5.33959 4.84247 5.23243 4.73825 5.14307C4.67852 5.09159 4.52385 4.97135 4.37834 4.87054C5.03238 4.05477 5.88824 3.40823 6.87015 3.0069C6.87794 3.0562 6.89912 3.10551 6.9309 3.15266C7.01166 3.2724 7.08855 3.26295 7.24612 3.29602C7.22921 3.47897 7.01545 3.4804 6.87075 3.46059C6.69802 3.43682 6.51633 3.37951 6.36668 3.53083C6.44929 3.58057 6.67614 3.77409 6.64597 3.57191C6.81146 3.56362 6.97139 3.55867 7.1333 3.57846C7.19813 3.58639 7.41548 3.65939 7.47436 3.62605C7.4991 3.61206 7.52545 3.49022 7.55162 3.45261C7.50546 3.45292 7.45598 3.42959 7.40996 3.43398C7.51721 3.29672 7.62401 3.4045 7.76043 3.46755C7.61028 3.55884 7.69939 3.77755 7.8462 3.59988C7.96683 3.45373 7.81668 3.34775 7.66354 3.26258C7.81798 3.06943 7.91327 3.05193 8.05857 3.26997C8.08254 3.13553 8.19103 3.18938 8.30444 3.19926V3.16565C8.25453 3.16688 8.20122 3.13814 8.15179 3.14332C8.26736 2.95898 8.1936 2.91684 8.35873 2.85667C8.49033 2.80881 8.86562 2.85344 8.91186 2.72975C8.64921 2.78074 8.33194 2.793 8.095 2.91243C7.99281 2.96385 7.87102 3.12649 7.76904 3.02087C7.66448 2.91243 7.84388 2.73814 7.93563 2.68501H7.9137C8.33692 2.5948 8.76844 2.54928 9.20116 2.54922C9.48646 2.54922 9.76683 2.57033 10.042 2.6079C9.94684 2.65789 10.0172 2.69167 9.94794 2.74284C9.81544 2.8402 9.58028 2.92154 9.42256 2.98312C9.62298 2.98258 10.1081 3.171 10.2015 2.8899C10.1367 2.88 10.0722 2.87006 10.0076 2.86007C10.1284 2.78001 10.2631 2.71524 10.4044 2.66767C11.6806 2.92051 12.8157 3.56783 13.6792 4.47603C13.6731 4.47579 13.667 4.47572 13.6609 4.47584C13.4205 4.48307 13.2529 4.48359 13.0596 4.61696C12.9818 4.67076 12.9289 4.74208 12.8301 4.76976C12.7414 4.79472 12.6458 4.77285 12.5578 4.8027C12.2407 4.91036 12.2909 5.58982 11.8729 5.48713C11.6765 5.439 11.5381 5.20697 11.4394 5.05549C11.3523 4.92215 11.1938 4.81188 11.3008 4.64509C11.252 4.65761 11.1999 4.64333 11.1519 4.65243C11.2188 4.5054 11.4434 4.51827 11.4807 4.44312C11.5737 4.25477 11.2245 4.23513 11.1257 4.20904C11.2449 4.08195 11.3052 4.25176 11.4229 4.22292C11.536 4.1951 11.3632 4.04619 11.2954 4.02949C11.2711 4.02346 10.8729 4.13947 11.1033 3.93325C10.8188 3.75196 10.5344 3.57065 10.25 3.38913C10.202 3.59091 10.6286 3.70553 10.7679 3.77668C10.7462 3.85999 10.6167 3.98136 10.5175 3.94581C10.424 3.91226 10.4619 3.75745 10.3207 3.77299C10.2201 4.00726 10.5339 3.93878 10.563 4.08234C10.5961 4.24592 10.4443 4.17657 10.386 4.1738C10.3721 4.17303 10.2633 4.06042 10.2575 4.1457C10.2504 4.24696 10.4309 4.20747 10.4436 4.30971C10.2333 4.31821 10.126 4.24232 9.95477 4.12851C9.75492 3.9959 9.65236 4.0079 9.40758 4.0079C9.48083 3.9778 9.58158 3.95546 9.6442 3.90708C9.6784 3.88056 9.81262 3.7502 9.82161 3.72107C9.85938 3.59536 9.81944 3.60496 9.69929 3.52258C9.59238 3.44946 9.46282 3.31823 9.33327 3.29243C8.86406 3.19876 9.18865 3.71597 8.83245 3.78731C8.83858 3.78762 8.84513 3.78793 8.85045 3.78793H8.83C8.83095 3.78787 8.83162 3.78747 8.83245 3.78731C8.75007 3.78438 8.59571 3.76427 8.54253 3.80784C8.50502 3.83846 8.50202 3.96139 8.46002 4.00579C8.38558 4.08535 8.27442 4.10118 8.18543 4.15853C8.09862 4.21451 7.90724 4.35809 7.85619 4.45555C7.66823 4.81464 8.27962 4.9261 8.51145 5.03104C8.61618 5.07851 8.9222 5.14338 8.97928 5.22261C9.05569 5.32907 8.91333 5.42887 9.07301 5.50362C9.12396 5.52747 9.22917 5.53234 9.27299 5.48295C9.34439 5.40256 9.24409 5.38441 9.22696 5.2915C9.19374 5.11266 9.2483 5.18366 9.33832 5.11726C9.52166 4.98194 9.48027 4.97365 9.41442 4.75799C9.38374 4.65765 9.26823 4.3774 9.36981 4.30325C9.50235 4.20666 9.78492 4.35569 9.88659 4.3682C10.0049 4.38267 10.0719 4.54647 10.1364 4.6135C10.1792 4.65802 10.2558 4.75244 10.3306 4.74218C10.4493 4.72596 10.3995 4.62218 10.4684 4.57432C10.653 4.44625 10.7018 4.62019 10.7753 4.79429C10.8445 4.9577 10.9101 5.01839 11.0333 5.1232C11.0906 5.17198 11.3414 5.34616 11.3177 5.45355C11.3017 5.52586 11.0151 5.63558 10.9385 5.6598C10.6584 5.74856 10.1331 5.51461 10.0766 5.95878C10.1853 5.91827 10.4944 5.66577 10.5871 5.78551C10.6293 5.83975 10.5537 5.91881 10.5714 5.97274C10.6243 6.13448 10.749 6.07812 10.8797 6.05197C10.8708 6.05757 10.8617 6.06239 10.852 6.06675C11.0307 5.97492 11.0121 5.99402 11.0941 5.84514C11.1208 5.79645 11.1607 5.67872 11.1984 5.64387C11.3283 5.52449 11.3482 5.60672 11.4287 5.69888C11.4497 5.7231 11.6486 6.00956 11.5778 5.99524C11.3465 5.94885 11.1244 5.95509 10.9325 6.08158C10.8219 6.15463 10.7173 6.25305 10.5853 6.30166C10.5536 6.31314 10.3193 6.33543 10.347 6.29546C10.3874 6.23718 10.5266 6.19864 10.5815 6.13574C10.4294 6.07309 10.3023 6.21149 10.1828 6.2924C10.096 6.33344 10.0548 6.39879 10.0028 6.46735H15.808C14.8679 3.72208 12.2652 1.74841 9.20126 1.74841C5.34505 1.74841 2.21918 4.87428 2.21918 8.73036C2.21918 12.5865 5.34507 15.7125 9.20118 15.7125C10.8738 15.7125 12.4087 15.1241 13.611 14.1434H10.6103V14.1433Z" fill="white"/>
<path d="M6.03499 7.55352C6.01086 7.54818 6.08555 7.72688 6.09328 7.74126C6.16704 7.87786 6.27786 8.00263 6.36698 8.12986C6.39022 8.16308 6.40748 8.1914 6.41958 8.21469V7.9061L6.41743 7.90351C6.2835 7.73823 6.24152 7.59751 6.03499 7.55352ZM12.6387 13.4286H11.0085V10.2951C11.0085 9.38782 10.6817 8.93409 10.0283 8.93409C9.7168 8.93409 9.45779 9.05519 9.25131 9.29721C9.04474 9.53931 8.94151 9.84823 8.94151 10.2241V13.4286H7.30113V7.81172H8.94151V8.70556H8.96182C9.37145 8.01829 9.97411 7.6746 10.7698 7.6746C12.0157 7.6746 12.6387 8.44655 12.6387 9.99043L12.6387 13.4286ZM13.9233 10.4809L15.9326 7.8007H14.5036L12.8932 10.1545C12.84 10.2392 12.7868 10.3395 12.7337 10.4555H12.7168V10.6695H12.7337C12.7893 10.8025 12.8388 10.9004 12.8824 10.9633L14.5834 13.4187H16.0994L13.9233 10.4809Z" fill="white"/>
<path d="M16.3454 8.82489C16.3454 8.55382 16.4264 8.3331 16.5885 8.16275C16.7505 7.9924 16.958 7.90723 17.2112 7.90723C17.4705 7.90723 17.6803 7.99429 17.8408 8.16824C18.0013 8.34226 18.0816 8.56112 18.0816 8.82489C18.0816 9.09233 17.9998 9.31485 17.8362 9.49252C17.6726 9.67025 17.4642 9.75901 17.2112 9.75901C16.9611 9.75901 16.7543 9.66929 16.5908 9.48978C16.4272 9.31034 16.3454 9.08864 16.3454 8.82489ZM16.7744 13.3979V10.1786H17.7116V13.3979H16.7744Z" fill="white"/>
</g>
<defs>
<clipPath id="clip0_515_928">
<rect width="19" height="18" fill="white"/>
</clipPath>
</defs>
</svg>
