<svg width="30" height="10" viewBox="0 0 30 10" fill="none" xmlns="http://www.w3.org/2000/svg">
<g clip-path="url(#clip0_515_1192)">
<path d="M10.5038 0.78258C10.5038 0.939703 10.4253 1.01826 10.2682 1.01826C10.1607 1.01826 10.0532 1.01826 9.94565 1.01826C9.83815 1.00999 9.73064 1.00586 9.62314 1.00586C9.54044 1.00586 9.49083 1.04307 9.47429 1.1175C9.46602 1.18366 9.46188 1.24568 9.46188 1.30356C9.46188 1.83282 9.45775 2.35794 9.44948 2.87892C9.44948 3.3999 9.44948 3.92502 9.44948 4.45428C9.44948 5.19854 9.44948 5.9428 9.44948 6.68706C9.45775 7.43133 9.46188 8.17972 9.46188 8.93226C9.46188 8.99014 9.46602 9.0563 9.47429 9.13073C9.49083 9.19688 9.54044 9.22996 9.62314 9.22996C9.73064 9.22996 9.83815 9.22996 9.94565 9.22996C10.0532 9.22169 10.1607 9.21756 10.2682 9.21756C10.3426 9.21756 10.3963 9.2465 10.4294 9.30439C10.4625 9.35401 10.479 9.41189 10.479 9.47805C10.479 9.61863 10.4005 9.68892 10.2434 9.68892C10.1772 9.68892 10.111 9.68479 10.0449 9.67652C9.97873 9.66825 9.91257 9.65998 9.84642 9.65171C9.77199 9.64344 9.69757 9.63931 9.62314 9.63931C9.54871 9.63931 9.47429 9.63931 9.39986 9.63931H7.99817C7.89893 9.63931 7.79556 9.63931 7.68806 9.63931C7.58882 9.63931 7.48545 9.64344 7.37795 9.65171C7.29525 9.65998 7.20842 9.66825 7.11745 9.67652C7.03476 9.68479 6.94793 9.68892 6.85696 9.68892C6.69157 9.68892 6.60887 9.59796 6.60887 9.41603C6.60887 9.3416 6.63782 9.29198 6.69571 9.26717C6.76186 9.2341 6.82388 9.21756 6.88177 9.21756C6.96447 9.21756 7.04716 9.22169 7.12986 9.22996C7.21255 9.22996 7.29525 9.22996 7.37795 9.22996C7.49372 9.22996 7.56815 9.20929 7.60122 9.16794C7.64257 9.11832 7.66325 9.03976 7.66325 8.93226V5.12411H3.65663V8.95707C3.65663 9.06457 3.67317 9.14313 3.70625 9.19275C3.7476 9.2341 3.82616 9.25477 3.94193 9.25477C4.02463 9.25477 4.10733 9.25477 4.19002 9.25477C4.27272 9.2465 4.35541 9.24237 4.43811 9.24237C4.50427 9.24237 4.56629 9.25477 4.62417 9.27958C4.69033 9.30439 4.72341 9.35814 4.72341 9.44084C4.72341 9.6145 4.62831 9.70133 4.43811 9.70133C4.10733 9.70133 3.77654 9.68892 3.44576 9.66411C3.12324 9.64758 2.79246 9.63931 2.45341 9.63931C2.33763 9.63931 2.21772 9.63931 2.09368 9.63931C1.97791 9.63931 1.86213 9.64344 1.74636 9.65171C1.63885 9.65998 1.53135 9.66825 1.42384 9.67652C1.32461 9.69306 1.22124 9.70133 1.11373 9.70133C1.05585 9.70133 1.00623 9.67239 0.964882 9.6145C0.923534 9.55661 0.902861 9.50286 0.902861 9.45324C0.902861 9.40362 0.923534 9.35814 0.964882 9.31679C1.00623 9.26717 1.05585 9.24237 1.11373 9.24237C1.22124 9.24237 1.32461 9.2465 1.42384 9.25477C1.53135 9.25477 1.63885 9.25477 1.74636 9.25477C1.82905 9.25477 1.87867 9.22169 1.89521 9.15554C1.91175 9.08111 1.92002 9.01495 1.92002 8.95707V1.31597C1.92002 1.25808 1.91175 1.19606 1.89521 1.1299C1.87867 1.05548 1.82905 1.01826 1.74636 1.01826C1.63885 1.01826 1.53135 1.0224 1.42384 1.03067C1.32461 1.03067 1.22124 1.03067 1.11373 1.03067C0.956613 1.03067 0.878052 0.956241 0.878052 0.807389C0.878052 0.741232 0.898726 0.683345 0.940074 0.633728C0.981422 0.575841 1.03931 0.546897 1.11373 0.546897C1.34528 0.546897 1.57683 0.555167 1.80838 0.571706C2.0482 0.588245 2.28388 0.596515 2.51543 0.596515C2.83794 0.596515 3.15632 0.588245 3.47057 0.571706C3.79308 0.555167 4.11559 0.546897 4.43811 0.546897C4.62004 0.546897 4.711 0.633728 4.711 0.807389C4.711 0.914894 4.66139 0.98105 4.56215 1.00586C4.47119 1.0224 4.38436 1.03067 4.30166 1.03067C4.24377 1.03067 4.18589 1.03067 4.128 1.03067C4.07011 1.0224 4.00809 1.01826 3.94193 1.01826C3.8427 1.01826 3.76827 1.05134 3.71865 1.1175C3.67731 1.18366 3.65663 1.26222 3.65663 1.35318V4.67756H7.66325V1.30356C7.66325 1.18779 7.64257 1.10923 7.60122 1.06788C7.56815 1.02653 7.49372 1.00586 7.37795 1.00586C7.29525 1.00586 7.21255 1.00999 7.12986 1.01826C7.04716 1.01826 6.96447 1.01826 6.88177 1.01826C6.82388 1.01826 6.76186 0.99759 6.69571 0.956242C6.63782 0.914894 6.60887 0.865276 6.60887 0.807389C6.60887 0.633728 6.69984 0.546897 6.88177 0.546897C6.98101 0.546897 7.08024 0.551032 7.17948 0.559302C7.27871 0.567571 7.37795 0.575841 7.47718 0.58411C7.66738 0.59238 7.85758 0.60065 8.04778 0.608919C8.23798 0.608919 8.42818 0.608919 8.61838 0.608919C8.79205 0.608919 8.96157 0.608919 9.12696 0.608919C9.30062 0.60065 9.47429 0.59238 9.64795 0.58411C9.75545 0.575841 9.85882 0.567571 9.95806 0.559302C10.0573 0.551032 10.1607 0.546897 10.2682 0.546897C10.4253 0.546897 10.5038 0.625458 10.5038 0.78258Z" fill="white"/>
<path d="M16.5561 2.80449C16.5561 2.21735 16.4279 1.75839 16.1716 1.42761C15.9152 1.09682 15.4645 0.931433 14.8195 0.931433C14.7203 0.931433 14.6128 0.931433 14.497 0.931433C14.3812 0.931433 14.2778 0.939702 14.1869 0.956242C14.1042 0.98105 14.0546 1.01826 14.038 1.06788C14.0215 1.1175 14.0132 1.17952 14.0132 1.25395C14.0132 1.75012 14.0091 2.2463 14.0008 2.74247C14.0008 3.23038 14.0008 3.71828 14.0008 4.20619V4.67756C14.0422 4.68582 14.0876 4.69409 14.1373 4.70236C14.1869 4.70236 14.2324 4.70236 14.2737 4.70236C14.7203 4.70236 15.1131 4.64448 15.4521 4.5287C15.7995 4.41293 16.0682 4.21859 16.2584 3.9457C16.4569 3.66453 16.5561 3.28413 16.5561 2.80449ZM19.7565 9.42843C19.7565 9.49459 19.6944 9.55248 19.5704 9.60209C19.4463 9.65171 19.3016 9.68479 19.1362 9.70133C18.9791 9.7096 18.8013 9.71787 18.6028 9.72614C18.4126 9.73441 18.2845 9.73854 18.2183 9.73854C18.1025 9.73854 17.9537 9.73027 17.7717 9.71373C17.5898 9.70546 17.4658 9.68892 17.3996 9.66411C17.259 9.6145 17.1143 9.54007 16.9655 9.44084C16.8249 9.33333 16.7091 9.20102 16.6181 9.0439C16.2543 8.39887 15.8904 7.74557 15.5266 7.084C15.1627 6.41417 14.8112 5.7526 14.4722 5.0993L14.0008 5.0869C14.0008 5.73193 14.0008 6.37696 14.0008 7.02198C14.0091 7.66701 14.0132 8.31204 14.0132 8.95707C14.0132 9.01495 14.0298 9.08111 14.0628 9.15554C14.0959 9.22169 14.1538 9.25477 14.2365 9.25477C14.344 9.25477 14.4391 9.25477 14.5218 9.25477C14.6128 9.2465 14.712 9.24237 14.8195 9.24237C14.8691 9.24237 14.9146 9.27131 14.956 9.3292C15.0056 9.38708 15.0304 9.4367 15.0304 9.47805C15.0304 9.53594 15.0097 9.58969 14.9684 9.63931C14.9353 9.68065 14.8857 9.70133 14.8195 9.70133C14.7368 9.70133 14.6583 9.69719 14.5838 9.68892C14.5094 9.68065 14.435 9.67239 14.3605 9.66411C14.2696 9.65585 14.1414 9.65171 13.976 9.65171C13.8106 9.65171 13.6494 9.65171 13.4922 9.65171C13.3351 9.64344 13.2069 9.63931 13.1077 9.63931C12.8844 9.63931 12.686 9.64344 12.5123 9.65171C12.3469 9.65998 12.1815 9.66825 12.0161 9.67652C11.8507 9.69306 11.6523 9.70133 11.4207 9.70133C11.2553 9.70133 11.1726 9.62277 11.1726 9.46565C11.1726 9.39949 11.2016 9.34987 11.2595 9.31679C11.3256 9.27544 11.3876 9.25477 11.4455 9.25477C11.5282 9.25477 11.6109 9.25891 11.6936 9.26717C11.7763 9.26717 11.859 9.26717 11.9417 9.26717C12.1567 9.26717 12.2642 9.16794 12.2642 8.96947V1.30356C12.2642 1.18779 12.2435 1.10923 12.2022 1.06788C12.1691 1.02653 12.0947 1.00586 11.9789 1.00586C11.8962 1.00586 11.8135 1.00999 11.7308 1.01826C11.6481 1.01826 11.5654 1.01826 11.4827 1.01826C11.4248 1.01826 11.3587 1.00172 11.2843 0.968646C11.2098 0.935568 11.1726 0.881815 11.1726 0.807389C11.1726 0.716424 11.2016 0.650267 11.2595 0.608919C11.3256 0.567571 11.4 0.546897 11.4827 0.546897C11.7308 0.546897 11.9789 0.555167 12.227 0.571706C12.4833 0.588245 12.7397 0.596515 12.9961 0.596515C13.3847 0.596515 13.7775 0.584111 14.1745 0.559302C14.5714 0.526223 14.9642 0.509684 15.3529 0.509684C15.7002 0.509684 16.0558 0.542762 16.4197 0.608919C16.7835 0.666806 17.1185 0.77431 17.4244 0.931433C17.7387 1.08029 17.9909 1.29116 18.1811 1.56406C18.3796 1.83695 18.4788 2.18014 18.4788 2.59362C18.4788 3.08152 18.3796 3.4826 18.1811 3.79684C17.9909 4.11109 17.7221 4.35918 17.3748 4.54111C17.0358 4.71477 16.6388 4.85122 16.184 4.95045C16.5313 5.58721 16.92 6.21983 17.35 6.84832C17.78 7.46854 18.2018 8.07635 18.6152 8.67177C18.7062 8.80408 18.822 8.92399 18.9626 9.03149C19.1114 9.13073 19.2644 9.20102 19.4215 9.24237C19.4877 9.25064 19.558 9.25477 19.6324 9.25477C19.7151 9.25477 19.7565 9.31266 19.7565 9.42843Z" fill="white"/>
<path d="M25.314 5.98001C25.19 5.55 25.0494 5.09517 24.8923 4.61553C24.7351 4.1359 24.578 3.6604 24.4209 3.18903C24.2638 2.71766 24.1232 2.27938 23.9991 1.87417C23.8586 2.27938 23.7056 2.71766 23.5402 3.18903C23.3748 3.6604 23.2094 4.1359 23.044 4.61553C22.8869 5.09517 22.7339 5.55 22.585 5.98001H25.314ZM29.1221 9.46565C29.1221 9.54834 29.0973 9.60623 29.0477 9.63931C28.9981 9.66411 28.9319 9.67652 28.8492 9.67652C28.6342 9.67652 28.4192 9.67239 28.2042 9.66411C27.9892 9.64758 27.7742 9.63931 27.5592 9.63931C27.2367 9.63931 26.9059 9.63931 26.5668 9.63931C26.2278 9.63931 25.8929 9.64758 25.5621 9.66411C25.529 9.66411 25.4959 9.66411 25.4629 9.66411C25.4298 9.67239 25.3967 9.67652 25.3636 9.67652C25.3057 9.67652 25.2561 9.65998 25.2148 9.6269C25.1734 9.59382 25.1527 9.54834 25.1527 9.49045C25.1527 9.38295 25.19 9.31679 25.2644 9.29198C25.3388 9.26718 25.4215 9.25891 25.5125 9.26717C25.6117 9.26717 25.6944 9.26717 25.7606 9.26717C26.0252 9.26717 26.1575 9.13486 26.1575 8.87024C26.1575 8.79581 26.1286 8.65936 26.0707 8.46089C26.021 8.26242 25.9549 8.03914 25.8722 7.79105C25.7978 7.5347 25.7192 7.28661 25.6365 7.04679C25.5621 6.80697 25.5001 6.6085 25.4504 6.45138H22.4114C22.3535 6.60023 22.2791 6.79457 22.1881 7.03439C22.1054 7.26593 22.0186 7.50989 21.9276 7.76625C21.8366 8.01433 21.7581 8.24175 21.6919 8.44849C21.634 8.64696 21.6051 8.78754 21.6051 8.87024C21.6051 9.02736 21.6423 9.13486 21.7167 9.19275C21.7994 9.24237 21.8987 9.27131 22.0144 9.27958C22.1302 9.27958 22.246 9.27958 22.3618 9.27958C22.4114 9.27958 22.4527 9.30852 22.4858 9.36641C22.5189 9.4243 22.5354 9.47391 22.5354 9.51526C22.5354 9.57315 22.5106 9.61863 22.461 9.65171C22.4196 9.67652 22.3742 9.68892 22.3245 9.68892C22.0599 9.68892 21.7912 9.68065 21.5183 9.66411C21.2454 9.64758 20.9766 9.63931 20.712 9.63931C20.5797 9.63931 20.4473 9.64344 20.315 9.65171C20.1827 9.65998 20.0463 9.66411 19.9057 9.66411C19.8478 9.66411 19.7941 9.65171 19.7444 9.6269C19.7031 9.59382 19.6824 9.54834 19.6824 9.49045C19.6824 9.39122 19.7155 9.3292 19.7816 9.30439C19.8561 9.27131 19.9388 9.25891 20.0297 9.26717C20.129 9.26717 20.2075 9.26717 20.2654 9.26717C20.3647 9.26717 20.4432 9.22996 20.5011 9.15554C20.5673 9.07284 20.6169 8.99014 20.65 8.90745C21.1379 7.69182 21.6051 6.46792 22.0516 5.23575C22.4982 4.00358 22.9324 2.76728 23.3541 1.52684C23.3872 1.43588 23.4285 1.31183 23.4782 1.15471C23.5278 0.997589 23.5526 0.87768 23.5526 0.794985C23.5526 0.745367 23.5402 0.704019 23.5154 0.670941C23.4988 0.629593 23.4906 0.588245 23.4906 0.546897C23.4906 0.49728 23.5236 0.472471 23.5898 0.472471C23.6642 0.447662 23.7428 0.435258 23.8255 0.435258C23.9082 0.426988 23.9909 0.418718 24.0736 0.410449C24.2555 0.38564 24.4333 0.360832 24.607 0.336023C24.7889 0.311214 24.9708 0.286405 25.1527 0.261597L28.1422 8.80821C28.2166 9.02322 28.3159 9.1514 28.4399 9.19275C28.5639 9.2341 28.6797 9.25064 28.7872 9.24237C28.8782 9.24237 28.9568 9.25064 29.0229 9.26717C29.0891 9.28371 29.1221 9.34987 29.1221 9.46565Z" fill="white"/>
</g>
<defs>
<clipPath id="clip0_515_1192">
<rect width="30" height="10" fill="white"/>
</clipPath>
</defs>
</svg>
