<svg width="18" height="18" viewBox="0 0 18 18" fill="none" xmlns="http://www.w3.org/2000/svg">
<g clip-path="url(#clip0_515_1140)">
<g clip-path="url(#clip1_515_1140)">
<path d="M13.0334 8.71352H9.41455V9.71451H9.89918V14.8249L9.34336 14.9098L9.5252 15.94L11.6241 15.524V17.1382H12.5822V15.3258L13.0754 15.2263L13.0239 14.2657L12.583 14.3403V9.71365H13.0334V8.71266V8.71352ZM11.6241 9.71451V10.7043H10.8435V9.71365H11.6241V9.71451ZM11.6241 12.6111H10.8435V11.6213H11.6241V12.6111ZM10.8435 13.5229H11.6241V14.5136L10.8435 14.6568V13.5229ZM17.8959 13.7605V12.8538H12.8026V13.7605H13.9005C13.7676 14.258 13.614 14.7486 13.4399 15.2315H16.3631C16.2988 15.6844 16.2139 15.958 16.1092 16.0549C16.0083 16.1202 15.8883 16.1495 15.7687 16.1381C15.405 16.1381 15.0422 16.1184 14.6811 16.0781C14.7797 16.2299 14.8569 16.3954 14.9109 16.5687C14.9624 16.7377 14.9967 16.9127 15.0113 17.0885C15.4127 17.1099 15.8141 17.1065 16.2139 17.0799C16.3597 17.0739 16.5029 17.0405 16.6359 16.9804C16.7597 16.9364 16.8701 16.8614 16.9567 16.7626C17.0785 16.6305 17.1745 16.4092 17.244 16.0987C17.3709 15.5257 17.4464 14.9424 17.4696 14.3549H14.8012L14.9684 13.7605H17.8959ZM15.8407 8.3567H14.8492V9.10894H13.1715V12.4284H17.5228V9.10894H15.8416V8.3567H15.8407ZM16.5355 9.88176V10.4118H15.8407V9.88176H16.5355ZM14.8492 9.88176V10.4118H14.1055V9.88176H14.8492ZM15.8407 11.6556V11.1349H16.5355V11.6556H15.8407ZM14.8492 11.1349V11.6556H14.1055V11.1349H14.8492ZM4.77161 8.45105L3.56048 8.32668L3.51759 9.02145H0.229017V10.0121H3.39665L3.3246 10.4925H1.18797V15.8817H0V16.8912H8.34238V15.8808H7.17242V10.4968H4.39334L4.48941 10.0156H8.10736V9.02574H4.6764L4.77161 8.45105ZM6.07022 12.7406V13.2124H2.2387V12.7406H6.07108H6.07022ZM6.07022 11.4231V11.9189H2.2387V11.4231H6.07108H6.07022ZM2.2387 14.5333V14.0332H6.07108V14.5333H2.2387ZM2.2387 15.8799V15.355H6.07108V15.8808H2.2387V15.8799ZM13.4691 1.54625C13.3634 1.43682 13.248 1.3372 13.1243 1.24861C13.0008 1.16175 12.8671 1.09032 12.7263 1.03589C12.59 0.973407 12.4469 0.926784 12.3 0.89694C12.1517 0.867115 12.0009 0.851889 11.8497 0.85148C11.6034 0.849996 11.3586 0.890309 11.1257 0.970706C10.9199 1.04361 10.7278 1.15684 10.5596 1.30265C10.4061 1.43989 10.2809 1.60886 10.1917 1.79757C10.1059 1.99142 10.0613 2.20328 10.0621 2.41686C10.0604 2.59527 10.0896 2.77367 10.1479 2.94179C10.2028 3.0919 10.2834 3.23085 10.3829 3.35351C10.4824 3.46844 10.5948 3.56966 10.7183 3.65543C10.8444 3.73692 10.9756 3.80725 11.1112 3.86815L11.8016 4.17522C11.9955 4.25499 12.1833 4.35106 12.3617 4.46256C12.4242 4.51654 12.4775 4.58027 12.5196 4.65127C12.5559 4.73113 12.5752 4.81772 12.5761 4.90547C12.577 4.99322 12.5595 5.08018 12.5247 5.16076C12.489 5.24039 12.4328 5.30907 12.3617 5.35976C12.2854 5.42017 12.1971 5.46373 12.1027 5.48756C11.9886 5.51844 11.8711 5.53388 11.7528 5.53217C11.5116 5.52809 11.2743 5.47068 11.058 5.36405C10.8287 5.25655 10.6184 5.11258 10.4353 4.93775L9.84171 5.67541C9.96694 5.8015 10.1033 5.91386 10.2491 6.0125C10.5425 6.20806 10.8693 6.34359 11.2115 6.41392C11.3831 6.44652 11.5555 6.46367 11.7296 6.46367C12.0015 6.46684 12.2719 6.42332 12.529 6.33501C12.7503 6.25781 12.9536 6.13773 13.1286 5.97819C13.2915 5.83389 13.4194 5.65437 13.5025 5.45325C13.5883 5.25683 13.6329 5.04411 13.6321 4.82968C13.6337 4.65344 13.6076 4.47805 13.5549 4.30989C13.5114 4.16278 13.4416 4.02474 13.349 3.90246C13.253 3.7841 13.14 3.68062 13.0136 3.59539C12.8807 3.50104 12.7374 3.42384 12.5873 3.36294L11.9071 3.06016C11.7096 2.98706 11.52 2.89424 11.341 2.78311C11.2688 2.73797 11.2096 2.67468 11.1695 2.59955C11.1241 2.52677 11.1003 2.44259 11.1009 2.35681C11.0978 2.27566 11.1146 2.19497 11.1497 2.12174C11.1848 2.04852 11.2372 1.98494 11.3024 1.93652C11.4646 1.82501 11.6558 1.77183 11.8497 1.78213C12.0495 1.78127 12.2485 1.82158 12.4338 1.90221C12.6216 1.98027 12.794 2.09091 12.9467 2.22815L13.4699 1.55054V1.54625H13.4691ZM3.62824 2.28819C3.63442 2.06958 3.5842 1.85305 3.48242 1.65947C3.39331 1.48765 3.25703 1.34483 3.08958 1.24776C2.90698 1.13784 2.70582 1.06226 2.49602 1.02474C2.2508 0.979293 2.00175 0.957748 1.75236 0.960413H0.042887V6.35988H1.88703C2.15464 6.36246 2.42226 6.32901 2.68301 6.26039C2.90774 6.20378 3.12303 6.10599 3.31516 5.96876C3.49615 5.84438 3.64368 5.67369 3.74146 5.47298C3.79293 5.37005 3.83152 5.2594 3.8564 5.14618C3.88213 5.02181 3.895 4.89658 3.89414 4.76964C3.89579 4.60161 3.87001 4.43444 3.8178 4.27472C3.77482 4.13897 3.70642 4.01264 3.61623 3.90246C3.52929 3.80015 3.42578 3.71316 3.31002 3.64514C3.18929 3.57367 3.05864 3.52049 2.92232 3.48731V3.45215C3.0304 3.41098 3.13075 3.35093 3.2191 3.27374C3.30487 3.19054 3.3795 3.09533 3.43954 2.99068C3.56134 2.77625 3.62567 2.53265 3.62652 2.28305V2.28819H3.62824ZM2.09975 1.81815C2.20182 1.83702 2.2996 1.87819 2.38709 1.93652C2.46257 1.9837 2.52433 2.05317 2.56464 2.1338C2.602 2.23056 2.61978 2.33376 2.61696 2.43744C2.61829 2.53877 2.60054 2.63945 2.56464 2.73422C2.52837 2.82158 2.47052 2.89831 2.39653 2.95723C2.3065 3.02157 2.20612 3.07002 2.09975 3.10047C1.96196 3.136 1.82001 3.15274 1.67774 3.15022H1.07389V1.77355H1.69747C1.8326 1.77192 1.9675 1.78515 2.09975 1.81301V1.81815ZM1.07303 3.95221H1.79182C1.95136 3.95049 2.11004 3.96593 2.26615 3.99767C2.38623 4.0174 2.50203 4.06114 2.60667 4.12633C2.69673 4.18037 2.76964 4.26185 2.81253 4.35964C2.86657 4.46256 2.89316 4.57836 2.88973 4.69587C2.89174 4.82247 2.86536 4.94791 2.81253 5.06298C2.76574 5.16415 2.6951 5.25245 2.60667 5.3203C2.50318 5.3913 2.38787 5.44329 2.26615 5.47384C2.11054 5.50898 1.95133 5.52567 1.79182 5.52359H1.07303V3.95221ZM5.91841 1.0419C5.77941 1.10015 5.64875 1.17659 5.52985 1.2692C5.40519 1.36204 5.29126 1.46849 5.19018 1.58656C5.0853 1.70836 4.99359 1.84091 4.91656 1.98198C4.83393 2.13356 4.76669 2.29304 4.71585 2.45803C4.6601 2.63815 4.61807 2.82085 4.59148 3.00784C4.53245 3.42318 4.53245 3.84479 4.59148 4.26014C4.61807 4.44884 4.6601 4.63497 4.71585 4.8151C4.76818 4.98407 4.83594 5.14618 4.91656 5.30143C4.99548 5.44468 5.08811 5.58106 5.19018 5.70714C5.29054 5.82809 5.40462 5.93616 5.52985 6.0288C5.64993 6.12315 5.78117 6.20292 5.91841 6.26725C6.06165 6.33415 6.21347 6.38219 6.36872 6.41135C6.69466 6.47654 7.02918 6.47654 7.35512 6.41135C7.51037 6.38133 7.66219 6.33415 7.80629 6.26725C7.94096 6.20206 8.07047 6.12315 8.18884 6.0288C8.31321 5.93445 8.42729 5.82637 8.53022 5.70714C8.6305 5.57954 8.72001 5.44384 8.79784 5.30143C8.8819 5.14704 8.95137 4.98407 9.0037 4.8151C9.06031 4.63497 9.10148 4.44884 9.12893 4.261C9.18707 3.8453 9.18707 3.42353 9.12893 3.00784C9.1019 2.82301 9.06031 2.6406 9.00455 2.46232C8.95221 2.29557 8.88294 2.13463 8.79784 1.98198C8.71993 1.84287 8.63041 1.7106 8.53022 1.58656C8.42558 1.47165 8.31169 1.36551 8.1897 1.2692C8.07122 1.17941 7.94217 1.10451 7.80543 1.04619C7.66249 0.977172 7.51109 0.927281 7.35512 0.897798C7.02869 0.838691 6.69429 0.838691 6.36786 0.897798C6.21261 0.926103 6.06079 0.974995 5.91755 1.0419H5.91841ZM5.60104 3.63656C5.59822 3.37302 5.62877 3.11017 5.69196 2.8543C5.7417 2.64755 5.82766 2.45125 5.94585 2.27447C6.04304 2.12129 6.17771 1.99545 6.33711 1.90884C6.49651 1.82224 6.67537 1.77774 6.85677 1.77955C7.04036 1.77737 7.22152 1.82163 7.38342 1.90822C7.54125 1.9957 7.67591 2.12093 7.77713 2.27447C7.89532 2.45125 7.98128 2.64755 8.03102 2.8543C8.09106 3.11077 8.11937 3.37409 8.11679 3.63656C8.11937 3.90074 8.0902 4.16407 8.03102 4.41968C7.97955 4.63325 7.89378 4.83568 7.77713 5.01924C7.67591 5.17363 7.54039 5.30229 7.38342 5.39493C7.2225 5.48468 7.04102 5.53108 6.85677 5.52959C6.67532 5.53046 6.49676 5.48405 6.3387 5.39493C6.1807 5.30144 6.04629 5.17291 5.94585 5.01924C5.82864 4.8348 5.74285 4.6322 5.69196 4.41968C5.62909 4.16346 5.59855 3.90037 5.60104 3.63656ZM17.0862 1.03761C16.9503 0.973902 16.8071 0.926953 16.6599 0.897798C16.2705 0.818393 15.8671 0.84385 15.4908 0.971564C15.2802 1.04577 15.0853 1.15864 14.9161 1.30437C14.7635 1.444 14.6397 1.61213 14.5516 1.79928C14.4658 1.99313 14.422 2.20499 14.4229 2.41857C14.4212 2.59698 14.4503 2.77539 14.5087 2.94351C14.5636 3.09361 14.6433 3.23257 14.7428 3.35522C14.8423 3.47016 14.9547 3.57137 15.0782 3.65715C15.2009 3.73863 15.3287 3.80982 15.4616 3.86987L16.1564 4.17694C16.352 4.25671 16.5389 4.35277 16.7174 4.46428C16.7798 4.51826 16.8331 4.58198 16.8752 4.65298C16.9155 4.73018 16.9352 4.81681 16.9326 4.90516C16.9335 4.99366 16.9157 5.08135 16.8803 5.16248C16.8424 5.24047 16.7866 5.30837 16.7174 5.36062C16.6405 5.42 16.5528 5.46372 16.4592 5.48928C16.3434 5.5203 16.2239 5.53531 16.1041 5.53388C15.8646 5.52933 15.6291 5.47192 15.4144 5.36576C15.184 5.25761 14.9721 5.11374 14.7866 4.93947L14.1922 5.67712C14.32 5.80235 14.4581 5.91472 14.6047 6.01422C14.7506 6.11286 14.9067 6.19606 15.0688 6.26296C15.2317 6.32815 15.3973 6.37875 15.5671 6.41564C15.7387 6.44823 15.9111 6.46539 16.0852 6.46539C16.3571 6.46882 16.6273 6.42507 16.8855 6.33673C17.105 6.25953 17.3092 6.13859 17.4833 5.97991C17.6462 5.83561 17.7741 5.65609 17.8573 5.45497C17.9431 5.25855 17.9885 5.04583 17.9877 4.83139C17.9893 4.65487 17.9633 4.47919 17.9105 4.31074C17.8642 4.16502 17.7947 4.02773 17.7046 3.90418C17.6086 3.78582 17.4956 3.68234 17.3692 3.59711C17.2366 3.50341 17.0935 3.42541 16.9429 3.36466L16.2627 3.06188C16.0652 2.98877 15.8756 2.89595 15.6966 2.78483C15.6244 2.73969 15.5652 2.6764 15.5251 2.60127C15.4797 2.52849 15.4559 2.44431 15.4565 2.35853C15.4535 2.2773 15.4704 2.19657 15.5057 2.12333C15.5409 2.0501 15.5935 1.98656 15.6589 1.93824C15.8202 1.82759 16.0114 1.77355 16.2044 1.78384C16.4051 1.78299 16.6041 1.8233 16.7894 1.90393C16.9772 1.98198 17.1497 2.09263 17.3023 2.22987L17.8247 1.55054C17.7187 1.44137 17.603 1.34204 17.479 1.25376C17.357 1.16676 17.2255 1.09395 17.087 1.03675L17.0862 1.03761Z" fill="white"/>
</g>
</g>
<defs>
<clipPath id="clip0_515_1140">
<rect width="18" height="18" fill="white"/>
</clipPath>
<clipPath id="clip1_515_1140">
<rect width="18" height="18" fill="white"/>
</clipPath>
</defs>
</svg>
