<svg width="18" height="18" viewBox="0 0 18 18" fill="none" xmlns="http://www.w3.org/2000/svg">
<g clip-path="url(#clip0_515_1148)">
<g clip-path="url(#clip1_515_1148)">
<path d="M13.56 3.42749L13.11 4.22999L14.505 3.95999C14.505 3.95999 15 2.99999 13.56 3.42749ZM9.74998 6.81748L10.9125 6.45748L11.0925 5.83499L9.83998 6.27748L9.74998 6.81748ZM10.29 4.94249L11.445 4.67249L11.625 3.92249L10.4625 4.19249L10.29 4.94249ZM12.4275 6.10499L13.8525 5.74499L14.2125 4.85249L12.7125 5.30249L12.4275 6.10499ZM4.81499 10.1175L6.24748 9.57748L6.32998 8.42248L5.08499 9.04498L4.81499 10.1175ZM7.06498 3.86999L6.31498 4.13999L6.15748 5.12249L6.86998 4.94249L7.06498 3.86999ZM5.43749 7.49998L6.50998 7.13998L6.68998 6.16499L5.70749 6.42748L5.43749 7.49998ZM15 0H2.99999C2.20435 0 1.44129 0.31607 0.878677 0.878678C0.31607 1.44129 0 2.20435 0 2.99999L0 15V12.24L3.74999 10.56L4.81499 4.67249L3.31499 5.38499L3.67499 3.13499C5.4091 2.7723 7.1617 2.5044 8.92498 2.33249L7.67998 9.08248C10.5764 7.95168 13.5551 7.04404 16.59 6.36749L16.32 7.43998C14.3945 8.03681 12.5408 8.84419 10.7925 9.84748L10.9725 10.1175C10.9725 10.1175 14.2725 8.33248 14.625 10.56C14.625 10.56 15.075 11.5425 13.9125 12.8775C12.1231 14.5277 9.99285 15.7644 7.67248 16.5C7.67248 16.455 7.76248 15.6525 7.76248 15.6525C7.76248 15.6525 11.415 14.0475 12.3975 11.82C12.3975 11.82 12.8475 10.125 10.6125 11.1075C10.1269 11.3705 9.70255 11.7335 9.36748 12.1725L8.47498 11.82C8.59873 11.3228 8.77471 10.8401 8.99998 10.38L7.22248 11.19L6.41998 15.75L5.43749 16.11L5.88749 11.9175C5.88749 11.9175 1.7475 14.0925 0 15.3075C0.0763665 16.0487 0.425845 16.7349 0.980392 17.2327C1.53494 17.7304 2.25486 18.0039 2.99999 18H15C15.7956 18 16.5587 17.6839 17.1213 17.1213C17.6839 16.5587 18 15.7956 18 15V2.99999C18 2.20435 17.6839 1.44129 17.1213 0.878678C16.5587 0.31607 15.7956 0 15 0ZM15.4275 4.13999L14.3625 6.54748L8.20498 8.42248C8.20498 8.42248 9.18748 2.42249 9.36748 2.26499L11.325 2.085L11.0625 2.71499L12.045 2.44499L12.6675 0.749998H14.805L14.1825 2.085C14.1825 2.085 16.2375 1.8225 15.4275 4.13999Z" fill="white"/>
</g>
</g>
<defs>
<clipPath id="clip0_515_1148">
<rect width="18" height="18" fill="white"/>
</clipPath>
<clipPath id="clip1_515_1148">
<rect width="18" height="18" fill="white"/>
</clipPath>
</defs>
</svg>
