<svg width="18" height="18" viewBox="0 0 18 18" fill="none" xmlns="http://www.w3.org/2000/svg">
<g clip-path="url(#clip0_515_1167)">
<g clip-path="url(#clip1_515_1167)">
<path d="M6.30196 3.69394C6.58771 3.26869 7.29927 3.26869 7.58502 3.69394L8.99971 5.79881L10.4144 3.69394C10.7001 3.26869 11.4123 3.26869 11.698 3.69394L17.8675 12.8722C18.029 13.1068 18.0447 13.4094 17.9103 13.6586C17.7753 13.9078 17.5131 14.0636 17.2274 14.0625H13.115C12.8562 14.0625 12.6155 13.9348 12.4726 13.7216L11.0579 11.6167L9.64321 13.7216C9.57209 13.8265 9.47633 13.9123 9.36434 13.9715C9.25234 14.0307 9.12753 14.0616 9.00083 14.0614C8.74321 14.0614 8.50246 13.9342 8.35902 13.7216L6.94377 11.6167L5.52908 13.7216C5.45804 13.8265 5.3624 13.9124 5.25053 13.9718C5.13866 14.0312 5.01394 14.0624 4.88727 14.0625H0.774271C0.634668 14.0631 0.497514 14.0258 0.377378 13.9547C0.257242 13.8836 0.15861 13.7813 0.0919583 13.6586C-0.0430417 13.4094 -0.0272917 13.1074 0.132458 12.8722L6.30196 3.69394ZM6.94377 5.49731L2.21483 12.5325H4.4744V12.5336L8.07327 7.17862L6.94377 5.49787V5.49731ZM13.1138 8.55675L11.9832 10.2375L13.525 12.5319H15.7846L13.1138 8.55675ZM11.0568 5.49675L7.87077 10.2364L8.99971 11.9171H9.00083L12.1868 7.17694L11.0562 5.49619L11.0568 5.49675Z" fill="white"/>
</g>
</g>
<defs>
<clipPath id="clip0_515_1167">
<rect width="18" height="18" fill="white"/>
</clipPath>
<clipPath id="clip1_515_1167">
<rect width="18" height="18" fill="white"/>
</clipPath>
</defs>
</svg>
