<svg width="26" height="26" viewBox="0 0 26 26" fill="none" xmlns="http://www.w3.org/2000/svg">
<g clip-path="url(#clip0_515_1010)">
<path d="M21.6 15.7601L8.1725 22.1541C7.8838 22.2949 7.56318 22.3573 7.24276 22.3352C6.92234 22.313 6.61337 22.207 6.34679 22.0279C6.08022 21.8487 5.8654 21.6027 5.72385 21.3144C5.5823 21.026 5.519 20.7056 5.54028 20.3851L6.70187 5.54028C6.72913 5.22048 6.8399 4.91345 7.02307 4.6499C7.20625 4.38634 7.45542 4.17551 7.74566 4.03848C8.03589 3.90145 8.35702 3.84304 8.67692 3.86908C8.99682 3.89512 9.30428 4.00471 9.56853 4.18687L10.4104 4.76234L14.2149 7.36258L17.5078 9.62181L21.1844 12.1475L21.8451 12.595C22.1104 12.777 22.3232 13.0255 22.462 13.3157C22.6009 13.6059 22.6609 13.9276 22.6361 14.2483C22.6112 14.5691 22.5024 14.8776 22.3205 15.143C22.1387 15.4084 21.8902 15.6212 21.6 15.7601Z" fill="#E24B4B"/>
<path d="M21.1843 12.1474C20.6728 13.8952 16.2183 15.6961 14.2468 16.4101C14.2044 16.8353 14.054 17.2425 13.8099 17.593C13.4305 18.1122 12.8608 18.4598 12.2256 18.5597C11.5903 18.6595 10.9414 18.5036 10.421 18.1259C10.2246 17.9792 10.0521 17.8031 9.90951 17.6037C9.81048 17.8207 9.78711 18.0646 9.84314 18.2965C9.89917 18.5283 10.0314 18.7347 10.2186 18.8825C10.2751 18.9249 10.3124 18.988 10.3224 19.058C10.3324 19.1279 10.3142 19.1989 10.2718 19.2555C10.2294 19.312 10.1663 19.3493 10.0964 19.3593C10.0264 19.3693 9.95538 19.3512 9.89885 19.3088C9.5726 19.0534 9.35502 18.684 9.28979 18.2749C9.22456 17.8657 9.31651 17.447 9.54718 17.1028H9.47258C9.21534 17.4295 8.84505 17.6479 8.43472 17.7149C8.0244 17.782 7.60384 17.6929 7.25598 17.4652C7.19946 17.4228 7.16209 17.3597 7.15209 17.2897C7.1421 17.2198 7.1603 17.1487 7.2027 17.0922C7.22093 17.0626 7.24522 17.0372 7.27397 17.0177C7.30272 16.9981 7.33528 16.9849 7.36951 16.9789C7.40374 16.9728 7.43886 16.9741 7.47256 16.9826C7.50625 16.9911 7.53777 17.0067 7.56503 17.0282C7.75962 17.1572 7.9912 17.2188 8.22416 17.2034C8.45712 17.188 8.67858 17.0965 8.85449 16.943C8.35409 16.7652 7.93104 16.419 7.65774 15.9636C7.40668 15.5562 7.28209 15.0835 7.29973 14.6053C7.31737 14.1271 7.47645 13.6649 7.75685 13.2771C8.00763 12.9316 8.34609 12.6594 8.73727 12.4885C8.82252 10.5809 9.15288 6.24362 10.4104 4.76233L14.2148 7.36257C14.1927 8.62806 14.0246 9.88677 13.714 11.1137C13.7089 11.1479 13.7131 11.1827 13.7262 11.2146C13.7394 11.2465 13.7609 11.2743 13.7886 11.2949C13.819 11.3138 13.854 11.3238 13.8898 11.3238C13.9256 11.3238 13.9606 11.3138 13.991 11.2949C15.0919 10.5926 16.2724 10.0237 17.5078 9.60049L21.1843 12.1474Z" fill="#F9F9F9"/>
</g>
<defs>
<clipPath id="clip0_515_1010">
<rect width="26" height="26" fill="white"/>
</clipPath>
</defs>
</svg>
