<svg width="25" height="25" viewBox="0 0 25 25" fill="none" xmlns="http://www.w3.org/2000/svg">
<g clip-path="url(#clip0_515_750)">
<g clip-path="url(#clip1_515_750)">
<path d="M2.38723 0H22.058C23.6494 0 24.4452 0.795742 24.4452 2.38723V22.058C24.4452 23.6494 23.6494 24.4452 22.058 24.4452H2.38723C0.795742 24.4452 0 23.6494 0 22.058V2.38723C0 0.795742 0.795742 0 2.38723 0Z" fill="#3178C6"/>
<path d="M15.1322 19.4523V21.8424C15.5207 22.0416 15.9802 22.191 16.5108 22.2906C17.0413 22.3902 17.6005 22.4399 18.1883 22.4399C18.7612 22.4399 19.3054 22.3852 19.821 22.2756C20.3365 22.1661 20.7886 21.9856 21.1772 21.7341C21.5657 21.4827 21.8733 21.154 22.1 20.7482C22.3266 20.3423 22.44 19.8407 22.44 19.2432C22.44 18.8099 22.3752 18.4303 22.2457 18.1041C22.1162 17.778 21.9294 17.4879 21.6853 17.234C21.4412 16.98 21.1485 16.7522 20.8073 16.5505C20.4661 16.3488 20.0813 16.1584 19.6528 15.9792C19.339 15.8497 19.0576 15.724 18.8085 15.602C18.5594 15.4799 18.3477 15.3555 18.1733 15.2285C17.999 15.1015 17.8645 14.9671 17.7698 14.8252C17.6752 14.6832 17.6279 14.5227 17.6279 14.3434C17.6279 14.1791 17.6702 14.0309 17.7549 13.899C17.8396 13.767 17.9592 13.6538 18.1136 13.5591C18.268 13.4646 18.4573 13.3911 18.6814 13.3388C18.9056 13.2865 19.1547 13.2604 19.4287 13.2604C19.6279 13.2604 19.8384 13.2753 20.0601 13.3052C20.2817 13.3351 20.5047 13.3811 20.7289 13.4434C20.9524 13.5054 21.1709 13.584 21.3827 13.6786C21.5944 13.7733 21.7899 13.8828 21.9692 14.0073V11.774C21.6056 11.6346 21.2083 11.5313 20.7774 11.4641C20.3465 11.3968 19.8521 11.3632 19.2942 11.3632C18.7263 11.3632 18.1883 11.4242 17.6802 11.5462C17.1721 11.6682 16.725 11.8587 16.3389 12.1176C15.9528 12.3765 15.6477 12.7064 15.4236 13.1073C15.1994 13.5081 15.0873 13.9874 15.0873 14.5451C15.0873 15.2571 15.2928 15.8646 15.7038 16.3676C16.1147 16.8705 16.7387 17.2962 17.5756 17.6448C17.9043 17.7792 18.2107 17.9111 18.4947 18.0406C18.7786 18.1701 19.024 18.3046 19.2306 18.444C19.4374 18.5834 19.6005 18.7353 19.7201 18.8996C19.8397 19.0639 19.8994 19.2506 19.8994 19.4598C19.8994 19.6141 19.8621 19.7573 19.7873 19.8892C19.7126 20.0212 19.5993 20.1357 19.4474 20.2328C19.2954 20.3299 19.1061 20.4058 18.8795 20.4606C18.6528 20.5154 18.3876 20.5428 18.0837 20.5428C17.5656 20.5428 17.0525 20.4519 16.5444 20.2701C16.0363 20.0884 15.5655 19.8158 15.1322 19.4523ZM11.114 13.5634H14.1802V11.6019H5.63391V13.5634H8.68507V22.2967H11.114V13.5634Z" fill="white"/>
</g>
</g>
<defs>
<clipPath id="clip0_515_750">
<rect width="25" height="25" fill="white"/>
</clipPath>
<clipPath id="clip1_515_750">
<rect width="24.4452" height="24.4452" fill="white"/>
</clipPath>
</defs>
</svg>
