<svg width="22" height="14" viewBox="0 0 22 14" fill="none" xmlns="http://www.w3.org/2000/svg">
<g clip-path="url(#clip0_515_1111)">
<path d="M10.1142 3.23719C10.1142 3.36291 10.0399 3.46576 9.89133 3.54576C9.75419 3.62576 9.63419 3.66576 9.53133 3.66576C9.31419 3.66576 9.16562 3.63147 9.08563 3.5629C9.00563 3.4829 8.94849 3.37433 8.9142 3.23719C8.8342 2.92863 8.7142 2.6372 8.55421 2.36292C8.40564 2.07721 8.20564 1.84864 7.95422 1.67722C7.71422 1.49437 7.41137 1.40294 7.04566 1.40294H4.31999V6.49428H5.38283C5.77139 6.49428 6.18853 6.47714 6.63424 6.44286C7.07994 6.40857 7.49708 6.35143 7.88565 6.27143C8.04564 6.23714 8.21136 6.19143 8.38278 6.13429C8.56563 6.07715 8.74277 6.04858 8.9142 6.04858C9.08563 6.04858 9.17134 6.12286 9.17134 6.27143C9.17134 6.35143 9.14848 6.46571 9.10277 6.61428C9.05706 6.76285 9.02277 6.88285 8.99991 6.97427C8.9542 7.12284 8.89134 7.21427 8.81134 7.24856C8.74277 7.28284 8.62849 7.29998 8.46849 7.29998C7.96564 7.29998 7.43422 7.27141 6.87423 7.21427C6.31424 7.15713 5.78282 7.12856 5.27997 7.12856C5.05141 7.12856 4.83427 7.17999 4.62856 7.28284C4.42285 7.3857 4.31999 7.56855 4.31999 7.8314V11.7913C4.31999 12.1228 4.37713 12.3513 4.49142 12.477C4.6057 12.5913 4.7657 12.6542 4.97141 12.6656C5.17712 12.6656 5.4114 12.6656 5.67425 12.6656C5.77711 12.6656 5.86854 12.6885 5.94853 12.7342C6.03996 12.7685 6.08567 12.8485 6.08567 12.9742C6.08567 13.2256 5.94853 13.3513 5.67425 13.3513C5.61711 13.3513 5.55997 13.3456 5.50283 13.3342C5.44569 13.3342 5.38854 13.3342 5.3314 13.3342C4.95427 13.3113 4.57713 13.2999 4.19999 13.2999C3.83428 13.2999 3.46286 13.2999 3.08572 13.2999C2.70859 13.2999 2.33145 13.3113 1.95431 13.3342C1.57718 13.3685 1.20004 13.3856 0.822905 13.3856C0.720049 13.3856 0.622908 13.3685 0.531481 13.3342C0.440054 13.2999 0.39434 13.2256 0.39434 13.1113C0.39434 12.9399 0.440054 12.837 0.531481 12.8027C0.634336 12.7685 0.760049 12.757 0.908618 12.7685C1.05719 12.7685 1.20576 12.7513 1.35432 12.717C1.50289 12.6828 1.62289 12.5856 1.71432 12.4256C1.81717 12.2656 1.8686 12.0028 1.8686 11.6371V2.27721C1.8686 2.04864 1.83432 1.86007 1.76575 1.7115C1.69718 1.56294 1.53146 1.48865 1.26861 1.48865C1.16576 1.48865 1.0629 1.49437 0.960045 1.50579C0.85719 1.50579 0.754334 1.50579 0.651479 1.50579C0.50291 1.50579 0.354341 1.48865 0.205772 1.45437C0.0686313 1.42008 6.10352e-05 1.31151 6.10352e-05 1.12866C6.10352e-05 1.00294 0.0343462 0.911518 0.102916 0.854376C0.182915 0.785805 0.280056 0.75152 0.39434 0.75152C0.794334 0.75152 1.18861 0.762948 1.57718 0.785805C1.97717 0.797234 2.37145 0.802948 2.76002 0.802948C3.59429 0.802948 4.4457 0.802948 5.31426 0.802948C6.19424 0.79152 7.05137 0.774377 7.88565 0.75152C8.19421 0.740092 8.50278 0.728663 8.81134 0.717235C9.13134 0.705807 9.44562 0.677236 9.75419 0.631522C9.7999 0.962945 9.84561 1.31151 9.89133 1.67722C9.94847 2.0315 9.9999 2.37435 10.0456 2.70577C10.057 2.78577 10.0685 2.87149 10.0799 2.96291C10.1028 3.05434 10.1142 3.14577 10.1142 3.23719Z" fill="#0C0C0C"/>
<path d="M22 3.8029C22 3.92861 21.9657 4.04289 21.8972 4.14575C21.84 4.23718 21.7372 4.28289 21.5886 4.28289C21.4057 4.28289 21.2743 4.24861 21.1943 4.18004C21.1143 4.10004 21.0515 3.97432 21.0057 3.8029C20.9715 3.65433 20.9143 3.46576 20.8343 3.23719C20.7543 2.9972 20.6686 2.76292 20.5772 2.53435C20.4972 2.30578 20.4172 2.12864 20.3372 2.00293C20.2915 1.93436 20.24 1.8715 20.1829 1.81436C20.1258 1.74579 20.0686 1.68293 20.0115 1.62579C19.92 1.52294 19.7658 1.45437 19.5486 1.42008C19.3315 1.37437 19.1086 1.35151 18.8801 1.35151C18.6515 1.34008 18.4686 1.33437 18.3315 1.33437C18.2401 1.33437 18.1429 1.34008 18.0401 1.35151C17.9372 1.35151 17.8401 1.36865 17.7487 1.40294C17.5544 1.48294 17.4515 1.63151 17.4401 1.84864C17.4287 2.10007 17.4229 2.35149 17.4229 2.60292C17.4229 2.84291 17.4229 3.08862 17.4229 3.34005V5.00288C17.4229 6.18 17.4229 7.35713 17.4229 8.53425C17.4344 9.71137 17.4401 10.8885 17.4401 12.0656C17.4401 12.1799 17.4515 12.3228 17.4744 12.4942C17.5087 12.6542 17.6115 12.7342 17.7829 12.7342C17.9544 12.7342 18.1201 12.7285 18.2801 12.717C18.4515 12.7056 18.6229 12.6999 18.7943 12.6999C18.8858 12.6999 18.9601 12.7342 19.0172 12.8027C19.0858 12.8713 19.1201 12.9513 19.1201 13.0427C19.1201 13.1342 19.0858 13.2142 19.0172 13.2827C18.9486 13.3399 18.8686 13.3685 18.7772 13.3685C18.6515 13.3685 18.5201 13.357 18.3829 13.3342C18.2572 13.3227 18.1315 13.3113 18.0058 13.2999C17.8458 13.2885 17.6858 13.2827 17.5258 13.2827C17.3658 13.2827 17.2058 13.2827 17.0458 13.2827C16.623 13.2827 16.1887 13.2827 15.743 13.2827C15.2973 13.2827 14.8573 13.2942 14.423 13.317C14.2859 13.3285 14.143 13.3399 13.9944 13.3513C13.8573 13.3627 13.7201 13.3685 13.583 13.3685C13.3316 13.3685 13.2059 13.2427 13.2059 12.9913C13.2059 12.8542 13.263 12.7742 13.3773 12.7513C13.503 12.717 13.6173 12.6999 13.7201 12.6999C13.8344 12.6999 13.943 12.7056 14.0459 12.717C14.1601 12.7285 14.2744 12.7342 14.3887 12.7342C14.6744 12.7342 14.8287 12.6599 14.8516 12.5113C14.8858 12.3628 14.903 12.1799 14.903 11.9628V2.10578C14.903 1.82007 14.8744 1.63151 14.8173 1.54008C14.7716 1.43722 14.6744 1.38008 14.5258 1.36865C14.3887 1.35722 14.1887 1.35151 13.9259 1.35151H13.2744C13.1487 1.35151 13.0002 1.35722 12.8287 1.36865C12.6573 1.38008 12.5087 1.42008 12.383 1.48865C12.0973 1.63722 11.9087 1.87722 11.8173 2.20864C11.7373 2.47149 11.6516 2.74006 11.5602 3.01434C11.4688 3.27719 11.3773 3.54005 11.2859 3.8029C11.2288 3.97432 11.1602 4.10004 11.0802 4.18004C11.0116 4.24861 10.8802 4.28289 10.6859 4.28289C10.4345 4.28289 10.3088 4.16289 10.3088 3.9229C10.3088 3.90004 10.3088 3.8829 10.3088 3.87147C10.3202 3.84861 10.3259 3.82575 10.3259 3.8029C10.3488 3.71147 10.3602 3.62004 10.3602 3.52862C10.3602 3.42576 10.3659 3.32862 10.3773 3.23719C10.4002 3.00863 10.4231 2.78006 10.4459 2.55149C10.4802 2.31149 10.5031 2.07721 10.5145 1.84864C10.5259 1.67722 10.5259 1.49436 10.5145 1.30008C10.5031 1.1058 10.5202 0.922946 10.5659 0.75152C10.5773 0.660093 10.6345 0.61438 10.7373 0.61438C10.8745 0.61438 11.0059 0.631522 11.1316 0.665807C11.2688 0.700092 11.4002 0.728663 11.5259 0.75152C11.663 0.774377 11.8002 0.785805 11.9373 0.785805C12.0859 0.785805 12.2287 0.79152 12.3659 0.802948C12.9487 0.814376 13.583 0.825804 14.2687 0.837233C14.9544 0.837233 15.5887 0.837233 16.1715 0.837233C16.8458 0.837233 17.5544 0.831518 18.2972 0.82009C19.0401 0.808662 19.7429 0.802948 20.4058 0.802948C20.4629 0.802948 20.5257 0.802948 20.5943 0.802948C20.6743 0.802948 20.7429 0.797234 20.8 0.785805C20.9257 0.762948 21.0515 0.728663 21.1772 0.682949C21.3029 0.637236 21.4286 0.61438 21.5543 0.61438C21.6457 0.61438 21.7029 0.654379 21.7257 0.734377C21.76 0.951517 21.7829 1.17437 21.7943 1.40294C21.8172 1.63151 21.8343 1.85436 21.8457 2.0715C21.88 2.35721 21.9143 2.64863 21.9486 2.94577C21.9829 3.23148 22 3.51719 22 3.8029Z" fill="#0C0C0C"/>
</g>
<defs>
<clipPath id="clip0_515_1111">
<rect width="22" height="14" fill="white"/>
</clipPath>
</defs>
</svg>
