<svg width="19" height="18" viewBox="0 0 19 18" fill="none" xmlns="http://www.w3.org/2000/svg">
<g clip-path="url(#clip0_515_936)">
<g clip-path="url(#clip1_515_936)">
<path d="M8.12684 0.157593H10.3374C17.8074 2.50883 18.1786 3.03757 16.463 8.84816C16.0738 9.22748 15.5767 9.47703 15.0399 9.56253C11.7381 8.75816 8.91996 6.75005 5.66873 5.85568C5.17724 5.21493 4.95524 4.40766 5.04998 3.6057C5.27498 1.74946 6.83309 1.05196 8.12684 0.157593Z" fill="#7831FE"/>
<path d="M15.3774 9.00004H15.2705C16.8961 8.84817 16.8905 10.2319 17.3574 11.1713C18.1111 16.6219 13.4537 16.3912 10.3262 17.7694H8.12682C6.32683 16.785 5.51684 15.4125 6.37746 13.3763C8.79619 10.7157 11.6143 8.88192 15.3774 9.00004Z" fill="#33CB1F"/>
<path d="M16.7668 11.25L15.2818 9.00003C19.3599 2.8632 12.3006 2.91945 10.3375 0.157593C18.083 0.157593 18.083 0.157593 18.083 7.87504V11.1713C17.6893 11.8519 17.2505 11.88 16.7668 11.25Z" fill="#F8F5FE"/>
<path d="M7.05247 13.4213C6.0906 15.1875 7.25497 16.425 8.12684 17.7356C7.39367 17.6623 6.65502 17.6623 5.92185 17.7356C1.20813 18.7031 -0.60873 16.875 0.381264 12.24C0.533971 12.0719 0.71846 11.9356 0.924093 11.839C1.12973 11.7425 1.35244 11.6876 1.57938 11.6776C3.1375 12.0488 4.71811 11.8744 6.29872 11.835C6.97934 12.1613 7.52497 12.555 7.05247 13.4213Z" fill="#F1F9F0"/>
<path d="M8.12682 0.157615L6.01183 4.20196C4.52122 4.82633 3.37935 6.18758 1.60749 6.24382C1.13336 6.20657 0.692905 5.98432 0.381245 5.62508C-1.30062 -2.11487 4.48184 0.506363 8.12682 0.157615Z" fill="#F6F3FB"/>
<path d="M16.7668 11.2501L18.083 11.1432C18.083 17.7356 18.083 17.7356 10.3375 17.7356C12.1825 15.2719 16.7612 15.4744 16.7668 11.2501Z" fill="#F4FCF3"/>
<path d="M0.381226 5.62511C0.708867 5.59998 1.03795 5.59998 1.36559 5.62511C3.61558 7.8751 3.61558 10.0801 1.36559 12.3019H0.864972L0.381226 12.2513V5.62511Z" fill="#C8C8C8"/>
<path d="M7.05244 13.4213L6.03995 12.24C3.52559 9.6863 3.54809 7.10444 5.9612 4.50009C10.118 3.87009 12.458 6.9807 15.3774 9.00006C12.7562 10.7325 10.6524 13.4607 7.05244 13.4213Z" fill="#F8F9FA"/>
<path d="M5.96122 4.50009C5.69122 7.08194 4.93185 9.67505 6.03996 12.24C4.5156 16.4138 2.93498 14.6925 1.35437 12.285V5.6082C2.27124 3.04322 3.98123 3.09385 6.01184 4.19634L5.96122 4.50009Z" fill="#222222"/>
</g>
</g>
<defs>
<clipPath id="clip0_515_936">
<rect width="19" height="18" fill="white"/>
</clipPath>
<clipPath id="clip1_515_936">
<rect width="18" height="18" fill="white" transform="translate(0.081543)"/>
</clipPath>
</defs>
</svg>
