<svg width="23" height="14" viewBox="0 0 23 14" fill="none" xmlns="http://www.w3.org/2000/svg">
<g clip-path="url(#clip0_515_851)">
<path d="M6.8737 13.1964C5.66506 13.1964 4.61922 12.948 3.73619 12.4513C2.85317 11.9491 2.17158 11.2344 1.69143 10.3072C1.21681 9.37454 0.979492 8.27351 0.979492 7.00416V6.9876C0.979492 5.71825 1.21957 4.61999 1.69971 3.69281C2.18538 2.76563 2.86696 2.05369 3.74447 1.55698C4.6275 1.05476 5.67058 0.80365 6.8737 0.80365C8.08235 0.80365 9.12818 1.05476 10.0112 1.55698C10.8942 2.05921 11.5758 2.77391 12.056 3.70109C12.5361 4.62275 12.7762 5.71825 12.7762 6.9876V7.00416C12.7762 8.27351 12.5361 9.37178 12.056 10.299C11.5758 11.2261 10.8942 11.9408 10.0112 12.4431C9.1337 12.9453 8.08787 13.1964 6.8737 13.1964ZM6.8737 10.6798C7.45319 10.6798 7.94989 10.5308 8.36381 10.2327C8.78325 9.92919 9.10611 9.50423 9.33238 8.95786C9.56418 8.40597 9.68008 7.75473 9.68008 7.00416V6.9876C9.68008 6.23151 9.56418 5.58028 9.33238 5.03391C9.10059 4.48753 8.77497 4.06533 8.35553 3.76731C7.9361 3.46929 7.44215 3.32028 6.8737 3.32028C6.31077 3.32028 5.81959 3.46929 5.40015 3.76731C4.98071 4.05981 4.6551 4.47925 4.4233 5.02563C4.19151 5.572 4.07561 6.22599 4.07561 6.9876V7.00416C4.07561 7.76025 4.19151 8.41425 4.4233 8.96614C4.6551 9.51251 4.97795 9.93471 5.39187 10.2327C5.81131 10.5308 6.30525 10.6798 6.8737 10.6798Z" fill="white"/>
<path d="M14.1587 12.9729V3.93288H17.0975V5.49749H17.172C17.3983 4.94008 17.7377 4.50685 18.1903 4.19779C18.6483 3.88873 19.2168 3.7342 19.8956 3.7342C20.889 3.7342 21.6534 4.03498 22.1887 4.63654C22.7296 5.23259 23 6.0687 23 7.14489V12.9729H20.0612V7.78233C20.0612 7.26355 19.9398 6.85791 19.6969 6.56541C19.4596 6.2729 19.0981 6.12665 18.6125 6.12665C18.3034 6.12665 18.0357 6.20116 17.8095 6.35017C17.5832 6.49366 17.4066 6.69234 17.2796 6.94621C17.1582 7.20008 17.0975 7.49535 17.0975 7.832V12.9729H14.1587Z" fill="white"/>
</g>
<defs>
<clipPath id="clip0_515_851">
<rect width="23" height="14" fill="white"/>
</clipPath>
</defs>
</svg>
