<svg width="15" height="18" viewBox="0 0 15 18" fill="none" xmlns="http://www.w3.org/2000/svg">
<g clip-path="url(#clip0_515_824)">
<path d="M0.48877 9.76123V7.53955C0.48877 2.92529 3.24756 0.0322266 7.73975 0.0322266C9.63184 0.0322266 11.3042 0.544922 12.5249 1.46045C13.6235 2.25391 14.3438 3.30371 14.3438 4.26807C14.3438 5.23242 13.6724 5.8916 12.708 5.8916C12.2319 5.8916 11.8657 5.73291 11.5117 5.37891C10.5229 4.39014 9.60742 3.43799 8.03271 3.43799C5.72559 3.43799 4.51709 4.91504 4.51709 7.73486V9.74902C4.51709 12.5322 5.75 14.0581 7.99609 14.0581C9.7417 14.0581 10.9136 13.0327 10.9136 11.5068V10.7988H9.41211C8.3501 10.7988 7.76416 10.2861 7.76416 9.3584C7.76416 8.44287 8.33789 7.94238 9.41211 7.94238H12.4028C14.0142 7.94238 14.7222 8.63818 14.7222 10.1885V11.2017C14.7222 14.876 11.9512 17.3662 7.8374 17.3662C3.21094 17.3662 0.48877 14.5098 0.48877 9.76123Z" fill="white"/>
</g>
<defs>
<clipPath id="clip0_515_824">
<rect width="15" height="18" fill="white"/>
</clipPath>
</defs>
</svg>
