<svg width="18" height="18" viewBox="0 0 18 18" fill="none" xmlns="http://www.w3.org/2000/svg">
<g clip-path="url(#clip0_515_1152)">
<g clip-path="url(#clip1_515_1152)">
<path d="M6.39169 9.79504C6.18213 9.64366 5.93742 9.60876 5.65798 9.69024L5.08142 9.89982C5.50076 9.93477 5.77442 10.0108 5.90249 10.1268C6.01891 10.2553 6.08318 10.5227 6.0948 10.9306V10.9831L6.30437 11.2978L6.49649 11.1752C6.56635 11.1291 6.60734 11.0821 6.61875 11.0355C6.67715 10.8957 6.70604 10.6974 6.70604 10.4416C6.70604 10.1618 6.60128 9.94644 6.39169 9.79504Z" fill="white"/>
<path d="M15.9429 0H2.05717C0.921006 0 0 0.921006 0 2.05715V15.9428C0 17.079 0.921006 18 2.05715 18H15.9428C17.079 18 18 17.079 18 15.9429V2.05717C18 0.921006 17.079 0 15.9429 0ZM14.0957 6.70307L13.8337 9.8649C13.7988 10.3776 13.8047 10.8321 13.5951 11.228C13.5252 11.356 13.4729 11.5249 13.4379 11.7345C13.4147 11.8625 13.3856 12.043 13.3506 12.2759C13.2226 12.9629 13.0183 13.3355 12.995 13.3937C12.6807 14.477 11.9005 15.1468 10.6543 15.403C9.07058 15.694 7.70187 15.5311 6.54901 14.914C5.39612 14.2964 4.67381 13.4752 4.38295 12.4506C4.26647 12.078 4.25464 11.5424 4.34802 10.8433C4.37129 10.7386 4.44117 10.6101 4.55759 10.4592C4.7208 10.2379 4.81373 10.1094 4.83703 10.0745C4.49917 10.0632 4.26046 10.0163 4.12075 9.93479C3.98102 9.85368 3.87624 9.70773 3.80637 9.49815C3.73648 9.21871 3.75398 8.91577 3.85875 8.58999C3.96357 8.27538 4.12075 8.04229 4.33034 7.89112C4.67984 7.64643 5.04659 7.53587 5.43103 7.5591C5.80384 7.57074 6.11819 7.72233 6.37439 8.01343C6.50268 8.16456 6.64801 8.43256 6.81101 8.81705C6.82267 8.8519 6.90435 8.97419 7.05574 9.18381L7.16052 9.14885V8.59001C7.02077 6.35384 6.92743 4.67074 6.88087 3.54134C6.86941 3.15689 6.93346 2.87749 7.07319 2.7028C7.22435 2.53956 7.47487 2.45805 7.82439 2.45805C8.17369 2.44666 8.45313 2.53956 8.66292 2.73772C8.86085 2.93567 8.96564 3.21532 8.97729 3.57623L9.11702 9.07901C9.12864 9.14885 9.18686 9.25951 9.29169 9.41084C9.38478 9.18979 9.4314 9.07316 9.4314 9.06154V3.57618C9.41975 3.09841 9.542 2.77843 9.79819 2.61519C10.0314 2.47549 10.3982 2.458 10.8989 2.5628C11.4345 2.69111 11.7027 3.04603 11.7027 3.62862L11.563 9.28854C11.563 9.32344 11.6038 9.42245 11.6853 9.58544C11.7784 9.43406 11.825 9.34673 11.825 9.32345L12.1567 4.67673C12.2151 4.04777 12.512 3.75087 13.0475 3.78578C13.8514 3.82073 14.2472 4.1351 14.2355 4.72911C14.2354 4.86882 14.1893 5.52672 14.0957 6.70307Z" fill="white"/>
</g>
</g>
<defs>
<clipPath id="clip0_515_1152">
<rect width="18" height="18" fill="white"/>
</clipPath>
<clipPath id="clip1_515_1152">
<rect width="18" height="18" fill="white"/>
</clipPath>
</defs>
</svg>
