<svg width="24" height="18" viewBox="0 0 24 18" fill="none" xmlns="http://www.w3.org/2000/svg">
<g clip-path="url(#clip0_515_809)">
<path d="M7.74671 0H5.24921V10.8619C5.29667 11.7347 5.20747 12.6097 4.98483 13.455C4.86657 13.9608 4.55846 14.4018 4.12421 14.6869C3.62743 15.0742 3.05119 15.347 2.43671 15.4856L0.186707 15.75V18H0.394832L3.61233 17.5725C4.4729 17.328 5.28128 16.9276 5.99733 16.3913C7.16733 15.3619 7.78046 13.7981 7.78046 11.7169L7.74671 0ZM23.8117 9C23.8355 7.65679 23.6065 6.32108 23.1367 5.0625C22.7356 3.98995 22.0882 3.02659 21.2467 2.25C19.5592 0.770625 17.0955 0 13.878 0H10.188V18H13.8498C17.0673 18 19.5142 17.2181 21.2186 15.705C22.0938 14.9521 22.7553 13.9821 23.1367 12.8925C23.6065 11.6495 23.8355 10.3286 23.8117 9ZM19.5986 3.87562C20.2131 4.44396 20.6605 5.1695 20.8923 5.97375C21.2313 6.94609 21.3969 7.97038 21.3817 9C21.3997 10.006 21.2339 11.0068 20.8923 11.9531C20.6727 12.7659 20.2235 13.4983 19.5986 14.0625C18.3836 15.2212 16.5442 15.75 14.1423 15.75H12.5617V2.1825H14.148C16.5498 2.1825 18.3892 2.745 19.6042 3.90375L19.5986 3.87562Z" fill="white"/>
</g>
<defs>
<clipPath id="clip0_515_809">
<rect width="24" height="18" fill="white"/>
</clipPath>
</defs>
</svg>
