<svg width="22" height="22" viewBox="0 0 22 22" fill="none" xmlns="http://www.w3.org/2000/svg">
<g clip-path="url(#clip0_515_832)">
<path d="M17.3889 8.10944C17.4713 8.10992 17.5535 8.11474 17.6353 8.12387C18.267 8.20726 18.8842 8.37768 19.4692 8.6303C19.6394 8.70651 19.6814 8.76826 19.5349 8.92192C19.1159 9.37091 18.7693 9.88239 18.5076 10.438C18.2251 11.0324 17.9164 11.6144 17.6274 12.2062C17.4133 12.6492 17.115 13.0463 16.7492 13.3754C15.8453 14.1932 14.7918 14.5381 13.5897 14.3712C12.2103 14.1801 10.9038 13.7144 9.66964 13.1002C9.59279 13.0621 9.53827 13.0345 9.49294 13.0069C9.4797 12.9986 9.46887 12.987 9.46152 12.9731C9.45418 12.9593 9.45059 12.9438 9.4511 12.9282C9.45165 12.9126 9.45629 12.8974 9.46455 12.8841C9.47281 12.8708 9.4844 12.8599 9.49818 12.8525L9.58359 12.8066C10.5833 12.2726 11.4175 11.5284 12.2215 10.746C12.5611 10.4176 12.8869 10.0728 13.2298 9.74697C13.9841 9.0327 14.9161 8.5337 15.9288 8.30188C16.1508 8.24867 16.3748 8.20532 16.5981 8.15738H16.6086L17.0842 8.11336" fill="#133C9A"/>
<path d="M7.72659 17.7612C7.57487 17.7527 7.20113 17.7015 7.15644 17.6956C6.19169 17.5759 5.25258 17.3013 4.37532 16.8824C3.86694 16.6446 3.37757 16.3641 2.88689 16.0909C2.56438 15.9109 2.4179 15.6311 2.42119 15.2514C2.43173 13.8471 2.43173 12.4425 2.42119 11.0377C2.41595 10.1339 2.38966 9.23005 2.37586 8.32685C2.37548 8.24718 2.38812 8.16798 2.4133 8.0924C2.46782 7.9295 2.58016 7.9196 2.69119 8.02669C2.81927 8.15018 2.92107 8.29992 3.04784 8.42078C4.18287 9.53873 5.38556 10.5628 6.73408 11.4062C7.49255 11.8923 8.28252 12.3275 9.09876 12.7087C10.4092 13.3038 11.7524 13.8287 13.1601 14.1617C14.4035 14.456 15.6128 14.2707 16.6204 13.4812C16.9278 13.2185 17.0802 13.026 17.4447 12.5406C17.2821 12.9722 17.0708 13.3839 16.8148 13.7676C16.5803 14.1367 16.0522 14.6294 15.6496 15.0156C15.038 15.6068 14.2386 16.0863 13.4885 16.4909C12.6707 16.9317 11.8208 17.2837 10.9123 17.4762C10.4466 17.5924 9.77399 17.7258 9.54213 17.7389C9.50141 17.7356 9.36281 17.7671 9.29187 17.7613C8.69349 17.8066 8.32434 17.8236 7.72659 17.7613V17.7612Z" fill="#3370FF"/>
<path d="M5.15631 4.23068C5.19807 4.22771 5.23999 4.22771 5.28174 4.23068C7.85397 4.23068 10.4052 4.27205 12.9741 4.27205C12.9786 4.27205 12.983 4.27342 12.9866 4.27601C13.2244 4.48372 13.4455 4.7097 13.6481 4.95188C14.2281 5.52862 14.6603 6.52834 14.9559 7.13791C15.103 7.55896 15.325 7.96161 15.4301 8.43057V8.43913C15.168 8.52404 14.9124 8.62811 14.6656 8.75049C13.9226 9.12753 13.585 9.40273 12.9682 10.0103C12.6326 10.3387 12.3455 10.635 11.8995 11.0554C11.7596 11.1867 11.4036 11.5198 11.3977 11.5093C11.2795 11.3004 9.28002 7.38884 5.26335 4.31146" fill="#00D6B9"/>
</g>
<defs>
<clipPath id="clip0_515_832">
<rect width="22" height="22" fill="white"/>
</clipPath>
</defs>
</svg>
