<svg width="28" height="8" viewBox="0 0 28 8" fill="none" xmlns="http://www.w3.org/2000/svg">
<g clip-path="url(#clip0_515_715)">
<path d="M2.82253 0.556819L4.25434 5.4795H4.30888L5.74069 0.556819H7.88158L5.57705 7.53857H2.98617L0.681641 0.556819H2.82253Z" fill="white"/>
<path d="M8.56765 7.53857V6.17495L11.1722 4.02042C11.3449 3.87724 11.4926 3.74315 11.6154 3.61816C11.7403 3.49088 11.8358 3.3602 11.9017 3.22611C11.9699 3.09202 12.004 2.94316 12.004 2.77953C12.004 2.59998 11.9653 2.44657 11.8881 2.3193C11.8131 2.19203 11.7085 2.0943 11.5744 2.02612C11.4404 1.95567 11.2858 1.92044 11.1108 1.92044C10.9358 1.92044 10.7813 1.95567 10.6472 2.02612C10.5154 2.09658 10.4131 2.19999 10.3404 2.33635C10.2676 2.47271 10.2313 2.63862 10.2313 2.83407H8.43129C8.43129 2.34317 8.54151 1.92044 8.76197 1.5659C8.98242 1.21136 9.29378 0.938634 9.69605 0.747726C10.0983 0.556819 10.5699 0.461365 11.1108 0.461365C11.6699 0.461365 12.154 0.551137 12.5631 0.730681C12.9744 0.907952 13.2915 1.15795 13.5142 1.48067C13.7392 1.8034 13.8517 2.1818 13.8517 2.61589C13.8517 2.88407 13.796 3.15111 13.6847 3.41702C13.5733 3.68065 13.3733 3.9727 13.0847 4.29315C12.796 4.6136 12.3858 4.99542 11.854 5.43859L11.1994 5.98404V6.02495H13.9267V7.53857H8.56765Z" fill="white"/>
<path d="M14.7602 7.53857V0.556819H19.792V2.08408H16.6556V3.28407H19.5329V4.81133H16.6556V6.01132H19.7783V7.53857H14.7602Z" fill="white"/>
<path d="M22.7638 0.556819L23.9093 2.58862H23.9638L25.1229 0.556819H27.2365L25.1502 4.0477L27.3183 7.53857H25.1502L23.9638 5.46587H23.9093L22.7229 7.53857H20.5684L22.7093 4.0477L20.6366 0.556819H22.7638Z" fill="white"/>
</g>
<defs>
<clipPath id="clip0_515_715">
<rect width="28" height="8" fill="white"/>
</clipPath>
</defs>
</svg>
