<svg width="18" height="18" viewBox="0 0 18 18" fill="none" xmlns="http://www.w3.org/2000/svg">
<g clip-path="url(#clip0_515_1055)">
<g clip-path="url(#clip1_515_1055)">
<path d="M9.00001 0.692261C4.43078 0.692261 0.692322 4.43072 0.692322 8.99995C0.692322 13.5692 4.43078 17.3076 9.00001 17.3076C13.5692 17.3076 17.3077 13.5692 17.3077 8.99995C17.3077 4.43072 13.5692 0.692261 9.00001 0.692261ZM8.68848 14.4C6.19617 14.4 4.63848 12.5307 4.63848 9.83072C4.63848 6.19611 7.13078 3.59995 9.93463 3.59995C11.5962 3.59995 12.6346 4.43072 12.6346 5.57303C12.6346 6.81918 11.8039 7.64995 11.0769 7.64995C10.8692 7.64995 10.7654 7.54611 10.7654 7.44226C10.7654 7.33841 10.8692 7.13072 10.9731 7.02688C11.1808 6.71534 11.3885 6.29995 11.3885 5.67688C11.2846 4.84611 10.7654 4.32688 10.0385 4.32688C8.37694 4.32688 6.40386 6.29995 6.40386 9.83072C6.40386 11.9076 7.44232 13.3615 9.10386 13.3615C10.5577 13.3615 11.7 12.323 12.4269 10.8692C12.5308 10.7653 12.5308 10.6615 12.6346 10.6615C12.7385 10.6615 12.8423 10.7653 12.8423 10.973C12.7385 11.8038 11.2846 14.4 8.68848 14.4Z" fill="white"/>
</g>
</g>
<defs>
<clipPath id="clip0_515_1055">
<rect width="18.0001" height="18" fill="white"/>
</clipPath>
<clipPath id="clip1_515_1055">
<rect width="18" height="18" fill="white"/>
</clipPath>
</defs>
</svg>
