<svg width="18" height="18" viewBox="0 0 18 18" fill="none" xmlns="http://www.w3.org/2000/svg">
<g clip-path="url(#clip0_515_1157)">
<g clip-path="url(#clip1_515_1157)">
<path d="M0.177734 5.56067H3.87581V18.0001H0.177734V5.56067Z" fill="white"/>
<path d="M2.29104 0C0.998742 0 0.152954 0.871657 0.152954 2.0065C0.152954 3.11435 0.971749 3.84091 2.23818 3.84091C3.58335 3.84091 4.40214 3.11435 4.40214 2.0065C4.37515 0.870532 3.58335 0 2.29104 0Z" fill="white"/>
<path d="M17.8481 10.8716C17.8481 7.07226 16.6548 5.3042 14.0173 5.3042C11.8522 5.3042 10.8141 6.68648 10.2866 7.53002H10.2079L10.2113 5.56064H6.83374C6.88548 6.72247 6.85961 8.10137 6.85961 9.70972V18H10.6882V11.056C10.6882 10.6871 10.714 10.3182 10.8197 10.0528C11.1099 9.31495 11.4833 8.55014 12.5912 8.55014C14.0421 8.55014 14.4953 9.6861 14.4953 11.3462V18H17.847V10.8716H17.8481Z" fill="white"/>
</g>
</g>
<defs>
<clipPath id="clip0_515_1157">
<rect width="18" height="18" fill="white"/>
</clipPath>
<clipPath id="clip1_515_1157">
<rect width="18" height="18" fill="white"/>
</clipPath>
</defs>
</svg>
