<svg width="20" height="20" viewBox="0 0 20 20" fill="none" xmlns="http://www.w3.org/2000/svg">
<g clip-path="url(#clip0_515_1259)">
<path d="M18.7812 8.7533C18.7555 8.2842 18.9286 7.91018 18.4182 7.62375C18.5061 7.8586 18.724 7.96348 18.7409 8.26919C18.6115 8.197 18.4585 8.14816 18.3779 8.02713C18.3912 7.88435 18.4888 7.92786 18.4182 7.78506C18.3222 7.73311 18.2259 7.68181 18.1357 7.62366C18.1395 7.56001 18.2387 7.59222 18.2164 7.50273C18.1495 7.43538 17.9797 7.47043 17.8535 7.46236C17.7995 7.36877 17.7865 7.23321 17.7325 7.13964C17.436 7.09288 17.1173 7.04729 16.9257 7.09926C16.8486 7.61531 17.4522 7.77699 17.5712 8.22882C17.5793 9.05654 16.9629 9.81617 16.24 9.51967C15.7912 8.65316 16.7736 8.39336 16.6836 7.42198C16.2892 7.09603 15.5437 6.93225 14.828 7.05887C14.6577 7.23844 14.5659 7.4958 14.3842 7.66394C14.506 7.60627 14.6171 7.63041 14.6264 7.78497C14.5576 8.22833 14.1276 8.17636 13.9406 8.43049C13.586 8.91176 14.0176 9.70445 14.1826 10.0845C14.5522 10.9356 15.4074 11.6493 16.4416 11.6173C17.4622 11.5858 18.7829 10.5564 18.9022 9.68098C18.9514 9.31894 18.7977 9.05663 18.7812 8.7533ZM16.966 7.13973C17.1393 7.10097 17.0365 7.3378 17.1675 7.34142C17.0515 7.48097 16.9723 7.24338 16.966 7.13973ZM16.8449 6.61534C16.8485 6.72544 16.7776 6.69637 16.8449 6.77663C16.9396 6.76383 16.9962 6.7129 17.1273 6.73626V6.93804C17.319 6.95496 17.4181 6.87952 17.5711 6.85729C17.4533 6.5475 16.7663 6.50512 16.4415 6.6556C16.5444 6.84325 16.7166 6.64439 16.8449 6.61534ZM15.7557 6.93804C15.8937 6.99172 16.0373 6.84809 15.9171 6.77663C15.8738 6.88152 15.7477 6.52128 15.6346 6.696C15.6975 6.70644 15.6624 6.78433 15.6346 6.81692C15.6722 6.86015 15.7836 6.82946 15.7557 6.93804ZM12.5285 10.3266C12.7931 10.2237 12.9816 9.62864 12.9319 9.4795C12.8581 9.82235 12.67 10.0515 12.5285 10.3266Z" fill="white"/>
<path d="M12.8512 8.10792C12.7581 7.73799 12.27 7.6254 11.9637 7.42212C11.764 7.84563 12.2607 8.19503 12.2058 8.63222C12.1788 8.84682 11.9253 8.92358 11.9637 9.197C11.1956 9.8772 8.93207 10.8034 7.9701 9.68111C8.07451 9.26692 8.11811 8.93764 8.29271 8.71297C8.50971 8.43338 8.80135 8.38826 9.13985 8.1482C9.39282 7.96865 9.90183 7.35675 9.9064 7.05902C9.91313 6.60283 9.10402 5.90288 8.4944 5.96986C8.1298 6.00975 8.03261 6.3696 7.68766 6.41359C7.68072 6.52815 7.82399 6.49227 7.76832 6.65566C7.54878 7.17274 6.87039 7.02074 6.47747 7.30108C5.89207 7.71899 5.73523 9.14342 5.83203 9.96355C5.88086 10.377 6.10716 10.753 6.27578 10.9719C6.76114 11.6021 7.82124 12.1757 8.89797 12.1417C9.51185 12.1224 10.9702 11.7174 11.3587 11.4559C11.8589 11.1191 11.9371 10.5386 12.5285 10.3667C12.3921 10.2676 12.4551 9.96583 12.4881 9.80205C12.9641 9.87464 12.672 9.17913 12.9722 9.07588C12.691 8.80492 12.9296 8.4178 12.8512 8.10792ZM11.3587 9.68121C11.4358 9.60532 11.4316 9.70505 11.5603 9.68121C11.5841 9.76719 11.3195 9.82769 11.3587 9.68121ZM11.9637 7.58352C12.1331 7.32008 12.1179 7.7949 12.2461 7.82548C12.096 8.06953 12.0828 7.62342 11.9637 7.58352ZM11.4393 6.77667H11.883C11.9592 6.8392 11.8254 6.93402 11.9234 7.01874C12.1167 7.00059 12.2292 7.06271 12.2863 7.18015C12.2525 7.2269 12.233 7.28826 12.2461 7.38183C12.3993 7.44396 12.5595 7.49849 12.7301 7.54324C12.6603 7.0329 11.8698 6.68397 11.3586 6.61538C11.4127 6.64197 11.4337 6.70173 11.4393 6.77667ZM10.7131 6.65573C10.5518 6.60207 10.5381 6.40038 10.3501 6.37331C10.3591 6.44959 10.3046 6.46241 10.3099 6.53472C10.4545 6.52741 10.5804 6.91385 10.7131 6.65573ZM5.50921 2.70242C4.74675 2.61606 4.30262 3.24173 4.04365 3.63019C4.08763 3.61366 4.16507 3.6871 4.13771 3.75122C3.99758 4.40548 3.37162 4.41555 2.96778 4.84038C2.78585 5.03162 2.62502 5.46768 2.52404 5.92956C2.27884 7.05266 1.66524 8.44242 1.59618 9.60046C1.55181 10.3444 1.38042 11.3856 1.47524 12.1016C1.50992 12.3622 1.71322 12.6578 1.71719 12.9084C1.72413 13.351 1.44494 13.814 1.75759 14.1993C1.79187 13.9222 1.60796 13.6507 1.71721 13.4329C1.8201 13.5181 1.89552 13.6309 1.95926 13.7556C1.60748 13.919 2.10851 14.2777 1.83822 14.4415C1.88146 14.6137 2.06613 14.644 2.08029 14.8448C1.78295 15.2942 2.25823 15.7908 2.40301 16.1761C2.40301 16.1357 2.43569 16.1281 2.44327 16.0954C2.52556 16.0836 2.52232 15.9861 2.60459 15.9744C2.61752 15.137 2.62073 14.4257 2.7659 13.796C3.0931 12.3764 3.02212 10.7722 3.45181 9.27785C3.63449 8.64211 3.95236 8.02117 4.1779 7.38183C4.42282 6.68718 4.57489 5.98363 4.90407 5.48582C5.09492 5.19693 5.45431 4.91696 5.7109 4.51768C5.93759 4.16503 6.33449 3.6354 6.31606 3.30747C6.29554 2.94847 5.82472 2.73832 5.50921 2.70242ZM2.48376 16.0146C2.4774 16.0618 2.41041 16.0485 2.36282 16.055C2.27285 15.8613 2.5552 15.688 2.36282 15.6517C2.6371 15.5143 2.42257 15.9521 2.48376 16.0146V16.0146ZM2.72582 13.1908C2.633 13.159 2.68658 12.941 2.80646 12.9891C2.81255 13.0895 2.74319 13.1141 2.72582 13.1908Z" fill="white"/>
<path d="M4.01672 3.67051C4.02518 3.65769 4.03411 3.64429 4.04342 3.63062C4.03051 3.63535 4.02042 3.64789 4.01672 3.67051Z" fill="black"/>
<path d="M2.60481 17.83C2.61534 17.9215 2.468 18.2669 2.64507 18.3544C2.64878 18.2547 2.84923 17.9134 2.60481 17.83ZM2.04002 16.7408C2.10938 16.9001 2.13483 17.1034 2.2418 17.2248C2.35437 17.0017 2.16437 16.8485 2.04002 16.7408ZM2.16105 16.0146C2.05371 15.8934 2.02312 15.6952 1.79797 15.6919C1.87015 16.0365 1.85486 16.4685 2.04002 16.7004C2.28732 16.5915 2.03158 16.3948 1.99964 16.2165C2.03564 16.1312 2.17159 16.1462 2.16105 16.0146Z" fill="white"/>
</g>
<defs>
<clipPath id="clip0_515_1259">
<rect width="20" height="20" fill="white"/>
</clipPath>
</defs>
</svg>
