<svg width="18" height="18" viewBox="0 0 18 18" fill="none" xmlns="http://www.w3.org/2000/svg">
<g clip-path="url(#clip0_515_889)">
<path d="M7.25 8.41251C8.24375 7.93751 8.7625 7.21876 8.7625 6.10001C8.7625 3.89376 7.11875 3.35626 5.22188 3.35626H0V14.4313H5.36875C7.38125 14.4313 9.27188 13.4656 9.27188 11.2156C9.27188 9.82501 8.6125 8.79689 7.25 8.41251ZM2.43438 5.24689H4.71875C5.59688 5.24689 6.3875 5.49376 6.3875 6.51251C6.3875 7.45314 5.77187 7.83126 4.90312 7.83126H2.43438V5.24689ZM5.0375 12.55H2.43438V9.50001H5.0875C6.15938 9.50001 6.8375 9.94689 6.8375 11.0813C6.8375 12.2 6.02812 12.55 5.0375 12.55ZM16.2406 5.02814H11.75V3.93751H16.2406V5.02814ZM18 10.5375C18 8.16564 16.6125 6.18751 14.0969 6.18751C11.6531 6.18751 9.99375 8.02501 9.99375 10.4313C9.99375 12.9281 11.5656 14.6406 14.0969 14.6406C16.0125 14.6406 17.2531 13.7781 17.85 11.9438H15.9062C15.6969 12.6281 14.8344 12.9906 14.1656 12.9906C12.875 12.9906 12.1969 12.2344 12.1969 10.95H17.9813C17.9906 10.8188 18 10.6781 18 10.5375ZM12.2 9.56251C12.2719 8.50939 12.9719 7.85001 14.0281 7.85001C15.1344 7.85001 15.6906 8.50001 15.7844 9.56251H12.2Z" fill="white"/>
</g>
<defs>
<clipPath id="clip0_515_889">
<rect width="18" height="18" fill="white"/>
</clipPath>
</defs>
</svg>
