<svg width="18" height="18" viewBox="0 0 18 18" fill="none" xmlns="http://www.w3.org/2000/svg">
<g clip-path="url(#clip0_515_957)">
<g clip-path="url(#clip1_515_957)">
<path d="M8.99999 18H0.0239944V9C0.0224595 7.81851 0.253764 6.6483 0.70469 5.55625C1.15562 4.4642 1.81732 3.47171 2.65199 2.6355C3.48399 1.79925 4.47321 1.13586 5.56269 0.683541C6.65216 0.231224 7.82036 -0.00108121 8.99999 3.78315e-06C11.4787 3.78315e-06 13.7227 1.008 15.3472 2.6355C16.9702 4.2645 17.976 6.5145 17.976 9C17.976 11.4855 16.9725 13.7355 15.3472 15.3645C14.5154 16.2008 13.5263 16.8642 12.437 17.3165C11.3476 17.7688 10.1795 18.0011 8.99999 18ZM11.1667 8.14725L10.2135 9.801H13.527C13.1482 11.9625 11.2635 13.6095 8.99999 13.6095C6.46499 13.6095 4.40099 11.5417 4.40099 9C4.40099 6.45825 6.46349 4.3905 8.99999 4.3905C10.3657 4.3905 11.5935 4.99125 12.438 5.94225L13.2952 4.45125C12.1383 3.34764 10.6004 2.7325 9.00149 2.73375C5.55149 2.73375 2.75249 5.53875 2.75249 9C2.75249 12.4612 5.54999 15.2655 9.00149 15.2655C12.4537 15.2655 15.2505 12.4612 15.2505 9C15.2505 8.70975 15.2287 8.42625 15.1912 8.14725H11.1667Z" fill="white"/>
</g>
</g>
<defs>
<clipPath id="clip0_515_957">
<rect width="18" height="18" fill="white"/>
</clipPath>
<clipPath id="clip1_515_957">
<rect width="18" height="18" fill="white"/>
</clipPath>
</defs>
</svg>
