<svg width="16" height="20" viewBox="0 0 16 20" fill="none" xmlns="http://www.w3.org/2000/svg">
<g clip-path="url(#clip0_515_842)">
<g clip-path="url(#clip1_515_842)">
<path d="M13.6987 1.76025H12.4122C12.0375 1.76025 11.7584 1.91176 11.6122 2.18287L9.70642 4.96577L11.3756 7.24898L14.2861 3.07064C14.6077 2.67991 14.4961 2.32906 14.435 2.19616C14.3047 1.92239 14.0309 1.76025 13.6987 1.76025Z" fill="#75BB43"/>
<path d="M4.38515 2.14832C4.09543 1.76025 3.70736 1.76025 3.57978 1.76025H2.32255C2.00094 1.76025 1.7378 1.9091 1.59959 2.16692C1.45871 2.43006 1.48795 2.74636 1.68464 3.0414L6.34407 9.50294L0.985593 16.9772C0.799534 17.2589 0.772955 17.5699 0.913827 17.833C1.05204 18.0909 1.31518 18.2397 1.6368 18.2397H2.92326C3.25285 18.2397 3.54522 18.0669 3.68876 17.7985L9.68515 9.53218L4.3878 2.15098L4.38515 2.14832Z" fill="#0A99D6"/>
<path d="M11.3358 11.9111L9.69049 14.1783L12.6462 18.1254L12.7232 18.1573C12.8402 18.2105 12.9678 18.2397 13.0954 18.2397H14.3526C14.6582 18.2397 14.9161 18.1042 15.0596 17.8703C15.2111 17.6284 15.2138 17.3254 15.0729 17.0436L11.3358 11.9111Z" fill="#EB2385"/>
</g>
</g>
<defs>
<clipPath id="clip0_515_842">
<rect width="16" height="20" fill="white"/>
</clipPath>
<clipPath id="clip1_515_842">
<rect width="15.6289" height="18.2337" fill="white" transform="translate(0.185547 0.883118)"/>
</clipPath>
</defs>
</svg>
