<svg width="18" height="22" viewBox="0 0 18 22" fill="none" xmlns="http://www.w3.org/2000/svg">
<g clip-path="url(#clip0_515_721)">
<path d="M11.4053 16.8035L12.0769 16.6293L11.8225 16.7728C11.6698 16.8649 11.5681 17.0288 11.5681 17.213V17.4999L11.4053 16.8035Z" fill="#142C46"/>
<path fill-rule="evenodd" clip-rule="evenodd" d="M9 0.676514C9.22593 0.676514 9.44807 0.736199 9.64294 0.850516L17.357 5.32768C17.7557 5.56082 18 5.98812 18 6.45438V15.4223C18.0006 15.6496 17.9412 15.8728 17.8285 16.0702C17.7156 16.2677 17.5533 16.4328 17.357 16.5478L12.1974 19.5416L12.2147 19.5379L12.2011 21.3236L9.75894 20.9558L9.64294 21.0249C9.44801 21.1393 9.22602 21.2002 9 21.2002C8.77407 21.2001 8.5519 21.1393 8.35705 21.0249L0.642945 16.5478C0.244811 16.3147 0.000170158 15.888 0 15.4223V6.45438C0.000988958 6.22909 0.0613917 6.00779 0.174002 5.81267C0.286685 5.61751 0.44828 5.45479 0.642945 5.34126L8.35705 0.850516C8.5519 0.736151 8.77407 0.676564 9 0.676514ZM7.80543 13.8735C7.78416 13.85 7.76299 13.8264 7.74002 13.8044C7.49297 13.5619 7.15949 13.4268 6.81324 13.4268C6.46721 13.427 6.13462 13.562 5.8877 13.8044C5.75672 13.9298 5.6529 14.0808 5.58165 14.2475C5.5104 14.4143 5.47305 14.5943 5.47305 14.7756C5.47309 14.9568 5.51054 15.136 5.58165 15.3026C5.65283 15.4692 5.75683 15.6203 5.8877 15.7456C6.13462 15.9881 6.4672 16.1243 6.81324 16.1245C7.15949 16.1245 7.49297 15.9882 7.74002 15.7456C7.87087 15.6203 7.9749 15.4692 8.04607 15.3026C8.11717 15.136 8.15463 14.9568 8.15467 14.7756C8.15467 14.6633 8.13806 14.5521 8.11024 14.4437L11.5718 12.4322L10.9288 12.0706L7.80543 13.8735ZM6.81324 6.47659C6.4672 6.47674 6.13462 6.61299 5.8877 6.85545C5.7567 6.98082 5.6529 7.13174 5.58165 7.29848C5.51037 7.46531 5.47305 7.64524 5.47305 7.82666C5.47312 8.00783 5.5105 8.18698 5.58165 8.3536C5.65287 8.52029 5.75676 8.67128 5.8877 8.79663C6.13462 9.03908 6.4672 9.17533 6.81324 9.17548C7.15949 9.17548 7.49297 9.03922 7.74002 8.79663C7.7575 8.77989 7.77288 8.76119 7.78938 8.74356L11.3139 10.7896L11.3274 10.781C11.2824 10.9173 11.2596 11.0604 11.2596 11.2043C11.2596 11.3854 11.2958 11.5647 11.3669 11.7312C11.4382 11.898 11.5432 12.0488 11.6742 12.1742C11.9212 12.4167 12.2536 12.5531 12.5997 12.5531C12.9459 12.553 13.2783 12.4168 13.5253 12.1742C13.6563 12.0489 13.7601 11.898 13.8313 11.7312C13.9025 11.5646 13.9399 11.3855 13.9399 11.2043C13.9399 11.0229 13.9026 10.8429 13.8313 10.6761C13.7601 10.5093 13.6563 10.3585 13.5253 10.2331C13.2783 9.99054 12.9459 9.85428 12.5997 9.85422C12.2536 9.85422 11.9212 9.99064 11.6742 10.2331C11.6679 10.2391 11.6619 10.2454 11.6557 10.2516L8.1053 8.17836C8.13668 8.06384 8.15462 7.94592 8.15467 7.82666C8.15467 7.64524 8.11734 7.4653 8.04607 7.29848C7.97483 7.13175 7.871 6.98081 7.74002 6.85545C7.49297 6.61286 7.15949 6.47659 6.81324 6.47659Z" fill="white"/>
</g>
<defs>
<clipPath id="clip0_515_721">
<rect width="18" height="22" fill="white"/>
</clipPath>
</defs>
</svg>
