<svg width="18" height="18" viewBox="0 0 18 18" fill="none" xmlns="http://www.w3.org/2000/svg">
<g clip-path="url(#clip0_515_790)">
<g clip-path="url(#clip1_515_790)">
<path d="M5.96066 9.99989H9.63941C9.63941 9.12149 9.23216 8.60669 9.23216 8.60669H6.03896C6.11501 7.01549 6.18296 4.97384 6.20771 4.21514H9.24521C9.24521 4.21514 9.22811 2.91014 8.89106 2.91014H3.55046C3.55046 2.91014 3.87176 1.20419 4.30016 0.45044C4.30016 0.45044 2.70581 0.36314 2.16176 2.52134C1.61816 4.67954 0.802758 5.98409 0.716808 6.22259C0.629958 6.46109 1.18571 6.33554 1.42061 6.22259C1.65551 6.11009 2.71886 5.72084 3.02801 4.21514H4.67816C4.70066 5.16914 4.76591 8.09414 4.74566 8.60714H1.34636C0.864408 8.95814 0.704208 9.99989 0.704208 9.99989H4.58906C4.42661 11.0889 4.14221 12.4929 3.74441 13.2367C3.11441 14.4171 2.78051 15.4957 0.507108 17.3524C0.507108 17.3524 0.136308 17.6283 1.28561 17.5279C2.43491 17.4276 3.52211 17.1265 4.27631 15.5956C4.71868 14.6821 5.09085 13.7361 5.38961 12.766L5.38871 12.7705L8.59001 16.5118C8.59001 16.5118 9.01031 15.5083 8.70116 14.404L6.32831 11.7058L5.52461 12.3088L5.52416 12.312C5.74691 11.5177 5.90711 10.7329 5.95706 10.0498L5.96156 9.99989H5.96066ZM10.4062 2.63429V15.583H11.7472L12.2962 17.1423L14.6205 15.583H17.55V2.63429H10.4062ZM16.1698 14.1903H14.6475L12.7485 15.4638L12.2998 14.1903H11.826V4.07969H16.1698V14.1912H16.1703L16.1698 14.1903Z" fill="white"/>
</g>
</g>
<defs>
<clipPath id="clip0_515_790">
<rect width="18" height="18" fill="white"/>
</clipPath>
<clipPath id="clip1_515_790">
<rect width="18" height="18" fill="white"/>
</clipPath>
</defs>
</svg>
