<svg width="18" height="18" viewBox="0 0 18 18" fill="none" xmlns="http://www.w3.org/2000/svg">
<g clip-path="url(#clip0_515_1320)">
<g clip-path="url(#clip1_515_1320)">
<path d="M0 12.3745H1.87504V5.62537H0V12.3745ZM5.87668 5.62537L5.457 8.77845L5.19624 7.06355C5.13101 6.58307 5.05839 6.10362 4.97842 5.62537L2.62481 5.62537V12.3745H4.21516L4.22129 7.91763L4.89007 12.3745H6.02209L6.65774 7.81946L6.66326 12.3745H8.2487V5.62537H5.87668ZM8.99908 12.3745V5.62537H11.9258C12.5872 5.62537 13.1234 6.15794 13.1234 6.81629V11.1842C13.1229 11.3411 13.0916 11.4963 13.0311 11.641C12.9706 11.7857 12.8822 11.9171 12.7709 12.0276C12.6596 12.1382 12.5277 12.2257 12.3825 12.2852C12.2374 12.3447 12.082 12.3751 11.9251 12.3745H8.99847H8.99908ZM11.1858 6.84021C11.1116 6.79972 10.9692 6.7807 10.7625 6.7807V11.2088C11.0355 11.2088 11.2036 11.1597 11.2668 11.0572C11.3294 10.956 11.3619 10.6823 11.3619 10.2326V7.61575C11.3619 7.3102 11.3509 7.1157 11.3294 7.02919C11.321 6.989 11.3038 6.95118 11.2789 6.91849C11.2541 6.8858 11.2223 6.85906 11.1858 6.84021ZM16.6588 7.31511H16.779C17.4521 7.31511 17.9975 7.84277 17.9975 8.49192V11.1977C17.9975 11.8481 17.4521 12.3745 16.779 12.3745H16.6594C16.4656 12.3756 16.2743 12.331 16.1011 12.2442C15.9278 12.1574 15.7775 12.0309 15.6623 11.8751L15.5544 12.288H13.8732V5.62537H15.6672V7.79307C15.7861 7.64405 15.9371 7.52371 16.1088 7.44097C16.2806 7.35823 16.4687 7.31521 16.6594 7.31511H16.6588ZM16.2753 10.6062V9.00731C16.2753 8.74286 16.2581 8.56923 16.2225 8.48946C16.1875 8.4097 16.0464 8.35878 15.9476 8.35878C15.8482 8.35878 15.6961 8.4005 15.666 8.47044V11.1775C15.6998 11.2548 15.8458 11.2977 15.9476 11.2977C16.0489 11.2977 16.1974 11.256 16.2287 11.1775C16.2593 11.0989 16.2753 10.9075 16.2753 10.6069V10.6062Z" fill="black"/>
</g>
</g>
<defs>
<clipPath id="clip0_515_1320">
<rect width="18.0001" height="18.0001" fill="white"/>
</clipPath>
<clipPath id="clip1_515_1320">
<rect width="18" height="18" fill="white"/>
</clipPath>
</defs>
</svg>
