<svg width="18" height="18" viewBox="0 0 18 18" fill="none" xmlns="http://www.w3.org/2000/svg">
<g clip-path="url(#clip0_515_1249)">
<g clip-path="url(#clip1_515_1249)">
<path d="M11.8678 9.90277C11.9803 9.90277 12.0927 9.73408 12.0927 9.62162V8.44077C12.0927 7.31615 10.5745 7.31615 10.5745 7.31615H7.42557C7.42557 7.31615 5.96357 7.31615 6.0198 8.38454V9.45292C6.0198 9.56539 6.13226 9.67785 6.24472 9.73408C6.24472 9.73408 7.98787 10.2402 7.98787 11.3085V14.6262C7.98787 15.8632 3.77057 15.9757 3.77057 15.9757C3.60187 15.9757 3.43318 16.1444 3.43318 16.3131V17.6626C3.43318 17.7188 3.48941 17.8313 3.54564 17.8875C3.60187 17.9438 3.71434 18 3.77057 18H14.2857C14.3982 18 14.4544 17.9438 14.5106 17.8875C14.5669 17.8313 14.6231 17.7751 14.6231 17.6626V16.3131C14.6231 16.1444 14.4544 15.9757 14.2857 15.9757C14.2857 15.9757 10.1246 15.9757 10.1246 14.6262V11.3085C10.1246 10.1277 11.8678 9.90277 11.8678 9.90277ZM6.97572 0.962077H7.08818V0.624692C7.08818 0.287308 7.36934 0.0061537 7.76295 0.0061537H10.1246C10.5183 -0.0500771 10.8556 0.287308 10.8556 0.680923V0.962077H10.9681C14.7356 1.80554 17.3784 4.95446 17.3784 8.60946C17.3784 10.4088 16.7599 12.0395 15.579 13.4453C15.1854 13.8952 14.7918 14.2888 14.342 14.6824C14.1733 14.7948 14.0608 14.9073 14.0608 14.9073C13.8921 15.0198 13.7234 14.9635 13.611 14.8511L12.5426 13.5578C12.4301 13.4453 12.4301 13.2204 12.5988 13.1079L12.7675 12.9955C13.1049 12.7143 13.4423 12.3769 13.7234 12.0395C14.6231 10.9712 15.1292 9.84654 15.1292 8.60946C15.1292 5.51677 12.4301 2.93015 9.11249 2.93015H9.05626C5.79487 2.93015 3.0958 5.46054 3.0958 8.60946C3.0958 9.79031 3.54564 10.9712 4.44534 12.0395C4.72649 12.3769 5.06387 12.7143 5.40126 12.9955L5.56995 13.1642C5.73864 13.2766 5.73864 13.4453 5.62618 13.614L4.50157 14.9073C4.38911 15.0198 4.16418 15.076 4.05172 14.9635C4.05172 14.9635 3.99549 14.9073 3.71434 14.7386C3.20826 14.345 2.81464 13.9514 2.42103 13.5015C1.24018 12.0958 0.621643 10.4651 0.621643 8.66569C0.621643 5.06692 3.26449 1.86177 6.97572 0.962077Z" fill="white"/>
</g>
</g>
<defs>
<clipPath id="clip0_515_1249">
<rect width="18.0001" height="18" fill="white"/>
</clipPath>
<clipPath id="clip1_515_1249">
<rect width="18" height="18" fill="white"/>
</clipPath>
</defs>
</svg>
