<svg width="18" height="18" viewBox="0 0 18 18" fill="none" xmlns="http://www.w3.org/2000/svg">
<g clip-path="url(#clip0_515_779)">
<path d="M17.531 -6.10352e-05H0.469164C0.427678 -6.10352e-05 0.3866 0.00811007 0.348272 0.0239857C0.309945 0.0398614 0.27512 0.0631308 0.245786 0.0924653C0.216451 0.1218 0.193182 0.156624 0.177306 0.194952C0.16143 0.233279 0.153259 0.274358 0.153259 0.315843V1.57961C0.153259 1.75406 0.294711 1.89551 0.469164 1.89551H17.531C17.6148 1.89551 17.6951 1.86223 17.7544 1.80299C17.8136 1.74375 17.8469 1.66339 17.8469 1.57961V0.315843C17.8469 0.23206 17.8136 0.151709 17.7544 0.0924653C17.6951 0.0332217 17.6148 -6.10352e-05 17.531 -6.10352e-05ZM17.531 16.1043H13.1706L14.474 11.9817H16.0914C16.1752 11.9817 16.2556 11.9484 16.3148 11.8891C16.3741 11.8299 16.4073 11.7495 16.4073 11.6658V4.01249C16.4074 3.971 16.3992 3.92992 16.3833 3.89158C16.3675 3.85324 16.3442 3.81841 16.3149 3.78907C16.2855 3.75973 16.2507 3.73647 16.2123 3.7206C16.174 3.70473 16.1329 3.69657 16.0914 3.69659H1.90873C1.82495 3.69659 1.7446 3.72987 1.68536 3.78912C1.62611 3.84836 1.59283 3.92871 1.59283 4.01249V11.6658C1.59283 11.8402 1.73413 11.9817 1.90873 11.9817H11.9115L10.608 16.1043H7.00341L6.04759 13.0816C5.99254 12.907 5.80639 12.7657 5.63194 12.7657H3.70066C3.52621 12.7657 3.42945 12.907 3.48481 13.0816L4.44047 16.1043H0.469164C0.427678 16.1043 0.3866 16.1125 0.348272 16.1284C0.309945 16.1442 0.27512 16.1675 0.245786 16.1968C0.216451 16.2262 0.193182 16.261 0.177306 16.2993C0.16143 16.3377 0.153259 16.3787 0.153259 16.4202V17.6841C0.153259 17.8586 0.294711 18 0.469164 18H17.531C17.6148 18 17.6951 17.9668 17.7544 17.9075C17.8136 17.8483 17.8469 17.7679 17.8469 17.6841V16.4202C17.8469 16.3364 17.8136 16.2561 17.7544 16.1968C17.6951 16.1376 17.6148 16.1043 17.531 16.1043ZM4.59422 9.68212V5.99582C4.59422 5.82137 4.73552 5.67992 4.91013 5.67992H13.0899C13.2643 5.67992 13.4058 5.82152 13.4058 5.99582V9.68212C13.4058 9.72361 13.3976 9.76469 13.3817 9.80301C13.3659 9.84134 13.3426 9.87617 13.3133 9.9055C13.2839 9.93483 13.2491 9.9581 13.2108 9.97398C13.1725 9.98986 13.1314 9.99803 13.0899 9.99803H4.91013C4.86864 9.99803 4.82756 9.98986 4.78923 9.97398C4.75091 9.9581 4.71608 9.93483 4.68675 9.9055C4.65741 9.87617 4.63414 9.84134 4.61827 9.80301C4.60239 9.76469 4.59422 9.72361 4.59422 9.68212Z" fill="white"/>
</g>
<defs>
<clipPath id="clip0_515_779">
<rect width="18.0001" height="18.0001" fill="white"/>
</clipPath>
</defs>
</svg>
