<svg width="19" height="16" viewBox="0 0 19 16" fill="none" xmlns="http://www.w3.org/2000/svg">
<g clip-path="url(#clip0_515_1221)">
<path d="M12.2773 5.03123C12.4771 5.03123 12.6769 5.03123 12.8767 5.06385C12.3119 2.49883 9.57767 0.598511 6.44378 0.598511C2.94491 0.598511 0.078125 2.99837 0.078125 5.9977C0.078125 7.73082 1.01197 9.19684 2.61052 10.2979L1.9764 12.1982L4.20907 11.0992C5.00835 11.2664 5.64247 11.4315 6.44174 11.4315C6.64156 11.4315 6.84138 11.4315 7.07586 11.3989C6.94333 10.9646 6.87604 10.5324 6.87604 10.0654C6.87808 7.29856 9.24532 5.03123 12.2773 5.03123ZM8.84364 3.2981C9.34319 3.2981 9.64292 3.63045 9.64292 4.09738C9.64292 4.5643 9.31057 4.89665 8.84364 4.89665C8.3441 4.89665 7.87717 4.56226 7.87717 4.09738C7.87717 3.59783 8.37876 3.2981 8.84364 3.2981ZM4.43336 4.78859C3.92973 4.78859 3.45873 4.45828 3.45873 3.99747C3.45873 3.502 3.96236 3.20635 4.43336 3.20635C4.90436 3.20635 5.23875 3.53666 5.23875 3.99747C5.24079 4.46031 4.90436 4.78859 4.43336 4.78859Z" fill="white"/>
<path d="M18.0781 9.99813C18.0781 7.43107 15.5458 5.3656 12.679 5.3656C9.64498 5.3656 7.24512 7.46574 7.24512 9.99813C7.24512 12.5652 9.64498 14.6307 12.679 14.6307C13.3131 14.6307 13.9452 14.4635 14.5793 14.2983L16.3124 15.2648L15.8455 13.6642C17.1117 12.6977 18.0781 11.4315 18.0781 9.99813ZM10.9112 9.19886C10.6115 9.19886 10.2771 8.89913 10.2771 8.56474C10.2771 8.26501 10.6094 7.93062 10.9112 7.93062C11.3781 7.93062 11.7105 8.26297 11.7105 8.56474C11.7105 8.89913 11.4107 9.19886 10.9112 9.19886ZM14.5405 9.0439C14.2388 9.0439 13.9023 8.74621 13.9023 8.41793C13.9023 8.12024 14.2388 7.79197 14.5405 7.79197C15.0115 7.79197 15.3459 8.12228 15.3459 8.41793C15.3459 8.74825 15.0115 9.0439 14.5405 9.0439Z" fill="white"/>
</g>
<defs>
<clipPath id="clip0_515_1221">
<rect width="19" height="16" fill="white"/>
</clipPath>
</defs>
</svg>
