<svg width="18" height="18" viewBox="0 0 18 18" fill="none" xmlns="http://www.w3.org/2000/svg">
<g clip-path="url(#clip0_515_1415)">
<path d="M15.84 4.71603C16.002 4.80603 16.128 5.02203 16.128 5.20203V12.762C16.128 12.942 16.002 13.158 15.84 13.248L13.554 14.58C13.392 14.67 13.266 14.598 13.266 14.418V7.02003C13.266 6.84003 13.14 6.62403 12.978 6.53403L10.692 5.22003C10.53 5.13003 10.404 5.20203 10.404 5.38203V7.25403C10.404 7.43403 10.26 7.57803 10.08 7.57803H7.90201C7.72201 7.57803 7.57801 7.43403 7.57801 7.25403V0.288026C7.57801 0.108026 7.70401 0.0360264 7.86601 0.126026L15.84 4.71603ZM7.57801 10.746C7.57801 10.566 7.72201 10.422 7.90201 10.422H10.098C10.278 10.422 10.422 10.566 10.422 10.746V17.712C10.422 17.892 10.296 17.964 10.134 17.874L2.16001 13.266C1.99801 13.176 1.87201 12.96 1.87201 12.78V5.22003C1.87201 5.04003 1.99801 4.82403 2.16001 4.73403L4.44601 3.42003C4.60801 3.33003 4.73401 3.40203 4.73401 3.58203V10.98C4.73401 11.16 4.86001 11.376 5.02201 11.466L7.29001 12.78C7.45201 12.87 7.57801 12.798 7.57801 12.618V10.746Z" fill="white"/>
</g>
<defs>
<clipPath id="clip0_515_1415">
<rect width="18" height="18" fill="white"/>
</clipPath>
</defs>
</svg>
