<svg width="18" height="18" viewBox="0 0 18 18" fill="none" xmlns="http://www.w3.org/2000/svg">
<g clip-path="url(#clip0_515_1015)">
<g clip-path="url(#clip1_515_1015)">
<path d="M17.9824 4.50434C17.9824 8.61782 17.9431 12.7313 18.0105 16.8673C17.9824 17.8057 17.797 17.9912 16.8585 17.9912C11.6137 17.9312 6.37815 17.9312 1.152 17.9912C0.185444 17.9912 0 17.8057 0 16.8673C0.0674341 12.7257 0.0280976 8.6122 0.0280976 4.50434C0.0942308 4.42312 0.187261 4.36826 0.290344 4.34971C0.393426 4.33115 0.499745 4.35012 0.590049 4.40318C0.751591 4.52258 0.897029 4.66236 1.02275 4.81903C1.64362 5.69397 2.44454 6.42591 3.37171 6.96568C4.19216 7.69622 5.41159 7.91538 5.97916 8.97747C5.28796 10.6858 3.27056 10.905 2.2478 12.2368C1.82047 12.6004 1.48051 13.0556 1.25315 13.5686C1.16617 13.7865 1.13401 14.0224 1.15949 14.2555C1.18496 14.4887 1.26729 14.7121 1.39926 14.9061C3.14131 16.7998 3.81565 16.8897 6.36129 15.5186C6.92324 15.0915 7.38966 14.5633 7.92351 14.1025C8.23396 13.8264 8.63211 13.6691 9.04741 13.6585C9.94654 13.8046 10.4692 14.5071 11.0985 15.0465C13.262 16.7661 14.0881 16.8392 16.1561 15.513C16.5719 15.0241 16.9597 14.5295 16.718 13.8271C16.6013 13.506 16.4604 13.1942 16.2966 12.8943C16.1596 12.6724 16.0076 12.4602 15.8414 12.2593C15.5434 11.9247 15.2034 11.6301 14.8299 11.3826C13.942 10.5341 12.436 10.4161 12.0201 9.01118C13.0316 7.47144 15.0884 7.20732 16.1055 5.66757C16.3238 5.33505 16.5762 5.02619 16.8585 4.74597C17.1845 4.50434 17.5104 4.22898 17.9824 4.50434Z" fill="#FAF9FA"/>
<path d="M0.0280762 3.1501V0.00878906H17.9824V2.70054C17.2406 3.00399 16.8585 2.39146 16.3359 2.08239C15.3918 1.2788 14.3466 1.37433 13.2789 1.69464C12.6192 1.95564 12.0274 2.36299 11.5481 2.88598C11.2109 3.21753 10.8737 3.54346 10.5534 3.88625C10.219 4.34183 9.84275 4.76514 9.42952 5.15064C9.24914 5.21314 9.0562 5.2305 8.86757 5.20122C7.85044 4.6786 7.33906 3.6109 6.4568 2.95341C3.93364 0.857335 2.88841 0.913531 0.595647 3.22877C0.504796 3.27704 0.401032 3.29542 0.299128 3.2813C0.197224 3.26717 0.102372 3.22126 0.0280762 3.1501Z" fill="#FDFDFC"/>
<path d="M11.076 2.65001C11.593 2.03186 12.0538 1.32942 12.9979 1.34066C14.2567 1.34066 15.5323 1.21141 16.7349 1.74527L17.9824 2.70058V3.5997C17.2069 4.28529 16.2966 4.22909 15.3581 4.11108C13.9926 3.38054 12.3292 3.61656 11.076 2.65001Z" fill="#FAAD4B"/>
<path d="M15.2851 3.61084H17.9543V4.50434L17.1226 4.982C16.372 5.226 15.5681 5.25519 14.8018 5.06629C14.695 4.94913 14.6211 4.80582 14.5875 4.65088C14.554 4.49594 14.562 4.33488 14.6107 4.18403C14.7119 3.8581 15.0153 3.75695 15.2851 3.61084Z" fill="#AB3752"/>
<path d="M0.0280762 3.15012C0.149249 3.13327 0.272171 3.13327 0.393344 3.15012C0.955296 2.76237 1.47791 2.69494 1.90499 3.35242C1.73079 4.15601 1.03397 4.34146 0.398964 4.59996L0.179803 4.66177L0.0280762 4.50442V3.15012Z" fill="#3E8790"/>
<path d="M5.90048 9.11796C5.01822 8.39867 3.7763 8.21884 3.05701 7.24667C3.59086 6.61166 4.62485 6.54985 4.90021 5.61701C5.96791 4.6055 6.91199 5.35289 7.85607 5.83617C8.58702 6.29233 9.29413 6.78562 9.97463 7.3141C10.5416 7.81115 11.0438 8.37755 11.4694 8.99996C11.5604 9.19629 11.6027 9.41162 11.5929 9.62777C11.5832 9.84392 11.5215 10.0545 11.4132 10.2419C10.7557 10.8488 10.1882 10.3599 9.63184 10.062C8.64981 9.56747 7.56174 9.32054 6.46243 9.34275C6.25908 9.31671 6.06569 9.23936 5.90048 9.11796Z" fill="#63BCB8"/>
<path d="M10.6434 15.3163L8.89572 13.7541C8.58211 13.6408 8.31014 13.4352 8.11556 13.1644C7.92098 12.8936 7.8129 12.5702 7.80553 12.2368C7.80178 12.0662 7.84353 11.8977 7.92649 11.7486C8.00945 11.5994 8.13063 11.4751 8.27757 11.3883C8.87188 11.1638 9.50564 11.0625 10.1403 11.0905C10.775 11.1185 11.3974 11.2753 11.9696 11.5513C12.363 11.7648 12.7395 12.0064 13.1272 12.2312C13.5378 12.4377 13.9058 12.7199 14.2118 13.0629C14.4099 13.2984 14.5399 13.5837 14.5874 13.8879C14.635 14.192 14.5983 14.5033 14.4815 14.7881C13.3632 16.1368 12.0314 15.9289 10.6434 15.3163Z" fill="#379A96"/>
<path d="M6.86146 15.7715C4.17533 17.7608 2.11297 17.4293 0.916016 14.8162C1.35996 14.2542 2.14669 14.1812 2.60187 13.6136C3.19342 13.1617 3.87596 12.8434 4.60242 12.6808C4.9141 12.6005 5.24171 12.6062 5.55043 12.6972C5.85914 12.7883 6.13742 12.9612 6.3557 13.1978C6.79964 13.9957 6.6142 14.9286 6.86146 15.7715Z" fill="#F2465E"/>
<path d="M10.6434 15.3163C11.9302 15.1589 13.3745 15.6141 14.3747 14.3497C15.6616 13.9002 16.4764 14.243 16.6225 15.704C14.5489 17.536 12.7844 17.4292 10.6434 15.3163Z" fill="#2FA795"/>
<path d="M5.90044 9.11796C5.98979 9.12915 6.08038 9.11143 6.15893 9.06738C7.0412 9.33712 7.66496 9.78106 7.38961 10.86C7.21947 11.1851 6.98049 11.4691 6.68933 11.6923C6.39817 11.9155 6.06183 12.0726 5.70375 12.1525C4.41688 12.0626 3.11316 12.9673 1.83191 12.1244C2.8097 10.6408 4.49556 10.0733 5.90044 9.11796Z" fill="#E53476"/>
<path d="M4.934 5.86429C5.69825 8.21324 3.64151 6.72969 3.05708 7.24669C2.02871 6.68474 1.04529 6.07221 0.556396 4.93145C1.6803 4.03233 2.8042 4.48189 3.97306 4.86402C4.20285 4.9394 4.41062 5.07002 4.57816 5.24442C4.7457 5.41882 4.86789 5.63166 4.934 5.86429Z" fill="#3E8790"/>
<path d="M16.5383 5.83616C15.5267 7.55573 13.588 8.01091 12.1101 9.09548C11.9974 9.13508 11.8743 9.13306 11.763 9.08977C11.6516 9.04648 11.5595 8.96478 11.5032 8.85946C11.0592 7.87042 11.638 7.2579 12.3124 6.68471C13.588 5.72939 14.8412 4.68416 16.5383 5.83616Z" fill="#D5454A"/>
<path d="M11.6212 8.99997L12.1101 9.0955C13.0991 9.87661 14.386 10.2194 15.212 11.2422C14.5075 11.7385 13.7716 12.189 13.0092 12.5908C12.836 12.6052 12.6621 12.5726 12.5058 12.4965C12.3496 12.4203 12.2167 12.3034 12.1213 12.1581C11.9302 11.5063 10.9075 11.259 11.2334 10.3543L11.1941 9.14608C11.2728 8.90444 11.4189 8.8651 11.6212 8.99997Z" fill="#3EBEB5"/>
<path d="M6.3051 13.4956C5.78015 13.1705 5.1684 13.0137 4.55181 13.046C4.29331 12.5571 4.55181 12.2649 4.93393 12.0233C5.23239 11.9438 5.54147 11.9115 5.84991 11.9277C6.72094 11.7142 7.40652 12.1694 8.09772 12.5908C8.36184 12.9842 8.63157 13.3776 8.89569 13.7765L8.1483 14.479C7.44397 14.3584 6.79747 14.0134 6.3051 13.4956Z" fill="#F45357"/>
<path d="M13.0092 12.5909C13.1328 11.1467 14.178 11.2085 15.212 11.2422C15.4257 11.3104 15.6225 11.4233 15.7892 11.5735C15.9558 11.7237 16.0886 11.9077 16.1786 12.1132C16.0005 12.4198 15.7572 12.6834 15.4658 12.8854C15.1745 13.0874 14.8423 13.2229 14.4927 13.2821C14.2831 13.2688 14.0846 13.1834 13.9308 13.0404C13.7508 13.0563 13.5699 13.0228 13.4076 12.9436C13.2452 12.8644 13.1075 12.7424 13.0092 12.5909Z" fill="#319EB5"/>
<path d="M16.5382 5.83624C15.8149 5.72078 15.0743 5.7838 14.3809 6.01984C13.6875 6.25587 13.0623 6.65776 12.5596 7.19054C12.4506 7.07937 12.3745 6.94019 12.3398 6.78842C12.3051 6.63666 12.3131 6.47825 12.3629 6.33075C12.5528 5.95744 12.8174 5.62714 13.1403 5.36034C13.4632 5.09353 13.8374 4.89592 14.2398 4.77977C14.3393 4.75916 14.4422 4.76269 14.54 4.79007C14.6377 4.81744 14.7275 4.86787 14.8018 4.93712C15.1452 4.69735 15.5555 4.57208 15.9742 4.57914C16.3929 4.5862 16.7988 4.72524 17.1339 4.97645L16.5382 5.83624Z" fill="#C7384B"/>
<path d="M5.84991 12.1132L4.99013 12.1469C3.98342 13.0569 2.71477 13.6254 1.36554 13.7709C1.15282 13.7366 0.956257 13.6364 0.803589 13.4843C0.860524 13.1967 0.980857 12.9254 1.15583 12.6902C1.33081 12.455 1.55603 12.2617 1.8151 12.1244C3.16378 12.012 4.46751 11.4501 5.85553 11.6861C5.99602 11.7873 6.04097 11.8828 5.9904 11.9783C5.93982 12.0738 5.90049 12.1132 5.84991 12.1132Z" fill="#CD256A"/>
<path d="M4.13593 5.39227C2.98028 5.0328 1.77095 4.87688 0.561919 4.93147C0.511417 4.89252 0.470838 4.84218 0.443493 4.78456C0.416149 4.72694 0.402813 4.66368 0.404573 4.59992C0.483246 3.69518 1.12387 3.57155 1.84879 3.58279C2.61304 3.27372 3.1188 3.78509 3.67513 4.14474C3.90552 4.33205 4.09651 4.56316 4.23708 4.8247C4.26444 4.92077 4.26956 5.02182 4.25203 5.12016C4.2345 5.21851 4.1948 5.31157 4.13593 5.39227Z" fill="#285373"/>
<path d="M6.30503 13.4956C7.1311 13.4394 7.81668 13.636 8.14823 14.5014C7.88121 15.0678 7.42657 15.5244 6.86137 15.7939C5.82738 15.2095 6.18141 14.3216 6.30503 13.4956Z" fill="#F24754"/>
<path d="M13.9308 13.0404H14.3242C14.7344 13.2539 15.2064 13.2933 15.611 13.5012C16.1201 13.6502 16.6655 13.6144 17.1508 13.4001C17.7745 14.3554 17.2632 15.0466 16.5888 15.6984C16.0999 14.8218 15.2458 14.5464 14.341 14.3441C14.2286 13.9114 14.0825 13.4956 13.9308 13.0404Z" fill="#67BCBB"/>
<path d="M17.1507 13.4057C16.881 14.8892 16.0268 14.243 15.2626 13.9227C15.094 12.9336 15.5829 12.5571 16.5101 12.6021L17.1507 13.4057Z" fill="#257198"/>
<path d="M16.5101 12.6021C15.966 12.9005 15.5295 13.3625 15.2626 13.9227C15.0505 13.8562 14.8561 13.7429 14.6936 13.5912C14.5312 13.4395 14.4049 13.2532 14.3242 13.0461C14.9648 12.782 15.3806 12.0683 16.1786 12.1132L16.5101 12.6021Z" fill="#2F85A5"/>
<path d="M2.80971 13.917C2.60741 15.0971 1.68581 14.7712 0.938411 14.8162C0.449513 14.4003 0.337123 13.962 0.820401 13.4956C0.856891 13.4681 0.899892 13.4505 0.9452 13.4446C0.990509 13.4387 1.03658 13.4446 1.0789 13.4619C1.5116 14.1025 2.37139 13.1977 2.80971 13.917Z" fill="#DE6A92"/>
<path d="M3.61329 4.50444L1.84876 3.58284C1.44978 3.14452 0.904686 3.18948 0.393311 3.1389C1.79257 0.194279 4.2202 0.00883496 6.87823 2.66124C6.05778 3.75143 4.74281 3.97059 3.61329 4.50444Z" fill="#7DF1D5"/>
<path d="M3.6134 4.50435C4.24841 3.08823 5.7151 3.12757 6.87834 2.64429C7.86737 3.21186 8.26074 4.27395 8.99128 5.02696C9.03887 5.11448 9.052 5.21664 9.02808 5.31335C9.00416 5.41006 8.94493 5.49433 8.86203 5.54957C7.30542 5.21802 5.73196 4.50435 4.04611 4.95391L3.6134 4.50435Z" fill="#81DDD1"/>
<path d="M15.2851 3.61094L14.8805 4.0886C14.4234 4.26816 13.9257 4.31871 13.4419 4.23471C12.3629 4.0886 11.1604 4.50444 10.25 3.5716L11.0761 2.65C12.5596 2.62752 14.0095 2.72306 15.2851 3.61094Z" fill="#F79D4F"/>
<path d="M10.2499 3.57153L13.9195 3.60525C13.9532 4.62238 13.0597 4.58305 12.4696 4.89774C11.4413 4.96517 10.4129 5.63951 9.37329 4.89774C9.40921 4.62466 9.50681 4.36333 9.6587 4.13356C9.81058 3.90378 10.0128 3.71159 10.2499 3.57153Z" fill="#F78F50"/>
<path d="M16.7349 1.74523C15.4705 1.77333 14.1836 2.04307 12.9979 1.34063C14.3354 0.655047 15.5941 0.62133 16.7349 1.74523Z" fill="#FAC056"/>
<path d="M9.37339 4.9202C10.4355 4.74038 11.4695 4.35825 12.5765 4.49312C12.6087 4.45522 12.6487 4.42477 12.6938 4.40389C12.739 4.38301 12.7881 4.37219 12.8378 4.37219C12.8875 4.37219 12.9367 4.38301 12.9818 4.40389C13.0269 4.42477 13.0669 4.45522 13.0991 4.49312C12.8294 5.85304 11.4695 5.44282 10.694 5.98229C10.2348 6.05434 9.76842 6.06755 9.30595 6.02163C9.04183 5.91485 8.82267 5.77437 8.99126 5.43158C9.00818 5.30476 9.00818 5.17626 8.99126 5.04945C9.11526 4.99697 9.24299 4.95377 9.37339 4.9202Z" fill="#F68250"/>
<path d="M13.026 4.50435H12.5765L13.9195 3.60522L14.8805 4.0885C14.8524 4.36948 14.8187 4.65045 14.7906 4.93705H14.3579C13.7172 5.37537 13.3295 5.0663 13.026 4.50435Z" fill="#F68C4A"/>
<path d="M11.239 10.3543C11.5087 10.9668 12.2055 11.3714 12.1269 12.1582C10.8231 11.3377 9.36767 11.7985 7.97403 11.6805C7.32779 11.6805 7.24912 11.2253 7.19854 10.7364C7.23788 9.94409 6.68155 9.51701 6.16455 9.05059C8.14262 8.32567 9.63179 9.56196 11.239 10.3543Z" fill="#5AA0A5"/>
<path d="M8.99119 5.40913L9.44075 5.83622C9.77766 6.07196 10.0252 6.4145 10.1432 6.80839C10.1767 6.95848 10.1694 7.1148 10.1219 7.26108C10.0745 7.40737 9.98868 7.53824 9.87345 7.64008C8.74955 7.64008 8.27751 6.47684 7.32782 6.11157C6.52984 5.8025 5.81055 5.20683 4.9339 5.86432L4.13593 5.39228C4.09146 5.24952 4.06134 5.10269 4.04602 4.95395C5.8555 3.38049 7.41211 4.50439 8.99119 5.40913Z" fill="#70C9C3"/>
<path d="M9.87354 7.6401V6.75222C10.0477 5.67889 11.1379 6.11159 11.6886 5.62832C11.9003 5.61113 12.1112 5.66942 12.284 5.79284C12.4568 5.91627 12.5803 6.09687 12.6327 6.30266C12.6327 6.58925 12.5878 6.86461 12.5597 7.15682C11.7505 7.49961 11.6549 8.21329 11.6212 8.96631L11.1941 9.11241C10.3006 9.04498 10.3231 8.13462 9.87354 7.6401Z" fill="#F16C4D"/>
<path d="M7.19292 10.7365L7.96841 11.6805C8.01337 11.9784 8.0527 12.2706 8.09766 12.5684C7.20978 13.1304 6.66468 11.9503 5.84985 12.1132V11.6861L7.19292 10.7365Z" fill="#F65C51"/>
<path d="M2.80975 13.9171C2.3321 13.4114 1.30373 14.9567 1.1239 13.4507L5.05756 12.147L4.5518 13.0236L2.80975 13.9171Z" fill="#B0236D"/>
<path d="M12.6327 6.33636L11.6774 5.84184C11.4882 5.99758 11.2508 6.08273 11.0058 6.08273C10.7608 6.08273 10.5234 5.99758 10.3343 5.84184C10.9412 4.81347 12.2843 5.27989 13.026 4.49878L14.3579 4.94272L12.6327 6.33636Z" fill="#F57C4D"/>
<path d="M10.3343 5.84182H11.6774C11.329 6.65103 10.3849 6.28576 9.8735 6.76342L9.4408 5.8362C9.74425 5.3473 10.0365 5.80248 10.3343 5.84182Z" fill="#F17850"/>
</g>
</g>
<defs>
<clipPath id="clip0_515_1015">
<rect width="18.0001" height="18" fill="white"/>
</clipPath>
<clipPath id="clip1_515_1015">
<rect width="18" height="18" fill="white"/>
</clipPath>
</defs>
</svg>
