<svg width="18" height="18" viewBox="0 0 18 18" fill="none" xmlns="http://www.w3.org/2000/svg">
<g clip-path="url(#clip0_515_1075)">
<g clip-path="url(#clip1_515_1075)">
<path d="M11.061 15.8288C10.9736 15.8293 10.8869 15.8445 10.8045 15.8738C10.1694 16.0486 9.5136 16.1368 8.85488 16.1359C7.89846 16.1386 6.951 15.9516 6.06734 15.5856C5.18369 15.2197 4.38139 14.6821 3.70688 14.004C3.02858 13.3292 2.4909 12.5266 2.12496 11.6425C1.75902 10.7584 1.57209 9.81058 1.57501 8.85379C1.57501 6.91092 2.33101 5.08392 3.70463 3.70917L4.97813 4.93879L6.57788 6.48454L6.58463 6.47779V6.50142C6.6767 6.58098 6.75116 6.67886 6.80327 6.78882C6.85538 6.89878 6.88398 7.0184 6.88727 7.14003C6.89055 7.26167 6.86843 7.38265 6.82233 7.49526C6.77622 7.60787 6.70715 7.70963 6.61951 7.79404V7.80304L5.06701 9.42754L4.28738 10.2443C4.19776 10.3187 4.12553 10.4119 4.07578 10.5172C4.02602 10.6226 3.99994 10.7375 3.99938 10.854C3.99895 10.9835 4.03058 11.111 4.09143 11.2253C4.15228 11.3395 4.24047 11.4369 4.34813 11.5088C4.51861 11.6247 4.72743 11.6699 4.93059 11.6349C5.13374 11.5998 5.31535 11.4873 5.43713 11.3209L7.75801 8.89091L7.75351 8.88641C7.98582 8.65238 8.16841 8.37378 8.2903 8.06736C8.41218 7.76095 8.47084 7.43305 8.46275 7.10338C8.45466 6.77371 8.37998 6.44909 8.24321 6.14902C8.10644 5.84896 7.9104 5.57965 7.66688 5.35729L7.67251 5.35167L4.94101 2.71354L4.94213 2.71242L3.78676 1.59192L3.78338 1.59417C3.3583 1.89145 2.96003 2.22535 2.59313 2.59204L2.57288 2.61454C0.922328 4.27116 -0.00307134 6.51526 1.01731e-05 8.85379C-0.00175588 10.0169 0.226435 11.1689 0.671459 12.2435C1.11648 13.3182 1.76956 14.2942 2.59313 15.1155C3.41451 15.9394 4.39069 16.5928 5.46552 17.038C6.54035 17.4833 7.69261 17.7116 8.856 17.7098C9.69465 17.7106 10.5291 17.592 11.3344 17.3577C11.4843 17.3008 11.6134 17.1996 11.7044 17.0676C11.7955 16.9355 11.8442 16.7789 11.844 16.6185C11.8449 16.4099 11.7629 16.2094 11.6161 16.0611C11.4693 15.9128 11.2697 15.8288 11.061 15.8277V15.8288Z" fill="white"/>
<path d="M17.0145 5.40788C16.57 4.35564 15.9255 3.39971 15.1167 2.59313C14.2953 1.76961 13.3192 1.11657 12.2446 0.671545C11.17 0.226524 10.018 -0.0016949 8.85491 9.4763e-06C8.05953 9.4763e-06 7.27991 0.103509 6.52503 0.309384C6.41496 0.325923 6.3096 0.365479 6.21584 0.425473C6.12208 0.485467 6.04202 0.564551 5.98088 0.657567C5.91974 0.750583 5.87889 0.855443 5.861 0.965308C5.84311 1.07517 5.84858 1.18757 5.87706 1.29518C5.90553 1.40279 5.95637 1.50319 6.02625 1.58983C6.09613 1.67647 6.1835 1.7474 6.28264 1.79801C6.38178 1.84862 6.49048 1.87776 6.60164 1.88353C6.7128 1.8893 6.82393 1.87157 6.92778 1.83151C7.55588 1.66062 8.20398 1.57436 8.85491 1.57501C9.81132 1.57239 10.7588 1.75946 11.6424 2.12539C12.526 2.49132 13.3284 3.02885 14.0029 3.70688C14.6811 4.38134 15.2189 5.1836 15.585 6.06725C15.9511 6.9509 16.1384 7.89839 16.1359 8.85488C16.1359 10.7561 15.4114 12.5449 14.0952 13.9095L13.1367 12.9724L11.5459 11.4165L11.5392 11.4244V11.3996C11.4476 11.3195 11.3738 11.2212 11.3223 11.1109C11.2709 11.0007 11.2431 10.8809 11.2405 10.7593C11.238 10.6376 11.2608 10.5168 11.3076 10.4045C11.3544 10.2922 11.424 10.1909 11.5122 10.107V10.098L13.0725 8.4825L13.8589 7.67026C13.949 7.59649 14.0217 7.50385 14.0721 7.39888C14.1224 7.29391 14.1491 7.17917 14.1503 7.06276C14.1513 6.93314 14.1202 6.80528 14.0598 6.69063C13.9993 6.57597 13.9113 6.4781 13.8038 6.40576C13.6341 6.28913 13.4258 6.24284 13.2227 6.27662C13.0196 6.3104 12.8376 6.42162 12.7148 6.58688L10.3793 9.00225L10.3849 9.00788C10.1511 9.24052 9.96671 9.51805 9.84291 9.82378C9.71911 10.1295 9.65843 10.4571 9.66453 10.7869C9.67062 11.1167 9.74337 11.4419 9.87838 11.7428C10.0134 12.0438 10.2079 12.3143 10.4502 12.5381L10.4445 12.5426L12.8802 14.9243L14.0265 16.0448C14.4124 15.7669 14.7769 15.4575 15.1178 15.1166L15.2213 15.0109C16.8215 13.3616 17.7148 11.1529 17.7109 8.85488C17.713 7.67073 17.4762 6.49833 17.0145 5.40788Z" fill="white"/>
</g>
</g>
<defs>
<clipPath id="clip0_515_1075">
<rect width="18" height="18" fill="white"/>
</clipPath>
<clipPath id="clip1_515_1075">
<rect width="18" height="18" fill="white"/>
</clipPath>
</defs>
</svg>
