<svg width="18" height="18" viewBox="0 0 18 18" fill="none" xmlns="http://www.w3.org/2000/svg">
<g clip-path="url(#clip0_515_1405)">
<g clip-path="url(#clip1_515_1405)">
<path d="M0.807158 0H0.806211C1.34432 0 1.61337 0.269053 1.61337 0.807158V8.62768C1.61337 9.16579 1.34432 9.43484 0.806211 9.43484H0.807158C0.269053 9.43484 0 9.16579 0 8.62768V0.807158C0 0.269053 0.269053 0 0.807158 0Z" fill="white"/>
<path d="M7.01431 2.23389H7.01336C7.55147 2.23389 7.82052 2.50294 7.82052 3.04104V8.13031C7.82052 8.66841 7.55147 8.93747 7.01336 8.93747H7.01431C6.47621 8.93747 6.20715 8.66841 6.20715 8.13031V3.04104C6.20715 2.50294 6.47621 2.23389 7.01431 2.23389Z" fill="white"/>
<path d="M7.01431 10.6759H7.01336C7.55147 10.6759 7.82052 10.945 7.82052 11.4831V16.5723C7.82052 17.1104 7.55147 17.3795 7.01336 17.3795H7.01431C6.47621 17.3795 6.20715 17.1104 6.20715 16.5723V11.4831C6.20715 10.945 6.47621 10.6759 7.01431 10.6759Z" fill="white"/>
<path d="M3.9108 6.95178H3.90985C4.44795 6.95178 4.71701 7.22083 4.71701 7.75894V15.3313C4.71701 15.8694 4.44795 16.1384 3.90985 16.1384H3.9108C3.37269 16.1384 3.10364 15.8694 3.10364 15.3313V7.75894C3.10364 7.22083 3.37269 6.95178 3.9108 6.95178Z" fill="white"/>
<path d="M0.807158 10.9241H0.806211C1.34432 10.9241 1.61337 11.1931 1.61337 11.7312V14.4615C1.61337 14.9997 1.34432 15.2687 0.806211 15.2687H0.807158C0.269053 15.2687 0 14.9997 0 14.4615V11.7312C0 11.1931 0.269053 10.9241 0.807158 10.9241Z" fill="white"/>
<path d="M3.9108 0.992798H3.90985C4.44795 0.992798 4.71701 1.26185 4.71701 1.79996V4.53027C4.71701 5.06838 4.44795 5.33743 3.90985 5.33743H3.9108C3.37269 5.33743 3.10364 5.06838 3.10364 4.53027V1.79996C3.10364 1.26185 3.37269 0.992798 3.9108 0.992798Z" fill="white"/>
<path d="M9.43481 2.89611C9.43481 2.43 9.82324 2.052 10.3036 2.052L17.1312 0C17.6116 0 18 0.378947 18 0.845053V14.4824C18 14.9495 17.6116 15.3275 17.1312 15.3275L10.3036 17.3795C10.0763 17.3825 9.85718 17.2952 9.69428 17.1368C9.53138 16.9783 9.43806 16.7616 9.43481 16.5344V2.89611Z" fill="white"/>
</g>
</g>
<defs>
<clipPath id="clip0_515_1405">
<rect width="18" height="18" fill="white"/>
</clipPath>
<clipPath id="clip1_515_1405">
<rect width="18" height="18" fill="white"/>
</clipPath>
</defs>
</svg>
